<?xml version="1.0" encoding="UTF-8"?>
<svg id="Layer_2" data-name="Layer 2" xmlns="http://www.w3.org/2000/svg" width="952.98" height="760.4" viewBox="0 0 952.98 760.4">
  <defs>
    <style>
      .cls-1 {
        fill: #c73c27;
      }

      .cls-2 {
        fill: #584b29;
      }

      .cls-3 {
        fill: #edd692;
      }

      .cls-4 {
        fill: #d0442e;
      }

      .cls-5 {
        fill: #609340;
      }

      .cls-6 {
        fill: #fff6d5;
      }

      .cls-7 {
        fill: #51250c;
      }

      .cls-8 {
        fill: #522d1b;
      }
    </style>
  </defs>
  <g id="Layer_1-2" data-name="Layer 1">
    <g>
      <g>
        <g>
          <g>
            <path class="cls-5" d="M710.41,6.06c-40.67,9.85-68.53,43.16-67.82,78.77,25.33-21.53,58.71-38.6,97.24-47.46,43.23-10.1,85.13-8.11,119.58,3.07-32.48-8.51-70.6-9.4-109.65-.33-32.27,7.51-60.91,20.64-84.26,37.33v.04c-11.17,5.41-24.47,17.89-32.75,26.37,1.31,3.05,2.91,7,4.58,11.2-.28-.75-.49-1.63-.82-2.34,3.2-3.27,6.26-6.37,9.25-9.18,11.8,37.25,54.79,59.38,98.45,48.75,61.48-15.05,97.31-109.73,153.63-96.38,0,0-72.3-77.74-187.43-49.81Z"/>
            <path class="cls-8" d="M632.6,103.97c-17.02-34.58-40.4-49.17-42.84-51.23-11.46-9.68-28.58-8.29-38.33,3.13-9.7,11.45-8.32,28.64,3.1,38.35.82.71,49.97,27.72,40.25,114.14,8.72,2.38,16.22,5.05,20.42,8,0,0,13.84-4.12,34.37-9.04,2.97-39.24-3.04-69.38-12.25-92.29-1.67-4.2-3.27-8.15-4.58-11.2-.05.04-.12.1-.14.14Z"/>
          </g>
          <g>
            <path class="cls-4" d="M615.2,216.36c-4.2-2.95-11.71-5.62-20.42-8v.04c-10.57-2.64-23.91-5.55-38.82-8.08-10.49-1.68-20.28-2.96-28-3.88-72.23-7.83-166.45-.22-206.29,80.93-68.77,139.98-22.13,331.57,95.78,415.08,105.41,74.68,185.13,47.28,200.84,40.63V215.47c-1.88.54-3.08.89-3.08.89Z"/>
            <path class="cls-1" d="M920.96,277.38c-20.52-41.76-55.49-64-94.42-74.78.64.47,1.49.75,2.13,1.25-.64-.5-1.48-.79-2.13-1.25-63.47-17.5-137.48-4.37-176.96,5.38v-.65c-14.95,3.56-26.19,6.69-31.29,8.15v517.61c1.85-.78,3.02-1.35,3.02-1.35,0,0,85.97,44.23,203.87-39.28,117.92-83.51,164.56-275.1,95.78-415.08Z"/>
          </g>
        </g>
        <path class="cls-6" d="M555.48,335.32c-18.29-37.23-45.79-53.17-80.49-62.78-56.58-15.6-131.15-3.86-165.81,4.83,0-.19,5.98-6.22,5.98-6.41-13.86,3.18-20.09,5.96-24.64,7.26-1.68.48-4.71.79-4.71.79-3.75-2.63-12.24-5.01-20.17-7.13v.03c-8.91-2.35-17.73-4.95-31.02-7.2-9.35-1.49-16.28-2.64-23.17-3.46-64.39-6.98-147.48-.2-182.99,72.15-61.31,124.78-19.28,295.56,85.82,370,93.97,66.57,165.25,42.14,179.25,36.22,1.65-.69,2.81-1.2,2.81-1.2,0,0,70.3,38.38,175.4-36.06,105.12-74.44,145.02-242.25,83.71-367.03Z"/>
        <path class="cls-3" d="M295,423.47l.91.5c.2.11,19.95,11.01,38.22,27.82,14.26,13.12,30.75,32.67,28.32,51.3-2.97,22.8-18.3,44.09-30.63,57.94-14.2,15.95-27.98,26.09-28.61,26.56l-6.96,4.95-6.14,2.04-7-5.02c-.53-.38-53.34-39.44-59.22-84.48-2.43-18.62,14.06-38.18,28.32-51.3,18.27-16.82,38.03-27.71,38.19-27.8l4.59-2.5M328.11,282.04l-38.36,9.17v.46l-31.76-7.65s20.53,53.34,20.53,120.2c0,0-86.63,47.1-79.2,104.05,7.43,56.95,69.35,101.57,69.35,101.57,0,0,24.78,86.38,7.44,121.38h19.64v-2h14.49c-17.33-35,7.43-121.37,7.43-121.37,0,0,61.9-44.53,69.33-101.48,7.43-56.95-79.29-104.09-79.29-104.09,0-66.85,20.41-120.24,20.41-120.24h0Z"/>
        <path class="cls-1" d="M412.89,272.95c22.34,0,42.39,2.41,59.58,7.15,17.48,4.84,32.8,11.88,45.54,20.92,14.49,10.29,25.64,23.24,33.14,38.5,14.17,28.84,22.89,60.84,25.93,95.1,2.92,32.99.47,66.46-7.29,99.5-7.71,32.82-20.19,63.2-37.08,90.29-17.33,27.79-38.38,50.56-62.57,67.69-22.18,15.71-44.74,27.28-67.04,34.38-17.73,5.65-35.37,8.51-52.44,8.51-29.12,0-47.06-8.46-48-8.92l-5.76-3.05-6.15,2.72c-.06.02-1.09.48-2.55,1.09h-.02s-.02.02-.02.02c-4.53,1.92-21.26,8.17-46.29,8.17-17.07,0-34.72-2.87-52.46-8.52-22.32-7.11-44.89-18.69-67.08-34.41-24.19-17.13-45.26-39.91-62.63-67.7-16.93-27.1-29.45-57.48-37.21-90.3-7.81-33.04-10.31-66.52-7.42-99.49,3-34.26,11.7-66.25,25.87-95.09,21.67-44.14,66.35-66.52,132.8-66.52,11.47,0,23.64.69,36.17,2.04,5.86.7,11.96,1.68,19.67,2.91l2.82.45c10.65,1.81,18.32,3.87,25.73,5.86,1.34.36,2.67.72,3.99,1.07l3.36.88c4.33,1.2,10.52,3.02,12.43,4.19l4.19,2.94,5.15-.53c1.27-.13,4.51-.52,7.09-1.25,1.66-.47,3.02-1.04,4.91-1.69.56-.19.5-.4,1.5-.61v.05l17.51-4.32c14.42-3.62,52.75-12.03,94.63-12.03M412.18,259.09c-38.54,0-75.43,6.84-98.43,12.44v-.58c-13,3.18-19.39,5.96-23.93,7.26-1.68.48-4.81.79-4.81.79-3.75-2.63-12.27-5.01-20.27-7.13v.03c-9-2.35-17.28-4.95-30.56-7.2-9.35-1.49-16.06-2.64-22.94-3.46-12.07-1.31-24.68-2.13-37.63-2.13-56.12,0-116.33,15.5-145.19,74.28-61.31,124.78-19.25,295.56,85.85,370,51.07,36.18,95.46,45.48,127.57,45.48,26.97,0,45.31-6.56,51.7-9.26,1.65-.69,2.81-1.2,2.81-1.2,0,0,20.3,10.43,54.3,10.43,32.11,0,76.44-9.29,127.49-45.44,105.12-74.44,146.74-245.22,85.44-370-18.29-37.23-53.08-57.05-87.77-66.66-20.14-5.55-42.32-7.65-63.63-7.65h0Z"/>
        <path class="cls-7" d="M240.19,526.54c2.83-16.22,14.21-37.76,23.32-36.16,9.12,1.59,12.52,25.71,9.69,41.92-2.83,16.22-10.83,18.4-19.94,16.81-9.12-1.59-15.9-6.35-13.07-22.57Z"/>
        <path class="cls-7" d="M337.87,526.54c-2.83-16.22-14.2-37.76-23.32-36.16-9.12,1.59-12.52,25.71-9.69,41.92,2.83,16.22,10.83,18.4,19.94,16.81,9.11-1.59,15.9-6.35,13.06-22.57Z"/>
      </g>
      <path class="cls-2" d="M299.68,283.08c-.16,0-.32,0-.47,0-6.59-.26-9.63-5.44-9.38-12.02,2.42-61.33-20.88-77.24-21.09-77.39-5.64-3.4-7.29-10.63-3.9-16.27,3.41-5.64,10.89-7.36,16.54-3.96,3.4,2.06,30.65,21.68,27.66,97.62-.26,6.42-3,12.03-9.36,12.03Z"/>
      <path class="cls-7" d="M288.77,726.93c18.91,0,24.46,27.91,24.46,27.91l-12.46-8.07,1.36,8.07-7.21-8.09-3.9,8.09-3.61-8.32-8.88,12.48-.8-13.08-8.92,14.46s1.04-33.47,19.95-33.47Z"/>
    </g>
  </g>
</svg>