<?xml version="1.0" encoding="UTF-8"?>
<svg id="Layer_2" data-name="Layer 2" xmlns="http://www.w3.org/2000/svg" width="880.67" height="913.71" viewBox="0 0 880.67 913.71">
  <defs>
    <style>
      .cls-1 {
        fill: #c9dd8e;
      }

      .cls-2 {
        fill: #4e7c39;
      }

      .cls-3 {
        fill: #743629;
      }

      .cls-4 {
        fill: #515826;
      }

      .cls-5 {
        fill: #3e5b2d;
      }

      .cls-6 {
        fill: #f8f3a5;
      }

      .cls-7 {
        fill: #5f8d45;
      }
    </style>
  </defs>
  <g id="Layer_1-2" data-name="Layer 1">
    <g>
      <g>
        <path class="cls-5" d="M814.41,626.41c0,2.77-2.25,5.02-5.02,5.02h0c-2.77,0-5.02-2.25-5.02-5.02v-36.81c0-2.77,2.25-5.02,5.02-5.02h0c2.77,0,5.02,2.25,5.02,5.02v36.81Z"/>
        <path class="cls-5" d="M857.05,549.19c0,4.93-3.99,8.92-8.92,8.92h0c-4.93,0-8.92-4-8.92-8.92v-31.23c0-4.93,4-8.92,8.92-8.92h0c4.93,0,8.92,4,8.92,8.92v31.23Z"/>
        <path class="cls-5" d="M751.94,581.8c0,2.77-2.25,5.02-5.02,5.02h0c-2.77,0-5.02-2.25-5.02-5.02v-36.81c0-2.77,2.25-5.02,5.02-5.02h0c2.77,0,5.02,2.25,5.02,5.02v36.81Z"/>
        <path class="cls-5" d="M794.59,504.57c0,4.93-3.99,8.92-8.92,8.92h0c-4.93,0-8.92-4-8.92-8.92v-31.23c0-4.93,4-8.92,8.92-8.92h0c4.93,0,8.92,3.99,8.92,8.92v31.23Z"/>
        <path class="cls-5" d="M828.91,481.41c0,2.77-2.25,5.02-5.02,5.02h0c-2.77,0-5.02-2.25-5.02-5.02v-36.81c0-2.77,2.25-5.02,5.02-5.02h0c2.77,0,5.02,2.25,5.02,5.02v36.81Z"/>
        <path class="cls-5" d="M715.39,631.73c0,4.93-3.99,8.92-8.92,8.92h0c-4.93,0-8.92-4-8.92-8.92v-31.23c0-4.93,4-8.92,8.92-8.92h0c4.93,0,8.92,4,8.92,8.92v31.23Z"/>
        <path class="cls-2" d="M581.49,851.83c-15.57,0-31.2-1.18-46.44-3.5-97.87-12.97-188.19-77.88-229.75-165.33-30.3-61.39-36.1-136.72-15.8-206.43,20.83-71.03,54.48-137.59,87.03-201.96l3.15-6.22c9.82-21.13,18.61-43.65,27.11-65.43,18.8-48.15,38.23-97.94,71.31-140.87C507.35,23.27,555.23,0,606.06,0c8.08,0,16.17.61,24.06,1.82,53.36,4.93,101.71,40.48,126.29,92.9,21.09,44.12,32.41,91.13,43.37,136.59,8.29,34.4,16.86,69.95,29.55,103.08l.34.96c2.28,7.12,4.58,14.25,6.9,21.41,21.11,65.27,42.94,132.75,44.1,204.25.45,93.05-47.58,183.74-125.34,236.89-48.78,34.71-110.62,53.94-173.84,53.94Z"/>
        <path class="cls-5" d="M637.29,71.62c0,4.93-3.99,8.92-8.92,8.92h0c-4.93,0-8.92-4-8.92-8.92v-31.23c0-4.93,4-8.92,8.92-8.92h0c4.93,0,8.92,4,8.92,8.92v31.23Z"/>
        <path class="cls-5" d="M697.52,115.69c0,2.77-2.25,5.02-5.02,5.02h0c-2.77,0-5.02-2.25-5.02-5.02v-36.81c0-2.77,2.25-5.02,5.02-5.02h0c2.77,0,5.02,2.25,5.02,5.02v36.81Z"/>
        <path class="cls-5" d="M326.63,627.94c0,2.77-2.25,5.02-5.02,5.02h0c-2.77,0-5.02-2.25-5.02-5.02v-36.81c0-2.77,2.25-5.02,5.02-5.02h0c2.77,0,5.02,2.25,5.02,5.02v36.81Z"/>
        <path class="cls-5" d="M389.36,600.9c0,4.93-3.99,8.92-8.92,8.92h0c-4.93,0-8.92-4-8.92-8.92v-31.23c0-4.93,4-8.92,8.92-8.92h0c4.93,0,8.92,4,8.92,8.92v31.23Z"/>
        <path class="cls-5" d="M814.41,626.41c0,2.77-2.25,5.02-5.02,5.02h0c-2.77,0-5.02-2.25-5.02-5.02v-36.81c0-2.77,2.25-5.02,5.02-5.02h0c2.77,0,5.02,2.25,5.02,5.02v36.81Z"/>
        <path class="cls-5" d="M857.05,549.19c0,4.93-3.99,8.92-8.92,8.92h0c-4.93,0-8.92-4-8.92-8.92v-31.23c0-4.93,4-8.92,8.92-8.92h0c4.93,0,8.92,4,8.92,8.92v31.23Z"/>
        <path class="cls-5" d="M751.94,581.8c0,2.77-2.25,5.02-5.02,5.02h0c-2.77,0-5.02-2.25-5.02-5.02v-36.81c0-2.77,2.25-5.02,5.02-5.02h0c2.77,0,5.02,2.25,5.02,5.02v36.81Z"/>
        <path class="cls-5" d="M794.59,504.57c0,4.93-3.99,8.92-8.92,8.92h0c-4.93,0-8.92-4-8.92-8.92v-31.23c0-4.93,4-8.92,8.92-8.92h0c4.93,0,8.92,3.99,8.92,8.92v31.23Z"/>
        <path class="cls-5" d="M828.91,481.41c0,2.77-2.25,5.02-5.02,5.02h0c-2.77,0-5.02-2.25-5.02-5.02v-36.81c0-2.77,2.25-5.02,5.02-5.02h0c2.77,0,5.02,2.25,5.02,5.02v36.81Z"/>
        <path class="cls-5" d="M715.39,631.73c0,4.93-3.99,8.92-8.92,8.92h0c-4.93,0-8.92-4-8.92-8.92v-31.23c0-4.93,4-8.92,8.92-8.92h0c4.93,0,8.92,4,8.92,8.92v31.23Z"/>
        <path class="cls-5" d="M753.76,782.12c0,2.77-2.25,5.02-5.02,5.02h0c-2.77,0-5.02-2.25-5.02-5.02v-36.81c0-2.77,2.25-5.02,5.02-5.02h0c2.77,0,5.02,2.25,5.02,5.02v36.81Z"/>
        <path class="cls-5" d="M812.03,735.01c0,4.93-3.99,8.92-8.92,8.92h0c-4.93,0-8.92-3.99-8.92-8.92v-31.23c0-4.93,4-8.92,8.92-8.92h0c4.93,0,8.92,4,8.92,8.92v31.23Z"/>
        <path class="cls-5" d="M706.92,767.62c0,2.77-2.25,5.02-5.02,5.02h0c-2.77,0-5.02-2.25-5.02-5.02v-36.81c0-2.77,2.25-5.02,5.02-5.02h0c2.77,0,5.02,2.25,5.02,5.02v36.81Z"/>
        <path class="cls-5" d="M749.56,690.4c0,4.93-3.99,8.92-8.92,8.92h0c-4.93,0-8.92-4-8.92-8.92v-31.23c0-4.93,4-8.92,8.92-8.92h0c4.93,0,8.92,4,8.92,8.92v31.23Z"/>
        <path class="cls-5" d="M783.88,667.23c0,2.77-2.25,5.02-5.02,5.02h0c-2.77,0-5.02-2.25-5.02-5.02v-36.81c0-2.77,2.25-5.02,5.02-5.02h0c2.77,0,5.02,2.25,5.02,5.02v36.81Z"/>
        <path class="cls-5" d="M670.36,817.56c0,4.93-3.99,8.92-8.92,8.92h0c-4.93,0-8.92-3.99-8.92-8.92v-31.23c0-4.93,4-8.92,8.92-8.92h0c4.93,0,8.92,4,8.92,8.92v31.23Z"/>
        <path class="cls-5" d="M707.86,554.88c0,2.77-2.25,5.02-5.02,5.02h0c-2.77,0-5.02-2.25-5.02-5.02v-36.81c0-2.77,2.25-5.02,5.02-5.02h0c2.77,0,5.02,2.25,5.02,5.02v36.81Z"/>
        <path class="cls-5" d="M750.51,477.65c0,4.93-3.99,8.92-8.92,8.92h0c-4.93,0-8.92-4-8.92-8.92v-31.23c0-4.93,4-8.92,8.92-8.92h0c4.93,0,8.92,4,8.92,8.92v31.23Z"/>
        <path class="cls-5" d="M645.39,510.26c0,2.77-2.25,5.02-5.02,5.02h0c-2.77,0-5.02-2.25-5.02-5.02v-36.81c0-2.77,2.25-5.02,5.02-5.02h0c2.77,0,5.02,2.25,5.02,5.02v36.81Z"/>
        <path class="cls-5" d="M688.04,433.03c0,4.93-3.99,8.92-8.92,8.92h0c-4.93,0-8.92-4-8.92-8.92v-31.23c0-4.93,4-8.92,8.92-8.92h0c4.93,0,8.92,4,8.92,8.92v31.23Z"/>
        <path class="cls-5" d="M722.36,409.87c0,2.77-2.25,5.02-5.02,5.02h0c-2.77,0-5.02-2.25-5.02-5.02v-36.81c0-2.77,2.25-5.02,5.02-5.02h0c2.77,0,5.02,2.25,5.02,5.02v36.81Z"/>
        <path class="cls-5" d="M608.84,560.19c0,4.93-3.99,8.92-8.92,8.92h0c-4.93,0-8.92-4-8.92-8.92v-31.23c0-4.93,4-8.92,8.92-8.92h0c4.93,0,8.92,4,8.92,8.92v31.23Z"/>
        <path class="cls-5" d="M641.1,758.7c0,2.77-2.25,5.02-5.02,5.02h0c-2.77,0-5.02-2.25-5.02-5.02v-36.81c0-2.77,2.25-5.02,5.02-5.02h0c2.77,0,5.02,2.25,5.02,5.02v36.81Z"/>
        <path class="cls-5" d="M683.75,681.47c0,4.93-3.99,8.92-8.92,8.92h0c-4.93,0-8.92-4-8.92-8.92v-31.23c0-4.93,4-8.92,8.92-8.92h0c4.93,0,8.92,4,8.92,8.92v31.23Z"/>
        <path class="cls-5" d="M578.64,714.08c0,2.77-2.25,5.02-5.02,5.02h0c-2.77,0-5.02-2.25-5.02-5.02v-36.81c0-2.77,2.25-5.02,5.02-5.02h0c2.77,0,5.02,2.25,5.02,5.02v36.81Z"/>
        <path class="cls-5" d="M621.29,636.85c0,4.93-3.99,8.92-8.92,8.92h0c-4.93,0-8.92-3.99-8.92-8.92v-31.23c0-4.93,4-8.92,8.92-8.92h0c4.93,0,8.92,3.99,8.92,8.92v31.23Z"/>
        <path class="cls-5" d="M655.6,613.69c0,2.77-2.25,5.02-5.02,5.02h0c-2.77,0-5.02-2.25-5.02-5.02v-36.81c0-2.77,2.25-5.02,5.02-5.02h0c2.77,0,5.02,2.25,5.02,5.02v36.81Z"/>
        <path class="cls-5" d="M542.09,764.02c0,4.93-3.99,8.92-8.92,8.92h0c-4.93,0-8.92-4-8.92-8.92v-31.23c0-4.93,4-8.92,8.92-8.92h0c4.93,0,8.92,4,8.92,8.92v31.23Z"/>
        <path class="cls-5" d="M511.71,683.96c0,2.77-2.25,5.02-5.02,5.02h0c-2.77,0-5.02-2.25-5.02-5.02v-36.81c0-2.77,2.25-5.02,5.02-5.02h0c2.77,0,5.02,2.25,5.02,5.02v36.81Z"/>
        <path class="cls-5" d="M554.36,606.74c0,4.93-3.99,8.92-8.92,8.92h0c-4.93,0-8.92-4-8.92-8.92v-31.23c0-4.93,4-8.92,8.92-8.92h0c4.93,0,8.92,4,8.92,8.92v31.23Z"/>
        <path class="cls-5" d="M449.24,639.34c0,2.77-2.25,5.02-5.02,5.02h0c-2.77,0-5.02-2.25-5.02-5.02v-36.81c0-2.77,2.25-5.02,5.02-5.02h0c2.77,0,5.02,2.25,5.02,5.02v36.81Z"/>
        <path class="cls-5" d="M491.89,562.12c0,4.93-3.99,8.92-8.92,8.92h0c-4.93,0-8.92-3.99-8.92-8.92v-31.23c0-4.93,4-8.92,8.92-8.92h0c4.93,0,8.92,3.99,8.92,8.92v31.23Z"/>
        <path class="cls-5" d="M526.21,538.95c0,2.77-2.25,5.02-5.02,5.02h0c-2.77,0-5.02-2.25-5.02-5.02v-36.81c0-2.77,2.25-5.02,5.02-5.02h0c2.77,0,5.02,2.25,5.02,5.02v36.81Z"/>
        <path class="cls-5" d="M412.69,689.28c0,4.93-3.99,8.92-8.92,8.92h0c-4.93,0-8.92-4-8.92-8.92v-31.23c0-4.93,4-8.92,8.92-8.92h0c4.93,0,8.92,4,8.92,8.92v31.23Z"/>
        <path class="cls-5" d="M410.2,551.22c0,2.77-2.25,5.02-5.02,5.02h0c-2.77,0-5.02-2.25-5.02-5.02v-36.81c0-2.77,2.25-5.02,5.02-5.02h0c2.77,0,5.02,2.25,5.02,5.02v36.81Z"/>
        <path class="cls-5" d="M452.85,474c0,4.93-3.99,8.92-8.92,8.92h0c-4.93,0-8.92-4-8.92-8.92v-31.23c0-4.93,4-8.92,8.92-8.92h0c4.93,0,8.92,4,8.92,8.92v31.23Z"/>
        <path class="cls-5" d="M347.74,506.6c0,2.77-2.25,5.02-5.02,5.02h0c-2.77,0-5.02-2.25-5.02-5.02v-36.81c0-2.77,2.25-5.02,5.02-5.02h0c2.77,0,5.02,2.25,5.02,5.02v36.81Z"/>
        <path class="cls-5" d="M390.38,429.38c0,4.93-3.99,8.92-8.92,8.92h0c-4.93,0-8.92-4-8.92-8.92v-31.23c0-4.93,4-8.92,8.92-8.92h0c4.93,0,8.92,4,8.92,8.92v31.23Z"/>
        <path class="cls-5" d="M424.7,406.21c0,2.77-2.25,5.02-5.02,5.02h0c-2.77,0-5.02-2.25-5.02-5.02v-36.81c0-2.77,2.25-5.02,5.02-5.02h0c2.77,0,5.02,2.25,5.02,5.02v36.81Z"/>
        <path class="cls-5" d="M311.19,556.54c0,4.93-3.99,8.92-8.92,8.92h0c-4.93,0-8.92-4-8.92-8.92v-31.23c0-4.93,4-8.92,8.92-8.92h0c4.93,0,8.92,4,8.92,8.92v31.23Z"/>
        <path class="cls-5" d="M606.52,461.99c0,2.77-2.25,5.02-5.02,5.02h0c-2.77,0-5.02-2.25-5.02-5.02v-36.81c0-2.77,2.25-5.02,5.02-5.02h0c2.77,0,5.02,2.25,5.02,5.02v36.81Z"/>
        <path class="cls-5" d="M649.17,384.76c0,4.93-3.99,8.92-8.92,8.92h0c-4.93,0-8.92-3.99-8.92-8.92v-31.23c0-4.93,4-8.92,8.92-8.92h0c4.93,0,8.92,3.99,8.92,8.92v31.23Z"/>
        <path class="cls-5" d="M544.06,417.37c0,2.77-2.25,5.02-5.02,5.02h0c-2.77,0-5.02-2.25-5.02-5.02v-36.81c0-2.77,2.25-5.02,5.02-5.02h0c2.77,0,5.02,2.25,5.02,5.02v36.81Z"/>
        <path class="cls-5" d="M586.71,340.14c0,4.93-3.99,8.92-8.92,8.92h0c-4.93,0-8.92-4-8.92-8.92v-31.23c0-4.93,4-8.92,8.92-8.92h0c4.93,0,8.92,4,8.92,8.92v31.23Z"/>
        <path class="cls-5" d="M621.02,316.98c0,2.77-2.25,5.02-5.02,5.02h0c-2.77,0-5.02-2.25-5.02-5.02v-36.81c0-2.77,2.25-5.02,5.02-5.02h0c2.77,0,5.02,2.25,5.02,5.02v36.81Z"/>
        <path class="cls-5" d="M507.51,467.31c0,4.93-3.99,8.92-8.92,8.92h0c-4.93,0-8.92-3.99-8.92-8.92v-31.23c0-4.93,4-8.92,8.92-8.92h0c4.93,0,8.92,3.99,8.92,8.92v31.23Z"/>
        <path class="cls-5" d="M741.49,356.02c0,2.77-2.25,5.02-5.02,5.02h0c-2.77,0-5.02-2.25-5.02-5.02v-36.81c0-2.77,2.25-5.02,5.02-5.02h0c2.77,0,5.02,2.25,5.02,5.02v36.81Z"/>
        <path class="cls-5" d="M784.14,278.79c0,4.93-3.99,8.92-8.92,8.92h0c-4.93,0-8.92-4-8.92-8.92v-31.23c0-4.93,4-8.92,8.92-8.92h0c4.93,0,8.92,3.99,8.92,8.92v31.23Z"/>
        <path class="cls-5" d="M679.03,311.4c0,2.77-2.25,5.02-5.02,5.02h0c-2.77,0-5.02-2.25-5.02-5.02v-36.81c0-2.77,2.25-5.02,5.02-5.02h0c2.77,0,5.02,2.25,5.02,5.02v36.81Z"/>
        <path class="cls-5" d="M721.68,234.17c0,4.93-3.99,8.92-8.92,8.92h0c-4.93,0-8.92-3.99-8.92-8.92v-31.23c0-4.93,4-8.92,8.92-8.92h0c4.93,0,8.92,4,8.92,8.92v31.23Z"/>
        <path class="cls-5" d="M756,211.01c0,2.77-2.25,5.02-5.02,5.02h0c-2.77,0-5.02-2.25-5.02-5.02v-36.81c0-2.77,2.25-5.02,5.02-5.02h0c2.77,0,5.02,2.25,5.02,5.02v36.81Z"/>
        <path class="cls-5" d="M796.41,393.69c0,4.93-3.99,8.92-8.92,8.92h0c-4.93,0-8.92-4-8.92-8.92v-31.23c0-4.93,4-8.92,8.92-8.92h0c4.93,0,8.92,4,8.92,8.92v31.23Z"/>
        <path class="cls-5" d="M490.52,341.52c0,2.77-2.25,5.02-5.02,5.02h0c-2.77,0-5.02-2.25-5.02-5.02v-36.81c0-2.77,2.25-5.02,5.02-5.02h0c2.77,0,5.02,2.25,5.02,5.02v36.81Z"/>
        <path class="cls-5" d="M533.16,264.29c0,4.93-3.99,8.92-8.92,8.92h0c-4.93,0-8.92-4-8.92-8.92v-31.23c0-4.93,4-8.92,8.92-8.92h0c4.93,0,8.92,4,8.92,8.92v31.23Z"/>
        <path class="cls-5" d="M428.05,296.9c0,2.77-2.25,5.02-5.02,5.02h0c-2.77,0-5.02-2.25-5.02-5.02v-36.81c0-2.77,2.25-5.02,5.02-5.02h0c2.77,0,5.02,2.25,5.02,5.02v36.81Z"/>
        <path class="cls-5" d="M470.7,219.67c0,4.93-3.99,8.92-8.92,8.92h0c-4.93,0-8.92-4-8.92-8.92v-31.23c0-4.93,4-8.92,8.92-8.92h0c4.93,0,8.92,4,8.92,8.92v31.23Z"/>
        <path class="cls-5" d="M505.02,196.51c0,2.77-2.25,5.02-5.02,5.02h0c-2.77,0-5.02-2.25-5.02-5.02v-36.81c0-2.77,2.25-5.02,5.02-5.02h0c2.77,0,5.02,2.25,5.02,5.02v36.81Z"/>
        <path class="cls-5" d="M391.5,346.84c0,4.93-3.99,8.92-8.92,8.92h0c-4.93,0-8.92-4-8.92-8.92v-31.23c0-4.93,4-8.92,8.92-8.92h0c4.93,0,8.92,4,8.92,8.92v31.23Z"/>
        <path class="cls-5" d="M679.03,232.2c0,2.77-2.25,5.02-5.02,5.02h0c-2.77,0-5.02-2.25-5.02-5.02v-36.81c0-2.77,2.25-5.02,5.02-5.02h0c2.77,0,5.02,2.25,5.02,5.02v36.81Z"/>
        <path class="cls-5" d="M584.48,138.24c0,4.93-3.99,8.92-8.92,8.92h0c-4.93,0-8.92-3.99-8.92-8.92v-31.23c0-4.93,4-8.92,8.92-8.92h0c4.93,0,8.92,3.99,8.92,8.92v31.23Z"/>
        <path class="cls-5" d="M616.56,187.58c0,2.77-2.25,5.02-5.02,5.02h0c-2.77,0-5.02-2.25-5.02-5.02v-36.81c0-2.77,2.25-5.02,5.02-5.02h0c2.77,0,5.02,2.25,5.02,5.02v36.81Z"/>
        <path class="cls-5" d="M659.21,110.36c0,4.93-3.99,8.92-8.92,8.92h0c-4.93,0-8.92-4-8.92-8.92v-31.23c0-4.93,4-8.92,8.92-8.92h0c4.93,0,8.92,4,8.92,8.92v31.23Z"/>
        <path class="cls-5" d="M506.78,117.91c0,2.77-2.25,5.02-5.02,5.02h0c-2.77,0-5.02-2.25-5.02-5.02v-36.81c0-2.77,2.25-5.02,5.02-5.02h0c2.77,0,5.02,2.25,5.02,5.02v36.81Z"/>
        <path class="cls-5" d="M580.01,237.52c0,4.93-3.99,8.92-8.92,8.92h0c-4.93,0-8.92-4-8.92-8.92v-31.23c0-4.93,4-8.92,8.92-8.92h0c4.93,0,8.92,4,8.92,8.92v31.23Z"/>
        <path class="cls-5" d="M595.2,834.86c0,2.77-2.25,5.02-5.02,5.02h0c-2.77,0-5.02-2.25-5.02-5.02v-36.81c0-2.77,2.25-5.02,5.02-5.02h0c2.77,0,5.02,2.25,5.02,5.02v36.81Z"/>
        <path class="cls-5" d="M493.95,808.94c0,4.93-3.99,8.92-8.92,8.92h0c-4.93,0-8.92-3.99-8.92-8.92v-31.23c0-4.93,4-8.92,8.92-8.92h0c4.93,0,8.92,4,8.92,8.92v31.23Z"/>
        <path class="cls-5" d="M352.03,703.23c0,2.77-2.25,5.02-5.02,5.02h0c-2.77,0-5.02-2.25-5.02-5.02v-36.81c0-2.77,2.25-5.02,5.02-5.02h0c2.77,0,5.02,2.25,5.02,5.02v36.81Z"/>
        <path class="cls-5" d="M431.49,764.32c0,4.93-3.99,8.92-8.92,8.92h0c-4.93,0-8.92-4-8.92-8.92v-31.23c0-4.93,4-8.92,8.92-8.92h0c4.93,0,8.92,4,8.92,8.92v31.23Z"/>
        <path class="cls-5" d="M465.81,741.16c0,2.77-2.25,5.02-5.02,5.02h0c-2.77,0-5.02-2.25-5.02-5.02v-36.81c0-2.77,2.25-5.02,5.02-5.02h0c2.77,0,5.02,2.25,5.02,5.02v36.81Z"/>
        <path class="cls-5" d="M607.73,747.59c0,4.93-3.99,8.92-8.92,8.92h0c-4.93,0-8.92-3.99-8.92-8.92v-31.23c0-4.93,4-8.92,8.92-8.92h0c4.93,0,8.92,4,8.92,8.92v31.23Z"/>
      </g>
      <g>
        <g>
          <path class="cls-4" d="M309.5,178.64c43.83,3.85,80.91,34.22,99.1,73.03,32.04,67.03,37.62,141.86,63.96,210.64,20.13,63.04,43.2,127.21,44.29,194.74.37,76.76-40.24,152.44-103.79,195.88-52.2,37.14-119.81,51.62-183.24,41.97-80.92-10.73-155.93-63.38-190.98-137.15-26.19-53.05-29.33-115.21-13.05-171.09,18.58-63.38,49.07-122.78,78.7-181.4,27.86-59.84,44.25-126.3,85.22-179.46,27.18-36.06,74.92-54.2,119.78-47.16h0Z"/>
          <path class="cls-7" d="M268.47,913.71c-13.76,0-27.56-1.04-41.02-3.09-86.45-11.46-166.23-68.8-202.94-146.04-26.77-54.22-31.89-120.76-13.96-182.35,18.4-62.74,48.12-121.54,76.87-178.4l2.78-5.49c8.67-18.67,16.44-38.55,23.95-57.79,16.6-42.53,33.77-86.52,62.99-124.43,25.84-34.3,68.14-54.85,113.04-54.85,7.13,0,14.28.54,21.25,1.61,47.13,4.36,89.84,35.75,111.55,82.06,18.63,38.97,28.63,80.49,38.31,120.65,7.32,30.38,14.89,61.79,26.1,91.05l.3.85c2.01,6.29,4.05,12.59,6.09,18.91,18.65,57.65,37.93,117.26,38.95,180.41.4,82.19-42.03,162.3-110.71,209.25-43.09,30.66-97.71,47.64-153.56,47.64ZM290.17,193.03c-34.46,0-68.09,16.22-87.77,42.33-26.55,34.45-42.15,74.42-58.67,116.73-7.72,19.78-15.7,40.23-24.85,59.88l-.22.46-2.9,5.73c-28.1,55.58-57.16,113.05-74.73,172.97-15.73,54.02-11.34,112.2,12.06,159.59,32.31,67.98,102.47,118.32,178.83,128.44,61.6,9.36,124.56-5.45,171.94-39.16,59.43-40.64,97.45-112.34,97.12-182.86-.94-58.22-19.48-115.54-37.42-170.97-2.01-6.21-4.01-12.41-5.99-18.59-11.86-31.06-19.64-63.34-27.16-94.56-9.72-40.33-18.9-78.43-36.14-114.5-17.05-36.38-50.05-60.89-86.17-64.07l-1.07-.13c-5.52-.87-11.19-1.3-16.86-1.3Z"/>
        </g>
        <path class="cls-1" d="M460.29,447.57c-19.37-57.72-28.51-118.82-49.72-176.12-13.61-37.63-43.27-71.31-82.84-81.94-44.76-13.15-96.99-2.31-127.66,34.08-39.37,50.43-59.34,111.6-83.34,170.12-24.21,51.74-51.83,102.17-71.64,155.57-18.67,46.02-27.56,95.75-18.91,144.91,13.48,83.45,76.82,153.46,154.45,183.08,36.28,10.47,73.86,17.53,111.43,12.85,75.21-6.55,145.55-50.2,184.68-114.69,33.32-52.17,39.25-117.57,27.91-177.27-12.08-50.48-26.29-101.2-44.36-150.59Z"/>
        <path class="cls-6" d="M278.69,362.08c22,3.92,43.27,17.06,54.65,37.07,23.01,42.32,34.06,89.61,56.2,132.73,18.57,37.84,36.69,78.31,36.5,121.31-2.13,42.25-21.33,85.27-56.75,109.23-43.47,30.4-103.13,44.56-152.54,20.12-49.62-19.48-85.43-67.82-90.46-120.63-2.24-36.64,8.53-72.24,21.39-105.93,19.67-50.11,27.62-104.68,51.38-153.79,14.29-28.67,48.27-45.91,79.62-40.11h0Z"/>
        <path class="cls-3" d="M291.69,518.61c30.56,4.94,58.83,24.68,69.3,54.4,25.54,60.64-17.35,139.36-82.31,149.83-35.02,6.77-72.36-9.7-90.42-40.08-23.45-39.71-15.2-93.61,15.03-127.39,21.43-25.39,55.15-40.49,88.4-36.76h0Z"/>
      </g>
    </g>
  </g>
</svg>