<?xml version="1.0" encoding="UTF-8"?>
<svg xmlns="http://www.w3.org/2000/svg" width="127.96" height="71.27" xmlns:xlink="http://www.w3.org/1999/xlink" viewBox="0 0 127.96 71.27">
  <defs>
    <style>
      .cls-1, .cls-2 {
        fill: #743b2a;
      }

      .cls-3 {
        fill: #fee25d;
      }

      .cls-4 {
        mix-blend-mode: multiply;
        opacity: .48;
      }

      .cls-4, .cls-5 {
        fill: #fec502;
      }

      .cls-6 {
        opacity: .42;
      }

      .cls-6, .cls-7 {
        mix-blend-mode: soft-light;
      }

      .cls-8 {
        fill: #fff;
      }

      .cls-9 {
        opacity: .53;
      }

      .cls-9, .cls-2 {
        mix-blend-mode: screen;
      }

      .cls-2 {
        opacity: .43;
      }

      .cls-10 {
        fill: none;
      }

      .cls-11 {
        clip-path: url(#clippath-1);
      }

      .cls-12 {
        isolation: isolate;
      }

      .cls-13 {
        opacity: .66;
      }

      .cls-14 {
        fill: #f2b701;
      }

      .cls-7 {
        opacity: .6;
      }

      .cls-15 {
        clip-path: url(#clippath);
      }

      .cls-16 {
        fill: #e5a900;
      }
    </style>
    <clipPath id="clippath">
      <path class="cls-5" d="M9.63,30.68c.1-2.24,2.13-4.21,4.37-4.25,1.79-.03,3.4,1,4.92,1.95,9.52,5.98,19.96,10.48,30.85,13.28,3.93,1.01,7.93,1.8,11.99,1.96,14.71.58,28.32-7.09,41.03-14.52,2.26-1.32,4.76-3.01,5.04-5.61.09-.83-.07-1.67.08-2.49.22-1.21,1.06-2.19,1.87-3.11,1.35-1.54,2.71-3.08,4.06-4.62.35-.4.73-.81,1.24-.95.37-.1.76-.04,1.13.04,2.2.48,4.2,1.79,5.52,3.62-.82,3.14-1.69,6.57-4.38,8.4-.68.47-1.45.8-2.14,1.26-2.72,1.79-3.96,5.16-4.45,8.39-.49,3.22-.42,6.55-1.34,9.68-.79,2.7-2.3,5.14-4.06,7.33-7.83,9.76-20.46,14.53-32.86,16.16-17.99,2.37-35.68-1.28-50.06-12.35-3.27-2.51-7.09-6.31-8.86-10.03-2.16-4.55-4.18-9.1-3.95-14.13Z"/>
    </clipPath>
    <clipPath id="clippath-1">
      <path class="cls-10" d="M9.63,30.68c.1-2.24,2.13-4.21,4.37-4.25,1.79-.03,3.4,1,4.92,1.95,9.52,5.98,19.96,10.48,30.85,13.28,3.93,1.01,7.93,1.8,11.99,1.96,14.71.58,28.32-7.09,41.03-14.52,2.26-1.32,4.76-3.01,5.04-5.61.09-.83-.07-1.67.08-2.49.22-1.21,1.06-2.19,1.87-3.11,1.35-1.54,2.71-3.08,4.06-4.62.35-.4.73-.81,1.24-.95.37-.1.76-.04,1.13.04,2.2.48,4.2,1.79,5.52,3.62-.82,3.14-1.69,6.57-4.38,8.4-.68.47-1.45.8-2.14,1.26-2.72,1.79-3.96,5.16-4.45,8.39-.49,3.22-.42,6.55-1.34,9.68-.79,2.7-2.3,5.14-4.06,7.33-7.83,9.76-20.46,14.53-32.86,16.16-17.99,2.37-35.68-1.28-50.06-12.35-3.27-2.51-7.09-6.31-8.86-10.03-2.16-4.55-4.18-9.1-3.95-14.13Z"/>
    </clipPath>
  </defs>
  <g class="cls-12">
    <g id="Layer_2" data-name="Layer 2">
      <g id="Layer_1-2" data-name="Layer 1">
        <g id="Layer_24" data-name="Layer 24">
          <g>
            <g>
              <path class="cls-5" d="M9.63,30.68c.1-2.24,2.13-4.21,4.37-4.25,1.79-.03,3.4,1,4.92,1.95,9.52,5.98,19.96,10.48,30.85,13.28,3.93,1.01,7.93,1.8,11.99,1.96,14.71.58,28.32-7.09,41.03-14.52,2.26-1.32,4.76-3.01,5.04-5.61.09-.83-.07-1.67.08-2.49.22-1.21,1.06-2.19,1.87-3.11,1.35-1.54,2.71-3.08,4.06-4.62.35-.4.73-.81,1.24-.95.37-.1.76-.04,1.13.04,2.2.48,4.2,1.79,5.52,3.62-.82,3.14-1.69,6.57-4.38,8.4-.68.47-1.45.8-2.14,1.26-2.72,1.79-3.96,5.16-4.45,8.39-.49,3.22-.42,6.55-1.34,9.68-.79,2.7-2.3,5.14-4.06,7.33-7.83,9.76-20.46,14.53-32.86,16.16-17.99,2.37-35.68-1.28-50.06-12.35-3.27-2.51-7.09-6.31-8.86-10.03-2.16-4.55-4.18-9.1-3.95-14.13Z"/>
              <g class="cls-15">
                <g class="cls-13">
                  <path class="cls-3" d="M10.61,23.8c-1.19,3.81,3.03,7.57,5.85,9.57,3.36,2.39,7.25,4.23,11,5.9,9.01,4.03,18.51,6.75,28.35,7.72,9.08.89,18.64.02,27.16-3.36,4.41-1.75,8.55-4.02,12.66-6.38,3.9-2.24,7.67-4.72,10.37-8.39,1.37-1.86,2.66-3.98,3.6-6.06.71-1.56,1.14-2.81,2.08-3.53,3.53-2.72,7.29-7.88,8.46-12.59,1.23-4.97-4.83-4.55-7.58-.3-.63.98-1.39,1.85-1.97,2.32-1.21.97-2.58,1.74-3.82,2.67-1.64,1.22-3.06,2.45-4.26,4.11-1.21,1.68-1.88,3.59-2.7,5.47-1.32,3.01-3.46,4.94-6.2,6.67-3.43,2.16-7.02,4.16-10.67,5.93-15.21,7.38-32.24,4.4-47.58-.84-4.26-1.45-8.54-2.98-12.69-4.72-1.79-.75-3.55-1.59-5.22-2.58-1.65-.98-2.89-2.35-4.75-2.79-.91-.21-1.79.28-2.07,1.17h0Z"/>
                </g>
                <path class="cls-14" d="M4.63,27.04c-.58,2.6.26,5.28,1.11,7.76.9,2.62,2.01,5.19,3.44,7.56,2.9,4.83,6.4,9.55,10.53,13.41,8.59,8.05,22.14,9.81,33.43,10.29,11.85.5,23.94-1.29,35.11-5.28,9.73-3.48,21.18-8.74,25.77-18.7.64-1.38,1.21-2.8,1.56-4.29.29-1.24.28-2.79.84-3.94.42-.88,1.66-1.55,2.52-2.28,1.22-1.03,2.23-2.25,3.18-3.53,1.8-2.42,3.03-5.2,4.03-8.02,1.23-3.48,1.95-6.49.37-9.97-.98-2.15-3.7-1.83-5.2-.67-2.32,1.81-2.91,4.32-3.77,7-.68,2.11-1.52,4.15-2.79,5.99-1.13,1.64-2.72,2.72-4.19,4.05-2.2,1.99-3.13,4.56-3.67,7.39-.83,4.41-2.77,7.34-6.27,10.27-3.13,2.62-7.16,4.63-10.99,6.25-9.77,4.13-20.4,6.31-30.99,6.53-5.33.11-8.95.02-14.2-.91-4.78-.85-11.16-2.73-15.47-5.07-4.73-2.56-8.95-6.45-12.38-10.52-1.78-2.11-3.49-4.34-5.05-6.61-1.63-2.37-2.83-5.27-4.92-7.24-.62-.58-1.78-.38-1.99.52h0Z"/>
                <path class="cls-16" d="M.02,42.38c.31,1.89,1.37,3.32,2.26,4.96,1.16,2.14,3.03,4.06,4.68,5.83,3.13,3.34,6.67,6.3,10.49,8.82,8.37,5.53,18.35,7.37,28.15,8.51,18.55,2.16,38.38.08,54.46-10.08,4.03-2.54,7.84-5.54,11.16-8.97,1.63-1.69,3.27-3.51,4.52-5.5.69-1.1,1.27-2.44,1.59-3.68.3-1.17.17-2.31.36-3.48.38-2.37-1.37-9.81-3.27-8.19-1.34,1.14-1.54,5.76-2.86,7.02-1.42,1.36-2.08,4.42-5.98,8.06-2.62,2.45-5.76,5.24-8.71,7.28-6.46,4.46-13.42,6.34-21.06,8.06-8.79,1.98-16.66,1.94-25.61,1.17-8.53-.73-18.13-2.86-25.91-6.59-4.19-2.01-8.03-4.69-11.75-7.47-1.93-1.44-3.79-3.02-5.86-4.27-1.73-1.04-3.5-2.27-5.51-2.62-.73-.12-1.24.4-1.12,1.12H.02Z"/>
              </g>
            </g>
            <g class="cls-7">
              <path class="cls-8" d="M17.15,34.61c.6,1.07.8,1.88,1.64,2.84.8.92,1.57,1.79,2.48,2.6,1.83,1.64,3.73,3.25,5.81,4.56,4.23,2.66,8.77,4.76,13.54,6.27,5.1,1.62,10.38,2.65,15.75,2.53,2.75-.06,5.53-.43,8.19-1.14,1.33-.36,2.79-.75,4-1.41,1.17-.63,2.12-1.6,3.12-2.45.87-.74.29-2.03-.62-2.35-2.43-.87-4.53-1.27-7.13-1.26-2.52,0-5.04.19-7.56.21-4.72.05-9.35-.9-13.86-2.23-4.12-1.21-8.23-2.66-12.14-4.45-2.02-.93-4.1-1.72-6.11-2.68-.99-.48-2-.88-3-1.33-1.14-.51-2.03-.54-3.19-.9-.69-.21-1.24.59-.91,1.18h0Z"/>
            </g>
            <g class="cls-6">
              <path class="cls-8" d="M77.72,47.84c2.86,2.15,7.26.34,10.19-.83,3.31-1.32,7.96-3.02,9.71-6.34.97-1.84-.22-4.34-2.46-4.28-3.26.09-6.16,2.39-8.94,3.88-1.36.73-2.72,1.47-4.05,2.25-1.3.76-2.64,1.98-4.08,2.4-1.42.42-1.44,2.11-.38,2.91h0Z"/>
            </g>
            <g class="cls-11">
              <path class="cls-1" d="M127.95,12.87c-.16-3.17-2.03-6.4-5.14-7.45-3.48-1.18-6.63.74-8.48,3.64-.31.49-.58,1.02-.81,1.57-.43.61-.76,1.31-1,2.04-.84,2.54-.18,5.33,1.84,7.11,2.49,2.2,6.85,1.98,9.61.41,2.63-1.49,4.13-4.34,3.97-7.34Z"/>
              <path class="cls-2" d="M125.87,7.8c-.16-3.17-2.03-6.4-5.14-7.45-3.48-1.18-6.63.74-8.48,3.64-.31.49-.58,1.02-.81,1.57-.43.61-.76,1.31-1,2.04-.84,2.54-.18,5.33,1.84,7.11,2.49,2.2,6.85,1.98,9.61.41,2.63-1.49,4.13-4.34,3.97-7.34Z"/>
              <path class="cls-1" d="M9.63,31.35c-.56.57-.55.62,0,.14.18-.14.36-.28.54-.42.43-.35.84-.63,1.3-.96,1.07-.76,2.08-1.64,3.11-2.44,1.4-1.08,2.78-2.42,2.66-4.34-.13-2.13-2.14-3.36-4.16-2.9-2.83.64-5.76,3.65-6.67,6.36-.66,1.95-.84,5.34,1.96,5.49.59.03,1.06-.43,1.23-.94h0Z"/>
              <g class="cls-9">
                <path class="cls-1" d="M14.44,27.71c-.56.57-.55.62,0,.14.18-.14.36-.28.55-.42.43-.35.84-.63,1.3-.96,1.07-.76,2.08-1.64,3.11-2.44,1.4-1.08,2.78-2.42,2.66-4.34-.13-2.13-2.14-3.36-4.16-2.9-2.83.64-5.76,3.65-6.67,6.36-.66,1.95-.84,5.34,1.96,5.49.59.03,1.06-.43,1.23-.94h0Z"/>
              </g>
              <path class="cls-4" d="M120.6,19.85c-1.01-1.79-3-2.3-4.74-1.73-.42-.46-.86-.9-1.32-1.31-1.32-1.16-3.11-1.61-4.71-1.13-.23-.15-.46-.28-.69-.4-4.11-2.17-8.6,2.19-6.37,6.34-1.58,1.19-2.45,3.3-1.13,5.23-.3,2.12,1.15,4.61,2.41,6.14,2.2,2.68,5.88,3.93,9.26,3.96,3.72.03,4.9-4.1,3.02-6.59,1.28-.54,2.18-1.6,2.64-2.88,2.32-1.62,3.16-4.92,1.63-7.62Z"/>
            </g>
          </g>
        </g>
      </g>
    </g>
  </g>
</svg>