<?xml version="1.0" encoding="UTF-8"?>
<svg id="Layer_2" data-name="Layer 2" xmlns="http://www.w3.org/2000/svg" width="36.32" height="66.43" xmlns:xlink="http://www.w3.org/1999/xlink" viewBox="0 0 36.32 66.43">
  <defs>
    <style>
      .cls-1 {
        fill: #33691e;
      }

      .cls-2 {
        fill: #e873af;
      }

      .cls-3 {
        fill: #c3185c;
      }

      .cls-4 {
        fill: #ce1d59;
      }

      .cls-5 {
        fill: #d93374;
      }

      .cls-6 {
        clip-path: url(#clippath);
      }
    </style>
    <clipPath id="clippath">
      <path class="cls-3" d="M31.14,32.73c5.18,3.94,6.19,11.34,2.24,16.52-3.94,5.18-11.34,6.19-16.52,2.24-5.18-3.94-6.19-11.34-2.24-16.52,3.94-5.18,11.34-6.19,16.52-2.24Z"/>
    </clipPath>
  </defs>
  <g id="Vegetables">
    <g>
      <path class="cls-1" d="M22.6,33.73s-2.02-13.93-1.02-16.37c.99-2.44-.1-1.83-.28-3.92-.18-2.09.82-2.37.91-4.36s-1.46-2.36-1.93-3.91c-.47-1.56-3.43-2.83-3.75-.88-.32,1.95.59,1.93.76,4.63.17,2.7-1.07,1.88-1.11,4.49-.04,2.61,1.83,1.39,2.04,2.82.21,1.43,3.63,16.44,3.46,17.48-.16,1.04.91.03.91.03Z"/>
      <path class="cls-1" d="M22.68,35.29s1.2-12.79,3.09-14.22c1.89-1.42,1.93-3.12,2.74-5.25.81-2.13,4.03-2.99,3.83-4.39-.2-1.4-.27-2.76,1.41-3.27,1.67-.51,3.33-3.98,1.2-4.79-2.13-.81-.61-4.38-3.15-3.09-2.55,1.29-2.73,5.43-3.86,6.42-1.13.99-2.05.76-2.89,2.24-.84,1.48.11,2.22-1.62,4.13-1.73,1.91-.29,4.8-.95,7.22-.66,2.43-.7,15.04-.7,15.04l.91-.04Z"/>
      <path class="cls-1" d="M21.29,31.94s-5.11-10.7-7.2-11.33c-2.09-.63-2.67-2.09-4.05-3.67-1.38-1.59-4.44-1.3-4.72-2.58-.27-1.28-.65-2.47-2.26-2.38-1.61.09-4.15-2.39-2.57-3.77,1.58-1.38-.87-3.99,1.74-3.69,2.62.3,4.1,3.83,5.39,4.33,1.29.5,2.02,0,3.22,1.02s.61,1.96,2.72,3.06c2.11,1.1,1.78,4.06,3.12,5.95s5.4,12.8,5.4,12.8l-.8.25Z"/>
      <path class="cls-4" d="M31.67,32.9c5.18,3.94,6.19,11.34,2.24,16.52-3.94,5.18-11.34,6.19-16.52,2.24-5.18-3.94-6.19-11.34-2.24-16.52,3.94-5.18,11.34-6.19,16.52-2.24Z"/>
      <path class="cls-3" d="M35.53,46.55s-3.15,4.9-2.8,9.39c.3,3.8-4.31,10.49-4.31,10.49,0,0,1.47-3.06,1.18-7.52-.29-4.46-5.22-4.84-5.22-4.84l11.15-7.52Z"/>
      <g>
        <path class="cls-3" d="M31.14,32.73c5.18,3.94,6.19,11.34,2.24,16.52-3.94,5.18-11.34,6.19-16.52,2.24-5.18-3.94-6.19-11.34-2.24-16.52,3.94-5.18,11.34-6.19,16.52-2.24Z"/>
        <g class="cls-6">
          <path class="cls-5" d="M22.13,28.13c6.21,1.95,9.45,9.27,7.23,16.37-2.22,7.09-9.06,11.27-15.27,9.32-6.21-1.95-9.45-9.27-7.23-16.37,2.22-7.09,9.06-11.27,15.27-9.32Z"/>
        </g>
      </g>
      <path class="cls-2" d="M15.7,38.19s-4.07,1.42-1.69,6.11c2.56,5.05,4.03,2.14,3.24-.05-.79-2.19,1.4-2.32,1.6-3.9.2-1.58-.91-2.65-3.15-2.17Z"/>
    </g>
  </g>
</svg>