<?xml version="1.0" encoding="UTF-8"?>
<svg id="Layer_2" data-name="Layer 2" xmlns="http://www.w3.org/2000/svg" width="105.12" height="112.21" xmlns:xlink="http://www.w3.org/1999/xlink" viewBox="0 0 105.12 112.21">
  <defs>
    <style>
      .cls-1 {
        fill: #7eb341;
      }

      .cls-2 {
        fill: #683564;
      }

      .cls-3 {
        fill: none;
      }

      .cls-4 {
        fill: #50284b;
      }

      .cls-5 {
        fill: #3f203e;
      }

      .cls-6 {
        fill: #518d23;
      }

      .cls-7 {
        fill: #874c85;
      }

      .cls-8 {
        fill: #5b6934;
      }

      .cls-9 {
        clip-path: url(#clippath);
      }
    </style>
    <clipPath id="clippath">
      <path class="cls-3" d="M91.87,17.68s-13.09-8.38-21.26,3.72c-8.18,12.1-14.66,27.3-24.39,30.7S4.29,63.37,3.5,81.17c-.8,17.99,4.79,31.51,35.57,30.67,30.79-.85,46.26-35.07,49.71-43.03,0,0,17.05-30.76,14.17-39.29-2.88-8.53-11.08-11.83-11.08-11.83Z"/>
    </clipPath>
  </defs>
  <g id="Vegetables">
    <g>
      <path class="cls-5" d="M91.87,18.01s-13.09-8.38-21.26,3.72c-8.18,12.1-14.66,27.3-24.39,30.7S4.29,63.7,3.5,81.5c-.8,17.99,4.79,31.51,35.57,30.67,30.79-.85,46.26-35.07,49.71-43.03,0,0,17.05-30.76,14.17-39.29-2.88-8.53-11.08-11.83-11.08-11.83Z"/>
      <g class="cls-9">
        <path class="cls-4" d="M.14,84.55s7.11,24.54,42.31,14.1c28.09-8.33,51.55-55.7,52.88-77.18l1.33-21.48s-37.03,25.11-49.92,44.25C33.86,63.4-2.53,54.48.14,84.55Z"/>
        <path class="cls-2" d="M9.62,74.66s-4.34,14.09,10.47,15.07c14.81.99,45.03-15.41,51.55-28.44,6.52-13.03,18.52-34.62,15.62-39.31-2.9-4.69-14.24-3.21-20.36,9.95-6.12,13.16-11.53,22.73-26.86,25.43-15.33,2.7-29.82,12.89-30.42,17.29Z"/>
      </g>
      <path class="cls-6" d="M90.51,15.76s-13.36-7.58-24.21,7.39c-10.37,14.32-4.16,4.34,8.01,1.55,7.49-1.72,11.84-3.54,11.84-2.95l4.36-5.99Z"/>
      <path class="cls-6" d="M90,22.59s5.19,1.83,6.37,13.97c1.18,12.15,1.19,10.9,4.44,14.14,2.56,2.55,1.48-7.97,4-18.75s-11.55-14.64-11.55-14.64l-3.26,5.28Z"/>
      <path class="cls-6" d="M85.99,14.43s-9.18,3.41-8.29,12.74c.89,9.33-.3,13.89-1.78,16.06-1.48,2.16,9.18,1.42,13.63-4.8,4.44-6.22,9.78-15.11,7.26-18.15l-10.81-5.85Z"/>
      <path class="cls-7" d="M11.1,76.6s1.38,3.26,5.83.89c4.44-2.37,6.22-7.7,9.48-7.9,3.26-.2,8-3.28,7.01-4.75-.99-1.47-6.32-3.34-15.31,3.07-8.99,6.42-7.01,8.69-7.01,8.69Z"/>
      <path class="cls-7" d="M35,61.69s2.27-3.14,5.73-2.76c3.46.39,4.15,3.84,1.28,4.44,0,0-5.92,3.36-7.01-1.68Z"/>
      <path class="cls-1" d="M85.93,15.75s-4.29-2.22-11.44,1.56c-7.15,3.78-7.15,7.55-8.93,8.89-1.78,1.33,8.29-4.74,13.92-4.44,5.63.3,8.96-4.44,8.96-4.44l-2.52-1.56Z"/>
      <path class="cls-1" d="M86.51,17.72s-7.27,2.18-6.65,8.67c.62,6.49,1.03,11.04,0,12.55-1.03,1.5,6.04-.2,9.13-4.53,3.09-4.33,6.8-10.51,5.05-12.62l-7.52-4.07Z"/>
      <path class="cls-1" d="M92.87,22.26s5.13,3.38,5.53,13.85c.39,10.47,2.76,8.79,2.76,8.79,0,0-1.29-5.71,1.28-11.27,2.57-5.56-1.68-12.73-6.81-14.11l-2.76,2.74Z"/>
      <path class="cls-8" d="M82.63,17.55s-2.25-2.83,3.14-3.26c5.39-.44,9.93,2.96,11.08,5.61,1.69,3.94-11.08,2.24-14.21-2.35Z"/>
      <path class="cls-1" d="M84.87,16.65s-.09-2.45,4.65-2.86c4.74-.4,5.19-9.59,5.19-9.59,0,0,1.55-2.09,2.37,0,.57,1.44-.79,7-.89,8.83-.15,2.87-.87,3.39.14,5.85,1.49,3.64-9.17,1.39-11.46-2.24Z"/>
      <path class="cls-8" d="M95.04,4.42s.71-.92,1.3-.74.56.48.41.74c-.15.26-1.73.6-1.7,0Z"/>
    </g>
  </g>
</svg>