<?xml version="1.0" encoding="UTF-8"?>
<svg id="Layer_2" data-name="Layer 2" xmlns="http://www.w3.org/2000/svg" width="51.07" height="65.65" xmlns:xlink="http://www.w3.org/1999/xlink" viewBox="0 0 51.07 65.65">
  <defs>
    <style>
      .cls-1 {
        fill: #7eb341;
      }

      .cls-2 {
        fill: #007d15;
      }

      .cls-3 {
        fill: #024e0c;
      }

      .cls-4 {
        fill: #00a71e;
      }

      .cls-5 {
        fill: #fff;
      }

      .cls-6 {
        opacity: .25;
      }

      .cls-7 {
        fill: none;
      }

      .cls-8 {
        fill: #006912;
      }

      .cls-9 {
        fill: #518d23;
      }

      .cls-10 {
        fill: #00500b;
      }

      .cls-11 {
        clip-path: url(#clippath);
      }
    </style>
    <clipPath id="clippath">
      <path class="cls-7" d="M9.78,20.95s12.02-.65,18.53-5.24c4.04-2.85,14.39,6.11,12.1,27.47-2.29,21.36-4.06,19.91-9.03,21.05-4.97,1.15-14.29-6.62-18.41-14.01-4.12-7.38-2.7-10.23-6.47-14.98-3.77-4.76-1.45-12.88,3.29-14.29Z"/>
    </clipPath>
  </defs>
  <g id="Vegetables">
    <g>
      <path class="cls-3" d="M5.87,18.86s1.64-4.61,6.64-6.33c5.01-1.72,15.44-3.39,15.67-1.35.23,2.04-2.37,10.61-2.37,10.61l-19.95-2.93Z"/>
      <path class="cls-10" d="M24.61,13.83s6.45-6.76,12.96-5c6.51,1.76,7.43,6.87,7.43,6.87,0,0-12.29,11.28-20.39-1.87Z"/>
      <path class="cls-8" d="M21.62,22.24s-6.37-11.39-18.88-2.02c-4.64,3.48-1.97,10.51-1.97,10.51,0,0,7.3,37.48,17.52,34.78,10.23-2.7,9.96-5.38,11.95-10.38,1.99-5-8.62-32.89-8.62-32.89Z"/>
      <path class="cls-9" d="M12.5,20.89s1.21-3.37,6.49-5.75c5.28-2.38-1.53-9.68-4.07-10.97-2.54-1.29,1.84-4.87,2.56-4.05.73.82,4.5,4.12,6.23,8.06,1.73,3.93,5.58,6.98,8.17,5.65,2.59-1.33-3.2,11.73-19.39,7.06Z"/>
      <path class="cls-1" d="M14.14,21.3s.84-1.96,1.98-3.42c.76-.97,4.6-1.45,5.16-2.64,2.64-5.61-5.37-10.45-6.22-11.74,0,0,.56-2.32,2.49.27,4.26,5.7,8.57,12.04,11.43,11.7,5.13-.61,1.48,4.1-1.83,2.94-3.31-1.16-1.28.27-5.89,1.4l-7.12,1.48Z"/>
      <path class="cls-8" d="M32.8,55.59c.4,5.7,8.92,7.41,13.39,5.94,4.48-1.47,5.32-14.51,4.71-24.87-.61-10.36-2.07-21.42-11.15-24.25-4.64-1.45-8.07,1.62-10.73,3.47-2.97,2.07-4.59,4.73-4.59,4.73l8.38,34.98Z"/>
      <path class="cls-2" d="M9.78,20.95s13.44-.22,20.51-3.86c2.88-1.49,12.41,4.73,10.12,26.09-2.29,21.36-4.06,19.91-9.03,21.05-4.97,1.15-14.29-6.62-18.41-14.01-4.12-7.38-2.7-10.23-6.47-14.98-3.77-4.76-1.45-12.88,3.29-14.29Z"/>
      <g class="cls-11">
        <path class="cls-4" d="M9.47,41.31s4.67,11.43,17.69,11.19c13.01-.23,15.42-12.38,14.13-19.37-1.29-7-.9-17.03-8.14-18.43-7.23-1.4-10.7,1.06-20.19,4.05-9.49,2.98-15.66,8.71-10.52,14.36,5.14,5.64,7.03,8.21,7.03,8.21Z"/>
      </g>
      <g class="cls-6">
        <path class="cls-5" d="M21.24,23.84s-9.66-3.02-11.92,3.34c-2.26,6.36,2.48,14.53,3.95,16.67,1.47,2.14-3.73-12.06,1.15-16.2,4.76-4.04,6.89-2.84,6.82-3.81Z"/>
      </g>
      <g class="cls-6">
        <path class="cls-5" d="M33.75,13.57s8.75-2.62,12.37,7.26c3.61,9.88-3.69-7.85-12.37-7.26Z"/>
      </g>
    </g>
  </g>
</svg>