<?xml version="1.0" encoding="UTF-8"?>
<svg id="Layer_2" data-name="Layer 2" xmlns="http://www.w3.org/2000/svg" width="60.45" height="92.04" xmlns:xlink="http://www.w3.org/1999/xlink" viewBox="0 0 60.45 92.04">
  <defs>
    <style>
      .cls-1 {
        fill: #7eb341;
      }

      .cls-2 {
        fill: #fe5723;
      }

      .cls-3 {
        fill: #fff;
      }

      .cls-4 {
        fill: #ffab91;
      }

      .cls-5 {
        fill: none;
      }

      .cls-6 {
        fill: #518d23;
      }

      .cls-7 {
        opacity: .2;
      }

      .cls-8 {
        opacity: .1;
      }

      .cls-9 {
        fill: #fe7243;
      }

      .cls-10 {
        clip-path: url(#clippath);
      }
    </style>
    <clipPath id="clippath">
      <path class="cls-5" d="M50.26,22.2c-5.57-4.04-5.94-4.05-5.94-4.05l-.1-.12c-.82-.39-2.63-1.15-6.44-2.64-9.41-3.66-14.31,16.8-26.93,48.15-6.79,16.87-8.82,24.56-9.24,28.06h0c.71,2.56,11.48-6.6,22.51-21.09,20.46-26.9,34.32-42.4,26.14-48.32Z"/>
    </clipPath>
  </defs>
  <g id="Vegetables">
    <g>
      <g>
        <g>
          <rect class="cls-1" x="36.74" y="8.81" width="18.49" height="3.36" transform="translate(22.75 51.54) rotate(-73.34)"/>
          <rect class="cls-6" x="35.74" y="9.56" width="18.49" height="1.27" transform="translate(22.32 50.37) rotate(-73.34)"/>
        </g>
        <g>
          <rect class="cls-1" x="40.39" y="0" width="3.36" height="18.49" transform="translate(-.04 .2) rotate(-.27)"/>
          <rect class="cls-6" x="42.48" y="0" width="1.27" height="18.49" transform="translate(-.04 .2) rotate(-.27)"/>
        </g>
        <g>
          <rect class="cls-1" x="41.37" y="13.36" width="20.07" height="3.89" transform="translate(1.68 35.41) rotate(-38.6)"/>
          <rect class="cls-6" x="40.61" y="13.63" width="20.07" height="1.47" transform="translate(2.1 34.73) rotate(-38.59)"/>
        </g>
        <g>
          <rect class="cls-1" x="38.93" y="8.95" width="21.97" height="3.41" transform="translate(16.04 48.83) rotate(-60.47)"/>
          <rect class="cls-6" x="39.85" y="10.53" width="21.97" height="1.29" transform="translate(16.06 49.9) rotate(-60.47)"/>
        </g>
        <path class="cls-2" d="M50.62,21.71c-5.57-4.04-5.94-4.05-5.94-4.05l-.1-.12c-.82-.39-2.63-1.15-6.44-2.64-9.41-3.66-14.31,16.81-26.93,48.15-6.79,16.87-8.82,24.56-9.24,28.06h0c.71,2.56,11.48-6.6,22.51-21.09,20.46-26.9,34.32-42.4,26.14-48.32Z"/>
        <g class="cls-10">
          <path class="cls-9" d="M34.85,48.34c-12.09,18.89-26.62,31.19-32.44,27.46-5.82-3.73-.74-22.06,11.35-40.96C25.86,15.95,40.38,3.66,46.2,7.38c5.82,3.73.74,22.06-11.35,40.96Z"/>
        </g>
        <g>
          <g class="cls-7">
            <path class="cls-3" d="M45.06,25.31c.37.25.6.56.51.69h0c-.09.14-.47.05-.84-.2l-3.25-2.15c-.37-.25-.6-.56-.51-.69h0c.09-.14.47-.05.84.2l3.25,2.15Z"/>
          </g>
          <g class="cls-8">
            <path class="cls-3" d="M36.37,24.83c.37.25.6.56.51.69h0c-.09.14-.47.05-.84-.2l-3.25-2.15c-.37-.25-.6-.56-.51-.69h0c.09-.14.47-.04.84.2l3.25,2.15Z"/>
          </g>
          <g class="cls-7">
            <path class="cls-3" d="M39.91,30.68c.37.25.6.56.51.69h0c-.09.14-.47.04-.84-.2l-3.25-2.15c-.37-.25-.6-.56-.51-.69h0c.09-.14.47-.05.84.2l3.25,2.15Z"/>
          </g>
          <g class="cls-8">
            <path class="cls-3" d="M31.67,29c.37.25.6.56.51.69h0c-.09.14-.47.04-.84-.2l-3.25-2.15c-.37-.25-.6-.56-.51-.69h0c.09-.14.47-.05.84.2l3.25,2.15Z"/>
          </g>
          <g class="cls-8">
            <path class="cls-3" d="M46.86,31.86c.37.25.6.56.51.69h0c-.09.14-.47.04-.84-.2l-3.25-2.15c-.37-.25-.6-.56-.51-.69h0c.09-.14.47-.05.84.2l3.25,2.15Z"/>
          </g>
          <g class="cls-8">
            <path class="cls-3" d="M43.74,37.56c.37.25.6.56.51.69h0c-.09.14-.47.04-.84-.2l-3.25-2.15c-.37-.25-.6-.56-.51-.69h0c.09-.14.47-.04.84.2l3.25,2.15Z"/>
          </g>
          <g class="cls-8">
            <path class="cls-3" d="M34.97,36.42c.37.25.6.56.51.69h0c-.09.14-.47.04-.84-.2l-3.25-2.15c-.37-.25-.6-.56-.51-.69h0c.09-.14.47-.05.84.2l3.25,2.15Z"/>
          </g>
          <g class="cls-7">
            <path class="cls-3" d="M28.77,38.13c.37.25.6.56.51.69h0c-.09.14-.47.04-.84-.2l-3.25-2.15c-.37-.25-.6-.56-.51-.69h0c.09-.14.47-.05.84.2l3.25,2.15Z"/>
          </g>
          <g class="cls-7">
            <path class="cls-3" d="M39.95,42.53c.37.25.6.56.51.69h0c-.09.14-.47.04-.84-.2l-3.25-2.15c-.37-.25-.6-.56-.51-.69h0c.09-.14.47-.04.84.2l3.25,2.15Z"/>
          </g>
          <g class="cls-8">
            <path class="cls-3" d="M32.96,44.46c.37.25.6.56.51.69h0c-.09.14-.47.04-.84-.2l-3.25-2.15c-.37-.25-.6-.56-.51-.69h0c.09-.14.47-.05.84.2l3.25,2.15Z"/>
          </g>
          <g class="cls-8">
            <path class="cls-3" d="M24.72,46.73c.37.25.6.56.51.69h0c-.09.14-.47.04-.84-.2l-3.25-2.15c-.37-.25-.6-.56-.51-.69h0c.09-.14.47-.05.84.2l3.25,2.15Z"/>
          </g>
          <g class="cls-7">
            <path class="cls-3" d="M33.95,49.95c.37.25.6.56.51.69h0c-.09.14-.47.04-.84-.2l-3.25-2.15c-.37-.25-.6-.56-.51-.69h0c.09-.14.47-.05.84.2l3.25,2.15Z"/>
          </g>
          <g class="cls-8">
            <path class="cls-3" d="M29.14,53.47c.37.25.6.56.51.69h0c-.09.14-.47.05-.84-.2l-3.25-2.15c-.37-.25-.6-.56-.51-.69h0c.09-.14.47-.04.84.2l3.25,2.15Z"/>
          </g>
          <g class="cls-8">
            <path class="cls-3" d="M27.99,59.62c.28.19.44.45.35.59h0c-.09.14-.39.09-.68-.09l-2.46-1.63c-.28-.19-.44-.45-.35-.59h0c.09-.14.39-.09.68.09l2.46,1.63Z"/>
          </g>
          <g class="cls-7">
            <path class="cls-3" d="M20.26,54.4c.37.25.6.56.51.69h0c-.09.14-.47.04-.84-.2l-3.25-2.15c-.37-.25-.6-.56-.51-.69h0c.09-.14.47-.05.84.2l3.25,2.15Z"/>
          </g>
          <g class="cls-8">
            <path class="cls-3" d="M20.42,60.03c.28.19.44.45.35.59h0c-.09.14-.39.09-.68-.09l-2.46-1.63c-.28-.19-.44-.45-.35-.59h0c.09-.14.39-.09.68.09l2.46,1.63Z"/>
          </g>
          <g class="cls-7">
            <path class="cls-3" d="M23.55,66.01c.28.19.44.45.35.59h0c-.09.14-.39.09-.68-.09l-2.46-1.63c-.28-.19-.44-.45-.35-.59h0c.09-.14.39-.09.68.09l2.46,1.63Z"/>
          </g>
          <g class="cls-8">
            <path class="cls-3" d="M16.57,63.68c.28.19.44.45.35.59h0c-.09.14-.39.09-.68-.09l-2.46-1.63c-.28-.19-.44-.45-.35-.59h0c.09-.14.39-.09.68.09l2.46,1.63Z"/>
          </g>
          <g class="cls-8">
            <path class="cls-3" d="M19.52,70.48c.28.19.44.45.35.59h0c-.09.14-.39.09-.68-.09l-2.46-1.63c-.28-.19-.44-.45-.35-.59h0c.09-.14.39-.09.68.09l2.46,1.63Z"/>
          </g>
          <g class="cls-7">
            <path class="cls-3" d="M14.08,71.15c.28.19.44.45.35.59h0c-.09.14-.39.09-.68-.09l-2.46-1.63c-.28-.19-.44-.45-.35-.59h0c.09-.14.39-.09.68.09l2.46,1.63Z"/>
          </g>
          <g class="cls-8">
            <path class="cls-3" d="M14.29,77.31c.28.19.44.45.35.59h0c-.09.14-.39.09-.68-.09l-2.46-1.63c-.28-.19-.44-.45-.35-.59h0c.09-.14.39-.09.68.09l2.46,1.63Z"/>
          </g>
          <g class="cls-7">
            <path class="cls-3" d="M9.95,80.55c.28.19.44.45.35.59h0c-.09.14-.39.09-.68-.09l-2.46-1.63c-.28-.19-.44-.45-.35-.59h0c.09-.14.39-.09.68.09l2.46,1.63Z"/>
          </g>
        </g>
      </g>
      <path class="cls-4" d="M32.36,19.84h.46c.95,0,1.72.77,1.72,1.72v9.77c0,.95-.77,1.72-1.72,1.72h-.46c-.95,0-1.72-.77-1.72-1.72v-9.77c0-.95.77-1.72,1.72-1.72Z" transform="translate(14.12 -11.24) rotate(24.83)"/>
    </g>
  </g>
</svg>