<?xml version="1.0" encoding="UTF-8"?>
<svg xmlns="http://www.w3.org/2000/svg" width="99.32" height="98.58" xmlns:xlink="http://www.w3.org/1999/xlink" viewBox="0 0 99.32 98.58">
  <defs>
    <style>
      .cls-1 {
        fill: #990e35;
      }

      .cls-2 {
        opacity: .1;
      }

      .cls-2, .cls-3, .cls-4 {
        fill: #fff;
      }

      .cls-2, .cls-4 {
        mix-blend-mode: screen;
      }

      .cls-5 {
        fill: #9b1334;
      }

      .cls-6 {
        opacity: .07;
      }

      .cls-7 {
        fill: #92b358;
      }

      .cls-4 {
        opacity: .13;
      }

      .cls-8 {
        fill: #b52d4e;
      }

      .cls-9 {
        fill: none;
      }

      .cls-10 {
        clip-path: url(#clippath-1);
      }

      .cls-11 {
        fill: #698234;
      }

      .cls-12 {
        fill: #79963c;
      }

      .cls-13 {
        isolation: isolate;
      }

      .cls-14 {
        clip-path: url(#clippath-3);
      }

      .cls-15, .cls-16, .cls-17 {
        fill: #af1e3b;
      }

      .cls-18 {
        fill: #c66524;
      }

      .cls-19 {
        fill: #ad1742;
      }

      .cls-20, .cls-16 {
        opacity: .21;
      }

      .cls-20, .cls-16, .cls-17 {
        mix-blend-mode: multiply;
      }

      .cls-21 {
        fill: #a04c13;
      }

      .cls-22 {
        fill: #bc5b19;
      }

      .cls-23 {
        fill: #84a14f;
      }

      .cls-24 {
        clip-path: url(#clippath-2);
      }

      .cls-25 {
        fill: #496d31;
      }

      .cls-26 {
        clip-path: url(#clippath);
      }

      .cls-27 {
        fill: #a50e32;
      }

      .cls-17 {
        opacity: .15;
      }
    </style>
    <clipPath id="clippath">
      <path class="cls-9" d="M28.59,50.39c-3.8,2.29-6.07,6.61-6.73,11-.99,6.57,1.4,13.56,6.22,18.14.57.54,1.17,1.05,1.89,1.36.67.29,1.4.38,2.12.46,1.75.21,3.52.39,5.28.24,3.6-.31,7-2.05,9.67-4.49,2.67-2.44,4.66-5.55,6.18-8.84,1.31-2.83,2.28-6.1,1.19-9.02-1.09-2.89-4.02-4.75-7.02-5.49-1.9-.47-3.66-.83-5.39-1.8-1.21-.68-2.31-1.57-3.57-2.17-3.09-1.47-6.94-1.15-9.85.6Z"/>
    </clipPath>
    <clipPath id="clippath-1">
      <path class="cls-9" d="M57.63,59.91c-1,1.68-.99,3.77-.71,5.71.68,4.66,2.88,9.17,6.45,12.23s8.58,4.55,13.17,3.49c1.81-.42,3.56-1.24,4.88-2.55,1.59-1.57,3.78-3.65,4.54-5.75,1.47-4.03,1.43-8.33.98-12.6-.52-4.93-3.94-9.83-9.22-10.15-4.78-.28-8.09,2.24-12.05,4.32-2.68,1.41-6.42,2.53-8.05,5.29Z"/>
    </clipPath>
    <clipPath id="clippath-2">
      <path class="cls-9" d="M71.1,11.98c-5.15-2.28-10.54-4.61-16.16-4.27-1.9.11-3.77.53-5.63.96-3.29.77-6.64,1.62-9.46,3.48-2.01,1.32-3.67,3.11-5.14,5.01-3.58,4.6-6.19,9.95-7.59,15.61-.55,2.21-.92,4.47-1.79,6.58-1.08,2.61-2.93,4.9-5.26,6.52.61.48,1.55,0,2.33.03,9.11.38,18.3-1.62,26.42-5.76,2.23-1.13,4.39-2.43,6.27-4.08,3.38-2.95,5.72-6.89,7.92-10.8,1.59-2.82,3.13-5.67,4.63-8.54.87-1.67,1.92-3.67,3.47-4.74Z"/>
    </clipPath>
    <clipPath id="clippath-3">
      <path class="cls-9" d="M71.1,11.98c-5.15-2.28-10.54-4.61-16.16-4.27-1.9.11-3.77.53-5.63.96-3.29.77-6.64,1.62-9.46,3.48-2.01,1.32-3.67,3.11-5.14,5.01-3.58,4.6-6.19,9.95-7.59,15.61-.55,2.21-.92,4.47-1.79,6.58-1.08,2.61-2.93,4.9-5.26,6.52.61.48,1.55,0,2.33.03,9.11.38,18.3-1.62,26.42-5.76,2.23-1.13,4.39-2.43,6.27-4.08,3.38-2.95,5.72-6.89,7.92-10.8,1.59-2.82,3.13-5.67,4.63-8.54.87-1.67,1.92-3.67,3.47-4.74Z"/>
    </clipPath>
  </defs>
  <g class="cls-13">
    <g id="Layer_2" data-name="Layer 2">
      <g id="Layer_1-2" data-name="Layer 1">
        <g id="Layer_21" data-name="Layer 21">
          <g>
            <path class="cls-25" d="M44.03,58.9c-.27-2.45.03-4.91.36-7.23.37-2.6.83-5.36,1.7-7.97,1.37-4.12,3.7-7.82,5.96-11.4,1.31-2.07,2.66-4.22,4.14-6.23,3.9-5.28,9.04-10.17,16.15-15.36l2.55-1.86-1.9,2.53c-7.68,10.2-9.94,24.05-5.9,36.16.43,1.29.94,2.59,1.43,3.84.75,1.91,1.52,3.88,2.05,5.9l-.91.24c-.52-1.97-1.28-3.92-2.02-5.8-.5-1.26-1.01-2.57-1.45-3.88-3.83-11.47-2.13-24.47,4.37-34.62-5.85,4.5-10.23,8.81-13.63,13.42-1.46,1.98-2.81,4.11-4.1,6.17-2.23,3.53-4.53,7.18-5.86,11.2-.84,2.54-1.3,5.26-1.66,7.81-.32,2.26-.61,4.65-.36,6.99l-.93.1Z"/>
            <path class="cls-23" d="M71.1,11.98c-5.15-2.28-10.54-4.61-16.16-4.27-1.9.11-3.77.53-5.63.96-3.29.77-6.64,1.62-9.46,3.48-2.01,1.32-3.67,3.11-5.14,5.01-3.58,4.6-6.19,9.95-7.59,15.61-.55,2.21-.92,4.47-1.79,6.58-1.08,2.61-2.93,4.9-5.26,6.52.61.48,1.55,0,2.33.03,9.11.38,18.3-1.62,26.42-5.76,2.23-1.13,4.39-2.43,6.27-4.08,3.38-2.95,5.72-6.89,7.92-10.8,1.59-2.82,3.13-5.67,4.63-8.54.87-1.67,1.92-3.67,3.47-4.74Z"/>
            <path class="cls-27" d="M28.59,50.39c-3.8,2.29-6.07,6.61-6.73,11-.99,6.57,1.4,13.56,6.22,18.14.57.54,1.17,1.05,1.89,1.36.67.29,1.4.38,2.12.46,1.75.21,3.52.39,5.28.24,3.6-.31,7-2.05,9.67-4.49,2.67-2.44,4.66-5.55,6.18-8.84,1.31-2.83,2.28-6.1,1.19-9.02-1.09-2.89-4.02-4.75-7.02-5.49-1.9-.47-3.66-.83-5.39-1.8-1.21-.68-2.31-1.57-3.57-2.17-3.09-1.47-6.94-1.15-9.85.6Z"/>
            <path class="cls-15" d="M57.63,59.91c-1,1.68-.99,3.77-.71,5.71.68,4.66,2.88,9.17,6.45,12.23s8.58,4.55,13.17,3.49c1.81-.42,3.56-1.24,4.88-2.55,1.59-1.57,3.78-3.65,4.54-5.75,1.47-4.03,1.43-8.33.98-12.6-.52-4.93-3.94-9.83-9.22-10.15-4.78-.28-8.09,2.24-12.05,4.32-2.68,1.41-6.42,2.53-8.05,5.29Z"/>
            <g class="cls-26">
              <path class="cls-1" d="M44.21,50.07c-2.12-1.78-4.26-2.79-7.05-3-2.46-.18-5,.44-7.22,1.47-4.18,1.94-7.42,5.96-8.53,10.43-1.26,5.1.08,11.1,1.55,16.04.72,2.41,1.76,4.68,3.34,6.64,1.42,1.77,4.09,3.27,6.38,2.87,1.29-.23,1.81-1.91,1.2-2.94-.43-.73-1.05-1.14-1.61-1.76-.55-.6-1.02-1.29-1.51-1.93-1.08-1.41-1.74-3.02-2.23-4.72-1.04-3.64-2.25-8.11-1.64-11.91.48-3.01,2.41-5.72,5.07-7.2,3-1.66,7.09-1.5,10.33-.69,1.79.45,3.5-1.96,1.92-3.3h0Z"/>
              <path class="cls-19" d="M46.88,55.61c2.34.35,3.72,2.44,4.29,4.62.79,3.01-.63,6.36-1.73,9.11-1.11,2.75-2.32,5.66-4.25,7.95-.88,1.04-1.89,1.92-3.07,2.6-1.34.76-2.6.73-4.03,1.12-1.42.39-2.63,1.8-2.3,3.31.41,1.9,2.43,2.47,4.11,2.29,3.17-.35,6.03-1.83,8.39-3.96,2.29-2.06,4-4.81,5.3-7.59,1.43-3.06,2.85-6.36,3.45-9.7.65-3.63.41-7.57-2.03-10.52-2-2.42-5.07-3.51-8.13-3.03-1.88.29-1.89,3.52,0,3.8h0Z"/>
              <path class="cls-16" d="M57.42,63.14c-.49-3.59-2.4-4.47-2.89-.87-.07.5-2.98,3.23-9.95,2.46-2.5-.28-5.1-1.22-6.8-3.16-1.94-2.21-5.36-6.42-.93-12.45.3-.41.24-.93.19-1.36.62-.55,1.41-.88,2.41-.84,2.22.09,2.69-3.35.52-3.87-2.35-.57-4.66,0-6.59,1.44-.06.04-.11.09-.17.13-.86,0-1.68.31-2.28,1.07-.35.37-.67.77-.95,1.19-2.21,2.72-7.71,3.65-8.49,7.29-.56,2.59-1.78,4.62-1.24,7.21-.63.27.9,3.68.58,4.31-1.83,3.51,2.29,6.31,3.88,9.6,1.5,3.11,3.89,5.6,6.78,7.47,2.78,1.79,6.49,3.51,9.87,3.11,1.54-.19,2.93-.84,4.28-1.58.61-.34,1.22-.68,1.84-.99.59-.29,1.09-.79,1.69-1.04,1.55-.64,1.96-2.3,1.12-3.41,1.01-.58,1.9-1.36,2.63-2.44.67-.99.62-2.34.1-3.47,3.15-2.32,5.56-5.86,4.42-9.78Z"/>
              <path class="cls-16" d="M58.01,68.61c-.68-3.59-3.33-4.47-4.02-.87-.1.5-4.14,3.23-13.82,2.46-3.47-.28-7.08-1.22-9.45-3.16-2.69-2.21-9.1-11.57-2.95-17.6.41-.41,5.07-3.6,2.4-2.15-.08.04-5.71,2.75-5.78,2.8-1.19,0-2.34.31-3.17,1.07-.49.37-.93.77-1.32,1.19-3.07,2.72-10.71,3.65-11.79,7.29-.77,2.59-2.47,4.62-1.73,7.21-.87.27,1.26,3.68.81,4.31-2.54,3.51,3.18,6.31,5.39,9.6,2.08,3.11,5.4,5.6,9.41,7.47,3.86,1.79,9.02,3.51,13.7,3.11,2.14-.19,4.07-.84,5.94-1.58.85-.34,1.69-.68,2.55-.99.82-.29,1.51-.79,2.34-1.04,2.15-.64,2.72-2.3,1.56-3.41,1.4-.58,2.64-1.36,3.66-2.44.93-.99.87-2.34.14-3.47,4.38-2.32,7.72-5.86,6.13-9.78Z"/>
              <path class="cls-16" d="M56.53,73.76c-.75-3.92-3.64-4.87-4.38-.95-.1.55-4.51,3.52-15.07,2.68-3.79-.3-7.72-1.33-10.3-3.45-2.94-2.41-9.92-12.62-3.22-19.19.45-.44,5.53-3.92,2.62-2.35-.09.05-6.22,3-6.31,3.05-1.3-.01-2.55.33-3.46,1.16-.53.4-1.01.84-1.44,1.3-3.35,2.96-11.68,3.98-12.86,7.95-.84,2.83-2.7,5.04-1.88,7.86-.95.29,1.37,4.02.88,4.7-2.77,3.82,3.47,6.87,5.87,10.47,2.27,3.39,5.88,6.11,10.26,8.15,4.2,1.95,9.83,3.83,14.94,3.39,2.33-.2,4.44-.91,6.48-1.73.92-.37,1.84-.74,2.78-1.07.89-.32,1.65-.86,2.55-1.14,2.34-.7,2.97-2.51,1.7-3.71,1.52-.64,2.88-1.48,3.99-2.66,1.02-1.08.95-2.56.16-3.78,4.77-2.53,8.42-6.39,6.69-10.66Z"/>
            </g>
            <g class="cls-10">
              <path class="cls-5" d="M67.05,52.13c-4.92-.85-9.31,2.06-10.92,6.75-1.75,5.1-.17,10.97,2.46,15.48,2.4,4.12,6.07,7.48,10.6,9.06,4.54,1.59,10.57,1.34,14.04-2.32,1.51-1.59.03-4.81-2.3-3.95-3.15,1.16-6.16,1.98-9.47.97-3.06-.93-5.56-3.24-7.23-5.9-1.79-2.84-3.14-6.45-2.66-9.86.41-2.89,2.54-5.82,5.49-6.44,1.85-.39,1.92-3.47,0-3.8h0Z"/>
              <path class="cls-8" d="M71.45,54.22c2.28-.92,5.45-1.26,7.8-.42,2.54.9,4.1,3.28,4.98,5.71,1.06,2.93,1.74,6.19,1.89,9.3.08,1.67,0,3.34-.55,4.93-.56,1.63-1.66,2.85-2.05,4.55-.38,1.65,1.04,3.13,2.71,2.71,4.57-1.14,5.71-7.56,5.64-11.58-.09-4.32-1.01-8.97-2.71-12.95-1.62-3.79-4.4-6.89-8.38-8.22-4.12-1.37-8.27-.52-11.24,2.66-1.23,1.31-.03,4.08,1.92,3.3h0Z"/>
              <path class="cls-16" d="M91.13,58.93c-.64-1.79.31-3.41-1.65-3.11-1.75.26-2.65,1.24-4.8,3.56-.93,1-4.14,3.78-5.36,4.44-2.26,1.23-3.78,1.56-6.31,1.94-2.98.44-5.66.12-8.2-1.57-2.98-1.99-1.83-6.57-1.53-9.31.44-3.92-5.37-5.02-7.15-1.94-1.4,2.42-1.76,5.19-1.62,7.94.12,2.43.27,5.07.87,7.43.51,2.04,1.48,3.82,2.78,5.32,0,.02,0,.04,0,.06.59,4.23,4.22,7.97,8.42,8.73,2.12.38,4.19.54,6.25.06,1.31-.05,2.92.06,4.22-.33.76-.23,3.64-2.11,4.5-2.33,1.53-.38,2.15-1.52,2.11-2.69.54-.53,1.06-1.08,1.56-1.67,2.39-2.82,4.97-5.58,5.35-9.4.05-.5-.03-.95-.2-1.34,1.04-1.76,1.51-3.72.76-5.81Z"/>
              <path class="cls-17" d="M98.71,62.69c-.98-1.75.3-3.42-2.49-3.02-2.49.36-3.74,1.39-6.73,3.83-1.28,1.05-5.77,4.02-7.49,4.75-3.19,1.35-5.81,2.02-9.43,2.54-4.25.62-6.58.72-10.27-.83-4.34-1.81-3.92-6.98-3.6-9.74.47-3.95-7.88-4.71-10.3-1.52-1.9,2.5-2.3,5.29-1.99,8.03.27,2.42.6,5.05,1.54,7.37.81,2.01,2.27,3.73,4.19,5.16,0,.02,0,.04.01.06,1.01,4.19,6.36,7.72,12.39,8.24,3.05.26,6.01.3,8.94-.3,1.88-.12,4.18-.1,6.03-.57,1.08-.27,5.11-2.32,6.34-2.58,2.17-.47,3.02-1.64,2.9-2.81.76-.56,1.48-1.14,2.16-1.76,3.31-2.96,6.88-5.86,7.27-9.7.05-.51-.08-.95-.34-1.33,1.42-1.82,2-3.8.86-5.84Z"/>
              <path class="cls-17" d="M96.99,65.99c-1.17-1.63-.08-3.44-2.8-2.73-2.43.63-3.56,1.79-6.27,4.55-1.16,1.18-4.52,5.22-6.14,6.14-3.02,1.69-5.49,2.98-9.03,3.89-4.16,1.08-7.67.47-11.51-.66-4.52-1.33-4.3-6.48-4.27-9.26.04-3.97-8.35-3.82-10.4-.39-1.61,2.69-1.71,5.51-1.1,8.2.53,2.38,1.14,4.95,2.33,7.16,1.03,1.91,2.67,3.46,4.73,4.67,0,.02.01.04.02.06,1.46,4.06,7.16,6.98,13.22,6.84,3.06-.07,6.01-.36,8.85-1.27,1.85-.33,4.14-.56,5.93-1.23,1.04-.39,4.83-2.86,6.02-3.26,2.11-.7,2.82-1.96,2.58-3.11.69-.64,1.34-1.3,1.96-1.98,2.96-3.3,6.19-6.58,6.17-10.43,0-.51-.19-.93-.49-1.28,1.21-1.97,1.58-4,.21-5.9Z"/>
            </g>
            <g class="cls-6">
              <path class="cls-3" d="M41.54,58.29c.04-.58-.05.61-.06.74-.02.36-.05.77-.05,1.14.02.88.16,1.73.15,2.62,0,1.45-.28,2.78-1.01,4.05-1.68,2.95-5.07,3.63-7.06,6.19-1.39,1.79-.98,4.2,1.31,4.98,6.11,2.07,12.12-5.1,13.83-10.14.98-2.89,1.2-6.58-.41-9.29-1.23-2.07-6.47-4.23-6.72-.28h0Z"/>
            </g>
            <g class="cls-6">
              <path class="cls-3" d="M73.37,58.81c-.94-.1-.44-.01.01.27.28.17.61.28.87.49.47.36.94.89,1.3,1.36.69.9,1.16,1.96,1.35,3.07.49,2.88-1.57,5.58-.35,8.46.28.66,1.28,1.22,1.98,1.14,5.77-.67,5.85-9.16,4.11-13.21-.98-2.29-2.77-4.39-5.2-5.18-1.96-.64-4.7-.4-5.39,1.88-.28.92.47,1.63,1.31,1.72h0Z"/>
            </g>
            <path class="cls-4" d="M80.24,52.47c-2.08-1.24-4.8-1.09-6.83.17-.95.59-1.63,1.45-2.02,2.41-.87.89-1.4,2.1-1.46,3.39-.2,5.03,5.7,7.04,9.64,5.02,4.19-2.16,4.94-8.43.67-10.99Z"/>
            <path class="cls-2" d="M51.45,59.48c-1.36-2.76-4.62-4.47-7.65-4.35-3.03.12-6.82,1.63-7.86,4.7-.45,1.33-.36,2.68.11,3.86.14,1.62.99,3.15,2.57,4.15,2.49,1.58,5.99,1.4,8.67.39,3.48-1.31,5.97-5.11,4.16-8.77Z"/>
            <path class="cls-3" d="M76.01,56c.78.77,1.75,1.11,2.63,1.74.95.68,1.51,1.49,2.03,2.53.38.76,1.1,3.03,2.22,1.62,1.19-1.48.06-3.82-.96-5.03-1.28-1.5-3.51-2.89-5.53-2.3-.62.18-.84.98-.38,1.44h0Z"/>
            <path class="cls-3" d="M48.1,59.5c.07.5-.13,1.16-.23,1.65-.12.63-.33,1.22-.4,1.85-.08.7.56,1.4,1.2,1.58.73.2,1.43-.15,1.85-.75.59-.86.62-2.32.19-3.25-.4-.86-.92-1.31-1.72-1.76-.5-.29-.96.19-.89.68h0Z"/>
            <path class="cls-3" d="M46.82,57.33c1.32,0,1.32-2.05,0-2.05s-1.32,2.05,0,2.05h0Z"/>
            <g class="cls-24">
              <path class="cls-12" d="M70.79,7.15c-3.19-.78-6.48-1.11-9.75-.99-1.89-6.16-9.37-2.18-13.04-.2-4.05,2.19-7.83,4.95-11.21,8.08-6.81,6.29-11.91,14.25-14.92,23-.39,1.13-.02,2.37.74,3.26-1.66,1.35-3.51,2.38-5.39,3.43-1.38.77-.73,2.9.79,2.92,11.41.14,16.69-12.07,23.41-19.3,3.65-3.92,8.05-6.31,12.79-8.69,4.9-2.46,10.01-4.74,15.61-4.37,4.1.27,4.92-6.17.97-7.14Z"/>
            </g>
            <path class="cls-21" d="M70.47,11.17c1.65-2.09,3.32-4.2,5.48-5.76.14-.1.29-.2.46-.2.18,0,.34.1.48.21.75.55,1.41,1.23,1.94,2-.17-.24-4.58,3.68-4.96,4.06-.56.57-1.33,1.84-2.25,1.74-.95-.1-1.77-1.27-1.15-2.06Z"/>
            <path class="cls-22" d="M71.38,12.08c1.65-2.09,3.32-4.2,5.48-5.76.14-.1.29-.2.46-.2.18,0,.34.1.48.21.75.55,1.41,1.23,1.94,2-.17-.24-4.58,3.68-4.96,4.06-.56.57-1.33,1.84-2.25,1.74-.95-.1-1.77-1.27-1.15-2.06Z"/>
            <path class="cls-18" d="M73.94,9.95c1.07-.97,2.15-1.96,3.31-2.56.07-.04.16-.08.22-.05.07.02.11.11.15.19.18.42.3.9.36,1.42-.02-.16-2.54,1.49-2.76,1.66-.33.25-.89.88-1.23.69-.35-.19-.44-.97-.04-1.34Z"/>
            <g class="cls-14">
              <path class="cls-11" d="M17.69,45.95c3.77,2.05,7.75-1.53,9.94-4.35,2.9-3.73,3.62-7.8,4.26-12.37.59-4.24,1.69-8.49,3.85-12.22,2.09-3.62,5.18-6.46,8.72-8.63,1.65-1.01,3.39-1.88,5.13-2.74,1.66-.82,3.93-1.62,4.8-3.44.63-1.32-.47-1.93-1.64-2.13-2.33-.4-4.6.71-6.69,1.62-7.94,3.47-14.15,9.67-17.12,17.83-1.73,4.76-1.78,9.72-2.95,14.58-1.08,4.46-4.36,8.09-8.29,10.33-.56.32-.57,1.19,0,1.5h0Z"/>
              <path class="cls-7" d="M22,47.81c1.07,1.67,10.26.81,11.96.66,2.72-.23,5.45-.82,8.04-1.68,4.97-1.65,9.8-4.08,13.99-7.22,4.61-3.46,8.26-7.72,11.81-12.23,1.9-2.41,3.7-4.8,4.88-7.65.47-1.13.9-2.27,1.34-3.41.24-.63.49-1.26.66-1.92.15-.62.15-1.3.35-1.9.4-1.17-.97-1.93-1.92-1.47-1.26.61-2.23,1-3.17,2.11-.87,1.02-1.51,2.21-2.15,3.38-1.28,2.35-2.5,4.57-4.16,6.69-3.36,4.28-6.82,8.57-11.25,11.8-4.13,3.01-10.36,6.19-15.14,7.97-1.2.45-16.55,3.49-15.46,5.19l.22-.33Z"/>
            </g>
            <g class="cls-20">
              <path class="cls-7" d="M28.38,42.67c3.73-2,5.2-5.92,8.04-9,2.94-3.2,4.99-5.98,8.12-9.06,3.05-2.99,9.06-5.74,12.31-7.29,2.09-.99,2.67-1,4.86-1.77,1.15-.4,5.13-1.21,7.34-1.27.13,0,1.55-1.82,1.44-1.82-1.25-.06-3.71-.41-4.95-.54-1.23-.14-2.37.03-3.59.2-2.29.32-4.58.73-6.82,1.33-4.44,1.19-8.3,3.27-11.7,6.37-3.24,2.95-5.98,6.56-8.29,10.27-1.2,1.93-1.95,4.12-3.01,6.13-1.13,2.14-2.35,4.37-3.9,6.24-.1.12.02.3.17.22h0Z"/>
            </g>
            <path class="cls-7" d="M29.55,41.77c3.51-1.72,5.53-5.48,7.84-8.51,2.5-3.28,5.36-6.26,8.61-8.81,3.14-2.46,6.6-4.52,10.24-6.14,1.81-.8,3.66-1.5,5.55-2.08.92-.29,1.85-.53,2.79-.76,1.03-.25,1.98-.75,2.99-1,.17-.04.14-.34-.04-.32-.94.12-1.76-.01-2.7.21-.94.22-1.86.5-2.78.78-1.8.54-3.58,1.18-5.31,1.92-3.63,1.54-7.09,3.49-10.26,5.84-3.06,2.27-5.82,4.89-8.2,7.86-1.33,1.66-2.54,3.4-3.79,5.12-1.43,1.97-2.94,4.4-4.96,5.82-.03.02,0,.07.03.05h0Z"/>
          </g>
        </g>
      </g>
    </g>
  </g>
</svg>