<?xml version="1.0" encoding="UTF-8"?>
<svg id="Layer_2" data-name="Layer 2" xmlns="http://www.w3.org/2000/svg" width="65.03" height="52.53" viewBox="0 0 65.03 52.53">
  <defs>
    <style>
      .cls-1 {
        fill: #33691e;
      }

      .cls-2 {
        fill: #d72926;
      }

      .cls-3 {
        fill: #fff;
      }

      .cls-4 {
        fill: #b53232;
      }

      .cls-5 {
        opacity: .25;
      }
    </style>
  </defs>
  <g id="Vegetables">
    <g>
      <path class="cls-4" d="M59.38,8.35s-3.6-3.23-10.2,5.28c-6.6,8.51-7.95,18.22-17.38,24.73-9.43,6.5-16.32,11.05-27.05,4.99-10.72-6.07,3.38,10.66,18.56,9.07,15.19-1.59,25.18-10.51,30.1-18.2,4.92-7.7,13.34-19.53,5.97-25.87Z"/>
      <path class="cls-2" d="M58.39,6.78s-3.6-3.23-10.2,5.28c-6.6,8.51-7.95,18.22-17.38,24.73s-16.32,11.05-27.05,4.99c-10.72-6.07,3.38,10.66,18.56,9.07,15.19-1.59,25.18-10.51,30.1-18.2,4.92-7.7,13.34-19.53,5.97-25.87Z"/>
      <g class="cls-5">
        <path class="cls-3" d="M50.29,12.44s-.06.56-.28,1.52c-.23.95-.54,2.33-1.11,3.92-.27.8-.6,1.66-.97,2.55-.34.91-.79,1.83-1.25,2.79-.5.93-.98,1.92-1.57,2.87-.6.94-1.17,1.92-1.85,2.83-.66.92-1.34,1.83-2.08,2.67-.69.88-1.47,1.66-2.23,2.4-.38.37-.73.76-1.12,1.09-.4.32-.78.64-1.16.95-.74.63-1.46,1.2-2.18,1.66-.7.48-1.34.92-1.93,1.26-.61.32-1.14.59-1.58.82-.87.45-1.38.69-1.38.69,0,0,.45-.35,1.24-.92.4-.28.88-.63,1.43-1.02.52-.43,1.1-.92,1.74-1.46.66-.5,1.31-1.12,1.98-1.79.69-.65,1.39-1.36,2.07-2.13.35-.38.7-.77,1.06-1.16.33-.41.67-.83,1.01-1.25.7-.82,1.35-1.71,1.98-2.61.68-.87,1.24-1.82,1.84-2.72.57-.92,1.11-1.84,1.64-2.74.47-.92,1-1.78,1.41-2.63.44-.84.83-1.66,1.16-2.42.68-1.52,1.25-2.79,1.58-3.71.36-.91.54-1.44.54-1.44Z"/>
      </g>
      <path class="cls-1" d="M54.73,6.88s5.05-.46,5.91-3.55c.86-3.09,3.63-4.7,4.39-1.83,0,0-1.93-.07-2.15,2.8s-1.98.81-.97,5.17l-7.19-2.58Z"/>
      <path class="cls-1" d="M46.74,11.42s3.14.8,4.62-.37c1.48-1.16,1.98.1,2.68,1.59.7,1.49,2,1.46,3.14,1.19,1.15-.28,2.41-1.33,2.72-.24.68,2.46.02,2.81,1.77,4.63,1.93,2.01.4-.53.69-2.32.3-1.78,1.66-4.37-.76-7.42-2.42-3.05-2.38-1.82-4.86-2.28-1.45-.27-3.21.51-5.24,1.8-1.46.93-1.58,2.03-4.75,3.42Z"/>
      <path class="cls-1" d="M54.04,12.64c.7,1.49,2,1.46,3.14,1.19,1.15-.28,2.41-1.33,2.72-.24.68,2.46.02,2.81,1.77,4.63,1.93,2.01.4-.53.69-2.32l-8.32-3.26Z"/>
    </g>
  </g>
</svg>