<?xml version="1.0" encoding="UTF-8"?>
<svg id="Layer_2" data-name="Layer 2" xmlns="http://www.w3.org/2000/svg" width="57.14" height="63.99" viewBox="0 0 57.14 63.99">
  <defs>
    <style>
      .cls-1 {
        fill: #d1d6e6;
      }

      .cls-2 {
        fill: #fff;
      }

      .cls-3 {
        fill: #ab9e97;
      }

      .cls-4 {
        fill: #e1e6f2;
      }

      .cls-5 {
        opacity: .35;
      }

      .cls-6 {
        fill: #b4bace;
      }
    </style>
  </defs>
  <g id="Vegetables">
    <g>
      <path class="cls-6" d="M21.91,20.02s-6.06,11.68-12.45,16.15c-6.39,4.47-12.1,9.39-8.16,16.01,4.15,6.99,17.63,8.22,18.79,8.19,1.15-.03,4.15-40.14,4.15-40.14l-2.32-.21Z"/>
      <path class="cls-3" d="M18.74,60.24s-1.73,1.03-2.43,1.17c-.69.14.58.85,1.39.36.81-.49,1.54-.48,1.58.17.04.65.81,2.56.89,1.36.08-1.2.38-2.12.81-1.33.42.79,1.58,1.02,1.42,1.72-.15.7,1.14.05.9-.72s1.71-1.2,1.77-.38c.06.82.64,1.43,1.1,1.4.46-.03-.38-.85-.27-1.4.12-.55,1.46-1.6,2.12-.47.65,1.13,2.19,0,2.19,0,0,0-1.19-.24-1.31-.7-.12-.46-.73-.84-.73-.84l-9.43-.34Z"/>
      <path class="cls-6" d="M24.93,20.13s6.06,11.68,12.45,16.15c6.39,4.47,12.1,9.39,8.16,16.01-4.15,6.99-17.63,8.21-18.79,8.19-1.15-.03-4.15-40.14-4.15-40.14l2.32-.21Z"/>
      <path class="cls-1" d="M24.12,19.75s4.32,12.46,9.79,16.6c4.17,3.16,8.63,8.93,5.71,15.55-2.93,6.62-8.56,8.52-12.1,8.57-3.54.05-4.23-40.14-4.23-40.14l.83-.58Z"/>
      <path class="cls-1" d="M22.75,20.13s-4.54,11.24-9.47,16.01c-4.93,4.77-9.93,8.16-7.01,14.78,2.93,6.62,9.86,9.29,13.4,9.34,3.54.05,4.23-40.14,4.23-40.14h-1.15Z"/>
      <path class="cls-4" d="M23.02,20.08c.02-.19-1.19,13.53-5.35,17.73-4.14,4.18-8.01,10.86-3.62,17.17,4.39,6.31,6.78,6.01,9.93,6.08,3.16.08,7.93-2.33,9.71-8.73,2.48-8.9-4.71-11.63-6.32-16.29-1.97-5.67-3.61-16.21-3.61-16.52l-.74.56Z"/>
      <g class="cls-5">
        <path class="cls-2" d="M23.91,32.99c1.24,3.59,9.27,13.07,7.37,19.93-1.37,4.93-5.05,6.78-7.48,6.72-2.43-.06-4.53.35-7.65-4.68-4.87-7.86,4.57-18.75,7.76-21.97h0Z"/>
      </g>
    </g>
    <g>
      <path class="cls-1" d="M57.14,11.67s-4.1,7.16-3.81,11.44c.22,3.26-.67,7.74-4.99,9.08-4.33,1.34-7.54-.54-9.02-2.19-1.48-1.65,17.2-18.49,17.2-18.49l.62.15Z"/>
      <path class="cls-4" d="M54.86,13.54s-3.39,5.92-3.15,9.47c.18,2.7-.55,6.41-4.13,7.51-3.58,1.11-6.24-.45-7.46-1.81-1.22-1.36,14.23-15.3,14.23-15.3l.51.13Z"/>
      <g class="cls-5">
        <path class="cls-2" d="M52.13,15.76s-2.76,4.82-2.56,7.7c.15,2.2-.45,5.21-3.36,6.11-2.91.9-5.07-.36-6.07-1.47s11.58-12.44,11.58-12.44l.42.1Z"/>
      </g>
    </g>
    <g>
      <path class="cls-1" d="M35.86,0s1.47,6.06,3.85,8.26c1.82,1.68,3.65,4.6,1.97,7.58-1.68,2.98-4.42,3.62-6.09,3.48-1.67-.14-.15-19.09-.15-19.09l.42-.24Z"/>
      <path class="cls-4" d="M35.58,2.21s1.21,5.01,3.19,6.84c1.5,1.39,3.02,3.81,1.63,6.27-1.39,2.47-3.66,2.99-5.04,2.88-1.38-.11-.13-15.79-.13-15.79l.35-.2Z"/>
      <g class="cls-5">
        <path class="cls-2" d="M35.23,4.85s.99,4.08,2.59,5.56c1.22,1.13,2.46,3.1,1.33,5.1-1.13,2.01-2.98,2.44-4.1,2.34-1.12-.09-.1-12.85-.1-12.85l.28-.16Z"/>
      </g>
    </g>
  </g>
</svg>