<?xml version="1.0" encoding="UTF-8"?>
<svg xmlns="http://www.w3.org/2000/svg" width="89.83" height="101.87" xmlns:xlink="http://www.w3.org/1999/xlink" viewBox="0 0 89.83 101.87">
  <defs>
    <style>
      .cls-1, .cls-2, .cls-3 {
        fill: #fff;
      }

      .cls-1, .cls-4 {
        opacity: .18;
      }

      .cls-1, .cls-5, .cls-6, .cls-7, .cls-8 {
        mix-blend-mode: screen;
      }

      .cls-9 {
        fill: #e9eda6;
      }

      .cls-10 {
        fill: #fe3000;
      }

      .cls-11, .cls-4, .cls-12 {
        fill: #85b32f;
      }

      .cls-13 {
        fill: #5e3113;
      }

      .cls-14, .cls-15 {
        fill: #9fc139;
      }

      .cls-16 {
        opacity: .53;
      }

      .cls-4, .cls-15, .cls-12 {
        mix-blend-mode: multiply;
      }

      .cls-17 {
        fill: none;
      }

      .cls-18 {
        fill: #9e5421;
      }

      .cls-3 {
        opacity: .19;
      }

      .cls-19 {
        clip-path: url(#clippath-1);
      }

      .cls-5 {
        opacity: .56;
      }

      .cls-20 {
        isolation: isolate;
      }

      .cls-21 {
        fill: #eff4c1;
      }

      .cls-15 {
        opacity: .33;
      }

      .cls-6 {
        opacity: .29;
      }

      .cls-22 {
        clip-path: url(#clippath-3);
      }

      .cls-23 {
        fill: #efefb9;
      }

      .cls-7 {
        opacity: .28;
      }

      .cls-8 {
        opacity: .37;
      }

      .cls-24 {
        fill: #f7f9eb;
      }

      .cls-12 {
        opacity: .11;
      }

      .cls-25 {
        clip-path: url(#clippath-2);
      }

      .cls-26 {
        clip-path: url(#clippath);
      }

      .cls-27 {
        fill: #754118;
      }
    </style>
    <clipPath id="clippath">
      <path class="cls-11" d="M60.11,13.93c-2.98-.69-6.1-.93-8.94-2.07-5.98-2.39-14.45,1.23-16.15,2.55-3.1,2.4-4.72,5.14-6.72,8.51-2.02,3.4-2.71,7.41-3.06,11.35-.51,5.82-.31,11.84,1.84,17.28,1.67,4.23,4.45,7.92,6.55,11.96,1.2,2.31,2.19,4.76,3.86,6.75,3.7,4.4,9.89,5.64,15.61,6.25,3.26.35,6.54.59,9.82.71,2.08.08,4.19.11,6.2-.42,5.39-1.41,8.99-6.41,11.66-11.3,2.22-4.06,4.14-8.28,5.73-12.62,2.34-6.36,3.99-13.18,3.06-19.9-.93-6.72-4.86-13.32-11.1-15.97-3.05-1.3-6.42-1.59-9.73-1.86-2.02-.17-4.05-.34-6.07-.51-.99-.08-1.59-.5-2.56-.73Z"/>
    </clipPath>
    <clipPath id="clippath-1">
      <path class="cls-17" d="M60.11,13.93c-2.98-.69-6.1-.93-8.94-2.07-5.98-2.39-14.45,1.23-16.15,2.55-3.1,2.4-4.72,5.14-6.72,8.51-2.02,3.4-2.71,7.41-3.06,11.35-.51,5.82-.31,11.84,1.84,17.28,1.67,4.23,4.45,7.92,6.55,11.96,1.2,2.31,2.19,4.76,3.86,6.75,3.7,4.4,9.89,5.64,15.61,6.25,3.26.35,6.54.59,9.82.71,2.08.08,4.19.11,6.2-.42,5.39-1.41,8.99-6.41,11.66-11.3,2.22-4.06,4.14-8.28,5.73-12.62,2.34-6.36,3.99-13.18,3.06-19.9-.93-6.72-4.86-13.32-11.1-15.97-3.05-1.3-6.42-1.59-9.73-1.86-2.02-.17-4.05-.34-6.07-.51-.99-.08-1.59-.5-2.56-.73Z"/>
    </clipPath>
    <clipPath id="clippath-2">
      <path class="cls-14" d="M34.91,45.03c-3.36-3.44-8.62-4.56-13.34-3.68-4.72.88-8.96,3.53-12.55,6.73-1.5,1.33-2.92,2.77-4.09,4.41C.48,58.69.12,66.94,1,74.54c.73,6.28,2.43,12.9,7.14,17.13,1.32,1.18,2.83,2.14,4.37,3.01,6.94,3.92,14.72,6.34,22.66,7.05,1.69.15,4.22.25,5.89-.11,2.07-.45,4.62-.95,6.48-1.97,4.59-2.52,7-3.28,11.23-6.37,4.23-3.09,7.46-9.1,8.45-14.24.77-4,1.25-8.38.19-12.31-.52-1.95-1.09-3.91-2.08-5.67-2.32-4.13-6.88-6.75-11.59-7.29-2.48-.29-4.99-.03-7.39.62-1.17.32-2.31.73-3.41,1.22-.72.32-2.05,1.42-2.85,1.01-1.03-.52-1.42-4.85-1.84-6-.75-2.05-1.81-4.01-3.34-5.58Z"/>
    </clipPath>
    <clipPath id="clippath-3">
      <path class="cls-17" d="M34.3,41.79c-3.36-3.44-8.62-4.56-13.34-3.68-4.72.88-8.96,3.53-12.55,6.73-1.5,1.33-2.92,2.77-4.09,4.41C-.14,55.45-.49,63.7.39,71.3c.73,6.28,2.43,12.9,7.14,17.13,1.32,1.18,2.83,2.14,4.37,3.01,6.94,3.92,14.72,6.34,22.66,7.05,1.69.15,4.22.25,5.89-.11,2.07-.45,4.62-.95,6.48-1.97,4.59-2.52,7-3.28,11.23-6.37s7.46-9.1,8.45-14.24c.77-4,1.25-8.38.19-12.31-.52-1.95-1.09-3.91-2.08-5.67-2.32-4.13-6.88-6.75-11.59-7.29-2.48-.29-4.99-.03-7.39.62-1.17.32-2.31.73-3.41,1.22-.72.32-2.05,1.42-2.85,1.01-1.03-.52-1.42-4.85-1.84-6-.75-2.05-1.81-4.01-3.34-5.58Z"/>
    </clipPath>
  </defs>
  <g class="cls-20">
    <g id="Layer_2" data-name="Layer 2">
      <g id="Layer_1-2" data-name="Layer 1">
        <g id="Layer_11" data-name="Layer 11">
          <g>
            <path class="cls-13" d="M60.93,17.4c-.39-2.03-.89-3.88-.57-5.96.27-1.76.93-3.39,1.89-4.9.94-1.49,2.11-2.86,3.39-4.07,1.04-.97,2.67-2.77,4.23-2.44.3.06.55.4.53.7-.05,1.39-1.74,2.43-2.67,3.3-1.13,1.07-2.23,2.18-3.13,3.46-1.99,2.85-2.81,6.41-3.16,9.83-.03.27-.45.38-.51.07h0Z"/>
            <g>
              <path class="cls-11" d="M60.11,13.93c-2.98-.69-6.1-.93-8.94-2.07-5.98-2.39-14.45,1.23-16.15,2.55-3.1,2.4-4.72,5.14-6.72,8.51-2.02,3.4-2.71,7.41-3.06,11.35-.51,5.82-.31,11.84,1.84,17.28,1.67,4.23,4.45,7.92,6.55,11.96,1.2,2.31,2.19,4.76,3.86,6.75,3.7,4.4,9.89,5.64,15.61,6.25,3.26.35,6.54.59,9.82.71,2.08.08,4.19.11,6.2-.42,5.39-1.41,8.99-6.41,11.66-11.3,2.22-4.06,4.14-8.28,5.73-12.62,2.34-6.36,3.99-13.18,3.06-19.9-.93-6.72-4.86-13.32-11.1-15.97-3.05-1.3-6.42-1.59-9.73-1.86-2.02-.17-4.05-.34-6.07-.51-.99-.08-1.59-.5-2.56-.73Z"/>
              <g class="cls-26">
                <g class="cls-6">
                  <path class="cls-11" d="M37.77,23.35c-6.79,9.02-4.53,17.45-4.6,18.34,0-.02-.16-1.14-.06-.47.03.22.06.43.09.65.07.5.15,1.01.23,1.51.29,1.83.62,3.66.99,5.47.71,3.45,1.6,6.87,2.86,10.16.14.36.36.75.45,1.13,0-.01-.47-1.06-.19-.47.09.18.16.37.25.55.39.86.81,1.7,1.26,2.52.39.71.8,1.41,1.24,2.09.23.36.47.72.71,1.07.1.14.21.29.31.43.44.63-.11-.15-.27-.34,1.15,1.28,2.25,2.58,3.46,3.8.62.63,1.28,1.21,1.94,1.78.69.59-.88-.63.13.11.33.24.67.48,1.01.7.73.48,1.48.92,2.25,1.31.35.18.76.3,1.09.51-.11-.07-1.11-.42-.26-.13.22.08.43.16.65.23.76.26,1.55.44,2.3.73.94.36,1.89.75,2.56,1.53.06.07.35.44,0,.06-.34-.38.21.1.35.18,2.21,1.29,2.28,4.71,0,5.98-.85.48-1.65,1.11-2.59,1.4-1.43.45-3.01.19-4.44-.03-1.66-.25-3.27-.71-4.82-1.34-3.79-1.53-7.47-3.66-10.28-6.68-5.68-6.09-8.89-13.98-10.74-21.99-1-4.32-1.7-8.71-2.24-13.1-.5-4.1-.68-8.23-.18-12.34.56-4.57,1.62-9.36,4.33-13.19,2.82-3.99,6.88-6.36,11.41-8.02,3.88-1.42,8.29-2.53,12.44-2.33,2.21.11,4.49.4,6.55,1.25,1.07.44,2.12.9,3.09,1.52.74.47,1.29,1.01,1.82,1.71.09.12.18.24.27.36-.3-.37.37.44.35.42.79,1.01,1.13,2.26.44,3.44-.62,1.06-2.25.93-3.45.57,0,0-12.27-2.32-20.72,8.91Z"/>
                </g>
                <path class="cls-4" d="M56.75,83.21c8.06,2.22,16.3-1.84,21.27-8.15,2.11-2.68,3.82-5.54,5.33-8.6,1.59-3.22,3.09-6.53,4.21-9.95,2.17-6.65,2.47-13.98,2.39-20.93-.08-6.78-1.11-14.1-5.08-19.79-1.95-2.8-4.27-5.21-7.19-7.02-3.48-2.16-8.7-3.59-11.65.21-.32.41-.57.82-.76,1.23-.56.08-1.11.19-1.67.34-1.5.4-2.32,2.28-1.48,3.63,1.51,2.39,3.52,4.23,5.67,6.05.37.32.77.61,1.16.9.1.09.29.24.39.34.51.44.99.9,1.43,1.4.11.12.21.24.31.36.11.18.21.37.25.42.36.59.67,1.19.97,1.81.02.05.28.66.41.91.01.04.03.07.04.11.19.53.37,1.08.52,1.62.34,1.16.6,2.33.83,3.51.16.82.3,1.65.43,2.47.03.2.04.68.12.85.16,1.38.29,2.76.36,4.14.13,2.64.26,5.54-.19,8.18-.05.22-.13.6-.15.73-.06.36-.13.72-.2,1.07-.12.62-.26,1.24-.41,1.85-.29,1.18-.64,2.35-1.05,3.49-.12.34-.26.68-.38,1.03,0,.02-.01.03-.02.05-.19.41-.37.82-.57,1.23-.54,1.09-4.28,10.23-5.07,11.21-4.86,6.02-4.86,7.87-12.85,9.49-4.31.87-1.63,4.61,2.65,5.79ZM60.31,71.99c.16-.02.4,0,.55.11-.02,0-.04,0-.05,0-.12-.04-.32-.08-.5-.11ZM66.78,69.84c-.13.12-.25.25-.38.38,0,0-.01.01-.02.02.3-.32.4-.42.4-.4ZM70.81,22.88s.13.13.23.29c-.06-.08-.14-.18-.23-.29Z"/>
              </g>
            </g>
            <g class="cls-19">
              <path class="cls-12" d="M17.18,53.54c.38.34.76.68,1.15,1,1.64,1.27,1.84,1.42.6.47.1.08.2.16.3.24.92.77,1.91,1.51,2.91,2.18.79.53,1.62,1,2.47,1.43-.82.91-1.43,1.96-1.81,3.13-1,3.09.7,6.51,3.32,8.16,4.91,3.1,10.55,5.12,16.22,6.3,5.17,1.08,10.53,1.72,15.81,1.95,5.7.25,11.22-.6,16.38-3.07,4.46-2.13,8.04-5.63,10.95-9.56,2.99-4.06,4.42-8.8,5.06-13.73.18-1.38-.4-2.82-1.21-4.01,1.16-3.23,1.92-6.63,2.48-9.93,1.18-6.91,1.4-14.28-2.08-20.62-1.02-1.85-2.89-2.93-4.89-3.21-.6-1.09-1.34-2.1-2.24-3.01-2.95-3-7.41-3.86-11.2-2.09-1.75.82-2.28,3.21-1.59,4.84.75,1.79,2.35,2.41,4.11,2.29.02,0,.05.01.08.02-.03.01-.01.02.06.02.02.03.12.08.36.19.04.02.08.03.1.04.09.1.18.21.27.31-.2-.22-.02.03.56.74.09.16.19.36.2.37.08.15.6,1.01.18.33-.34-.55-.06-.12,0,.09.1.38.2.75.29,1.13.02.09.04.31.05.38,0,.07,0,.12,0,.15.01.26.02.52.02.78,0,.33-.01.65-.04.98-.01.19-.12.85-.05.49-.02.09-.03.17-.03.18-.05.26-.1.51-.16.77-.11.45-.23.89-.36,1.34-.13.44-.28.88-.44,1.31-.04.12-.17.36-.23.55-.68,1.43-1.34,2.86-2.17,4.22-.42.69-.88,1.34-1.35,2-.06.08-.13.16-.19.24-.25.3-.5.59-.76.88-1.16,1.29-2.43,2.49-3.77,3.59-.05.04-.09.07-.12.1,0,0-.01,0-.02.01-.36.27-.73.53-1.1.78-.65.45-1.32.87-2.01,1.28-.78.46-1.58.9-2.39,1.31-.41.2-.82.4-1.23.59-.15.07-.47.16-.6.26-.16.03-.45.19-.6.25-.42.16-.85.32-1.27.47-.8.28-1.61.53-2.42.76-1.75.49-3.53.86-5.32,1.14-4.96.56-9.98.4-14.94-.18-3.57-.54-7.07-1.37-10.6-2.14-3.11-.68-6.07.5-7.8,3.17-1.6,2.47-1.09,6.39,1.08,8.37ZM74.27,16.37s.09.03.12.04c.03.03.07.07.1.1-.07-.04-.16-.1-.23-.14ZM74.19,16.29s.05,0,.09.03c-.03,0-.06,0-.09-.01,0,0,0-.01,0-.02ZM74.36,16.38s-.09-.03-.14-.05c0,0,0,0-.01,0,.03,0,.05,0,.08,0,.02.02.05.04.07.06ZM74.38,16.24c-.16.02-.26.04-.32.05-.03,0-.05,0-.08-.01.13-.01.27-.02.41-.04ZM75.32,17.55c-.04-.06-.08-.11-.13-.17.03,0,.07.08.13.17ZM59.09,41.71s0,0,0,0h0s0,0,0,0ZM59.05,41.72s0,0,0,0c-.21.09-.43.18-.64.27-.8.37.39-.2.65-.28ZM75.49,36.02c.15-.4.1-.26,0,0h0Z"/>
              <path class="cls-12" d="M23.39,59.94c.41.37.83.74,1.26,1.09,1.79,1.38,2.01,1.55.66.51.11.09.21.17.32.26,1.01.84,2.08,1.65,3.18,2.38.87.58,1.77,1.09,2.69,1.57-.89.99-1.56,2.14-1.97,3.42-1.09,3.38.77,7.11,3.63,8.91,5.36,3.38,11.52,5.59,17.7,6.88,5.65,1.18,11.49,1.87,17.26,2.13,6.23.28,12.24-.66,17.88-3.35,4.87-2.33,8.78-6.14,11.95-10.44,3.26-4.43,4.82-9.61,5.52-14.99.2-1.51-.44-3.07-1.32-4.38,1.27-3.53,2.09-7.24,2.71-10.84,1.29-7.54,1.53-15.59-2.28-22.51-1.11-2.02-3.15-3.2-5.34-3.51-.66-1.19-1.46-2.29-2.44-3.29-3.22-3.27-8.09-4.21-12.23-2.29-1.91.89-2.48,3.5-1.73,5.28.82,1.95,2.57,2.63,4.49,2.5.03,0,.06.01.09.02-.03.01-.01.02.07.02.02.03.13.09.4.21.05.02.08.04.11.05.1.11.2.23.29.34-.22-.24-.02.03.61.81.1.18.21.39.21.4.09.17.65,1.1.2.36-.37-.6-.06-.13,0,.09.11.41.22.82.32,1.24.02.09.05.34.05.41,0,.07,0,.14,0,.17.01.28.02.57.02.85,0,.36-.02.71-.04,1.07-.01.21-.13.92-.05.53-.02.1-.03.18-.04.2-.05.28-.11.56-.18.84-.12.49-.25.98-.4,1.46-.15.48-.31.96-.48,1.43-.05.13-.18.39-.25.6-.74,1.56-1.46,3.13-2.37,4.6-.46.75-.96,1.47-1.48,2.18-.07.09-.14.17-.21.26-.27.33-.55.65-.84.96-1.27,1.41-2.65,2.72-4.12,3.92-.05.04-.1.08-.14.11,0,0-.01.01-.02.01-.4.29-.8.58-1.21.85-.71.49-1.45.95-2.19,1.39-.85.51-1.72.98-2.61,1.43-.44.22-.89.44-1.34.65-.16.07-.51.18-.65.28-.18.03-.49.2-.65.27-.46.18-.92.35-1.39.51-.87.31-1.76.58-2.65.83-1.91.53-3.85.93-5.81,1.24-5.42.61-10.89.44-16.3-.2-3.9-.58-7.71-1.49-11.57-2.34-3.39-.75-6.63.54-8.51,3.46-1.74,2.7-1.18,6.97,1.18,9.13ZM85.7,19.37c.05.01.1.03.13.04.04.03.07.07.11.11-.08-.05-.18-.1-.25-.15ZM85.62,19.28s.06,0,.1.03c-.03,0-.07,0-.1-.01,0,0,0-.02,0-.02ZM85.81,19.38s-.1-.04-.16-.05c0,0,0,0-.01-.01.03,0,.06,0,.09,0,.02.02.05.04.08.07ZM85.83,19.22c-.17.02-.29.04-.35.06-.03,0-.06,0-.09-.01.15-.01.29-.03.44-.05ZM86.85,20.66c-.05-.06-.09-.12-.14-.18.03,0,.08.08.14.18ZM69.13,47.03s0,0,0,0h0s0,0,0,0ZM69.09,47.04s0,0,0,0c-.23.1-.47.2-.7.3-.87.4.43-.22.71-.3ZM87.04,40.82c.16-.44.11-.28,0,0h0Z"/>
              <path class="cls-12" d="M25.17,67.12c.34.44.68.87,1.05,1.3,1.52,1.68,1.7,1.89.55.62.09.1.18.21.27.31.84,1.01,1.75,1.99,2.7,2.9.75.72,1.55,1.39,2.37,2.02-1.06.82-1.92,1.83-2.55,3.01-1.68,3.13-.51,7.13,1.98,9.41,4.68,4.28,10.34,7.55,16.2,9.91,5.35,2.16,10.97,3.89,16.6,5.16,6.08,1.38,12.17,1.53,18.19-.12,5.21-1.43,9.73-4.48,13.62-8.15,4-3.78,6.46-8.6,8.1-13.77.46-1.45.11-3.1-.52-4.54,1.87-3.24,3.35-6.75,4.59-10.19,2.61-7.19,4.27-15.07,1.76-22.55-.74-2.19-2.53-3.71-4.63-4.4-.43-1.28-1.03-2.52-1.82-3.67-2.59-3.79-7.21-5.58-11.62-4.42-2.04.54-1.53,1.81-1.11,3.7.46,2.06.52,4.24,2.44,4.45.03.01.05.02.09.04-.04,0-.02.02.06.03.02.03.12.11.35.27.04.03.07.05.1.07.08.12.16.26.23.39-.18-.27-.02.03.46.9.07.19.14.42.14.43.06.18.45,1.2.13.39-.26-.65-.04-.13-.02.09.03.42.07.85.09,1.27,0,.1-.02.34-.02.42,0,.07-.02.14-.02.17-.04.28-.08.56-.13.84-.06.35-.14.7-.23,1.04-.05.2-.29.89-.14.51-.04.1-.07.17-.07.19-.1.27-.21.53-.33.79-.2.46-.42.92-.65,1.36-.23.45-.47.89-.73,1.32-.07.12-.25.35-.36.55-1.01,1.41-1.99,2.82-3.15,4.11-.59.66-1.21,1.27-1.84,1.88-.08.07-.17.15-.25.22-.33.27-.66.54-.99.8-1.5,1.16-3.09,2.21-4.75,3.13-.06.03-.11.06-.15.09,0,0-.02,0-.02,0-.44.22-.89.43-1.34.63-.79.35-1.59.68-2.4.98-.93.35-1.87.66-2.82.94-.48.14-.96.27-1.44.4-.17.04-.54.08-.69.16-.18,0-.52.12-.69.15-.49.09-.97.18-1.46.26-.91.15-1.83.26-2.75.35-1.97.19-3.96.24-5.94.19-5.44-.37-10.8-1.51-16.01-3.09-3.74-1.27-14.72-5.18-18.36-6.7-3.21-1.34-7.24.12-9.61,2.66-2.19,2.35,5.6,8.23,7.55,10.77ZM93.71,38.27s.09.05.12.06c.03.04.06.08.09.13-.07-.06-.15-.13-.21-.2ZM93.64,38.17s.05,0,.09.05c-.03-.01-.06-.02-.1-.03,0,0,0-.02,0-.02ZM93.81,38.3s-.09-.06-.15-.08c0,0,0,0,0-.01.03,0,.06,0,.09.01.02.02.04.05.07.08ZM93.86,38.15c-.17,0-.29,0-.36,0-.03,0-.06-.02-.09-.03.15.02.29.03.44.03ZM94.61,39.74c-.03-.07-.07-.13-.1-.2.03.01.06.1.1.2ZM72.48,62.54s0,0,0,0h0s0,0,0,0ZM72.44,62.54s0,0-.01,0c-.25.06-.5.11-.74.17-.93.24.46-.14.76-.17ZM91.21,59.61c.24-.4.16-.26,0,0h0Z"/>
            </g>
            <g>
              <path class="cls-14" d="M34.91,45.03c-3.36-3.44-8.62-4.56-13.34-3.68-4.72.88-8.96,3.53-12.55,6.73-1.5,1.33-2.92,2.77-4.09,4.41C.48,58.69.12,66.94,1,74.54c.73,6.28,2.43,12.9,7.14,17.13,1.32,1.18,2.83,2.14,4.37,3.01,6.94,3.92,14.72,6.34,22.66,7.05,1.69.15,4.22.25,5.89-.11,2.07-.45,4.62-.95,6.48-1.97,4.59-2.52,7-3.28,11.23-6.37,4.23-3.09,7.46-9.1,8.45-14.24.77-4,1.25-8.38.19-12.31-.52-1.95-1.09-3.91-2.08-5.67-2.32-4.13-6.88-6.75-11.59-7.29-2.48-.29-4.99-.03-7.39.62-1.17.32-2.31.73-3.41,1.22-.72.32-2.05,1.42-2.85,1.01-1.03-.52-1.42-4.85-1.84-6-.75-2.05-1.81-4.01-3.34-5.58Z"/>
              <g class="cls-25">
                <path class="cls-15" d="M44.67,104.4c2.46-.6,4.37-1.76,5.68-3.96.24-.39.45-.79.66-1.2,1.19.61,2.9.05,3.24-1.41.74-.02,1.5-.37,1.99-.95,1.3.23,2.82-.44,3.11-1.8,1.03-.22,1.79-1.05,2-2.06.22.03.45.03.7,0,1.17-.14,2.1-1.07,2.31-2.21,1.07-.53,1.53-1.67,1.45-2.86.85-.35,1.52-1.05,1.59-2,1.02-.4,1.8-1.29,1.66-2.49-.1-.86-.2-1.71-.3-2.57.9-.46,1.54-1.4,1.54-2.46,0-.94,0-1.88,0-2.82,0-.19.02-.4.03-.61.83-.22,1.53-.83,1.78-1.86.9-3.68.16-7.46-2.29-10.37-1.97-2.34-5.69.7-4.16,3.21.72,1.18,1.21,2.42,1.3,3.72-.63.33-1.19.85-1.58,1.58-.61,1.14-.59,2.43-.6,3.68,0,.23,0,.47,0,.7-.21.13-.4.29-.58.46-.55.55-.86,1.2-1.02,1.91-.52.34-.92.85-1.05,1.5-.02.1-.04.21-.06.31-.17.06-.33.14-.49.25-1.14.76-1.64,1.8-1.81,2.95-.1.09-.19.18-.27.28-.21,0-.42.03-.62.08-1.27.32-1.99,1.2-2.35,2.28-.87.15-1.78.83-2.02,1.72-.7.05-1.35.36-1.74.98-.68-.29-1.49-.31-2.08.12-.38.27-.69.58-.94.92-.49.05-.95.31-1.24.8-.25.43.03,1.02.47,1.13-.06.38-.09.77-.08,1.17-.05.75-.06,1.49,0,2.24-.25.69-.59,1.34-.98,1.96-1.14,1.79-2.89,3.21-4.61,4.42-1.61,1.14-.66,3.74,1.37,3.25ZM68.56,79.37c-.02-.12,0-.09,0,0h0Z"/>
                <path class="cls-1" d="M.17,72.43c1.36-.16,2.35.62,2.83,1.85.73,1.86,1.02,3.91,1.65,5.83.33,1,.7,1.97,1.1,2.93.57.23,1.07.62,1.38,1.14.26.43.51.88.74,1.33.92.14,1.77.75,2.13,1.92.07.22.14.44.2.66,1.05-.22,2.23.07,2.84.96,1.13-.28,2.43.07,3.09,1.16.82.06,1.6.44,2.06,1.19.68.15,1.3.56,1.67,1.24.13.07.26.16.37.26.02-.02.03-.04.05-.07.9-1.02,2.43.08,2.16,1.26-.25,1.1-.28,2.27-.07,3.39.36.93.72,1.86,1.05,2.8.86,2.47-3.21,4.24-4.28,1.8-.24-.54-.47-1.09-.69-1.64-.9.27-1.92.13-2.62-.52-.81,0-1.68-.34-2.17-.96-1.19-.09-1.95-.65-2.54-1.47-.78.26-1.68.21-2.37-.17-1.4-.77-2.09-2.12-2.56-3.59-.02-.07-.05-.15-.07-.22-.7-.27-1.3-.85-1.59-1.78-.24-.76-.51-1.5-.82-2.21-.64-.14-1.23-.55-1.6-1.31-1.04-2.08-1.95-4.23-2.69-6.44-.72-2.15-1.51-4.51-1.49-6.8,0-1.27.98-2.39,2.24-2.54Z"/>
              </g>
            </g>
            <g class="cls-6">
              <path class="cls-11" d="M55.47,19.66c.05.69,0,1.36-.19,2.03-.33,1.24-1.09,2.02-2.01,2.87-.23.22-.15.14.23-.23-.14.14-.28.29-.41.43-.41.43-.81.87-1.26,1.27-.23.21-.47.41-.71.61-.72.59.64-.73-.02,0-.41.46-.79.94-1.15,1.44-.62.85.44-1.02.02-.06-.14.32-.3.62-.42.94-.08.22-.16.43-.23.65.07-.23.13-.46.2-.69.03.02-.15.87-.16,1.01-.1.82-.13,1.64-.13,2.47,0-.51,0-1.02,0-1.54.07,4.08.97,8.2,2.05,12.13-.17-.61-.34-1.23-.51-1.84.43,1.51.73,2.97,1.04,4.5.42,2.09.3,3.97-.51,5.98-1.64,4.04-7.08,5.52-10.5,2.76-.71-.57-1.41-1.21-1.96-1.94-.9-1.2-1.23-2.43-1.55-3.85-.19-.82-.36-1.65-.48-2.48-.32-2.13-.14-4.43-.03-6.59.19-3.83.65-7.61,1.84-11.28,1.12-3.46,3.27-6.64,6.24-8.76.81-.58,1.72-1.2,2.62-1.57.9-.36,1.89-.6,2.83-.85,1.6-.44,5.01.37,5.18,2.56h0Z"/>
            </g>
            <path class="cls-3" d="M31.02,27.7c.84,1.83,2.39,3.19,4.24,4.23,3.53,1.98,7.79,3.25,11.85,3.98,4.31.77,8.78,1.01,13.14.45,4.14-.54,7.97-2.59,8.41-6.65.37-3.38-1.96-7.61-5.49-9.02-2.21-.88-4.36-.26-6.65-.07-2.23.18-4.47.14-6.69-.08-1.93-.19-3.94-.52-5.71-1.27-.01,0-.02,0-.03-.01-.21-.44-.39-.89-.61-1.31-.55-1.01-1.41-1.9-2.49-2.46-4.45-2.32-8.8,2.98-10.08,6.25-.75,1.9-.74,4.11.11,5.98ZM59.15,29.87s-.03,0-.04,0c.01,0,.02,0,.04,0Z"/>
            <path class="cls-2" d="M41.92,23.22c-1.04,2.45-2.79,4.47-3.65,7.03-.41,1.22-.71,2.4-.8,3.69-.1,1.43.01,2.76-.37,4.14-.31,1.12-1.82,1.57-2.64.7-.62-.66-1-1.19-1.22-2.1-.2-.82-.26-1.7-.22-2.54.09-1.74.57-3.47,1.28-5.05,1.21-2.71,3.65-5.84,6.43-7.06.83-.36,1.55.37,1.2,1.2h0Z"/>
            <path class="cls-2" d="M45.65,17.11c.08.08.26.33.32.42.18.31.27.65.27,1.01,0,.36-.09.7-.27,1.01,0,0,0,.02-.01.02-.18.3-.42.54-.72.72-.31.18-.65.27-1.01.27-.53-.02-1.04-.2-1.42-.59-.2-.18-.33-.4-.42-.65-.13-.24-.18-.5-.17-.77,0-.73.39-1.35,1-1.74.28-.18.47-.21.77-.25.18-.05.35-.05.53,0,.09.01.18.02.27.04-.18-.02-.35-.05-.53-.07.53,0,1.02.21,1.39.57h0Z"/>
            <path class="cls-24" d="M34.3,41.79c-3.36-3.44-8.62-4.56-13.34-3.68-4.72.88-8.96,3.53-12.55,6.73-1.5,1.33-2.92,2.77-4.09,4.41C-.14,55.45-.49,63.7.39,71.3c.73,6.28,2.43,12.9,7.14,17.13,1.32,1.18,2.83,2.14,4.37,3.01,6.94,3.92,14.72,6.34,22.66,7.05,1.69.15,4.22.25,5.89-.11,2.07-.45,4.62-.95,6.48-1.97,4.59-2.52,7-3.28,11.23-6.37s7.46-9.1,8.45-14.24c.77-4,1.25-8.38.19-12.31-.52-1.95-1.09-3.91-2.08-5.67-2.32-4.13-6.88-6.75-11.59-7.29-2.48-.29-4.99-.03-7.39.62-1.17.32-2.31.73-3.41,1.22-.72.32-2.05,1.42-2.85,1.01-1.03-.52-1.42-4.85-1.84-6-.75-2.05-1.81-4.01-3.34-5.58Z"/>
            <g>
              <path class="cls-23" d="M25.81,70.72c.55.65,1.62,1.78,1.91,2.78.61,2.11,3.04,3.6,4.68,2.33.47-.36,2.11-1.42,2.23-1.43.54-.05,1.07-.13,1.58-.29,1.93-.6,3.53-1.87,4.38-3.48.96-1.82-.11-5.22-.76-7.14-.32-.93.17-4.13-.04-5.38-.15-.9-1.29-1.53-2.23-1.66-.94-.12-2.78.71-3.23,1.41-.48.76-1.99,1.85-2.73,2.46-.64.53-1.39.93-2.11,1.37-1.66,1-3.25,2.1-4.12,3.72-.95,1.76-.89,3.7.45,5.3ZM33.27,74.44s.02.01.03.02c-.01,0-.02,0-.03-.02Z"/>
              <path class="cls-10" d="M32.62,76.3s0-.02.01-.03c0,.01-.01.02-.01.03Z"/>
            </g>
            <g class="cls-22">
              <path class="cls-21" d="M37.41,52.79c-1.65-2.38-3.17-4.78-5.37-6.72-2.08-1.84-4.49-3.05-7.17-3.67-5.42-1.25-11.05,1.42-14.86,5.63-4.36,4.81-5.96,11.54-6.22,17.89-.29,6.96.24,14.36,4.41,20.19,2.26,3.17,5.09,6.06,7.83,8.81,1.36,1.36,2.89,2.61,4.14,4.07,1.32,1.53,2.84,2.87,3.97,4.55.48.71-.14,1.94-1.05,1.83-3.96-.48-7.45-3.15-10.23-5.86-2.82-2.75-5.56-5.68-8.01-8.78-2.67-3.37-4.61-7.04-5.54-11.26-.89-4.02-1.15-8.24-1.07-12.35.15-7.89,2-15.85,7.07-22.07,4.55-5.59,11.74-9.27,19.03-8.27,3.95.54,7.52,2.44,10.44,5.13,2.82,2.6,5.16,6.22,5.43,10.11.11,1.6-2.02,1.88-2.79.76h0Z"/>
              <path class="cls-9" d="M37.54,52.61c.8-1.58,2.44-2.87,3.92-3.82,1.58-1.01,3.57-1.51,5.41-1.77,3.83-.56,7.56,0,11.06,1.63,3.19,1.49,5.96,4,7.79,7,2.13,3.49,2.76,7.65,2.99,11.67.26,4.56-.72,8.67-2.64,12.79-1.61,3.47-3.65,6.79-6.34,9.53-5.09,5.18-12.17,8.17-19.27,9.28-4.77.74-9.58.78-14.38.37-2.51-.22-5.02-.54-7.51-.9-2.53-.36-5.1-.53-6.86-2.6-.63-.74-.58-1.84.31-2.37,1.93-1.16,3.84-.96,5.99-.63,1.86.29,3.72.55,5.59.76,3.83.43,7.7.65,11.55.44,6.23-.33,12.49-2.02,17.65-5.63,2.45-1.71,4.49-3.95,6.07-6.47,1.84-2.92,3.51-6.22,4.15-9.63.63-3.32.25-7.22-.64-10.47-.74-2.72-2.27-5.03-4.46-6.72-2.48-1.91-5.47-2.81-8.65-2.79-1.73.01-3.34.37-5,.82-.9.24-1.84.33-2.72.62-.88.29-1.66.61-2.58.77-1.1.19-1.96-.83-1.43-1.87h0Z"/>
            </g>
            <g>
              <path class="cls-27" d="M31.03,67.25c-.81.59-1.94.4-2.53-.41-.59-.81-.4-1.94.41-2.53.81-.59,3.88-.57,3.88-.57,0,0-.95,2.92-1.76,3.51Z"/>
              <path class="cls-18" d="M30.92,66.46c-.3.29-.77.28-1.06-.01-.29-.3-.28-.77.01-1.06.3-.29,1.55-.47,1.55-.47,0,0-.21,1.25-.5,1.54Z"/>
              <path class="cls-2" d="M30.2,66.64c-.18.13-.43.09-.56-.09-.13-.18-.09-.43.09-.56.18-.13.43-.09.56.09s.09.43-.09.56Z"/>
            </g>
            <g>
              <path class="cls-27" d="M38.17,68.04c.05,1-.72,1.85-1.72,1.9-1,.05-1.85-.72-1.9-1.72s1.63-3.57,1.63-3.57c0,0,1.94,2.39,1.99,3.38Z"/>
              <path class="cls-18" d="M37.44,67.7c.08.4-.18.8-.58.88-.4.08-.8-.18-.88-.58-.08-.4.45-1.56.45-1.56,0,0,.94.86,1.02,1.26Z"/>
              <path class="cls-2" d="M37.21,68.4c.01.22-.16.41-.38.42-.22.01-.41-.16-.42-.38s.16-.41.38-.42c.22-.01.41.16.42.38Z"/>
            </g>
            <g class="cls-5">
              <path class="cls-2" d="M31.46,71.95c-.26-1.38.22-2.83.61-4.15.44-1.48.98-2.91,1.63-4.31.31-.67.66-1.31.88-2.01.22-.71.32-1.44.56-2.14.34-1,1-2.16,2.21-2.04.22.02.44.22.36.47-.4,1.1-.97,2.03-1.25,3.19-.29,1.21-.77,2.27-1.28,3.4-.58,1.26-1.07,2.57-1.53,3.89-.44,1.26-.71,2.72-1.53,3.8-.16.22-.59.25-.65-.09h0Z"/>
            </g>
            <g class="cls-8">
              <path class="cls-2" d="M43.9,56.45c.47-.2.98-.13,1.46,0,.14.03.79.24.59.21-.16-.03.52-.02.71-.04.67-.07,1.31-.02,1.96.17,1.86.54,3.64,1.33,5.17,2.52,3.79,2.93,5.96,7.84,6.09,12.6.13,5.08-2.68,9.46-6.8,12.22-3.63,2.42-8.27,3.19-12.54,2.86-1-.08-1.97-.21-2.98-.16-.19,0-.38.03-.57.04-.89.06.46-.13-.11.02-.44.11-.89.17-1.33.29-2,.5-4.23,1.59-6.31,1.01-.91-.26-1.51-1.1-1.54-2.02-.06-1.9,1.34-3.71,2.63-4.98,1.28-1.26,2.84-2.39,4.42-3.25,1.8-.98,3.69-1.65,5.7-2.05.39-.08.79-.16,1.18-.23.58-.1,1.17-.17,1.75-.24.17-.02.87-.1,0,0-.92.11.48-.1.76-.17.44-.1.88-.22,1.32-.35.21-.07,1.4-.51.57-.18-.82.33.32-.19.52-.3.31-.18.6-.39.9-.58.51-.32-.49.37-.49.37.09-.17.38-.34.52-.48.13-.12.35-.45.48-.51,0,0-.69,1-.38.49.17-.29.35-.62.55-.89.33-.46-.22.56-.23.61.03-.16.12-.34.17-.49.05-.17.09-.34.14-.51.25-.91-.16.2-.03.32-.09-.09,0-1.08,0-1.25,0-.19-.15-.84.01-.06.26,1.25-.17-1.24-.16-1.19-.05-.43-.27-.83.06.29-.05-.18-.06-.39-.09-.58-.08-.45-.17-.9-.28-1.34-.09-.37-.2-.75-.31-1.12-.05-.18-.13-.36-.18-.54-.14-.57.11.37.18.38-.06,0-.49-.91-.55-1.01-.07-.12-.46-.63-.02-.07.45.57-.05-.03-.14-.13-1.36-1.48-3.03-2.87-3.57-4.86-.18-.66-.46-1.28-.63-1.94-.32-1.28.2-2.35,1.4-2.85h0Z"/>
            </g>
            <g class="cls-7">
              <path class="cls-2" d="M30.28,53.13c-1.57.36-3.09.89-4.64,1.3-.87.23-1.72.52-2.56.83-.4.15-.79.32-1.18.48.06-.03.7-.32.19-.08-.32.15-.63.28-.95.44-1.6.78-3.09,1.74-4.59,2.69-.88.56.16-.05.17-.16,0,.07-.37.32-.43.38-.29.26-.54.56-.81.83-.53.53.49-.82.14-.16-.09.17-.22.34-.32.51-.24.4-.46.82-.67,1.24-.09.18-.17.36-.26.55-.49,1.02.13-.18.09-.23.06.1-.34,1-.38,1.15-.05.19-.08.4-.14.59-.25.74,0-1.11.03-.33,0,.19,0,.41-.02.6-.05.8.05-.14-.09-.42.15.3.16.76.26,1.09-.02-.06.24.71.25.71.08-.04-.55-1.06-.19-.53.21.31.37.67.57.99.14.22.3.42.43.64.39.64-.71-.82-.2-.26,2.47,2.78,5.41,5.23,7.32,8.46,1.43,2.42,2.29,5.28,1.63,8.08-.39,1.66-1.45,3.42-2.94,4.3-2.04,1.2-4.78.89-6.43-.83-1.04-1.09-1.36-2.41-1.68-3.81-.08-.35-.16-.71-.25-1.06-.07-.25-.39-.94,0-.17.41.8,0,.02-.09-.14-.18-.34-.37-.66-.58-.98-.12-.19-.65-.82-.09-.18.54.62.09.12-.01,0-.58-.68-1.18-1.33-1.8-1.97-2.92-2.97-5.76-5.93-7.08-9.98-1.47-4.49.17-9.57,2.83-13.29,3.04-4.25,7.5-6.52,12.51-7.72,4.16-.99,11.2-1.95,13.44,2.88.63,1.36.2,3.21-1.46,3.59h0Z"/>
            </g>
            <g class="cls-16">
              <path class="cls-23" d="M45.02,56.5c5.69,3.63,10.95,11.27,8.6,18.26-2.18,6.5-9.2,10.64-15.92,9.77-2.03-.26-4.02-.91-6.08-.95-.74-.01-1.41.08-2.13.26-.58.14-1.63.34-2.09.72-.93.79-2.55.07-2.16-1.26.27-.9.45-1.7,1.13-2.41.68-.7,1.63-1.23,2.55-1.52,2.09-.65,4.22-.38,6.32.04,1.99.4,3.91.87,5.95.58,1.69-.24,3.32-.79,4.78-1.66,3.45-2.07,5.52-5.78,4.59-9.81-1.02-4.42-4.37-7.22-6.68-10.91-.43-.68.43-1.55,1.11-1.11h0Z"/>
            </g>
            <g class="cls-16">
              <path class="cls-23" d="M34.04,55.02c-3.83-.48-7.35.14-10.84,1.78-1.63.77-3.54,1.63-4.7,3.07-1.04,1.28-1.49,3.17-1.61,4.78-.29,3.87,3.36,6.04,5.57,8.67,1.28,1.53,2.36,3.2,2.72,5.2.18.99.24,1.99,0,2.97-.27,1.07-.87,1.55-1.65,2.24-.83.73-1.89,0-1.74-1.01.06-.44-.17-1.23-.22-1.72-.08-.72-.26-1.43-.59-2.07-.72-1.39-1.91-2.44-3.05-3.48-2.54-2.32-5.29-4.72-5.9-8.3-.6-3.52.41-7.5,2.71-10.24,2.17-2.58,6.01-4.15,9.19-5,1.83-.48,3.82-.83,5.72-.67.9.08,1.81.24,2.67.54,1.01.35,1.66.86,2.44,1.55.6.53.16,1.79-.7,1.69h0Z"/>
            </g>
            <path class="cls-2" d="M13.41,86.16c-1.93-1.59-3.6-3.4-4.88-5.57-.76-1.29-2.92-5.13-1.17-6.4,1.62-1.18,2.97,3.12,3.41,4.02,1.14,2.29,2.48,4.49,4.22,6.37,1,1.07-.48,2.48-1.58,1.58h0Z"/>
            <path class="cls-27" d="M38.84,53.76c.4-1.52,1.07-2.9,1.59-4.38.53-1.53.87-3.12,1.03-4.73.16-1.61.14-3.24-.11-4.84-.22-1.4-.96-2.89-.57-4.3.09-.32.49-.5.78-.32,1.42.88,1.67,2.88,1.9,4.42.28,1.79.34,3.6.14,5.41-.35,3.23-1.47,7.19-4.22,9.16-.27.2-.62-.13-.54-.42h0Z"/>
          </g>
        </g>
      </g>
    </g>
  </g>
</svg>