<?xml version="1.0" encoding="UTF-8"?>
<svg id="Layer_2" data-name="Layer 2" xmlns="http://www.w3.org/2000/svg" width="798.85" height="699.71" viewBox="0 0 798.85 699.71">
  <defs>
    <style>
      .cls-1 {
        fill: #e6db8b;
      }

      .cls-2 {
        fill: #a8ad40;
      }

      .cls-3 {
        fill: #93672c;
      }

      .cls-4 {
        fill: #2a1719;
      }

      .cls-5 {
        fill: #b5c046;
      }

      .cls-6 {
        fill: #140105;
      }

      .cls-7 {
        fill: #a97d36;
      }
    </style>
  </defs>
  <g id="Layer_1-2" data-name="Layer 1">
    <g>
      <g>
        <path class="cls-7" d="M542.65.03s-261.18-9.97-271.15,320c-9.97,329.96,266.16,327.97,266.16,327.97,0,0,261.18,25.92,261.18-338.94C798.85,13.99,542.65.03,542.65.03Z"/>
        <path class="cls-3" d="M537.45,28.55c-4.09,0-39.98-.37-39.98-13.07s35.89-13.07,39.98-13.07,39.98.37,39.98,13.07-35.89,13.07-39.98,13.07ZM504.88,15.48c2.29,2.29,14.08,5.87,32.57,5.87s30.28-3.59,32.57-5.87c-2.29-2.29-14.08-5.88-32.57-5.88s-30.28,3.59-32.57,5.88Z"/>
        <path class="cls-3" d="M410.8,59.11c-1.53,1.18-3.71.9-4.89-.63l-.13-.17c-1.18-1.53-.89-3.72.63-4.89l18.39-14.19c1.53-1.17,3.72-.89,4.89.63l.13.17c1.18,1.52.89,3.72-.63,4.89l-18.39,14.18Z"/>
        <path class="cls-3" d="M379.42,89.91c-1.22,1.49-3.42,1.71-4.91.49l-.16-.14c-1.49-1.22-1.71-3.42-.48-4.91l14.72-17.96c1.22-1.49,3.42-1.71,4.91-.48l.17.13c1.49,1.22,1.71,3.42.48,4.91l-14.72,17.95Z"/>
        <path class="cls-3" d="M345.24,126.71c-1.18,1.52-3.37,1.81-4.89.63l-.17-.13c-1.53-1.18-1.81-3.37-.63-4.89l14.19-18.38c1.18-1.53,3.37-1.81,4.89-.63l.17.13c1.53,1.18,1.81,3.37.63,4.89l-14.19,18.38Z"/>
        <path class="cls-3" d="M325.68,169.87c-.69,1.8-2.71,2.7-4.5,2.01l-.2-.08c-1.8-.69-2.7-2.71-2.01-4.51l8.31-21.68c.69-1.8,2.71-2.7,4.51-2.01l.2.07c1.8.69,2.7,2.71,2.01,4.51l-8.31,21.68Z"/>
        <path class="cls-3" d="M308.62,208.57c-.6,1.83-2.56,2.84-4.4,2.24l-.2-.07c-1.83-.6-2.84-2.56-2.24-4.4l7.18-22.08c.59-1.83,2.56-2.84,4.4-2.24l.2.06c1.83.6,2.84,2.56,2.24,4.4l-7.18,22.09Z"/>
        <path class="cls-3" d="M297.69,252.86c-.64,1.82-2.64,2.77-4.45,2.12l-.2-.07c-1.82-.65-2.77-2.64-2.12-4.46l7.76-21.89c.64-1.82,2.64-2.77,4.45-2.12l.2.07c1.82.64,2.77,2.64,2.12,4.45l-7.77,21.89Z"/>
        <path class="cls-3" d="M295.03,300.66c-.1,1.93-1.73,3.41-3.66,3.31h-.21c-1.92-.1-3.41-1.74-3.31-3.67l1.15-23.2c.1-1.92,1.73-3.41,3.66-3.31h.21c1.92.11,3.41,1.75,3.31,3.67l-1.15,23.19Z"/>
        <path class="cls-3" d="M292.77,345.49c-.09,1.92-1.72,3.41-3.65,3.32h-.21c-1.93-.1-3.41-1.73-3.32-3.66l1.09-23.2c.09-1.92,1.72-3.41,3.65-3.32h.21c1.92.1,3.41,1.73,3.32,3.66l-1.09,23.2Z"/>
        <path class="cls-3" d="M295.93,389.34c.34,1.9-.91,3.71-2.81,4.06l-.21.04c-1.9.35-3.71-.91-4.06-2.81l-4.15-22.85c-.35-1.89.91-3.71,2.81-4.06l.21-.04c1.89-.34,3.71.91,4.06,2.81l4.15,22.85Z"/>
        <path class="cls-3" d="M301.84,439.22c.4,1.88-.8,3.74-2.69,4.14l-.21.05c-1.89.4-3.74-.8-4.14-2.69l-4.82-22.72c-.4-1.88.8-3.74,2.69-4.14l.21-.04c1.88-.4,3.74.81,4.13,2.69l4.83,22.72Z"/>
        <path class="cls-3" d="M322.07,482.07c.93,1.69.31,3.81-1.38,4.74l-.19.1c-1.69.93-3.81.3-4.73-1.39l-11.15-20.37c-.93-1.69-.3-3.81,1.39-4.74l.19-.1c1.69-.92,3.81-.3,4.73,1.39l11.14,20.37Z"/>
        <path class="cls-3" d="M340.52,520.13c1.01,1.64.5,3.79-1.14,4.8l-.18.11c-1.64,1.01-3.79.5-4.8-1.14l-12.18-19.77c-1.01-1.64-.5-3.79,1.14-4.8l.18-.11c1.64-1.01,3.79-.5,4.8,1.14l12.19,19.77Z"/>
        <path class="cls-3" d="M367.19,557.14c.97,1.67.4,3.8-1.27,4.77l-.18.11c-1.67.97-3.8.4-4.77-1.27l-11.65-20.09c-.97-1.67-.4-3.8,1.27-4.77l.18-.11c1.67-.96,3.8-.4,4.77,1.27l11.65,20.09Z"/>
        <path class="cls-3" d="M401.9,590.12c1.4,1.32,1.47,3.53.15,4.93l-.14.15c-1.32,1.41-3.53,1.47-4.93.16l-16.93-15.89c-1.4-1.32-1.47-3.53-.16-4.93l.15-.15c1.32-1.4,3.53-1.47,4.93-.16l16.93,15.89Z"/>
        <path class="cls-3" d="M413.8,88.08c-1.33,1.39-3.54,1.44-4.93.11l-.15-.15c-1.39-1.33-1.44-3.54-.1-4.93l16.06-16.77c1.33-1.39,3.54-1.44,4.93-.11l.15.14c1.39,1.34,1.44,3.54.11,4.94l-16.07,16.76Z"/>
        <path class="cls-3" d="M379.88,122.44c-1.16,1.54-3.35,1.84-4.89.68l-.17-.13c-1.54-1.16-1.84-3.35-.68-4.89l13.99-18.53c1.16-1.54,3.35-1.84,4.89-.68l.17.13c1.54,1.16,1.84,3.35.68,4.89l-14,18.53Z"/>
        <path class="cls-3" d="M356.97,158.25c-.85,1.73-2.94,2.45-4.67,1.6l-.19-.09c-1.73-.85-2.45-2.94-1.6-4.67l10.21-20.86c.85-1.73,2.94-2.45,4.67-1.6l.19.09c1.73.85,2.45,2.94,1.6,4.67l-10.21,20.86Z"/>
        <path class="cls-3" d="M336.83,196.36c-.85,1.73-2.94,2.45-4.67,1.6l-.19-.1c-1.73-.84-2.45-2.93-1.6-4.67l10.21-20.86c.85-1.73,2.94-2.45,4.67-1.6l.19.09c1.73.85,2.45,2.94,1.6,4.67l-10.21,20.86Z"/>
        <path class="cls-3" d="M325.06,236.77c-.57,1.84-2.52,2.87-4.36,2.31l-.2-.06c-1.84-.57-2.88-2.52-2.31-4.36l6.83-22.19c.57-1.84,2.52-2.88,4.36-2.31l.2.06c1.84.57,2.88,2.52,2.31,4.36l-6.83,22.19Z"/>
        <path class="cls-3" d="M319.58,278.05c-.07,1.93-1.69,3.43-3.62,3.36h-.21c-1.92-.08-3.43-1.7-3.36-3.62l.85-23.2c.07-1.93,1.69-3.43,3.62-3.36h.21c1.93.08,3.43,1.7,3.36,3.62l-.85,23.21Z"/>
        <path class="cls-3" d="M316.71,322.63c-.07,1.93-1.69,3.43-3.62,3.36h-.21c-1.93-.08-3.43-1.7-3.36-3.62l.85-23.2c.07-1.93,1.69-3.43,3.62-3.36h.21c1.93.08,3.43,1.7,3.36,3.62l-.86,23.21Z"/>
        <path class="cls-3" d="M315.89,366.45c.28,1.91-1.04,3.68-2.95,3.96l-.21.03c-1.9.28-3.67-1.05-3.95-2.95l-3.34-22.98c-.28-1.91,1.04-3.68,2.95-3.96l.21-.03c1.91-.28,3.68,1.04,3.96,2.95l3.34,22.98Z"/>
        <path class="cls-3" d="M321.65,411.75c.28,1.91-1.05,3.68-2.95,3.96l-.21.03c-1.91.28-3.68-1.04-3.96-2.95l-3.34-22.98c-.28-1.91,1.04-3.68,2.95-3.95l.21-.03c1.91-.28,3.68,1.04,3.96,2.95l3.34,22.98Z"/>
        <path class="cls-3" d="M332.1,453.82c.61,1.83-.39,3.8-2.22,4.41l-.2.07c-1.83.61-3.8-.39-4.41-2.22l-7.29-22.05c-.61-1.83.39-3.8,2.22-4.41l.2-.07c1.83-.61,3.81.39,4.41,2.22l7.29,22.05Z"/>
        <path class="cls-3" d="M351.07,493.88c.66,1.81-.28,3.81-2.09,4.47l-.2.08c-1.81.66-3.81-.28-4.47-2.09l-7.91-21.83c-.66-1.81.28-3.81,2.09-4.47l.2-.07c1.81-.66,3.81.28,4.47,2.09l7.91,21.83Z"/>
        <path class="cls-3" d="M372.9,529.01c.84,1.73.12,3.82-1.61,4.66l-.19.09c-1.73.84-3.82.12-4.66-1.61l-10.16-20.88c-.84-1.73-.12-3.82,1.61-4.66l.19-.09c1.73-.84,3.82-.12,4.67,1.61l10.15,20.88Z"/>
        <path class="cls-3" d="M401.45,565.03c.67,1.81-.26,3.81-2.07,4.48l-.2.08c-1.81.66-3.81-.26-4.48-2.07l-8.02-21.79c-.67-1.81.26-3.81,2.07-4.48l.2-.07c1.81-.67,3.82.26,4.48,2.07l8.01,21.79Z"/>
        <path class="cls-3" d="M426.9,601.36c1.15,1.55.83,3.73-.71,4.88l-.17.13c-1.54,1.15-3.73.83-4.88-.71l-13.88-18.62c-1.15-1.54-.83-3.73.71-4.88l.17-.13c1.54-1.15,3.73-.83,4.88.71l13.88,18.62Z"/>
        <path class="cls-3" d="M441.56,51.95c-1.62,1.03-3.78.55-4.82-1.07l-.11-.18c-1.03-1.63-.55-3.78,1.08-4.82l19.61-12.44c1.63-1.03,3.79-.55,4.81,1.08l.12.18c1.03,1.63.55,3.78-1.07,4.82l-19.61,12.44Z"/>
        <path class="cls-3" d="M462.84,27.86c-1.8.68-3.82-.24-4.49-2.04l-.07-.2c-.68-1.8.23-3.82,2.04-4.49l21.74-8.17c1.8-.68,3.82.23,4.49,2.04l.07.2c.68,1.8-.23,3.82-2.04,4.49l-21.74,8.17Z"/>
        <path class="cls-3" d="M445.32,69.17c-1.53,1.18-3.71.89-4.89-.63l-.13-.17c-1.18-1.53-.9-3.72.63-4.9l18.38-14.18c1.53-1.18,3.72-.89,4.89.63l.13.17c1.18,1.52.89,3.71-.63,4.89l-18.39,14.18Z"/>
        <path class="cls-3" d="M358.96,193.47c-.6,1.83-2.56,2.84-4.4,2.24l-.2-.07c-1.83-.6-2.84-2.56-2.24-4.4l7.17-22.09c.6-1.83,2.57-2.84,4.4-2.24l.2.06c1.83.6,2.84,2.56,2.24,4.4l-7.17,22.08Z"/>
        <path class="cls-3" d="M348.03,237.76c-.64,1.82-2.64,2.77-4.46,2.12l-.2-.07c-1.82-.64-2.77-2.64-2.12-4.45l7.76-21.89c.64-1.82,2.64-2.77,4.45-2.12l.2.07c1.82.65,2.77,2.64,2.12,4.46l-7.76,21.88Z"/>
        <path class="cls-3" d="M345.37,285.56c-.1,1.92-1.73,3.41-3.66,3.31h-.21c-1.93-.11-3.41-1.74-3.31-3.67l1.15-23.19c.1-1.92,1.73-3.41,3.66-3.31h.21c1.92.11,3.41,1.74,3.31,3.67l-1.15,23.19Z"/>
        <path class="cls-3" d="M343.11,330.39c-.09,1.92-1.72,3.41-3.65,3.32h-.21c-1.92-.1-3.41-1.74-3.32-3.66l1.09-23.2c.09-1.92,1.73-3.41,3.65-3.32h.21c1.92.1,3.41,1.73,3.32,3.66l-1.09,23.2Z"/>
        <path class="cls-3" d="M346.26,374.24c.34,1.9-.92,3.71-2.81,4.06l-.21.04c-1.9.35-3.71-.92-4.05-2.81l-4.15-22.85c-.35-1.9.91-3.71,2.81-4.05l.21-.04c1.9-.34,3.71.91,4.06,2.81l4.15,22.85Z"/>
        <path class="cls-3" d="M352.18,424.12c.4,1.88-.8,3.74-2.69,4.14l-.21.04c-1.89.4-3.74-.8-4.14-2.69l-4.82-22.72c-.4-1.88.8-3.74,2.69-4.14l.21-.04c1.88-.4,3.74.8,4.14,2.69l4.82,22.72Z"/>
        <path class="cls-3" d="M372.41,466.97c.92,1.69.3,3.81-1.39,4.74l-.19.1c-1.69.92-3.81.3-4.74-1.39l-11.14-20.37c-.93-1.69-.3-3.81,1.39-4.74l.19-.1c1.69-.92,3.81-.3,4.73,1.39l11.15,20.37Z"/>
        <path class="cls-3" d="M390.85,505.03c1.01,1.64.5,3.79-1.14,4.8l-.18.11c-1.64,1.01-3.79.5-4.8-1.14l-12.19-19.77c-1.01-1.64-.5-3.79,1.14-4.8l.18-.11c1.64-1.01,3.79-.5,4.8,1.14l12.18,19.77Z"/>
        <path class="cls-3" d="M417.53,542.04c.97,1.67.4,3.8-1.27,4.77l-.18.11c-1.67.97-3.8.4-4.77-1.27l-11.65-20.09c-.97-1.67-.4-3.8,1.27-4.77l.18-.11c1.67-.97,3.8-.4,4.77,1.27l11.65,20.09Z"/>
        <path class="cls-3" d="M439.24,579.51c1.07,1.6.64,3.77-.97,4.84l-.17.12c-1.6,1.07-3.77.64-4.84-.97l-12.88-19.32c-1.07-1.6-.64-3.77.97-4.84l.18-.12c1.6-1.07,3.77-.64,4.84.96l12.88,19.32Z"/>
        <path class="cls-3" d="M465.57,75.14c-1.33,1.39-3.54,1.44-4.93.11l-.15-.15c-1.39-1.33-1.44-3.54-.11-4.93l16.07-16.77c1.33-1.39,3.54-1.44,4.93-.1l.15.14c1.39,1.33,1.44,3.54.11,4.93l-16.07,16.77Z"/>
        <path class="cls-3" d="M430.21,107.34c-1.16,1.54-3.35,1.84-4.88.68l-.17-.13c-1.54-1.16-1.84-3.35-.68-4.89l13.99-18.53c1.16-1.54,3.35-1.84,4.89-.68l.17.13c1.54,1.16,1.84,3.35.68,4.89l-14,18.53Z"/>
        <path class="cls-3" d="M407.3,143.15c-.85,1.73-2.94,2.45-4.67,1.6l-.19-.09c-1.73-.84-2.45-2.94-1.6-4.67l10.21-20.86c.85-1.73,2.94-2.45,4.67-1.6l.19.09c1.73.85,2.45,2.94,1.6,4.67l-10.21,20.86Z"/>
        <path class="cls-3" d="M387.16,181.26c-.85,1.73-2.94,2.44-4.67,1.6l-.19-.09c-1.73-.84-2.45-2.94-1.6-4.67l10.21-20.86c.85-1.73,2.94-2.45,4.67-1.6l.19.09c1.73.85,2.45,2.94,1.6,4.67l-10.21,20.86Z"/>
        <path class="cls-3" d="M375.4,221.67c-.57,1.84-2.52,2.87-4.36,2.31l-.2-.06c-1.84-.57-2.88-2.52-2.31-4.36l6.83-22.19c.56-1.84,2.52-2.88,4.36-2.31l.2.06c1.84.57,2.88,2.52,2.31,4.36l-6.83,22.19Z"/>
        <path class="cls-3" d="M369.91,262.96c-.07,1.93-1.69,3.43-3.62,3.36h-.21c-1.92-.08-3.43-1.7-3.36-3.62l.85-23.21c.07-1.93,1.69-3.43,3.62-3.36h.21c1.93.08,3.43,1.69,3.36,3.62l-.85,23.21Z"/>
        <path class="cls-3" d="M367.04,307.53c-.07,1.93-1.69,3.43-3.62,3.36h-.21c-1.92-.08-3.43-1.7-3.36-3.62l.85-23.2c.07-1.93,1.69-3.43,3.62-3.36h.21c1.93.08,3.43,1.7,3.36,3.62l-.86,23.21Z"/>
        <path class="cls-3" d="M366.23,351.35c.28,1.91-1.04,3.68-2.95,3.96l-.21.03c-1.91.28-3.68-1.05-3.95-2.95l-3.35-22.98c-.28-1.91,1.05-3.68,2.95-3.96l.21-.03c1.91-.28,3.68,1.04,3.96,2.95l3.34,22.98Z"/>
        <path class="cls-3" d="M371.98,396.65c.28,1.91-1.04,3.68-2.95,3.96l-.21.03c-1.91.28-3.68-1.04-3.95-2.95l-3.34-22.98c-.28-1.91,1.04-3.68,2.95-3.96l.21-.03c1.91-.28,3.68,1.04,3.96,2.95l3.34,22.98Z"/>
        <path class="cls-3" d="M382.43,438.72c.61,1.83-.39,3.8-2.22,4.41l-.2.07c-1.83.61-3.8-.39-4.41-2.22l-7.29-22.05c-.61-1.83.39-3.8,2.22-4.41l.2-.07c1.83-.61,3.8.39,4.41,2.22l7.29,22.05Z"/>
        <path class="cls-3" d="M401.41,478.78c.66,1.81-.28,3.81-2.09,4.47l-.2.08c-1.81.66-3.81-.28-4.47-2.1l-7.91-21.83c-.66-1.81.28-3.81,2.09-4.47l.2-.07c1.81-.66,3.81.28,4.47,2.09l7.91,21.83Z"/>
        <path class="cls-3" d="M423.24,513.91c.84,1.74.12,3.82-1.61,4.66l-.19.09c-1.73.84-3.82.12-4.66-1.61l-10.16-20.88c-.84-1.73-.12-3.82,1.61-4.66l.19-.09c1.73-.84,3.82-.12,4.67,1.61l10.16,20.88Z"/>
        <path class="cls-3" d="M449.63,560c.67,1.81-.26,3.81-2.07,4.48l-.2.07c-1.81.67-3.81-.26-4.48-2.07l-8.01-21.79c-.67-1.81.26-3.81,2.07-4.48l.2-.07c1.81-.66,3.82.26,4.48,2.07l8.01,21.8Z"/>
        <path class="cls-3" d="M453.77,614.97c.91,1.7.26,3.81-1.43,4.72l-.19.1c-1.7.91-3.81.27-4.72-1.43l-10.95-20.48c-.91-1.7-.27-3.81,1.43-4.72l.18-.1c1.7-.91,3.82-.27,4.72,1.43l10.95,20.48Z"/>
        <path class="cls-3" d="M482.55,43.32c-1.63,1.03-3.78.55-4.82-1.08l-.11-.18c-1.04-1.63-.55-3.78,1.08-4.82l19.61-12.44c1.62-1.03,3.78-.55,4.81,1.08l.12.18c1.03,1.63.55,3.79-1.08,4.82l-19.61,12.44Z"/>
        <path class="cls-3" d="M392.92,135.11c-.95,1.68-3.08,2.27-4.76,1.32l-.18-.1c-1.68-.95-2.27-3.08-1.32-4.75l11.43-20.21c.95-1.68,3.08-2.27,4.76-1.32l.19.1c1.68.95,2.27,3.08,1.32,4.75l-11.43,20.21Z"/>
        <path class="cls-3" d="M469.45,596.18c.61,1.83-.38,3.8-2.21,4.41l-.2.07c-1.83.61-3.8-.39-4.41-2.21l-7.32-22.04c-.61-1.83.38-3.81,2.21-4.41l.2-.07c1.83-.61,3.81.38,4.41,2.21l7.32,22.04Z"/>
        <path class="cls-3" d="M496.06,612c.61,1.83-.38,3.8-2.21,4.41l-.2.07c-1.83.61-3.8-.38-4.41-2.21l-7.32-22.04c-.61-1.83.38-3.8,2.21-4.41l.2-.07c1.83-.61,3.81.38,4.41,2.21l7.32,22.04Z"/>
        <path class="cls-3" d="M458.25,103.74c-1.16,1.54-3.35,1.84-4.89.68l-.17-.13c-1.54-1.16-1.85-3.35-.68-4.89l13.99-18.53c1.16-1.54,3.35-1.84,4.89-.68l.17.12c1.54,1.16,1.84,3.35.68,4.89l-14,18.53Z"/>
        <path class="cls-3" d="M430.31,136.68c-.85,1.73-2.94,2.45-4.67,1.6l-.19-.09c-1.73-.85-2.45-2.94-1.6-4.67l10.21-20.86c.85-1.73,2.94-2.45,4.67-1.6l.19.09c1.73.85,2.45,2.94,1.6,4.67l-10.21,20.86Z"/>
        <path class="cls-3" d="M410.17,174.79c-.85,1.73-2.94,2.45-4.67,1.6l-.19-.09c-1.73-.85-2.45-2.94-1.6-4.67l10.21-20.86c.85-1.73,2.94-2.45,4.67-1.6l.19.09c1.73.85,2.45,2.94,1.6,4.67l-10.21,20.86Z"/>
        <path class="cls-3" d="M398.41,215.2c-.57,1.84-2.52,2.88-4.36,2.31l-.2-.06c-1.84-.57-2.88-2.52-2.31-4.36l6.83-22.19c.56-1.84,2.52-2.88,4.36-2.31l.2.06c1.84.57,2.88,2.52,2.31,4.36l-6.83,22.19Z"/>
        <path class="cls-3" d="M392.92,256.48c-.07,1.93-1.69,3.43-3.61,3.36h-.21c-1.93-.08-3.43-1.7-3.36-3.62l.85-23.21c.07-1.92,1.69-3.43,3.62-3.36h.21c1.93.08,3.43,1.7,3.36,3.62l-.85,23.21Z"/>
        <path class="cls-3" d="M390.05,301.06c-.07,1.93-1.69,3.43-3.62,3.36h-.21c-1.93-.08-3.43-1.7-3.36-3.62l.85-23.2c.07-1.93,1.69-3.43,3.62-3.36h.21c1.93.08,3.43,1.7,3.36,3.62l-.86,23.21Z"/>
        <path class="cls-3" d="M389.23,344.88c.28,1.91-1.04,3.68-2.95,3.96l-.21.03c-1.91.28-3.68-1.04-3.95-2.95l-3.35-22.98c-.28-1.91,1.04-3.68,2.95-3.96l.21-.03c1.91-.28,3.68,1.04,3.96,2.95l3.34,22.98Z"/>
        <path class="cls-3" d="M392.83,393.78c.28,1.91-1.04,3.68-2.95,3.96l-.21.03c-1.91.28-3.68-1.04-3.95-2.95l-3.35-22.98c-.28-1.91,1.04-3.68,2.95-3.95l.21-.03c1.91-.28,3.68,1.04,3.96,2.95l3.34,22.98Z"/>
        <path class="cls-3" d="M405.44,440.16c.61,1.83-.39,3.8-2.22,4.41l-.2.07c-1.83.61-3.8-.39-4.41-2.22l-7.29-22.05c-.61-1.83.39-3.8,2.22-4.41l.2-.07c1.83-.6,3.8.39,4.41,2.22l7.29,22.05Z"/>
        <path class="cls-3" d="M427.3,480.94c.66,1.81-.28,3.81-2.09,4.47l-.2.07c-1.81.66-3.81-.28-4.47-2.09l-7.91-21.83c-.66-1.81.28-3.81,2.09-4.47l.2-.07c1.81-.66,3.82.28,4.47,2.09l7.91,21.83Z"/>
        <path class="cls-3" d="M448.4,524.7c.84,1.74.12,3.82-1.61,4.66l-.19.09c-1.73.84-3.82.12-4.66-1.61l-10.16-20.88c-.84-1.73-.12-3.82,1.61-4.66l.19-.09c1.73-.85,3.82-.12,4.66,1.61l10.16,20.88Z"/>
        <path class="cls-3" d="M491.33,69.95c-1.16,1.54-3.35,1.84-4.89.68l-.17-.13c-1.54-1.16-1.84-3.35-.68-4.89l13.99-18.53c1.16-1.54,3.35-1.84,4.89-.68l.17.12c1.54,1.16,1.85,3.35.69,4.89l-14,18.53Z"/>
        <path class="cls-3" d="M476.85,564.56c.92,1.69.3,3.81-1.39,4.74l-.19.1c-1.69.92-3.81.3-4.73-1.39l-11.12-20.38c-.92-1.69-.3-3.81,1.39-4.73l.19-.1c1.69-.92,3.81-.3,4.74,1.39l11.12,20.39Z"/>
        <path class="cls-3" d="M477.67,629.87c.8,1.75.03,3.82-1.72,4.62l-.2.09c-1.75.8-3.82.03-4.62-1.72l-9.66-21.12c-.8-1.75-.03-3.82,1.72-4.62l.19-.09c1.76-.8,3.82-.03,4.63,1.72l9.66,21.12Z"/>
        <path class="cls-3" d="M666.05,59.11c1.52,1.18,3.71.9,4.89-.63l.13-.17c1.18-1.53.89-3.72-.63-4.89l-18.38-14.19c-1.52-1.17-3.72-.89-4.89.63l-.13.17c-1.18,1.52-.89,3.72.63,4.89l18.39,14.18Z"/>
        <path class="cls-3" d="M697.43,89.91c1.22,1.49,3.42,1.71,4.91.49l.16-.14c1.49-1.22,1.71-3.42.49-4.91l-14.73-17.96c-1.22-1.49-3.42-1.71-4.91-.48l-.16.13c-1.49,1.22-1.71,3.42-.48,4.91l14.72,17.95Z"/>
        <path class="cls-3" d="M731.61,126.71c1.18,1.52,3.37,1.81,4.89.63l.17-.13c1.53-1.18,1.81-3.37.63-4.89l-14.19-18.38c-1.18-1.53-3.37-1.81-4.89-.63l-.17.13c-1.53,1.18-1.81,3.37-.63,4.89l14.19,18.38Z"/>
        <path class="cls-3" d="M751.17,169.87c.69,1.8,2.71,2.7,4.51,2.01l.2-.08c1.8-.69,2.7-2.71,2.01-4.51l-8.31-21.68c-.69-1.8-2.71-2.7-4.51-2.01l-.2.07c-1.8.69-2.7,2.71-2.01,4.51l8.31,21.68Z"/>
        <path class="cls-3" d="M768.23,208.57c.6,1.83,2.56,2.84,4.4,2.24l.2-.07c1.83-.6,2.84-2.56,2.24-4.4l-7.17-22.08c-.6-1.83-2.56-2.84-4.4-2.24l-.2.06c-1.83.6-2.84,2.56-2.24,4.4l7.17,22.09Z"/>
        <path class="cls-3" d="M779.16,252.86c.65,1.82,2.64,2.77,4.46,2.12l.2-.07c1.82-.65,2.77-2.64,2.12-4.46l-7.77-21.89c-.64-1.82-2.64-2.77-4.45-2.12l-.2.07c-1.82.64-2.77,2.64-2.12,4.45l7.76,21.89Z"/>
        <path class="cls-3" d="M781.82,300.66c.09,1.93,1.73,3.41,3.66,3.31h.21c1.93-.1,3.41-1.74,3.31-3.67l-1.15-23.2c-.1-1.92-1.73-3.41-3.66-3.31h-.21c-1.93.11-3.41,1.75-3.31,3.67l1.15,23.19Z"/>
        <path class="cls-3" d="M784.08,345.49c.09,1.92,1.72,3.41,3.65,3.32h.21c1.92-.1,3.41-1.73,3.32-3.66l-1.09-23.2c-.09-1.92-1.72-3.41-3.65-3.32h-.21c-1.92.1-3.41,1.73-3.32,3.66l1.09,23.2Z"/>
        <path class="cls-3" d="M780.93,389.34c-.34,1.9.91,3.71,2.81,4.06l.21.04c1.9.35,3.71-.91,4.06-2.81l4.15-22.85c.35-1.89-.91-3.71-2.81-4.06l-.21-.04c-1.9-.34-3.71.91-4.06,2.81l-4.15,22.85Z"/>
        <path class="cls-3" d="M775.01,439.22c-.4,1.88.8,3.74,2.69,4.14l.21.05c1.88.4,3.74-.8,4.14-2.69l4.82-22.72c.4-1.88-.8-3.74-2.69-4.14l-.21-.04c-1.88-.4-3.74.81-4.14,2.69l-4.82,22.72Z"/>
        <path class="cls-3" d="M754.78,482.07c-.92,1.69-.3,3.81,1.39,4.74l.19.1c1.69.93,3.81.3,4.74-1.39l11.14-20.37c.92-1.69.3-3.81-1.39-4.74l-.19-.1c-1.69-.92-3.81-.3-4.74,1.39l-11.14,20.37Z"/>
        <path class="cls-3" d="M736.33,520.13c-1.01,1.64-.5,3.79,1.14,4.8l.18.11c1.64,1.01,3.79.5,4.8-1.14l12.19-19.77c1.01-1.64.5-3.79-1.14-4.8l-.18-.11c-1.64-1.01-3.79-.5-4.8,1.14l-12.19,19.77Z"/>
        <path class="cls-3" d="M709.66,557.14c-.97,1.67-.4,3.8,1.27,4.77l.18.11c1.67.97,3.8.4,4.77-1.27l11.65-20.09c.97-1.67.4-3.8-1.27-4.77l-.18-.11c-1.67-.96-3.8-.4-4.77,1.27l-11.65,20.09Z"/>
        <path class="cls-3" d="M674.95,590.12c-1.41,1.32-1.48,3.53-.16,4.93l.14.15c1.32,1.41,3.53,1.47,4.93.16l16.93-15.89c1.4-1.32,1.47-3.53.15-4.93l-.14-.15c-1.32-1.4-3.53-1.47-4.93-.16l-16.93,15.89Z"/>
        <path class="cls-3" d="M663.05,88.08c1.33,1.39,3.54,1.44,4.93.11l.15-.15c1.39-1.33,1.44-3.54.11-4.93l-16.06-16.77c-1.33-1.39-3.54-1.44-4.93-.11l-.15.14c-1.39,1.34-1.44,3.54-.11,4.94l16.07,16.76Z"/>
        <path class="cls-3" d="M696.98,122.44c1.16,1.54,3.35,1.84,4.89.68l.17-.13c1.54-1.16,1.84-3.35.68-4.89l-13.99-18.53c-1.16-1.54-3.35-1.84-4.89-.68l-.17.13c-1.54,1.16-1.84,3.35-.68,4.89l14,18.53Z"/>
        <path class="cls-3" d="M719.89,158.25c.85,1.73,2.94,2.45,4.67,1.6l.19-.09c1.73-.85,2.45-2.94,1.6-4.67l-10.21-20.86c-.85-1.73-2.94-2.45-4.67-1.6l-.19.09c-1.73.85-2.45,2.94-1.6,4.67l10.21,20.86Z"/>
        <path class="cls-3" d="M740.02,196.36c.85,1.73,2.94,2.45,4.67,1.6l.19-.1c1.73-.84,2.45-2.93,1.6-4.67l-10.21-20.86c-.85-1.73-2.94-2.45-4.67-1.6l-.19.09c-1.73.85-2.45,2.94-1.6,4.67l10.21,20.86Z"/>
        <path class="cls-3" d="M751.79,236.77c.57,1.84,2.52,2.87,4.37,2.31l.2-.06c1.84-.57,2.88-2.52,2.31-4.36l-6.83-22.19c-.57-1.84-2.52-2.88-4.36-2.31l-.2.06c-1.84.57-2.88,2.52-2.31,4.36l6.83,22.19Z"/>
        <path class="cls-3" d="M757.27,278.05c.07,1.93,1.69,3.43,3.62,3.36h.21c1.93-.08,3.43-1.7,3.36-3.62l-.85-23.2c-.07-1.93-1.69-3.43-3.61-3.36h-.21c-1.93.08-3.43,1.7-3.36,3.62l.85,23.21Z"/>
        <path class="cls-3" d="M760.15,322.63c.07,1.93,1.69,3.43,3.62,3.36h.21c1.93-.08,3.43-1.7,3.36-3.62l-.85-23.2c-.07-1.93-1.69-3.43-3.62-3.36h-.21c-1.93.08-3.43,1.7-3.36,3.62l.86,23.21Z"/>
        <path class="cls-3" d="M760.96,366.45c-.28,1.91,1.04,3.68,2.95,3.96l.21.03c1.91.28,3.68-1.05,3.95-2.95l3.35-22.98c.28-1.91-1.04-3.68-2.95-3.96l-.21-.03c-1.91-.28-3.68,1.04-3.96,2.95l-3.34,22.98Z"/>
        <path class="cls-3" d="M755.21,411.75c-.28,1.91,1.05,3.68,2.95,3.96l.21.03c1.91.28,3.68-1.04,3.96-2.95l3.34-22.98c.28-1.91-1.04-3.68-2.95-3.95l-.21-.03c-1.91-.28-3.68,1.04-3.96,2.95l-3.35,22.98Z"/>
        <path class="cls-3" d="M744.75,453.82c-.6,1.83.39,3.8,2.22,4.41l.2.07c1.83.61,3.8-.39,4.41-2.22l7.29-22.05c.61-1.83-.39-3.8-2.22-4.41l-.2-.07c-1.83-.61-3.81.39-4.41,2.22l-7.29,22.05Z"/>
        <path class="cls-3" d="M725.78,493.88c-.66,1.81.28,3.81,2.09,4.47l.2.08c1.81.66,3.81-.28,4.47-2.09l7.91-21.83c.66-1.81-.28-3.81-2.09-4.47l-.2-.07c-1.81-.66-3.81.28-4.47,2.09l-7.91,21.83Z"/>
        <path class="cls-3" d="M703.95,529.01c-.85,1.73-.12,3.82,1.61,4.66l.19.09c1.73.84,3.82.12,4.66-1.61l10.16-20.88c.84-1.73.12-3.82-1.61-4.66l-.19-.09c-1.73-.84-3.82-.12-4.67,1.61l-10.15,20.88Z"/>
        <path class="cls-3" d="M675.4,565.03c-.66,1.81.26,3.81,2.07,4.48l.2.08c1.81.66,3.81-.26,4.48-2.07l8.02-21.79c.67-1.81-.26-3.81-2.07-4.48l-.2-.07c-1.81-.67-3.82.26-4.48,2.07l-8.01,21.79Z"/>
        <path class="cls-3" d="M649.95,601.36c-1.15,1.55-.83,3.73.71,4.88l.17.13c1.54,1.15,3.73.83,4.88-.71l13.88-18.62c1.15-1.54.83-3.73-.71-4.88l-.17-.13c-1.55-1.15-3.73-.83-4.88.71l-13.88,18.62Z"/>
        <path class="cls-3" d="M635.29,51.95c1.63,1.03,3.78.55,4.81-1.07l.12-.18c1.03-1.63.55-3.78-1.08-4.82l-19.61-12.44c-1.62-1.03-3.78-.55-4.81,1.08l-.11.18c-1.04,1.63-.55,3.78,1.08,4.82l19.61,12.44Z"/>
        <path class="cls-3" d="M614.01,27.86c1.8.68,3.81-.24,4.49-2.04l.07-.2c.68-1.8-.24-3.82-2.04-4.49l-21.74-8.17c-1.8-.68-3.81.23-4.49,2.04l-.07.2c-.68,1.8.23,3.82,2.04,4.49l21.74,8.17Z"/>
        <path class="cls-3" d="M631.54,69.17c1.53,1.18,3.72.89,4.89-.63l.13-.17c1.18-1.53.89-3.72-.63-4.9l-18.39-14.18c-1.52-1.18-3.72-.89-4.89.63l-.13.17c-1.17,1.52-.89,3.71.63,4.89l18.38,14.18Z"/>
        <path class="cls-3" d="M717.9,193.47c.6,1.83,2.56,2.84,4.4,2.24l.2-.07c1.83-.6,2.84-2.56,2.24-4.4l-7.18-22.09c-.6-1.83-2.56-2.84-4.39-2.24l-.2.06c-1.83.6-2.84,2.56-2.24,4.4l7.18,22.08Z"/>
        <path class="cls-3" d="M728.83,237.76c.64,1.82,2.64,2.77,4.45,2.12l.2-.07c1.81-.64,2.76-2.64,2.12-4.45l-7.77-21.89c-.64-1.82-2.64-2.77-4.46-2.12l-.2.07c-1.81.65-2.77,2.64-2.12,4.46l7.77,21.88Z"/>
        <path class="cls-3" d="M731.49,285.56c.1,1.92,1.74,3.41,3.66,3.31h.21c1.92-.11,3.41-1.74,3.31-3.67l-1.15-23.19c-.1-1.92-1.73-3.41-3.66-3.31h-.21c-1.92.11-3.41,1.74-3.31,3.67l1.15,23.19Z"/>
        <path class="cls-3" d="M733.75,330.39c.09,1.92,1.72,3.41,3.65,3.32h.21c1.93-.1,3.41-1.74,3.32-3.66l-1.09-23.2c-.09-1.92-1.72-3.41-3.65-3.32h-.21c-1.93.1-3.41,1.73-3.32,3.66l1.09,23.2Z"/>
        <path class="cls-3" d="M730.59,374.24c-.34,1.9.91,3.71,2.81,4.06l.21.04c1.9.35,3.71-.92,4.06-2.81l4.15-22.85c.35-1.9-.91-3.71-2.81-4.05l-.21-.04c-1.89-.34-3.71.91-4.06,2.81l-4.15,22.85Z"/>
        <path class="cls-3" d="M724.68,424.12c-.4,1.88.8,3.74,2.69,4.14l.21.04c1.89.4,3.74-.8,4.14-2.69l4.82-22.72c.4-1.88-.81-3.74-2.69-4.14l-.21-.04c-1.89-.4-3.74.8-4.14,2.69l-4.82,22.72Z"/>
        <path class="cls-3" d="M704.45,466.97c-.92,1.69-.31,3.81,1.38,4.74l.19.1c1.69.92,3.81.3,4.74-1.39l11.14-20.37c.93-1.69.3-3.81-1.39-4.74l-.19-.1c-1.69-.92-3.81-.3-4.73,1.39l-11.14,20.37Z"/>
        <path class="cls-3" d="M686,505.03c-1.01,1.64-.5,3.79,1.14,4.8l.18.11c1.64,1.01,3.79.5,4.8-1.14l12.19-19.77c1.01-1.64.5-3.79-1.14-4.8l-.18-.11c-1.64-1.01-3.79-.5-4.8,1.14l-12.19,19.77Z"/>
        <path class="cls-3" d="M659.32,542.04c-.97,1.67-.4,3.8,1.27,4.77l.18.11c1.67.97,3.8.4,4.77-1.27l11.65-20.09c.97-1.67.4-3.8-1.27-4.77l-.18-.11c-1.67-.97-3.8-.4-4.77,1.27l-11.65,20.09Z"/>
        <path class="cls-3" d="M637.62,579.51c-1.07,1.6-.63,3.77.96,4.84l.18.12c1.6,1.07,3.77.64,4.84-.97l12.88-19.32c1.07-1.6.64-3.77-.97-4.84l-.18-.12c-1.6-1.07-3.77-.64-4.84.96l-12.88,19.32Z"/>
        <path class="cls-3" d="M611.28,75.14c1.33,1.39,3.54,1.44,4.93.11l.15-.15c1.39-1.33,1.44-3.54.1-4.93l-16.06-16.77c-1.33-1.39-3.54-1.44-4.94-.1l-.15.14c-1.39,1.33-1.44,3.54-.11,4.93l16.07,16.77Z"/>
        <path class="cls-3" d="M646.64,107.34c1.16,1.54,3.35,1.84,4.89.68l.17-.13c1.54-1.16,1.84-3.35.68-4.89l-14-18.53c-1.16-1.54-3.35-1.84-4.89-.68l-.17.13c-1.54,1.16-1.84,3.35-.68,4.89l14,18.53Z"/>
        <path class="cls-3" d="M669.56,143.15c.85,1.73,2.94,2.45,4.67,1.6l.19-.09c1.73-.84,2.45-2.94,1.6-4.67l-10.21-20.86c-.85-1.73-2.94-2.45-4.67-1.6l-.19.09c-1.73.85-2.45,2.94-1.6,4.67l10.21,20.86Z"/>
        <path class="cls-3" d="M689.69,181.26c.85,1.73,2.94,2.44,4.67,1.6l.19-.09c1.73-.84,2.45-2.94,1.6-4.67l-10.21-20.86c-.85-1.73-2.94-2.45-4.67-1.6l-.19.09c-1.73.85-2.45,2.94-1.6,4.67l10.21,20.86Z"/>
        <path class="cls-3" d="M701.46,221.67c.57,1.84,2.52,2.87,4.36,2.31l.2-.06c1.84-.57,2.88-2.52,2.31-4.36l-6.83-22.19c-.57-1.84-2.52-2.88-4.36-2.31l-.2.06c-1.85.57-2.88,2.52-2.31,4.36l6.83,22.19Z"/>
        <path class="cls-3" d="M706.94,262.96c.07,1.93,1.69,3.43,3.62,3.36h.21c1.93-.08,3.43-1.7,3.36-3.62l-.85-23.21c-.07-1.93-1.69-3.43-3.62-3.36h-.21c-1.93.08-3.43,1.69-3.36,3.62l.86,23.21Z"/>
        <path class="cls-3" d="M709.81,307.53c.07,1.93,1.69,3.43,3.61,3.36h.21c1.93-.08,3.43-1.7,3.36-3.62l-.85-23.2c-.07-1.93-1.69-3.43-3.62-3.36h-.21c-1.93.08-3.43,1.7-3.36,3.62l.85,23.21Z"/>
        <path class="cls-3" d="M710.63,351.35c-.28,1.91,1.04,3.68,2.95,3.96l.21.03c1.91.28,3.67-1.05,3.95-2.95l3.35-22.98c.28-1.91-1.04-3.68-2.95-3.96l-.21-.03c-1.91-.28-3.68,1.04-3.96,2.95l-3.34,22.98Z"/>
        <path class="cls-3" d="M704.88,396.65c-.28,1.91,1.05,3.68,2.95,3.96l.21.03c1.91.28,3.68-1.04,3.95-2.95l3.35-22.98c.28-1.91-1.05-3.68-2.95-3.96l-.21-.03c-1.91-.28-3.68,1.04-3.96,2.95l-3.34,22.98Z"/>
        <path class="cls-3" d="M694.42,438.72c-.6,1.83.39,3.8,2.22,4.41l.2.07c1.83.61,3.8-.39,4.41-2.22l7.29-22.05c.61-1.83-.39-3.8-2.22-4.41l-.2-.07c-1.83-.61-3.8.39-4.41,2.22l-7.29,22.05Z"/>
        <path class="cls-3" d="M675.45,478.78c-.66,1.81.28,3.81,2.09,4.47l.2.08c1.81.66,3.81-.28,4.47-2.1l7.91-21.83c.66-1.81-.28-3.81-2.09-4.47l-.2-.07c-1.81-.66-3.81.28-4.47,2.09l-7.91,21.83Z"/>
        <path class="cls-3" d="M653.62,513.91c-.84,1.74-.12,3.82,1.61,4.66l.19.09c1.73.84,3.82.12,4.66-1.61l10.16-20.88c.84-1.73.12-3.82-1.61-4.66l-.19-.09c-1.73-.84-3.82-.12-4.66,1.61l-10.16,20.88Z"/>
        <path class="cls-3" d="M627.22,560c-.67,1.81.26,3.81,2.07,4.48l.2.07c1.81.67,3.81-.26,4.48-2.07l8.01-21.79c.67-1.81-.26-3.81-2.07-4.48l-.2-.07c-1.81-.66-3.81.26-4.48,2.07l-8.01,21.8Z"/>
        <path class="cls-3" d="M623.08,614.97c-.91,1.7-.27,3.81,1.43,4.72l.19.1c1.7.91,3.81.27,4.72-1.43l10.95-20.48c.91-1.7.27-3.81-1.43-4.72l-.19-.1c-1.7-.91-3.81-.27-4.72,1.43l-10.95,20.48Z"/>
        <path class="cls-3" d="M594.31,43.32c1.63,1.03,3.79.55,4.82-1.08l.11-.18c1.03-1.63.55-3.78-1.08-4.82l-19.61-12.44c-1.63-1.03-3.79-.55-4.82,1.08l-.11.18c-1.03,1.63-.55,3.79,1.07,4.82l19.61,12.44Z"/>
        <path class="cls-3" d="M683.93,135.11c.95,1.68,3.08,2.27,4.76,1.32l.19-.1c1.68-.95,2.27-3.08,1.32-4.75l-11.43-20.21c-.95-1.68-3.08-2.27-4.75-1.32l-.19.1c-1.68.95-2.27,3.08-1.32,4.75l11.43,20.21Z"/>
        <path class="cls-3" d="M607.4,596.18c-.61,1.83.38,3.8,2.21,4.41l.2.07c1.83.61,3.8-.39,4.41-2.21l7.32-22.04c.61-1.83-.38-3.81-2.21-4.41l-.2-.07c-1.83-.61-3.81.38-4.41,2.21l-7.32,22.04Z"/>
        <path class="cls-3" d="M584.39,619.91c-.61,1.83.38,3.8,2.21,4.41l.2.07c1.83.61,3.8-.38,4.41-2.21l7.32-22.04c.61-1.83-.38-3.8-2.21-4.41l-.2-.07c-1.83-.61-3.8.38-4.41,2.21l-7.32,22.04Z"/>
        <path class="cls-3" d="M618.6,103.74c1.16,1.54,3.35,1.84,4.89.68l.17-.13c1.54-1.16,1.84-3.35.68-4.89l-14-18.53c-1.16-1.54-3.35-1.84-4.88-.68l-.17.12c-1.54,1.16-1.84,3.35-.68,4.89l14,18.53Z"/>
        <path class="cls-3" d="M646.55,136.68c.85,1.73,2.94,2.45,4.67,1.6l.19-.09c1.73-.85,2.45-2.94,1.6-4.67l-10.21-20.86c-.85-1.73-2.94-2.45-4.67-1.6l-.19.09c-1.73.85-2.45,2.94-1.6,4.67l10.21,20.86Z"/>
        <path class="cls-3" d="M666.68,174.79c.85,1.73,2.94,2.45,4.67,1.6l.19-.09c1.73-.85,2.45-2.94,1.6-4.67l-10.21-20.86c-.85-1.73-2.94-2.45-4.67-1.6l-.19.09c-1.73.85-2.45,2.94-1.6,4.67l10.21,20.86Z"/>
        <path class="cls-3" d="M678.45,215.2c.57,1.84,2.52,2.88,4.36,2.31l.2-.06c1.84-.57,2.88-2.52,2.31-4.36l-6.83-22.19c-.56-1.84-2.52-2.88-4.36-2.31l-.2.06c-1.84.57-2.88,2.52-2.31,4.36l6.83,22.19Z"/>
        <path class="cls-3" d="M683.93,256.48c.07,1.93,1.69,3.43,3.61,3.36h.21c1.93-.08,3.43-1.7,3.36-3.62l-.85-23.21c-.07-1.92-1.69-3.43-3.62-3.36h-.21c-1.93.08-3.43,1.7-3.36,3.62l.85,23.21Z"/>
        <path class="cls-3" d="M686.81,301.06c.07,1.93,1.69,3.43,3.62,3.36h.21c1.93-.08,3.43-1.7,3.36-3.62l-.85-23.2c-.07-1.93-1.69-3.43-3.62-3.36h-.21c-1.93.08-3.43,1.7-3.36,3.62l.85,23.21Z"/>
        <path class="cls-3" d="M687.62,344.88c-.28,1.91,1.04,3.68,2.95,3.96l.21.03c1.91.28,3.68-1.04,3.95-2.95l3.34-22.98c.28-1.91-1.04-3.68-2.95-3.96l-.21-.03c-1.91-.28-3.68,1.04-3.96,2.95l-3.34,22.98Z"/>
        <path class="cls-3" d="M684.02,393.78c-.28,1.91,1.04,3.68,2.95,3.96l.21.03c1.91.28,3.68-1.04,3.95-2.95l3.35-22.98c.28-1.91-1.04-3.68-2.95-3.95l-.21-.03c-1.91-.28-3.68,1.04-3.96,2.95l-3.34,22.98Z"/>
        <path class="cls-3" d="M671.41,440.16c-.61,1.83.39,3.8,2.22,4.41l.2.07c1.83.61,3.8-.39,4.41-2.22l7.29-22.05c.61-1.83-.39-3.8-2.22-4.41l-.2-.07c-1.83-.6-3.81.39-4.41,2.22l-7.29,22.05Z"/>
        <path class="cls-3" d="M649.56,480.94c-.66,1.81.28,3.81,2.09,4.47l.2.07c1.81.66,3.81-.28,4.47-2.09l7.91-21.83c.66-1.81-.28-3.81-2.09-4.47l-.2-.07c-1.81-.66-3.81.28-4.47,2.09l-7.91,21.83Z"/>
        <path class="cls-3" d="M628.45,524.7c-.84,1.74-.12,3.82,1.61,4.66l.19.09c1.73.84,3.82.12,4.66-1.61l10.16-20.88c.84-1.73.12-3.82-1.61-4.66l-.19-.09c-1.73-.85-3.82-.12-4.67,1.61l-10.16,20.88Z"/>
        <path class="cls-3" d="M585.53,69.95c1.16,1.54,3.35,1.84,4.89.68l.17-.13c1.54-1.16,1.84-3.35.68-4.89l-14-18.53c-1.16-1.54-3.35-1.84-4.88-.68l-.17.12c-1.54,1.16-1.84,3.35-.68,4.89l14,18.53Z"/>
        <path class="cls-3" d="M600,564.56c-.92,1.69-.3,3.81,1.39,4.74l.19.1c1.69.92,3.81.3,4.73-1.39l11.12-20.38c.92-1.69.3-3.81-1.39-4.73l-.19-.1c-1.69-.92-3.81-.3-4.73,1.39l-11.12,20.39Z"/>
        <path class="cls-3" d="M599.19,629.87c-.8,1.75-.03,3.82,1.72,4.62l.19.09c1.75.8,3.82.03,4.62-1.72l9.66-21.12c.8-1.75.03-3.82-1.72-4.62l-.19-.09c-1.75-.8-3.82-.03-4.63,1.72l-9.65,21.12Z"/>
        <path class="cls-3" d="M445.67,144.01c-.6,1.84-2.56,2.84-4.4,2.24l-.2-.07c-1.83-.59-2.84-2.56-2.24-4.4l7.18-22.08c.59-1.83,2.56-2.84,4.4-2.24l.2.06c1.83.6,2.83,2.56,2.24,4.4l-7.18,22.08Z"/>
        <path class="cls-3" d="M427.55,187.87c-.51,1.86-2.43,2.95-4.29,2.44l-.21-.05c-1.86-.51-2.95-2.43-2.44-4.29l6.14-22.4c.51-1.86,2.43-2.95,4.29-2.44l.21.05c1.86.51,2.95,2.43,2.44,4.29l-6.14,22.4Z"/>
        <path class="cls-3" d="M416.44,232.97c-.22,1.92-1.95,3.29-3.87,3.06l-.21-.03c-1.91-.22-3.28-1.95-3.06-3.87l2.68-23.07c.22-1.91,1.95-3.29,3.87-3.06l.21.02c1.92.22,3.29,1.95,3.07,3.87l-2.68,23.07Z"/>
        <path class="cls-3" d="M403.67,318.84c.04,1.93-1.49,3.52-3.41,3.56h-.21c-1.93.05-3.52-1.48-3.56-3.41l-.5-23.22c-.04-1.93,1.49-3.52,3.42-3.56h.21c1.93-.05,3.52,1.48,3.56,3.41l.49,23.22Z"/>
        <path class="cls-3" d="M406.29,370.86c.24,1.91-1.11,3.66-3.02,3.9l-.21.03c-1.91.25-3.66-1.11-3.9-3.02l-2.93-23.04c-.24-1.91,1.11-3.66,3.02-3.9l.21-.03c1.91-.24,3.66,1.11,3.9,3.02l2.93,23.04Z"/>
        <path class="cls-3" d="M413.66,413.83c.53,1.85-.54,3.78-2.39,4.31l-.21.06c-1.85.53-3.78-.54-4.31-2.4l-6.38-22.33c-.53-1.85.54-3.78,2.4-4.31l.2-.06c1.86-.53,3.79.54,4.32,2.39l6.38,22.33Z"/>
        <path class="cls-3" d="M407.98,275.69c.04,1.93-1.49,3.52-3.41,3.56h-.21c-1.93.05-3.52-1.48-3.56-3.41l-.5-23.22c-.04-1.92,1.49-3.52,3.41-3.56h.21c1.93-.05,3.52,1.48,3.56,3.41l.49,23.21Z"/>
        <path class="cls-3" d="M432.57,449.21c.84,1.73.12,3.82-1.62,4.66l-.19.09c-1.73.84-3.82.12-4.66-1.62l-10.13-20.89c-.84-1.73-.12-3.82,1.62-4.66l.19-.09c1.73-.84,3.82-.12,4.66,1.62l10.13,20.9Z"/>
        <path class="cls-3" d="M512.38,635.89c.06,1.93-1.45,3.54-3.37,3.6h-.21c-1.93.07-3.54-1.44-3.61-3.36l-.77-23.21c-.07-1.92,1.44-3.54,3.37-3.6h.21c1.93-.07,3.54,1.44,3.61,3.36l.77,23.21Z"/>
        <path class="cls-3" d="M535.62,637.67c.22,1.91-1.14,3.65-3.06,3.88l-.21.02c-1.91.23-3.65-1.14-3.88-3.05l-2.72-23.06c-.23-1.91,1.14-3.65,3.05-3.87l.21-.03c1.91-.23,3.65,1.14,3.88,3.05l2.72,23.06Z"/>
        <path class="cls-3" d="M569.39,635.89c-.06,1.93,1.45,3.54,3.37,3.6h.21c1.93.07,3.54-1.44,3.6-3.36l.77-23.21c.07-1.92-1.44-3.54-3.37-3.6h-.21c-1.92-.07-3.54,1.44-3.6,3.36l-.77,23.21Z"/>
        <path class="cls-3" d="M546.15,637.67c-.22,1.91,1.14,3.65,3.06,3.88l.21.02c1.91.23,3.65-1.14,3.88-3.05l2.72-23.06c.23-1.91-1.14-3.65-3.06-3.87l-.21-.03c-1.91-.23-3.65,1.14-3.88,3.05l-2.72,23.06Z"/>
        <path class="cls-3" d="M476.54,113.06c-.71,1.79-2.74,2.66-4.53,1.96l-.2-.08c-1.79-.71-2.67-2.74-1.96-4.53l8.57-21.58c.71-1.79,2.74-2.67,4.53-1.95l.2.08c1.79.71,2.67,2.74,1.96,4.53l-8.57,21.58Z"/>
        <path class="cls-3" d="M461.82,158.36c-.44,1.88-2.31,3.05-4.19,2.61l-.21-.05c-1.88-.43-3.05-2.31-2.61-4.19l5.25-22.62c.44-1.88,2.31-3.04,4.19-2.61l.21.05c1.88.44,3.04,2.31,2.61,4.19l-5.25,22.62Z"/>
        <path class="cls-3" d="M445.45,194.93c-.45,1.87-2.33,3.03-4.2,2.58l-.21-.05c-1.88-.45-3.03-2.33-2.58-4.2l5.4-22.59c.45-1.87,2.33-3.03,4.2-2.58l.21.05c1.87.45,3.03,2.33,2.58,4.2l-5.4,22.59Z"/>
        <path class="cls-3" d="M437.36,241.87c-.16,1.92-1.85,3.34-3.77,3.18l-.21-.02c-1.92-.16-3.35-1.85-3.18-3.77l1.96-23.14c.16-1.92,1.85-3.34,3.77-3.18l.21.02c1.92.17,3.35,1.85,3.19,3.77l-1.96,23.14Z"/>
        <path class="cls-3" d="M428.53,288.72c-.27,1.91-2.04,3.23-3.95,2.96l-.21-.03c-1.91-.27-3.23-2.04-2.96-3.95l3.28-22.99c.27-1.91,2.04-3.23,3.95-2.96l.21.03c1.91.27,3.24,2.04,2.96,3.95l-3.28,22.99Z"/>
        <path class="cls-3" d="M424.84,335.61c.02,1.93-1.53,2.92-3.46,2.92h-.21c-1.93,0-3.51-.94-3.52-2.86l-.2-22.92c-.02-1.93,1.53-3.36,3.46-3.37l.21.07c1.93-.01,3.5,1.27,3.52,3.2l.2,22.96Z"/>
        <path class="cls-3" d="M436.56,372.48c.31,1.9-.97,3.7-2.87,4.01l-.21.04c-1.9.32-3.7-.97-4.01-2.87l-3.8-22.91c-.32-1.9.97-3.7,2.87-4.01l.21-.03c1.9-.32,3.7.97,4.01,2.87l3.8,22.91Z"/>
        <path class="cls-3" d="M435.41,412.53c.31,1.9-.99,3.69-2.89,3.99l-.21.03c-1.9.31-3.69-.99-4-2.9l-3.65-22.93c-.3-1.9.99-3.69,2.9-4l.21-.03c1.9-.3,3.69,1,4,2.9l3.65,22.93Z"/>
        <path class="cls-3" d="M449.49,457.56c.59,1.84-.43,3.8-2.27,4.38l-.2.06c-1.84.59-3.8-.43-4.38-2.27l-7.04-22.13c-.58-1.84.43-3.8,2.27-4.38l.2-.06c1.84-.58,3.8.43,4.38,2.27l7.04,22.13Z"/>
        <path class="cls-3" d="M454.22,501.35c.48,1.87-.65,3.77-2.51,4.25l-.21.05c-1.87.48-3.77-.65-4.24-2.51l-5.77-22.5c-.48-1.87.64-3.77,2.51-4.25l.21-.05c1.87-.48,3.77.65,4.25,2.51l5.76,22.5Z"/>
        <path class="cls-3" d="M477.6,543.05c.75,1.77-.08,3.82-1.85,4.57l-.2.08c-1.78.75-3.82-.08-4.57-1.85l-9.06-21.38c-.75-1.77.08-3.82,1.85-4.57l.2-.08c1.77-.75,3.82.08,4.57,1.85l9.06,21.38Z"/>
        <path class="cls-3" d="M531.1,400.58c-.25,1.91-2,3.26-3.91,3.01l-.21-.03c-1.91-.25-3.26-2-3.01-3.91l3.01-23.03c.25-1.91,2-3.26,3.91-3.01l.21.03c1.91.25,3.26,2,3.01,3.91l-3.01,23.03Z"/>
        <path class="cls-3" d="M509.04,433.54c-.26,1.91-2.02,3.25-3.93,2.98l-.21-.03c-1.91-.26-3.24-2.02-2.98-3.93l3.16-23.01c.26-1.91,2.02-3.25,3.93-2.98l.21.03c1.91.26,3.25,2.02,2.99,3.93l-3.16,23.01Z"/>
        <path class="cls-3" d="M512.06,491.83c.03,1.93-1.52,3.51-3.44,3.54h-.21c-1.93.03-3.51-1.51-3.54-3.44l-.32-23.22c-.02-1.93,1.52-3.51,3.45-3.54h.21c1.93-.03,3.51,1.51,3.54,3.44l.32,23.22Z"/>
        <path class="cls-3" d="M507.87,539.32c-.08,1.93-1.71,3.42-3.64,3.34h-.21c-1.93-.09-3.42-1.72-3.33-3.65l1.01-23.2c.08-1.92,1.71-3.42,3.63-3.33h.21c1.92.09,3.42,1.72,3.34,3.65l-1.01,23.2Z"/>
        <path class="cls-3" d="M508.85,586.95c.2,1.92-1.18,3.64-3.1,3.84l-.21.02c-1.92.21-3.64-1.18-3.84-3.1l-2.47-23.09c-.2-1.92,1.18-3.64,3.1-3.84l.21-.02c1.92-.2,3.64,1.18,3.84,3.1l2.47,23.09Z"/>
        <path class="cls-3" d="M506.85,370.02c-.19,1.92-1.89,3.32-3.81,3.14l-.21-.02c-1.92-.18-3.32-1.89-3.14-3.81l2.23-23.12c.18-1.92,1.89-3.32,3.81-3.14l.21.02c1.92.19,3.32,1.89,3.14,3.81l-2.22,23.11Z"/>
        <path class="cls-3" d="M495.44,408.42c-.2,1.92-1.91,3.31-3.83,3.11l-.21-.02c-1.92-.19-3.31-1.91-3.12-3.83l2.38-23.1c.2-1.92,1.91-3.31,3.83-3.11l.21.02c1.92.2,3.31,1.91,3.12,3.83l-2.38,23.1Z"/>
        <path class="cls-3" d="M493.6,456.02c.09,1.93-1.4,3.56-3.32,3.65h-.21c-1.92.1-3.56-1.39-3.65-3.31l-1.1-23.19c-.09-1.93,1.39-3.56,3.32-3.65h.21c1.93-.1,3.56,1.38,3.65,3.31l1.11,23.2Z"/>
        <path class="cls-3" d="M491.01,503.63c-.02,1.93-1.6,3.47-3.52,3.46h-.21c-1.93-.02-3.48-1.6-3.46-3.52l.22-22.89c.02-1.92,1.59-3.13,3.52-3.13h.21c1.93,0,3.47,1.27,3.46,3.2l-.22,22.89Z"/>
        <path class="cls-3" d="M493.6,551.19c.27,1.91-1.06,3.67-2.97,3.94l-.21.03c-1.91.27-3.67-1.06-3.94-2.96l-3.25-22.99c-.27-1.91,1.06-3.67,2.97-3.94l.21-.03c1.91-.27,3.68,1.06,3.94,2.96l3.25,22.99Z"/>
        <path class="cls-3" d="M482.96,335.21c-.11,1.93-1.76,3.39-3.68,3.28h-.21c-1.93-.12-3.39-1.77-3.28-3.7l1.34-23.18c.11-1.92,1.76-3.39,3.68-3.28h.21c1.92.12,3.39,1.77,3.28,3.7l-1.34,23.18Z"/>
        <path class="cls-3" d="M475.9,383.37c-.12,1.92-1.78,3.38-3.71,3.26h-.21c-1.92-.13-3.38-1.8-3.26-3.72l1.49-23.17c.12-1.92,1.78-3.38,3.71-3.26h.21c1.92.14,3.38,1.79,3.26,3.72l-1.49,23.17Z"/>
        <path class="cls-3" d="M478.77,438.92c.17,1.92-1.26,3.61-3.18,3.77l-.21.02c-1.92.17-3.61-1.26-3.78-3.18l-1.99-23.14c-.17-1.92,1.26-3.61,3.18-3.78l.21-.02c1.92-.17,3.61,1.26,3.78,3.18l1.99,23.14Z"/>
        <path class="cls-3" d="M467.22,476.52c.06,1.93-1.46,3.53-3.39,3.59h-.21c-1.93.06-3.53-1.46-3.59-3.38l-.67-23.21c-.06-1.93,1.46-3.53,3.39-3.59h.21c1.93-.06,3.54,1.45,3.59,3.38l.67,23.21Z"/>
        <path class="cls-3" d="M479.55,504.53c.34,1.9-.92,3.71-2.81,4.06l-.21.04c-1.9.34-3.71-.92-4.05-2.81l-4.13-22.85c-.35-1.9.91-3.71,2.81-4.05l.21-.04c1.89-.34,3.71.92,4.05,2.81l4.13,22.85Z"/>
        <path class="cls-3" d="M467.48,231.15c-.17,1.92-1.87,3.33-3.79,3.17l-.21-.02c-1.92-.17-3.34-1.86-3.16-3.78l2.07-23.13c.17-1.92,1.87-3.34,3.79-3.16l.21.02c1.92.17,3.34,1.87,3.16,3.79l-2.07,23.13Z"/>
        <path class="cls-3" d="M456.33,269.63c-.18,1.92-1.89,3.33-3.81,3.14l-.21-.02c-1.92-.18-3.32-1.89-3.14-3.8l2.22-23.12c.18-1.92,1.89-3.32,3.81-3.14l.21.02c1.92.18,3.32,1.89,3.14,3.81l-2.22,23.11Z"/>
        <path class="cls-3" d="M443.31,317.24c.11,1.93-1.37,3.57-3.29,3.67h-.21c-1.92.12-3.57-1.36-3.67-3.28l-1.26-23.19c-.11-1.92,1.37-3.57,3.29-3.67h.21c1.93-.12,3.57,1.36,3.68,3.28l1.26,23.19Z"/>
        <path class="cls-3" d="M456.87,366.3c0,1.92-1.57,3.48-3.5,3.48h-.21c-1.93,0-3.48-1.57-3.48-3.5l.06-23.74c0-1.93,1.57-4,3.5-4h.21c1.93,0,3.49,2.09,3.48,4.02l-.06,23.74Z"/>
        <path class="cls-3" d="M459.06,423.91c.28,1.91-1.04,3.68-2.94,3.96l-.21.03c-1.91.29-3.68-1.03-3.96-2.94l-3.41-22.97c-.29-1.91,1.03-3.68,2.94-3.96l.21-.03c1.91-.28,3.68,1.03,3.96,2.94l3.41,22.97Z"/>
        <path class="cls-3" d="M511.6,143.01c-.48,1.87-2.38,3-4.24,2.52l-.21-.05c-1.87-.48-3-2.37-2.52-4.24l5.72-22.51c.47-1.87,2.37-3,4.24-2.52l.21.05c1.87.48,2.99,2.38,2.52,4.24l-5.72,22.5Z"/>
        <path class="cls-3" d="M494.47,179.23c-.49,1.87-2.39,2.98-4.25,2.5l-.21-.05c-1.87-.48-2.98-2.39-2.49-4.26l5.86-22.47c.49-1.86,2.39-2.98,4.26-2.49l.21.05c1.87.49,2.98,2.39,2.5,4.26l-5.87,22.47Z"/>
        <path class="cls-3" d="M485.41,226c-.2,1.92-1.92,3.3-3.84,3.1l-.21-.02c-1.92-.2-3.31-1.92-3.1-3.84l2.44-23.09c.21-1.92,1.92-3.31,3.84-3.1l.21.02c1.92.2,3.31,1.92,3.1,3.84l-2.44,23.09Z"/>
        <path class="cls-3" d="M480.63,272.65c-.31,1.9-2.11,3.19-4.01,2.88l-.21-.04c-1.9-.31-3.19-2.1-2.88-4l3.76-22.92c.31-1.9,2.1-3.19,4.01-2.88l.21.03c1.9.31,3.19,2.11,2.88,4.01l-3.76,22.92Z"/>
        <path class="cls-3" d="M467.32,320.05c-.03,1.93-1.61,3.47-3.53,3.45h-.21c-1.93-.03-3.47-1.61-3.45-3.54l.29-23.6c.02-1.93,1.61-3.83,3.53-3.83h.21c1.93,0,3.47,1.99,3.45,3.92l-.29,23.6Z"/>
        <path class="cls-3" d="M515.8,63.08c-.77,1.77-2.82,2.58-4.59,1.81l-.2-.09c-1.77-.77-2.57-2.82-1.8-4.59l9.27-21.29c.77-1.76,2.82-2.58,4.59-1.8l.19.08c1.77.77,2.58,2.83,1.81,4.59l-9.27,21.29Z"/>
        <path class="cls-3" d="M502.49,98.54c-.5,1.86-2.41,2.97-4.27,2.47l-.21-.05c-1.86-.5-2.97-2.41-2.47-4.27l5.98-22.44c.5-1.86,2.41-2.97,4.27-2.47l.2.05c1.86.5,2.97,2.41,2.47,4.27l-5.99,22.44Z"/>
        <path class="cls-3" d="M485.58,143.11c-.6,1.83-2.57,2.83-4.4,2.22l-.2-.07c-1.83-.6-2.83-2.57-2.22-4.4l7.26-22.06c.6-1.83,2.57-2.83,4.4-2.22l.2.06c1.83.6,2.83,2.58,2.22,4.4l-7.26,22.06Z"/>
        <path class="cls-3" d="M473.62,189.22c-.32,1.9-2.12,3.18-4.02,2.86l-.21-.04c-1.9-.32-3.18-2.12-2.86-4.02l3.88-22.9c.32-1.9,2.12-3.18,4.02-2.86l.21.03c1.9.32,3.18,2.12,2.86,4.02l-3.88,22.9Z"/>
        <path class="cls-3" d="M540.25,111.09c-.44,1.88-2.31,3.04-4.19,2.61l-.21-.05c-1.88-.44-3.05-2.31-2.61-4.19l5.27-22.62c.44-1.88,2.31-3.05,4.19-2.61l.2.05c1.88.44,3.05,2.31,2.61,4.19l-5.27,22.61Z"/>
        <path class="cls-3" d="M528.88,151.95c-.45,1.88-2.33,3.03-4.21,2.58l-.21-.05c-1.87-.45-3.03-2.33-2.58-4.21l5.42-22.58c.45-1.87,2.33-3.03,4.21-2.58l.21.05c1.88.45,3.03,2.33,2.58,4.21l-5.42,22.58Z"/>
        <path class="cls-3" d="M509.97,196.73c-.16,1.92-1.86,3.34-3.77,3.18l-.21-.02c-1.92-.16-3.34-1.85-3.18-3.77l1.98-23.14c.16-1.92,1.85-3.34,3.77-3.18l.21.02c1.92.17,3.35,1.86,3.18,3.77l-1.98,23.14Z"/>
        <path class="cls-3" d="M506.13,246.45c-.27,1.91-2.04,3.23-3.95,2.96l-.21-.03c-1.91-.27-3.23-2.04-2.96-3.95l3.3-22.99c.28-1.91,2.04-3.23,3.95-2.96l.21.03c1.91.27,3.23,2.04,2.96,3.95l-3.3,22.99Z"/>
        <path class="cls-3" d="M503.11,288.46c.01,1.93-1.54,3.08-3.46,3.08h-.21c-1.93,0-3.5-1.09-3.52-3.02l-.18-23c-.02-1.93,1.54-3.39,3.46-3.4l.21.05c1.93-.02,3.5,1.34,3.52,3.27l.18,23.03Z"/>
        <path class="cls-3" d="M559.61,195.03c-.44,1.88-2.31,3.04-4.19,2.61l-.21-.05c-1.88-.43-3.04-2.31-2.61-4.19l5.25-22.62c.43-1.88,2.31-3.05,4.19-2.61l.21.05c1.88.44,3.05,2.31,2.61,4.19l-5.25,22.62Z"/>
        <path class="cls-3" d="M543.24,231.6c-.45,1.88-2.33,3.03-4.21,2.58l-.21-.05c-1.88-.44-3.03-2.33-2.58-4.2l5.4-22.59c.45-1.87,2.33-3.03,4.2-2.58l.21.05c1.88.45,3.03,2.33,2.58,4.2l-5.39,22.59Z"/>
        <path class="cls-3" d="M535.15,278.54c-.16,1.92-1.85,3.35-3.77,3.18l-.21-.02c-1.92-.16-3.34-1.85-3.18-3.77l1.96-23.14c.16-1.92,1.85-3.34,3.77-3.18l.21.02c1.92.16,3.35,1.85,3.18,3.77l-1.96,23.14Z"/>
        <path class="cls-3" d="M526.32,325.39c-.27,1.91-2.04,3.23-3.95,2.96l-.21-.03c-1.91-.27-3.23-2.04-2.96-3.95l3.28-22.99c.27-1.91,2.04-3.23,3.95-2.96l.21.03c1.91.27,3.23,2.04,2.96,3.95l-3.28,22.99Z"/>
        <path class="cls-3" d="M516.04,388.37c-.24,1.92-1.98,3.27-3.89,3.04l-.21-.03c-1.91-.23-3.27-1.98-3.03-3.89l2.86-23.05c.24-1.91,1.98-3.27,3.89-3.03l.21.02c1.91.24,3.27,1.98,3.03,3.89l-2.86,23.04Z"/>
        <path class="cls-3" d="M557.45,129.6c-.44,1.88-2.31,3.04-4.19,2.61l-.21-.05c-1.88-.43-3.05-2.31-2.61-4.19l5.25-22.62c.44-1.88,2.31-3.05,4.19-2.61l.21.05c1.88.44,3.04,2.31,2.61,4.19l-5.25,22.62Z"/>
        <path class="cls-3" d="M542.52,166.89c-.45,1.88-2.33,3.03-4.21,2.58l-.21-.05c-1.88-.45-3.03-2.33-2.58-4.2l5.4-22.59c.45-1.87,2.33-3.03,4.2-2.58l.21.05c1.88.45,3.03,2.33,2.59,4.2l-5.4,22.59Z"/>
        <path class="cls-3" d="M528.68,211.67c-.16,1.92-1.85,3.34-3.77,3.18l-.21-.02c-1.92-.16-3.34-1.85-3.18-3.77l1.96-23.14c.16-1.92,1.85-3.35,3.77-3.18l.21.02c1.92.17,3.35,1.85,3.18,3.77l-1.96,23.14Z"/>
        <path class="cls-3" d="M519.85,258.52c-.27,1.91-2.04,3.23-3.95,2.96l-.21-.03c-1.91-.27-3.23-2.04-2.96-3.95l3.28-22.99c.27-1.91,2.04-3.23,3.95-2.96l.21.03c1.91.27,3.23,2.04,2.96,3.95l-3.28,22.99Z"/>
        <path class="cls-3" d="M502.68,320.91c-.74,1.78-2.79,2.62-4.56,1.88l-.2-.08c-1.78-.74-2.62-2.78-1.88-4.56l8.95-21.43c.74-1.78,2.79-2.62,4.56-1.88l.2.08c1.78.74,2.62,2.78,1.88,4.56l-8.95,21.43Z"/>
        <path class="cls-3" d="M580.98,564.45c.44-1.88,2.31-3.04,4.19-2.61l.21.05c1.88.43,3.05,2.31,2.61,4.19l-5.25,22.62c-.43,1.88-2.31,3.05-4.19,2.61l-.21-.05c-1.88-.44-3.04-2.31-2.61-4.19l5.25-22.62Z"/>
        <path class="cls-3" d="M597.36,527.88c.45-1.88,2.33-3.03,4.2-2.58l.21.05c1.88.45,3.03,2.33,2.58,4.2l-5.39,22.59c-.45,1.87-2.33,3.03-4.21,2.58l-.21-.05c-1.87-.45-3.03-2.33-2.58-4.2l5.4-22.59Z"/>
        <path class="cls-3" d="M605.44,480.94c.16-1.92,1.85-3.34,3.77-3.18l.21.02c1.92.16,3.35,1.85,3.18,3.77l-1.96,23.14c-.16,1.92-1.85,3.34-3.77,3.18l-.21-.02c-1.92-.16-3.35-1.85-3.18-3.77l1.96-23.14Z"/>
        <path class="cls-3" d="M614.27,434.09c.27-1.91,2.04-3.23,3.95-2.96l.21.03c1.91.27,3.23,2.04,2.96,3.95l-3.28,22.99c-.27,1.91-2.04,3.23-3.95,2.96l-.21-.03c-1.91-.27-3.24-2.04-2.96-3.94l3.28-22.99Z"/>
        <path class="cls-3" d="M617.96,386.83c-.02-1.93,1.53-3.29,3.46-3.29h.21c1.93,0,3.5,1.3,3.52,3.23l.2,23.11c.02,1.93-1.53,3.44-3.46,3.46l-.21-.03c-1.93.02-3.5-1.43-3.52-3.36l-.2-23.12Z"/>
        <path class="cls-3" d="M627.72,477.45c.44-1.88,2.31-3.05,4.19-2.61l.21.05c1.88.43,3.04,2.31,2.61,4.19l-5.25,22.62c-.44,1.88-2.31,3.05-4.19,2.61l-.21-.05c-1.88-.44-3.05-2.31-2.61-4.19l5.25-22.62Z"/>
        <path class="cls-3" d="M644.09,440.88c.45-1.88,2.33-3.03,4.2-2.59l.21.05c1.88.44,3.03,2.33,2.58,4.2l-5.4,22.59c-.45,1.87-2.33,3.03-4.2,2.58l-.21-.05c-1.88-.45-3.03-2.33-2.59-4.2l5.4-22.58Z"/>
        <path class="cls-3" d="M659.37,396.09c.16-1.92,1.85-3.34,3.77-3.18l.21.02c1.92.16,3.34,1.85,3.18,3.77l-1.96,23.14c-.16,1.92-1.85,3.35-3.77,3.18l-.21-.02c-1.92-.16-3.35-1.85-3.18-3.77l1.96-23.14Z"/>
        <path class="cls-3" d="M661.01,347.09c.27-1.91,2.04-3.23,3.94-2.96l.21.03c1.91.27,3.23,2.04,2.96,3.94l-3.28,22.99c-.27,1.91-2.04,3.23-3.95,2.96l-.21-.03c-1.91-.27-3.23-2.04-2.96-3.94l3.28-22.99Z"/>
        <path class="cls-3" d="M664.7,299.33c-.02-1.93,1.54-3.79,3.46-3.79h.21c1.93,0,3.5,1.8,3.52,3.73l.2,23.36c.02,1.92-1.53,3.57-3.46,3.58l-.21.04c-1.93.01-3.5-1.65-3.52-3.58l-.2-23.34Z"/>
        <path class="cls-3" d="M633.53,402.87c.09-1.93,1.72-3.42,3.64-3.33h.21c1.93.09,3.42,1.72,3.33,3.65l-1.03,23.2c-.08,1.92-1.71,3.42-3.64,3.33h-.21c-1.93-.1-3.42-1.72-3.33-3.65l1.03-23.2Z"/>
        <path class="cls-3" d="M642.95,363.93c.1-1.93,1.74-3.41,3.66-3.31h.21c1.92.11,3.4,1.75,3.31,3.67l-1.18,23.19c-.1,1.92-1.73,3.41-3.66,3.31h-.21c-1.93-.11-3.41-1.75-3.31-3.67l1.18-23.19Z"/>
        <path class="cls-3" d="M642.32,316.3c-.19-1.92,1.21-3.62,3.13-3.82l.21-.02c1.92-.19,3.63,1.21,3.82,3.12l2.3,23.11c.19,1.92-1.21,3.62-3.13,3.82l-.21.02c-1.92.19-3.62-1.21-3.82-3.12l-2.3-23.11Z"/>
        <path class="cls-3" d="M642.44,268.62c-.08-1.93,1.41-3.55,3.34-3.63h.21c1.92-.09,3.55,1.41,3.63,3.33l.98,23.2c.08,1.92-1.41,3.55-3.34,3.63h-.21c-1.93.09-3.55-1.4-3.63-3.33l-.98-23.2Z"/>
        <path class="cls-3" d="M637.4,221.26c-.37-1.89.87-3.72,2.76-4.09l.21-.04c1.89-.37,3.72.87,4.09,2.76l4.44,22.79c.37,1.89-.86,3.72-2.76,4.09l-.21.04c-1.89.37-3.72-.87-4.09-2.76l-4.44-22.79Z"/>
        <path class="cls-3" d="M659.26,257.32c-.4-1.89.81-3.74,2.7-4.13l.21-.04c1.89-.4,3.74.81,4.13,2.7l4.78,22.72c.4,1.89-.81,3.74-2.7,4.13l-.21.04c-1.88.4-3.74-.81-4.13-2.69l-4.78-22.72Z"/>
        <path class="cls-3" d="M658.68,217.26c-.39-1.89.83-3.73,2.72-4.12l.21-.04c1.89-.39,3.73.83,4.12,2.72l4.64,22.75c.38,1.89-.83,3.73-2.72,4.11l-.2.04c-1.89.38-3.73-.84-4.12-2.72l-4.63-22.76Z"/>
        <path class="cls-3" d="M646.2,171.29c-.66-1.81.27-3.81,2.07-4.48l.2-.07c1.81-.66,3.81.27,4.48,2.08l7.99,21.81c.66,1.81-.27,3.81-2.08,4.48l-.2.07c-1.81.66-3.82-.27-4.48-2.07l-7.98-21.81Z"/>
        <path class="cls-3" d="M635.21,188.07c-.78-1.76.03-3.82,1.79-4.6l.2-.08c1.76-.78,3.82.03,4.6,1.79l9.34,21.26c.78,1.76-.02,3.82-1.79,4.6l-.19.08c-1.76.78-3.82-.03-4.6-1.79l-9.34-21.26Z"/>
        <path class="cls-3" d="M618.35,119.17c-1.03-1.63-.55-3.78,1.08-4.81l.18-.11c1.63-1.03,3.78-.55,4.81,1.08l12.41,19.63c1.03,1.63.55,3.78-1.09,4.81l-.18.11c-1.63,1.03-3.79.55-4.81-1.08l-12.41-19.63Z"/>
        <path class="cls-3" d="M563,574.67c.07-1.93,1.69-3.43,3.61-3.36h.21c1.93.08,3.43,1.69,3.36,3.62l-.84,23.21c-.07,1.93-1.68,3.43-3.61,3.36h-.21c-1.93-.08-3.43-1.69-3.36-3.62l.84-23.21Z"/>
        <path class="cls-3" d="M572.09,535.65c.08-1.92,1.71-3.42,3.63-3.34h.21c1.92.09,3.42,1.72,3.34,3.64l-.99,23.2c-.08,1.92-1.71,3.42-3.64,3.34h-.21c-1.93-.09-3.42-1.72-3.34-3.64l.99-23.2Z"/>
        <path class="cls-3" d="M581.23,490.9c.17-1.92,1.86-3.34,3.78-3.17l.21.02c1.92.17,3.34,1.86,3.17,3.78l-2.02,23.13c-.17,1.92-1.86,3.34-3.78,3.17l-.21-.02c-1.92-.17-3.34-1.86-3.17-3.78l2.02-23.13Z"/>
        <path class="cls-3" d="M595.58,444.32c.19-1.92,1.89-3.32,3.81-3.14l.21.02c1.92.18,3.32,1.89,3.14,3.81l-2.24,23.11c-.19,1.92-1.89,3.32-3.81,3.14l-.21-.02c-1.92-.19-3.32-1.89-3.14-3.81l2.24-23.11Z"/>
        <path class="cls-3" d="M597.15,396.71c-.1-1.93,1.38-3.57,3.3-3.67h.21c1.93-.12,3.57,1.36,3.67,3.29l1.23,23.19c.1,1.92-1.37,3.57-3.3,3.67h-.21c-1.92.12-3.57-1.36-3.67-3.29l-1.23-23.19Z"/>
        <path class="cls-3" d="M591.31,244.26c-.25-1.91,1.1-3.66,3-3.91l.21-.03c1.91-.25,3.66,1.1,3.91,3.01l3.01,23.02c.25,1.91-1.09,3.66-3.01,3.91l-.21.03c-1.91.25-3.66-1.1-3.91-3.01l-3.01-23.03Z"/>
        <path class="cls-3" d="M593.82,204.28c-.24-1.91,1.12-3.65,3.03-3.89l.21-.02c1.91-.24,3.66,1.12,3.89,3.03l2.86,23.04c.24,1.91-1.12,3.66-3.03,3.89l-.21.03c-1.91.24-3.66-1.12-3.89-3.03l-2.86-23.05Z"/>
        <path class="cls-3" d="M584.94,157.48c-.52-1.86.56-3.78,2.41-4.3l.2-.06c1.86-.52,3.78.56,4.3,2.42l6.28,22.36c.52,1.86-.56,3.78-2.42,4.3l-.2.06c-1.86.52-3.78-.56-4.3-2.42l-6.27-22.36Z"/>
        <path class="cls-3" d="M576.8,110.5c-.41-1.88.78-3.74,2.66-4.16l.21-.04c1.88-.41,3.74.77,4.16,2.66l4.99,22.68c.41,1.88-.77,3.74-2.66,4.16l-.21.05c-1.88.42-3.74-.78-4.16-2.66l-4.99-22.68Z"/>
        <path class="cls-3" d="M563.61,64.73c-.69-1.8.21-3.82,2.01-4.51l.2-.08c1.8-.69,3.82.21,4.51,2.01l8.32,21.68c.69,1.8-.21,3.82-2.01,4.51l-.2.08c-1.8.69-3.82-.21-4.51-2.01l-8.32-21.68Z"/>
        <path class="cls-3" d="M608.11,358.57c.18-1.92,1.88-3.33,3.79-3.15l.21.02c1.92.18,3.33,1.88,3.15,3.8l-2.15,23.12c-.18,1.92-1.88,3.33-3.8,3.15l-.21-.02c-1.92-.18-3.33-1.88-3.15-3.8l2.15-23.12Z"/>
        <path class="cls-3" d="M626.59,320.13c.19-1.92,1.9-3.32,3.82-3.13l.21.02c1.92.19,3.32,1.9,3.12,3.82l-2.3,23.11c-.19,1.92-1.9,3.32-3.82,3.12l-.21-.02c-1.92-.19-3.32-1.9-3.13-3.81l2.3-23.11Z"/>
        <path class="cls-3" d="M613.89,268.93c-.1-1.92,1.38-3.56,3.31-3.66h.21c1.92-.11,3.56,1.38,3.66,3.3l1.18,23.19c.1,1.92-1.38,3.56-3.31,3.66h-.21c-1.93.11-3.56-1.37-3.66-3.3l-1.18-23.19Z"/>
        <path class="cls-3" d="M616.33,221.32c.01-1.93,1.59-3.48,3.51-3.47h.21c1.93.01,3.48,1.59,3.46,3.51l-.15,23.46c-.01,1.93-1.58,3.71-3.51,3.71h-.21c-1.93,0-3.48-1.83-3.47-3.75l.15-23.46Z"/>
        <path class="cls-3" d="M613.59,173.77c-.28-1.91,1.05-3.68,2.95-3.95l.21-.03c1.91-.28,3.68,1.05,3.95,2.95l3.32,22.98c.28,1.91-1.04,3.68-2.95,3.95l-.21.03c-1.91.28-3.68-1.05-3.95-2.95l-3.33-22.98Z"/>
        <path class="cls-3" d="M523.92,77.94c.51-1.86,2.43-2.95,4.29-2.44l.2.05c1.86.51,2.95,2.43,2.44,4.29l-6.14,22.4c-.51,1.86-2.43,2.95-4.29,2.44l-.21-.05c-1.86-.51-2.95-2.43-2.44-4.29l6.14-22.39Z"/>
        <path class="cls-3" d="M541.73,42.05c.52-1.86,2.45-2.94,4.3-2.42l.21.06c1.86.52,2.94,2.45,2.42,4.3l-6.29,22.36c-.52,1.85-2.45,2.94-4.3,2.41l-.2-.05c-1.86-.52-2.94-2.45-2.42-4.3l6.29-22.35Z"/>
        <path class="cls-3" d="M567.46,133.42c.09-1.93,1.72-3.41,3.64-3.33h.21c1.92.1,3.41,1.73,3.33,3.65l-1.05,23.2c-.09,1.93-1.71,3.42-3.64,3.33h-.21c-1.93-.09-3.42-1.73-3.33-3.65l1.05-23.2Z"/>
        <path class="cls-3" d="M600.76,135.43c-.31-1.9.99-3.69,2.89-4l.21-.03c1.9-.31,3.69.99,4,2.89l3.69,22.93c.31,1.9-.98,3.69-2.89,4l-.21.03c-1.9.31-3.69-.99-4-2.89l-3.69-22.93Z"/>
        <path class="cls-3" d="M590.2,88.99c-.59-1.84.43-3.8,2.26-4.39l.2-.06c1.84-.59,3.8.42,4.39,2.26l7.08,22.12c.59,1.84-.42,3.8-2.26,4.39l-.2.07c-1.84.59-3.8-.43-4.39-2.26l-7.08-22.12Z"/>
        <path class="cls-3" d="M544.35,572.36c.12-1.93,1.78-3.38,3.7-3.27h.21c1.92.13,3.38,1.79,3.26,3.71l-1.45,23.18c-.12,1.92-1.77,3.39-3.7,3.26h-.21c-1.93-.13-3.39-1.79-3.27-3.71l1.45-23.17Z"/>
        <path class="cls-3" d="M554.48,533.6c.13-1.92,1.8-3.37,3.72-3.24l.21.02c1.92.13,3.37,1.8,3.24,3.72l-1.6,23.17c-.13,1.92-1.8,3.37-3.72,3.24h-.21c-1.92-.15-3.37-1.81-3.24-3.73l1.6-23.17Z"/>
        <path class="cls-3" d="M554.72,485.97c-.15-1.92,1.28-3.6,3.19-3.76l.21-.02c1.92-.16,3.61,1.27,3.76,3.2l1.88,23.14c.16,1.92-1.27,3.6-3.2,3.76l-.21.02c-1.92.16-3.6-1.27-3.76-3.19l-1.88-23.14Z"/>
        <path class="cls-3" d="M555.72,438.3c-.05-1.93,1.48-3.52,3.4-3.57h.21c1.93-.05,3.53,1.47,3.57,3.4l.56,23.22c.04,1.92-1.48,3.53-3.4,3.57h-.21c-1.93.05-3.53-1.47-3.57-3.4l-.55-23.22Z"/>
        <path class="cls-3" d="M550.81,65.13c-.33-1.9.94-3.71,2.83-4.04l.21-.04c1.9-.34,3.71.93,4.04,2.83l4.02,22.87c.34,1.9-.93,3.71-2.83,4.04l-.21.04c-1.9.33-3.71-.93-4.04-2.83l-4.02-22.87Z"/>
        <path class="cls-3" d="M572.45,441.89c0-1.93,1.56-3.35,3.48-3.35h.21c1.93,0,3.49,1.42,3.49,3.34l.03,23.15c0,1.93-1.55,3.46-3.48,3.46l-.21-.02c-1.93,0-3.49-1.5-3.5-3.42l-.03-23.16Z"/>
        <path class="cls-3" d="M580.08,402.42c0-1.93,1.58-3.48,3.51-3.47h.21c1.93,0,3.48,1.58,3.47,3.51l-.12,22.92c0,1.92-1.58,3.17-3.51,3.17h-.21c-1.93,0-3.48-1.27-3.47-3.2l.12-22.92Z"/>
        <path class="cls-3" d="M577.27,354.87c-.28-1.91,1.04-3.68,2.95-3.96l.21-.03c1.91-.28,3.68,1.04,3.96,2.95l3.36,22.98c.28,1.91-1.04,3.68-2.95,3.96l-.21.03c-1.91.28-3.68-1.04-3.96-2.95l-3.36-22.98Z"/>
        <path class="cls-3" d="M575.22,307.24c-.17-1.92,1.25-3.61,3.17-3.79l.21-.02c1.92-.17,3.61,1.25,3.78,3.17l2.04,23.13c.17,1.92-1.25,3.61-3.17,3.78l-.21.02c-1.92.17-3.61-1.25-3.78-3.17l-2.04-23.13Z"/>
        <path class="cls-3" d="M568.01,260.15c-.45-1.87.7-3.76,2.57-4.21l.21-.05c1.87-.46,3.76.7,4.21,2.57l5.47,22.57c.46,1.87-.7,3.76-2.57,4.21l-.2.05c-1.88.45-3.76-.7-4.21-2.57l-5.47-22.57Z"/>
        <path class="cls-3" d="M522.12,556.57c.26-1.91,2.02-3.25,3.93-2.99l.21.03c1.91.26,3.25,2.01,2.99,3.92l-3.12,23.01c-.26,1.91-2.02,3.25-3.93,2.99l-.21-.03c-1.91-.26-3.25-2.01-2.99-3.92l3.12-23.01Z"/>
        <path class="cls-3" d="M535.01,518.64c.27-1.91,2.04-3.24,3.95-2.97l.21.03c1.91.27,3.24,2.04,2.96,3.94l-3.26,22.99c-.27,1.91-2.04,3.23-3.95,2.96l-.21-.03c-1.91-.27-3.23-2.04-2.97-3.94l3.27-22.99Z"/>
        <path class="cls-3" d="M538.68,471.1c-.02-1.93,1.53-3.56,3.46-3.56h.21c1.93,0,3.5,1.57,3.52,3.5l.21,23.1c.02,1.93-1.53,3.4-3.46,3.4h-.21c-1.93,0-3.5-1.41-3.52-3.34l-.21-23.1Z"/>
        <path class="cls-3" d="M543.1,423.68c.09-1.93,1.73-3.41,3.65-3.32h.21c1.93.1,3.41,1.74,3.32,3.66l-1.12,23.2c-.09,1.92-1.72,3.41-3.65,3.32h-.21c-1.93-.1-3.41-1.74-3.32-3.66l1.12-23.2Z"/>
        <path class="cls-3" d="M542.34,376.05c-.2-1.92,1.2-3.63,3.12-3.83l.21-.02c1.92-.2,3.63,1.2,3.83,3.11l2.36,23.1c.2,1.92-1.2,3.63-3.12,3.83l-.21.02c-1.92.2-3.63-1.2-3.83-3.12l-2.36-23.1Z"/>
        <path class="cls-3" d="M517.45,508.3c-.07-1.93,1.44-3.54,3.36-3.61h.21c1.93-.08,3.54,1.43,3.61,3.35l.83,23.21c.07,1.92-1.44,3.54-3.37,3.61h-.21c-1.93.08-3.54-1.43-3.61-3.35l-.82-23.21Z"/>
        <path class="cls-3" d="M524.49,461.64c.14-1.92,1.82-3.36,3.74-3.22l.21.02c1.92.14,3.36,1.82,3.22,3.74l-1.73,23.16c-.14,1.92-1.81,3.36-3.74,3.22l-.21-.02c-1.92-.14-3.36-1.82-3.22-3.74l1.73-23.16Z"/>
        <path class="cls-3" d="M526.5,413.52c.11-1.92,1.76-3.39,3.68-3.29h.21c1.92.12,3.4,1.77,3.29,3.69l-1.29,23.19c-.11,1.92-1.75,3.4-3.68,3.29h-.21c-1.92-.12-3.4-1.76-3.29-3.69l1.29-23.19Z"/>
        <path class="cls-3" d="M534.46,339.18c.27-1.91,2.04-3.23,3.94-2.96l.21.03c1.91.27,3.23,2.04,2.96,3.95l-3.28,22.99c-.27,1.91-2.04,3.23-3.95,2.96l-.21-.03c-1.91-.27-3.23-2.04-2.96-3.95l3.28-22.99Z"/>
        <path class="cls-3" d="M538.15,291.37c-.02-1.93,1.53-3.83,3.46-3.83h.21c1.93,0,3.5,1.85,3.52,3.77l.2,23.38c.02,1.93-1.53,3.58-3.46,3.6l-.21.04c-1.93.01-3.5-1.67-3.52-3.6l-.2-23.36Z"/>
        <path class="cls-3" d="M593.7,325.78c.1-1.93,1.75-3.4,3.67-3.3h.21c1.93.11,3.4,1.75,3.3,3.68l-1.21,23.19c-.1,1.92-1.74,3.4-3.67,3.3h-.21c-1.92-.11-3.4-1.75-3.3-3.68l1.21-23.19Z"/>
        <path class="cls-3" d="M601.27,280.45c.11-1.93,1.76-3.39,3.69-3.28h.21c1.92.12,3.39,1.78,3.28,3.7l-1.36,23.18c-.11,1.92-1.76,3.39-3.69,3.28h-.21c-1.92-.12-3.39-1.78-3.28-3.7l1.36-23.18Z"/>
        <path class="cls-3" d="M563.73,390.34c.16-1.92,1.85-3.34,3.77-3.18l.21.02c1.92.16,3.35,1.85,3.18,3.77l-1.96,23.14c-.16,1.92-1.85,3.34-3.77,3.18l-.21-.02c-1.92-.16-3.35-1.85-3.18-3.77l1.96-23.14Z"/>
        <path class="cls-3" d="M576.16,186.74c.27-1.91,2.04-3.23,3.95-2.96l.21.03c1.91.27,3.23,2.04,2.96,3.94l-3.28,22.99c-.27,1.91-2.04,3.24-3.95,2.96l-.21-.03c-1.91-.27-3.23-2.04-2.96-3.95l3.28-22.99Z"/>
        <path class="cls-3" d="M552.53,222.86c-.02-1.93,1.54-3.32,3.46-3.32h.21c1.93,0,3.5,1.33,3.52,3.26l.2,23.12c.02,1.93-1.53,3.45-3.46,3.47l-.21-.02c-1.93.02-3.5-1.45-3.52-3.37l-.2-23.13Z"/>
        <path class="cls-3" d="M554.98,349.83c-.28-1.91,1.04-3.68,2.95-3.96l.21-.03c1.91-.28,3.68,1.04,3.96,2.95l3.36,22.98c.28,1.91-1.04,3.68-2.95,3.96l-.21.03c-1.91.28-3.68-1.04-3.96-2.95l-3.36-22.98Z"/>
        <path class="cls-3" d="M552.93,302.21c-.17-1.92,1.25-3.61,3.17-3.78l.21-.02c1.92-.17,3.61,1.25,3.78,3.17l2.04,23.13c.17,1.92-1.25,3.61-3.17,3.78l-.21.02c-1.92.17-3.61-1.25-3.78-3.17l-2.04-23.13Z"/>
        <path class="cls-3" d="M545.72,255.12c-.46-1.87.7-3.76,2.57-4.21l.21-.05c1.87-.46,3.76.69,4.21,2.57l5.47,22.57c.45,1.87-.7,3.76-2.57,4.21l-.21.05c-1.88.45-3.76-.7-4.21-2.57l-5.47-22.57Z"/>
      </g>
      <g>
        <path class="cls-3" d="M495.13,403.03c2.15,11.28,3.76,24.46,4.3,40.65,1.46,44.02,4.01,39.19-46.84,132.3-50.85,93.1-167.19,116.19-227.62,118.17-60.43,1.98-99.01-45.38-144.29-73.22-45.28-27.84-58.35-82.67-69.98-111.73-1.21-3.04-2.29-6.84-3.15-11.31-7.3-38.22,1.59-125.88,76.09-216.31,83.21-101.02,209.23-82.52,209.23-82.52,32.81-1.05,124.11,44.93,146.32,70.22,22.21,25.3,35.75,64.41,42.59,86.56,4.32,14,9.65,27.81,13.35,47.19M500.53,402c-2.89-15.14-6.67-26.71-10.32-37.89-1.11-3.41-2.16-6.62-3.17-9.89-12.42-40.23-26.71-69.2-43.71-88.56-23.09-26.3-114.77-72.79-150.14-72.11-4.33-.58-34.74-4.16-74.75,3.49-39.12,7.47-95.01,27.6-139.04,81.05C2.87,370.99-5.17,460.62,2.15,498.93c.9,4.72,2.06,8.86,3.44,12.33,1.79,4.46,3.65,9.67,5.62,15.18,11.29,31.53,26.76,74.7,66.58,99.19,12.07,7.42,23.47,16.12,35.54,25.33,32.37,24.68,65.83,50.21,111.8,48.7,18.84-.62,68.17-4.32,119.31-25.32,51.91-21.32,89.91-53.52,112.95-95.71l.51-.93c47.71-87.37,48.62-89.04,47.21-128.2-.06-1.9-.14-3.89-.21-5.99-.5-15.07-1.93-28.65-4.39-41.5h0Z"/>
        <g>
          <path class="cls-2" d="M452.58,575.98c50.85-93.1,48.3-88.28,46.84-132.3-1.46-44.03-10.81-65.7-17.64-87.84-6.84-22.15-20.38-61.26-42.59-86.56-22.2-25.29-113.51-71.27-146.32-70.22,0,0-126.02-18.5-209.23,82.52C.42,382.61-.93,480.16,10.7,509.21c11.63,29.05,24.71,83.89,69.98,111.73,45.28,27.84,83.86,75.2,144.29,73.22,60.43-1.98,176.77-25.07,227.62-118.17ZM208.6,639.22c-23.92-4.76-89.76-53.14-108.74-61.34-18.98-8.19-39.01-60.97-42.1-77.17-3.09-16.2,4.87-104.8,15.12-126.04,10.25-21.24,71.66-97.03,133.13-110.63,0,0,74.98-24.27,96.76-7.9,21.78,16.37,49.22,16.72,67.89,33.06,18.67,16.34,25.75,56.66,37.79,90.43,12.05,33.77,42.69,50.94,25.48,87.81-17.22,36.87-19.28,81.43-38.8,93.24-19.52,11.81-52.22,39.21-79.4,49.99-27.17,10.79-83.21,33.3-107.13,28.54Z"/>
          <path class="cls-5" d="M395.13,560.68c19.51-11.81,21.58-56.37,38.8-93.24,17.21-36.88-13.43-54.04-25.48-87.81-12.05-33.77-19.12-74.1-37.79-90.43-18.67-16.34-46.11-16.7-67.89-33.06-21.79-16.36-96.76,7.9-96.76,7.9-61.47,13.6-122.88,89.39-133.13,110.63-10.25,21.24-18.21,109.84-15.12,126.04,3.09,16.2,23.12,68.98,42.1,77.17,18.98,8.2,84.82,56.58,108.74,61.34,23.92,4.76,79.96-17.75,107.13-28.54,27.18-10.79,59.88-38.18,79.4-49.99Z"/>
        </g>
        <path class="cls-1" d="M243.86,388.24s27.98,14.64,38.88,12.56c10.89-2.08,25.87,8.09,25.87,8.09,0,0,6.04,17.96,10.51,23.19,4.47,5.23,8.99,24.34,10.59,32.72,1.6,8.38-.51,20.08-5.9,23.71-5.39,3.64-15.6,4.72-23.82,7.16-8.22,2.44-15.64,9.07-30.53,8.44-14.89-.63-22.07-1.87-24.87-7.41-2.79-5.54-8.07-14.96-22.28-16.59-14.21-1.63-25.87-8.09-25.24-22.98.63-14.89,7.54-19.68,15.03-35.01,7.5-15.33,22.74-35.61,31.76-33.86Z"/>
        <path class="cls-1" d="M395.64,295.21s-6.58,6.51-16.32,16.38c-4.83,4.97-10.47,10.77-16.52,16.99-6,6.25-12.38,12.94-18.62,19.74-6.28,6.77-12.29,13.78-18.03,20.23-2.95,3.16-5.67,6.31-8.42,9.17-1.37,1.43-2.67,2.85-3.89,4.25-1.27,1.37-2.49,2.69-3.66,3.96-2.38,2.51-4.44,4.9-6.35,6.98-1.93,2.06-3.56,3.88-4.88,5.42-2.67,3.04-4.28,4.74-4.28,4.74l-.46-.31s1.08-2.06,3.15-5.59c.52-.88,1.09-1.86,1.72-2.92.68-1.02,1.42-2.13,2.2-3.31,1.61-2.33,3.35-5.05,5.49-7.8,2.11-2.78,4.35-5.84,6.93-8.89,2.54-3.08,5.23-6.34,8.18-9.53,2.99-3.16,6.03-6.48,9.31-9.67,3.23-3.23,6.49-6.53,9.81-9.77,6.56-6.55,13.25-12.96,19.54-18.95,6.29-6,12.26-11.47,17.41-16.13,10.28-9.35,17.31-15.38,17.31-15.38l.37.4Z"/>
        <path class="cls-1" d="M411.24,324.29s-6.78,5.47-16.94,13.67c-10.11,8.27-23.68,19.16-37.02,30.33-3.32,2.8-6.65,5.6-9.87,8.41-3.21,2.83-6.43,5.53-9.52,8.18-3.13,2.6-6.16,5.09-9.09,7.41-2.89,2.33-5.64,4.54-8.17,6.58-2.51,2.05-4.81,3.94-6.85,5.61-2.03,1.68-3.76,3.18-5.14,4.45-1.4,1.26-2.4,2.33-3.08,3.07-.61.79-.93,1.21-.93,1.21l-.5-.22s.22-.53.62-1.51c.48-.93,1.26-2.28,2.41-3.85,1.13-1.59,2.61-3.42,4.37-5.45,1.77-2.02,3.83-4.24,6.15-6.57,2.31-2.35,4.88-4.81,7.65-7.35,2.75-2.56,5.75-5.15,8.89-7.78,3.2-2.56,6.5-5.21,9.93-7.78,3.43-2.59,6.9-5.22,10.38-7.86,13.9-10.52,27.91-20.88,38.57-28.44,10.62-7.62,17.79-12.55,17.79-12.55l.33.44Z"/>
        <path class="cls-1" d="M432.63,344.53s-32.96,18.72-65.91,37.44c-8.21,4.72-16.42,9.45-24.12,13.87-3.89,2.13-7.66,4.19-11.23,6.14-3.59,1.91-6.99,3.72-10.12,5.39-6.29,3.3-11.53,6.05-15.2,7.97-1.82.97-3.28,1.73-4.18,2.32-.95.57-1.45.88-1.45.88l-.26-.26s.45-.39,1.31-1.12c.85-.79,2.21-1.69,3.89-2.91,1.68-1.25,3.79-2.62,6.22-4.2,2.43-1.58,5.17-3.36,8.2-5.22,3.02-1.89,6.33-3.86,9.84-5.93,3.49-2.11,7.26-4.17,11.11-6.39,7.79-4.28,16.19-8.68,24.56-13.11,16.74-8.9,33.48-17.78,46.11-24.3,12.62-6.54,21.04-10.9,21.04-10.9l.18.32Z"/>
        <path class="cls-1" d="M438.81,362.08s-8.24,4.13-20.61,10.33c-12.35,6.23-28.89,14.36-45.41,22.55-8.25,4.11-16.48,8.27-24.25,12.05-3.92,1.81-7.68,3.63-11.3,5.24-3.61,1.63-7.04,3.15-10.21,4.53-3.16,1.39-6.11,2.58-8.7,3.68-2.59,1.1-4.86,2.03-6.74,2.76-3.75,1.51-5.92,2.31-5.92,2.31l-.16-.33s1.99-1.18,5.52-3.14c1.76-1,3.91-2.18,6.39-3.49,2.48-1.32,5.26-2.85,8.34-4.44,3.06-1.6,6.4-3.31,9.94-5.08,3.53-1.8,7.31-3.58,11.19-5.48,7.83-3.66,16.24-7.43,24.63-11.25,16.77-7.67,33.5-15.4,46.12-21.06,12.6-5.7,21-9.5,21-9.5l.16.33Z"/>
        <path class="cls-1" d="M442.77,385.81s-8.3,3.15-20.74,7.86c-12.44,4.74-29.1,10.82-45.73,16.98-4.15,1.56-8.3,3.12-12.39,4.65-4.07,1.58-8.12,3.02-12.03,4.43-3.93,1.34-7.75,2.6-11.4,3.7-3.64,1.13-7.1,2.15-10.3,3.05-12.8,3.66-21.59,5.38-21.59,5.38l-.18-.52s7.99-4.05,20.34-9.02c3.08-1.26,6.44-2.58,10.01-3.92,3.55-1.38,7.34-2.73,11.27-4.08,3.96-1.28,8.04-2.63,12.21-3.89,4.17-1.3,8.4-2.62,12.64-3.94,16.91-5.35,33.8-10.78,46.52-14.67,12.72-3.92,21.2-6.53,21.2-6.53l.18.52Z"/>
        <path class="cls-1" d="M442.42,407.92s-7.75,2.23-19.38,5.59c-11.62,3.39-27.16,7.72-42.69,12.11-7.75,2.22-15.5,4.48-22.8,6.47-3.67.92-7.2,1.87-10.57,2.65-3.37.81-6.57,1.55-9.52,2.19-2.95.67-5.68,1.19-8.09,1.7-2.41.51-4.51.93-6.26,1.23-3.48.66-5.48.97-5.48.97l-.09-.35s1.89-.72,5.24-1.86c1.67-.59,3.71-1.27,6.05-2.01,2.35-.74,4.98-1.64,7.88-2.51,2.89-.89,6.04-1.83,9.37-2.79,3.32-.99,6.86-1.9,10.51-2.91,7.33-1.87,15.18-3.72,23.02-5.61,15.67-3.84,31.32-7.73,43.1-10.51,11.77-2.82,19.62-4.7,19.62-4.7l.09.35Z"/>
        <path class="cls-1" d="M449.12,428.2s-8.26,1.52-20.66,3.79c-12.38,2.31-28.93,5.2-45.47,8.16-8.27,1.5-16.52,3.05-24.29,4.36-3.89.58-7.65,1.2-11.23,1.67-3.57.5-6.96.94-10.09,1.32-3.12.4-6.01.66-8.55.96-2.55.29-4.77.51-6.61.65-3.67.34-5.77.46-5.77.46l-.06-.36s2.04-.54,5.63-1.37c1.79-.44,3.97-.93,6.47-1.45,2.51-.52,5.33-1.18,8.42-1.78,3.09-.62,6.44-1.27,9.99-1.92,3.55-.68,7.31-1.26,11.19-1.94,7.78-1.19,16.11-2.31,24.43-3.48,16.63-2.39,33.25-4.84,45.73-6.53,12.48-1.73,20.8-2.88,20.8-2.88l.06.36Z"/>
        <path class="cls-1" d="M461.07,459.37s-9.24-.49-23.11-1.05c-6.93-.23-15.02-.51-23.68-.8-8.66-.24-17.9-.46-27.13-.5-9.24-.09-18.47.17-27.1.26-4.33-.05-8.49.05-12.45-.05-1.98-.05-3.9-.05-5.76-.02-1.86-.02-3.66-.03-5.39-.04-3.46-.07-6.62.01-9.43,0-2.82-.04-5.27-.03-7.29.04-4.05.07-6.39.02-6.39.02l-.08-.54s2.25-.58,6.25-1.43c1-.21,2.11-.44,3.32-.69,1.21-.18,2.53-.38,3.93-.6,2.81-.38,5.99-.92,9.47-1.18,3.47-.31,7.25-.71,11.24-.86,3.99-.2,8.21-.39,12.56-.35,4.36.09,8.86.1,13.42.38,4.57.22,9.2.4,13.83.69,9.26.46,18.51,1.09,27.17,1.72,8.66.62,16.73,1.36,23.65,2.03,13.83,1.32,23.02,2.46,23.02,2.46l-.05.55Z"/>
        <path class="cls-1" d="M444.37,500.79s-8.33-2.54-20.82-6.34c-12.52-3.73-29.15-8.84-45.88-13.62-4.18-1.17-8.37-2.36-12.5-3.45-4.14-1.07-8.19-2.22-12.11-3.28-3.91-1.13-7.67-2.24-11.23-3.36-3.56-1.09-6.92-2.12-10.03-3.07-3.11-.92-5.96-1.77-8.49-2.52-2.53-.74-4.74-1.33-6.57-1.76-1.83-.45-3.28-.68-4.27-.82-.99-.06-1.52-.09-1.52-.09l-.1-.54s.56-.12,1.6-.33c1.04-.12,2.6-.24,4.54-.17,1.95.04,4.29.24,6.96.56,2.67.33,5.66.79,8.89,1.4,3.24.6,6.72,1.34,10.38,2.21,3.67.84,7.49,1.87,11.43,2.99,3.91,1.21,7.95,2.45,12.02,3.86,4.06,1.38,8.2,2.78,12.32,4.18,16.51,5.6,32.95,11.38,45.19,15.96,12.26,4.51,20.38,7.68,20.38,7.68l-.18.52Z"/>
        <path class="cls-1" d="M442.56,541.22s-33.56-17.62-67.12-35.23c-8.41-4.36-16.82-8.72-24.71-12.8-3.89-2.13-7.66-4.18-11.23-6.13-3.55-1.99-6.91-3.87-10-5.6-6.17-3.51-11.32-6.44-14.92-8.48-1.81-1.01-3.22-1.83-4.21-2.26-.99-.49-1.52-.74-1.52-.74l.08-.36s.57.17,1.65.49c1.12.29,2.61.94,4.55,1.71,1.96.74,4.25,1.78,6.89,2.97,2.64,1.19,5.62,2.53,8.82,4.08,3.22,1.52,6.67,3.24,10.31,5.07,3.66,1.8,7.43,3.86,11.38,5.9,7.81,4.25,16.05,8.93,24.3,13.59,16.53,9.28,33.05,18.57,45.36,25.68,12.32,7.09,20.54,11.81,20.54,11.81l-.18.32Z"/>
        <path class="cls-1" d="M429.63,563.34s-7.65-5.14-19.12-12.86c-11.5-7.68-26.72-18.08-41.98-28.44-7.64-5.16-15.31-10.27-22.42-15.19-3.51-2.52-6.94-4.9-10.12-7.27-3.2-2.34-6.21-4.57-8.96-6.66-2.77-2.07-5.25-4.05-7.48-5.76-2.23-1.71-4.16-3.23-5.72-4.51-3.16-2.52-4.93-4.02-4.93-4.02l.21-.3s2.01,1.15,5.45,3.26c1.74,1.03,3.82,2.33,6.19,3.84,2.37,1.52,5.07,3.18,7.96,5.08,2.9,1.88,6.02,3.95,9.31,6.16,3.3,2.19,6.71,4.6,10.28,7.04,7.04,5.01,14.46,10.49,21.91,15.91,14.93,10.82,29.89,21.59,41.03,29.79,11.16,8.16,18.6,13.61,18.6,13.61l-.21.3Z"/>
        <path class="cls-1" d="M410.92,578.46s-6.82-5.67-17.05-14.19c-10.24-8.5-23.74-20.01-37.28-31.46-3.4-2.85-6.8-5.7-10.15-8.5-3.38-2.77-6.62-5.59-9.78-8.29-3.11-2.77-6.08-5.47-8.83-8.11-2.78-2.61-5.37-5.12-7.73-7.47-9.49-9.34-15.31-16.15-15.31-16.15l.37-.41s7.45,4.96,17.86,13.27c2.61,2.06,5.41,4.34,8.33,6.78,2.95,2.42,5.99,5.05,9.1,7.8,3.06,2.81,6.24,5.7,9.4,8.72,3.18,2.99,6.41,6.03,9.65,9.06,12.98,12.09,26.01,24.12,35.67,33.28,9.67,9.15,16.11,15.24,16.11,15.24l-.36.41Z"/>
        <path class="cls-1" d="M382.17,593.51s-5.04-6.29-12.62-15.74c-7.6-9.42-17.58-22.09-27.61-34.73-5.03-6.31-10.11-12.58-14.75-18.55-2.26-3.03-4.5-5.92-6.52-8.74-2.04-2.8-3.95-5.46-5.69-7.94-1.75-2.46-3.29-4.78-4.68-6.81-1.4-2.03-2.6-3.81-3.55-5.3-1.95-2.95-3-4.69-3-4.69l.29-.22s1.39,1.47,3.74,4.12c1.19,1.31,2.6,2.93,4.19,4.81,1.59,1.88,3.43,3.96,5.35,6.3,1.94,2.33,4.01,4.86,6.18,7.57,2.19,2.69,4.39,5.6,6.73,8.58,4.54,6.04,9.28,12.58,14.05,19.09,9.57,12.99,19.2,25.93,26.3,35.73,7.14,9.78,11.89,16.29,11.89,16.29l-.29.22Z"/>
        <path class="cls-1" d="M376.42,623.24s-5.42-8.32-13.56-20.8c-8.17-12.46-18.9-29.18-29.68-45.86-5.41-8.33-10.87-16.63-15.86-24.49-2.43-3.97-4.83-7.77-7.01-11.45-2.2-3.66-4.25-7.13-6.12-10.35-1.88-3.21-3.54-6.2-5.04-8.83-1.5-2.63-2.79-4.93-3.81-6.85-2.09-3.81-3.23-6.03-3.23-6.03l.31-.19s1.5,1.99,4.02,5.55c1.28,1.76,2.79,3.93,4.5,6.43,1.71,2.5,3.68,5.29,5.75,8.4,2.08,3.09,4.31,6.45,6.64,10.03,2.36,3.56,4.72,7.39,7.24,11.3,4.89,7.92,9.97,16.45,15.1,24.95,10.29,16.98,20.64,33.93,28.28,46.72,7.67,12.77,12.78,21.28,12.78,21.28l-.31.19Z"/>
        <path class="cls-1" d="M220.02,254.4s.95,9.2,2.53,22.99c.84,6.88,1.82,14.91,2.87,23.52,1.11,8.59,2.31,17.76,3.7,26.89,1.33,9.14,3.03,18.22,4.45,26.73.62,4.28,1.36,8.38,1.87,12.31.26,1.97.55,3.87.87,5.7.27,1.84.54,3.62.79,5.33.46,3.43,1.04,6.54,1.46,9.32.39,2.79.79,5.21,1.16,7.19.7,3.98,1,6.31,1,6.31l-.53.16s-.92-2.14-2.38-5.95c-.36-.96-.76-2.02-1.19-3.17-.37-1.17-.77-2.44-1.2-3.79-.81-2.72-1.84-5.77-2.63-9.17-.84-3.39-1.82-7.05-2.58-10.97-.81-3.91-1.66-8.05-2.29-12.35-.59-4.31-1.27-8.76-1.7-13.31-.48-4.54-1.02-9.15-1.46-13.77-.98-9.22-1.79-18.45-2.51-27.11-.73-8.65-1.24-16.74-1.65-23.67-.84-13.87-1.12-23.12-1.13-23.12l.55-.04Z"/>
        <path class="cls-1" d="M249.96,257.21s.01,8.71.03,21.77c.1,13.06.08,30.47.41,47.85.1,4.35.2,8.69.36,12.97.19,4.27.27,8.48.41,12.54.06,4.07.11,7.99.07,11.72,0,3.72,0,7.24,0,10.49.02,3.24.05,6.22.07,8.85.04,2.63.12,4.92.24,6.8.1,1.88.31,3.33.46,4.32.23.97.36,1.48.36,1.48l-.49.25s-.27-.5-.78-1.43c-.42-.96-.99-2.41-1.49-4.29-.53-1.88-1.03-4.18-1.5-6.82-.46-2.65-.9-5.64-1.26-8.91-.38-3.27-.68-6.82-.92-10.57-.27-3.75-.41-7.71-.48-11.8.01-4.09.02-8.32.17-12.62.13-4.29.26-8.65.39-13.01.52-17.43,1.24-34.84,2.03-47.88.72-13.05,1.38-21.73,1.38-21.73l.55.02Z"/>
        <path class="cls-1" d="M278.11,247.84s-6.08,37.41-12.16,74.82c-1.47,9.36-2.94,18.72-4.32,27.49-.78,4.37-1.54,8.59-2.26,12.59-.76,4-1.48,7.78-2.15,11.27-1.38,6.97-2.52,12.77-3.32,16.83-.38,2.03-.71,3.64-.81,4.71-.15,1.09-.23,1.68-.23,1.68l-.37.04s-.02-.6-.05-1.72c-.09-1.16.06-2.78.17-4.86.08-2.09.34-4.6.63-7.48.29-2.89.62-6.13,1.07-9.66.42-3.53.96-7.35,1.54-11.38.55-4.04,1.31-8.27,1.99-12.66,1.55-8.75,3.39-18.05,5.19-27.36,3.56-18.62,7.14-37.23,9.98-51.16,2.82-13.93,4.7-23.22,4.7-23.22l.36.06Z"/>
        <path class="cls-1" d="M295.65,254.03s-1.95,9.01-4.88,22.53c-2.89,13.53-6.93,31.51-10.91,49.52-1.97,9.01-3.89,18.02-5.82,26.45-1.05,4.19-1.99,8.26-3.01,12.09-.99,3.84-1.95,7.46-2.87,10.79-.9,3.34-1.82,6.38-2.59,9.08-.76,2.7-1.46,5.06-2.07,6.98-1.18,3.87-1.91,6.06-1.91,6.06l-.36-.08s.33-2.29,1.02-6.27c.32-2,.75-4.41,1.29-7.17.53-2.76,1.08-5.89,1.77-9.28.67-3.39,1.44-7.06,2.28-10.93.81-3.88,1.8-7.94,2.75-12.15,2.05-8.39,4.39-17.31,6.68-26.24,4.54-17.87,9.01-35.75,12.51-49.13,3.46-13.39,5.77-22.31,5.77-22.31l.36.08Z"/>
        <path class="cls-1" d="M315.85,271.58s-2.75,8.43-6.88,21.08c-4.11,12.66-9.81,29.45-15.44,46.27-1.39,4.21-2.78,8.42-4.15,12.57-1.32,4.16-2.74,8.22-4.09,12.15-1.42,3.9-2.83,7.67-4.27,11.2-1.4,3.54-2.78,6.88-4.09,9.94-5.17,12.27-9.35,20.19-9.35,20.19l-.52-.19s1.86-8.76,5.73-21.5c.95-3.19,2.03-6.63,3.22-10.25,1.15-3.63,2.48-7.43,3.89-11.34,1.48-3.88,2.98-7.91,4.63-11.95,1.6-4.06,3.23-8.19,4.86-12.31,6.44-16.53,12.79-33.09,17.74-45.44,4.92-12.36,8.2-20.61,8.2-20.61l.51.19Z"/>
        <path class="cls-1" d="M333.26,279.77s-3.42,8.15-8.55,20.38c-5.09,12.25-12.07,28.49-19,44.77-3.44,8.14-6.82,16.31-10.14,23.91-1.74,3.76-3.35,7.43-5.01,10.85-1.63,3.43-3.19,6.67-4.67,9.64-1.46,2.98-2.89,5.67-4.1,8.08-1.22,2.4-2.31,4.49-3.25,6.19-1.83,3.42-2.94,5.34-2.94,5.34l-.37-.16s.69-2.11,2.02-5.75c.64-1.83,1.46-4.04,2.44-6.55.98-2.51,2.02-5.37,3.27-8.45,1.22-3.08,2.59-6.41,4.06-9.91,1.44-3.52,3.1-7.17,4.73-10.97,3.44-7.54,7.26-15.51,11.03-23.51,7.5-16.02,14.93-32.06,20.65-44.03,5.68-11.98,9.47-19.98,9.47-19.98l.37.17Z"/>
        <path class="cls-1" d="M353.63,287.47s-4,7.39-10,18.47c-5.96,11.1-14.09,25.8-22.15,40.54-4.02,7.38-7.99,14.78-11.83,21.65-1.99,3.4-3.86,6.71-5.74,9.79-1.85,3.1-3.63,6.01-5.3,8.68-1.65,2.68-3.25,5.09-4.62,7.26-1.37,2.16-2.59,4.03-3.63,5.56-2.04,3.07-3.26,4.79-3.26,4.79l-.32-.18s.86-1.93,2.46-5.25c.78-1.67,1.77-3.68,2.93-5.96,1.16-2.28,2.42-4.89,3.89-7.67,1.45-2.8,3.05-5.81,4.77-8.98,1.69-3.19,3.6-6.49,5.5-9.93,3.95-6.81,8.3-14,12.6-21.21,8.57-14.45,17.08-28.93,23.59-39.72,6.48-10.81,10.8-18.01,10.8-18.01l.32.18Z"/>
        <path class="cls-1" d="M56.96,426.59s9.24.62,23.06,1.71c6.91.59,14.97,1.29,23.61,2.03,8.63.8,17.83,1.68,27,2.75,9.18,1.01,18.31,2.37,26.88,3.5,4.3.47,8.42,1.06,12.36,1.43,1.97.19,3.88.41,5.72.66,1.85.21,3.64.41,5.36.6,3.44.34,6.56.8,9.36,1.12,2.8.29,5.24.61,7.23.91,4,.55,6.34.78,6.34.78l.14-.53s-2.17-.85-6.04-2.17c-.97-.33-2.04-.69-3.21-1.08-1.18-.33-2.46-.68-3.83-1.06-2.74-.71-5.84-1.63-9.26-2.31-3.41-.72-7.11-1.57-11.05-2.19-3.94-.67-8.1-1.37-12.43-1.85-4.33-.44-8.8-.95-13.37-1.22-4.55-.33-9.18-.7-13.81-.97-9.25-.65-18.51-1.13-27.18-1.54-8.67-.42-16.78-.65-23.72-.81-13.89-.34-23.15-.3-23.15-.3l-.02.55Z"/>
        <path class="cls-1" d="M61.36,453.73s8.7-.3,21.75-.74c13.05-.37,30.45-1.01,47.84-1.29,4.35-.05,8.7-.11,12.97-.1,4.28.04,8.48-.03,12.55-.04,4.07-.09,7.99-.18,11.71-.34,3.72-.13,7.24-.26,10.49-.37,3.24-.09,6.21-.17,8.85-.25,2.63-.05,4.93-.05,6.8,0,1.89.04,3.34.2,4.34.31.97.2,1.49.3,1.49.3l.23-.5s-.51-.26-1.46-.73c-.97-.39-2.45-.91-4.34-1.34-1.89-.46-4.21-.88-6.87-1.26-2.66-.37-5.67-.7-8.95-.95-3.28-.26-6.84-.44-10.59-.55-3.76-.14-7.72-.14-11.81-.07-4.09.16-8.32.31-12.6.62-4.29.28-8.63.56-12.99.85-17.4,1.14-34.77,2.47-47.78,3.73-13.01,1.19-21.67,2.15-21.67,2.15l.04.55Z"/>
        <path class="cls-1" d="M53.02,484.06s37.17-7.41,74.34-14.81c9.3-1.8,18.6-3.6,27.32-5.29,4.34-.94,8.53-1.85,12.51-2.7,3.97-.9,7.72-1.76,11.18-2.54,6.91-1.62,12.68-2.97,16.71-3.92,2.02-.46,3.61-.84,4.68-.98,1.09-.18,1.67-.28,1.67-.28l.02-.37s-.6,0-1.72,0c-1.16-.04-2.77.17-4.85.35-2.09.16-4.59.5-7.45.9-2.87.39-6.11.84-9.62,1.41-3.52.54-7.31,1.22-11.32,1.95-4.02.69-8.22,1.6-12.58,2.44-8.69,1.86-17.92,4.03-27.16,6.16-18.48,4.23-36.95,8.46-50.77,11.8-13.83,3.31-23.05,5.52-23.05,5.52l.08.36Z"/>
        <path class="cls-1" d="M59.83,501.37s8.94-2.27,22.34-5.67c13.41-3.37,31.25-8.04,49.1-12.66,8.93-2.29,17.88-4.52,26.22-6.76,4.15-1.2,8.19-2.28,11.98-3.44,3.8-1.13,7.38-2.22,10.68-3.26,3.31-1.02,6.31-2.04,8.98-2.91,2.68-.86,5-1.64,6.9-2.32,3.82-1.31,5.99-2.13,5.99-2.13l-.1-.36s-2.28.41-6.23,1.24c-1.98.39-4.38.91-7.12,1.54-2.74.63-5.84,1.28-9.21,2.1-3.37.79-7.01,1.69-10.84,2.66-3.85.95-7.87,2.08-12.05,3.18-8.31,2.35-17.14,5.01-25.99,7.61-17.7,5.17-35.41,10.28-48.66,14.25-13.26,3.93-22.1,6.56-22.1,6.56l.1.35Z"/>
        <path class="cls-1" d="M72.37,521.91s8.33-3.05,20.83-7.62c12.5-4.56,29.08-10.85,45.7-17.08,4.16-1.54,8.32-3.08,12.41-4.59,4.11-1.47,8.11-3.03,12-4.52,3.85-1.56,7.56-3.1,11.04-4.66,3.49-1.53,6.77-3.02,9.79-4.44,12.08-5.61,19.85-10.06,19.85-10.06l-.2-.51s-8.69,2.16-21.28,6.49c-3.16,1.07-6.56,2.27-10.13,3.58-3.59,1.28-7.34,2.74-11.2,4.28-3.83,1.62-7.8,3.27-11.78,5.05-4,1.75-8.07,3.52-12.13,5.29-16.29,7.02-32.61,13.96-44.79,19.34-12.18,5.36-20.3,8.93-20.3,8.93l.21.51Z"/>
        <path class="cls-1" d="M94.38,527.68s7.32-3.38,18.31-8.46c11-5.04,25.59-11.94,40.2-18.77,7.31-3.4,14.65-6.75,21.47-10.02,3.37-1.71,6.66-3.29,9.73-4.92,3.08-1.59,5.97-3.13,8.63-4.57,2.67-1.42,5.08-2.82,7.23-4.01,2.15-1.19,4.02-2.25,5.54-3.16,3.06-1.78,4.77-2.85,4.78-2.85l-.16-.33s-1.9.7-5.18,2.03c-1.65.64-3.63,1.46-5.89,2.44-2.26.97-4.83,2.02-7.6,3.26-2.77,1.22-5.76,2.56-8.9,4.02-3.16,1.43-6.43,3.06-9.85,4.67-6.76,3.38-13.91,7.12-21.08,10.82-14.36,7.35-28.75,14.65-39.48,20.25-10.74,5.57-17.91,9.28-17.91,9.28l.16.33Z"/>
        <path class="cls-1" d="M102.59,547.4s7.24-4.26,18.1-10.65c10.88-6.36,25.28-15,39.72-23.58,7.23-4.28,14.49-8.51,21.22-12.59,3.32-2.11,6.57-4.09,9.58-6.08,3.03-1.96,5.88-3.84,8.49-5.61,2.63-1.75,4.98-3.43,7.09-4.87,2.11-1.45,3.94-2.74,5.42-3.83,2.99-2.14,4.67-3.43,4.67-3.43l-.19-.31s-1.9.93-5.15,2.64c-1.64.84-3.61,1.9-5.85,3.14-2.24,1.24-4.8,2.6-7.53,4.17-2.75,1.55-5.7,3.25-8.81,5.08-3.13,1.8-6.35,3.83-9.73,5.85-6.66,4.19-13.69,8.79-20.75,13.35-14.14,9.07-28.31,18.09-38.86,24.98-10.57,6.86-17.62,11.43-17.62,11.43l.19.31Z"/>
        <path class="cls-1" d="M113.94,578.8s6.67-6.42,16.78-15.91c5.09-4.71,11.02-10.21,17.38-16.1,6.39-5.85,13.23-12.06,20.19-18.13,6.92-6.11,14.08-11.95,20.66-17.53,3.24-2.87,6.45-5.52,9.38-8.19,1.46-1.33,2.92-2.59,4.34-3.79,1.4-1.23,2.75-2.42,4.05-3.56,2.57-2.32,5.01-4.31,7.13-6.17,2.11-1.87,3.97-3.47,5.54-4.74,3.1-2.59,4.84-4.17,4.84-4.17l-.3-.46s-2.09,1.03-5.67,3.01c-.89.5-1.88,1.05-2.96,1.65-1.04.66-2.16,1.36-3.36,2.12-2.37,1.55-5.13,3.22-7.94,5.3-2.82,2.04-5.95,4.2-9.06,6.71-3.15,2.46-6.46,5.07-9.73,7.95-3.24,2.92-6.63,5.87-9.89,9.07-3.31,3.15-6.69,6.33-10.01,9.57-6.71,6.41-13.28,12.93-19.42,19.07-6.15,6.14-11.77,11.98-16.56,17.01-9.6,10.05-15.8,16.92-15.8,16.92l.39.38Z"/>
        <path class="cls-1" d="M153.68,599.19s4.64-7.37,11.59-18.42c7.03-11.01,16.26-25.76,25.79-40.32,2.39-3.63,4.79-7.26,7.2-10.79,2.43-3.52,4.74-7.04,7.01-10.41,2.21-3.41,4.34-6.71,6.29-9.89,1.98-3.15,3.85-6.13,5.58-8.88,1.74-2.73,3.34-5.24,4.77-7.46,1.43-2.21,2.72-4.11,3.82-5.63,1.09-1.54,2.03-2.65,2.69-3.41.71-.69,1.09-1.06,1.09-1.06l-.28-.47s-.5.28-1.42.8c-.87.59-2.12,1.51-3.54,2.84-1.45,1.31-3.09,2.99-4.89,4.98-1.8,2-3.77,4.3-5.81,6.88-2.06,2.57-4.2,5.41-6.4,8.46-2.22,3.03-4.45,6.31-6.68,9.74-2.17,3.47-4.41,7.06-6.57,10.77-2.17,3.71-4.38,7.47-6.58,11.23-8.82,15.04-17.47,30.17-23.73,41.64-6.32,11.43-10.39,19.14-10.39,19.14l.48.27Z"/>
        <path class="cls-1" d="M241.63,645.07s5.59-37.49,11.19-74.97c1.45-9.36,2.9-18.72,4.26-27.5.58-4.4,1.15-8.65,1.68-12.69.49-4.04.96-7.86,1.38-11.38.81-7.05,1.48-12.94,1.96-17.05.25-2.06.43-3.68.66-4.74.19-1.09.3-1.67.3-1.67l-.34-.14s-.2.56-.57,1.62c-.43,1.07-.78,2.66-1.31,4.68-.56,2.02-1.08,4.48-1.67,7.32-.6,2.83-1.27,6.03-1.92,9.53-.68,3.5-1.32,7.29-1.99,11.31-.71,4.01-1.27,8.27-1.96,12.66-1.18,8.81-2.26,18.23-3.38,27.64-2.27,18.82-4.53,37.64-6.05,51.77-1.55,14.13-2.59,23.55-2.59,23.55l.36.05Z"/>
        <path class="cls-1" d="M267.11,647.7s.36-9.21.91-23.03c.59-13.82,1.18-32.24,1.83-50.67.35-9.21.75-18.42.98-27.06.04-4.32.14-8.5.11-12.46,0-3.96-.03-7.71-.08-11.17-.04-3.46-.17-6.63-.23-9.44-.06-2.81-.15-5.26-.26-7.28-.17-4.04-.33-6.35-.33-6.35h-.37s-.26,2.29-.58,6.32c-.19,2.01-.37,4.46-.55,7.26-.17,2.8-.43,5.97-.6,9.42-.2,3.45-.38,7.19-.53,11.15-.19,3.96-.25,8.13-.38,12.45-.11,8.64-.07,17.86-.1,27.08-.08,18.44-.22,36.87-.18,50.7,0,13.83,0,23.05,0,23.05h.37Z"/>
        <path class="cls-1" d="M290.37,641.52s-.55-8.85-1.38-22.13c-.81-13.28-2.13-30.97-3.38-48.67-.29-4.42-.58-8.85-.87-13.21-.24-4.36-.6-8.64-.92-12.79-.4-4.14-.82-8.13-1.33-11.91-.47-3.78-.97-7.36-1.47-10.65-1.94-13.17-4-21.89-4-21.89l-.55.05s-.39,8.94.17,22.25c.12,3.33.31,6.93.55,10.73.21,3.81.54,7.81.92,11.95.46,4.13.92,8.4,1.49,12.73.54,4.33,1.08,8.74,1.62,13.14,2.1,17.62,4.11,35.24,5.81,48.43,1.67,13.2,2.78,22,2.78,22l.55-.05Z"/>
        <path class="cls-1" d="M319.49,627.21s-2.1-7.79-5.25-19.47c-3.11-11.69-7.46-27.23-11.73-42.79-2.12-7.78-4.19-15.58-6.26-22.85-1.11-3.61-2.12-7.12-3.21-10.42-1.05-3.3-2.07-6.42-3.05-9.28-.95-2.87-1.92-5.48-2.73-7.8-.81-2.32-1.54-4.34-2.18-5.99-1.23-3.31-2.01-5.19-2.01-5.19l-.35.11s.37,1.99,1.12,5.45c.36,1.73.83,3.83,1.41,6.22.58,2.39,1.17,5.11,1.93,8.04.73,2.94,1.56,6.11,2.46,9.45.87,3.36,1.93,6.86,2.94,10.5,2.2,7.23,4.68,14.91,7.11,22.6,4.83,15.39,9.6,30.81,13.31,42.32,3.68,11.53,6.13,19.21,6.13,19.21l.35-.1Z"/>
        <path class="cls-1" d="M346.87,640.12s-3.52-9.29-8.78-23.23c-5.23-13.95-12.39-32.48-19.49-51.03-3.53-9.28-7.01-18.59-10.4-27.25-1.78-4.3-3.42-8.49-5.11-12.41-1.65-3.93-3.24-7.64-4.74-11.05-1.48-3.42-2.92-6.52-4.15-9.28-1.23-2.77-2.34-5.16-3.28-7.12-1.84-3.94-2.96-6.17-2.96-6.17l-.34.14s.73,2.38,2.11,6.51c.67,2.08,1.52,4.58,2.53,7.43,1.01,2.85,2.1,6.1,3.38,9.59,1.26,3.51,2.66,7.29,4.18,11.28,1.48,4,3.17,8.17,4.85,12.51,3.51,8.62,7.39,17.76,11.22,26.92,7.63,18.33,15.2,36.69,21.01,50.4,5.78,13.73,9.63,22.88,9.63,22.88l.34-.14Z"/>
        <path class="cls-1" d="M153.8,271.38s5.31,7.58,13.13,19.04c3.87,5.76,8.38,12.47,13.22,19.66,4.79,7.22,9.87,14.94,14.79,22.76,4.97,7.78,9.63,15.76,14.13,23.13,2.33,3.64,4.45,7.23,6.64,10.53,1.09,1.65,2.11,3.28,3.07,4.87,1,1.57,1.96,3.09,2.89,4.55,1.89,2.9,3.49,5.62,4.99,8,1.53,2.37,2.81,4.46,3.83,6.2,2.08,3.47,3.37,5.43,3.37,5.43l.51-.22s-.7-2.22-2.1-6.06c-.35-.96-.74-2.03-1.17-3.18-.49-1.13-1.01-2.35-1.58-3.65-1.17-2.59-2.39-5.57-4.01-8.66-1.58-3.11-3.23-6.53-5.23-9.99-1.94-3.49-4.01-7.17-6.35-10.84-2.38-3.65-4.78-7.46-7.43-11.18-2.61-3.76-5.21-7.59-7.9-11.37-5.29-7.62-10.72-15.12-15.84-22.14-5.11-7.02-10.02-13.48-14.24-18.99-8.44-11.04-14.28-18.22-14.28-18.22l-.44.33Z"/>
        <path class="cls-1" d="M137.98,299.62s5.69,6.59,14.22,16.48c8.47,9.94,19.88,23.09,31,36.45,2.77,3.35,5.54,6.7,8.21,10.04,2.66,3.35,5.34,6.59,7.9,9.75,2.61,3.12,5.15,6.11,7.61,8.91,2.44,2.82,4.74,5.48,6.87,7.94,2.1,2.47,4.03,4.73,5.74,6.74,1.69,2.02,3.13,3.8,4.27,5.3,1.15,1.5,1.94,2.72,2.48,3.57.46.88.7,1.35.7,1.35l.54-.13s-.12-.56-.34-1.6c-.31-1-.83-2.47-1.68-4.22-.83-1.76-1.95-3.83-3.33-6.14-1.38-2.3-3.01-4.86-4.88-7.57-1.86-2.72-3.94-5.6-6.22-8.6-2.25-3.01-4.74-6.1-7.36-9.24-2.69-3.09-5.46-6.28-8.38-9.43-2.91-3.16-5.86-6.37-8.81-9.59-11.8-12.84-23.73-25.54-32.87-34.88-9.08-9.39-15.26-15.54-15.26-15.54l-.4.38Z"/>
        <path class="cls-1" d="M110.56,310.95s29.08,24.31,58.15,48.63c7.24,6.11,14.47,12.23,21.25,17.96,3.45,2.79,6.79,5.49,9.95,8.05,3.19,2.53,6.21,4.91,9,7.11,5.6,4.37,10.26,8.01,13.53,10.56,1.62,1.29,2.92,2.29,3.7,3.03.83.73,1.27,1.12,1.27,1.12l.3-.21s-.38-.47-1.09-1.34c-.69-.93-1.87-2.05-3.31-3.56-1.43-1.53-3.27-3.26-5.38-5.24-2.1-1.99-4.48-4.23-7.13-6.61-2.63-2.4-5.54-4.93-8.62-7.6-3.06-2.7-6.4-5.4-9.79-8.27-6.9-5.6-14.37-11.43-21.82-17.29-14.88-11.75-29.76-23.48-41.03-32.15-11.25-8.69-18.75-14.49-18.75-14.49l-.23.29Z"/>
        <path class="cls-1" d="M101,325.31s7.37,5.54,18.43,13.84c11.04,8.34,25.86,19.3,40.65,30.31,7.38,5.52,14.73,11.09,21.71,16.19,3.53,2.49,6.91,4.95,10.18,7.17,3.26,2.25,6.36,4.36,9.24,6.28,2.86,1.94,5.55,3.63,7.89,5.18,2.35,1.54,4.41,2.87,6.14,3.92,3.41,2.16,5.41,3.33,5.41,3.33l.21-.3s-1.75-1.52-4.87-4.08c-1.55-1.3-3.46-2.84-5.66-4.58-2.21-1.74-4.67-3.75-7.41-5.86-2.73-2.12-5.71-4.4-8.88-6.77-3.15-2.41-6.55-4.83-10.03-7.39-7.05-5-14.65-10.21-22.23-15.47-15.12-10.54-30.21-21.14-41.61-28.97-11.38-7.86-18.96-13.1-18.96-13.1l-.21.3Z"/>
        <path class="cls-1" d="M92.57,347.09s7.6,4.58,19,11.44c11.38,6.89,26.69,15.85,41.96,24.89,3.81,2.28,7.61,4.55,11.36,6.79,3.73,2.28,7.45,4.42,11.04,6.51,3.63,2.02,7.16,3.95,10.56,5.68,3.38,1.76,6.6,3.39,9.59,4.84,11.94,5.89,20.28,9.15,20.28,9.15l.27-.48s-7.13-5.41-18.4-12.51c-2.81-1.79-5.88-3.69-9.14-5.65-3.25-1.99-6.73-4-10.36-6.03-3.66-1.97-7.43-4.02-11.32-6.01-3.87-2.02-7.8-4.08-11.73-6.13-15.68-8.29-31.33-16.65-43.15-22.76-11.81-6.13-19.69-10.22-19.69-10.22l-.27.48Z"/>
        <path class="cls-1" d="M86.14,371.87s7.92,3.93,19.8,9.82c11.86,5.93,27.77,13.64,43.65,21.42,7.93,3.91,15.84,7.87,23.32,11.44,3.78,1.7,7.39,3.43,10.88,4.93,3.47,1.54,6.78,2.95,9.84,4.23,3.05,1.3,5.89,2.4,8.39,3.42,2.5,1.02,4.68,1.88,6.51,2.55,3.62,1.39,5.72,2.12,5.72,2.12l.17-.36s-1.9-1.15-5.29-3.04c-1.68-.97-3.75-2.1-6.13-3.36-2.38-1.26-5.05-2.74-8-4.25-2.94-1.53-6.15-3.15-9.55-4.84-3.39-1.72-7.03-3.39-10.76-5.2-7.53-3.45-15.64-6.98-23.72-10.57-16.15-7.2-32.26-14.48-44.42-19.78-12.14-5.35-20.23-8.91-20.23-8.91l-.17.37Z"/>
        <path class="cls-1" d="M81.18,389.98s7.86,2.97,19.65,7.42c11.77,4.49,27.54,10.29,43.28,16.16,7.86,2.95,15.71,5.95,23.12,8.63,3.73,1.26,7.31,2.55,10.75,3.65,3.43,1.13,6.68,2.17,9.69,3.1,3,.95,5.79,1.73,8.24,2.47,2.45.74,4.6,1.35,6.38,1.83,3.55.99,5.6,1.49,5.6,1.49l.12-.34s-1.91-.9-5.29-2.36c-1.68-.75-3.74-1.62-6.12-2.59-2.37-.96-5.03-2.11-7.96-3.25-2.93-1.17-6.11-2.41-9.49-3.68-3.37-1.3-6.96-2.55-10.66-3.91-7.45-2.56-15.44-5.16-23.41-7.8-15.93-5.32-31.84-10.7-43.83-14.6-11.97-3.93-19.95-6.56-19.95-6.56l-.12.34Z"/>
        <path class="cls-1" d="M160.25,612.57s5.26-7.61,13.29-18.93c4.05-5.63,8.78-12.2,13.84-19.23,5.11-7,10.58-14.45,16.19-21.78,5.57-7.37,11.42-14.51,16.77-21.29,2.6-3.45,5.23-6.69,7.56-9.89,1.17-1.6,2.35-3.12,3.5-4.58,1.13-1.49,2.21-2.92,3.26-4.29,2.05-2.78,4.06-5.23,5.76-7.47,1.69-2.25,3.2-4.19,4.48-5.74,2.53-3.15,3.92-5.04,3.92-5.04l-.38-.39s-1.84,1.43-4.96,4.07c-.78.67-1.64,1.4-2.57,2.21-.89.85-1.85,1.76-2.88,2.75-2.02,1.99-4.39,4.18-6.72,6.77-2.37,2.57-5,5.3-7.55,8.38-2.59,3.04-5.33,6.25-7.96,9.72-2.59,3.5-5.33,7.07-7.9,10.85-2.62,3.75-5.3,7.53-7.91,11.36-5.3,7.61-10.45,15.31-15.25,22.55-4.8,7.23-9.15,14.08-12.85,19.96-7.41,11.75-12.12,19.72-12.12,19.72l.46.3Z"/>
        <path class="cls-1" d="M203.24,624.67s3.08-8.14,7.71-20.36c4.7-12.19,10.82-28.48,17.27-44.63,1.63-4.03,3.25-8.06,4.91-12,1.68-3.93,3.25-7.84,4.8-11.6,1.49-3.78,2.92-7.44,4.2-10.94,1.31-3.48,2.56-6.78,3.7-9.82,1.17-3.03,2.24-5.8,3.19-8.26.96-2.45,1.85-4.56,2.62-6.28.76-1.72,1.47-3.01,1.96-3.88.56-.82.86-1.26.86-1.26l-.37-.41s-.43.37-1.24,1.06c-.74.75-1.78,1.91-2.91,3.49-1.16,1.57-2.44,3.54-3.81,5.85-1.37,2.32-2.84,4.96-4.33,7.89-1.51,2.93-3.04,6.14-4.59,9.56-1.58,3.41-3.11,7.07-4.62,10.88-1.44,3.83-2.92,7.79-4.29,11.86-1.39,4.06-2.81,8.18-4.22,12.31-5.66,16.49-11.13,33.03-14.99,45.52-3.92,12.46-6.38,20.82-6.38,20.82l.53.18Z"/>
        <g>
          <path class="cls-6" d="M374.8,436.62c-7.1,1.36-15.46-1.41-16.1-4.76-.62-3.21,6.11-9,13.22-10.36,7.1-1.36,11.71,1.27,12.51,5.45.79,4.17-2.52,8.31-9.62,9.67Z"/>
          <path class="cls-4" d="M379.06,425.85c-.98.19-1.88-.17-2-.8-.12-.63.58-1.29,1.56-1.48s1.88.17,2,.8c.12.63-.58,1.29-1.56,1.48Z"/>
        </g>
        <g>
          <path class="cls-6" d="M354.62,429.02c-5.23,2.08-12.02,1.18-13-1.28-.94-2.37,3.36-7.77,8.59-9.85,5.23-2.07,9.13-.74,10.35,2.34,1.22,3.07-.71,6.72-5.94,8.79Z"/>
          <path class="cls-4" d="M356.31,420.17c-.72.29-1.46.14-1.64-.32-.18-.46.26-1.08.98-1.36.72-.29,1.46-.14,1.64.32s-.25,1.07-.98,1.36Z"/>
        </g>
        <g>
          <path class="cls-6" d="M373.08,451.51c-4.48-.03-9.22-2.72-9.21-4.83.01-2.03,4.79-4.73,9.28-4.7,4.48.03,6.96,2.18,6.94,4.81-.02,2.63-2.53,4.75-7.01,4.71Z"/>
          <path class="cls-4" d="M376.96,445.48c-.62,0-1.12-.33-1.12-.72,0-.4.51-.71,1.12-.71.62,0,1.12.33,1.12.73,0,.4-.5.71-1.12.71Z"/>
        </g>
        <g>
          <path class="cls-6" d="M360.71,467.57c-5.57-.77-11.05-4.89-10.69-7.52.35-2.52,6.75-5.11,12.32-4.35,5.57.77,8.31,3.85,7.86,7.13-.45,3.27-3.92,5.5-9.5,4.74Z"/>
          <path class="cls-4" d="M366.53,460.69c-.77-.11-1.34-.59-1.28-1.09.07-.5.75-.81,1.52-.7.78.11,1.34.59,1.27,1.09-.07.49-.75.81-1.52.7Z"/>
        </g>
        <g>
          <path class="cls-6" d="M387.27,463.66c-4.44.58-9.51-1.44-9.78-3.54-.26-2.01,4.11-5.34,8.55-5.91,4.44-.58,7.19,1.22,7.53,3.83.34,2.61-1.86,5.04-6.3,5.62Z"/>
          <path class="cls-4" d="M390.3,457.16c-.62.08-1.15-.18-1.21-.57-.05-.4.41-.78,1.02-.86.61-.08,1.15.17,1.21.57.05.39-.41.78-1.02.86Z"/>
        </g>
        <g>
          <path class="cls-6" d="M350.77,403.06c-4.15,1.68-7.57,5.92-6.78,7.88.76,1.88,6.2,2.63,10.36.95,4.15-1.68,5.67-4.59,4.68-7.03-.99-2.44-4.1-3.48-8.25-1.8Z"/>
          <path class="cls-4" d="M356.6,407.23c-.57.23-.92.72-.77,1.09.15.37.74.48,1.31.25.58-.23.92-.72.77-1.09-.15-.37-.73-.48-1.31-.25Z"/>
        </g>
        <g>
          <path class="cls-6" d="M353.54,363.74c-4.66,3.15-7.75,9.27-6.27,11.46,1.43,2.11,8.31,1.61,12.97-1.54,4.66-3.15,5.76-7.13,3.91-9.87-1.85-2.74-5.95-3.2-10.61-.06Z"/>
          <path class="cls-4" d="M361.79,367.34c-.64.44-.94,1.13-.66,1.54.28.42,1.03.4,1.67-.04.64-.44.94-1.13.66-1.54-.28-.41-1.03-.4-1.67.04Z"/>
        </g>
        <g>
          <path class="cls-6" d="M333.75,388.48c-3.72,2.49-6.21,7.34-5.03,9.1,1.12,1.68,6.61,1.31,10.33-1.17,3.72-2.49,4.61-5.65,3.15-7.84-1.46-2.19-4.72-2.58-8.45-.08Z"/>
          <path class="cls-4" d="M340.31,391.38c-.51.34-.75.89-.54,1.22.22.33.82.32,1.33-.03.52-.35.75-.89.54-1.22-.22-.33-.82-.32-1.33.03Z"/>
        </g>
        <g>
          <path class="cls-6" d="M348.21,491.11c-3.83-2.32-6.54-7.05-5.45-8.86,1.05-1.73,6.54-1.61,10.37.71,3.84,2.32,4.87,5.43,3.5,7.68-1.36,2.25-4.6,2.78-8.43.47Z"/>
          <path class="cls-4" d="M354.63,487.91c-.53-.32-.79-.85-.59-1.19.21-.34.8-.36,1.33-.04.53.32.79.85.59,1.2-.21.34-.8.35-1.33.03Z"/>
        </g>
        <g>
          <path class="cls-6" d="M356.67,514.07c-4.33-2.62-7.38-7.96-6.15-10.01,1.18-1.96,7.39-1.82,11.72.8,4.33,2.62,5.5,6.14,3.96,8.68-1.54,2.54-5.2,3.15-9.53.53Z"/>
          <path class="cls-4" d="M363.92,510.46c-.6-.36-.9-.97-.66-1.35.23-.38.91-.4,1.5-.04.6.36.89.97.66,1.35-.23.38-.9.4-1.5.04Z"/>
        </g>
        <g>
          <path class="cls-6" d="M322.1,529.88c-2.26-3.86-2.38-9.32-.56-10.38,1.75-1.02,6.52,1.71,8.78,5.57,2.26,3.87,1.68,7.1-.59,8.43s-5.37.25-7.63-3.61Z"/>
          <path class="cls-4" d="M329.26,530.13c-.31-.53-.29-1.13.05-1.33.34-.2.87.07,1.19.6.31.53.29,1.13-.06,1.33-.34.2-.87-.07-1.18-.6Z"/>
        </g>
        <g>
          <path class="cls-6" d="M334.45,547.45c-1.72-4.14-1.09-9.55.86-10.36,1.87-.78,6.23,2.58,7.94,6.71,1.72,4.14.71,7.26-1.72,8.27-2.43,1.01-5.36-.48-7.08-4.62Z"/>
          <path class="cls-4" d="M341.52,548.68c-.24-.57-.13-1.16.23-1.31.37-.15.86.19,1.09.76.24.57.13,1.16-.23,1.31-.37.15-.85-.19-1.09-.76Z"/>
        </g>
        <g>
          <path class="cls-6" d="M305.55,531.17c-2.26-3.86-2.38-9.32-.56-10.38,1.75-1.02,6.52,1.7,8.78,5.57,2.26,3.87,1.69,7.1-.59,8.42-2.27,1.33-5.37.26-7.63-3.61Z"/>
          <path class="cls-4" d="M312.71,531.43c-.31-.54-.29-1.13.05-1.33.34-.2.87.07,1.18.6.31.54.29,1.13-.05,1.33-.34.2-.87-.07-1.19-.61Z"/>
        </g>
        <g>
          <path class="cls-6" d="M292.32,548.68c-1.11-5.51.97-12.04,3.57-12.57,2.49-.51,7.05,4.68,8.17,10.2,1.12,5.52-.89,9.12-4.13,9.77-3.24.65-6.49-1.89-7.61-7.4Z"/>
          <path class="cls-4" d="M300.73,551.9c-.15-.76.12-1.46.61-1.56.49-.1,1.01.44,1.16,1.2.15.77-.12,1.46-.61,1.56-.49.1-1.01-.44-1.16-1.2Z"/>
        </g>
        <g>
          <path class="cls-6" d="M275.95,556.22c.46-4.46,3.59-8.92,5.69-8.71,2.01.21,4.25,5.23,3.79,9.68-.46,4.46-2.84,6.72-5.46,6.45-2.62-.27-4.48-2.97-4.03-7.43Z"/>
          <path class="cls-4" d="M281.58,560.66c.06-.62.43-1.08.83-1.04.39.04.66.57.6,1.19-.06.61-.44,1.08-.83,1.04-.39-.04-.66-.57-.6-1.19Z"/>
        </g>
        <g>
          <path class="cls-6" d="M253.61,549.5c.79-4.74,4.43-9.31,6.66-8.94,2.14.35,4.2,5.87,3.42,10.61-.79,4.74-3.48,7-6.26,6.55-2.78-.46-4.6-3.47-3.82-8.21Z"/>
          <path class="cls-4" d="M259.34,554.62c.11-.65.54-1.13.96-1.06.42.07.67.66.56,1.31-.11.65-.54,1.13-.96,1.06-.42-.07-.67-.66-.56-1.31Z"/>
        </g>
        <g>
          <path class="cls-6" d="M237.9,535.26c1.18-4.65,5.19-8.91,7.38-8.35,2.1.54,3.7,6.21,2.52,10.86-1.18,4.66-4.05,6.69-6.79,5.99-2.73-.69-4.29-3.84-3.11-8.5Z"/>
          <path class="cls-4" d="M243.18,540.85c.16-.64.63-1.08,1.04-.98.41.1.61.71.45,1.36-.16.64-.63,1.08-1.04.97-.41-.11-.62-.71-.45-1.35Z"/>
        </g>
        <g>
          <path class="cls-6" d="M237.9,535.26c1.18-4.65,5.19-8.91,7.38-8.35,2.1.54,3.7,6.21,2.52,10.86-1.18,4.66-4.05,6.69-6.79,5.99-2.73-.69-4.29-3.84-3.11-8.5Z"/>
          <path class="cls-4" d="M243.18,540.85c.16-.64.63-1.08,1.04-.98.41.1.61.71.45,1.36-.16.64-.63,1.08-1.04.97-.41-.11-.62-.71-.45-1.35Z"/>
        </g>
        <g>
          <path class="cls-6" d="M224.86,524.35c1.61-3.44,5.37-6.15,6.99-5.39,1.55.73,1.95,5.38.34,8.82-1.61,3.45-4.15,4.6-6.17,3.65-2.02-.95-2.76-3.63-1.16-7.08Z"/>
          <path class="cls-4" d="M228.13,529.48c.22-.48.65-.75.96-.61.3.14.37.64.15,1.12-.22.48-.65.75-.96.61-.31-.14-.37-.65-.15-1.12Z"/>
        </g>
        <g>
          <path class="cls-6" d="M204.29,518.42c2.53-4.6,7.94-8,10.11-6.8,2.08,1.14,2.2,7.58-.32,12.18-2.53,4.6-6.13,5.96-8.83,4.48-2.7-1.49-3.49-5.25-.96-9.85Z"/>
          <path class="cls-4" d="M208.34,525.79c.35-.64.96-.97,1.37-.75.41.22.45.92.1,1.56-.35.64-.96.97-1.37.75-.41-.22-.45-.92-.1-1.56Z"/>
        </g>
        <g>
          <path class="cls-6" d="M197.6,502.91c2.53-4.6,7.56-8.21,9.43-7.18,1.79.99,1.51,7.21-1.01,11.81-2.53,4.6-5.82,6.13-8.14,4.86-2.32-1.28-2.8-4.87-.27-9.48Z"/>
          <path class="cls-4" d="M200.77,509.79c.35-.64.92-1,1.27-.81.35.19.35.86,0,1.5-.35.64-.92.99-1.27.8-.35-.19-.35-.86,0-1.5Z"/>
        </g>
        <g>
          <path class="cls-6" d="M171.04,505.17c3.01-3.97,8.56-6.41,10.44-4.99,1.79,1.36,1.02,7.42-1.99,11.39-3.01,3.97-6.58,4.74-8.91,2.98-2.33-1.77-2.54-5.41.47-9.38Z"/>
          <path class="cls-4" d="M173.82,512.64c.42-.55,1.04-.78,1.39-.51.35.26.3.93-.12,1.47-.41.55-1.04.78-1.39.51-.35-.27-.3-.93.12-1.47Z"/>
        </g>
        <g>
          <path class="cls-6" d="M160.23,490.8c4.63-2.47,11.02-2.35,12.19-.17,1.12,2.1-2.3,7.56-6.94,10.03-4.63,2.47-8.39,1.64-9.84-1.08-1.45-2.72-.05-6.3,4.59-8.78Z"/>
          <path class="cls-4" d="M159.6,499.18c.64-.34,1.34-.29,1.56.12.22.41-.12,1.02-.77,1.36-.64.35-1.33.29-1.55-.12-.22-.41.12-1.02.76-1.36Z"/>
        </g>
        <g>
          <path class="cls-6" d="M150.23,473.89c4.09-1.11,9.1.12,9.62,2.05.5,1.85-3.17,5.54-7.25,6.65-4.09,1.12-6.9-.21-7.56-2.62-.65-2.4,1.09-4.97,5.18-6.09Z"/>
          <path class="cls-4" d="M148.23,480.38c.57-.15,1.11.01,1.21.38.1.36-.28.78-.85.93-.56.16-1.1-.01-1.2-.38-.1-.36.28-.78.84-.93Z"/>
        </g>
        <g>
          <path class="cls-6" d="M163.86,452.43c4.23-.27,8.89,1.96,9.02,3.95.12,1.91-4.22,4.78-8.45,5.05-4.23.27-6.72-1.6-6.87-4.09-.15-2.49,2.08-4.65,6.3-4.91Z"/>
          <path class="cls-4" d="M160.6,458.37c.59-.04,1.08.24,1.1.61.02.38-.43.71-1.02.75-.59.04-1.08-.24-1.1-.61-.02-.38.44-.71,1.02-.75Z"/>
        </g>
        <g>
          <path class="cls-6" d="M156.15,434.56c5.54.89,10.92,5.12,10.5,7.74-.4,2.5-6.85,4.95-12.39,4.06-5.54-.89-8.21-4.03-7.69-7.29.52-3.26,4.03-5.4,9.58-4.51Z"/>
          <path class="cls-4" d="M150.19,441.3c.77.12,1.32.62,1.25,1.11-.08.49-.76.79-1.53.66-.77-.12-1.32-.62-1.25-1.11.08-.49.76-.79,1.53-.67Z"/>
        </g>
        <g>
          <path class="cls-6" d="M132.86,434.07c4.24.18,8.64,2.87,8.56,4.87-.08,1.91-4.7,4.31-8.93,4.14-4.24-.18-6.51-2.29-6.41-4.78.11-2.49,2.55-4.41,6.78-4.23Z"/>
          <path class="cls-4" d="M128.99,439.64c.59.03,1.05.35,1.03.72-.02.37-.5.66-1.09.63-.59-.02-1.05-.35-1.03-.72.02-.38.5-.66,1.09-.63Z"/>
        </g>
        <g>
          <path class="cls-6" d="M336.76,357.63c-3.24,3.22-4.78,8.54-3.26,10.07,1.46,1.46,6.87.01,10.12-3.21,3.24-3.21,3.51-6.54,1.62-8.44-1.89-1.9-5.23-1.64-8.47,1.57Z"/>
          <path class="cls-4" d="M343.9,359.23c-.45.44-.58,1.04-.3,1.32.29.29.88.16,1.33-.29.45-.44.58-1.04.29-1.32-.29-.28-.88-.15-1.33.29Z"/>
        </g>
        <g>
          <path class="cls-6" d="M310.3,371.8c-2.35,2.62-3.42,7.02-2.28,8.3,1.09,1.23,5.07.1,7.42-2.53,2.35-2.62,2.51-5.38,1.09-6.97-1.42-1.59-3.88-1.42-6.23,1.2Z"/>
          <path class="cls-4" d="M315.58,373.21c-.33.36-.42.85-.2,1.09.22.24.65.14.98-.22.33-.36.42-.85.2-1.09-.21-.24-.65-.14-.97.22Z"/>
        </g>
        <g>
          <path class="cls-6" d="M321,349.91c-2.91,3.75-4.16,10.11-2.68,11.99,1.41,1.81,6.43.26,9.35-3.49,2.92-3.75,3.05-7.74,1.21-10.09-1.84-2.35-4.96-2.16-7.87,1.59Z"/>
          <path class="cls-4" d="M327.73,352.1c-.4.52-.5,1.22-.23,1.58.28.35.83.22,1.23-.3.4-.52.5-1.23.23-1.58-.28-.35-.83-.22-1.23.3Z"/>
        </g>
        <g>
          <path class="cls-6" d="M291.44,365.05c-3.83,4.27-5.57,11.44-3.71,13.52,1.78,2,8.26.16,12.09-4.12,3.83-4.27,4.09-8.76,1.78-11.36-2.31-2.59-6.32-2.32-10.15,1.96Z"/>
          <path class="cls-4" d="M300.05,367.35c-.53.59-.68,1.39-.33,1.78.35.39,1.06.23,1.59-.36s.68-1.39.33-1.78-1.06-.23-1.59.36Z"/>
        </g>
        <g>
          <path class="cls-6" d="M310.3,371.8c-2.35,2.62-3.42,7.02-2.28,8.3,1.09,1.23,5.07.1,7.42-2.53,2.35-2.62,2.51-5.38,1.09-6.97-1.42-1.59-3.88-1.42-6.23,1.2Z"/>
          <path class="cls-4" d="M315.58,373.21c-.33.36-.42.85-.2,1.09.22.24.65.14.98-.22.33-.36.42-.85.2-1.09-.21-.24-.65-.14-.97.22Z"/>
        </g>
        <g>
          <path class="cls-6" d="M301.89,347.28c-2.35,2.62-3.42,7.02-2.28,8.3,1.09,1.23,5.07.09,7.42-2.53,2.35-2.62,2.51-5.38,1.09-6.97-1.42-1.59-3.88-1.42-6.23,1.2Z"/>
          <path class="cls-4" d="M307.17,348.7c-.33.36-.41.85-.2,1.09.21.24.65.14.97-.22.33-.36.42-.85.2-1.09-.21-.24-.65-.14-.98.22Z"/>
        </g>
        <g>
          <path class="cls-6" d="M262.39,357.64c-2.31,3.73-2.66,9.36-.98,10.68,1.61,1.27,6.24-.99,8.55-4.72,2.31-3.73,1.9-7.14-.18-8.79-2.09-1.64-5.07-.9-7.38,2.84Z"/>
          <path class="cls-4" d="M269.18,358.22c-.32.52-.33,1.13,0,1.39.32.25.83.03,1.15-.49.32-.52.32-1.13,0-1.38-.32-.25-.83-.03-1.15.48Z"/>
        </g>
        <g>
          <path class="cls-6" d="M280.99,346.61c-2.84,4.36-3.43,11.04-1.49,12.68,1.86,1.57,7.4-.95,10.25-5.3,2.84-4.36,2.47-8.44.05-10.47-2.42-2.04-5.96-1.26-8.81,3.1Z"/>
          <path class="cls-4" d="M288.99,347.56c-.39.6-.42,1.34-.05,1.65.36.31.98.07,1.37-.54.39-.6.42-1.34.05-1.65-.37-.31-.98-.07-1.37.54Z"/>
        </g>
        <g>
          <path class="cls-6" d="M226.01,349.41c1.41,5.34,6.25,10.54,8.91,10.15,2.55-.37,4.5-6.56,3.09-11.91-1.41-5.34-4.88-7.93-8.19-7.44-3.31.48-5.21,3.86-3.81,9.2Z"/>
          <path class="cls-4" d="M232.42,343.71c.2.74.76,1.28,1.26,1.21.5-.08.74-.73.55-1.47-.2-.74-.76-1.28-1.26-1.21-.5.07-.74.73-.55,1.47Z"/>
        </g>
        <g>
          <path class="cls-6" d="M203.6,335.1c1.45,4.15,5.59,7.97,7.68,7.5,1.99-.45,3.16-5.48,1.72-9.62-1.44-4.14-4.35-5.98-6.94-5.4-2.6.58-3.9,3.37-2.46,7.52Z"/>
          <path class="cls-4" d="M208.34,330.19c.2.57.68.97,1.07.88.39-.09.55-.63.35-1.2-.2-.57-.68-.96-1.07-.88-.39.09-.55.63-.35,1.2Z"/>
        </g>
        <g>
          <path class="cls-6" d="M188.51,353.87c2.23,3.78,7.05,6.71,9,5.84,1.87-.84,2.03-5.99-.2-9.77-2.23-3.78-5.45-5.01-7.87-3.92-2.43,1.09-3.16,4.07-.92,7.86Z"/>
          <path class="cls-4" d="M192.19,348.13c.31.52.86.82,1.22.65.36-.17.41-.72.1-1.25-.31-.52-.86-.81-1.22-.65-.37.17-.41.72-.11,1.24Z"/>
        </g>
        <g>
          <path class="cls-6" d="M203.6,335.1c1.45,4.15,5.59,7.97,7.68,7.5,1.99-.45,3.16-5.48,1.72-9.62-1.44-4.14-4.35-5.98-6.94-5.4-2.6.58-3.9,3.37-2.46,7.52Z"/>
          <path class="cls-4" d="M208.34,330.19c.2.57.68.97,1.07.88.39-.09.55-.63.35-1.2-.2-.57-.68-.96-1.07-.88-.39.09-.55.63-.35,1.2Z"/>
        </g>
        <g>
          <path class="cls-6" d="M202.09,374.72c2.02,3.72,6.66,6.84,8.65,6.17,1.9-.63,2.33-5.45.31-9.16-2.02-3.72-5.15-5.12-7.62-4.29-2.47.82-3.35,3.56-1.33,7.28Z"/>
          <path class="cls-4" d="M206.05,369.63c.28.51.81.83,1.18.71.37-.13.45-.64.17-1.16-.28-.51-.81-.83-1.18-.7-.37.12-.45.64-.17,1.15Z"/>
        </g>
        <g>
          <path class="cls-6" d="M183.88,420.77c4.02,1.35,7.5,5.16,6.86,7.05-.61,1.81-5.71,2.84-9.73,1.5-4.02-1.35-5.62-4.01-4.83-6.38.79-2.36,3.67-3.53,7.69-2.18Z"/>
          <path class="cls-4" d="M178.61,425.05c.56.19.91.63.79.98-.12.36-.67.49-1.22.3-.56-.18-.91-.62-.79-.98.12-.36.67-.49,1.22-.31Z"/>
        </g>
        <g>
          <path class="cls-6" d="M150.19,413.07c4.18,2.25,7.44,6.85,6.49,8.61-.91,1.69-6.58,1.58-10.76-.66-4.18-2.25-5.55-5.28-4.37-7.47,1.18-2.19,4.46-2.72,8.64-.47Z"/>
          <path class="cls-4" d="M143.9,416.19c.58.31.9.83.72,1.16-.18.33-.79.35-1.37.03-.58-.31-.9-.83-.72-1.16.18-.33.79-.35,1.37-.04Z"/>
        </g>
        <g>
          <path class="cls-6" d="M175.22,395.87c4.53,1.84,8.25,6.47,7.39,8.6-.83,2.04-6.77,2.86-11.29,1.02-4.52-1.83-6.17-5.01-5.09-7.67,1.08-2.66,4.47-3.79,8.99-1.95Z"/>
          <path class="cls-4" d="M168.86,400.41c.63.25,1,.78.84,1.19-.16.4-.8.52-1.43.26-.62-.25-1-.78-.84-1.18.16-.4.8-.52,1.43-.26Z"/>
        </g>
        <g>
          <path class="cls-6" d="M200.51,387.92c3.84,1.8,6.85,6,6,7.8-.81,1.73-6,2.16-9.84.36-3.83-1.8-5.12-4.63-4.06-6.89,1.06-2.25,4.06-3.08,7.89-1.28Z"/>
          <path class="cls-4" d="M194.79,391.56c.54.25.83.73.68,1.07-.16.34-.72.41-1.25.16-.53-.25-.83-.72-.67-1.07.16-.34.72-.41,1.25-.16Z"/>
        </g>
        <g>
          <path class="cls-6" d="M181.64,373.24c3.47,2.43,5.72,7.08,4.58,8.71-1.1,1.57-6.28,1.1-9.75-1.33-3.47-2.43-4.25-5.44-2.82-7.48,1.43-2.04,4.52-2.33,7.99.1Z"/>
          <path class="cls-4" d="M175.37,375.85c.48.34.7.86.48,1.16-.21.31-.78.28-1.26-.05-.48-.34-.7-.86-.48-1.17.22-.31.78-.29,1.26.05Z"/>
        </g>
      </g>
    </g>
  </g>
</svg>