<?xml version="1.0" encoding="UTF-8"?>
<svg id="Layer_2" data-name="Layer 2" xmlns="http://www.w3.org/2000/svg" width="1000.66" height="792.27" viewBox="0 0 1000.66 792.27">
  <defs>
    <style>
      .cls-1 {
        fill: #d6c926;
      }

      .cls-2 {
        fill: #efcd3f;
      }

      .cls-3 {
        fill: #55b648;
      }

      .cls-4 {
        fill: #51a346;
      }

      .cls-5 {
        fill: #eee30b;
      }

      .cls-6 {
        fill: #ffff98;
      }
    </style>
  </defs>
  <g id="Layer_1-2" data-name="Layer 1">
    <g>
      <g>
        <path class="cls-5" d="M629.27,105.36s-189.66,22.1-247.35,252.81c-15.56,62.2-61.13,238.47,117.13,346.6,0,0,4.51,42.47,28.02,51.79,5.52,2.18,12.68,3.9,20.32,4.4l126.56-674.33c-12.21-3.74-27.31-7.19-44.68,18.74Z"/>
        <path class="cls-1" d="M673.95,86.62l-126.56,674.33c18.76,1.21,40.42-4.96,47.76-29.86,0,0,195.54-61.12,245.85-261.64,42.32-168.72-19.35-296.53-132.3-348.28,0,0-3.28-26.24-28.25-32.63-2.06-.53-4.23-1.23-6.5-1.92Z"/>
      </g>
      <g>
        <path class="cls-3" d="M672.97,87.76s170.25,203.8,326.56-6.23l-324.99,4.55c-.52.57-1.05,1.12-1.57,1.69Z"/>
        <path class="cls-4" d="M674.53,86.07l324.99-4.55c.38-.51.76-1,1.14-1.52,0,0-149.63-183.98-326.13,6.07Z"/>
      </g>
      <g>
        <path class="cls-6" d="M410.06,315.01l-.25.36c-116.19-80.02-275.26-50.95-355.6,65.1C-26.22,496.68,2.76,656.1,118.98,736.54l.26-.37c115.98,80.04,274.93,51.25,355.45-64.53,80.68-116.05,51.42-275.92-64.63-356.63Z"/>
        <g>
          <path class="cls-2" d="M228.52,537.65s-143.73,26.77-156.47,33.82c0,0-27.44,21.14-6.13,52.08,21.27,30.94,50.82,82.27,85.69,44.02,34.86-38.28,86.1-113.04,86.1-113.04,0,0,6.03-20.37-9.18-16.88Z"/>
          <path class="cls-2" d="M236.52,508.31s-156.95-55.44-161.49-53.47c-4.58,2.02-43.36,23.3-25.35,78.84,0,0,.24,33.72,50.14,21.13,49.85-12.6,136.24-26.85,140.92-30.59,4.75-3.76,3.34-13.39-4.23-15.91Z"/>
          <path class="cls-2" d="M244.55,497.5c5.45-7.44-.57-15.67-6.76-25.57-6.08-9.85-84.59-108.73-94.79-113.5-10.2-4.72-39.42,14.8-47.07,24.04-7.67,9.23-51.63,58.74-5.68,67.09,45.93,8.31,146.25,58.89,154.3,47.94Z"/>
          <path class="cls-2" d="M258.42,482.1s9.34,8.77,13-42.55c3.5-26.12,11.87-123.15-10.79-128.74-22.66-5.6-119.56,14.04-98.55,49.83,20.99,35.85,88.64,119.92,96.34,121.46Z"/>
          <path class="cls-2" d="M277.65,479.15s8.02-148.92,12.4-159.11c4.42-10.25,28.48-5.02,33.68-4.27,5.18.72,66.5,17.37,47.71,44.45-18.8,27.05-83.88,136.55-93.79,118.93Z"/>
          <path class="cls-6" d="M238.62,416.35c-1.17.52.22,6.23,3.14,12.78,2.9,6.55,6.2,11.41,7.42,10.9,1.18-.51-.22-6.25-3.12-12.77-2.92-6.55-6.24-11.42-7.44-10.91Z"/>
          <path class="cls-6" d="M294.57,413.2c-1.24-.41-3.95,4.8-6.12,11.64-2.15,6.84-2.9,12.66-1.66,13.07,1.23.41,3.97-4.82,6.14-11.64,2.16-6.84,2.88-12.7,1.64-13.06Z"/>
          <path class="cls-6" d="M226.09,501.18c.37-1.23-4.94-3.8-11.85-5.74-6.88-1.91-12.73-2.47-13.11-1.23-.35,1.25,4.95,3.81,11.83,5.74,6.92,1.91,12.8,2.48,13.13,1.23Z"/>
          <path class="cls-6" d="M200.39,441.94c-.88.92,2.61,5.65,7.85,10.56,5.24,4.87,10.15,8.08,11.08,7.14.9-.92-2.63-5.65-7.84-10.55-5.24-4.89-10.2-8.11-11.09-7.15Z"/>
          <path class="cls-6" d="M219.64,552.39c-1.39-1.54-8.82,2.94-16.59,10.02-7.78,7.06-12.93,13.98-11.57,15.55,1.42,1.54,8.82-2.95,16.62-10,7.77-7.06,12.93-14.02,11.53-15.56Z"/>
          <path class="cls-6" d="M259.03,368.17c-1.6.32-1.61,7.18-.01,15.3,1.61,8.13,4.17,14.46,5.78,14.15,1.62-.31,1.63-7.17.04-15.29-1.61-8.14-4.21-14.48-5.81-14.16Z"/>
          <path class="cls-6" d="M169.28,457.2c-.75,1.44,4.66,5.66,12.05,9.42,7.4,3.74,13.97,5.59,14.74,4.13.73-1.47-4.66-5.69-12.07-9.42-7.4-3.75-13.97-5.6-14.72-4.13Z"/>
          <path class="cls-6" d="M145.03,389.12c-1.1,1.2,5.34,8.52,14.39,16.34,8.99,7.8,17.19,13.15,18.31,11.95,1.11-1.22-5.33-8.53-14.33-16.33-9.05-7.82-17.25-13.18-18.37-11.95Z"/>
          <path class="cls-6" d="M135.27,556.9c.64,1.51,9.98-1.21,20.87-6.1,10.91-4.87,19.2-10.03,18.59-11.56-.66-1.52-9.98,1.23-20.9,6.09-10.88,4.89-19.22,10.08-18.56,11.57Z"/>
          <path class="cls-6" d="M180.39,564.35c-.78-1.17-10.84,4.73-22.44,13.17-11.67,8.45-20.47,16.2-19.72,17.37.76,1.17,10.83-4.75,22.45-13.15,11.65-8.44,20.48-16.24,19.71-17.39Z"/>
          <path class="cls-6" d="M178.48,607.68c-1.04-.94-9.21,7.38-18.27,18.56-9.06,11.15-15.59,20.93-14.54,21.87,1.05.93,9.21-7.39,18.26-18.54,9.08-11.18,15.59-20.98,14.55-21.9Z"/>
          <path class="cls-6" d="M150.02,484.71c.22-1.38-11.17-3.79-25.47-5.39-14.3-1.62-26.02-1.82-26.28-.43-.22,1.37,11.2,3.77,25.47,5.39,14.29,1.59,26.05,1.81,26.28.44Z"/>
          <path class="cls-6" d="M135.15,518.01c.4-1.27-8.03-1.57-18.79-.68-10.8.89-19.83,2.62-20.24,3.89-.4,1.27,8.04,1.56,18.79.68,10.79-.9,19.86-2.63,20.25-3.9Z"/>
          <path class="cls-6" d="M179.04,515.16c.78-1.1-7.2-3.83-17.79-6.12-10.57-2.29-19.71-3.26-20.48-2.16-.76,1.1,7.23,3.83,17.78,6.12,10.58,2.28,19.76,3.25,20.49,2.16Z"/>
          <path class="cls-6" d="M292.01,379.2c1.46.54,6.22-10.12,10.67-23.8,4.44-13.67,6.87-25.17,5.42-25.72-1.45-.54-6.22,10.13-10.68,23.77-4.41,13.69-6.86,25.21-5.4,25.74Z"/>
          <path class="cls-6" d="M307.81,396.34c1.44.54,6.22-10.11,10.66-23.8,4.46-13.66,6.87-25.16,5.4-25.72-1.45-.55-6.21,10.13-10.67,23.77-4.44,13.7-6.86,25.22-5.39,25.75Z"/>
          <path class="cls-6" d="M220.37,341.87c-1.36.32.83,11.76,4.88,25.57,4,13.8,8.36,24.71,9.74,24.4,1.33-.34-.84-11.77-4.86-25.57-4.06-13.79-8.41-24.72-9.75-24.4Z"/>
        </g>
        <path class="cls-2" d="M266.42,563.4s25.26,144,23.11,158.41c0,0-10.19,33.11-46.63,23.98-36.43-9.09-94.86-18.79-71.24-64.85,23.65-46.06,75.74-120.23,75.74-120.23,0,0,16.96-12.78,19.02,2.69Z"/>
        <path class="cls-2" d="M291.1,545.63s106.89,127.59,106.63,132.54c-.29,5-6.64,48.78-64.98,51.35,0,0-31.67,11.59-37.34-39.57-5.66-51.11-22.56-137.02-20.7-142.71,1.86-5.76,11.38-7.82,16.39-1.61Z"/>
        <path class="cls-2" d="M298.41,534.33c5.05-7.71,14.88-4.96,26.31-2.62,11.35,2.25,131.47,41.16,139.51,49.05,7.99,7.9-.06,42.1-6.03,52.51-5.96,10.42-36.94,68.93-60.85,28.81-23.87-40.11-106.37-116.36-98.93-127.74Z"/>
        <path class="cls-2" d="M307.98,515.95s-11.48-5.68,35.3-27.08c23.24-12.43,111.19-54.24,124.37-34.98,13.18,19.26,28.72,116.9-12.16,109.76-40.93-7.11-143.37-41.04-147.5-47.71Z"/>
        <path class="cls-2" d="M304.01,496.9s136.68-59.66,144.69-67.33c8.05-7.73-5.27-28.44-7.79-33.04-2.48-4.6-39.56-56.21-58.34-29.12-18.76,27.08-98.53,126.38-78.56,129.5Z"/>
        <path class="cls-1" d="M419.15,302.92v-.02c-122.5-79.38-287.31-47.43-370.95,73.41-83.64,120.83-55.52,286.34,61.91,373.05l.28-.4c122.26,78.98,286.6,47.25,370.31-73.14,83.88-120.64,55.66-285.92-61.54-372.89ZM467.34,666.52c-78.78,113.3-233.5,143.11-348.48,68.58l-.23.33C9.17,653.7-16.8,498.77,61.57,385.56c78.54-113.46,233.14-143.57,348.28-69.34,109.87,81.85,136.27,237,57.49,350.3Z"/>
        <path class="cls-6" d="M376.5,511.47c-.08,1.28-5.91,1.97-13.07,1.53-7.15-.42-12.86-1.82-12.81-3.13.07-1.29,5.93-1.98,13.05-1.55,7.16.44,12.88,1.84,12.82,3.15Z"/>
        <path class="cls-6" d="M359.86,457.96c.82,1.02-3.11,5.38-8.76,9.81-5.66,4.41-10.85,7.15-11.66,6.14-.82-1.01,3.12-5.41,8.75-9.83,5.65-4.41,10.88-7.15,11.66-6.11Z"/>
        <path class="cls-6" d="M301.43,552.91c1.02-.78,5.29,3.29,9.53,9.09,4.2,5.78,6.77,11.06,5.74,11.85-1.05.76-5.31-3.3-9.52-9.07-4.21-5.81-6.8-11.12-5.74-11.86Z"/>
        <path class="cls-6" d="M365.92,556.24c-.56,1.15-6.21-.46-12.64-3.65-6.39-3.2-11.12-6.67-10.56-7.88.55-1.16,6.21.49,12.62,3.65,6.42,3.2,11.17,6.71,10.58,7.89Z"/>
        <path class="cls-6" d="M255.72,576.88c1.92.76.34,9.29-3.57,19.04-3.88,9.76-8.56,17.01-10.51,16.28-1.94-.79-.32-9.3,3.55-19.07,3.89-9.75,8.61-17.02,10.54-16.25Z"/>
        <path class="cls-6" d="M414.48,475.47c.26,1.62-6.16,4.03-14.33,5.37-8.18,1.34-15,1.16-15.28-.46-.28-1.63,6.15-4.04,14.31-5.4,8.19-1.34,15.04-1.12,15.3.49Z"/>
        <path class="cls-6" d="M362.52,590.72c-1.09,1.21-6.93-2.38-13.04-7.99-6.09-5.62-10.13-11.13-9.03-12.36,1.12-1.2,6.96,2.37,13.05,8,6.1,5.61,10.13,11.12,9.02,12.34Z"/>
        <path class="cls-6" d="M434.78,589.6c-.74,1.45-9.85-2.02-20.35-7.76-10.46-5.69-18.34-11.5-17.6-12.97.76-1.47,9.86,2.01,20.32,7.7,10.49,5.74,18.39,11.55,17.63,13.02Z"/>
        <path class="cls-6" d="M281.04,657.49c-1.64-.07-2.35-9.76-1.59-21.69.75-11.92,2.67-21.5,4.32-21.46,1.65.09,2.34,9.78,1.62,21.71-.77,11.9-2.71,21.53-4.35,21.44Z"/>
        <path class="cls-6" d="M258.26,617.83c1.37.32-.63,11.81-4.48,25.63-3.83,13.89-8,24.85-9.36,24.55-1.36-.3.65-11.8,4.45-25.63,3.83-13.87,8.04-24.87,9.39-24.55Z"/>
        <path class="cls-6" d="M218.35,634.8c1.24.64-3.68,11.21-10.99,23.61-7.27,12.39-14.14,21.93-15.4,21.28-1.24-.66,3.69-11.22,10.97-23.59,7.29-12.42,14.2-21.95,15.41-21.3Z"/>
        <path class="cls-6" d="M343.49,618.39c1.21-.69,7.46,9.14,13.97,21.97,6.52,12.82,10.81,23.74,9.61,24.47-1.2.68-7.46-9.18-13.97-21.97-6.49-12.82-10.81-23.77-9.61-24.47Z"/>
        <path class="cls-6" d="M317.51,643.99c1.05-.82,4.28,6.97,7.22,17.37,2.95,10.43,4.49,19.49,3.44,20.33-1.04.82-4.27-6.99-7.22-17.36-2.94-10.42-4.49-19.53-3.44-20.33Z"/>
        <path class="cls-6" d="M304.81,601.88c.76-1.11,6.11,5.4,11.96,14.52,5.85,9.1,9.95,17.32,9.19,18.43-.76,1.1-6.12-5.43-11.96-14.51-5.84-9.11-9.97-17.37-9.2-18.44Z"/>
        <path class="cls-6" d="M392.6,448.45c-1.01-1.18,7.3-9.37,18.56-18.33,11.25-8.94,21.17-15.25,22.19-14.08,1.01,1.17-7.3,9.38-18.53,18.33-11.28,8.93-21.22,15.25-22.23,14.07Z"/>
        <path class="cls-6" d="M371.01,439.65c-1.01-1.16,7.29-9.37,18.56-18.32,11.24-8.96,21.16-15.25,22.2-14.07,1.02,1.16-7.31,9.37-18.53,18.32-11.28,8.95-21.22,15.26-22.23,14.07Z"/>
        <path class="cls-6" d="M452.66,502.48c.17,1.39-11.31,3.34-25.66,4.39-14.33,1.08-26.08.82-26.27-.58-.15-1.37,11.32-3.33,25.66-4.4,14.34-1.03,26.1-.78,26.27.59Z"/>
      </g>
    </g>
  </g>
</svg>