<?xml version="1.0" encoding="UTF-8"?>
<svg id="Layer_2" data-name="Layer 2" xmlns="http://www.w3.org/2000/svg" width="780.4" height="810.26" viewBox="0 0 780.4 810.26">
  <defs>
    <style>
      .cls-1 {
        fill: #f59906;
      }

      .cls-2 {
        fill: #ba6313;
      }

      .cls-3 {
        fill: #faeb98;
      }

      .cls-4 {
        fill: #9f662f;
      }

      .cls-5 {
        fill: #f47208;
      }

      .cls-6 {
        fill: #c58351;
      }

      .cls-7 {
        fill: #eb5903;
      }

      .cls-8 {
        fill: #ffc71c;
      }
    </style>
  </defs>
  <g id="Layer_1-2" data-name="Layer 1">
    <g>
      <path class="cls-7" d="M539.83,348.69c60.9-104.18,78.91-218.77,58.14-315.3-56.33-19.83-107.45-15.5-121.85-4.37,0,0-90.47-14.8-138.17,11.51-47.7,26.32-189.15,184.22-169.41,391.46,4.7,49.33,17.29,95.25,35.25,136.68,123.4-1.42,255.83-82.78,336.04-219.99Z"/>
      <g>
        <path class="cls-5" d="M666.06,69.95c-22.19-16.78-45.55-28.63-68.09-36.56,20.77,96.53,2.75,211.12-58.14,315.3-80.21,137.21-212.64,218.57-336.04,219.99,49.48,114.12,140.14,193.67,221.97,213.64,317.97-217.37,267.56-589.25,240.3-712.37Z"/>
        <path class="cls-1" d="M666.06,69.95c27.26,123.12,77.67,495-240.3,712.37,13.25,3.23,26.27,4.96,38.84,4.96,118.42,0,315.8-103.62,315.8-437.52,0-147.89-52.6-233.11-114.34-279.8Z"/>
      </g>
      <g>
        <path class="cls-8" d="M387.89,253.1c-17.24-13.04-35.38-22.24-52.88-28.4-43.75-15.4-83.46-12.04-94.65-3.4,0,0-70.26-11.5-107.32,8.94C96,250.69-13.88,373.34,1.46,534.31c3.65,38.32,13.43,73.98,27.38,106.16,38.43,88.64,108.85,150.43,172.41,165.94,10.29,2.51,20.41,3.85,30.17,3.85,91.98,0,245.29-80.49,245.29-339.83,0-114.87-40.85-181.06-88.82-217.33Z"/>
        <path class="cls-1" d="M275.44,222.92c17.8,0,37.9,3.63,56.61,10.2,18.16,6.39,35.13,15.5,50.46,27.1,55.79,42.19,85.27,114.88,85.27,210.21,0,111.64-29.63,201.9-85.7,261.03-41.5,43.75-97.81,69.88-150.66,69.88-8.83,0-18.27-1.21-28.06-3.6-64.62-15.77-131.46-80.4-166.34-160.82-14.31-33.01-23.29-67.82-26.68-103.46C-4.95,372.92,106.15,255.29,137.35,238.07c13.12-7.23,33.61-11.05,59.28-11.05,22.96,0,42.1,3.08,42.29,3.11l3.83.62,3.07-2.38c3.4-2.62,14.12-5.45,29.62-5.45M275.44,213.99c-16.78,0-29.49,3-35.08,7.32,0,0-19.69-3.22-43.72-3.22-21.37,0-46.16,2.55-63.6,12.17C96,250.69-13.88,373.34,1.46,534.31c3.65,38.32,13.43,73.98,27.38,106.16,38.43,88.64,108.85,150.43,172.41,165.94,10.29,2.51,20.41,3.85,30.17,3.85,91.98,0,245.29-80.49,245.29-339.83,0-114.87-40.85-181.06-88.82-217.33-17.24-13.04-35.38-22.24-52.88-28.4-21.89-7.71-42.77-10.71-59.57-10.71h0Z"/>
      </g>
      <ellipse class="cls-2" cx="479.65" cy="32.86" rx="52.68" ry="15.32"/>
      <path class="cls-2" d="M515.1,31.32c0-17.46-15.44-31.32-34.48-31.32s-34.48,13.71-34.48,31.17c0,.32.04.52.05.52h68.86s.05-.05.05-.37Z"/>
      <rect class="cls-6" x="196.24" y="219.82" width="80.36" height="89.28"/>
      <path class="cls-2" d="M279.57,219.82c0,6.57-18.33,11.9-40.92,11.9s-40.91-5.33-40.91-11.9,18.32-11.9,40.91-11.9,40.92,5.33,40.92,11.9Z"/>
      <path class="cls-2" d="M266.18,221.01c0-13.56-11.99-25.52-26.78-25.52s-26.78,12.44-26.78,26c0,.25.02-4.81.03,2.19h53.48c.01-7,.04-2.43.04-2.68Z"/>
      <path class="cls-3" d="M242.31,289.5s-89.97-19.14-95.31,62.54c-5.34,81.67-.67,77.43-6.45,136.74-5.77,59.31,3.04,156.55,26.84,188.96,23.79,32.4,47.45,67.78,64.78,47.74,17.33-20.04,13.08-24.7,50.94-37.81,37.86-13.11,73.88-18.86,94.87-84.9,20.99-66.04,45.74-117.01,24.62-174.61-21.12-57.6-90.66-162.17-160.29-138.65Z"/>
      <g>
        <path class="cls-6" d="M349.83,473.32c3.28-69.65-32.73-110.47-64.2-132.69-36.61-11.06-74.21,2.21-90.85,9.19-31.91,13.39-16.38,94.56-16.38,94.56-4.72,37.02-32.4,181.69,29.25,200.98,11.25,3.52,24.74,4.63,39.09,3.21,77.46-30.8,98.92-86.98,103.09-175.26Z"/>
        <path class="cls-4" d="M367.02,456.26c-15-74.84-47.79-105.48-81.4-115.63,31.47,22.22,67.48,63.04,64.2,132.69-4.16,88.28-25.62,144.46-103.09,175.26,64.32-6.39,145.91-64.45,120.28-192.32Z"/>
      </g>
    </g>
  </g>
</svg>