<?xml version="1.0" encoding="UTF-8"?>
<svg id="Layer_2" data-name="Layer 2" xmlns="http://www.w3.org/2000/svg" width="60.82" height="51.22" viewBox="0 0 60.82 51.22">
  <defs>
    <style>
      .cls-1 {
        fill: #d2bda6;
      }

      .cls-2 {
        fill: #efe5d9;
      }

      .cls-3 {
        fill: #f2eae1;
      }
    </style>
  </defs>
  <g id="Vegetables">
    <g>
      <g>
        <path class="cls-1" d="M25.19,25.59s.71,11.52-9.87,10.15c-6.86-.89-1.79,11.14,3.74,14.15,3.51,1.91,6.48,1.56,7.66.19,1.19-1.37,8.49-11.8,10.06-15.67,1.57-3.87-11.59-8.81-11.59-8.81Z"/>
        <path class="cls-3" d="M24.61,23.87s-1.94,11.58-8.85,11.41c-6.91-.17-.84,11.06,2.72,12.89,3.56,1.83,6.48,1.56,7.66.19,1.19-1.37,8.49-11.8,10.06-15.67,1.57-3.87-11.59-8.81-11.59-8.81Z"/>
        <path class="cls-1" d="M46.35,5.75s-14.31-7.91-27.17,1.44c-12.87,9.35,8.24,26.16,8.24,26.16,0,0,9.67,9.19,20.68,8.45,11.01-.74,12.61-9.65,12.58-12.23-.03-2.57-1.59-18.2-14.32-23.82Z"/>
        <path class="cls-2" d="M46.5,3.12s-14.31-7.91-27.17,1.44c-12.87,9.35,8.24,26.16,8.24,26.16,0,0,9.67,9.19,20.68,8.45,11.01-.74,12.61-9.65,12.58-12.23-.03-2.57-1.59-18.2-14.32-23.82Z"/>
        <path class="cls-3" d="M44.27,3.73s-9.41-5.2-17.87.95c-8.46,6.15,5.42,17.2,5.42,17.2,0,0,6.36,6.04,13.6,5.55,7.24-.49,8.29-6.35,8.27-8.04s-1.05-11.97-9.42-15.66Z"/>
      </g>
      <g>
        <path class="cls-1" d="M10.07,34.5s3.64,6-2.45,8.24c-3.94,1.46,2.18,6.5,6.01,6.56,2.43.04,3.92-.99,4.18-2.06.25-1.07,1.24-8.74.99-11.27-.25-2.53-8.72-1.47-8.72-1.47Z"/>
        <path class="cls-3" d="M9.02,33.75s2.23,6.77-1.54,8.64c-3.77,1.86,2.67,6.19,5.1,6.16,2.43-.02,3.92-.99,4.17-2.06.25-1.07,1.24-8.74.99-11.27-.25-2.53-8.72-1.47-8.72-1.47Z"/>
        <path class="cls-1" d="M14.96,17.9s-9.93-.21-14.21,8.45c-4.28,8.66,11.82,11.75,11.82,11.75,0,0,7.8,2.21,13.51-1.3,5.71-3.51,4.06-8.75,3.31-10.13-.74-1.38-6-9.34-14.43-8.77Z"/>
        <path class="cls-2" d="M14.94,16.41s-9.93-.21-14.21,8.45c-4.28,8.66,11.82,11.75,11.82,11.75,0,0,7.8,2.21,13.51-1.3,5.71-3.51,4.06-8.75,3.31-10.13-.74-1.38-6-9.34-14.43-8.77Z"/>
        <path class="cls-3" d="M13.91,17.36s-6.53-.14-9.35,5.56c-2.82,5.7,7.77,7.72,7.77,7.72,0,0,5.13,1.45,8.88-.85,3.76-2.31,2.67-5.76,2.18-6.66-.49-.91-3.94-6.14-9.49-5.77Z"/>
      </g>
    </g>
  </g>
</svg>