<?xml version="1.0" encoding="UTF-8"?>
<svg id="Layer_2" data-name="Layer 2" xmlns="http://www.w3.org/2000/svg" width="1070.46" height="866.97" viewBox="0 0 1070.46 866.97">
  <defs>
    <style>
      .cls-1 {
        fill: #60923f;
      }

      .cls-2 {
        fill: #fff;
      }

      .cls-3 {
        fill: #fff4de;
      }

      .cls-4 {
        fill: #f89c2e;
      }

      .cls-5 {
        fill: #e27a26;
      }

      .cls-6 {
        fill: #e9b38e;
      }

      .cls-7 {
        fill: #f47e20;
      }
    </style>
  </defs>
  <g id="Layer_1-2" data-name="Layer 1">
    <g>
      <circle class="cls-7" cx="750.11" cy="480.56" r="320.35" transform="translate(-120.1 671.16) rotate(-45)"/>
      <path class="cls-1" d="M768.5,197.04s-11.36-142.8,25.96-172l22.72,14.61s-35.7,25.96-35.7,160.64c0,0-6.49,12.98-12.98-3.24Z"/>
      <path class="cls-1" d="M681.1,6.27c59.61,21.01,88.34,93.59,88.34,93.59,0,0-67.9,38.52-127.51,17.5-59.6-21.01-88.34-93.6-88.34-93.6,0,0,67.9-38.51,127.51-17.5Z"/>
      <path class="cls-6" d="M614.1,366.42c-4.84,32.58-29.61,55.89-55.33,52.07-25.72-3.82-42.65-33.33-37.81-65.91,4.84-32.58,29.61-55.9,55.33-52.08,25.72,3.82,42.65,33.33,37.81,65.91Z"/>
      <g>
        <path class="cls-5" d="M637.94,548.01c0,176.16-142.81,318.96-318.97,318.96S0,724.16,0,548.01,142.81,229.04,318.96,229.04s318.97,142.8,318.97,318.96Z"/>
        <path class="cls-3" d="M594.55,548.01c0,152.2-123.38,275.58-275.59,275.58S43.38,700.21,43.38,548.01s123.39-275.59,275.58-275.59,275.59,123.38,275.59,275.59Z"/>
        <g>
          <path class="cls-4" d="M135.94,381.81c-37.43,41.19-61.04,94.95-63.87,154.29h218.15l-154.28-154.29Z"/>
          <path class="cls-4" d="M72.07,559.91c2.83,59.34,26.44,113.1,63.87,154.29l154.28-154.29H72.07Z"/>
          <path class="cls-4" d="M485.16,364.98c-41.19-37.43-94.95-61.05-154.28-63.88v218.16l154.28-154.28Z"/>
          <path class="cls-4" d="M565.86,536.1c-2.83-59.33-26.44-113.09-63.87-154.28l-154.28,154.28h218.15Z"/>
          <path class="cls-4" d="M307.06,301.1c-59.35,2.83-113.1,26.45-154.28,63.87l154.28,154.29v-218.16Z"/>
          <path class="cls-4" d="M152.76,731.04c41.2,37.43,94.95,61.05,154.3,63.87v-218.17l-154.3,154.29Z"/>
          <path class="cls-4" d="M330.88,794.92c59.34-2.83,113.09-26.46,154.29-63.89l-154.29-154.28v218.17Z"/>
          <path class="cls-4" d="M347.71,559.91l154.28,154.29c37.42-41.19,61.04-94.95,63.87-154.29h-218.15Z"/>
        </g>
        <path class="cls-2" d="M249.56,446.58c7.81,14.27,28.74,21.24,34.61,22.95.99.29,1.6.45,1.6.45,0,0,.07-.11.19-.29.22,0,.36.01.36.01,0,0,.22-.58.57-1.54,2.09-5.73,8.92-26.73,2.06-41.48-.12-.24-.23-.45-.34-.67-10.45-21.43-27.96-12.51-30.34-11.16-2.49,1.12-20.1,9.93-9.04,31.06.12.23.22.44.34.67Z"/>
        <path class="cls-2" d="M345.82,426.71c-6.68,14.83.35,35.74,2.52,41.45.37.96.6,1.55.6,1.55,0,0,.13,0,.35-.02.12.18.21.29.21.29,0,0,.59-.18,1.57-.48,5.84-1.78,26.71-8.97,34.35-23.33.12-.24.22-.45.33-.68,10.82-21.25-6.86-29.85-9.37-30.95-2.39-1.31-20.03-10.06-30.23,11.49-.11.22-.22.44-.34.68Z"/>
        <path class="cls-2" d="M418.63,479.07c-13.83,8.57-19.67,29.85-21.06,35.79-.24,1-.37,1.62-.37,1.62,0,0,.12.06.3.17,0,.22,0,.36,0,.36,0,0,.59.18,1.57.48,5.84,1.78,27.17,7.48,41.52-.18.23-.13.44-.25.66-.38,20.84-11.58,10.98-28.6,9.52-30.9-1.25-2.42-11-19.54-31.5-7.35-.22.13-.42.24-.65.38Z"/>
        <path class="cls-2" d="M440.65,574.88c-15.17-5.88-35.67,2.27-41.26,4.74-.94.42-1.51.69-1.51.69,0,0,.02.13.04.34-.17.13-.28.22-.28.22,0,0,.21.58.56,1.55,2.09,5.73,10.4,26.19,25.15,33.04.24.1.46.2.69.29,21.8,9.66,29.44-8.45,30.4-11.01,1.18-2.45,8.97-20.55-13.1-29.57-.23-.1-.45-.19-.69-.3Z"/>
        <path class="cls-2" d="M385.08,647.48c-7.98-14.18-28.99-20.91-34.87-22.56-.99-.27-1.6-.43-1.6-.43,0,0-.07.11-.19.29-.22,0-.36,0-.36,0,0,0-.21.58-.55,1.55-2.03,5.76-8.62,26.83-1.58,41.5.12.24.23.45.35.67,10.69,21.31,28.11,12.18,30.47,10.81,2.47-1.14,19.98-10.16,8.68-31.15-.12-.23-.22-.44-.35-.67Z"/>
        <path class="cls-2" d="M293.19,667.8c5.88-15.17-2.27-35.67-4.74-41.26-.42-.94-.68-1.51-.68-1.51,0,0-.13.02-.35.04-.13-.17-.22-.28-.22-.28,0,0-.58.21-1.54.56-5.73,2.09-26.19,10.39-33.05,25.15-.1.25-.2.47-.29.7-9.66,21.8,8.45,29.44,11.01,30.4,2.45,1.18,20.54,8.97,29.57-13.1.1-.23.19-.45.3-.69Z"/>
        <path class="cls-2" d="M217.2,615.64c14.18-7.96,20.96-28.95,22.6-34.84.28-.99.44-1.6.44-1.6,0,0-.11-.07-.29-.19,0-.21,0-.36,0-.36,0,0-.58-.21-1.55-.55-5.75-2.03-26.82-8.66-41.49-1.64-.24.12-.45.23-.67.35-21.33,10.66-12.23,28.09-10.86,30.45,1.14,2.48,10.13,20,31.14,8.72.22-.12.44-.23.67-.35Z"/>
        <path class="cls-2" d="M196.36,519.58c14.9,6.53,35.73-.71,41.43-2.94.96-.37,1.54-.62,1.54-.62,0,0,0-.13-.02-.35.18-.12.29-.21.29-.21,0,0-.18-.59-.49-1.57-1.84-5.82-9.24-26.63-23.68-34.12-.24-.11-.45-.22-.68-.33-21.35-10.6-29.79,7.16-30.85,9.68-1.29,2.4-9.86,20.13,11.79,30.11.23.11.44.21.68.33Z"/>
      </g>
    </g>
  </g>
</svg>