<?xml version="1.0" encoding="UTF-8"?>
<svg id="Layer_2" data-name="Layer 2" xmlns="http://www.w3.org/2000/svg" width="1012.93" height="840.46" viewBox="0 0 1012.93 840.46">
  <defs>
    <style>
      .cls-1 {
        fill: #a61e22;
      }

      .cls-2 {
        fill: #fde6c6;
      }

      .cls-3 {
        fill: #da554e;
      }

      .cls-4 {
        fill: #ce202d;
      }

      .cls-5 {
        fill: #b73948;
      }
    </style>
  </defs>
  <g id="Layer_1-2" data-name="Layer 1">
    <g>
      <g>
        <path class="cls-1" d="M516.09,88.39s71.23,11.28,88.56,82.75h100.11s-1.93-60.19,50.06-107.21c0,0-53.91,16.93-73.16,41.38l19.25-86.52s-40.43,45.14-44.28,73.35c0,0-1.93-67.71-36.58-92.16,0,0,11.55,62.07-1.92,75.23,0,0-11.55-33.85-38.5-33.85,0,0,9.63,30.09,3.85,39.5,0,0-21.18-18.81-67.38,7.52Z"/>
        <path class="cls-5" d="M650.75,797.61c-199.71,0-362.18-149.9-362.18-334.15s162.47-334.16,362.18-334.16,362.18,149.9,362.18,334.16-162.48,334.15-362.18,334.15Z"/>
      </g>
      <path class="cls-1" d="M200.14,262.69s62.66,9.92,77.9,72.79h88.06s-1.69-52.94,44.03-94.3c0,0-47.42,14.89-64.35,36.4l16.93-76.1s-35.56,39.7-38.95,64.52c0,0-1.69-59.56-32.18-81.06,0,0,10.16,54.6-1.69,66.17,0,0-10.16-29.78-33.87-29.78,0,0,8.47,26.47,3.39,34.74,0,0-18.63-16.54-59.27,6.62Z"/>
      <g>
        <path class="cls-2" d="M630.41,546.53c0,158.76-139.59,287.46-311.82,287.46S6.77,705.29,6.77,546.53s139.61-287.46,311.82-287.46,311.82,128.71,311.82,287.46Z"/>
        <path class="cls-1" d="M318.59,840.46C142.91,840.46,0,708.61,0,546.53S142.91,252.59,318.59,252.59s318.59,131.86,318.59,293.93-142.92,293.93-318.59,293.93ZM318.59,265.54c-168.2,0-305.04,126.05-305.04,280.99s136.84,280.99,305.04,280.99,305.04-126.05,305.04-280.99-136.84-280.99-305.04-280.99Z"/>
      </g>
      <path class="cls-4" d="M331.14,736.19c55.37,103.46,158.82,23.31,158.82,23.31,1.55-.81,2.82-1.42,4.31-2.18,3.6-1.86,6.77-3.37,10.06-4.98,59.63-50.11,97.48-123.71,97.48-205.99,0-108.07-65.17-201.21-159.5-245.56-76.34-17.19-135.36,51.9-135.36,51.9-55.37-103.46-158.82-23.31-158.82-23.31-1.55.81-2.82,1.42-4.31,2.18-65.95,50.04-108.46,127.54-108.46,214.78,0,99.55,55.34,186.41,137.78,234.19,7.68,3.41,15.25,5.89,22.65,7.56,76.33,17.19,135.36-51.9,135.36-51.9Z"/>
      <path class="cls-3" d="M269.57,366.12c0,17.77-14.41,32.18-32.18,32.18s-32.18-14.41-32.18-32.18,14.4-32.18,32.18-32.18,32.18,14.41,32.18,32.18Z"/>
      <path class="cls-3" d="M181.51,411.85c0,17.77-14.41,32.18-32.18,32.18s-32.18-14.41-32.18-32.18,14.4-32.18,32.18-32.18,32.18,14.41,32.18,32.18Z"/>
      <path class="cls-3" d="M134.09,493.13c0,17.77-14.41,32.18-32.18,32.18s-32.17-14.41-32.17-32.18,14.4-32.18,32.17-32.18,32.18,14.41,32.18,32.18Z"/>
      <path class="cls-3" d="M129.01,589.66c0,17.77-14.41,32.18-32.18,32.18s-32.18-14.41-32.18-32.18,14.4-32.18,32.18-32.18,32.18,14.41,32.18,32.18Z"/>
      <circle class="cls-3" cx="140.87" cy="681.11" r="32.18" transform="translate(-554.45 663.96) rotate(-76.9)"/>
      <path class="cls-3" d="M250.94,731.92c0,17.77-14.41,32.18-32.18,32.18s-32.18-14.41-32.18-32.18,14.41-32.18,32.18-32.18,32.18,14.41,32.18,32.18Z"/>
      <path class="cls-3" d="M345.78,398.3c0,17.77-14.41,32.18-32.18,32.18s-32.18-14.41-32.18-32.18,14.41-32.18,32.18-32.18,32.18,14.41,32.18,32.18Z"/>
      <path class="cls-3" d="M344.09,500.47c0,17.77-14.41,32.18-32.18,32.18s-32.18-14.41-32.18-32.18,14.4-32.18,32.18-32.18,32.18,14.41,32.18,32.18Z"/>
      <path class="cls-3" d="M362.71,595.88c0,17.77-14.41,32.18-32.18,32.18s-32.17-14.41-32.17-32.18,14.4-32.18,32.17-32.18,32.18,14.41,32.18,32.18Z"/>
      <path class="cls-3" d="M369.49,684.5c0,17.77-14.41,32.18-32.18,32.18s-32.18-14.41-32.18-32.18,14.4-32.18,32.18-32.18,32.18,14.41,32.18,32.18Z"/>
      <path class="cls-3" d="M266.19,455.88c0,17.77-14.41,32.18-32.18,32.18s-32.18-14.41-32.18-32.18,14.4-32.18,32.18-32.18,32.18,14.41,32.18,32.18Z"/>
      <path class="cls-3" d="M213.68,518.54c0,17.77-14.41,32.18-32.17,32.18s-32.18-14.41-32.18-32.18,14.41-32.18,32.18-32.18,32.17,14.41,32.17,32.18Z"/>
      <path class="cls-3" d="M293.28,560.88c0,17.77-14.41,32.18-32.18,32.18s-32.18-14.41-32.18-32.18,14.41-32.18,32.18-32.18,32.18,14.41,32.18,32.18Z"/>
      <path class="cls-3" d="M223.85,609.99c0,17.77-14.41,32.18-32.18,32.18s-32.18-14.41-32.18-32.18,14.4-32.18,32.18-32.18,32.18,14.41,32.18,32.18Z"/>
      <path class="cls-3" d="M294.97,654.02c0,17.77-14.41,32.18-32.17,32.18s-32.18-14.41-32.18-32.18,14.41-32.18,32.18-32.18,32.17,14.41,32.17,32.18Z"/>
      <path class="cls-3" d="M445.7,344.11c0,17.77-14.41,32.18-32.18,32.18s-32.18-14.41-32.18-32.18,14.4-32.18,32.18-32.18,32.18,14.41,32.18,32.18Z"/>
      <path class="cls-3" d="M504.97,389.83c0,17.77-14.41,32.18-32.18,32.18s-32.18-14.41-32.18-32.18,14.4-32.18,32.18-32.18,32.18,14.41,32.18,32.18Z"/>
      <path class="cls-3" d="M562.55,447.41c0,17.77-14.41,32.18-32.18,32.18s-32.18-14.41-32.18-32.18,14.41-32.18,32.18-32.18,32.18,14.41,32.18,32.18Z"/>
      <circle class="cls-3" cx="540.53" cy="523.62" r="32.18" transform="translate(-57.8 980.07) rotate(-81.43)"/>
      <path class="cls-3" d="M567.63,606.6c0,17.77-14.41,32.18-32.18,32.18s-32.18-14.41-32.18-32.18,14.4-32.18,32.18-32.18,32.18,14.41,32.18,32.18Z"/>
      <path class="cls-3" d="M532.06,687.89c0,17.77-14.41,32.18-32.18,32.18s-32.18-14.41-32.18-32.18,14.4-32.18,32.18-32.18,32.18,14.41,32.18,32.18Z"/>
      <path class="cls-3" d="M460.94,735.31c0,17.77-14.41,32.18-32.17,32.18s-32.18-14.41-32.18-32.18,14.41-32.18,32.18-32.18,32.17,14.41,32.17,32.18Z"/>
      <path class="cls-3" d="M450.78,654.02c0,17.77-14.41,32.18-32.18,32.18s-32.18-14.41-32.18-32.18,14.41-32.18,32.18-32.18,32.18,14.41,32.18,32.18Z"/>
      <circle class="cls-3" cx="399.97" cy="554.1" r="32.18" transform="translate(-13.09 9.69) rotate(-1.37)"/>
      <path class="cls-3" d="M418.6,482.97c0,17.77-14.41,32.18-32.18,32.18s-32.18-14.41-32.18-32.18,14.41-32.18,32.18-32.18,32.18,14.41,32.18,32.18Z"/>
      <circle class="cls-3" cx="471.1" cy="491.44" r="32.18" transform="translate(-6.1 5.92) rotate(-.72)"/>
      <path class="cls-3" d="M496.5,591.36c0,17.77-14.41,32.18-32.18,32.18s-32.17-14.41-32.17-32.18,14.4-32.18,32.17-32.18,32.18,14.41,32.18,32.18Z"/>
      <path class="cls-3" d="M430.45,415.23c0,17.77-14.41,32.18-32.18,32.18s-32.17-14.41-32.17-32.18,14.41-32.18,32.17-32.18,32.18,14.41,32.18,32.18Z"/>
    </g>
  </g>
</svg>