<?xml version="1.0" encoding="UTF-8"?>
<svg id="Layer_2" data-name="Layer 2" xmlns="http://www.w3.org/2000/svg" width="76.4" height="57.78" xmlns:xlink="http://www.w3.org/1999/xlink" viewBox="0 0 76.4 57.78">
  <defs>
    <style>
      .cls-1 {
        fill: #ceb35b;
      }

      .cls-2 {
        fill: #d1b869;
      }

      .cls-3 {
        fill: #fcfcfc;
      }

      .cls-4 {
        opacity: .3;
      }

      .cls-5 {
        fill: #c6a958;
      }

      .cls-6 {
        fill: #dec777;
      }

      .cls-7 {
        clip-path: url(#clippath);
      }
    </style>
    <clipPath id="clippath">
      <path class="cls-2" d="M67.4,19.1c2.74,6.97,6.56,13.9,1.37,20.78-4.21,5.6-15.89,12.58-23.77,15.68-5.1,2.01-10.67,1.99-15.55,2.14-8.39.26-15.11,0-20.08-4.54-2.1-1.92-4.57-6.34-5.62-9-2.74-6.96-1.7-17.01,3.47-23.9,4.21-5.61,12.28-6.3,20.18-9.41,9.86-3.88,19.33-8.77,27.16-6.01,6.13,2.16,10.66,8.69,12.85,14.24Z"/>
    </clipPath>
  </defs>
  <g id="Vegetables">
    <g>
      <g>
        <path class="cls-2" d="M67.4,19.1c2.74,6.97,6.56,13.9,1.37,20.78-4.21,5.6-15.89,12.58-23.77,15.68-5.1,2.01-10.67,1.99-15.55,2.14-8.39.26-15.11,0-20.08-4.54-2.1-1.92-4.57-6.34-5.62-9-2.74-6.96-1.7-17.01,3.47-23.9,4.21-5.61,12.28-6.3,20.18-9.41,9.86-3.88,19.33-8.77,27.16-6.01,6.13,2.16,10.66,8.69,12.85,14.24Z"/>
        <g class="cls-7">
          <ellipse class="cls-6" cx="38.2" cy="23.39" rx="38.2" ry="23.39"/>
        </g>
      </g>
      <path class="cls-1" d="M11.08,26.23c.67,1.42.7,2.82.07,3.12-.63.3-1.69-.61-2.36-2.03-.67-1.42-.7-2.82-.07-3.12s1.69.61,2.36,2.03Z"/>
      <path class="cls-1" d="M22.66,32.89c.67,1.42.7,2.82.07,3.12-.63.3-1.69-.61-2.36-2.03-.67-1.42-.7-2.82-.07-3.12.63-.3,1.69.61,2.36,2.03Z"/>
      <path class="cls-1" d="M27.66,20.47c.67,1.42.7,2.82.07,3.12-.63.3-1.69-.61-2.36-2.03-.67-1.42-.7-2.82-.07-3.12.63-.3,1.69.61,2.36,2.03Z"/>
      <path class="cls-1" d="M29.33,43.71c.67,1.42.7,2.82.07,3.12-.63.3-1.69-.61-2.36-2.03-.67-1.42-.7-2.82-.07-3.12.63-.3,1.69.61,2.36,2.03Z"/>
      <path class="cls-1" d="M38.33,34c.67,1.42.7,2.82.07,3.12s-1.69-.61-2.36-2.03c-.67-1.42-.7-2.82-.07-3.12.63-.3,1.69.61,2.36,2.03Z"/>
      <path class="cls-1" d="M40.01,23.6c.67,1.42.7,2.82.07,3.12-.63.3-1.69-.61-2.36-2.03-.67-1.42-.7-2.82-.07-3.12.63-.3,1.69.61,2.36,2.03Z"/>
      <path class="cls-1" d="M48.61,10.28c.67,1.42.7,2.82.07,3.12-.63.3-1.69-.61-2.36-2.03-.67-1.42-.7-2.82-.07-3.12.63-.3,1.69.61,2.36,2.03Z"/>
      <g class="cls-4">
        <path class="cls-3" d="M33.6,14.94s3.21-9.3,18.77-6.66c10.59,1.79,11.76,10.27,10.09,12.21-1.66,1.94-8.05-8.56-12.76-6.36-4.72,2.2-16.93,9.2-16.09.81Z"/>
      </g>
      <path class="cls-1" d="M53.67,24.14c.67,1.42.7,2.82.07,3.12-.63.3-1.69-.61-2.36-2.03-.67-1.42-.7-2.82-.07-3.12.63-.3,1.69.61,2.36,2.03Z"/>
      <path class="cls-5" d="M44.79,46.65c.92,1.94,1.21,3.74.64,4.01-.57.27-1.77-1.09-2.69-3.04-.92-1.94-1.21-3.74-.64-4.01.57-.27,1.77,1.09,2.69,3.04Z"/>
      <path class="cls-5" d="M13.43,41.51c.92,1.94,1.21,3.74.64,4.01-.57.27-1.77-1.09-2.69-3.04-.92-1.94-1.21-3.74-.64-4.01.57-.27,1.77,1.09,2.69,3.04Z"/>
      <path class="cls-5" d="M59.29,39.83c.92,1.94,1.21,3.74.64,4.01-.57.27-1.77-1.09-2.69-3.04-.92-1.94-1.21-3.74-.64-4.01s1.77,1.09,2.69,3.04Z"/>
      <path class="cls-5" d="M65.46,28.92c.92,1.94,1.21,3.74.64,4.01-.57.27-1.77-1.09-2.69-3.04-.92-1.94-1.21-3.74-.64-4.01.57-.27,1.77,1.09,2.69,3.04Z"/>
    </g>
  </g>
</svg>