<?xml version="1.0" encoding="UTF-8"?>
<svg id="Layer_2" data-name="Layer 2" xmlns="http://www.w3.org/2000/svg" width="114.09" height="102.1" viewBox="0 0 114.09 102.1">
  <defs>
    <style>
      .cls-1 {
        fill: #7eb341;
      }

      .cls-2 {
        fill: #33691e;
      }

      .cls-3 {
        fill: #fb8c01;
      }

      .cls-4 {
        fill: #f67c00;
      }

      .cls-5 {
        fill: #ffb74d;
      }

      .cls-6 {
        fill: #ef6c00;
      }

      .cls-7 {
        fill: #ffa727;
      }
    </style>
  </defs>
  <g id="Vegetables">
    <g>
      <path class="cls-6" d="M55.56,13.37s-19.59-5.71-30.75,0C13.64,19.08,1.18,27.64.06,49.03s13.39,44.09,21.58,46.88c8.19,2.79,13.21,4.84,16.18,0,2.98-4.84,17.73-82.54,17.73-82.54Z"/>
      <path class="cls-4" d="M54.81,17.34s-13.39-4.65-20.09,1.12c-6.7,5.77-21.58,23.28-17.67,39.27,3.91,15.98,12.56,41.35,21.02,42.4,7.21.89,14.51,4.35,16.74-4.46V17.34Z"/>
      <path class="cls-6" d="M58.53,12.92s19.59-5.71,30.75,0c11.16,5.71,23.63,14.26,24.74,35.66,1.12,21.39-13.39,44.09-21.58,46.88-8.19,2.79-13.21,4.84-16.18,0-2.98-4.84-17.73-82.54-17.73-82.54Z"/>
      <path class="cls-4" d="M59.28,16.89s13.39-4.65,20.09,1.12c6.7,5.77,21.58,23.28,17.67,39.27-3.91,15.98-12.56,41.35-21.02,42.4-7.21.89-14.51,4.35-16.74-4.46V16.89Z"/>
      <path class="cls-1" d="M47.7,15.12s2.7-11,5.56-12.48c2.85-1.49,8.43-.74,9.18-2.48.74-1.74,4.46,12.07,2.98,14.96-1.49,2.89-17.24-.24-17.71,0Z"/>
      <path class="cls-2" d="M56.25,16.35s.11-12.23,2.96-13.72c2.85-1.49,2.48-.74,3.22-2.48.74-1.74,4.46,12.07,2.98,14.96-1.49,2.89-8.69.99-9.16,1.23Z"/>
      <path class="cls-3" d="M70.46,25.96c-1.95-11-9.97-12.47-15.03-12.25-5.07-.22-13.08,1.24-15.03,12.25-2.91,16.39-7.4,25.38-2.11,40.98,5.29,15.6,6.61,23,7.4,25.91.73,2.66-.51,8.41,8.39,9.16v.09c.49.01.92,0,1.36-.02.44.01.87.03,1.36.02v-.09c8.9-.76,7.67-6.5,8.39-9.16.79-2.91,2.11-10.31,7.4-25.91,5.29-15.6.79-24.59-2.11-40.98Z"/>
      <path class="cls-7" d="M68.16,27.43c-1.65-9.32-8.44-10.56-12.73-10.37-4.29-.19-11.08,1.05-12.73,10.37-2.46,13.88-6.27,21.5-1.79,34.71,4.48,13.21,24.57,13.21,29.05,0,4.48-13.21.67-20.82-1.79-34.71Z"/>
      <path class="cls-5" d="M40.77,20.21s.93-3.53-2.51-2.23c-3.44,1.3-13.58,11.44-14.51,16.84-.93,5.39,7.91,3.52,7.35.74-.65-3.26,1.19-7.54,9.67-15.35Z"/>
    </g>
  </g>
</svg>