<?xml version="1.0" encoding="UTF-8"?>
<svg id="Layer_2" data-name="Layer 2" xmlns="http://www.w3.org/2000/svg" width="587.67" height="614.16" viewBox="0 0 587.67 614.16">
  <defs>
    <style>
      .cls-1 {
        fill: #ff7d7e;
      }

      .cls-2 {
        fill: #f9908a;
      }

      .cls-3 {
        fill: #e8a922;
      }

      .cls-4 {
        fill: #d32027;
      }

      .cls-5 {
        fill: #fab598;
      }

      .cls-6 {
        fill: #b7202a;
      }

      .cls-7 {
        fill: #609340;
      }

      .cls-8 {
        fill: #f29f77;
      }

      .cls-9 {
        fill: #f24040;
      }
    </style>
  </defs>
  <g id="Layer_1-2" data-name="Layer 1">
    <g>
      <g>
        <g>
          <path class="cls-4" d="M139.07,208.71c0,123.88,92.19,344.06,216.07,344.06,2.76,0,5.5-.25,8.23-.46V50.31c-123.88,0-224.3,34.52-224.3,158.4Z"/>
          <path class="cls-6" d="M587.67,208.71c0-123.88-100.43-158.4-224.3-158.4v502.01c120.42-9.43,224.3-222.48,224.3-343.6Z"/>
        </g>
        <g>
          <path class="cls-3" d="M373.37,476.23c0,14.35-4.95,25.98-11.06,25.98s-11.07-11.63-11.07-25.98,4.95-25.98,11.07-25.98,11.06,11.63,11.06,25.98Z"/>
          <path class="cls-3" d="M454.4,108.08c0,14.35-4.96,25.98-11.07,25.98s-11.07-11.62-11.07-25.98,4.95-25.98,11.07-25.98,11.07,11.64,11.07,25.98Z"/>
          <path class="cls-3" d="M453.81,217.3c0,14.35-4.95,25.98-11.07,25.98s-11.07-11.63-11.07-25.98,4.95-25.98,11.07-25.98,11.07,11.63,11.07,25.98Z"/>
          <path class="cls-3" d="M455.57,329.44c0,14.35-4.95,25.98-11.06,25.98s-11.06-11.62-11.06-25.98,4.96-25.98,11.06-25.98,11.06,11.63,11.06,25.98Z"/>
          <path class="cls-3" d="M454.4,439.24c0,14.35-4.96,25.98-11.07,25.98s-11.07-11.63-11.07-25.98,4.95-25.98,11.07-25.98,11.07,11.63,11.07,25.98Z"/>
          <path class="cls-3" d="M534.62,134.67c2.84,14.07.28,26.45-5.71,27.66-5.99,1.21-13.15-9.21-15.98-23.28-2.84-14.06-.29-26.44,5.71-27.65,5.99-1.21,13.15,9.21,15.99,23.28Z"/>
          <path class="cls-3" d="M551.79,236.54c-1.73,14.24-8.04,25.19-14.11,24.45-6.07-.73-9.59-12.87-7.86-27.12,1.73-14.24,8.04-25.2,14.11-24.45,6.07.73,9.59,12.87,7.86,27.12Z"/>
          <path class="cls-3" d="M527.61,359c-2.55,14.12-9.49,24.69-15.5,23.6-6.02-1.09-8.82-13.42-6.27-27.53,2.56-14.12,9.49-24.68,15.51-23.6,6.01,1.09,8.82,13.42,6.26,27.53Z"/>
          <path class="cls-3" d="M373.37,145.07c0,14.35-4.95,25.98-11.06,25.98s-11.06-11.63-11.06-25.98,4.95-25.98,11.06-25.98,11.06,11.64,11.06,25.98Z"/>
          <path class="cls-3" d="M372.78,254.28c0,14.36-4.96,25.98-11.06,25.98s-11.06-11.62-11.06-25.98,4.95-25.98,11.06-25.98,11.06,11.63,11.06,25.98Z"/>
          <path class="cls-3" d="M374.55,366.43c0,14.35-4.95,25.98-11.07,25.98s-11.07-11.63-11.07-25.98,4.95-25.98,11.07-25.98,11.07,11.64,11.07,25.98Z"/>
          <path class="cls-3" d="M288.23,111.61c0,14.35-4.95,25.98-11.07,25.98s-11.06-11.63-11.06-25.98,4.95-25.98,11.06-25.98,11.07,11.64,11.07,25.98Z"/>
          <path class="cls-3" d="M287.64,220.82c0,14.35-4.95,25.98-11.07,25.98s-11.07-11.63-11.07-25.98,4.96-25.98,11.07-25.98,11.07,11.64,11.07,25.98Z"/>
          <path class="cls-3" d="M289.4,332.96c0,14.35-4.96,25.98-11.06,25.98s-11.07-11.63-11.07-25.98,4.96-25.98,11.07-25.98,11.06,11.64,11.06,25.98Z"/>
          <path class="cls-3" d="M288.23,442.76c0,14.36-4.95,25.99-11.07,25.99s-11.06-11.63-11.06-25.99,4.95-25.97,11.06-25.97,11.07,11.63,11.07,25.97Z"/>
          <path class="cls-3" d="M204.82,147.74c-1.16,14.3-7.05,25.49-13.14,25-6.09-.5-10.08-12.49-8.91-26.79,1.16-14.3,7.04-25.49,13.14-25,6.08.5,10.08,12.49,8.92,26.79Z"/>
          <path class="cls-3" d="M201.88,252.78c1.2,14.3-2.78,26.31-8.87,26.81-6.09.5-11.99-10.67-13.19-24.97-1.2-14.29,2.77-26.3,8.87-26.8,6.09-.5,12,10.67,13.18,24.96Z"/>
          <path class="cls-3" d="M216.22,358.86c3.73,13.85,1.97,26.37-3.93,27.95-5.9,1.59-13.72-8.35-17.44-22.21-3.74-13.85-1.97-26.38,3.93-27.96,5.9-1.59,13.71,8.36,17.44,22.22Z"/>
          <path class="cls-7" d="M506.73,31.93c1.14-1.02,1.81-1.58,1.79-1.61,0,0-.08.02-.12.02,0,0,.01-.01.01-.01.03-.02.06-.03.09-.05l-62.52,2.61c-2.21-5.45-7.81-15.14-19.66-21.83-16.1-10.26-38.66-13.36-47.55-9.41-1.05.42-2.03.96-3.01,1.52-.2.1-.4.19-.59.29-.17.1-.32.21-.48.32-4.48,2.68-7.81,6.65-9.92,11.19-1.23-.57-2.58-1.07-4.02-1.51.22.05.48.08.68.14-1.21-.51-2.76-.9-4.44-1.22-.01,0-.03-.01-.06-.02-.62-.15-1.39-.22-2.1-.32-.27-.13-.52-.27-.79-.39.23.09.49.14.71.24-3.28-1.72-7.36-2.89-11.86-3.55-.16-.03-.33-.06-.49-.09-.44-.06-.9-.1-1.35-.16-7.05-.9-15.01-.48-22.98,1.71-.95.24-1.89.44-2.83.71-3.24,1.02-7.29,2.45-12.62,5.25-2.51,1.19-5.45,3.04-8.4,5.03l-2.22,1.5c-2.75,1.59-3.66,2.83-5.42,4.47-1.32,1.49-2.18,2.65-2.85,3.69l-55.88,3.34s.05.05.08.08h0s-.11-.05-.11-.05c-.17.09.18.8,1.02,1.98,3.05,4.29,12.55,14.76,26.87,24.21-5.86,1.13-11.32,2.39-15.72,4.13-8.97,3.18-13.22,7.38-13.26,7.2h.04s-.06.02-.1.03l.11-.03s-.08.06-.08.06h0s0,.01,0,.01c0,.05.72-.09,1.96-.24.59-.06,1.3-.12,2.16-.2,2.48-.15,5.93-.16,10.04.51,6.74.83,14.89,3.6,24.58,6.49,2.5.75,5.02,1.5,7.73,2.24,6.66,1.72,14.27,3.2,22.81,2.92,10.62-.99,16.69-2.97,24.29-6.03,14.33-6.25,22.92-13.13,27.43-16.65.01-.01.03-.03.04-.04.04-.03.07-.06.11-.08,3.05-3.08,8-6.88,12.86-11.08-7.98,10.5-14.24,17.37-12.27,23.65,0,0,.02.02.02.04,0,.01,0,.03,0,.03,1.32,3.82,12.76,13.65,20.04,26.28,2.15,2.98,3.66,6.15,4.7,9.24l1.26,18.04s-.01.05-.03.05h0s0,0,0,0h.03v.04s.03-.03.05-.04v.03s.03-.03.08-.05c.09-.01.22-.04.39-.06,1.25-.15,4.95-.55,9.69-3.36,6.08-3.36,13.34-10.51,18.85-19.37,6.56-10.07,10.71-22.28,12.45-32.87,4.4.6,9.43,1.12,14.91,1.51,9.69.68,25.37,1.82,38.86-4.12,1.93-.85,3.82-1.84,5.63-3,1.05-.72,1.94-1.46,2.87-2.19,7.83-6.1,12.12-12.27,15.79-17.3.9-1.24,1.79-2.43,2.67-3.5.18-.21.35-.38.52-.58.54-.63,1.08-1.25,1.64-1.81.28-.32.54-.61.82-.92,2.11-2.37,4.02-4.27,5.52-5.7.11-.09.22-.21.32-.3.44-.4.86-.78,1.19-1.09ZM227.93,33.89s.01,0,.02.01c0,0,0,0-.01,0h0Z"/>
        </g>
      </g>
      <g>
        <g>
          <path class="cls-7" d="M173.11,220.92c-.21.28-.42.54-.62.82.9,0,1.8-.01,2.7-.01,32.43,0,62.8,3.04,88.85,10.71.3-.23.59-.47.89-.7,6.12-4.76,9.47-9.59,12.33-13.51.71-.97,1.4-1.9,2.08-2.73.14-.16.27-.3.41-.45.42-.49.84-.98,1.28-1.41.22-.25.42-.48.64-.72,1.65-1.85,3.14-3.34,4.31-4.45.08-.08.17-.16.25-.24.34-.31.67-.61.93-.85.89-.8,1.42-1.24,1.4-1.26,0,0-.06.01-.09.02,0,0,.01,0,.01,0,.03-.01.05-.02.07-.04l-48.83,2.04c-1.73-4.26-6.1-11.83-15.36-17.05-12.57-8.01-30.19-10.43-37.14-7.35-.82.33-1.59.75-2.35,1.18-.16.08-.31.15-.46.23-.13.08-.25.17-.37.25-3.5,2.09-6.1,5.2-7.75,8.74-.96-.45-2.01-.83-3.14-1.18.17.04.38.06.53.11-.95-.4-2.15-.7-3.47-.95-.01,0-.02,0-.04-.01-.49-.11-1.09-.17-1.64-.25-.21-.1-.41-.21-.62-.31.18.07.38.11.55.19-2.56-1.34-5.75-2.26-9.26-2.77-.13-.03-.25-.05-.38-.07-.35-.05-.7-.08-1.05-.12-5.51-.71-11.72-.38-17.95,1.34-.74.19-1.48.34-2.21.56-2.53.8-5.69,1.92-9.86,4.1-1.96.93-4.25,2.38-6.56,3.93l-1.73,1.17c-2.15,1.25-2.86,2.21-4.23,3.49-1.03,1.16-1.7,2.07-2.23,2.88l-43.64,2.61s.04.04.06.06c0,0,0,0,.01.01,0,0,0,0-.01,0-.03,0-.08-.04-.08-.04-.14.07.14.63.8,1.55,2.38,3.35,9.81,11.53,20.99,18.91-4.58.88-8.84,1.87-12.28,3.23-7.01,2.49-10.33,5.76-10.36,5.62h.03s-.05.01-.08.02l.27-.02s.12.05.12.05h0s-.19,0-.19,0c0,.04.48-.07,1.44-.18.08,0,.12-.02.2-.02,28.5-11.51,63.71-16.05,101.92-16.27.32-.27.62-.54.94-.82Z"/>
          <g>
            <path class="cls-6" d="M69.41,208.91s-.01,0-.01-.01h0s0,0,.01.01Z"/>
            <path class="cls-6" d="M173.11,220.92c-.32.28-.64.55-.96.82.11,0,.22,0,.33,0,.21-.27.42-.54.62-.82Z"/>
            <g>
              <path class="cls-9" d="M264.03,232.44c-26.05-7.67-56.42-10.71-88.85-10.71-.9,0-3.72.6-3.03.01-38.21.23-73.44,4.76-101.94,16.27q.41-.04,0,0C27.58,255.24,0,288.07,0,345.44c0,96.75,72,268.72,168.75,268.72,2.15,0,4.29-.19,6.43-.36,94.05-7.37,175.19-173.76,175.19-268.36,0-64.32-34.67-97.79-86.34-113.01ZM163.06,229.69s-.06-.01-.08,0c0,0-.02,0-.03,0-.07.05-.16.1-.24.16.08-.06.16-.13.24-.18,0-.01.03-.02.03-.03.03-.02.06-.05.08-.07.79-.8,1.75-1.67,2.82-2.58-1.06.97-2.03,1.9-2.82,2.7Z"/>
              <path class="cls-6" d="M175.63,233.52c33.5.03,62.12,3.47,85.06,10.23,24.96,7.35,44.06,18.89,56.78,34.29,6.77,8.19,11.97,17.75,15.45,28.42,3.74,11.46,5.64,24.58,5.64,38.99,0,45.52-19.9,108.67-50.69,160.9-16.14,27.38-34.61,50.49-53.39,66.82-20.26,17.62-40.53,27.33-60.21,28.88l-.84.06c-1.68.13-3.27.26-4.69.26-19.92,0-39.93-8.58-59.46-25.5-18.07-15.66-35.65-38.63-50.85-66.44-14.12-25.84-25.99-55.35-34.32-85.34-8.07-29.03-12.33-56.57-12.33-79.65,0-24.98,5.72-45.85,17-62.03,10.27-14.73,25.7-26.33,45.84-34.47l-4.01-9.92h0l4.01,9.92c22.5-9.09,51.7-14.2,86.92-15.23l-2.5,7.11,1.91.67h8.66s2.58-4.25,2.58-4.25c.53-.51,1.08-1.03,1.63-1.54l-1.71-1.93c.1,0,.2,0,.3,0,1.11,0,2.14-.13,2.97-.24.09-.01.18-.02.26-.03M175.18,221.73c-.61,0-2.08.27-2.77.27-.34,0-.49-.07-.26-.26-38.21.23-73.44,4.76-101.94,16.27.2-.02.3-.03.3-.03,0,0-.1.01-.3.03C27.58,255.24,0,288.07,0,345.44c0,96.75,72,268.72,168.75,268.72,2.15,0,4.29-.19,6.43-.36,94.05-7.37,175.19-173.76,175.19-268.36,0-64.32-34.67-97.79-86.34-113.01-26.05-7.67-56.42-10.71-88.85-10.71h0ZM162.71,229.86c.08-.06.16-.13.24-.18,0-.01.03-.02.03-.03.03-.02.06-.05.08-.07.79-.8,1.75-1.67,2.82-2.58-1.06.97-2.03,1.9-2.82,2.7,0,0-.01,0-.02,0-.01,0-.03,0-.04,0,0,0-.01,0-.02,0,0,0,0,0,0,0,0,0-.01,0-.02,0,0,0,0,0,0,0-.07.05-.16.1-.24.16h0Z"/>
            </g>
          </g>
        </g>
        <path class="cls-1" d="M217.1,266.81c-15.72-20.44-9.43-31.4-9.43-31.4l-40.26-5.49v-.08l-.3.04-.31-.04v.08l-40.26,5.49s6.29,10.97-9.43,31.4c-15.72,20.43-62.88,45.57-45.59,122.59,17.23,76.74,40.7,198.7,95.28,199.61h0c.1.01.2,0,.31,0,.1,0,.2,0,.3,0h0c54.58-.92,78.05-122.88,95.28-199.62,17.29-77.03-29.87-102.16-45.59-122.59Z"/>
        <path class="cls-1" d="M19.67,334.21s56.01-30.17,79.53-41.06c23.52-10.89,20.16,18.44,5.6,22.63-14.56,4.19-100.26,34.78-85.13,18.44Z"/>
        <path class="cls-1" d="M21.95,396.06s50.44-28.49,71.78-39.15c21.34-10.66,20.73,11.27,7.29,15.99-13.43,4.72-91.97,36.88-79.07,23.16Z"/>
        <path class="cls-1" d="M40.81,443.21s50.44-28.49,71.78-39.15c21.34-10.66,20.72,11.27,7.29,15.99-13.43,4.72-91.97,36.88-79.07,23.16Z"/>
        <path class="cls-1" d="M63.61,497.45s50.44-28.49,71.78-39.15c21.34-10.66,20.72,11.27,7.29,15.99-13.44,4.72-91.97,36.88-79.07,23.17Z"/>
        <path class="cls-1" d="M85.62,535.96s50.44-28.49,71.78-39.15c21.34-10.66,20.73,11.27,7.29,15.99-13.44,4.72-91.98,36.88-79.07,23.16Z"/>
        <path class="cls-1" d="M113.12,569.76s50.44-28.49,71.78-39.15c21.34-10.66,20.72,11.27,7.29,15.99-13.43,4.72-91.97,36.88-79.07,23.16Z"/>
        <path class="cls-1" d="M322.54,334.21s-56.01-30.17-79.53-41.06c-23.52-10.89-20.16,18.44-5.6,22.63,14.56,4.19,100.26,34.78,85.13,18.44Z"/>
        <path class="cls-1" d="M320.26,396.06s-50.44-28.49-71.78-39.15c-21.34-10.66-20.73,11.27-7.29,15.99,13.44,4.72,91.97,36.88,79.07,23.16Z"/>
        <path class="cls-1" d="M301.4,443.21s-50.44-28.49-71.78-39.15c-21.34-10.66-20.73,11.27-7.29,15.99,13.44,4.72,91.97,36.88,79.07,23.16Z"/>
        <path class="cls-1" d="M278.61,497.45s-50.44-28.49-71.78-39.15c-21.34-10.66-20.73,11.27-7.29,15.99,13.44,4.72,91.97,36.88,79.07,23.17Z"/>
        <path class="cls-1" d="M256.6,535.96s-50.44-28.49-71.78-39.15c-21.34-10.66-20.73,11.27-7.29,15.99,13.44,4.72,91.97,36.88,79.07,23.16Z"/>
        <path class="cls-1" d="M229.09,569.76s-50.44-28.49-71.78-39.15c-21.34-10.66-20.72,11.27-7.29,15.99,13.43,4.72,91.97,36.88,79.07,23.16Z"/>
        <g>
          <path class="cls-8" d="M216.94,421.52c0,85.99-28.56,155.7-49.29,155.7s-44.81-71.39-44.81-157.38-7.84-160.75,44.81-160.75,49.29,76.43,49.29,162.43Z"/>
          <path class="cls-5" d="M217.49,421.52s0,.7,0,2.04c0,1.34-.02,3.34-.05,5.95-.09,5.21-.24,12.85-.76,22.58-.52,9.72-1.32,21.54-2.97,35.08-.85,6.76-1.93,13.96-3.38,21.5-1.52,7.53-3.31,15.44-5.81,23.55-2.51,8.11-5.59,16.47-9.86,24.79-2.14,4.16-4.58,8.3-7.59,12.31-1.5,2.01-3.18,3.96-5.12,5.83-1.94,1.85-4.13,3.65-6.93,5.03-1.4.68-2.95,1.25-4.67,1.56-.44.06-.87.13-1.31.18-.45.03-.9.04-1.35.06-.61-.01-.3-.01-.49-.02l-.23-.02-.45-.03c-.06,0-.18-.02-.32-.04l-.39-.05-.78-.13c-3.6-.78-6.26-2.56-8.48-4.46-2.21-1.92-3.98-4.07-5.56-6.26-1.58-2.2-2.96-4.47-4.22-6.79-2.52-4.63-4.54-9.46-6.36-14.37-1.81-4.91-3.37-9.93-4.77-15.01-2.81-10.17-4.99-20.62-6.87-31.22-1.87-10.61-3.44-21.38-4.71-32.27-.63-5.45-1.2-10.92-1.68-16.43-.51-5.5-.92-11.03-1.23-16.57-.36-5.54-.63-11.1-.79-16.68-.2-5.54-.41-11.09-.61-16.63-.48-11.1-.95-22.2-1.43-33.25-.18-5.54-.34-11.08-.43-16.61-.07-5.53-.05-11.06.04-16.58.21-11.04.83-22.06,2.43-33.01.82-5.47,1.89-10.94,3.49-16.33,1.58-5.38,3.69-10.72,6.69-15.75,2.98-4.99,6.97-9.7,11.99-13.13,4.98-3.46,10.75-5.59,16.38-6.47,2.82-.45,5.62-.67,8.36-.68h.26s.38,0,.38,0h.46s.93.03.93.03l.93.03,1.09.07c1.48.08,2.84.26,4.22.45,5.5.87,10.96,2.76,15.71,5.71,4.76,2.95,8.67,6.88,11.77,11.06,1.54,2.1,2.89,4.27,4.1,6.46,1.21,2.19,2.21,4.43,3.14,6.65,3.63,8.93,5.42,17.82,6.65,26.27,2.27,16.95,2.15,32.36,1.99,45.95-.26,13.59-.7,25.39-.93,35.11-.25,9.72-.38,17.35-.42,22.55-.04,5.2-.06,7.98-.06,7.98ZM216.39,421.52s-.01-2.77-.04-7.98c-.04-5.2-.12-12.84-.4-22.54-.29-9.71-.81-21.5-1.97-34.95-.57-6.72-1.3-13.86-2.29-21.31-.95-7.46-2.22-15.24-3.95-23.17-1.74-7.91-3.98-16.02-7.4-23.63-1.73-3.78-3.77-7.41-6.26-10.62-2.5-3.2-5.46-5.92-8.85-7.96-3.4-2.03-7.26-3.33-11.43-3.93-1.05-.12-2.12-.27-3.1-.31l-.75-.06-.92-.02-.92-.02h-.46c-.2-.01.01-.01-.08,0h-.21c-2.21.01-4.39.2-6.51.55-4.25.68-8.23,2.12-11.68,4.47-3.45,2.34-6.44,5.54-8.86,9.42-2.43,3.87-4.34,8.31-5.84,13.03-1.51,4.72-2.65,9.69-3.55,14.78-1.8,10.2-2.66,20.86-3.24,31.65-.29,5.4-.48,10.84-.65,16.31-.19,5.47-.33,10.97-.44,16.48-.26,11.06-.53,22.16-.79,33.25-.15,5.56-.31,11.11-.46,16.66-.12,5.52-.15,11.03-.06,16.54.13,5.5.35,10.99.68,16.46.35,5.47.83,10.91,1.44,16.32,2.37,21.62,6.93,42.73,13.86,62.11,3.49,9.64,7.55,18.95,12.61,27.02,1.26,2.01,2.6,3.92,4.03,5.66,1.42,1.75,2.95,3.3,4.5,4.51,1.52,1.23,3.17,2.01,4.34,2.18.04,0,.08,0,.12.01l.06.02s.04.01.13.02l.45.02h.23s.41.02-.04,0c.15-.02.3-.03.45-.04l.47-.09c.64-.15,1.35-.42,2.08-.8,1.47-.79,3-2.01,4.42-3.43,1.44-1.42,2.77-3.05,4.05-4.74,2.55-3.41,4.75-7.16,6.81-10.93,4.03-7.61,7.35-15.42,10.23-23.06,2.86-7.65,5.38-15.12,7.46-22.33,2.14-7.2,3.92-14.13,5.4-20.69,3-13.12,4.76-24.78,5.76-34.41,1.01-9.64,1.34-17.26,1.47-22.46.05-2.59.08-4.58.09-5.93.01-1.34.02-2.04.02-2.04Z"/>
        </g>
        <path class="cls-2" d="M184.91,418.16c0,82.59-7.02,149.54-15.68,149.54s-15.68-66.95-15.68-149.54,7.02-149.54,15.68-149.54,15.68,66.95,15.68,149.54Z"/>
      </g>
    </g>
  </g>
</svg>