<?xml version="1.0" encoding="UTF-8"?>
<svg id="Layer_2" data-name="Layer 2" xmlns="http://www.w3.org/2000/svg" width="75.06" height="73.16" viewBox="0 0 75.06 73.16">
  <defs>
    <style>
      .cls-1 {
        fill: #7eb341;
      }

      .cls-2 {
        fill: #549606;
      }

      .cls-3 {
        fill: #e83627;
      }

      .cls-4 {
        fill: #518d23;
      }

      .cls-5 {
        fill: #d82f27;
      }

      .cls-6 {
        fill: #78b639;
      }

      .cls-7 {
        fill: #f1663b;
      }
    </style>
  </defs>
  <g id="Vegetables">
    <g>
      <path class="cls-5" d="M75.06,43.31c0,8.38-5.08,14.85-10.56,20.71-6.6,7.06-16.32,9.14-27.17,9.14-9.88,0-19.42-2.24-25.92-8.24C4.84,58.87,0,49.67,0,40.39c0-12.41,5.13-24.15,15.93-29.91,5.27-2.81,11.83,1.31,18.21,0,14.54-3,25.09-1.48,31.6,4.57,6.51,6.05,9.32,19.03,9.32,28.26Z"/>
      <path class="cls-3" d="M62.19,36.93c0,6.48-3.92,11.47-8.16,16.01-5.1,5.46-12.61,7.06-21,7.06-7.64,0-15-1.73-20.03-6.36-5.08-4.68-8.82-11.79-8.82-18.96,0-9.59,3.96-18.66,12.31-23.12,4.07-2.17,9.14,1.02,14.07,0,11.24-2.32,19.39-1.14,24.42,3.53,5.03,4.68,7.2,14.7,7.2,21.84Z"/>
      <path class="cls-7" d="M24.14,15.76s-8.9-5.9-14.58,5.85c-6.11,12.63-3.85,20.03.34,23.71,0,0,5.29,2.24,5.58-2.87s-4.1-9.68-.97-14.52,6.68-.72,10.09-2.69c3.41-1.97,3.87-5.77-.46-9.47Z"/>
      <path class="cls-6" d="M30.06,9.79S16.73.07,6.34,4.57C-4.06,9.08,12.31.83,26.8,13.38c3.75,3.25-6.48-1.62-13.65,3.46-5.4,3.83-5.5,11.24-4.06,13.03,1.43,1.79.08-8.93,8.73-10.64,0,0,11.77-1.08,14.91-.4,1.66.36,12.97,3.59,9.23,18.95-1.07,4.38,10.49-12.27,2.39-17.79-1.21-.82-.28-2.65-.28-2.65,0,0,8.69-.86,12.95,1.4,2.52,1.34,6.54,5.5,7.26,8.1.64,2.3.29-11.83-15.63-14.95-13.3-2.6,7.41-7.66,13.75-5.42,6.33,2.24-13.91-6.93-22.35.6-6.45,5.76-8.54,3.41-9.98,2.71Z"/>
      <path class="cls-4" d="M33.75,12.06s-3.66-1.34-6.8-2.56c-3.14-1.21,6.06,4.57,2.89,5.2-3.16.63-7.62,1.66-8.65,2.38s9.71-.74,15.19,1.66c1.95.85,4.73,1.35,8.63,5.65,1.09,1.2-.58-3.72-3.23-6.86-1.94-2.3,5.6-1.91,8.74-1.6,3.14.31-4.12-2.03-6.63-4.54-2.51-2.51-1.21-3.36-.13-3.77,1.08-.4-3-.99-4.48,1.93-1.48,2.91-3.15,2.54-5.53,2.51Z"/>
      <path class="cls-1" d="M36.84,15.1c-5.12.62-3.34-4.47-3.28-6.53.07-2.66-.75-5.43-1.27-8.08.02,0,.04,0,.06,0,.8.64,3.2.5,4.3,0,.64,2.54,1.13,5.39,1.66,7.94.33,1.63,1.76,6.28-1.46,6.67Z"/>
      <path class="cls-2" d="M36.64.5c0,.27-.98.5-2.18.5s-2.18-.22-2.18-.5.98-.5,2.18-.5,2.18.22,2.18.5Z"/>
    </g>
  </g>
</svg>