<?xml version="1.0" encoding="UTF-8"?>
<svg id="Layer_2" data-name="Layer 2" xmlns="http://www.w3.org/2000/svg" width="955.91" height="1069.84" viewBox="0 0 955.91 1069.84">
  <defs>
    <style>
      .cls-1 {
        fill: #5ebc4b;
      }

      .cls-2 {
        fill: #008f0c;
      }

      .cls-3 {
        fill: #00a20f;
      }

      .cls-4 {
        fill: #50ff34;
      }

      .cls-5 {
        fill: #73e260;
      }

      .cls-6 {
        fill: #057a08;
      }

      .cls-7 {
        fill: #876f0f;
      }

      .cls-8 {
        fill: #54a341;
      }
    </style>
  </defs>
  <g id="Layer_1-2" data-name="Layer 1">
    <g>
      <g>
        <path class="cls-2" d="M756.32,705.95c6.17-18.5,6.17-6.17,9.25-30.83,3.08-24.67,6.17-9.25,6.17-49.34s-6.17-67.84-6.17-77.09-3.08-9.25-9.25-37c-6.17-27.75-9.25-37-12.33-49.34-3.08-12.33,6.17-15.42-9.25-37-3.35-4.69-6.11-8.5-8.43-11.73-20.04,47.22-46.81,95.29-82.52,140.75v37.3s15.21,18.69-.2,58.77c-15.42,40.09-21.58,55.5-21.58,74.01s12.34,21.59,0,77.09c-7.28,32.77-14.56,54.79-21.21,69.87,52.52-28.56,96.52-62.16,133.38-98.65,7.96-29.84,9.81-39.06,9.81-39.06,0,0,6.17-9.25,12.33-27.75Z"/>
        <path class="cls-2" d="M774.83,332.84c9.25,9.25,21.58,3.08,21.58,30.84s18.5,58.59,21.59,67.84c3.08,9.25,24.67,40.09,24.67,58.59s-3.08,33.92,0,49.34c3.08,15.42,0-15.42,9.25,33.92,1.64,8.74,3.18,16.22,4.58,22.81,32.06-69.91,48.86-138.9,57.54-195.86-31.09-68.64-78.11-128.62-136.39-175.28-3.53,25.35-8.67,53.35-16.09,82.94,3.51,12.22,6.96,18.55,13.28,24.87Z"/>
        <path class="cls-6" d="M370.73,949.16c-21.53,3.81-43.89,7-67.12,9.51,4.59,5.95,11.61,12.97,26.52,27.88,24.67,24.67,15.42,12.33,24.67,18.5,9.25,6.17,27.75,27.75,27.75,27.75l6.17,24.67s-12.34-83.26-12.34-92.51c0-2.63-2.24-8.49-5.65-15.81Z"/>
        <path class="cls-2" d="M551.09,857.05c0-9.25,6.17-6.17,0-37-6.17-30.83-9.25-9.25-9.25-58.59s-6.17-37-3.08-64.75c3.08-27.75,6.15-9.25,9.24-46.25,0-.04,0-.07,0-.11-12.51,9.87-25.69,19.42-39.55,28.59,7.74,20.98-.53,19.91-.53,46.96s-5.18,29.37-5.18,60.47-1.73,27.64-1.73,32.83-1.73,15.55-13.82,46.65c-12.09,31.1,0,19,1.73,36.28.59,5.87,1.16,11.73,1.67,16.91,14.44-4.83,28.4-9.99,41.89-15.44.04-.09.07-.19.11-.29,9.25-24.67,18.5-37,18.5-46.25Z"/>
        <path class="cls-3" d="M533.08,140.66l5.69-11.33s-3.09,49.33,3.08,61.66c6.17,12.33,33.91,70.92,33.91,70.92,0,0,24.67,70.92,24.67,80.17s15.42,33.92,15.42,43.17,9.35-9.25,18.6,40.09c9.25,49.34,9.35,30.84,9.35,83.26v45.77c35.72-45.47,62.49-93.54,82.52-140.75-8.33-11.63-10.75-15.62-13.16-25.28-3.08-12.33-9.25-37-15.42-46.25-6.17-9.25-83.26-86.34-86.34-111.01-3.08-24.67-6.17-27.75-12.33-37s-24.67-24.67-24.67-24.67l-15.42-18.5-12.33-21.59,49.34,18.5s15.42,9.25,30.84,18.5c15.42,9.25,24.67,6.17,33.92,18.5,9.25,12.33-6.17,3.08,21.58,21.58,27.75,18.5,15.42,3.08,40.09,33.92,24.67,30.83,27.75,18.5,33.92,46.25,1.95,8.79,3.6,15.72,5.23,21.38,7.42-29.59,12.56-57.59,16.09-82.94-81.97-65.63-186.21-104.92-299.69-104.92,0,0,21.77,3.05,40.27,3.05,7.74,0,12.24,8.09,14.86,17.51Z"/>
        <path class="cls-2" d="M209.87,804.62c15.42,55.51,6.17,15.42,15.42,43.17,9.25,27.75,0,15.42,0,24.67s12.34,12.34,21.59,21.59c9.25,9.25,12.33,6.17,30.83,24.67,18.5,18.5,12.34,15.42,18.5,27.75,2.44,4.88,4.4,8.31,7.4,12.2,23.23-2.51,45.59-5.7,67.12-9.51-8.61-18.47-24.72-46.28-31.35-55.11-9.25-12.33-21.59-37-33.92-92.51-3-13.48-4.53-23.87-5.15-32.13-29.77,7.71-61.37,14.13-94.89,19.07,1.35,4.96,2.83,10.33,4.45,16.14Z"/>
        <path class="cls-2" d="M437.09,860.65c-5.18-27.64,0-48.38,5.18-69.11,5.18-20.74,1.73-50.11,1.73-60.47,0-2.91-.27-8.14-.66-14.57-18.12,9.06-37.2,17.54-57.28,25.36-.26,5.2-.42,11.58-.42,19.6,0,49.34-3.08,27.75-9.25,58.59-6.17,30.84,0,27.75,0,37s9.25,21.58,18.5,46.25c7.39,19.71,8.88,23.67,12.32,38.63,15.52-3.41,30.58-7.15,45.18-11.22-1.26-5.03-3.63-10.43-6.66-16.5-6.91-13.82-3.46-25.92-8.64-53.56Z"/>
        <path class="cls-3" d="M108.11,792.29c-6.17-24.67-3.08-46.25-12.33-67.84-9.25-21.58-15.42-24.67-21.58-58.59-6.17-33.92,0-43.17,9.25-92.51,9.25-49.34,6.17-18.5,9.25-33.92,3.08-15.42,0-30.84,0-49.34s21.58-49.34,24.67-58.59c3.08-9.25,21.59-40.09,21.59-67.84s12.33-21.59,21.58-30.84c9.25-9.25,12.33-18.5,18.5-46.26,6.17-27.75,9.25-15.42,33.92-46.25,24.67-30.84,12.33-15.42,40.09-33.92,27.75-18.5,12.33-9.25,21.59-21.58,9.25-12.33,18.5-9.25,33.92-18.5,15.42-9.25,30.84-18.5,30.84-18.5l49.34-18.5-.02.04,3.63,7.22c8.18-7.58,25.65-12.26,29.53-13.23C184.32,150.94,0,351.57,0,594.97c0,73.51,16.81,143.11,46.83,205.23,21.56-.17,42.49-.87,62.81-2.04-.52-1.95-1.04-3.92-1.53-5.88Z"/>
        <path class="cls-2" d="M194.45,946.47c-18.5-15.42-21.58-18.5-37-37-15.42-18.5-27.75-43.17-30.83-55.5-2.84-11.35-10.9-33.16-16.98-55.79-20.32,1.18-41.25,1.87-62.81,2.04,31.14,64.45,76.48,120.83,132,165.15,11.85-.04,23.52-.24,34.99-.59-5.47-5.33-11.22-11.52-19.37-18.31Z"/>
        <path class="cls-3" d="M305.46,724.45c0-18.5-6.17-33.92-21.58-74.01-15.42-40.09-.22-58.77-.22-58.77v-83.07c0-52.42.11-33.92,9.36-83.26,9.25-49.34,18.61-30.84,18.61-40.09s15.42-33.92,15.42-43.17,24.66-80.17,24.66-80.17c0,0,27.75-58.58,33.91-70.92,3.62-7.24,4.05-27.22,3.78-42.49l-.68-.69c-1.06-2.65-.75-5.11.48-7.38-.21-6.28-.48-10.65-.5-11.07l-12.31,21.54-15.42,18.5s-18.5,15.42-24.67,24.67c-6.17,9.25-9.25,12.33-12.34,37-3.08,24.67-80.17,101.76-86.34,111.01-6.17,9.25-12.34,33.92-15.42,46.25-3.08,12.33-6.17,15.42-21.59,37-15.42,21.58-6.17,24.67-9.25,37-3.08,12.33-6.17,21.58-12.33,49.34-6.17,27.75-9.25,27.75-9.25,37s-6.17,37-6.17,77.09,3.08,24.67,6.17,49.34c3.08,24.67,3.08,12.33,9.25,30.83,6.17,18.5,12.33,27.75,12.33,27.75,0,0,2.47,12.36,14.05,54.78,33.52-4.95,65.12-11.36,94.89-19.07-1.92-25.77,5.15-30.95,5.15-44.96Z"/>
        <path class="cls-6" d="M914.03,400.31c-8.68,56.96-25.48,125.95-57.54,195.86,6.47,30.58,9.75,41.79,4.67,69.69-6.17,33.92-12.33,37-21.59,58.59-9.25,21.59-6.17,43.17-12.33,67.84-6.17,24.67-15.42,49.34-18.5,61.67-3.08,12.33-15.42,37-30.84,55.5-15.42,18.5-18.5,21.58-37,37-18.5,15.42-24.67,27.75-43.17,33.92-18.5,6.17-40.09,21.58-52.42,27.75-12.33,6.17-49.34,37-74.01,43.17l-24.67,6.17,6.17-24.67s18.5-21.58,27.75-27.75c9.25-6.17,0,6.17,24.67-18.5,24.67-24.67,27.75-27.75,33.92-40.09,6.17-12.33,0-9.25,18.5-27.75,18.5-18.5,21.58-15.42,30.84-24.67,9.25-9.25,21.58-12.33,21.58-21.59s-9.25,3.08,0-24.67c9.25-27.75,0,12.33,15.42-43.17,3.5-12.59,6.36-23.11,8.69-31.86-36.86,36.49-80.86,70.08-133.38,98.65-4.61,10.46-8.92,17.59-12.71,22.64-9.25,12.33-37,61.67-37,70.92s-12.34,92.51-12.34,92.51l-7.09,1.42c-7.99,2.03-23.28,5.65-35.28,6.98-17.03,1.89-8.83-.63-8.83-.63l10.09-8.83,1.89-5.68s3.78-5.68,4.42-7.57c.63-1.89,1.89-4.42,1.89-6.94s.63-9.46.63-9.46c0,0-1.26-3.79,0-5.68,1.26-1.89.63.63,3.15-7.57,2.52-8.2,2.52-10.72,3.15-13.25.63-2.52.63-5.05,1.26-7.57.63-2.52,1.89-6.94,1.89-6.94,0,0,0-1.03.36-2.72-1.44-1.3-3.75-6.51.87-27.32,6.14-27.64,6.17-27.76,15.31-52.14-13.5,5.46-27.45,10.61-41.89,15.44.99,10.07,1.7,17.57,1.7,17.57v24.26c0,17.28-5.14,39.74-10.33,58.74-5.18,19.01-8.6,41.47-8.6,41.47,0,0-5.18,10.37-22.46,6.91-17.28-3.46-5.18-31.1-12.09-38.01-6.91-6.91,5.18-38.01,5.18-51.83s1.73-19.01,6.91-29.37c2.91-5.82,3.1-11.63,1.48-18.06-14.61,4.07-29.66,7.81-45.18,11.22.87,3.76,1.86,8.21,3.09,13.79,6.17,27.75,0,27.75,0,27.75l-.24,3c.38,1.35,1.21,4.33,1.69,6.23.63,2.52.63,5.05,1.26,7.57.63,2.52.63,5.05,3.15,13.25,2.52,8.2,1.89,5.68,3.15,7.57,1.26,1.89,0,5.68,0,5.68,0,0,.63,6.94.63,9.46s1.26,5.05,1.89,6.94c.63,1.89,4.42,7.57,4.42,7.57l1.89,5.68,10.09,8.83s8.2,2.52-8.83.63c-17.03-1.89-40.7-8.4-40.7-8.4l-24.67-6.17c-24.67-6.17-61.67-37-74-43.17-12.33-6.17-33.92-21.58-52.42-27.75-10.36-3.45-16.85-8.84-23.8-15.61-11.48.35-23.14.54-34.99.59,81.89,65.37,185.91,104.48,299.13,104.48,263.97,0,477.95-212.61,477.95-474.87,0-69.37-14.97-135.26-41.88-194.66Z"/>
        <path class="cls-3" d="M407.37,212.58s-3.16,15.42-12.41,49.34c-9.25,33.92-9.33,30.83-9.33,30.83,0,0-9.25,24.67-15.42,52.42-6.17,27.75,0,33.92,0,43.17s0,12.33,3.08,61.67c3.08,49.34,0,37,0,46.25v104.84c0,37,3.08,12.33,6.17,49.34,3.08,37,6.17,18.5,9.25,46.25,2.58,23.24-1.32,18.38-2.66,45.16,20.08-7.82,39.16-16.3,57.28-25.36-1-16.48-2.79-40.87-2.79-54.54,0-19.01-3.45-53.56-13.82-69.11-10.37-15.55-6.91-36.28-6.91-55.29s0-39.74,1.73-55.29c1.73-15.55,0-27.64-5.18-39.74-5.18-12.1,0-41.46,12.09-100.21,12.09-58.74,5.18-36.28,5.18-67.38s1.73-50.1,1.73-65.65,1.73-27.63,3.46-38c1.73-10.37,5.19-46.62,5.19-46.62,0,0,12.08-8.7,18.99,5.12,6.91,13.82,0,13.82,0,34.56s3.46,17.28,12.09,32.83c8.64,15.55,3.46,19,5.18,48.38,1.73,29.37-1.62,52.03-1.62,52.03v39.54c0,22.46,1.67,36.28,1.67,41.47s3.4,12.09,15.5,39.74c12.09,27.64,6.91,20.73,10.37,74.29,3.46,53.56-1.73,31.1-13.82,82.93-12.1,51.83,0,29.37,3.46,62.2,3.46,32.83,3.46,17.28,12.09,39.74.19.48.36.95.53,1.41,13.86-9.18,27.03-18.72,39.55-28.59,3.08-36.84,6.15-12.26,6.15-49.23v-104.84c0-9.25-3.07,3.08.01-46.25,3.08-49.34,3.09-52.42,3.09-61.67s6.17-15.42,0-43.17c-6.17-27.75-15.42-52.42-15.42-52.42,0,0-.09,3.08-9.34-30.83-9.25-33.92-12.42-49.34-12.42-49.34v-46.04c-1.23-33.7-42.12-46.44-42.12-46.44-18.72,0-37.19,1.07-55.35,3.15l-15.23,43.29v46.04Z"/>
        <path class="cls-1" d="M296.21,946.47c-6.17-12.33,0-9.25-18.5-27.75-18.5-18.5-21.58-15.42-30.83-24.67-9.25-9.25-21.59-12.33-21.59-21.59s9.25,3.08,0-24.67c-9.25-27.75,0,12.33-15.42-43.17-1.62-5.81-3.09-11.18-4.45-16.14-30.32,4.47-62.22,7.75-95.78,9.69,6.07,22.64,14.14,44.44,16.98,55.79,3.08,12.33,15.42,37,30.83,55.5,15.42,18.5,18.5,21.58,37,37,8.15,6.79,13.9,12.98,19.37,18.31,31.28-.95,61.19-3.01,89.79-6.1-3-3.89-4.96-7.32-7.4-12.2Z"/>
        <path class="cls-8" d="M354.8,1005.06c-9.25-6.17,0,6.17-24.67-18.5-14.91-14.91-21.94-21.94-26.52-27.88-28.59,3.09-58.5,5.15-89.79,6.1,6.95,6.78,13.45,12.16,23.8,15.61,18.5,6.17,40.09,21.58,52.42,27.75,12.33,6.17,49.34,37,74,43.17l24.67,6.17-6.17-24.67s-18.5-21.58-27.75-27.75Z"/>
        <path class="cls-8" d="M734.18,772.76c-2.33,8.75-5.2,19.27-8.69,31.86-15.42,55.51-6.17,15.42-15.42,43.17-9.25,27.75,0,15.42,0,24.67s-12.33,12.34-21.58,21.59c-9.25,9.25-12.33,6.17-30.84,24.67-18.5,18.5-12.33,15.42-18.5,27.75-6.17,12.33-9.25,15.42-33.92,40.09-24.67,24.67-15.42,12.33-24.67,18.5-9.25,6.17-27.75,27.75-27.75,27.75l-6.17,24.67,24.67-6.17c24.67-6.17,61.67-37,74.01-43.17,12.33-6.17,33.92-21.58,52.42-27.75,18.5-6.17,24.67-18.5,43.17-33.92,18.5-15.42,21.58-18.5,37-37,15.42-18.5,27.75-43.17,30.84-55.5,3.08-12.33,12.33-37,18.5-61.67,6.17-24.67,3.08-46.25,12.33-67.84,9.25-21.58,15.42-24.67,21.59-58.59,5.07-27.91,1.8-39.12-4.67-69.69-27.77,60.57-67,121.84-122.31,176.59Z"/>
        <path class="cls-1" d="M842.66,539.44c-3.08-15.42,0-30.84,0-49.34s-21.58-49.34-24.67-58.59c-3.08-9.25-21.59-40.09-21.59-67.84s-12.33-21.59-21.58-30.84c-6.32-6.32-9.76-12.65-13.28-24.87-8.45,33.68-19.86,69.41-35.24,105.65,2.31,3.23,5.08,7.04,8.43,11.73,15.42,21.58,6.17,24.67,9.25,37,3.08,12.33,6.17,21.58,12.33,49.34,6.17,27.75,9.25,27.75,9.25,37s6.17,37,6.17,77.09-3.08,24.67-6.17,49.34c-3.08,24.67-3.08,12.33-9.25,30.83-6.17,18.5-12.33,27.75-12.33,27.75,0,0-1.85,9.22-9.81,39.06,55.31-54.75,94.54-116.02,122.31-176.59-1.39-6.59-2.94-14.07-4.58-22.81-9.25-49.34-6.17-18.5-9.25-33.92Z"/>
        <path class="cls-4" d="M389.19,140.45c.74-1.36,1.82-2.65,3.13-3.87l-3.63-7.22h0c.03.44.29,4.81.5,11.09Z"/>
        <path class="cls-8" d="M376.38,964.97c0,9.25,12.34,92.51,12.34,92.51l-5.35-54.68,13.88-42.89s3.15,3.15,4.42,5.04c1.26,1.89,3.16,6.94,5.68,11.99,2.52,5.05,2.52,8.83,2.52,8.83,0,0,.08.27.2.71l.24-3s6.17,0,0-27.75c-1.24-5.58-2.23-10.03-3.09-13.79-11.89,2.61-24.04,5.03-36.48,7.23,3.42,7.32,5.65,13.18,5.65,15.81Z"/>
        <path class="cls-1" d="M376.38,857.05c0-9.25-6.17-6.17,0-37,6.17-30.83,9.25-9.25,9.25-58.59,0-8.02.16-14.4.42-19.6-26.75,10.42-55.3,19.66-85.74,27.55.62,8.27,2.15,18.65,5.15,32.13,12.33,55.5,24.67,80.17,33.92,92.51,6.62,8.83,22.73,36.64,31.35,55.11,12.44-2.2,24.59-4.62,36.48-7.23-3.44-14.96-4.93-18.92-12.32-38.63-9.25-24.67-18.5-37-18.5-46.25Z"/>
        <path class="cls-4" d="M388.69,129.37h0s0-.04,0-.04c0,0,0,.01,0,.04Z"/>
        <path class="cls-1" d="M622.01,724.45c0-18.5,6.18-33.92,21.6-74.01,15.42-40.09.22-58.77.22-58.77v-37.3c-26,33.91-58.28,66.38-95.8,95.96,0,.04-.01.07-.02.11-3.08,37-6.16,18.5-9.24,46.25-3.08,27.75,3.08,15.42,3.08,64.75s3.08,27.75,9.25,58.59c6.17,30.84,0,27.75,0,37s-9.25,21.58-18.5,46.25c-.04.1-.07.19-.11.29,24.24-9.8,46.98-20.57,68.32-32.18,6.65-15.08,13.93-37.1,21.21-69.87,12.33-55.5,0-58.59,0-77.09Z"/>
        <path class="cls-8" d="M517.17,955.72c-4.62,20.81-2.31,26.01-.87,27.32.33-1.56.95-3.69,2.16-6.11,2.52-5.05,4.42-10.09,5.68-11.99,1.26-1.89,4.42-5.04,4.42-5.04l13.88,42.89-5.35,54.68s-2.07.57-5.42,1.42l7.09-1.42s12.34-83.26,12.34-92.51,27.75-58.59,37-70.92c3.79-5.05,8.1-12.17,12.71-22.64-21.33,11.6-44.08,22.37-68.32,32.18-9.14,24.38-9.17,24.49-15.31,52.14Z"/>
        <path class="cls-4" d="M422.63,123.16s-.28.06-.78.19c.25-.03.5-.06.74-.09l.03-.1Z"/>
        <path class="cls-4" d="M388.72,147.82l.68.69c-.05-2.9-.12-5.62-.21-8.06-1.23,2.27-1.53,4.73-.48,7.38Z"/>
        <path class="cls-4" d="M536.73,169.41s0-15.65-3.64-28.75l-13.01,25.88,1.23,33.7,15.42-30.84Z"/>
        <path class="cls-8" d="M388.72,1057.48s23.66,6.51,40.7,8.4c17.03,1.89,8.83-.63,8.83-.63l-10.09-8.83-1.89-5.68s-3.79-5.68-4.42-7.57c-.63-1.89-1.89-4.42-1.89-6.94s-.63-9.46-.63-9.46c0,0,1.26-3.79,0-5.68-1.26-1.89-.63.63-3.15-7.57-2.52-8.2-2.52-10.72-3.15-13.25-.63-2.52-.63-5.05-1.26-7.57-.48-1.9-1.31-4.88-1.69-6.23l-5.93,74.09-15.42-3.08Z"/>
        <path class="cls-8" d="M407.33,976.93c-2.52-5.05-4.42-10.09-5.68-11.99-1.26-1.89-4.42-5.04-4.42-5.04l-13.88,42.89,5.35,54.68,15.42,3.08,5.93-74.09c-.12-.44-.2-.71-.2-.71,0,0,0-3.79-2.52-8.83Z"/>
        <path class="cls-8" d="M517.17,983.47s-.39,0-.87-.44c-.36,1.69-.36,2.72-.36,2.72,0,0-1.26,4.42-1.89,6.94-.63,2.52-.63,5.05-1.26,7.57-.63,2.52-.63,5.05-3.15,13.25-2.52,8.2-1.89,5.68-3.15,7.57-1.26,1.89,0,5.68,0,5.68,0,0-.63,6.94-.63,9.46s-1.26,5.05-1.89,6.94c-.63,1.89-4.42,7.57-4.42,7.57l-1.89,5.68-10.09,8.83s-8.2,2.52,8.83.63c12-1.33,27.29-4.95,35.28-6.98l-8.33,1.67-6.17-77.09Z"/>
        <path class="cls-8" d="M542.44,1002.79l-13.88-42.89s-3.15,3.15-4.42,5.04c-1.26,1.89-3.15,6.94-5.68,11.99-1.21,2.42-1.84,4.55-2.16,6.11.48.44.87.44.87.44l6.17,77.09,8.33-1.67c3.35-.85,5.42-1.42,5.42-1.42l5.35-54.68Z"/>
        <path class="cls-1" d="M487.19,865.84c12.09-31.1,13.82-41.47,13.82-46.65s1.73-1.73,1.73-32.83,5.18-32.83,5.18-60.47,8.27-25.98.53-46.96c-20.21,13.37-41.88,25.95-65.12,37.58.39,6.43.66,11.66.66,14.57,0,10.37,3.46,39.74-1.73,60.47-5.18,20.73-10.37,41.46-5.18,69.11,5.18,27.65,1.73,39.74,8.64,53.56,3.03,6.07,5.4,11.47,6.66,16.5,13.09-3.65,25.82-7.54,38.2-11.68-.51-5.18-1.08-11.04-1.67-16.91-1.73-17.28-13.82-5.18-1.73-36.28Z"/>
        <g>
          <path class="cls-5" d="M336.29,194.08c6.17-9.25,24.67-24.67,24.67-24.67l15.42-18.5,12.31-21.54s0-.04,0-.04v.02s.03-.04.03-.04l-49.34,18.5s-15.42,9.25-30.84,18.5c-15.42,9.25-24.67,6.17-33.92,18.5-9.25,12.33,6.17,3.08-21.59,21.58-27.75,18.5-15.42,3.08-40.09,33.92-24.67,30.83-27.75,18.5-33.92,46.25-6.17,27.75-9.25,37-18.5,46.26-9.25,9.25-21.58,3.08-21.58,30.84s-18.5,58.59-21.59,67.84c-3.08,9.25-24.67,40.09-24.67,58.59s3.08,33.92,0,49.34c-3.08,15.42,0-15.42-9.25,33.92-9.25,49.34-15.42,58.59-9.25,92.51,6.17,33.92,12.33,37,21.58,58.59,9.25,21.59,6.17,43.17,12.33,67.84.49,1.96,1,3.92,1.53,5.88,33.56-1.94,65.46-5.21,95.78-9.69-11.58-42.41-14.05-54.78-14.05-54.78,0,0-6.17-9.25-12.33-27.75-6.17-18.5-6.17-6.17-9.25-30.83-3.08-24.67-6.17-9.25-6.17-49.34s6.17-67.84,6.17-77.09,3.08-9.25,9.25-37c6.17-27.75,9.25-37,12.33-49.34,3.08-12.33-6.17-15.42,9.25-37,15.42-21.59,18.5-24.67,21.59-37,3.08-12.33,9.25-37,15.42-46.25,6.17-9.25,83.26-86.34,86.34-111.01,3.09-24.67,6.17-27.75,12.34-37Z"/>
          <path class="cls-5" d="M756.32,286.58c-6.17-27.75-9.25-15.42-33.92-46.25-24.67-30.84-12.33-15.42-40.09-33.92-27.75-18.5-12.33-9.25-21.58-21.58-9.25-12.33-18.5-9.25-33.92-18.5-15.42-9.25-30.84-18.5-30.84-18.5l-49.34-18.5,12.33,21.59,15.42,18.5s18.5,15.42,24.67,24.67,9.25,12.33,12.33,37c3.08,24.67,80.17,101.76,86.34,111.01,6.17,9.25,12.33,33.92,15.42,46.25,2.41,9.66,4.83,13.64,13.16,25.28,15.38-36.24,26.79-71.97,35.24-105.65-1.63-5.66-3.27-12.59-5.23-21.38Z"/>
          <path class="cls-5" d="M615.71,385.26c0-9.25-15.35-33.92-15.35-43.17s-24.63-80.17-24.63-80.17c0,0-27.73-58.58-33.9-70.92-6.17-12.33-3.07-61.66-3.07-61.66l-5.68,11.32c-2.62-9.41-7.12-17.5-14.85-17.5-18.5,0-40.27-3.05-40.27-3.05,0,0,40.89,12.73,42.12,46.44l13-25.87c3.64,13.09,3.64,28.74,3.64,28.74l-15.54,30.82c.06-.17.63-2.48-1.37-33.69v46.04s3.3,15.42,12.55,49.34c9.25,33.92,9.4,30.83,9.4,30.83,0,0,9.28,24.67,15.45,52.42,6.17,27.75.01,33.92.01,43.17s-.16,12.33-3.25,61.67c-3.08,49.34-.17,37-.17,46.25v104.84c0,36.96-3.38,12.39-6.47,49.23,37.52-29.59,70.47-62.05,95.47-95.96v-45.77c0-52.42.39-33.92-8.86-83.26-9.25-49.34-18.25-30.84-18.25-40.09Z"/>
          <g>
            <path class="cls-5" d="M385.62,191c-6.17,12.33-33.91,70.92-33.91,70.92,0,0-24.66,70.92-24.66,80.17s-15.42,33.92-15.42,43.17-9.28-9.25-18.53,40.09c-9.25,49.34-9.27,30.84-9.27,83.26v83.07s-15.28,18.69.13,58.77c15.42,40.09,21.54,55.5,21.54,74.01,0,14.01-7.09,19.18-5.17,44.96,30.45-7.89,58.98-17.13,85.73-27.55,1.34-26.78,5.24-21.92,2.66-45.16-3.08-27.75-6.41-9.25-9.49-46.25-3.08-37-6.41-12.33-6.41-49.34v-104.84c0-9.25,3.32,3.08.24-46.25-3.08-49.34-2.97-52.42-2.97-61.67s-6.11-15.42.06-43.17c6.17-27.75,15.45-52.42,15.45-52.42,0,0-.18,3.08,9.07-30.83,9.25-33.92,12.15-49.34,12.15-49.34v-46.04l-17.7-18.03c.26,15.27.11,35.25-3.51,42.49Z"/>
            <path class="cls-5" d="M421.85,123.35c-3.88.97-21.36,5.65-29.53,13.23-1.31,1.22-2.39,2.51-3.13,3.87.08,2.44.16,5.17.21,8.06l17.97,18.03,15.23-43.29c-.25.03-.5.06-.74.09Z"/>
          </g>
          <path class="cls-5" d="M495.83,637.77c-3.46-32.83-15.55-10.37-3.46-62.2,12.09-51.83,17.28-29.37,13.82-82.93-3.45-53.56,1.73-46.65-10.37-74.29-12.09-27.64-15.41-34.55-15.41-39.74s-1.59-19.01-1.59-41.47v-39.54s3.27-22.66,1.54-52.03c-1.73-29.37,3.42-32.83-5.22-48.38-8.64-15.55-12.11-12.1-12.11-32.83s6.9-20.73,0-34.56c-6.91-13.82-19-5.12-19-5.12,0,0-3.46,36.25-5.19,46.62-1.73,10.37-3.46,22.45-3.46,38s-1.73,34.55-1.73,65.65,6.91,8.64-5.18,67.38c-12.09,58.74-17.28,88.11-12.09,100.21,5.18,12.09,6.91,24.19,5.18,39.74-1.73,15.55-1.73,36.28-1.73,55.29s-3.46,39.74,6.91,55.29c10.37,15.55,13.82,50.11,13.82,69.11,0,13.67,1.79,38.06,2.79,54.54,23.25-11.62,44.92-24.2,65.12-37.58-.17-.46-.35-.93-.53-1.41-8.64-22.46-8.64-6.91-12.09-39.74Z"/>
        </g>
        <path class="cls-8" d="M450.91,948.77c-5.18,10.37-6.91,15.55-6.91,29.37s-12.09,44.92-5.18,51.83c6.91,6.91-5.18,34.55,12.09,38.01,17.28,3.46,22.46-6.91,22.46-6.91,0,0,3.18-22.46,8.36-41.47,5.18-19.01,10.09-41.47,10.09-58.74v-24.26s-.48-7.5-1.47-17.57c-12.38,4.14-24.99,8.04-38.08,11.68,1.61,6.43,1.54,12.24-1.36,18.06Z"/>
      </g>
      <path class="cls-7" d="M419.12,122.67s34.42,20.34,85.67,0l1.96-1.56s-5.87-2.74-7.43-3.52c-1.57-.78-4.7-1.56-10.17-2.74-5.48-1.17-10.95-1.17-16.82-1.56-5.87-.39-9.78-.39-12.91-.39s-9.78.39-10.95.78c-1.17.39-3.52,1.56-9,2.74-5.48,1.17-14.87,2.35-20.34,6.26Z"/>
      <path class="cls-7" d="M457.06,114.94s-11.79-59.66,9.02-61.05c20.81-1.39,38.16,27.75,20.12,34.69-18.04,6.94-40.93,0-49.95-18.73-9.02-18.73,3.47-48.56-4.16-64.52,0,0,6.94-8.32,14.57-4.16,7.63,4.16,2.77,12.49,2.77,18.04s-2.08,33.3.69,40.24c2.77,6.94,2.08,18.73,9.71,20.12,7.63,1.39,20.81,3.47,18.73-4.86-2.08-8.33-12.49-10.41-13.18-3.47s-4.16,32.61-.69,36.77c3.47,4.16,4.16,12.49,4.16,12.49l-11.79-5.55Z"/>
    </g>
  </g>
</svg>