<?xml version="1.0" encoding="UTF-8"?>
<svg xmlns="http://www.w3.org/2000/svg" width="125.48" height="138.9" viewBox="0 0 125.48 138.9">
  <defs>
    <style>
      .cls-1 {
        opacity: .29;
      }

      .cls-1, .cls-2, .cls-3, .cls-4, .cls-5, .cls-6, .cls-7, .cls-8, .cls-9, .cls-10, .cls-11, .cls-12, .cls-13, .cls-14, .cls-15, .cls-16, .cls-17, .cls-18, .cls-19, .cls-20, .cls-21, .cls-22, .cls-23, .cls-24, .cls-25, .cls-26, .cls-27, .cls-28 {
        mix-blend-mode: multiply;
      }

      .cls-1, .cls-17, .cls-29 {
        fill: #ef903c;
      }

      .cls-2, .cls-30 {
        opacity: .38;
      }

      .cls-31 {
        fill: #c5af59;
      }

      .cls-3, .cls-27 {
        opacity: .31;
      }

      .cls-4 {
        opacity: .47;
      }

      .cls-4, .cls-32, .cls-22 {
        fill: #792e07;
      }

      .cls-33, .cls-8 {
        fill: #564217;
      }

      .cls-34 {
        opacity: .25;
      }

      .cls-35 {
        fill: #d17204;
      }

      .cls-5, .cls-36 {
        opacity: .28;
      }

      .cls-37 {
        fill: none;
      }

      .cls-6, .cls-10 {
        opacity: .36;
      }

      .cls-6, .cls-38, .cls-39, .cls-40, .cls-41, .cls-25, .cls-42 {
        fill: #d8c782;
      }

      .cls-7 {
        fill: #886f0b;
      }

      .cls-7, .cls-17, .cls-26 {
        opacity: .41;
      }

      .cls-8 {
        opacity: .18;
      }

      .cls-9, .cls-43 {
        opacity: .24;
      }

      .cls-44 {
        fill: #c4ac56;
      }

      .cls-11, .cls-15, .cls-21 {
        opacity: .27;
      }

      .cls-45 {
        fill: #a7882d;
        opacity: .12;
      }

      .cls-46, .cls-15, .cls-26 {
        fill: #644d19;
      }

      .cls-30, .cls-43, .cls-47 {
        fill: #fff;
      }

      .cls-38 {
        opacity: .44;
      }

      .cls-48 {
        fill: #513e15;
      }

      .cls-12, .cls-22 {
        opacity: .4;
      }

      .cls-13, .cls-20 {
        opacity: .13;
      }

      .cls-49 {
        isolation: isolate;
      }

      .cls-50 {
        fill: #d27100;
      }

      .cls-51 {
        fill: #614d18;
      }

      .cls-14 {
        opacity: .67;
      }

      .cls-52 {
        opacity: .76;
      }

      .cls-52, .cls-53, .cls-21, .cls-27 {
        fill: #b49f42;
      }

      .cls-16 {
        opacity: .49;
      }

      .cls-54 {
        fill: #423711;
      }

      .cls-55 {
        fill: #433412;
      }

      .cls-18 {
        opacity: .26;
      }

      .cls-19 {
        opacity: .39;
      }

      .cls-20, .cls-56, .cls-24 {
        fill: #997c1e;
      }

      .cls-57 {
        fill: #8d8e90;
      }

      .cls-39, .cls-23 {
        opacity: .23;
      }

      .cls-40 {
        opacity: .22;
      }

      .cls-24, .cls-25 {
        opacity: .52;
      }

      .cls-58 {
        fill: #7c6324;
      }

      .cls-41 {
        opacity: .07;
      }

      .cls-43, .cls-47 {
        mix-blend-mode: overlay;
      }

      .cls-47 {
        opacity: .19;
      }

      .cls-28 {
        opacity: .43;
      }
    </style>
  </defs>
  <g class="cls-49">
    <g id="Layer_2" data-name="Layer 2">
      <g id="Layer_1-2" data-name="Layer 1">
        <g>
          <path class="cls-54" d="M105.35,23.34c-.01-1.02-.06-1.88-.14-2.51-.24-2.73-.24-5.69-13.04-11.15-15.78-6.41-30.13-3.92-41.16-3.2-11.03.71-11.27,4.74-15.06,12.57-4.86,12.93-7.95,17.67-11.62,23.6-3.68,5.93.59,7.94,2.25,8.06-1.3,4.98-9.96,27.16-9.96,27.16,0,0,32.26,59.3,37.36,59.3s10.55-2.02,12.33-2.61c.83.71,10.79.71,22.77-2.01,11.98-2.73,11.15-9.84,10.32-16.37-.83-6.52-2.13-24.19-2.25-29.29-.12-5.1,1.15-10.75,1.15-10.75,1.43-6.41,1.52-13.03,2.9-19.45.85-3.96,1.74-7.88,2.36-11.9,1.18-7.66,1.87-16.53,1.8-21.45Z"/>
          <path class="cls-48" d="M105.35,23.34c-.91-6.75-4.19-6.9-9.63-6.9-6.88,0-12.22,13.76-14.23,20.99-2.02,7.24-4.98,13.52-7,14.82-5.34,6.29-7,27.04-6.88,38.19.12,11.15,1.78,24.43-.12,31.31-1.9,6.88-1.3,11.39-1.19,12.81.83.71,10.79.71,22.77-2.01,11.98-2.73,11.15-9.84,10.32-16.37-.83-6.52-2.13-24.19-2.25-29.29-.12-5.1,1.15-10.75,1.15-10.75,1.43-6.41,1.52-13.03,2.9-19.45.85-3.96,1.74-7.88,2.36-11.9,1.18-7.66,1.87-16.53,1.8-21.45Z"/>
          <path class="cls-26" d="M92.83,15.38l-.47,1.34c.07.02,6.53,2.46,3.27,15.18-1.47,4.41-2.19,7.75-2.5,9.45h-.21s-.08,1.11-.63,2.37c-.55,1.27-2.06,4.19.95,4.35,3,.16,1.98-2.37,1.82-3.64-.16-1.26-.24-3.08-.24-3.08h-.23c.33-1.73,1.04-4.93,2.41-9.03v-.05c3.61-13.99-3.83-16.79-4.16-16.9Z"/>
          <path class="cls-29" d="M95,42.66l-1.46-.06c.02-.17.59-4.32,2.71-10.7,3.26-12.72-3.2-15.15-3.27-15.18l.48-1.34c.32.11,7.77,2.91,4.17,16.9v.05c-2.1,6.26-2.67,10.42-2.67,10.46l.04-.13Z"/>
          <g>
            <path class="cls-29" d="M95,42.66h-.03c-.01.08-.02.13-.02.13l.04-.13Z"/>
            <path class="cls-17" d="M95.6,35.48c1.3-2.96,2.31-8.84,2.2-11.92-.12-3.09-2.55-5.1-2.67-6.23-.04-.4.13-.57.38-.62-1.03-.96-1.93-1.3-2.04-1.34l-.48,1.34c.07.02,6.54,2.46,3.27,15.18-2.13,6.38-2.69,10.53-2.71,10.7l1.43.05c.05-.33.21-1.34.56-2.88-1.44.43-1.01-1.85.06-4.29Z"/>
          </g>
          <g>
            <g>
              <path class="cls-57" d="M95.53,44.8c-.11-1.27-.13-3.09-.13-3.09l-1.9-.07s-.12,1.11-.71,2.35c-.59,1.25-2.2,4.12.8,4.38,3,.26,2.06-2.3,1.94-3.58ZM93.1,44.48c.42-.95.5-1.8.5-1.8l1.32.04s0,1.39.08,2.36c.02.31.11.7.14,1.1l-2.62-.2c.14-.56.41-1.14.58-1.51ZM93.65,47.83c-1.02-.09-1.27-.67-1.21-1.35l2.72.25c-.05.67-.37,1.21-1.51,1.1Z"/>
              <g class="cls-14">
                <path class="cls-57" d="M95.31,46.61l-2.82-.26c-.2.03-.02.11-.02.16l2.68.22c-.02.32-.11.61-.32.81.32-.2.45-.54.48-.93Z"/>
                <path class="cls-57" d="M94.93,42.73s0,1.39.08,2.36c.02.27.08.74.12,1.09h.17c-.03-.39-.11-.91-.13-1.21-.08-.97-.09-2.36-.09-2.36l-1.49-.04s0,.05-.02.13l1.34.03Z"/>
                <path class="cls-57" d="M93.74,48.26c-3-.26-1.4-3.13-.8-4.38.48-1.01.65-1.91.7-2.22h-.14s-.12,1.1-.71,2.34c-.59,1.25-2.2,4.12.8,4.38.84.07,1.37-.08,1.69-.36-.33.2-.82.31-1.53.24Z"/>
              </g>
            </g>
            <path class="cls-30" d="M94.21,47.99s1.35.18,1.25-1.58c.04-.32.63,1.82-1.25,1.58Z"/>
            <path class="cls-30" d="M94.93,41.84l.32.04s-.04.49-.08.55c-.04.06-.39-.61-.24-.59Z"/>
            <path class="cls-30" d="M93.58,46.13s1.56.08,1.56.16-2.23-.1-1.56-.16Z"/>
          </g>
          <g class="cls-13">
            <path class="cls-33" d="M87.69,95.12c-14.23,0-14.71-12.34-10.28-11.7,16.29,1.42,20.4-3.16,20.08-3.48-19.61,1.58-18.98-22.77-15.5-24.04,3.48-1.26,18.19,5.54,18.03.48-.16-5.06-3.63-6.8-11.07-6.8s-7.43-1.27-5.38-10.12c2.06-8.86,7.91-17.71,10.12-17.71s2.53,1.9,2.37,4.75c-.16,2.85-3.48,13.91-4.27,17.4-.79,3.48.79,4.27,2.69,4.27s2.05-2.53,1.58-5.22c-.47-2.69,0-3,2.06-8.22,2.06-5.22.95-8.22.95-11.54s-2.69-5.54.63-5.38c2.43.09,4.42,3.56,5.64,6.38,0-.29,0-.56,0-.82-.91-6.75-4.19-6.9-9.63-6.9-6.88,0-12.22,13.76-14.23,20.99-2.02,7.24-4.98,13.52-7,14.82-5.34,6.29-7,27.04-6.88,38.19.12,11.15,1.78,24.43-.12,31.31-1.9,6.88-1.3,11.39-1.19,12.81.83.71,10.79.71,22.77-2.01,11.98-2.73,11.15-9.84,10.32-16.37-.47-3.68-1.09-10.92-1.56-17.45-2.82-2.33-6.52-3.78-10.14-3.62Z"/>
          </g>
          <g>
            <path class="cls-32" d="M66.03,3.24c.4-.3,2.84-1.27,3.48-.48.63.79.48,3.96.48,3.96,0,0-11.7,2.37-3.95-3.48Z"/>
            <path class="cls-29" d="M54.8,7.04s5.22-6.33,9.65-5.85c4.43.47,5.06,1.58,5.06,1.58,0,0-3.48,1.11-4.58,3.16-1.11,2.06-10.12,1.11-10.12,1.11Z"/>
            <path class="cls-35" d="M68.53,2.1c-.97.84-3.44,1.69-6.93,2.24-2.47.39-3.34.03-3.5-.53-1.93,1.56-3.3,3.22-3.3,3.22,0,0,9.01.95,10.12-1.11,1.11-2.05,4.58-3.16,4.58-3.16,0,0-.18-.3-.97-.66Z"/>
          </g>
          <g>
            <g>
              <path class="cls-51" d="M85.16,5.89c.65-2.07,2.32-3.1,3.97-2.98C85.44-.01,76.16-.16,72.19.07c-3.49.2-3.1,4.23-2.91,5.44.04.21.07.34.07.34l2.45.24c.24-1.26.4-2.37,1.5-2.92,1.11-.55,7.35.16,9.81.87,2.45.72,1.11,3.09,1.11,3.09l.48,2.29s.25.19.65.41c-.37-.72-.58-1.91-.18-3.92Z"/>
              <path class="cls-55" d="M89.13,2.91c-1.65-.13-3.32.91-3.97,2.98-.4,2.01-.19,3.21.18,3.92.87.47,2.43,1.05,3.46-.09,1.5-1.66,2.37-4.82.71-6.48-.12-.11-.24-.22-.38-.33Z"/>
            </g>
            <g class="cls-28">
              <path class="cls-51" d="M76.26,1.85c-3.56-.12-4.39,0-5.69,2.13-.41.68-.89,1-1.34,1.12.02.15.04.29.05.41.04.21.07.34.07.34l2.45.24c.24-1.26.4-2.37,1.5-2.92,1.11-.55,7.35.16,9.81.87,1.39.41,1.56,1.35,1.44,2.09.22-.51.38-1.01.38-1.42,0-1.42-5.1-2.73-8.66-2.84Z"/>
            </g>
          </g>
          <path class="cls-50" d="M124.18,41.11c3.56-10.32-1.07-18.86-3.68-24.08-1.62-3.23-6.65-6.78-12.84-7.55,5.81.96,10.46,4.34,12.01,7.43,2.61,5.22,7.24,13.76,3.68,24.08-3.91,11.98-6.76,21.82-7.47,33.57-.71,11.74,1.42,28.46-.95,37.83-1.01,3.15-2.64,5.68-4.5,7.7,2.25-1.7,4.22-4.12,5.33-7.58,2.37-9.37.24-26.09.95-37.84.71-11.74,3.56-21.59,7.47-33.57Z"/>
          <g>
            <path class="cls-32" d="M110.78,12.06c-5.89-.65-9.35,1.78-10.61,2.9.37.21.7.4.97.55.64-.67,2.78-2.6,6.32-2.5.74.02,1.53.09,2.34.22,4.04.46,8.81,2.59,9.76,10.69.95,7.47-1.07,18.86-3.91,27.04-2.85,8.19-5.81,18.38-4.75,38.31.71,15.18,0,27.4-14,29.89.24.71.28,4.9.28,4.9,0,0,7.54.34,13.25-3.96,1.86-2.03,3.5-4.55,4.5-7.7,2.37-9.37.24-26.09.95-37.83.71-11.74,3.56-21.59,7.47-33.57,2.35-6.83,1.12-12.88-.73-17.7-.4-.64-.79-1.34-1.16-2.1-2.85-6.05-5.22-8.3-10.68-9.13Z"/>
            <path class="cls-29" d="M107.67,9.49c-3.8-.47-8.04.1-12.19,2.45.16.4,2.89,2,4.69,3.02,1.25-1.12,4.71-3.55,10.61-2.9,5.46.83,7.83,3.08,10.68,9.13.37.77.77,1.46,1.16,2.1-.95-2.46-2.06-4.61-2.94-6.38-1.54-3.09-6.2-6.46-12.01-7.43Z"/>
          </g>
          <g class="cls-10">
            <path class="cls-32" d="M115.21,85c0,5.85,0,21.03-3.01,21.03-.82,0-1.4-.38-1.79-.94-1.32,7.32-4.9,12.53-13.51,14.06.24.71.28,4.9.28,4.9,0,0,7.54.34,13.25-3.96,1.86-2.03,3.5-4.55,4.5-7.7,2.37-9.37.24-26.09.95-37.83.18-2.93.49-5.74.92-8.49-2.06,7.29-1.59,14.8-1.59,18.93Z"/>
            <path class="cls-32" d="M122.62,23.29c-.4-.64-.79-1.34-1.16-2.1-2.85-6.05-5.22-8.3-10.68-9.13-5.89-.65-9.35,1.78-10.61,2.9.37.21.7.4.97.55.64-.67,2.78-2.6,6.32-2.5.74.02,1.53.09,2.34.22,4.04.46,8.81,2.59,9.76,10.69.05.36.08.73.11,1.1.92.35,1.96,1.4,2.97,3.84,1.03,2.47,1.19,7.35.04,14.21.22-.68.45-1.38.67-2.08,2.35-6.83,1.12-12.88-.73-17.7Z"/>
          </g>
          <path class="cls-35" d="M100.03,11.62c-.23-.69.02-1.25.44-1.69-1.65.42-3.32,1.07-4.98,2,.16.4,2.89,2,4.69,3.02,1.25-1.12,4.71-3.55,10.61-2.9,5.46.83,7.83,3.08,10.68,9.13.37.77.77,1.46,1.16,2.1-.95-2.46-2.06-4.61-2.94-6.38-.61-1.21-1.7-2.47-3.16-3.61-3.41-1.72-4.19-2.16-8.9-2.16s-6.96,2.37-7.59.48Z"/>
          <path class="cls-51" d="M67.49,121.76c1.9-6.88.24-20.16.12-31.31-.12-11.15,1.54-31.91,6.88-38.19-3.44,1.78-4.75,2.49-12.46.95-7.71-1.54-13.52-2.25-19.45-2.13-5.93.12-12.69.83-16.01-.36-1.3,4.98-9.96,27.16-9.96,27.16,0,0,32.26,59.3,37.36,59.3s10.55-2.02,12.33-2.61c-.12-1.42-.71-5.93,1.19-12.81Z"/>
          <g class="cls-9">
            <path class="cls-51" d="M61.6,120.42c.79-9.8-1.42-24.36-3.96-34.32-2.53-9.96-19.92-17.24-26.57-17.4-4.43-.1-5.54,0-3.8-4.74.81-1.87,1.65-3.73,2.39-5.63,1.68-4.33,4.61-4.46,8.7-5.18,2.12-.38,4.27-.57,6.42-.56,3.41.02,7.12.41,10.31,1.72,4.64,1.91,2.45,7,1.68,10.9-.25,1.26-3.2,13.46,1.13,10.97,3.13-1.8,2.65-9.44,3.63-12.46,1.9-5.87,8.08-8.23,12.9-11.41-4.99,2.59-9.46,1.39-14.84.47-7.47-1.28-14.44-1.77-22.01-1.47-3.71.15-7.33.09-10.99-.55-2.04,5.9-4.11,11.77-6.32,17.6-.85,2.26-1.73,4.51-2.6,6.76-.12.32-1.25,2.42-1.07,2.76,0,0,32.26,59.3,37.36,59.3s10.55-2.02,12.33-2.61c-.07-.81-.29-2.6-.12-5.25-2.49,1.06-5.15-1.91-4.58-8.91Z"/>
          </g>
          <path class="cls-15" d="M98.29,116.51c-.33-2.56-.73-6.85-1.1-11.41.38-1.75.23-2.3-.32-4.1-1.15-1.76-3.43-3.9-6.57-3.9-4.27,0-14.47.47-18.34,2.21-.46.21-.85.53-1.19.92-2.47,2.93-1.74,10.23-1.74,10.23,0,0,1.1,9.49.79,14.23-.03.77.09,1.86.76,2.97,1.13,1.85,3.81,3.76,10,4.3,5.03.44,9,.19,12.13-.68.09-.05.17-.09.26-.13,6.71-3.38,6.02-9.22,5.33-14.65Z"/>
          <path class="cls-46" d="M99.39,116.19c-.33-2.56-.73-6.85-1.1-11.41.39-1.75.23-2.3-.32-4.1-1.15-1.76-3.43-3.9-6.57-3.9-4.27,0-14.47.47-18.34,2.21-.46.21-.85.53-1.19.93-2.47,2.93-1.73,10.22-1.73,10.22,0,0,1.1,9.49.79,14.23-.03.77.09,1.86.76,2.97,1.13,1.85,3.81,3.76,9.99,4.3,5.03.44,9,.19,12.13-.68.09-.04.17-.09.25-.13,6.71-3.38,6.02-9.22,5.33-14.65Z"/>
          <path class="cls-8" d="M27.04,51.19s.36,1.07,4.51.95c4.15-.12,14.71-1.07,23.36.36,8.66,1.42,14.47,3.68,18.15.59-2.61-2.37-11.51-2.37-20.05-2.97-8.54-.59-25.62-2.25-25.97,1.07Z"/>
          <path class="cls-44" d="M72.98,100.1c1.9.79,1.66,2.37,1.5,4.74-.16,2.37-1.27,6.32,9.17,6.48,9.92.15,13.12-3.91,14.64-6.55.39-1.75.23-2.3-.32-4.1-1.15-1.76-3.43-3.9-6.57-3.9-4.27,0-14.47.47-18.34,2.21-.46.21-.85.53-1.19.93.32-.03.69,0,1.11.18Z"/>
          <path class="cls-26" d="M97.81,63.12c3.72-.64,2.21-5.78.55-8.67-1.66-2.89-3.01-3.69-5.85-3.61-2.85.08-6.56-.08-11.39.16-3.25.16-4.66,1.67-5.25,2.64-.28.47-.37.82-.37.82-4.11,8.91-2.29,19.34-2.29,22.55,0,1.86.24,3.13,1.56,4.09.95.69,2.46,1.22,4.85,1.69,1.1.22,2.27.33,3.45.35,4.07.09,8.37-.83,11.26-1.99.62-.25,1.18-.51,1.66-.77,3.32-1.85,2.29-6.18,1.82-8.75-.47-2.57-.55-8.35,0-8.5ZM80.62,62.64s0,0,0,0c0,0,0,0,0,0ZM80.83,62.85s.03.03.05.04c-.02-.01-.03-.03-.05-.04ZM81.07,63.05s.03.02.04.03c-.01,0-.03-.02-.04-.03ZM81.34,63.25s.02.01.03.02c-.01,0-.02-.01-.03-.02ZM81.56,63.38s.05.02.07.03c-.02-.01-.05-.02-.07-.03ZM81.79,63.47s.05.01.07.02c-.02,0-.04-.01-.07-.02ZM79.84,61.65s0,0,0,0c0,0,0,0,0,0ZM79.73,61.47s-.02-.03-.02-.04c0,.01.01.03.02.04Z"/>
          <g>
            <path class="cls-53" d="M77.02,112.12c-.07,2.65.51,14.14,3.44,17.7.14.04.29.07.43.09,1.84.98,7.09,2.17,13.17.93,6.71-3.38,6.02-9.22,5.33-14.65-.33-2.56-.73-6.85-1.1-11.41-1.52,2.64-4.72,6.7-14.64,6.55-3.19-.05-5.3-.45-6.69-1.06.05.58.07,1.2.05,1.85Z"/>
            <path class="cls-58" d="M75.51,125.32c.89.52,2.69,3.84,4.94,4.5-2.93-3.56-3.51-15.04-3.44-17.7.02-.65,0-1.27-.05-1.85-3.15-1.37-2.59-3.78-2.47-5.42.15-2.37.4-3.96-1.5-4.74-.42-.17-.79-.22-1.11-.18-2.47,2.93-1.73,10.22-1.73,10.22,0,0,1.1,9.49.79,14.23-.03.77.09,1.86.76,2.97,1.04-.85,3.13-2.43,3.83-2.02Z"/>
            <path class="cls-46" d="M80.89,129.91c-.15-.02-.29-.05-.43-.09-2.25-.66-4.05-3.97-4.94-4.5-.7-.41-2.79,1.18-3.83,2.02,1.13,1.85,3.81,3.76,9.99,4.3,5.03.44,9,.19,12.13-.68.09-.04.17-.09.25-.13-6.08,1.24-11.33.05-13.17-.93Z"/>
          </g>
          <path class="cls-46" d="M98.76,62.94c3.72-.63,2.21-5.69.55-8.54-1.66-2.85-3-3.64-5.85-3.56-2.85.08-6.56-.08-11.39.16-3.25.16-4.66,1.64-5.24,2.6-.28.46-.37.8-.37.8-4.11,8.78-2.29,19.06-2.29,22.22,0,1.84.24,3.08,1.56,4.03.95.68,2.46,1.2,4.85,1.67,1.1.21,2.27.32,3.45.35,4.07.09,8.37-.82,11.26-1.96.62-.25,1.18-.5,1.65-.76,3.32-1.82,2.3-6.09,1.82-8.62-.47-2.53-.55-8.22,0-8.38Z"/>
          <path class="cls-31" d="M78.44,53.37c1.42.16,2.21,2.05,1.82,4.19-.39,2.14.08,3,.32,3.56.24.55,1.5,2.21,2.45,2.21s14.08-.63,15.74-.4c3.72-.63,2.21-5.69.55-8.54-1.66-2.85-3-3.64-5.85-3.56-2.85.08-6.56-.08-11.39.16-3.25.16-4.66,1.64-5.24,2.6.51-.17,1.08-.28,1.61-.22Z"/>
          <g>
            <path class="cls-53" d="M83.11,80.75c1.2.36,2.65.61,4.43.61,2.72,0,5.3-.18,7.75-.66.62-.25,1.18-.5,1.65-.76,3.32-1.82,2.3-6.09,1.82-8.62-.47-2.53-.55-8.22,0-8.38-1.66-.24-14.79.4-15.74.4-.62,0-1.37-.7-1.88-1.35,0,.03-.01.05-.01.08-.68,9.59.62,15.38,1.98,18.68Z"/>
            <path class="cls-58" d="M77.81,78.51c1.2.16,2.65,1.45,5.3,2.23-1.35-3.31-2.66-9.09-1.98-18.68,0-.03.01-.05.01-.08-.27-.34-.49-.67-.57-.87-.24-.55-.71-1.42-.32-3.56.4-2.13-.39-4.03-1.82-4.19-.53-.06-1.1.05-1.61.22-.28.46-.37.8-.37.8-4.11,8.78-2.29,19.06-2.29,22.22,0,1.84.24,3.08,1.56,4.03.4-1.06,1.09-2.26,2.08-2.13Z"/>
            <path class="cls-46" d="M87.53,81.36c-1.78,0-3.23-.25-4.43-.61-2.64-.79-4.1-2.07-5.3-2.23-.99-.14-1.67,1.07-2.08,2.13.95.68,2.46,1.2,4.85,1.67,1.1.21,2.27.32,3.45.35,4.07.09,8.37-.82,11.26-1.96-2.45.48-5.04.66-7.75.66Z"/>
          </g>
          <path class="cls-46" d="M77.57,78.44s-1.03-1.98-1.03-4.51c0,0-.08,4.95,1.11,5.06.59.12-.08-.55-.08-.55Z"/>
          <path class="cls-56" d="M92.16,9.68c-15.78-6.41-30.13-3.92-41.16-3.2-11.03.71-11.27,4.74-15.06,12.57-4.86,12.93-7.95,17.67-11.62,23.6-3.68,5.93.59,7.94,2.25,8.06,3.32,1.18,10.08.47,16.01.36,5.93-.12,11.74.59,19.45,2.13,7.71,1.54,9.01.83,12.46-.95,2.01-1.3,4.98-7.59,7-14.82,2.01-7.24,7.35-20.99,14.23-20.99,5.44,0,8.73.15,9.63,6.9-.01-1.02-.06-1.88-.14-2.51-.24-2.73-.24-5.69-13.04-11.15Z"/>
          <path class="cls-7" d="M103.11,15.98c-1.66-1.22-4.04-1.27-7.08-1.27-6.91,0-13.47,13.91-15.49,21.17-2.03,7.27-3.8,13.51-5.83,14.82-3.45,1.79-4.77,2.5-12.51.95-7.74-1.55-13.58-2.26-19.53-2.14-5.96.12-12.75.83-16.08-.36-1.08-.08-3.24-.95-3.65-3.16-.56,3.38,2.34,4.63,3.64,4.72,3.32,1.18,10.08.47,16.01.36,5.93-.12,11.74.59,19.45,2.13,7.71,1.54,9.01.83,12.46-.95,2.01-1.3,4.98-7.59,7-14.82,2.01-7.24,7.35-20.99,14.23-20.99,5.44,0,8.73.15,9.63,6.9-.01-1.02-.06-1.88-.14-2.51-.12-1.44-.19-2.95-2.1-4.85Z"/>
          <path class="cls-24" d="M57.41,78.16s-.03,0-.05,0c-.78-.03-1.4-.69-1.37-1.47.01-.47.49-11.69,7.48-26.95,2.13-5.07,3.51-9.45,4.85-13.68,1.92-6.08,3.57-11.33,6.94-16.76,4.99-8.03,7.55-11.06,10.93-11.82.77-.17,1.4-.12,2.06.32.71.48,1.32.78.55.95-1.73.39-5.6,3.17-11.12,12.06-3.18,5.13-4.79,10.22-6.65,16.11-1.29,4.1-2.75,8.75-4.96,13.97-6.76,14.75-7.24,25.8-7.24,25.91-.03.77-.66,1.37-1.42,1.37h0Z"/>
          <path class="cls-24" d="M21.47,72.66c-.19,0-.39-.04-.58-.12-.72-.32-1.04-1.16-.72-1.88.06-.13,5.68-12.71,8.34-23.02,1.51-5.85,9.02-34.38,22.77-41.39.7-.36,1.51-.14,2.29-.08,1.11.08,1.57.2.87.56-12.93,6.59-22.28,38.17-23.18,41.63-2.73,10.55-8.44,23.34-8.5,23.47-.24.53-.75.84-1.3.84h0Z"/>
          <path class="cls-53" d="M54.17,104.76c-.39-18.58-14.55-28.07-24.12-30.05-8.29-1.32-13.9,1.37-17.16,3.89-5.34,7-6.4,16.04-6.4,16.04-1.58,1.66-3.56,19.22-4.98,23.49-1.42,4.27-2.29,7.19-.47,9.25,2.21,2.53,10.75,6.88,26.65,9.89,12.27,2.27,22.55.83,27.3-.18,1.02-5-.23-17.08-.81-32.32Z"/>
          <g class="cls-2">
            <path class="cls-53" d="M43.87,106.31c-20.71,0-37.07-11.19-37.26-11.32-.08-.06-.1-.17-.04-.25.06-.08.17-.1.25-.04.22.15,22.27,15.24,47.56,10.25.1-.02.19.04.21.14.02.09-.05.19-.14.21-3.61.71-7.15,1.02-10.57,1.02h0Z"/>
            <path class="cls-53" d="M16.25,135.11s-.09-.02-.12-.05c-4.06-3.74-10.99-19.01-13.01-23.6l-.08-.17c-.04-.09,0-.2.09-.23.09-.04.19,0,.23.09l.08.17c2.02,4.58,8.92,19.8,12.93,23.49.07.07.08.18.01.25-.04.04-.09.06-.13.06h0Z"/>
            <path class="cls-53" d="M29.42,138.07s-.09-.02-.13-.05c-8.11-8.46-23.13-41.47-23.28-41.8-.04-.09,0-.19.09-.24.09-.04.19,0,.23.09.15.33,15.15,33.28,23.21,41.7.07.07.07.19,0,.25-.03.04-.08.05-.12.05h0Z"/>
            <path class="cls-53" d="M44.66,138.9s-.08,0-.11-.04c-10.82-8.11-26.34-37.78-26.5-38.07-.05-.09-.01-.2.08-.24.09-.04.19-.01.24.08.15.3,15.64,29.89,26.4,37.95.08.06.1.17.03.25-.03.05-.09.07-.14.07h0Z"/>
            <path class="cls-53" d="M55.69,135.52s-.07,0-.1-.03c-4.01-2.72-20.86-28.89-21.58-30-.05-.08-.03-.19.06-.25.08-.05.19-.03.25.05.17.27,17.52,27.22,21.48,29.9.08.05.1.17.04.25-.03.05-.09.08-.14.08h0Z"/>
            <path class="cls-53" d="M55.21,119.81c-.07,0-.14-.04-.17-.11-1.87-4.67-8.1-13.4-8.16-13.48-.06-.08-.04-.19.04-.25.08-.06.19-.04.25.04.06.09,6.32,8.85,8.2,13.56.04.09,0,.2-.1.23-.02.01-.04.01-.06.01h0Z"/>
            <path class="cls-53" d="M4.21,105.46s-.09-.02-.12-.05c-.07-.06-.08-.18-.02-.25.23-.26,5.57-6.27,7.95-7.34.09-.04.2,0,.24.09.04.09,0,.19-.09.23-2.31,1.04-7.77,7.19-7.83,7.25-.03.04-.08.06-.13.06h0Z"/>
            <path class="cls-53" d="M1.19,120.64s-.07-.01-.11-.04c-.08-.06-.1-.17-.03-.25.51-.69,12.67-16.85,18.82-19.1.09-.03.19.02.23.11.03.09-.01.2-.11.23-6.05,2.21-18.53,18.81-18.66,18.98-.03.04-.09.07-.14.07h0Z"/>
            <path class="cls-53" d="M3.74,129.65s-.08-.01-.11-.04c-.08-.06-.09-.18-.03-.25.09-.12,9.5-11.94,15.37-17.81,5.86-5.86,7.93-7.81,7.95-7.83.07-.07.18-.07.25,0,.06.07.06.18,0,.25-.02.02-2.08,1.97-7.94,7.83-5.86,5.85-15.25,17.65-15.34,17.77-.03.04-.09.07-.14.07h0Z"/>
            <path class="cls-53" d="M13.7,134.1s-.08-.01-.11-.04c-.08-.06-.09-.17-.02-.25.13-.16,12.92-15.89,16.79-19.76,3.87-3.87,7.79-8.13,7.82-8.18.07-.08.18-.08.25-.01.08.07.08.18.01.25-.04.04-3.96,4.32-7.83,8.19-3.86,3.86-16.64,19.58-16.77,19.73-.04.04-.09.07-.14.07h0Z"/>
            <path class="cls-53" d="M26.27,137.48s-.07-.01-.1-.04c-.08-.06-.1-.17-.04-.25.07-.09,6.74-9.19,10.26-13.76,3.55-4.62,12.98-16.95,13.46-17.66.06-.08.17-.1.24-.05.08.06.11.17.05.25-.48.72-9.91,13.06-13.47,17.68-3.52,4.57-10.19,13.67-10.26,13.76-.04.05-.09.07-.15.07h0Z"/>
            <path class="cls-53" d="M39.85,138.9s-.06,0-.08-.02c-.09-.05-.12-.15-.07-.24.08-.15,8.33-15.11,10.81-18.41,2.45-3.27,4.24-6.7,4.25-6.73.04-.09.15-.12.24-.08.09.05.12.15.08.24-.02.03-1.81,3.49-4.29,6.78-2.45,3.27-10.7,18.21-10.78,18.36-.03.06-.09.09-.15.09h0Z"/>
          </g>
          <path class="cls-46" d="M76.03,125.8c-1.9-2.61-1.42-7.24-1.42-7.24,0,0-.59,1.55-.2,4.16.39,2.61,1.58,3.72,1.58,3.72l.04-.63Z"/>
          <g class="cls-11">
            <path class="cls-52" d="M83.66,111.33c-3.19-.05-5.3-.45-6.69-1.06.05.58.07,1.2.05,1.85-.01.34-.06.29-.04.87.7-.52,2.06-1,4.03-.83,6.76.59,10.44,2.01,14.7-2.84,1.21-1.37,1.82-1.45,2.85-1.66-.1-1.18-.17-1.62-.27-2.87-1.52,2.64-4.72,6.7-14.64,6.55Z"/>
          </g>
          <path class="cls-27" d="M99.39,116.19c-.33-2.56-.73-6.85-1.1-11.41-1.52,2.64-4.72,6.7-14.64,6.55-3.19-.05-5.3-.45-6.69-1.06.05.58.07,1.2.05,1.85-.07,2.65.51,14.14,3.44,17.7.14.04.29.07.43.09,1.84.98,7.09,2.17,13.17.93,6.71-3.38,6.02-9.22,5.33-14.65ZM89.9,130.54c-5.81-.24-8.66-1.78-9.49-6.88,0,0,.79-10.75,6.25-9.33,5.46,1.42,4.07,1.74,7.39-1.58,3.32-3.32,5.69,6.05,5.46,8.89-.24,2.85-3.8,9.13-9.61,8.9Z"/>
          <path class="cls-45" d="M31.55,60.64s-2.06-6.32,9.65-6.32,16.61,1.58,14.39,11.39c-2.21,9.81-6.17,7.91-14.23,4.27-8.07-3.64-9.8-9.33-9.8-9.33Z"/>
          <path class="cls-45" d="M60.34,82.15s.31-18.98,6.96-22.14c3.16-1.11-1.9,23.72-1.11,37.32.79,13.6.63,24.99-.95,25.62-1.58.63.32-14.7-2.37-25.62-2.69-10.91-2.53-12.97-2.53-15.18Z"/>
          <path class="cls-46" d="M95.6,82.94s-3.64,1.74-11.23,1.42c-7.59-.31-6.48,6.8,3.01,9.33,9.49,2.53,9.49.63,9.49-3.95s-.32-7.12-1.27-6.8Z"/>
          <path class="cls-20" d="M105.21,20.83c-.24-2.73-.24-5.69-13.04-11.15-15.78-6.41-30.13-3.92-41.16-3.2-11.03.71-11.27,4.74-15.06,12.57-4.86,12.93-7.95,17.67-11.62,23.6-3.68,5.93.59,7.94,2.25,8.06,3.32,1.18,10.08.47,16.01.36,5.93-.12,11.74.59,19.45,2.13,7.71,1.54,9.01.83,12.46-.95,2.01-1.3,4.98-7.59,7-14.82,2.01-7.24,7.35-20.99,14.23-20.99,5.44,0,8.73.15,9.63,6.9-.01-1.02-.06-1.88-.14-2.51ZM44.99,37.4c-14.88,1.37,1.74-20.01,1.74-20.01,7.43-10.44,11.23-10.52,20.4-9.41,9.44,1.14,10.4,4.51,6.76,9.41,0,0-13.4,18.58-28.9,20.01ZM88.32,17.63c-3.32,4.27-8.22,13.6-10.91,21.67-2.69,8.06-9.17,12.02-6.32.47,3.16-16.45,13.28-26.1,13.28-26.1,5.77-5.3,7.27-.31,3.95,3.95Z"/>
          <path class="cls-40" d="M8.9,91.05c.86-3.49,2.35-7.13,4.67-9.91,2.47-2.97,6.73-4.67,10.49-4.81,3.71-.14,8.51.46,11.39,3.03,3.88,3.46,7.14,11.07,6.11,16.23-.78,3.9-3.56,7.1-6.8,9.24-5.38,3.55-12.06,4.87-18.26,6.17-.77.16-1.97.66-2.73.56-7.35-.95-8.66-5.1-4.86-20.52Z"/>
          <g>
            <path class="cls-32" d="M43.63,105.95c-20.72,0-37.08-11.19-37.27-11.32-.08-.05-.1-.17-.04-.25.05-.08.16-.1.25-.04.22.15,22.28,15.23,47.57,10.25.1-.02.19.04.21.14.02.1-.04.19-.14.21-3.61.71-7.15,1.01-10.57,1.01h0Z"/>
            <path class="cls-32" d="M16.01,134.75s-.09-.02-.12-.05c-4.06-3.74-10.99-19.01-13.01-23.6l-.08-.17c-.04-.09,0-.2.09-.24.09-.04.19,0,.23.09l.08.17c2.02,4.58,8.92,19.79,12.93,23.49.07.07.08.18,0,.25-.03.04-.08.06-.13.06h0Z"/>
            <path class="cls-32" d="M29.18,137.72s-.09-.02-.13-.05c-8.11-8.46-23.13-41.47-23.28-41.8-.04-.09,0-.19.09-.24.09-.04.19,0,.24.09.15.33,15.15,33.28,23.21,41.7.07.07.07.18,0,.25-.03.04-.08.05-.12.05h0Z"/>
            <path class="cls-32" d="M44.42,138.55s-.08-.01-.11-.04c-10.82-8.11-26.34-37.78-26.5-38.08-.04-.09-.01-.2.08-.24.09-.04.19-.01.24.07.16.3,15.64,29.89,26.4,37.95.08.06.1.17.03.25-.03.05-.09.07-.14.07h0Z"/>
            <path class="cls-32" d="M55.45,135.17s-.07,0-.1-.03c-4.02-2.72-20.86-28.89-21.58-30-.05-.08-.03-.19.05-.25.08-.05.19-.03.25.05.17.27,17.52,27.22,21.48,29.9.08.06.1.17.05.25-.04.05-.09.08-.15.08h0Z"/>
            <path class="cls-32" d="M54.98,119.45c-.07,0-.14-.04-.17-.11-1.87-4.67-8.1-13.4-8.16-13.48-.06-.08-.04-.19.04-.25.08-.06.19-.04.25.04.07.09,6.32,8.85,8.21,13.56.04.09,0,.2-.1.23-.02.01-.05.01-.07.01h0Z"/>
            <path class="cls-32" d="M3.97,105.1s-.08-.01-.12-.05c-.07-.06-.08-.18-.01-.25.22-.26,5.57-6.27,7.95-7.34.09-.04.2,0,.23.09.04.09,0,.2-.09.23-2.31,1.04-7.77,7.19-7.83,7.25-.04.04-.08.06-.13.06h0Z"/>
            <path class="cls-32" d="M.95,120.28s-.07-.01-.11-.04c-.08-.06-.1-.17-.04-.25.51-.69,12.68-16.85,18.82-19.1.09-.03.19.02.23.11.03.09-.01.2-.1.23-6.05,2.21-18.53,18.81-18.66,18.98-.03.05-.09.07-.14.07h0Z"/>
            <path class="cls-32" d="M3.5,129.3s-.08-.01-.11-.04c-.08-.06-.09-.17-.03-.25.09-.12,9.5-11.94,15.37-17.81,5.86-5.86,7.93-7.81,7.95-7.83.07-.07.19-.06.25,0,.06.07.06.18,0,.25-.02.02-2.08,1.96-7.94,7.82-5.86,5.86-15.25,17.66-15.35,17.77-.04.04-.09.07-.14.07h0Z"/>
            <path class="cls-32" d="M13.46,133.74s-.08-.01-.11-.04c-.07-.06-.09-.17-.03-.25.13-.16,12.92-15.89,16.8-19.76,3.87-3.87,7.79-8.14,7.82-8.18.07-.07.18-.08.25-.01.07.07.08.18.01.25-.04.04-3.96,4.32-7.83,8.19-3.86,3.86-16.64,19.57-16.77,19.73-.03.04-.09.06-.14.06h0Z"/>
            <path class="cls-32" d="M26.04,137.13s-.07-.01-.11-.04c-.08-.06-.09-.17-.04-.25.07-.09,6.74-9.19,10.26-13.76,3.55-4.62,12.98-16.95,13.45-17.66.06-.08.17-.11.25-.05.08.05.1.16.05.25-.48.72-9.92,13.06-13.47,17.68-3.52,4.57-10.19,13.67-10.26,13.76-.03.05-.09.07-.14.07h0Z"/>
            <path class="cls-32" d="M39.62,138.55s-.06,0-.09-.02c-.09-.05-.12-.15-.07-.24.08-.16,8.34-15.12,10.81-18.41,2.45-3.27,4.24-6.7,4.25-6.73.05-.09.15-.12.24-.08.09.05.12.15.08.24-.02.04-1.82,3.49-4.29,6.79-2.45,3.27-10.7,18.21-10.78,18.36-.03.06-.09.09-.15.09h0Z"/>
          </g>
          <g class="cls-18">
            <path class="cls-53" d="M54.17,104.76c-.39-18.58-14.55-28.07-24.12-30.05-4.37-.7-7.98-.27-10.91.65,1.88-.35,4.07-.57,6.6-.57,13.52,0,24.55,14.47,24.79,27.52.24,13.05,1.9,31.9-24.43,30.84-18.31-.74-23.98-8.46-25.85-11.15.11.82.22,4.74.79,5.38,2.21,2.53,10.75,6.88,26.65,9.89,12.27,2.27,22.55.83,27.3-.18,1.02-5-.23-17.08-.81-32.32Z"/>
          </g>
          <path class="cls-42" d="M59.46,104.53c-.4-11.07-1.5-20.09-10.75-27.04-9.25-6.96-20.16-9.17-28.7-4.9-2.96,1.47-5.29,3.63-7.12,6.03,3.27-2.52,8.88-5.21,17.16-3.89,9.57,1.98,23.72,11.47,24.12,30.05.58,15.25,1.83,27.32.81,32.32,1.48.09,2.64-.28,2.91-.38,1.5-3.01,2.84-22.14,1.58-32.18Z"/>
          <path class="cls-56" d="M39.73,12.17s1.66-3.8,6.52-4.27c-.71.71-9.13,10.79-6.52,4.27Z"/>
          <g class="cls-23">
            <path class="cls-58" d="M72.51,100.57c1.82.87,1.74,1.27,1.58,4.74-.13,2.84.27,5.58,2.92,7.13,0-.12,0-.23,0-.33.02-.65,0-1.27-.05-1.85-3.15-1.37-2.59-3.78-2.47-5.42.15-2.37.4-3.96-1.5-4.74-.42-.17-.79-.22-1.11-.18-.2.24-.38.5-.54.8.33-.26.72-.35,1.17-.14Z"/>
          </g>
          <g class="cls-3">
            <path class="cls-53" d="M74.88,112.28s-.87,4.19-1.1,7.83c-.15,2.35-1.73,3.41-2.82,3.87,0,.14-.01.27-.02.4-.03.77.09,1.86.76,2.97,1.04-.85,3.13-2.43,3.83-2.02.89.52,2.69,3.84,4.94,4.5-1.32-1.6-2.16-4.8-2.68-8.08-3.74,4.35-2.9-9.46-2.9-9.46Z"/>
          </g>
          <g class="cls-5">
            <path class="cls-52" d="M88.96,111.33c4.79-.87,7.95-3.58,9.4-5.83-.02-.21-.04-.45-.06-.72-1.52,2.64-4.72,6.7-14.64,6.55-3.19-.05-5.3-.45-6.69-1.06.01.13.02.28.02.41,1.46.48,5.55,1.52,11.97.65Z"/>
          </g>
          <g class="cls-34">
            <path class="cls-58" d="M97.97,100.68c-.08-.12-.16-.24-.25-.37-.05,3.73-6.21,6.97-5.92,6.1.4-1.19.09-2.82-2.19-2.08-2.73.89.14,3.05-.89,3.12-11.86-.39-13.13-5.93-10.99-8.94.24-.33.52-.62.82-.86-2.23.33-4.21.77-5.49,1.34-.46.21-.85.53-1.19.93.32-.03.69,0,1.11.18,1.9.79,1.66,2.37,1.5,4.74-.16,2.37-1.27,6.32,9.17,6.48,9.92.15,13.12-3.91,14.64-6.55.39-1.75.23-2.3-.32-4.1Z"/>
          </g>
          <path class="cls-38" d="M80.42,97.49s9.72-.87,11.78-.32c2.06.55,5.61,2.92.32,4.35-5.3,1.42-18.5-2.45-12.1-4.03Z"/>
          <g>
            <path class="cls-58" d="M91.24,106.44s.01-.01.02-.02c.05-.05.08-.11.12-.17h0c.09-.17.15-.37.15-.57,0-.68-.57-1.23-1.27-1.23-.57,0-1.05.37-1.21.88,0,.01,0,.03-.01.04-.03.1-.04.2-.04.3,0,.68.57,1.23,1.26,1.23.09,0,.17,0,.25-.03.03,0,.06-.02.09-.02.04-.01.09-.02.13-.04.05-.02.08-.04.12-.06.03-.02.06-.03.08-.04.05-.03.09-.06.13-.1.02-.01.03-.02.05-.04.05-.04.09-.09.13-.14Z"/>
            <g>
              <path class="cls-32" d="M91.64,105.52c0,.68-.57,1.23-1.27,1.23s-1.27-.55-1.27-1.23.57-1.22,1.27-1.22,1.27.55,1.27,1.22Z"/>
              <path class="cls-4" d="M90.54,106.27c-.7,0-1.26-.55-1.26-1.23,0-.05,0-.09.01-.13-.11.18-.17.39-.17.61,0,.68.57,1.23,1.27,1.23.65,0,1.18-.48,1.25-1.1-.22.37-.62.62-1.09.62Z"/>
              <path class="cls-47" d="M91.16,104.99c-.05.11-.28.11-.52,0-.24-.11-.39-.29-.34-.4.05-.11.29-.11.52,0,.24.11.39.29.34.4Z"/>
            </g>
          </g>
          <g class="cls-36">
            <path class="cls-58" d="M100.62,57.34c-.29,1.31-1.6,2.42-4.78,2.99-7.04,1.26-13.44-1.9-13.2-4.51.24-2.61-3.24-1.74-2.53-4.19.04-.13.08-.25.13-.36-1.96.5-2.94,1.57-3.39,2.32.51-.17,1.08-.28,1.61-.22,1.42.16,2.21,2.05,1.82,4.19-.39,2.14.08,3,.32,3.56.24.55,1.5,2.21,2.45,2.21s14.08-.63,15.74-.4c2.62-.45,2.65-3.09,1.86-5.6Z"/>
          </g>
          <path class="cls-38" d="M90.54,51.15s-3.72-.55-5.77.4c-2.06.95,1.19,6.33,10.04,6.17,5.93-.24,5.77-5.69-4.27-6.56Z"/>
          <g class="cls-3">
            <path class="cls-53" d="M85.04,78.35c-3.56-4.51-1.42-14.11,5.93-14.11,4.39,0,6.37-.42,7.51-.43.06-.51.16-.84.28-.87-1.66-.24-14.79.4-15.74.4-.62,0-1.37-.7-1.88-1.35,0,.03-.01.05-.01.08-.68,9.59.62,15.38,1.98,18.68,1.2.36,2.65.61,4.43.61,2.72,0,5.3-.18,7.75-.66.62-.25,1.18-.5,1.65-.76.29-.16.54-.35.77-.54-3.65.97-10.09,2.11-12.67-1.04Z"/>
          </g>
          <path class="cls-39" d="M97.5,70.29s2.84,7.51-1.19,8.7c-4.03,1.19-12.02-.47-10.36-6.48,1.66-6.01,10.12-8.93,11.55-2.21Z"/>
          <g class="cls-3">
            <path class="cls-53" d="M82.08,63.73c1.82.55,4.11-.16,8.78-.32,3.35-.11,6-.19,7.7-.07.06-.24.12-.38.2-.41-1.66-.24-14.79.4-15.74.4-.62,0-1.37-.7-1.88-1.35,0,.03-.01.05-.01.08-.04.61-.08,1.19-.11,1.77.27-.18.61-.25,1.05-.11Z"/>
          </g>
          <path class="cls-21" d="M81.13,62.07s.01-.05.01-.08c-.27-.34-.49-.67-.57-.87-.24-.55-.71-1.42-.32-3.56.4-2.13-.39-4.03-1.82-4.19-.53-.06-1.1.05-1.61.22-.01.02-.02.04-.03.05,4.99.36,2.39,6.04,3.06,7.31.71,1.35.79,6.09.79,8.54s.63,6.33-1.9,6.09c-2.13-.2-2.02-5.84-1.93-7.61-.07,1-.25,3.27-.6,5.4-.23,1.39-1.18,1.99-2.09,2.23.02.39.04.73.04,1,0,1.84.24,3.08,1.56,4.03.4-1.06,1.09-2.26,2.08-2.13,1.2.16,2.65,1.45,5.3,2.23-1.35-3.31-2.66-9.09-1.98-18.68Z"/>
          <path class="cls-32" d="M46.97,81.44s-11.78-13.84-29.97-7.12c0,0,16.09-7.47,30.03,6.82.06,0-.06.3-.06.3Z"/>
          <path class="cls-6" d="M59.46,104.53c-.4-11.07-1.5-20.09-10.75-27.04-9.25-6.96-20.16-9.17-28.7-4.9-2.96,1.47-5.29,3.63-7.12,6.03,3.27-2.52,8.88-5.21,17.16-3.89,9.57,1.98,23.72,11.47,24.12,30.05.58,15.25,1.83,27.32.81,32.32,1.52-.32,2.48-.6,2.75-.7,1.5-3,3-21.82,1.74-31.86ZM58.28,115.6c-1.11,6.25-2.77,3.24-3.94-10.87-.93-14.66-5.79-19.57-11.01-24.16-5.22-4.58-12.18-6.96-18.19-6.72-6.01.24-9.73,2.93-9.33,2.06.4-.87,2.06-1.42,2.06-1.42,10.83-3.79,18.03-.32,25.3,4.04,13.28,10.59,11.54,23.8,11.78,26.17.24,2.37,1.11,3.95,2.37,1.82,1.26-2.13-.55-10.83-3.48-17.63-2.93-6.8-11.54-14-20.16-16.21-8.62-2.21-12.73.08-12.41-.39.31-.48,6.72-2.69,13.99-.95,13.6,4.11,19.53,12.89,21.19,20.16,1.66,7.28,2.93,17.87,1.82,24.12Z"/>
          <path class="cls-32" d="M42.7,77.41s10.52,8.66,11.7,17.08c1.07,6.52,1.23,12.93,2.06,12.93s.47-11.86-2.85-18.15c-3.32-6.29-10.91-11.86-10.91-11.86Z"/>
          <path class="cls-22" d="M53.61,89.27c-3.32-6.29-10.91-11.86-10.91-11.86,0,0,1.81,1.49,4.01,3.84,2.25,2.15,4.83,5,6.43,8.02,3.02,5.72,3.59,16.04,3.04,17.87.08.18.17.28.28.28.83,0,.47-11.86-2.85-18.15Z"/>
          <g>
            <g>
              <path class="cls-57" d="M56.93,113.15c2.23-.21,1.11-3.11.69-4.36-.42-1.26-.48-2.36-.48-2.36l-1.41.04s-.05,1.82-.16,3.09c-.11,1.27-.87,3.82,1.37,3.6ZM57.77,110.79l-1.96.15c.03-.4.1-.8.13-1.1.08-.97.12-2.36.12-2.36l.98-.02s.05.85.34,1.81c.11.38.3.95.4,1.52ZM55.8,111.48l2.02-.21c.03.68-.17,1.25-.93,1.33-.85.09-1.08-.46-1.1-1.12Z"/>
              <g class="cls-14">
                <path class="cls-57" d="M55.68,111.36l2.1-.22c.15.03.01.12.01.16l-2,.18c.01.32.07.61.22.82-.24-.2-.32-.55-.34-.94Z"/>
                <path class="cls-57" d="M56.06,107.48s-.04,1.39-.12,2.36c-.02.27-.08.74-.11,1.09h-.13c.03-.39.1-.91.13-1.21.08-.97.11-2.36.11-2.36h1.1s0,.03,0,.11h-1Z"/>
                <path class="cls-57" d="M56.82,113.03c2.23-.21,1.11-3.11.69-4.37-.34-1.01-.44-1.92-.47-2.23h.11s.06,1.1.48,2.36c.42,1.25,1.54,4.15-.69,4.36-.63.06-1.02-.1-1.25-.39.24.21.6.32,1.14.27Z"/>
              </g>
            </g>
            <path class="cls-30" d="M56.47,112.76s-1.01.16-.89-1.6c-.02-.32-.51,1.81.89,1.6Z"/>
            <path class="cls-30" d="M56.08,106.6l-.24.03s.02.49.05.55c.03.06.31-.6.19-.59Z"/>
            <path class="cls-30" d="M56.98,110.91s-1.16.05-1.16.13c0,.08,1.66-.06,1.16-.13Z"/>
          </g>
          <g>
            <path class="cls-37" d="M35.27,71.32c-7.27-1.74-13.68.47-13.99.95-.32.47,3.79-1.82,12.41.39,8.62,2.21,17.24,9.41,20.16,16.21,2.93,6.8,4.74,15.5,3.48,17.63-1.26,2.14-2.14.55-2.37-1.82-.24-2.37,1.5-15.58-11.78-26.17-7.27-4.35-14.47-7.83-25.3-4.04,0,0-1.66.55-2.06,1.42-.4.87,3.32-1.82,9.33-2.06,6.01-.24,12.97,2.13,18.19,6.72,5.22,4.59,10.07,9.5,11.01,24.16,1.17,14.11,2.83,17.12,3.94,10.87,1.11-6.25-.16-16.84-1.82-24.12-1.66-7.27-7.59-16.05-21.19-20.16Z"/>
            <path class="cls-25" d="M54.68,108.6c-.13-1.6-.32-3.04-.54-4.36,0,.18.02.35.02.52.58,15.25,1.83,27.32.81,32.32,1.52-.32,2.48-.6,2.75-.7.84-1.67,1.67-8.25,2.03-15.49-1.78,9.63-4.16-1.16-5.08-12.3Z"/>
          </g>
          <g class="cls-19">
            <path class="cls-53" d="M54.17,104.76c-.1-4.94-1.19-9.23-2.89-12.91,2.58,7.5,2.54,17.08,2.69,27.89.14,10.18-4.94,15.78-8.94,18.62,4.29-.24,7.72-.8,9.95-1.28,1.02-5-.23-17.08-.81-32.32Z"/>
          </g>
          <path class="cls-29" d="M56.93,77.8s-.03,0-.05,0c-.79-.03-1.4-.69-1.37-1.47.02-.47.49-11.69,7.48-26.95,2.13-5.07,3.51-9.45,4.85-13.68,1.91-6.08,3.57-11.33,6.94-16.76,4.99-8.03,7.55-11.06,10.93-11.82.77-.17,1.4-.12,2.06.31.71.48,1.32.78.55.95-1.73.39-5.6,3.17-11.12,12.06-3.19,5.13-4.79,10.22-6.64,16.11-1.29,4.1-2.75,8.74-4.96,13.97-6.76,14.75-7.24,25.8-7.24,25.91-.03.77-.66,1.38-1.42,1.38h0Z"/>
          <path class="cls-1" d="M87.77,7.43c-.65-.43-1.29-.49-2.06-.31-3.38.76-5.94,3.79-10.93,11.82-3.38,5.43-5.03,10.68-6.94,16.76-1.33,4.24-2.71,8.62-4.85,13.68-1.26,2.74-2.3,5.35-3.17,7.79.24-.03.51,0,.79.08,1.54.47-1.66,5.93-2.25,11.51-.41,3.86-1.79,7.44-2.84,7.69.03.74.62,1.33,1.36,1.36.02,0,.03,0,.05,0,.76,0,1.39-.61,1.42-1.38,0-.11.48-11.16,7.24-25.91,2.21-5.23,3.67-9.88,4.96-13.97,1.85-5.9,3.46-10.99,6.64-16.11,5.53-8.89,9.39-11.66,11.12-12.06.77-.17.16-.47-.55-.95ZM82.2,12.41c-6.4,6.64-10.79,18.98-11.98,23.01-1.19,4.03-4.27,13.16-5.57,12.69-1.3-.48-.24-2.02-.24-2.02,0,0,2.85-5.81,3.92-10.2,1.07-4.39,4.74-14.7,9.25-20.52,4.51-5.81,9.02-7.83,4.63-2.96Z"/>
          <path class="cls-29" d="M21.11,72.19c-.2,0-.4-.04-.58-.12-.72-.32-1.04-1.17-.72-1.88.06-.12,5.68-12.71,8.34-23.02,1.51-5.85,9.02-34.38,22.76-41.39.7-.36,1.51-.14,2.29-.08,1.11.08,1.57.2.87.55-12.93,6.59-22.28,38.17-23.17,41.63-2.73,10.55-8.44,23.34-8.5,23.47-.24.53-.76.84-1.3.84h0Z"/>
          <path class="cls-1" d="M53.22,5.69c-.78-.06-1.59-.28-2.29.08-13.75,7.01-21.25,35.54-22.76,41.39-2.67,10.31-8.28,22.9-8.34,23.02-.32.71,0,1.56.72,1.88.19.08.38.12.58.12.54,0,1.06-.31,1.3-.84.06-.13,5.77-12.92,8.5-23.47.9-3.46,10.24-35.04,23.17-41.63.7-.36.24-.48-.87-.55ZM23.6,67.09c-1.07,2.85-3.44,3.08-2.61,1.54.83-1.54,6.17-16.13,6.17-16.13,3.56-3.2-2.49,11.74-3.56,14.59ZM40.32,20.83c-2.84,4.39-7.59,17.19-8.18,21.35-.59,4.15-3.56,1.3-.12-6.64,2.96-7.83,4.86-14.11,12.93-25.03,0,0,1.19-1.07,2.25-1.07s-4.03,7-6.88,11.39Z"/>
          <g class="cls-12">
            <path class="cls-51" d="M65.11,131.73c.07,1.34-1.16,2.91-2.68,4.09,1.73-.49,3.13-.99,3.87-1.24-.12-1.42-.71-5.93,1.19-12.81.27-.99.47-2.11.61-3.35-.34.99-.79,2.45-1.2,4.3-.83,3.67-1.9,6.64-1.78,9.01Z"/>
          </g>
          <path class="cls-56" d="M76.74.31s3.32.24,7,1.19c3.68.95,2.96,1.3,3.2.95.24-.36-2.61-2.14-10.2-2.14Z"/>
          <g>
            <path class="cls-58" d="M94.98,61.13s.01-.01.02-.02c.04-.06.08-.11.12-.18,0,0,0,0,0,0,.09-.17.15-.36.15-.56,0-.68-.57-1.22-1.27-1.22-.57,0-1.06.38-1.21.88,0,.01,0,.03-.01.04-.03.1-.04.2-.04.3,0,.68.57,1.23,1.26,1.23.09,0,.17,0,.25-.02.03,0,.06-.02.09-.02.05-.01.09-.02.13-.04.04-.02.08-.04.12-.06.03-.01.06-.03.08-.05.05-.03.09-.06.13-.09.02-.01.03-.02.05-.04.04-.04.09-.09.13-.14Z"/>
            <g>
              <path class="cls-32" d="M95.38,60.21c0,.68-.57,1.23-1.27,1.23s-1.27-.55-1.27-1.23.57-1.23,1.27-1.23,1.27.55,1.27,1.23Z"/>
              <path class="cls-4" d="M94.27,60.96c-.7,0-1.27-.55-1.27-1.23,0-.04.01-.09.02-.13-.11.18-.18.38-.18.61,0,.68.57,1.23,1.27,1.23.65,0,1.18-.48,1.25-1.09-.22.37-.62.62-1.09.62Z"/>
              <path class="cls-47" d="M94.9,59.68c-.05.11-.28.11-.52,0-.24-.12-.39-.29-.34-.4.05-.11.28-.1.52,0,.24.11.39.29.34.4Z"/>
            </g>
          </g>
          <g>
            <path class="cls-32" d="M29.96,51.85c-.07,0-.14,0-.21-.02l-3.2-.56c-.33-.05-.6-.24-.76-.51-.15-.25-.18-.55-.08-.82l1-2.93c.17-.51.73-.82,1.31-.72l3.2.55c.33.06.6.24.76.51.15.25.18.55.09.82l-1,2.94c-.15.45-.6.74-1.1.74h0ZM27.21,49.94l2.59.45.76-2.22-2.59-.45-.76,2.22h0Z"/>
            <g class="cls-16">
              <path class="cls-32" d="M31.97,47.35s-.06-.08-.09-.12c.03.16.02.33-.03.49l-1,2.94c-.15.45-.6.74-1.1.74-.07,0-.14,0-.21-.02l-3.2-.56c-.27-.05-.51-.19-.67-.39.02.11.06.22.11.32.16.27.44.45.76.51l3.2.56c.07.01.14.02.21.02.51,0,.95-.3,1.1-.74l1-2.94c.09-.27.06-.57-.09-.82Z"/>
              <polygon class="cls-32" points="27.97 47.72 30.58 48.17 30.71 47.78 27.76 47.28 26.88 49.89 27.22 49.95 27.97 47.72"/>
            </g>
            <path class="cls-43" d="M26.85,47.4s-.04-1.19,1.38-.95c-.57.22-1.12.3-1.38.95Z"/>
            <path class="cls-43" d="M26.88,49.89s-.12.36.43.52c.55.16,2.68.53,2.77.4.09-.13,1.01-2.58.95-2.85-.06-.26-.32-.18-.32-.18l-.87,2.71-2.96-.61Z"/>
          </g>
          <g>
            <path class="cls-32" d="M63.62,55.75c-.07,0-.14-.02-.21-.04l-3.14-.81c-.32-.08-.58-.29-.72-.57-.13-.26-.13-.56-.02-.82l1.24-2.84c.21-.49.8-.76,1.37-.62l3.14.82c.32.08.58.29.72.57.13.26.13.56.02.82l-1.23,2.84c-.19.43-.66.7-1.16.66h0ZM61.03,53.63l2.55.66.94-2.15-2.55-.66-.94,2.16h0Z"/>
            <g class="cls-16">
              <path class="cls-32" d="M66,51.43s-.06-.09-.08-.13c.02.17,0,.33-.07.49l-1.23,2.84c-.19.43-.65.69-1.16.65-.07,0-.14-.02-.21-.03l-3.14-.82c-.27-.07-.49-.23-.64-.44.01.11.04.23.09.33.14.28.4.49.72.57l3.14.81c.07.02.14.03.21.04.5.04.97-.22,1.16-.66l1.23-2.84c.11-.26.11-.56-.02-.82Z"/>
              <polygon class="cls-32" points="61.97 51.48 64.54 52.13 64.7 51.76 61.8 51.02 60.71 53.55 61.05 53.64 61.97 51.48"/>
            </g>
            <path class="cls-43" d="M60.88,51.07s.06-1.19,1.45-.83c-.59.17-1.14.2-1.45.83Z"/>
            <path class="cls-43" d="M60.71,53.55s-.15.34.38.55,2.63.75,2.73.62c.1-.13,1.21-2.49,1.17-2.76-.03-.27-.3-.2-.3-.2l-1.08,2.63-2.91-.84Z"/>
          </g>
          <path class="cls-41" d="M76.54,56.69s2.69,3.8,2.69,6.88-2.84,1.42-3.95,6.96c-1.11,5.54-.55-14.71,1.27-13.84Z"/>
          <path class="cls-41" d="M71.01,111.09s-1.5-6.48.71-7.59c1.42-.79.55,1.42,1.27,3.79.71,2.37-1.19,5.38-1.35,7.04-.16,1.66-.71-2.37-.63-3.24Z"/>
        </g>
      </g>
    </g>
  </g>
</svg>