<?xml version="1.0" encoding="UTF-8"?>
<svg xmlns="http://www.w3.org/2000/svg" width="120.35" height="110.49" xmlns:xlink="http://www.w3.org/1999/xlink" viewBox="0 0 120.35 110.49">
  <defs>
    <style>
      .cls-1 {
        fill: #3f3f3f;
      }

      .cls-2 {
        fill: url(#radial-gradient);
      }

      .cls-2, .cls-3 {
        mix-blend-mode: multiply;
      }

      .cls-4 {
        isolation: isolate;
      }

      .cls-5 {
        fill: url(#New_Gradient_Swatch_copy_19);
      }

      .cls-6 {
        fill: url(#New_Gradient_Swatch_copy_18);
      }
    </style>
    <radialGradient id="radial-gradient" cx="53.67" cy="98.73" fx="53.67" fy="98.73" r="70.22" gradientTransform="translate(14.43 87.4) scale(.85 .13)" gradientUnits="userSpaceOnUse">
      <stop offset="0" stop-color="#d4d6db"/>
      <stop offset=".19" stop-color="#d4d6db" stop-opacity=".74"/>
      <stop offset=".39" stop-color="#d4d6db" stop-opacity=".48"/>
      <stop offset=".59" stop-color="#d4d6db" stop-opacity=".27"/>
      <stop offset=".76" stop-color="#d4d6db" stop-opacity=".12"/>
      <stop offset=".9" stop-color="#d4d6db" stop-opacity=".03"/>
      <stop offset=".99" stop-color="#d4d6db" stop-opacity="0"/>
    </radialGradient>
    <radialGradient id="New_Gradient_Swatch_copy_19" data-name="New Gradient Swatch copy 19" cx="54.14" cy="37.41" fx="54.14" fy="37.41" r="59.93" gradientUnits="userSpaceOnUse">
      <stop offset="0" stop-color="#ff8d00"/>
      <stop offset=".27" stop-color="#df6a00"/>
      <stop offset=".54" stop-color="#c65000"/>
      <stop offset=".78" stop-color="#b84000"/>
      <stop offset=".96" stop-color="#b33b00"/>
    </radialGradient>
    <radialGradient id="New_Gradient_Swatch_copy_18" data-name="New Gradient Swatch copy 18" cx="55.19" cy="40.84" fx="55.19" fy="40.84" r="60.5" gradientUnits="userSpaceOnUse">
      <stop offset="0" stop-color="#fff" stop-opacity="0"/>
      <stop offset=".12" stop-color="#fdfdfd" stop-opacity=".03"/>
      <stop offset=".27" stop-color="#f8f8f8" stop-opacity=".11"/>
      <stop offset=".43" stop-color="#efefef" stop-opacity=".24"/>
      <stop offset=".6" stop-color="#e4e4e4" stop-opacity=".42"/>
      <stop offset=".78" stop-color="#d5d5d5" stop-opacity=".65"/>
      <stop offset=".96" stop-color="#c3c3c3" stop-opacity=".94"/>
      <stop offset="1" stop-color="#bfbfbf"/>
    </radialGradient>
  </defs>
  <g class="cls-4">
    <g id="Layer_2" data-name="Layer 2">
      <g id="OBJECTS">
        <g>
          <ellipse class="cls-2" cx="60.18" cy="100.69" rx="60.18" ry="9.8"/>
          <g>
            <path class="cls-5" d="M60.18,100.69c-27.76,0-50.34-22.58-50.34-50.34S32.42,0,60.18,0s50.34,22.58,50.34,50.34-22.58,50.34-50.34,50.34Z"/>
            <path class="cls-1" d="M56.97.11c-2.85.18-5.64.6-8.35,1.24,22.32,1.21,40.17,22.72,40.17,48.99s-17.84,47.78-40.17,48.99c2.71.64,5.49,1.06,8.35,1.24,19.7-5.4,34.41-25.86,34.41-50.23S76.68,5.51,56.97.11Z"/>
            <path class="cls-1" d="M50.24,31.51c-5.68-.89-11.55-1.81-17.28-3.94-4.47-1.67-7.53-4.28-9.07-7.74-.49-1.09-.8-2.21-.98-3.3-.72.79-1.41,1.62-2.07,2.45.19.63.4,1.25.68,1.88,1.84,4.14,5.38,7.21,10.54,9.14,5.97,2.23,11.98,3.17,17.78,4.08,9.78,1.53,18.23,2.85,22.65,10.04,3.74,6.09,3.96,15.1.55,22.42-3.08,6.62-8.5,10.82-15.26,11.83-10.54,1.58-19.69-3.47-27.04-7.53-4.51-2.49-8.41-4.64-11.9-4.98-2.62-.25-4.75-.11-6.48.23.27.83.57,1.65.89,2.47,1.42-.24,3.18-.33,5.34-.12,2.96.29,6.64,2.32,10.9,4.67,6.68,3.69,14.78,8.15,24.25,8.15,1.44,0,2.92-.1,4.42-.33,7.65-1.15,13.76-5.87,17.22-13.3,3.82-8.2,3.55-17.96-.69-24.87-5.04-8.21-14.47-9.69-24.45-11.25Z"/>
            <path class="cls-1" d="M100.48,80.48c.56-.75,1.09-1.51,1.61-2.29-5.13-7.71-5.09-20.05-2.36-28.32,2.08-6.31,5.3-8.35,9.37-10.93.03-.02.06-.04.09-.05-.21-.89-.44-1.76-.69-2.63-.26.17-.52.33-.78.5-4.15,2.63-8.08,5.11-10.45,12.31-2.92,8.87-3.17,22.84,3.21,31.42Z"/>
            <g class="cls-3">
              <path class="cls-6" d="M60.18,100.69c-27.76,0-50.34-22.58-50.34-50.34S32.42,0,60.18,0s50.34,22.58,50.34,50.34-22.58,50.34-50.34,50.34Z"/>
            </g>
          </g>
        </g>
      </g>
    </g>
  </g>
</svg>