<?xml version="1.0" encoding="UTF-8"?>
<svg xmlns="http://www.w3.org/2000/svg" width="296.83" height="71.61" xmlns:xlink="http://www.w3.org/1999/xlink" viewBox="0 0 296.83 71.61">
  <defs>
    <style>
      .cls-1 {
        fill: #8a3a0e;
      }

      .cls-2 {
        fill: #da8f3c;
      }

      .cls-3 {
        fill: #c87b2b;
      }

      .cls-4 {
        fill: #924212;
      }

      .cls-5 {
        fill: #8a390e;
      }

      .cls-6 {
        fill: #d0812e;
      }

      .cls-7 {
        fill: #e19947;
      }

      .cls-8 {
        fill: #e49f4d;
      }

      .cls-9 {
        fill: #fbc275;
      }

      .cls-10 {
        fill: #efaf5f;
      }

      .cls-11 {
        fill: #974714;
      }

      .cls-12 {
        fill: #8b3a0e;
      }

      .cls-13 {
        clip-path: url(#clippath-4);
      }

      .cls-14 {
        fill: #b16320;
      }

      .cls-15 {
        fill: #f4b768;
      }

      .cls-16, .cls-17, .cls-18, .cls-19, .cls-20, .cls-21, .cls-22, .cls-23, .cls-24, .cls-25, .cls-26 {
        mix-blend-mode: multiply;
      }

      .cls-16, .cls-21 {
        opacity: .45;
      }

      .cls-27 {
        fill: #eeae5e;
      }

      .cls-28 {
        fill: #e7a453;
      }

      .cls-29 {
        fill: #a8591c;
      }

      .cls-30 {
        fill: #d58632;
      }

      .cls-31 {
        fill: #d58733;
      }

      .cls-17, .cls-18, .cls-32, .cls-21, .cls-25, .cls-26 {
        fill: #e0a14b;
      }

      .cls-17, .cls-22 {
        opacity: .44;
      }

      .cls-33 {
        fill: #efb060;
      }

      .cls-34 {
        fill: #fac072;
      }

      .cls-35 {
        fill: #d58538;
      }

      .cls-35, .cls-36 {
        stroke: #bc6e20;
      }

      .cls-35, .cls-36, .cls-37 {
        stroke-linecap: round;
        stroke-linejoin: round;
        stroke-width: .09px;
      }

      .cls-38 {
        fill: #f0b162;
      }

      .cls-39 {
        fill: #e5a14f;
      }

      .cls-40 {
        fill: #d3842f;
      }

      .cls-41 {
        fill: #f9bf71;
      }

      .cls-42 {
        fill: #dd9441;
      }

      .cls-43 {
        fill: #d2832f;
      }

      .cls-44 {
        fill: #954513;
      }

      .cls-45 {
        fill: #ebaa59;
      }

      .cls-46 {
        fill: #f8bd6f;
      }

      .cls-47 {
        opacity: .73;
      }

      .cls-48 {
        fill: #a05118;
      }

      .cls-49 {
        fill: #f5b96a;
      }

      .cls-50 {
        fill: #9d4d17;
      }

      .cls-51 {
        fill: #ad5e1e;
      }

      .cls-52 {
        fill: #a4551a;
      }

      .cls-53 {
        fill: #9e4e17;
      }

      .cls-54 {
        fill: #b36521;
      }

      .cls-55 {
        fill: #ab5c1d;
      }

      .cls-56 {
        fill: #fcc376;
      }

      .cls-57 {
        fill: #914011;
      }

      .cls-58 {
        fill: #8f3e10;
      }

      .cls-59 {
        fill: #a7581b;
      }

      .cls-60 {
        fill: none;
      }

      .cls-61 {
        fill: #e29b49;
      }

      .cls-62 {
        fill: #db913d;
      }

      .cls-63 {
        fill: #c07227;
      }

      .cls-64 {
        fill: #b06120;
      }

      .cls-65 {
        fill: #8f3f10;
      }

      .cls-66 {
        fill: #b56722;
      }

      .cls-18 {
        opacity: .54;
      }

      .cls-19 {
        opacity: .27;
      }

      .cls-67 {
        fill: #edac5c;
      }

      .cls-68 {
        fill: #9f4f18;
      }

      .cls-69 {
        clip-path: url(#clippath-1);
      }

      .cls-70 {
        fill: #f6b96b;
      }

      .cls-71 {
        fill: #e9a655;
      }

      .cls-72 {
        fill: #f8be70;
      }

      .cls-73 {
        fill: #e39e4c;
      }

      .cls-74 {
        fill: #fdc477;
      }

      .cls-75 {
        fill: #df9643;
      }

      .cls-36 {
        fill: #fdc26d;
      }

      .cls-76 {
        fill: #ce802d;
      }

      .cls-77 {
        fill: #b76823;
      }

      .cls-78 {
        fill: #f6ba6c;
      }

      .cls-79 {
        fill: #89380e;
      }

      .cls-80 {
        isolation: isolate;
      }

      .cls-81 {
        fill: #8d3d10;
      }

      .cls-82 {
        clip-path: url(#clippath-5);
      }

      .cls-83 {
        opacity: .52;
      }

      .cls-84 {
        fill: #984815;
      }

      .cls-85 {
        fill: #903f11;
      }

      .cls-86 {
        fill: #ecaa5a;
      }

      .cls-87 {
        fill: #f4b869;
      }

      .cls-88 {
        fill: #e09846;
      }

      .cls-89 {
        fill: #f7bb6d;
      }

      .cls-90 {
        fill: #d48530;
      }

      .cls-91 {
        fill: #bc6e20;
      }

      .cls-92 {
        fill: #e5a04e;
      }

      .cls-93 {
        clip-path: url(#clippath-3);
      }

      .cls-94 {
        fill: #944312;
      }

      .cls-20 {
        fill: #df590d;
        opacity: .41;
      }

      .cls-95 {
        fill: #eaa857;
      }

      .cls-96 {
        fill: #a15219;
      }

      .cls-97 {
        fill: #914111;
      }

      .cls-37 {
        fill: url(#linear-gradient);
        stroke: #d3842f;
      }

      .cls-98 {
        fill: #c6792a;
      }

      .cls-99 {
        fill: #e39c4a;
      }

      .cls-100 {
        fill: #89390e;
      }

      .cls-101 {
        fill: #9a4a16;
      }

      .cls-102 {
        fill: #f1b363;
      }

      .cls-103 {
        fill: #d98d39;
      }

      .cls-104 {
        fill: #c47729;
      }

      .cls-105 {
        fill: #de9542;
      }

      .cls-106 {
        fill: #954413;
      }

      .cls-107 {
        fill: #d78b37;
      }

      .cls-108 {
        fill: #a35319;
      }

      .cls-109 {
        fill: #be7026;
      }

      .cls-110 {
        fill: #fcc477;
      }

      .cls-111 {
        fill: #8e3d10;
      }

      .cls-112 {
        fill: #ca7d2c;
      }

      .cls-113 {
        fill: #f2b464;
      }

      .cls-114 {
        fill: #88370d;
      }

      .cls-115 {
        fill: #eba958;
      }

      .cls-116 {
        fill: #df9744;
      }

      .cls-117 {
        fill: #a5561b;
      }

      .cls-118 {
        fill: #d88c38;
      }

      .cls-23 {
        opacity: .35;
      }

      .cls-119 {
        fill: #cf802d;
      }

      .cls-120 {
        fill: #d78a35;
      }

      .cls-121 {
        fill: #fac173;
      }

      .cls-122 {
        fill: #fdc578;
      }

      .cls-123 {
        fill: #fbc174;
      }

      .cls-124 {
        fill: #bc6e25;
      }

      .cls-125 {
        fill: #c27428;
      }

      .cls-126 {
        fill: #f3b667;
      }

      .cls-127 {
        fill: #f1b263;
      }

      .cls-128 {
        fill: #e9a756;
      }

      .cls-24 {
        opacity: .71;
      }

      .cls-129 {
        fill: #f7bc6e;
      }

      .cls-130 {
        fill: #ae601f;
      }

      .cls-131 {
        fill: #ba6c25;
      }

      .cls-132 {
        fill: #da8e3b;
      }

      .cls-133 {
        fill: #e7a351;
      }

      .cls-134 {
        fill: #8c3b0f;
      }

      .cls-135 {
        fill: #f3b566;
      }

      .cls-136 {
        clip-path: url(#clippath-2);
      }

      .cls-137 {
        fill: #d1822e;
      }

      .cls-138 {
        fill: #fcdea4;
      }

      .cls-139 {
        fill: #89380d;
      }

      .cls-140 {
        fill: #8c3c0f;
      }

      .cls-141 {
        fill: #e8a554;
      }

      .cls-142 {
        fill: #b86a24;
      }

      .cls-143 {
        fill: #cb7e2c;
      }

      .cls-144 {
        fill: #c97c2b;
      }

      .cls-145 {
        fill: #e19a48;
      }

      .cls-146 {
        fill: #964614;
      }

      .cls-147 {
        fill: #f9bf72;
      }

      .cls-148 {
        fill: #d68934;
      }

      .cls-149 {
        fill: #934312;
      }

      .cls-150 {
        fill: #dc923e;
      }

      .cls-151 {
        fill: #cc7f2d;
      }

      .cls-152 {
        fill: #ecab5b;
      }

      .cls-153 {
        clip-path: url(#clippath);
      }

      .cls-154 {
        fill: #eead5d;
      }

      .cls-155 {
        fill: #fbc274;
      }

      .cls-156 {
        fill: #9b4c16;
      }

      .cls-157 {
        fill: #f2b465;
      }

      .cls-158 {
        fill: #994915;
      }

      .cls-159 {
        fill: #aa5b1d;
      }

      .cls-160 {
        fill: #dd9340;
      }

      .cls-161 {
        fill: #8d3c0f;
      }

      .cls-162 {
        fill: #e6a250;
      }

      .cls-26 {
        opacity: .36;
      }
    </style>
    <linearGradient id="linear-gradient" x1="163.51" y1="-12.21" x2="167.33" y2="77.25" gradientUnits="userSpaceOnUse">
      <stop offset=".03" stop-color="#fdc578"/>
      <stop offset=".34" stop-color="#fdc578"/>
      <stop offset=".42" stop-color="#f6bb6d"/>
      <stop offset=".55" stop-color="#e6a251"/>
      <stop offset=".68" stop-color="#d3842f"/>
      <stop offset=".93" stop-color="#c87b2b"/>
    </linearGradient>
    <clipPath id="clippath">
      <path class="cls-60" d="M91.52,36.68c10.19,2.26,41.9,6.11,83.28,1.42,45.77-4.72,78.27-14.14,93.41-19.11-22.64,1.69-67.48,6.49-126.37,12.11-27.42,2.61-42.47,4.38-50.32,5.58Z"/>
    </clipPath>
    <clipPath id="clippath-1">
      <path class="cls-60" d="M276.23,8.99c-3.98-2.73-3.71-2.3-15.19-2.66-58.79-.66-182.03,13.48-182.03,13.48-3.77.45-6.42,2.42-4.89,4.6,1.53,2.18,9.24,9.59,14.68,11.54.58.21,1.5.46,2.72.73,7.85-1.2,22.9-2.97,50.32-5.58,58.88-5.62,103.73-10.42,126.37-12.11,4.57-1.5,7.56-2.59,8.85-3.03,5.56-1.87,3.16-4.25-.83-6.97Z"/>
    </clipPath>
    <clipPath id="clippath-2">
      <path class="cls-60" d="M253.31,26.08c-40.17,12.13-111.49,19.88-159.87,12.92-48.39-6.96-60.15-16.75-60.48-17.74,0,0-.1,2.91.19,5.73.29,2.82-.17,2.01.08,6.66.25,4.65-.62,13.45,16.3,19.07,16.92,5.61,56.91,14.85,96.63,12.13,41.55-2.85,99.68-12.69,120.92-30.55,18.45-15.53,29.75-27.13,29.11-30.03-.76,2.58-9.96,11.73-42.88,21.81Z"/>
    </clipPath>
    <clipPath id="clippath-3">
      <path class="cls-60" d="M276.23,8.99c-3.98-2.73-3.71-2.3-15.19-2.66-58.79-.66-182.03,13.48-182.03,13.48-3.77.45-6.42,2.42-4.89,4.6,1.53,2.18,9.24,9.59,14.68,11.54.58.21,1.5.46,2.72.73,10.19,2.26,41.9,6.11,83.28,1.42,45.77-4.72,78.27-14.14,93.41-19.11,4.57-1.5,7.56-2.59,8.85-3.03,5.56-1.87,3.16-4.25-.83-6.97Z"/>
    </clipPath>
    <clipPath id="clippath-4">
      <path class="cls-60" d="M253.31,26.08c-40.17,12.13-111.49,19.88-159.87,12.92-48.39-6.96-60.15-16.75-60.48-17.74,0,0-.1,2.91.19,5.73.29,2.82-.17,2.01.08,6.66.25,4.65-.62,13.45,16.3,19.07,16.92,5.61,56.91,14.85,96.63,12.13,41.55-2.85,99.68-12.69,120.92-30.55,18.45-15.53,29.75-27.13,29.11-30.03-.76,2.58-9.96,11.73-42.88,21.81Z"/>
    </clipPath>
    <clipPath id="clippath-5">
      <path class="cls-60" d="M252.11,23.84c-5.36,1.48-11.52,3.06-18.42,4.64l-14.19-19.04,3.63-1.48,17.34-.54,11.64,16.42Z"/>
    </clipPath>
  </defs>
  <g class="cls-80">
    <g id="Layer_2" data-name="Layer 2">
      <g id="Layer_1-2" data-name="Layer 1">
        <g>
          <g>
            <path class="cls-37" d="M283,3.34c-7.46.53-41.11.73-71.93,2.29-30.83,1.55-76.35,6.44-100.38,8.78-24.03,2.34-72.93,7.57-77.73,6.86.33.99,12.1,10.78,60.48,17.74,48.39,6.95,119.71-.79,159.87-12.92,32.92-10.09,42.12-19.23,42.88-21.81-.64-2.9-5.73-1.47-13.2-.93Z"/>
            <path class="cls-20" d="M77.67,19.19s-5.52.69-4.92,4.13c.61,3.44,10.56,11.31,15.36,13.21,4.81,1.9,33.37,5.94,58.66,4.3,20.93-1.25,44.16-2.25,82.22-10.54,34.57-8.66,52.77-13.68,52.37-16.8-.39-2.57-6-6.44-8.83-7.34-2.83-.91-26.53-.84-50.73.23-24.2,1.07-65.51,4.78-78.91,6.19-12.98,1.37-65.24,6.63-65.24,6.63Z"/>
            <g>
              <g class="cls-153">
                <rect class="cls-114" x="91.52" y="18.99" width="176.69" height="23.79"/>
                <path class="cls-114" d="M251.46,15.8c1.07,13.13-30.81,26.45-71.22,29.76v-2.25h-28.63v2.71c-8.85-.48-16.88-1.58-23.67-3.19-13.59-3.21-22.27-8.48-22.81-15.05-.27-3.28,1.52-6.58,4.99-9.72v.38h141.35v-2.65Z"/>
                <path class="cls-114" d="M250.64,15.71c1.06,12.98-30.48,26.17-70.46,29.44-19.99,1.64-38.31.49-51.75-2.69-13.45-3.18-22.03-8.39-22.57-14.88-.27-3.25,1.51-6.51,4.94-9.62v.5h139.83v-2.74Z"/>
                <path class="cls-114" d="M249.83,15.62c1.05,12.84-30.15,25.88-69.7,29.12-19.77,1.62-37.89.49-51.19-2.66-13.3-3.14-21.79-8.3-22.32-14.72-.26-3.21,1.49-6.44,4.89-9.52v.61h138.33v-2.83Z"/>
                <path class="cls-114" d="M249.02,15.53c1.03,12.7-29.83,25.6-68.94,28.8-19.56,1.6-37.47.48-50.63-2.63-13.16-3.11-21.56-8.21-22.08-14.56-.26-3.17,1.47-6.36,4.83-9.41v.73h136.82v-2.92Z"/>
                <path class="cls-114" d="M248.21,15.44c1.03,12.57-29.5,25.31-68.18,28.48-19.34,1.59-37.06.47-50.07-2.6-13.01-3.08-21.32-8.12-21.83-14.41-.25-3.14,1.46-6.29,4.78-9.3v.84h135.31v-3.02Z"/>
                <path class="cls-114" d="M247.39,15.34c1.02,12.42-29.17,25.04-67.42,28.17-38.25,3.13-70.08-4.4-71.1-16.82-.26-3.1,1.44-6.22,4.73-9.2v.96h133.8v-3.11Z"/>
                <path class="cls-114" d="M246.58,15.25c1,12.28-28.84,24.75-66.66,27.85-37.82,3.09-69.3-4.35-70.3-16.63-.25-3.07,1.42-6.15,4.67-9.1v1.08h132.29v-3.2Z"/>
                <path class="cls-114" d="M245.76,15.16c1,12.14-28.51,24.47-65.89,27.53-37.39,3.07-68.51-4.29-69.5-16.44-.25-3.03,1.41-6.08,4.62-8.99v1.19h130.77v-3.29Z"/>
                <path class="cls-139" d="M244.95,15.07c.99,12-28.18,24.19-65.13,27.22-36.96,3.03-67.71-4.24-68.69-16.24-.25-3,1.39-6.01,4.57-8.89v1.3h129.26v-3.39Z"/>
                <path class="cls-139" d="M244.14,14.98c.97,11.86-27.84,23.9-64.37,26.9-36.53,2.99-66.92-4.2-67.89-16.06-.24-2.96,1.37-5.94,4.51-8.79v1.42h127.75v-3.47Z"/>
                <path class="cls-139" d="M243.33,14.88c.96,11.72-27.52,23.63-63.61,26.58-36.09,2.96-66.13-4.14-67.09-15.87-.24-2.93,1.36-5.87,4.46-8.68v1.54h126.25v-3.57Z"/>
                <path class="cls-79" d="M242.51,14.8c.95,11.58-27.19,23.34-62.85,26.26-35.66,2.92-65.34-4.1-66.29-15.68-.24-2.89,1.34-5.8,4.41-8.58v1.65h124.73v-3.66Z"/>
                <path class="cls-100" d="M241.7,14.7c.94,11.44-26.86,23.06-62.09,25.95s-64.55-4.05-65.49-15.49c-.24-2.86,1.33-5.73,4.35-8.47v1.77h123.23v-3.75Z"/>
                <path class="cls-5" d="M240.89,18.45h-.16v-1.72c-.16.71-.42,1.41-.79,2.11-.73,1.4-1.86,2.78-3.36,4.14-2.99,2.71-7.42,5.29-12.97,7.61-11.1,4.64-26.66,8.22-44.06,9.64-34.8,2.86-63.76-3.99-64.68-15.3-.23-2.83,1.31-5.66,4.3-8.37v1.89h121.72Z"/>
                <path class="cls-5" d="M240.08,18.45h-.16v-1.84c-.15.7-.41,1.39-.77,2.08-.72,1.38-1.84,2.75-3.32,4.09-2.95,2.67-7.33,5.23-12.81,7.51-10.96,4.58-26.33,8.12-43.52,9.53-34.37,2.81-62.97-3.95-63.88-15.11-.23-2.79,1.3-5.59,4.25-8.27v2h120.21Z"/>
                <path class="cls-1" d="M239.26,18.45h-.15v-1.96c-.16.69-.41,1.38-.77,2.06-.71,1.36-1.82,2.72-3.28,4.04-2.91,2.64-7.23,5.16-12.65,7.42-10.82,4.52-26,8.02-42.97,9.41-33.93,2.78-62.17-3.9-63.08-14.92-.23-2.75,1.28-5.52,4.19-8.16v2.11h118.7Z"/>
                <path class="cls-12" d="M238.45,18.45h-.91v-.04c-.7,1.34-1.79,2.68-3.23,3.99-2.88,2.61-7.15,5.09-12.49,7.33-10.69,4.47-25.67,7.91-42.42,9.29-33.51,2.75-61.39-3.85-62.28-14.73-.22-2.72,1.26-5.45,4.14-8.06v2.23h117.18Z"/>
                <path class="cls-12" d="M237.64,18.45h-.9v-.19c-.69,1.33-1.77,2.65-3.19,3.93-2.84,2.58-7.06,5.03-12.33,7.23-10.55,4.41-25.34,7.81-41.88,9.16-33.07,2.71-60.6-3.8-61.47-14.54-.22-2.68,1.24-5.38,4.08-7.96v2.35h115.68Z"/>
                <path class="cls-134" d="M236.82,18.45h-.88v-.33c-.69,1.32-1.75,2.62-3.15,3.88-2.8,2.54-6.96,4.96-12.17,7.14-10.41,4.35-25.01,7.71-41.33,9.05-32.64,2.67-59.8-3.75-60.67-14.35-.21-2.65,1.23-5.31,4.03-7.85v2.46h114.17Z"/>
                <path class="cls-134" d="M236.01,18.45h-.87v-.48c-.68,1.3-1.73,2.58-3.11,3.83-2.77,2.51-6.87,4.9-12,7.05-10.27,4.29-24.68,7.6-40.78,8.93-32.21,2.64-59.01-3.7-59.87-14.16-.22-2.62,1.21-5.24,3.98-7.75v2.58h112.66Z"/>
                <path class="cls-140" d="M235.2,18.45h-.86v-.62c-.67,1.28-1.7,2.54-3.06,3.78-2.73,2.47-6.78,4.83-11.85,6.95-10.13,4.23-24.35,7.5-40.24,8.8-31.78,2.61-58.22-3.65-59.07-13.97-.21-2.58,1.2-5.17,3.93-7.64v2.7h111.15Z"/>
                <path class="cls-161" d="M234.39,18.45h-.85v-.77c-.65,1.27-1.68,2.51-3.02,3.73-2.69,2.44-6.68,4.77-11.68,6.86-10,4.18-24.02,7.41-39.69,8.69-31.35,2.57-57.43-3.6-58.27-13.78-.21-2.55,1.18-5.1,3.87-7.54v2.81h109.64Z"/>
                <path class="cls-81" d="M233.57,18.45h-.84v-.91c-.65,1.24-1.65,2.48-2.98,3.67-2.66,2.41-6.6,4.71-11.52,6.77-9.86,4.12-23.69,7.3-39.15,8.57-30.91,2.53-56.64-3.55-57.46-13.59-.2-2.5,1.16-5.03,3.82-7.43v2.93h108.13Z"/>
                <path class="cls-111" d="M232.76,18.45h-.82v-1.06c-.64,1.23-1.63,2.44-2.94,3.63-2.62,2.37-6.5,4.63-11.36,6.66-9.72,4.06-23.36,7.2-38.6,8.45-30.48,2.5-55.85-3.5-56.66-13.4-.2-2.48,1.15-4.96,3.77-7.33v3.04h106.61Z"/>
                <path class="cls-58" d="M231.95,18.45h-.82v-1.2c-.63,1.21-1.61,2.4-2.9,3.58-2.58,2.34-6.41,4.57-11.2,6.58-9.59,4-23.02,7.1-38.05,8.33-30.05,2.46-55.06-3.45-55.86-13.21-.2-2.44,1.13-4.89,3.71-7.23v3.16h105.11Z"/>
                <path class="cls-65" d="M231.13,18.45h-.8v-1.34c-.62,1.19-1.59,2.37-2.86,3.52-2.55,2.31-6.32,4.51-11.04,6.48-9.44,3.95-22.69,7-37.5,8.21-29.62,2.43-54.27-3.4-55.06-13.02-.2-2.4,1.12-4.82,3.66-7.13v3.28h103.6Z"/>
                <path class="cls-85" d="M230.32,18.45h-.79v-1.49c-.61,1.18-1.56,2.34-2.81,3.47-2.5,2.27-6.22,4.44-10.88,6.38-9.31,3.89-22.36,6.89-36.96,8.09-29.19,2.39-53.48-3.35-54.25-12.83-.19-2.37,1.1-4.75,3.61-7.02v3.39h102.09Z"/>
                <path class="cls-57" d="M229.51,18.45h-.78v-1.63c-.6,1.16-1.54,2.31-2.77,3.42-2.47,2.24-6.14,4.37-10.72,6.29-9.17,3.84-22.03,6.79-36.41,7.97-28.75,2.36-52.68-3.3-53.45-12.64-.19-2.33,1.08-4.67,3.55-6.91v3.5h100.58Z"/>
                <path class="cls-97" d="M228.7,18.45h-.77v-1.78c-.6,1.14-1.52,2.27-2.74,3.37-2.43,2.2-6.04,4.3-10.55,6.19-9.03,3.77-21.7,6.69-35.87,7.85-28.32,2.33-51.89-3.25-52.65-12.45-.19-2.3,1.06-4.61,3.5-6.81v3.62h99.07Z"/>
                <path class="cls-4" d="M227.88,18.45h-.76v-1.92c-.58,1.12-1.49,2.23-2.69,3.32-2.4,2.17-5.95,4.24-10.4,6.1-8.89,3.72-21.37,6.59-35.32,7.73-27.89,2.29-51.1-3.2-51.85-12.26-.18-2.26,1.05-4.54,3.45-6.71v3.74h97.56Z"/>
                <path class="cls-149" d="M227.07,18.45h-.74v-2.06c-.58,1.11-1.47,2.2-2.65,3.27-2.36,2.13-5.85,4.18-10.23,6.01-8.76,3.66-21.04,6.48-34.77,7.61-27.46,2.25-50.32-3.15-51.05-12.07-.09-1.12.17-2.23.74-3.34v.59h98.7Z"/>
                <path class="cls-94" d="M226.26,18.45h-.73v-2.21c-.57,1.09-1.45,2.17-2.61,3.22-2.32,2.1-5.76,4.11-10.07,5.91-8.62,3.6-20.71,6.39-34.23,7.49-27.03,2.22-49.52-3.1-50.24-11.88-.09-1.1.16-2.2.73-3.29v.75h97.14Z"/>
                <path class="cls-106" d="M225.45,18.45h-.72v-2.35c-.56,1.07-1.42,2.13-2.56,3.17-2.29,2.07-5.68,4.04-9.91,5.81-8.48,3.55-20.38,6.28-33.68,7.37-26.6,2.18-48.73-3.05-49.44-11.69-.09-1.08.16-2.16.72-3.23v.92h95.6Z"/>
                <path class="cls-44" d="M224.63,18.45h-.71v-2.5c-.55,1.05-1.4,2.1-2.53,3.12-2.24,2.04-5.58,3.98-9.75,5.72-8.34,3.49-20.05,6.18-33.13,7.25-26.17,2.14-47.94-3.01-48.63-11.5-.09-1.06.16-2.12.71-3.18v1.09h94.04Z"/>
                <path class="cls-146" d="M223.82,18.45h-.7v-2.64c-.54,1.04-1.38,2.06-2.48,3.06-2.21,2.01-5.48,3.92-9.59,5.63-8.21,3.43-19.72,6.08-32.58,7.13-25.73,2.11-47.15-2.96-47.83-11.31-.09-1.05.16-2.09.7-3.13v1.25h92.49Z"/>
                <path class="cls-11" d="M223.01,18.45h-.69v-2.78c-.53,1.02-1.35,2.02-2.44,3.01-2.18,1.97-5.4,3.85-9.43,5.54-8.07,3.37-19.39,5.97-32.04,7.01-25.3,2.08-46.35-2.9-47.03-11.12-.09-1.03.15-2.06.69-3.08v1.42h90.94Z"/>
                <path class="cls-84" d="M222.19,18.45h-.67v-2.92c-.52,1-1.33,1.99-2.4,2.96-2.14,1.94-5.3,3.78-9.27,5.44-7.93,3.31-19.06,5.88-31.49,6.89-24.87,2.04-45.57-2.85-46.23-10.93-.09-1.01.15-2.02.67-3.02v1.59h89.38Z"/>
                <path class="cls-158" d="M221.38,18.45h-3.01v-.16c-2.1,1.9-5.22,3.72-9.11,5.35-7.8,3.25-18.73,5.77-30.94,6.77-24.44,2-44.77-2.81-45.43-10.74-.08-1,.15-1.99.66-2.97v1.75h87.84Z"/>
                <path class="cls-101" d="M220.57,18.45h-2.96v-.36c-2.06,1.87-5.12,3.65-8.95,5.25-7.66,3.2-18.39,5.67-30.4,6.65-24.01,1.97-43.98-2.76-44.62-10.56-.08-.97.14-1.95.65-2.91v1.92h86.28Z"/>
                <path class="cls-156" d="M219.76,18.45h-2.92v-.55c-2.02,1.83-5.03,3.59-8.78,5.15-7.52,3.14-18.06,5.57-29.85,6.53-23.57,1.93-43.19-2.71-43.82-10.36-.08-.96.14-1.92.64-2.87v2.09h84.73Z"/>
                <path class="cls-50" d="M218.94,18.45h-2.86v-.75c-1.98,1.8-4.94,3.52-8.63,5.06-7.38,3.08-17.73,5.46-29.3,6.41-23.14,1.9-42.4-2.66-43.02-10.18-.08-.94.14-1.88.62-2.81v2.26h83.18Z"/>
                <path class="cls-53" d="M218.13,18.45h-2.81v-.95c-1.95,1.77-4.84,3.46-8.46,4.97-7.24,3.03-17.4,5.36-28.76,6.29-22.71,1.86-41.61-2.61-42.21-9.99-.08-.92.14-1.84.61-2.76v2.43h81.63Z"/>
                <path class="cls-68" d="M217.32,18.45h-2.75v-1.14c-1.92,1.74-4.75,3.39-8.3,4.87-7.11,2.97-17.08,5.26-28.21,6.18-22.28,1.82-40.83-2.56-41.42-9.79-.07-.91.14-1.81.6-2.71v2.59h80.08Z"/>
                <path class="cls-48" d="M216.5,18.45h-2.7v-1.33c-1.87,1.7-4.66,3.32-8.14,4.78-6.97,2.91-16.74,5.16-27.67,6.05-21.84,1.79-40.03-2.51-40.61-9.6v.1h79.12Z"/>
                <path class="cls-96" d="M215.69,18.45h-2.65v-1.53c-1.84,1.67-4.56,3.26-7.98,4.68-6.83,2.85-16.41,5.06-27.11,5.93-21.42,1.76-39.24-2.46-39.81-9.41v.32h77.55Z"/>
                <path class="cls-108" d="M214.88,18.45h-2.59v-1.72c-1.8,1.63-4.47,3.19-7.82,4.59-6.69,2.8-16.07,4.96-26.57,5.82-20.99,1.72-38.45-2.41-39-9.22v.54h75.99Z"/>
                <path class="cls-52" d="M214.06,18.45h-2.54v-1.92c-1.76,1.6-4.38,3.13-7.66,4.5-6.55,2.74-15.75,4.85-26.03,5.7-20.55,1.69-37.66-2.36-38.2-9.03v.76h74.43Z"/>
                <path class="cls-117" d="M213.25,18.45h-2.48v-2.11c-1.73,1.57-4.29,3.06-7.5,4.4-6.42,2.68-15.42,4.75-25.48,5.57-20.12,1.65-36.87-2.31-37.4-8.84v.98h72.86Z"/>
                <path class="cls-59" d="M212.44,18.45h-2.44v-2.31c-1.69,1.53-4.2,3-7.34,4.31-6.28,2.62-15.09,4.65-24.93,5.46-19.69,1.62-36.07-2.26-36.6-8.66v1.2h71.3Z"/>
                <path class="cls-29" d="M211.63,18.45h-2.38v-2.51c-1.65,1.5-4.11,2.93-7.18,4.21-6.14,2.57-14.75,4.55-24.38,5.34-19.26,1.58-35.28-2.21-35.8-8.47v1.42h69.74Z"/>
                <path class="cls-159" d="M210.81,18.45h-2.32v-2.7c-1.62,1.46-4.02,2.86-7.02,4.11-6.01,2.51-14.43,4.45-23.84,5.22-18.82,1.54-34.49-2.16-34.99-8.28v1.65h68.18Z"/>
                <path class="cls-55" d="M210,18.45h-2.27v-2.9c-1.58,1.43-3.92,2.8-6.86,4.02-5.87,2.45-14.1,4.35-23.29,5.1-18.4,1.51-33.7-2.12-34.19-8.09v1.86h66.61Z"/>
                <path class="cls-51" d="M209.19,18.45h-2.22v-3.09c-1.54,1.4-3.83,2.73-6.7,3.93-5.73,2.39-13.76,4.24-22.74,4.98-17.97,1.47-32.92-2.06-33.39-7.9v2.08h65.05Z"/>
                <path class="cls-130" d="M208.37,18.45h-2.16v-3.29c-1.51,1.37-3.74,2.67-6.54,3.83-5.59,2.34-13.43,4.14-22.19,4.86-17.53,1.44-32.12-2.01-32.59-7.7v2.3h63.49Z"/>
                <path class="cls-64" d="M207.56,18.45h-2.11v-3.49c-1.47,1.33-3.64,2.6-6.37,3.74-5.45,2.28-13.1,4.04-21.65,4.74-17.1,1.4-31.33-1.96-31.79-7.52v2.52h61.92Z"/>
                <path class="cls-14" d="M206.75,18.45h-8.27v-.03c-5.32,2.22-12.77,3.93-21.1,4.62-16.67,1.37-30.54-1.92-30.98-7.33v2.74h60.36Z"/>
                <path class="cls-54" d="M205.94,18.45h-8.06v-.32c-5.18,2.17-12.44,3.83-20.56,4.5-16.23,1.33-29.75-1.87-30.18-7.14v2.96h58.8Z"/>
                <path class="cls-66" d="M205.13,18.45h-7.85v-.61c-5.04,2.1-12.11,3.73-20.01,4.38-15.8,1.3-28.96-1.81-29.38-6.95v3.18h57.24Z"/>
                <path class="cls-77" d="M204.31,18.45h-7.63v-.91c-4.91,2.05-11.78,3.63-19.47,4.26-15.37,1.26-28.17-1.77-28.58-6.76v3.4h55.67Z"/>
                <path class="cls-142" d="M203.5,18.45h-7.42v-1.19c-4.76,1.99-11.45,3.53-18.92,4.14-14.94,1.22-27.38-1.72-27.77-6.57v3.62h54.11Z"/>
                <path class="cls-131" d="M202.68,18.45h-7.2v-1.48c-4.63,1.93-11.12,3.42-18.37,4.02-7.25.6-13.9.18-18.78-.97-2.44-.58-4.44-1.34-5.85-2.25v.69h50.21Z"/>
                <path class="cls-124" d="M201.87,18.45h-6.98v-1.77c-4.49,1.88-10.79,3.32-17.82,3.9-7.04.57-13.49.17-18.22-.95-2.37-.56-4.31-1.3-5.68-2.19v1h48.71Z"/>
                <path class="cls-109" d="M201.06,18.45h-6.77v-2.06c-4.35,1.82-10.45,3.22-17.28,3.79-6.82.56-13.07.16-17.66-.92-2.3-.54-4.17-1.26-5.5-2.11v1.31h47.22Z"/>
                <path class="cls-63" d="M200.25,18.45h-6.55v-2.35c-4.22,1.76-10.13,3.12-16.74,3.67-6.6.54-12.66.16-17.1-.89-2.22-.53-4.04-1.22-5.33-2.05v1.63h45.73Z"/>
                <path class="cls-125" d="M199.43,18.45h-6.34v-2.64c-4.08,1.71-9.79,3.02-16.19,3.55-6.39.52-12.24.16-16.54-.86-2.16-.51-3.91-1.18-5.16-1.98v1.94h44.23Z"/>
                <path class="cls-104" d="M198.62,18.45h-6.13v-2.93c-3.94,1.65-9.46,2.92-15.64,3.42-6.18.51-11.83.15-15.99-.83v.34h37.75Z"/>
                <path class="cls-98" d="M197.81,18.45h-5.92v-3.22c-3.8,1.59-9.13,2.82-15.09,3.3-5.96.49-11.42.15-15.43-.8v.72h36.43Z"/>
                <path class="cls-3" d="M196.99,18.45h-20.25v-.33c-5.74.47-11,.14-14.87-.78v1.1h35.12Z"/>
              </g>
              <g>
                <g class="cls-69">
                  <rect class="cls-3" x="72.58" y="5.67" width="210.03" height="31.01"/>
                  <path class="cls-3" d="M262.1,5.13h-1.3v-1.3c-.97,1.39-2.48,2.78-4.45,4.16-3.95,2.77-9.79,5.47-17.09,7.98-14.6,5.01-35.03,9.22-57.83,11.42-45.6,4.42-83.42-.83-84.48-11.72-.26-2.72,1.8-5.53,5.75-8.3,1.97-1.38,4.42-2.75,7.29-4.08v1.83h152.11Z"/>
                  <path class="cls-144" d="M260.22,5.13h-1.27v-1.64c-.95,1.36-2.43,2.73-4.36,4.08-3.87,2.71-9.58,5.36-16.73,7.82-14.29,4.91-34.29,9.02-56.61,11.18-44.64,4.32-81.67-.82-82.7-11.47-.26-2.66,1.76-5.42,5.62-8.13,1.93-1.35,4.33-2.69,7.14-4v2.16h148.91Z"/>
                  <path class="cls-112" d="M258.34,5.13h-1.24v-1.98c-.93,1.34-2.37,2.67-4.27,3.99-3.78,2.64-9.38,5.24-16.37,7.64-13.98,4.8-33.55,8.83-55.4,10.95-43.68,4.23-79.92-.8-80.93-11.22-.25-2.61,1.72-5.31,5.5-7.95,1.89-1.33,4.24-2.64,6.98-3.92v2.49h145.71Z"/>
                  <path class="cls-143" d="M256.47,5.13h-1.21v-2.31c-.91,1.3-2.32,2.61-4.17,3.91-3.7,2.59-9.18,5.12-16.02,7.47-13.67,4.7-32.81,8.63-54.18,10.7-42.73,4.14-78.16-.78-79.15-10.98-.25-2.55,1.69-5.19,5.38-7.78,1.85-1.29,4.15-2.58,6.83-3.83v2.81h142.52Z"/>
                  <path class="cls-151" d="M254.59,5.13h-1.18v-2.65c-.9,1.27-2.27,2.55-4.08,3.81-3.62,2.53-8.97,5.01-15.65,7.31-13.37,4.59-32.08,8.45-52.97,10.46-41.77,4.05-76.41-.76-77.37-10.73-.24-2.49,1.65-5.07,5.26-7.6,1.81-1.27,4.05-2.52,6.67-3.75v3.14h139.32Z"/>
                  <path class="cls-76" d="M252.71,5.13h-1.16v-2.99c-.87,1.24-2.22,2.49-3.98,3.72-3.54,2.48-8.76,4.9-15.3,7.14-13.06,4.49-31.34,8.25-51.75,10.23-40.81,3.95-74.66-.75-75.6-10.49-.23-2.44,1.61-4.95,5.14-7.42,1.77-1.24,3.96-2.46,6.53-3.66v3.46h136.11Z"/>
                  <path class="cls-119" d="M250.83,5.13h-1.12V1.8c-.85,1.22-2.17,2.44-3.9,3.65-3.45,2.41-8.55,4.77-14.93,6.97-12.75,4.38-30.61,8.05-50.53,9.98-39.85,3.86-72.9-.73-73.83-10.24-.23-2.37,1.57-4.84,5.02-7.25v.22h139.29Z"/>
                  <path class="cls-6" d="M248.95,5.13h-4.9v-.11c-3.37,2.36-8.35,4.67-14.57,6.81-12.45,4.27-29.87,7.86-49.32,9.74-38.89,3.76-71.15-.71-72.05-9.99-.23-2.32,1.53-4.72,4.9-7.08v.64h135.94Z"/>
                  <path class="cls-137" d="M247.07,5.13h-4.78v-.54c-3.28,2.3-8.14,4.55-14.21,6.63-12.14,4.17-29.14,7.67-48.11,9.5-37.93,3.67-69.39-.69-70.27-9.75-.22-2.26,1.49-4.6,4.78-6.9v1.05h132.59Z"/>
                  <path class="cls-43" d="M245.2,5.13h-4.66v-.96c-3.2,2.24-7.94,4.44-13.86,6.46-11.84,4.06-28.4,7.47-46.89,9.26-36.98,3.58-67.64-.67-68.5-9.5-.21-2.2,1.46-4.49,4.66-6.73v1.46h129.24Z"/>
                  <path class="cls-40" d="M243.31,5.13h-4.54v-1.39c-3.12,2.18-7.73,4.32-13.5,6.3-11.53,3.96-27.66,7.28-45.67,9.02-36.02,3.49-65.89-.66-66.72-9.25-.21-2.15,1.42-4.37,4.54-6.55v1.87h125.89Z"/>
                  <path class="cls-40" d="M241.58,5.13h-4.42v-1.39c-3.03,2.12-7.53,4.21-13.14,6.13-11.22,3.85-26.93,7.08-44.45,8.78-35.06,3.4-64.13-.64-64.94-9-.2-2.09,1.38-4.26,4.42-6.38v1.87h122.53Z"/>
                  <path class="cls-90" d="M241.01,5.13h-4.38v-1.52c-3.01,2.11-7.47,4.17-13.03,6.08-11.12,3.82-26.7,7.03-44.08,8.71-34.77,3.36-63.6-.63-64.41-8.94-.2-2.07,1.37-4.22,4.38-6.33v1.98h121.52Z"/>
                  <path class="cls-30" d="M240.45,5.13h-4.34v-1.63c-2.99,2.09-7.41,4.13-12.92,6.03-11.04,3.79-26.48,6.97-43.72,8.63-34.48,3.34-63.07-.63-63.87-8.86-.2-2.06,1.36-4.19,4.35-6.27v2.1h120.51Z"/>
                  <path class="cls-31" d="M239.89,5.13h-4.31v-1.75c-2.97,2.07-7.34,4.1-12.81,5.98-10.94,3.76-26.26,6.91-43.35,8.56-34.18,3.31-62.54-.62-63.33-8.78-.2-2.04,1.35-4.15,4.31-6.22v2.21h119.5Z"/>
                  <path class="cls-148" d="M239.32,5.13h-4.27v-1.87c-2.94,2.05-7.27,4.07-12.7,5.93-10.85,3.72-26.03,6.85-42.98,8.49-33.89,3.28-62.01-.62-62.79-8.71-.2-2.02,1.34-4.11,4.27-6.17v2.33h118.48Z"/>
                  <path class="cls-120" d="M238.75,5.13h-4.23v-1.98c-2.91,2.03-7.21,4.03-12.59,5.87-10.75,3.69-25.81,6.79-42.61,8.42-33.61,3.26-61.48-.61-62.26-8.64-.19-2,1.32-4.08,4.24-6.11v2.44h117.46Z"/>
                  <path class="cls-107" d="M238.19,5.13h-4.2v-2.11c-2.89,2.02-7.15,4-12.49,5.82-10.66,3.66-25.59,6.74-42.25,8.35-33.32,3.23-60.95-.61-61.72-8.56-.19-1.99,1.32-4.05,4.2-6.06v2.55h116.45Z"/>
                  <path class="cls-118" d="M237.62,5.13h-4.16v-2.23c-2.86,2-7.09,3.96-12.37,5.78-10.57,3.63-25.36,6.67-41.88,8.27-33.02,3.2-60.42-.6-61.18-8.49-.19-1.96,1.3-4,4.16-6.01v2.67h115.43Z"/>
                  <path class="cls-103" d="M237.05,5.13h-4.12v-2.34c-2.83,1.98-7.02,3.93-12.26,5.72-10.48,3.6-25.14,6.62-41.51,8.2-32.74,3.17-59.89-.6-60.64-8.41-.19-1.96,1.29-3.97,4.13-5.96v2.79h114.42Z"/>
                  <path class="cls-132" d="M236.49,5.13h-4.09v-2.46c-2.81,1.97-6.97,3.89-12.16,5.67-10.38,3.57-24.92,6.56-41.14,8.13-32.44,3.14-59.36-.59-60.1-8.34-.19-1.94,1.28-3.94,4.09-5.9v2.9h113.4Z"/>
                  <path class="cls-2" d="M235.93,5.13h-4.06v-2.58c-2.78,1.94-6.9,3.85-12.05,5.63-10.29,3.53-24.7,6.49-40.77,8.05-32.15,3.11-58.82-.59-59.57-8.26-.19-1.92,1.27-3.91,4.05-5.85v3.01h112.39Z"/>
                  <path class="cls-62" d="M235.36,5.13h-4.01v-2.7c-2.76,1.93-6.84,3.82-11.94,5.57-10.2,3.51-24.47,6.44-40.41,7.99-31.86,3.08-58.29-.59-59.03-8.19-.18-1.9,1.26-3.87,4.02-5.8v3.13h111.38Z"/>
                  <path class="cls-150" d="M234.79,5.13h-3.98v-2.82c-2.73,1.91-6.77,3.79-11.83,5.52-10.11,3.47-24.25,6.38-40.04,7.91-31.57,3.05-57.76-.58-58.49-8.11-.18-1.88,1.24-3.84,3.98-5.75v3.25h110.36Z"/>
                  <path class="cls-160" d="M234.23,5.13h-3.94v-2.94c-2.71,1.89-6.72,3.75-11.72,5.47-10.02,3.44-24.03,6.32-39.67,7.84-31.28,3.03-57.23-.57-57.96-8.04-.18-1.87,1.23-3.8,3.94-5.69v3.36h109.35Z"/>
                  <path class="cls-42" d="M233.66,5.13h-3.9v-3.06c-2.69,1.88-6.66,3.72-11.61,5.42-9.92,3.41-23.81,6.27-39.3,7.76-30.99,3-56.7-.56-57.42-7.96-.18-1.85,1.22-3.76,3.91-5.64v3.48h108.33Z"/>
                  <path class="cls-105" d="M233.1,5.13h-3.87V1.96c-2.66,1.86-6.59,3.69-11.51,5.37-9.83,3.37-23.58,6.2-38.93,7.69-30.7,2.97-56.17-.56-56.87-7.89-.18-1.83,1.21-3.73,3.87-5.58v3.59h107.32Z"/>
                  <path class="cls-75" d="M232.54,5.13h-3.84V1.84c-2.63,1.84-6.53,3.65-11.4,5.32-9.73,3.35-23.36,6.15-38.56,7.62-30.42,2.94-55.64-.56-56.34-7.82-.17-1.81,1.2-3.69,3.83-5.54v3.71h106.31Z"/>
                  <path class="cls-116" d="M231.97,5.13h-3.79V1.71c-2.61,1.83-6.47,3.62-11.29,5.27-9.64,3.31-23.13,6.09-38.2,7.55-30.12,2.91-55.1-.55-55.8-7.74-.08-.89.21-1.81.85-2.73v1.07h108.23Z"/>
                  <path class="cls-88" d="M231.4,5.13h-3.76V1.6c-2.58,1.81-6.4,3.58-11.18,5.22-9.55,3.28-22.92,6.03-37.83,7.47-29.83,2.89-54.57-.54-55.26-7.66-.09-.89.21-1.8.85-2.71v1.21h107.19Z"/>
                  <path class="cls-7" d="M230.84,5.13h-3.73V1.48c-2.55,1.79-6.34,3.54-11.07,5.16-9.46,3.25-22.69,5.98-37.46,7.4-29.54,2.86-54.04-.54-54.73-7.59-.09-.88.21-1.78.84-2.68v1.36h106.14Z"/>
                  <path class="cls-145" d="M230.27,5.13h-8.36v-1.15c-1.84.86-3.95,1.69-6.29,2.5-9.36,3.21-22.47,5.91-37.09,7.33-29.25,2.83-53.51-.54-54.19-7.52-.08-.87.2-1.76.83-2.65v1.49h105.1Z"/>
                  <path class="cls-61" d="M229.7,5.13h-8.28v-1.29c-1.82.85-3.91,1.67-6.22,2.47-9.27,3.18-22.25,5.85-36.73,7.25-28.97,2.8-52.98-.53-53.65-7.44-.09-.86.2-1.74.82-2.62v1.63h104.06Z"/>
                  <path class="cls-99" d="M229.14,5.13h-8.19v-1.44c-1.81.84-3.87,1.66-6.16,2.45-9.18,3.16-22.02,5.8-36.36,7.19-28.67,2.77-52.45-.53-53.11-7.37-.08-.86.2-1.73.81-2.6v1.78h103.02Z"/>
                  <path class="cls-73" d="M228.58,5.13h-8.11v-1.58c-1.79.83-3.83,1.64-6.1,2.42-9.09,3.12-21.8,5.73-36,7.11-28.38,2.74-51.92-.52-52.58-7.29-.08-.84.2-1.71.81-2.57v1.92h101.97Z"/>
                  <path class="cls-8" d="M228.01,5.13h-8.03v-1.73c-1.77.82-3.79,1.62-6.04,2.4-8.99,3.09-21.58,5.68-35.62,7.04-28.09,2.72-51.39-.51-52.03-7.22-.08-.84.19-1.69.8-2.54v2.06h100.93Z"/>
                  <path class="cls-92" d="M227.44,5.13h-7.95v-1.87c-1.75.82-3.75,1.61-5.98,2.37-8.9,3.06-21.35,5.62-35.25,6.96-27.8,2.69-50.86-.51-51.5-7.14-.08-.83.19-1.67.79-2.52v2.2h99.89Z"/>
                  <path class="cls-39" d="M226.88,5.13h-7.86v-2.02c-1.73.8-3.71,1.59-5.91,2.35-8.81,3.02-21.14,5.56-34.89,6.89-27.51,2.66-50.33-.5-50.97-7.07-.08-.82.19-1.65.78-2.49v2.34h98.84Z"/>
                  <path class="cls-162" d="M226.32,5.13h-7.78v-2.16c-1.71.79-3.67,1.57-5.85,2.32-8.72,2.99-20.91,5.5-34.52,6.82-27.22,2.63-49.8-.5-50.43-7v.02h98.58Z"/>
                  <path class="cls-133" d="M225.75,5.13h-13.48c-8.62,2.95-20.68,5.44-34.15,6.74-26.93,2.61-49.26-.49-49.89-6.92v.18h97.52Z"/>
                  <path class="cls-28" d="M225.18,5.13h-13.34v-.18c-8.52,2.93-20.46,5.39-33.78,6.67-26.64,2.58-48.73-.49-49.35-6.85v.35h96.47Z"/>
                  <path class="cls-141" d="M224.62,5.13h-13.2v-.35c-8.43,2.9-20.24,5.33-33.41,6.6-26.35,2.55-48.21-.48-48.81-6.77v.52h95.42Z"/>
                  <path class="cls-71" d="M224.05,5.13h-13.05v-.52c-8.34,2.86-20.01,5.27-33.05,6.53-26.06,2.52-47.67-.48-48.27-6.7v.69h94.37Z"/>
                  <path class="cls-128" d="M223.49,5.13h-12.9v-.69c-8.25,2.83-19.79,5.21-32.68,6.46-25.77,2.49-47.14-.47-47.74-6.62v.85h93.32Z"/>
                  <path class="cls-95" d="M222.92,5.13h-12.76v-.86c-8.16,2.8-19.57,5.15-32.31,6.38-25.48,2.47-46.61-.46-47.2-6.54v1.02h92.27Z"/>
                  <path class="cls-115" d="M222.35,5.13h-12.61v-1.02c-8.06,2.77-19.35,5.09-31.94,6.31-25.19,2.43-46.08-.46-46.66-6.47v1.19h91.22Z"/>
                  <path class="cls-45" d="M221.79,5.13h-12.47v-1.2c-7.97,2.74-19.12,5.03-31.57,6.23-24.9,2.42-45.55-.45-46.12-6.39v1.36h90.16Z"/>
                  <path class="cls-86" d="M221.23,5.13h-12.32v-1.37c-7.88,2.71-18.9,4.97-31.2,6.17-24.61,2.38-45.02-.45-45.59-6.33v1.53h89.11Z"/>
                  <path class="cls-152" d="M220.66,5.13h-12.18v-1.53c-7.79,2.67-18.67,4.91-30.84,6.09-24.32,2.35-44.49-.44-45.05-6.25v1.69h88.07Z"/>
                  <path class="cls-67" d="M220.1,5.13h-12.03v-1.71c-7.69,2.64-18.45,4.86-30.47,6.02-24.03,2.33-43.96-.44-44.51-6.18v1.86h87.01Z"/>
                  <path class="cls-154" d="M219.53,5.13h-11.89v-1.87c-7.6,2.61-18.23,4.8-30.1,5.94-23.74,2.3-43.43-.44-43.97-6.1v2.03h85.96Z"/>
                  <path class="cls-27" d="M218.96,5.13h-11.74v-2.04c-7.5,2.58-18.01,4.74-29.73,5.87-23.45,2.27-42.9-.42-43.44-6.02v2.2h84.91Z"/>
                  <path class="cls-10" d="M218.4,5.13h-11.6v-2.21c-7.41,2.55-17.79,4.68-29.36,5.8-23.16,2.24-42.36-.43-42.9-5.96v2.37h83.86Z"/>
                  <path class="cls-33" d="M217.84,5.13h-11.45v-2.38c-7.32,2.51-17.56,4.62-29,5.73-22.87,2.21-41.83-.42-42.36-5.88v2.53h82.81Z"/>
                  <path class="cls-38" d="M217.27,5.13h-11.3v-2.55c-7.23,2.48-17.34,4.56-28.63,5.65-22.58,2.18-41.3-.41-41.82-5.8v2.7h81.76Z"/>
                  <path class="cls-127" d="M216.7,5.13h-11.16v-2.72c-7.14,2.45-17.12,4.51-28.26,5.58-22.28,2.16-40.77-.4-41.28-5.73v2.87h80.71Z"/>
                  <path class="cls-102" d="M216.14,5.13h-11.01v-2.9c-7.05,2.42-16.9,4.45-27.9,5.51-21.99,2.13-40.24-.4-40.75-5.65v3.03h79.66Z"/>
                  <path class="cls-113" d="M215.57,5.13h-10.87v-3.06c-6.95,2.39-16.68,4.38-27.53,5.44-21.7,2.1-39.71-.4-40.21-5.58v3.2h78.61Z"/>
                  <path class="cls-157" d="M215.01,5.13h-10.72V1.9c-6.86,2.35-16.45,4.33-27.16,5.37-21.42,2.07-39.18-.4-39.67-5.5v3.37h77.55Z"/>
                  <path class="cls-135" d="M214.44,5.13h-10.58V1.73c-6.76,2.32-16.23,4.27-26.79,5.29-21.12,2.05-38.64-.38-39.13-5.43v3.54h76.5Z"/>
                  <path class="cls-126" d="M213.88,5.13h-10.43V1.56c-6.67,2.29-16,4.21-26.42,5.22-20.83,2.02-38.11-.38-38.6-5.36v3.71h75.45Z"/>
                  <path class="cls-15" d="M213.31,5.13h-10.29V1.39c-6.58,2.25-15.78,4.15-26.06,5.15-10.27.99-19.67.9-26.55-.05-3.45-.48-6.26-1.17-8.25-2.06v.7h71.14Z"/>
                  <path class="cls-87" d="M212.75,5.13h-21.62v-.91c-4.34.88-9.15,1.58-14.21,2.07-10.13.98-19.39.89-26.18-.05-3.4-.47-6.18-1.15-8.13-2.02v.91h70.14Z"/>
                  <path class="cls-49" d="M212.18,5.13h-21.31v-1.12c-4.28.86-9.01,1.56-14,2.04-9.98.97-19.11.87-25.8-.05-3.35-.47-6.09-1.14-8.02-1.99v1.12h69.13Z"/>
                  <path class="cls-70" d="M211.62,5.13h-21v-1.33c-4.22.84-8.88,1.54-13.81,2.01-9.83.95-18.83.86-25.43-.06-3.3-.46-5.99-1.12-7.89-1.96v1.34h68.13Z"/>
                  <path class="cls-78" d="M211.05,5.13h-20.69v-1.54c-4.16.83-8.76,1.51-13.59,1.98-9.7.94-18.56.85-25.06-.05-3.25-.45-5.91-1.1-7.78-1.93v1.55h67.12Z"/>
                  <path class="cls-89" d="M210.49,5.13h-20.38v-1.75c-4.09.82-8.62,1.48-13.39,1.95-9.55.92-18.28.84-24.68-.05-3.21-.44-5.81-1.08-7.67-1.91v1.76h66.12Z"/>
                  <path class="cls-129" d="M209.92,5.13h-33.26v-.05c-9.41.91-18,.82-24.31-.05v.1h57.57Z"/>
                  <path class="cls-129" d="M209.35,5.13h-32.74v-.29c-9.26.89-17.73.81-23.93-.05v.34h56.68Z"/>
                  <path class="cls-46" d="M208.79,5.13h-32.23v-.53c-9.11.88-17.44.8-23.55-.05v.58h55.79Z"/>
                  <path class="cls-72" d="M208.22,5.13h-31.72v-.77c-8.96.87-17.17.78-23.18-.05v.82h54.9Z"/>
                </g>
                <path class="cls-91" d="M91.52,36.81s-.02,0-.03,0c-1.19-.27-2.14-.52-2.74-.74-5.59-2-13.31-9.55-14.75-11.59-.5-.71-.6-1.45-.29-2.14.59-1.31,2.66-2.36,5.27-2.67,1.18-.14,118.42-13.5,177.96-13.5,1.39,0,2.76,0,4.09.02,1.59.05,2.95.08,4.13.11,7.38.19,7.67.2,11.13,2.57,2.63,1.79,4.33,3.27,4.14,4.68-.14.99-1.23,1.81-3.34,2.53-.37.12-.89.31-1.54.54-1.62.56-4.06,1.43-7.31,2.49-13.88,1.03-36.27,3.25-64.62,6.07-18.24,1.81-38.91,3.86-61.78,6.04-24.29,2.32-41.23,4.2-50.32,5.58,0,0-.01,0-.02,0h0ZM256.94,6.44c-59.52,0-176.75,13.36-177.92,13.5-2.52.3-4.51,1.28-5.05,2.51-.27.61-.19,1.24.26,1.88,1.42,2.02,9.08,9.51,14.61,11.49.59.21,1.52.46,2.68.72,9.1-1.39,26.03-3.27,50.31-5.58,22.87-2.18,43.54-4.23,61.78-6.04,28.35-2.81,50.74-5.04,64.59-6.07,3.22-1.06,5.65-1.91,7.27-2.48.65-.23,1.17-.41,1.54-.54,2.01-.67,3.04-1.43,3.16-2.31.18-1.34-1.82-2.92-4.02-4.43-3.4-2.33-3.68-2.34-10.99-2.52-1.18-.03-2.55-.07-4.13-.12-1.33-.02-2.7-.02-4.09-.02h0Z"/>
              </g>
            </g>
            <g>
              <g class="cls-136">
                <rect class="cls-3" x="32.6" y="4.27" width="264.23" height="63.31"/>
                <path class="cls-3" d="M279.76,25.99c.73,13.14-12.57,25.82-34.67,35.7-5.53,2.47-11.6,4.76-18.15,6.85v-.42H68.6v3.48c-23.07-7.34-37.71-18.45-38.44-31.59-.74-13.14,12.56-25.82,34.66-35.69,2.76-1.24,5.66-2.42,8.69-3.57v2.99h183.44V.58c4.63,2.28,8.65,4.77,11.96,7.44,6.63,5.34,10.48,11.4,10.85,17.97Z"/>
                <path class="cls-144" d="M277.19,25.13c.72,12.86-12.3,25.27-33.93,34.94-5.41,2.42-11.36,4.66-17.77,6.7-3.2,1.02-6.52,1.99-9.94,2.9v-1.56H70.47v1.66c-22.58-7.19-36.91-18.07-37.63-30.92-.72-12.87,12.3-25.28,33.93-34.95,2.7-1.21,5.54-2.38,8.51-3.49v3.32h179.58V.26c4.53,2.23,8.46,4.67,11.71,7.28,6.49,5.22,10.25,11.16,10.62,17.59Z"/>
                <path class="cls-112" d="M274.62,24.26c.71,12.59-12.03,24.73-33.21,34.2-10.58,4.73-23.28,8.79-37.45,11.9v-2.25h-122.97v2.3c-3-.76-5.89-1.58-8.65-2.46-22.1-7.04-36.12-17.68-36.83-30.26-.7-12.59,12.04-24.73,33.21-34.19v.24h190.25v-.38c1.91,1.19,3.66,2.42,5.26,3.7,6.35,5.11,10.03,10.92,10.39,17.21Z"/>
                <path class="cls-143" d="M272.05,23.4c.69,12.31-11.77,24.19-32.48,33.44-10.36,4.62-22.77,8.6-36.63,11.64v-.37h-111.12v2.49c-6.31-1.26-12.21-2.75-17.61-4.47-21.61-6.88-35.33-17.29-36.02-29.6-.69-12.31,11.77-24.19,32.48-33.44v.65h186.07v-.79c1.87,1.17,3.59,2.37,5.14,3.62,6.22,5,9.82,10.68,10.17,16.83Z"/>
                <path class="cls-151" d="M269.48,22.54c.68,12.03-11.51,23.65-31.75,32.69-10.12,4.52-22.26,8.4-35.81,11.38-6.78,1.48-13.91,2.75-21.32,3.74v-2.24h-67.67v3.5c-13.8-1.44-26.29-3.94-36.86-7.3-21.13-6.72-34.53-16.9-35.21-28.93-.67-12.03,11.51-23.64,31.75-32.69v1.05h181.89v-1.19c1.83,1.14,3.51,2.32,5.03,3.54,6.07,4.89,9.59,10.44,9.93,16.46Z"/>
                <path class="cls-76" d="M266.91,21.67c1.32,23.52-47.61,45.38-109.29,48.85v-2.41h-43.66v1.5c-13.48-1.4-25.69-3.85-36.01-7.13-20.64-6.57-33.74-16.51-34.4-28.27-.66-11.75,11.24-23.1,31.02-31.94v1.46h177.72v-1.6c1.79,1.11,3.43,2.26,4.91,3.46,5.94,4.78,9.38,10.21,9.71,16.08Z"/>
                <path class="cls-119" d="M264.35,20.81c1.29,22.97-46.49,44.32-106.72,47.7-30.11,1.69-57.64-1.43-77.8-7.85-20.15-6.41-32.95-16.12-33.59-27.6-.64-11.48,10.98-22.56,30.29-31.19v1.87h173.54v-2c1.75,1.08,3.35,2.21,4.8,3.38,5.8,4.66,9.15,9.96,9.48,15.7Z"/>
                <path class="cls-6" d="M261.77,19.95c1.26,22.41-45.37,43.25-104.16,46.55-58.78,3.3-107.45-12.2-108.71-34.6-.63-11.2,10.71-22.02,29.56-30.44v2.27h169.37V1.33c1.7,1.06,3.27,2.16,4.68,3.29,5.66,4.55,8.94,9.72,9.25,15.33Z"/>
                <path class="cls-137" d="M259.21,19.08c1.22,21.85-44.26,42.18-101.59,45.4-57.33,3.22-104.8-11.89-106.03-33.75-.61-10.93,10.45-21.47,28.84-29.69v2.68h165.2V.92c1.66,1.04,3.18,2.11,4.56,3.22,5.52,4.44,8.72,9.48,9.02,14.95Z"/>
                <path class="cls-43" d="M256.64,18.22c1.2,21.3-43.14,41.12-99.02,44.25-55.88,3.14-102.15-11.59-103.35-32.89-.59-10.65,10.19-20.93,28.11-28.94v3.09h165.47v-.08c5.38,4.33,8.5,9.24,8.8,14.57Z"/>
                <path class="cls-40" d="M254.07,17.36c1.16,20.75-42.02,40.05-96.46,43.11-54.43,3.06-99.51-11.29-100.67-32.04-.58-10.38,9.92-20.39,27.37-28.19v3.5h161.18v-.56c5.24,4.21,8.28,9,8.57,14.19Z"/>
                <path class="cls-40" d="M251.44,17.5c1.13,20.2-40.9,38.98-93.89,41.96-52.99,2.97-96.86-10.99-97.99-31.19-.57-10.1,9.66-19.85,26.65-27.44v2.9h156.9v-.04c5.1,4.1,8.05,8.76,8.34,13.81Z"/>
                <path class="cls-90" d="M250.94,17.35c1.13,20.09-40.68,38.77-93.38,41.73-52.7,2.96-96.34-10.93-97.47-31.02-.56-10.05,9.61-19.74,26.51-27.29v2.96h156.05v-.12c5.07,4.08,8.01,8.72,8.29,13.74Z"/>
                <path class="cls-30" d="M250.44,17.19c1.12,19.99-40.46,38.57-92.88,41.51-52.42,2.94-95.83-10.87-96.95-30.85-.56-9.99,9.55-19.64,26.36-27.14v3.02h155.21v-.2c5.05,4.06,7.97,8.67,8.25,13.66Z"/>
                <path class="cls-31" d="M249.93,17.04c1.12,19.87-40.24,38.36-92.38,41.29-52.13,2.92-95.3-10.81-96.42-30.69-.56-9.94,9.5-19.53,26.22-27v3.09h154.38v-.28c5.02,4.04,7.92,8.62,8.2,13.59Z"/>
                <path class="cls-148" d="M249.43,16.89c1.11,19.77-40.02,38.16-91.88,41.07-51.85,2.91-94.79-10.75-95.9-30.52-.55-9.88,9.45-19.42,26.08-26.85v3.15h153.54v-.36c4.98,4.01,7.88,8.57,8.16,13.51Z"/>
                <path class="cls-120" d="M248.93,16.74c1.11,19.66-39.8,37.95-91.38,40.84-51.57,2.89-94.27-10.69-95.37-30.36-.55-9.83,9.4-19.31,25.93-26.7v3.21h152.7v-.44c4.97,3.99,7.84,8.53,8.11,13.44Z"/>
                <path class="cls-107" d="M248.42,16.58c1.1,19.56-39.59,37.74-90.87,40.62-51.29,2.87-93.75-10.64-94.85-30.19-.55-9.78,9.35-19.21,25.79-26.56v3.28h151.86v-.52c4.94,3.97,7.8,8.48,8.07,13.37Z"/>
                <path class="cls-118" d="M247.92,16.43c1.09,19.44-39.37,37.53-90.37,40.39-51,2.86-93.23-10.58-94.33-30.02-.55-9.72,9.3-19.1,25.65-26.41v3.34h151.02v-.6c4.91,3.95,7.76,8.43,8.03,13.29Z"/>
                <path class="cls-103" d="M247.42,16.28c1.08,19.33-39.16,37.32-89.87,40.17-50.72,2.85-92.72-10.52-93.81-29.85-.54-9.67,9.25-19,25.51-26.27v3.41h150.18v-.67c4.89,3.92,7.71,8.39,7.99,13.22Z"/>
                <path class="cls-132" d="M246.91,16.12c1.08,19.23-38.93,37.11-89.37,39.94-50.44,2.83-92.2-10.46-93.28-29.69-.54-9.61,9.19-18.89,25.36-26.11v3.47h149.35v-.75c4.85,3.91,7.67,8.34,7.94,13.15Z"/>
                <path class="cls-2" d="M246.41,15.97c1.07,19.12-38.71,36.9-88.87,39.72-50.15,2.82-91.68-10.4-92.76-29.52-.54-9.56,9.14-18.78,25.22-25.97v3.54h148.51v-.83c4.82,3.88,7.62,8.29,7.89,13.07Z"/>
                <path class="cls-62" d="M245.91,15.82c1.07,19.01-38.49,36.7-88.36,39.5-49.87,2.8-91.17-10.34-92.23-29.36-.53-9.5,9.09-18.68,25.08-25.83v3.6h147.67v-.91c4.8,3.86,7.58,8.25,7.85,13Z"/>
                <path class="cls-150" d="M245.4,15.66c1.06,18.91-38.27,36.48-87.86,39.27-49.59,2.79-90.64-10.28-91.71-29.19-.53-9.45,9.04-18.57,24.94-25.68v3.66h146.83v-.99c4.77,3.84,7.54,8.2,7.8,12.92Z"/>
                <path class="cls-160" d="M244.9,15.51c1.06,18.79-38.06,36.27-87.36,39.04-49.31,2.77-90.13-10.22-91.18-29.02-.53-9.4,8.99-18.46,24.79-25.53v3.73h145.99v-1.08c4.75,3.82,7.5,8.16,7.76,12.86Z"/>
                <path class="cls-42" d="M244.4,15.35c1.05,18.69-37.84,36.07-86.86,38.82-49.02,2.76-89.61-10.16-90.66-28.85-.26-4.67,1.97-9.26,6.23-13.56,2.14-2.15,4.77-4.23,7.86-6.21,1.55-.99,3.2-1.96,4.97-2.89v1.07h150.74v-1.15c4.72,3.79,7.45,8.1,7.71,12.77Z"/>
                <path class="cls-105" d="M243.89,15.2c1.04,18.58-37.62,35.86-86.36,38.59-48.74,2.74-89.09-10.1-90.13-28.68-.26-4.65,1.96-9.21,6.2-13.49,2.12-2.13,4.75-4.2,7.82-6.17,1.54-.98,3.18-1.94,4.93-2.87v1.15h149.88v-1.23c4.69,3.77,7.41,8.06,7.67,12.7Z"/>
                <path class="cls-75" d="M243.39,15.05c1.03,18.47-37.4,35.65-85.86,38.37-48.45,2.72-88.57-10.05-89.61-28.52-.26-4.62,1.95-9.16,6.16-13.41,2.11-2.12,4.72-4.18,7.77-6.14,1.53-.98,3.16-1.93,4.91-2.86v1.23h149.01v-1.31c4.66,3.75,7.36,8.02,7.62,12.63Z"/>
                <path class="cls-116" d="M242.89,14.9c1.03,18.36-37.19,35.44-85.36,38.15-48.17,2.71-88.06-9.99-89.09-28.35-.26-4.59,1.94-9.1,6.13-13.33,2.09-2.11,4.69-4.15,7.72-6.1,1.52-.97,3.15-1.92,4.88-2.84v1.31h148.13v-1.39c4.64,3.73,7.32,7.97,7.58,12.56Z"/>
                <path class="cls-88" d="M242.39,14.75c1.02,18.25-36.97,35.23-84.85,37.92-47.89,2.69-87.54-9.93-88.56-28.19-.26-4.56,1.93-9.05,6.09-13.25,2.08-2.1,4.66-4.13,7.68-6.06,1.51-.97,3.13-1.91,4.85-2.83v1.39h147.26v-1.47c4.61,3.71,7.29,7.92,7.54,12.49Z"/>
                <path class="cls-7" d="M241.89,14.59c1.02,18.15-36.75,35.03-84.35,37.71-47.6,2.67-87.02-9.87-88.04-28.02-.25-4.54,1.92-9,6.06-13.18,2.07-2.09,4.64-4.11,7.63-6.03,1.5-.96,3.11-1.9,4.82-2.81v1.47h146.39v-1.55c4.58,3.69,7.24,7.87,7.49,12.41Z"/>
                <path class="cls-145" d="M241.38,14.44c1.02,18.04-36.52,34.82-83.84,37.47-47.32,2.66-86.5-9.81-87.52-27.85-.25-4.51,1.9-8.94,6.02-13.09,2.06-2.07,4.61-4.08,7.59-5.99,1.49-.95,3.09-1.89,4.79-2.79v1.55h145.52v-1.63c4.55,3.66,7.19,7.83,7.44,12.34Z"/>
                <path class="cls-61" d="M240.88,14.28c1.01,17.93-36.31,34.61-83.34,37.25-47.04,2.64-85.99-9.76-86.99-27.69-.25-4.48,1.89-8.89,5.98-13.01,2.04-2.06,4.58-4.06,7.54-5.96,1.48-.95,3.07-1.87,4.76-2.77v1.63h144.65v-1.71c4.53,3.64,7.15,7.78,7.4,12.26Z"/>
                <path class="cls-99" d="M240.37,14.13c1.01,17.82-36.08,34.4-82.84,37.03-46.75,2.62-85.47-9.69-86.46-27.52-.25-4.46,1.88-8.83,5.95-12.94,2.04-2.05,4.55-4.03,7.5-5.92,1.47-.94,3.05-1.87,4.73-2.76v1.71h143.78v-1.79c4.5,3.62,7.11,7.73,7.36,12.19Z"/>
                <path class="cls-73" d="M239.87,13.98c.99,17.71-35.87,34.19-82.35,36.8-46.47,2.61-84.95-9.64-85.94-27.35-.25-4.43,1.87-8.78,5.91-12.85,2.02-2.04,4.52-4.01,7.45-5.88,1.47-.94,3.04-1.85,4.7-2.74v1.79h142.91v-1.87c4.47,3.6,7.07,7.69,7.32,12.12Z"/>
                <path class="cls-8" d="M239.37,13.82c.99,17.61-35.65,33.99-81.84,36.58-46.19,2.59-84.43-9.57-85.42-27.18-.25-4.4,1.86-8.73,5.87-12.78,2.01-2.02,4.5-3.98,7.41-5.85,1.46-.93,3.02-1.84,4.68-2.73v1.87h142.03v-1.95c4.45,3.58,7.02,7.64,7.27,12.04Z"/>
                <path class="cls-92" d="M238.86,13.67c.98,17.5-35.43,33.78-81.34,36.35-45.91,2.57-83.92-9.52-84.9-27.02-.25-4.38,1.84-8.67,5.84-12.7,1.99-2.02,4.47-3.96,7.36-5.81,1.44-.93,3-1.84,4.65-2.71v1.95h141.16V1.7c4.42,3.55,6.98,7.59,7.23,11.97Z"/>
                <path class="cls-39" d="M238.36,13.52c.98,17.38-35.22,33.56-80.84,36.13-45.62,2.56-83.4-9.46-84.37-26.85-.24-4.35,1.83-8.62,5.8-12.63,1.98-2,4.44-3.93,7.32-5.77,1.44-.92,2.98-1.82,4.62-2.69v2.03h140.29V1.62c4.39,3.53,6.94,7.54,7.18,11.9Z"/>
                <path class="cls-162" d="M237.86,13.36c.97,17.28-35,33.36-80.34,35.9-45.34,2.55-82.88-9.4-83.85-26.69-.24-4.32,1.82-8.57,5.77-12.54,1.97-1.99,4.41-3.91,7.27-5.75,1.43-.91,2.96-1.8,4.59-2.67v2.11h139.42V1.54c4.36,3.51,6.89,7.5,7.14,11.82Z"/>
                <path class="cls-133" d="M237.36,13.21c.96,17.18-34.78,33.15-79.84,35.68-45.05,2.52-82.36-9.35-83.33-26.52-.24-4.3,1.81-8.52,5.73-12.47,1.96-1.97,4.39-3.88,7.22-5.7,1.42-.91,2.94-1.8,4.56-2.66v2.19h138.55V1.46c4.34,3.49,6.85,7.45,7.09,11.75Z"/>
                <path class="cls-28" d="M236.85,13.06c.96,17.07-34.56,32.94-79.33,35.46-44.77,2.51-81.84-9.29-82.8-26.35-.24-4.27,1.8-8.46,5.69-12.39,1.95-1.96,4.36-3.86,7.18-5.66,1.41-.91,2.92-1.79,4.53-2.65v2.27h137.68V1.39c4.31,3.46,6.8,7.4,7.05,11.67Z"/>
                <path class="cls-141" d="M236.35,12.9c.95,16.96-34.34,32.73-78.83,35.23-44.49,2.5-81.33-9.22-82.28-26.19-.24-4.24,1.79-8.41,5.66-12.31,1.94-1.95,4.33-3.84,7.14-5.63,1.4-.9,2.9-1.77,4.5-2.62v2.35h136.81V1.31c4.28,3.44,6.77,7.36,7,11.6Z"/>
                <path class="cls-71" d="M235.85,12.75c.95,16.85-34.12,32.52-78.33,35.01-44.2,2.48-80.81-9.17-81.75-26.02-.24-4.21,1.78-8.35,5.62-12.23,1.92-1.94,4.3-3.81,7.09-5.6,1.39-.89,2.89-1.76,4.47-2.61v2.43h135.94V1.23c4.25,3.42,6.72,7.31,6.96,11.52Z"/>
                <path class="cls-128" d="M235.34,12.6c.94,16.75-33.9,32.32-77.83,34.78-43.92,2.47-80.29-9.11-81.23-25.85-.23-4.18,1.77-8.3,5.59-12.15,1.91-1.92,4.27-3.78,7.04-5.56,1.39-.89,2.87-1.75,4.45-2.59v2.51h135.07V1.15c4.22,3.4,6.67,7.26,6.9,11.45Z"/>
                <path class="cls-95" d="M234.84,12.44c.93,16.64-33.69,32.11-77.32,34.56-43.64,2.46-79.77-9.05-80.7-25.68-.23-4.16,1.75-8.25,5.55-12.07,1.9-1.92,4.25-3.77,7-5.53h0s138.61.01,138.61.01V1.06c4.2,3.38,6.63,7.22,6.87,11.38Z"/>
                <path class="cls-115" d="M234.34,12.29c.93,16.53-33.47,31.9-76.82,34.33-43.36,2.44-79.25-8.99-80.18-25.52-.23-4.13,1.74-8.19,5.51-11.99,1.88-1.91,4.22-3.74,6.95-5.5v.12h137.71V.99c4.18,3.36,6.6,7.17,6.83,11.3Z"/>
                <path class="cls-45" d="M233.83,12.14c.93,16.42-33.24,31.69-76.31,34.11-43.07,2.42-78.74-8.94-79.66-25.35-.23-4.1,1.73-8.14,5.48-11.92,1.87-1.89,4.19-3.71,6.91-5.46v.21h136.81V.91c4.15,3.33,6.55,7.12,6.77,11.23Z"/>
                <path class="cls-86" d="M233.33,11.99c.91,16.31-33.03,31.48-75.82,33.88-42.79,2.4-78.21-8.87-79.13-25.19-.22-4.08,1.72-8.08,5.45-11.84,1.86-1.88,4.16-3.69,6.86-5.42v.31h135.92V.83c4.12,3.31,6.5,7.08,6.73,11.16Z"/>
                <path class="cls-152" d="M232.83,11.83c.91,16.2-32.81,31.28-75.32,33.66-42.51,2.39-77.7-8.81-78.61-25.02-.23-4.05,1.71-8.04,5.41-11.76,1.85-1.86,4.14-3.66,6.82-5.39v.41h135.02V.75c4.09,3.29,6.46,7.03,6.69,11.08Z"/>
                <path class="cls-67" d="M232.32,11.68c.91,16.09-32.59,31.06-74.81,33.44-42.22,2.37-77.18-8.76-78.09-24.85-.22-4.03,1.7-7.98,5.37-11.69,1.84-1.85,4.11-3.64,6.77-5.34v.5h134.12V.67c4.06,3.27,6.42,6.98,6.64,11.01Z"/>
                <path class="cls-154" d="M231.82,11.53c.9,15.99-32.37,30.86-74.31,33.21-41.94,2.36-76.66-8.69-77.56-24.68-.23-4,1.69-7.92,5.34-11.6,1.82-1.84,4.08-3.62,6.73-5.31v.6h133.21V.59c4.04,3.25,6.38,6.94,6.6,10.94Z"/>
                <path class="cls-27" d="M231.32,11.37c.89,15.88-32.15,30.65-73.81,32.98-41.66,2.34-76.15-8.64-77.04-24.52-.22-3.97,1.67-7.87,5.3-11.52,1.81-1.83,4.06-3.6,6.68-5.27v.69h132.31V.51c4.01,3.23,6.33,6.89,6.56,10.86Z"/>
                <path class="cls-10" d="M230.81,11.22c.88,15.77-31.93,30.44-73.31,32.76-41.37,2.32-75.63-8.58-76.52-24.36-.22-3.94,1.66-7.82,5.26-11.45,1.8-1.81,4.02-3.56,6.64-5.24v.79h131.41V.43c3.99,3.2,6.29,6.84,6.51,10.79Z"/>
                <path class="cls-33" d="M230.31,11.06c.88,15.66-31.71,30.23-72.8,32.54-41.09,2.31-75.11-8.52-75.99-24.18-.22-3.92,1.65-7.77,5.23-11.37,1.79-1.8,4-3.54,6.59-5.2v.88h130.51V.36c3.96,3.18,6.25,6.79,6.46,10.71Z"/>
                <path class="cls-38" d="M229.81,10.91c.87,15.56-31.5,30.02-72.31,32.32-40.81,2.29-74.59-8.46-75.47-24.02-.22-3.89,1.64-7.71,5.19-11.29,1.77-1.79,3.97-3.52,6.54-5.17v.98h129.61V.27c3.93,3.16,6.21,6.75,6.42,10.64Z"/>
                <path class="cls-127" d="M229.3,10.76c.87,15.45-31.28,29.81-71.8,32.09-40.52,2.27-74.07-8.4-74.94-23.85-.22-3.87,1.63-7.66,5.15-11.21,1.76-1.78,3.95-3.5,6.5-5.13v1.08h128.72V.19c3.9,3.14,6.16,6.7,6.38,10.57Z"/>
                <path class="cls-102" d="M228.8,10.6c.86,15.34-31.06,29.61-71.3,31.86-40.24,2.26-73.56-8.34-74.42-23.68-.21-3.83,1.62-7.6,5.12-11.13,1.75-1.76,3.92-3.47,6.45-5.09v1.17h127.82V.12c3.87,3.12,6.11,6.66,6.33,10.49Z"/>
                <path class="cls-113" d="M228.3,10.45c.85,15.23-30.84,29.4-70.8,31.64-39.96,2.24-73.04-8.28-73.89-23.52-.22-3.81,1.61-7.55,5.08-11.06,1.74-1.75,3.89-3.45,6.41-5.06v1.27h126.91V.03c3.85,3.1,6.08,6.61,6.29,10.42Z"/>
                <path class="cls-157" d="M227.8,10.3c.85,15.12-30.62,29.19-70.3,31.42-39.67,2.22-72.52-8.23-73.37-23.35-.21-3.78,1.59-7.5,5.05-10.98,1.73-1.74,3.86-3.42,6.36-5.02v1.37h128.57v-1.39c.75.82,1.39,1.66,1.92,2.52,1.06,1.73,1.67,3.55,1.77,5.44Z"/>
                <path class="cls-135" d="M227.29,10.14c.84,15.02-30.4,28.98-69.79,31.19-39.39,2.21-72-8.17-72.85-23.18-.21-3.76,1.59-7.44,5.01-10.9,1.71-1.73,3.84-3.4,6.32-4.98v1.46h127.66v-1.49c.74.81,1.38,1.65,1.9,2.51,1.05,1.71,1.65,3.52,1.76,5.4Z"/>
                <path class="cls-126" d="M226.79,9.99c.83,14.91-30.19,28.77-69.29,30.97-39.11,2.19-71.49-8.11-72.32-23.02-.21-3.73,1.57-7.39,4.97-10.82,1.7-1.71,3.81-3.37,6.27-4.95v1.56h126.74v-1.59c.73.8,1.37,1.63,1.89,2.49,1.04,1.7,1.64,3.49,1.74,5.36Z"/>
                <path class="cls-15" d="M226.29,9.83c.83,14.8-29.97,28.57-68.79,30.75-38.82,2.18-70.97-8.05-71.8-22.85-.21-3.7,1.56-7.33,4.94-10.74,1.69-1.7,3.78-3.35,6.23-4.92v1.66h125.82v-1.68c.73.8,1.36,1.63,1.88,2.47,1.03,1.69,1.63,3.47,1.73,5.32Z"/>
                <path class="cls-87" d="M225.79,9.69c.82,14.69-29.75,28.36-68.29,30.51-38.54,2.17-70.45-7.99-71.28-22.68-.21-3.68,1.55-7.29,4.9-10.67,1.68-1.69,3.75-3.32,6.18-4.88v1.76h124.9v-1.78c.73.8,1.34,1.62,1.86,2.45,1.03,1.68,1.62,3.45,1.72,5.29Z"/>
                <path class="cls-49" d="M225.28,9.53c.82,14.58-29.54,28.15-67.79,30.29s-69.93-7.93-70.75-22.52c-.2-3.64,1.54-7.23,4.87-10.58,1.66-1.68,3.72-3.3,6.14-4.85v1.85h123.98v-1.88c.72.79,1.34,1.6,1.85,2.44,1.02,1.67,1.6,3.42,1.71,5.24Z"/>
                <path class="cls-70" d="M224.78,9.38c.81,14.48-29.31,27.94-67.29,30.07-37.97,2.13-69.41-7.88-70.23-22.35-.21-3.62,1.53-7.18,4.83-10.51,1.65-1.67,3.7-3.27,6.09-4.81v1.95h123.07v-1.98c.71.79,1.33,1.59,1.83,2.42,1.01,1.65,1.59,3.39,1.69,5.2Z"/>
                <path class="cls-78" d="M224.27,9.23c.81,14.36-29.09,27.73-66.78,29.85-37.69,2.11-68.9-7.82-69.7-22.19-.2-3.59,1.52-7.12,4.79-10.42,1.64-1.65,3.67-3.25,6.04-4.78v2.05h122.15V1.66c.71.78,1.32,1.58,1.82,2.4,1,1.64,1.58,3.37,1.68,5.17Z"/>
                <path class="cls-89" d="M223.77,9.07c.8,14.26-28.88,27.52-66.29,29.62-37.4,2.1-68.38-7.76-69.17-22.02-.21-3.57,1.5-7.06,4.75-10.34,1.63-1.64,3.64-3.23,6-4.74v2.14h121.23V1.56c.71.77,1.31,1.57,1.81,2.38,1,1.63,1.57,3.34,1.67,5.13Z"/>
                <path class="cls-129" d="M223.27,8.92c.8,14.15-28.66,27.31-65.78,29.4-37.12,2.08-67.86-7.7-68.65-21.85-.2-3.54,1.49-7.01,4.72-10.27,1.61-1.63,3.61-3.2,5.95-4.7v2.24h120.31V1.47c.7.77,1.3,1.56,1.79,2.36.99,1.62,1.56,3.32,1.65,5.09Z"/>
                <path class="cls-129" d="M222.76,8.76c.79,14.04-28.44,27.1-65.28,29.17-36.84,2.07-67.34-7.64-68.13-21.68-.2-3.51,1.48-6.96,4.69-10.19,1.6-1.61,3.59-3.18,5.91-4.66v2.33h121.17v-.02c.98,1.61,1.54,3.29,1.64,5.05Z"/>
                <path class="cls-46" d="M222.26,8.61c.78,13.94-28.22,26.9-64.78,28.95-36.56,2.05-66.83-7.58-67.61-21.52-.19-3.48,1.47-6.91,4.65-10.12,1.59-1.6,3.56-3.15,5.86-4.62v2.43h120.24v-.13c.98,1.59,1.53,3.27,1.63,5.01Z"/>
                <path class="cls-72" d="M221.76,8.46c.77,13.83-28,26.69-64.28,28.73-36.27,2.04-66.31-7.52-67.08-21.35-.19-3.46,1.46-6.86,4.61-10.03,1.58-1.59,3.53-3.13,5.82-4.59v2.53h119.31v-.24c.96,1.58,1.52,3.24,1.62,4.97Z"/>
                <path class="cls-41" d="M221.26,8.3c.77,13.72-27.78,26.48-63.77,28.5-35.99,2.02-65.79-7.46-66.56-21.18-.19-3.43,1.45-6.8,4.58-9.96,1.57-1.58,3.5-3.1,5.77-4.56v2.62h118.38v-.36c.96,1.57,1.51,3.22,1.61,4.93Z"/>
                <path class="cls-147" d="M220.75,8.15c.77,13.62-27.56,26.28-63.27,28.28-35.71,2-65.27-7.41-66.04-21.02-.19-3.4,1.44-6.75,4.54-9.88,1.55-1.56,3.48-3.08,5.73-4.52v2.72h117.45v-.47c.95,1.56,1.5,3.19,1.59,4.89Z"/>
                <path class="cls-34" d="M220.25,8c.75,13.5-27.35,26.06-62.77,28.05-35.43,1.99-64.76-7.34-65.52-20.85-.19-3.37,1.42-6.69,4.51-9.79,1.54-1.56,3.45-3.06,5.68-4.49v2.82h116.51v-.58c.95,1.54,1.49,3.16,1.59,4.85Z"/>
                <path class="cls-121" d="M219.75,7.84c.76,13.4-27.12,25.86-62.27,27.83-35.14,1.97-64.24-7.29-64.99-20.68-.19-3.35,1.41-6.64,4.47-9.72,1.53-1.54,3.42-3.03,5.63-4.45v2.92h115.59v-.7c.94,1.53,1.47,3.14,1.57,4.81Z"/>
                <path class="cls-123" d="M219.24,7.69c.75,13.29-26.91,25.65-61.76,27.6-34.86,1.96-63.72-7.23-64.47-20.51-.19-3.33,1.4-6.59,4.43-9.65,1.52-1.53,3.39-3,5.59-4.41v3.01h114.65v-.82c.93,1.52,1.46,3.12,1.55,4.78Z"/>
                <path class="cls-155" d="M218.74,7.54c.74,13.18-26.69,25.44-61.26,27.38-34.58,1.94-63.21-7.17-63.95-20.35-.19-3.3,1.39-6.54,4.4-9.57,1.5-1.52,3.37-2.98,5.55-4.38v3.11h113.72v-.93c.92,1.5,1.45,3.09,1.54,4.74Z"/>
                <path class="cls-9" d="M218.24,7.38c.73,13.07-26.47,25.23-60.76,27.16-34.29,1.93-62.69-7.11-63.42-20.19-.19-3.27,1.38-6.48,4.36-9.48,1.49-1.5,3.34-2.96,5.5-4.34v3.21h112.79v-1.04c.91,1.49,1.44,3.06,1.53,4.7Z"/>
                <path class="cls-56" d="M217.74,7.23c.73,12.96-26.25,25.02-60.26,26.93-34.01,1.91-62.17-7.05-62.89-20.02-.18-3.24,1.37-6.42,4.32-9.41,1.48-1.49,3.31-2.94,5.46-4.31v3.3h111.86v-1.16c.9,1.49,1.43,3.04,1.52,4.66Z"/>
                <path class="cls-56" d="M217.23,7.08c.72,12.86-26.03,24.81-59.76,26.71-33.72,1.89-61.65-6.99-62.37-19.85-.18-3.21,1.36-6.37,4.29-9.33,1.47-1.48,3.28-2.91,5.41-4.27v3.4h110.92v-1.28c.9,1.47,1.42,3.02,1.51,4.62Z"/>
                <path class="cls-110" d="M216.73,6.92c.71,12.75-25.81,24.61-59.25,26.48-33.44,1.87-61.13-6.94-61.85-19.69-.18-3.19,1.35-6.32,4.25-9.25,1.45-1.47,3.26-2.88,5.36-4.24v3.5h109.99v-1.39c.89,1.46,1.41,2.99,1.49,4.58Z"/>
                <path class="cls-74" d="M216.22,6.77c.71,12.64-25.59,24.39-58.75,26.25-33.16,1.86-60.61-6.88-61.32-19.51-.18-3.16,1.34-6.26,4.22-9.17,1.44-1.45,3.23-2.86,5.32-4.2v3.6h109.07v-1.5c.88,1.45,1.39,2.96,1.47,4.55Z"/>
                <path class="cls-122" d="M215.72,6.62c.7,12.53-25.38,24.19-58.25,26.04-32.87,1.84-60.1-6.82-60.8-19.35-.18-3.14,1.32-6.21,4.18-9.1,1.43-1.44,3.2-2.84,5.27-4.17v3.69h108.13v-1.62c.87,1.43,1.38,2.94,1.47,4.5Z"/>
                <path class="cls-122" d="M215.22,6.46c.7,12.43-25.16,23.98-57.75,25.81-32.59,1.83-59.58-6.76-60.27-19.19-.17-3.1,1.31-6.16,4.15-9.02.71-.71,1.5-1.42,2.37-2.1v1.76h110.05v-1.73c.86,1.42,1.36,2.91,1.45,4.46Z"/>
                <path class="cls-122" d="M214.71,6.49c.69,12.32-24.94,23.78-57.25,25.59-32.31,1.81-59.06-6.7-59.75-19.02-.18-3.08,1.3-6.1,4.11-8.93,1.41-1.42,3.15-2.79,5.18-4.09v3.7h106.27v-1.67c.86,1.41,1.35,2.89,1.44,4.43Z"/>
              </g>
              <path class="cls-91" d="M131.43,65.48c-32.4,0-64.4-6.8-81.94-12.63-15.89-5.28-16.18-13.38-16.35-18.22-.01-.34-.02-.67-.04-.97-.13-2.42-.07-3.36-.02-4.12.04-.69.07-1.2-.06-2.53-.29-2.79-.19-5.72-.19-5.75,0-.06.05-.12.11-.13.07,0,.13.03.15.09.11.34,2.83,3.01,12.14,6.55,8.01,3.05,22.87,7.45,48.23,11.1,12.11,1.74,26.07,2.62,41.49,2.62,40,0,87.55-6.25,118.32-15.54,32.82-10.06,42.02-19.09,42.79-21.72.02-.06.09-.1.13-.1.06,0,.11.05.13.1.65,2.93-10.53,14.49-29.16,30.16-9.57,8.05-27.86,15.29-52.9,20.94-20.45,4.61-44.63,8.04-68.1,9.65-4.76.32-9.72.49-14.74.49h0ZM33.08,21.68c-.02.91-.03,3.14.2,5.3.14,1.37.11,1.91.06,2.59-.05.75-.11,1.67.02,4.08.02.31.03.63.04.97.17,4.77.45,12.76,16.17,17.98,17.53,5.82,49.49,12.62,81.86,12.62,5.02,0,9.97-.17,14.73-.49,45.83-3.14,100.97-13.8,120.84-30.52,17.08-14.37,28.17-25.57,29.04-29.24-1.9,3.3-12.04,11.86-42.68,21.25-30.79,9.3-78.38,15.55-118.4,15.55-15.43,0-29.4-.88-41.53-2.62-43.86-6.31-58.28-15.14-60.34-17.46h0Z"/>
            </g>
            <g class="cls-16">
              <path class="cls-32" d="M276.23,8.99c-3.88-2.66-3.73-2.32-14.36-2.64.54,1.48.46,3.19-.5,5.05-2.78,5.35-8.69,5.68-13.94,6.54-2.96.48-5.96.62-8.94.95-16.58,1.84-33.21,3.11-49.87,4.08-20.08,1.17-40.15,2.33-60.23,3.46-36.36,2.03-41.14-3.39-39.68-7.71-6.16.67-9.69,1.08-9.69,1.08-3.77.45-6.42,2.42-4.89,4.6,1.53,2.18,9.24,9.59,14.68,11.54.58.21,1.5.46,2.72.73,7.85-1.2,22.9-2.97,50.32-5.58,58.88-5.62,103.73-10.42,126.37-12.11,4.57-1.5,7.56-2.59,8.85-3.03,5.56-1.87,3.16-4.25-.83-6.97Z"/>
            </g>
            <polygon class="cls-25" points="109.97 18.83 108.93 18.97 116.56 33.71 126.98 40.08 131.03 40.43 112.81 18.45 109.97 18.83"/>
            <g class="cls-16">
              <path class="cls-32" d="M108.45,33.64c-9.36,1.21-18.99,1.81-26.29-4.36-4.39-3.72-4.64-7.21-3.94-9.35-3.34.61-5.53,2.46-4.1,4.48,1.53,2.18,9.24,9.59,14.68,11.54.58.21,1.5.46,2.72.73,7.85-1.2,22.9-2.97,50.32-5.58,58.88-5.62,103.73-10.42,126.37-12.11.22-.07.43-.14.65-.21-9.68-.07-54.68,4.56-65.66,5.6-11.67,1.12-85.38,8.05-94.74,9.26Z"/>
            </g>
            <g class="cls-93">
              <polygon class="cls-35" points="108.93 18.97 131.14 42.84 145.99 42.12 109.42 17.61 108.93 18.97"/>
              <polygon class="cls-36" points="109.42 17.61 131.62 41.48 146.47 40.76 123.51 16.17 109.42 17.61"/>
              <polygon class="cls-35" points="170.08 13.73 192.29 37.6 207.13 36.88 170.57 12.37 170.08 13.73"/>
              <polygon class="cls-36" points="170.57 12.37 192.77 36.24 207.62 35.52 184.66 10.92 170.57 12.37"/>
              <g class="cls-19">
                <path class="cls-32" d="M146.47,40.76l-22.96-24.59-2.92.3c9.73,5.93,20.67,22.58,11.73,21.5-1.51-.18-3.05-.12-4.47-.54l3.77,4.06,14.85-.72Z"/>
              </g>
            </g>
            <path class="cls-138" d="M56.29,20.6s-19.37,1.04-20.83,1.4c-1.46.36,14.8,7.72,38.83,12.95,1.14-.16-38.98-11.05-18-14.35Z"/>
          </g>
          <g class="cls-13">
            <g>
              <g>
                <g class="cls-24">
                  <path class="cls-26" d="M172.39,57.96c8.35-.69,16.66-1.56,24.82-2.62,15.15-1.96,30.01-5.54,44.9-8.89,10.23-2.3,20.57-3.6,30.86-5.46-.08-.99-.28-2.42-.58-3.37-27.27,6.36-55.54,0-82.61,8.05-31.38,9.33-62.42,12.37-95.04,10.77-9.75-.48-19.5-1.35-29.15-2.82C25.44,47.51,0,24.93,0,24.93c0,0,27.6,36.55,128.3,35.12,14.49-.21,29.37-.88,44.09-2.1ZM199.33,51.66c-28.79,4.13-25.69,2.24-9.26-3.11,16.44-5.35,35.57-4.04,35.57-4.04,9.84.19,2.48,3.02-26.31,7.15Z"/>
                  <path class="cls-21" d="M209.11,38.62s14.87-1.19,35.73-1.02c11.32.09,26.4-.55,33.62-3.36l-.4-2.48c-14.07,5.1-49.1,3.99-68.94,6.85Z"/>
                  <path class="cls-21" d="M168.51,47.7c-13.94,4.88-28.21,6.01-20.2,5.5,8.01-.51,20.42-4.14,31.08-7.88,8.55-2.99,25.33-5.94,25.33-5.94-13.45.8-22.27,3.45-36.21,8.32Z"/>
                  <path class="cls-18" d="M201.5,49.98c-15.39,2.06-13.7,1.2-4.85-1.3,8.85-2.5,18.99-2.08,18.99-2.08,5.23,0,1.26,1.31-14.14,3.38Z"/>
                </g>
                <path class="cls-26" d="M24.37,16.15s12.36,22.31,76.87,27.68c0,0,24.73,3.77,55.37.8,30.64-2.95-15.05,4.31-42.47,2.69-27.42-1.61-71.76-5.37-94.61-30.91l4.84-.27Z"/>
                <path class="cls-26" d="M64.72,42.53c-24.23-6.78-28.88-8.34-27.6-4.83,1.28,3.52,17.3,11.43,53.02,14.46,30.49,2.58,46.87-1.12,54.26-1.6-8.47.21-48.52.69-79.69-8.04ZM54.14,41.42c12.15,3.7,26.46,6.88,26.46,6.88-40.62-5.77-38.6-10.58-26.46-6.88Z"/>
              </g>
              <path class="cls-26" d="M293.24,8.91s-15.46,14.95-37.92,19.45c-22.46,4.49-36.23,7.77-36.23,7.77,0,0,21.47-3.27,35.29-5.13,13.81-1.85,28.21-9.89,38.87-22.08Z"/>
            </g>
          </g>
          <g class="cls-83">
            <g class="cls-23">
              <path class="cls-32" d="M136.85,40.38h2.03c-.58-1.54-2.25-5.04-6.26-8.32-5.31-4.34-8.76-6.14-6.43-3.51,2.19,2.48,6.84,8.69,10.67,11.83ZM132.22,32.97c3.18,2.43,4.09,4.73,4.09,4.73.73,1.22-1.11-.12-2.9-2.09-1.79-1.98-4.36-5.06-1.19-2.64Z"/>
              <path class="cls-32" d="M119.48,20.83c1.18.91-.09,1.74-2.7.26-1.16-.66-2.43-1.95-3.45-3.12,1.89,1.68,4.26,2.99,4.26,2.99,2.49.94,1.89-.14,1.89-.14Z"/>
            </g>
            <g>
              <path class="cls-17" d="M130.75,26.17c3.55,2.55-2.83-3.54-8.06-9.72l-1.9.19c3.1,3.5,6.62,7.13,9.96,9.53Z"/>
              <path class="cls-17" d="M121.5,22.47c-.37.95-10.18-4.95,11.39,17.95l2.39-.02c-8.98-8.36-13.62-15.81-13.52-16.35.1-.57.93-.62,8.93,5.16,6.1,4.41,8.78,9.15,9.71,11.15h1.8c-1.5-2.34-5.81-8.47-11.99-13.12-4.29-3.23-7.98-6.7-11.18-10.41l-2.09.21c2.83,3.24,4.88,4.66,4.58,5.44Z"/>
              <path class="cls-17" d="M117.14,19.99c1.63,1.06.46-.11-1.9-2.79l-1.06.1c1.3,1.32,2.37,2.29,2.96,2.69Z"/>
            </g>
          </g>
          <g class="cls-47">
            <g class="cls-83">
              <path class="cls-17" d="M179.49,15.74c1.2.91-.07,1.74-2.73.25-1.17-.66-2.46-1.96-3.49-3.13,1.9,1.68,4.3,3.01,4.3,3.01,2.53.96,1.91-.13,1.91-.13Z"/>
              <g>
                <path class="cls-17" d="M191.09,21.2c3.76,2.62-3.02-3.6-8.47-9.86l-1.89.19c3.18,3.53,6.86,7.22,10.36,9.67Z"/>
                <path class="cls-17" d="M177.11,14.89c1.66,1.07.46-.11-1.94-2.8l-1.06.11c1.31,1.32,2.39,2.3,3,2.69Z"/>
              </g>
            </g>
            <g class="cls-22">
              <path class="cls-17" d="M193.27,27.21c-5.65-4.46-9.24-6.32-6.78-3.64,2.22,2.41,6.95,8.29,11.01,11.67.79-.12,1.57-.23,2.34-.35-.95-1.81-2.91-4.82-6.57-7.68ZM194.26,30.83c-1.96-2.04-4.75-5.2-1.36-2.7,3.44,2.52,4.5,4.88,4.5,4.88.83,1.25-1.17-.14-3.15-2.18Z"/>
              <path class="cls-17" d="M190.56,22.28c-4.49-3.3-8.32-6.81-11.61-10.56l-2.09.21c2.89,3.27,4.98,4.69,4.69,5.48-.35.96-10.3-5,12.39,18.3h.36c.61-.08,1.23-.17,1.83-.26-9.54-8.51-14.38-15.92-14.3-16.45.09-.58.94-.62,9.3,5.29,5.55,3.88,8.61,7.98,10.08,10.4.5-.08,1.02-.16,1.51-.23-2.26-2.95-6.59-8.1-12.17-12.17Z"/>
            </g>
          </g>
          <g class="cls-19">
            <path class="cls-32" d="M206.07,33.89l-21.45-23.01-2.92.3c9.73,5.94,20.67,22.58,11.73,21.5-1.51-.19-3.04-.12-4.47-.54l3.77,4.06,13.34-2.31Z"/>
          </g>
          <g class="cls-82">
            <g>
              <polygon class="cls-35" points="221.47 10.48 242.95 35.01 257.81 34.73 222 9.13 221.47 10.48"/>
              <polygon class="cls-36" points="222 9.13 243.48 33.66 258.34 33.39 236.13 8.12 222 9.13"/>
              <g class="cls-47">
                <g class="cls-83">
                  <path class="cls-17" d="M230.81,12.78c1.18.95-.12,1.74-2.73.16-1.15-.69-2.4-2.03-3.39-3.23,1.85,1.74,4.21,3.14,4.21,3.14,2.51,1.03,1.91-.07,1.91-.07Z"/>
                  <path class="cls-17" d="M228.46,11.86c1.62,1.12.47-.1-1.85-2.85l-1.06.08c1.27,1.36,2.32,2.37,2.92,2.78Z"/>
                </g>
                <g class="cls-22">
                  <path class="cls-17" d="M241.69,19.64c-4.39-3.43-8.11-7.07-11.29-10.91l-2.1.15c2.78,3.35,4.84,4.84,4.53,5.62-.38.94-10.14-5.3,11.83,18.66h.36c.62-.05,1.23-.12,1.85-.2-9.28-8.79-13.9-16.34-13.8-16.88.11-.58.95-.59,9.14,5.57,5.44,4.04,8.37,8.24,9.77,10.7.5-.07,1.02-.13,1.52-.19-2.17-3.01-6.35-8.29-11.8-12.52Z"/>
                </g>
              </g>
            </g>
          </g>
        </g>
      </g>
    </g>
  </g>
</svg>