<?xml version="1.0" encoding="UTF-8"?>
<svg xmlns="http://www.w3.org/2000/svg" width="161.5" height="134.74" xmlns:xlink="http://www.w3.org/1999/xlink" viewBox="0 0 161.5 134.74">
  <defs>
    <style>
      .cls-1 {
        fill: #e8e5e3;
      }

      .cls-2 {
        fill: url(#New_Gradient_Swatch_copy_27);
      }

      .cls-3 {
        fill: url(#radial-gradient);
        mix-blend-mode: multiply;
      }

      .cls-4 {
        fill: url(#New_Gradient_Swatch_copy_29);
      }

      .cls-5 {
        fill: #e0a000;
      }

      .cls-6 {
        fill: #c42f0c;
      }

      .cls-7 {
        isolation: isolate;
      }

      .cls-8 {
        fill: #f9f5f2;
      }

      .cls-9 {
        fill: url(#New_Gradient_Swatch_copy_28);
      }

      .cls-10 {
        fill: url(#New_Gradient_Swatch_copy_30);
      }
    </style>
    <radialGradient id="radial-gradient" cx="-65.12" cy="138.06" fx="-65.12" fy="138.06" r="89.34" gradientTransform="translate(139.3 82.94) scale(.9 .22)" gradientUnits="userSpaceOnUse">
      <stop offset="0" stop-color="#c1c3c7"/>
      <stop offset=".13" stop-color="#c1c3c7" stop-opacity=".98"/>
      <stop offset=".27" stop-color="#c2c4c8" stop-opacity=".91"/>
      <stop offset=".42" stop-color="#c4c6ca" stop-opacity=".81"/>
      <stop offset=".57" stop-color="#c7c9cd" stop-opacity=".66"/>
      <stop offset=".72" stop-color="#cbcdd1" stop-opacity=".47"/>
      <stop offset=".86" stop-color="#cfd1d6" stop-opacity=".24"/>
      <stop offset=".99" stop-color="#d4d6db" stop-opacity="0"/>
    </radialGradient>
    <linearGradient id="New_Gradient_Swatch_copy_27" data-name="New Gradient Swatch copy 27" x1="41.28" y1="107.73" x2="128.57" y2="20.44" gradientUnits="userSpaceOnUse">
      <stop offset="0" stop-color="#bf3300"/>
      <stop offset=".24" stop-color="#c33502"/>
      <stop offset=".5" stop-color="#d03d09"/>
      <stop offset=".77" stop-color="#e54b14"/>
      <stop offset="1" stop-color="#fe5b22"/>
    </linearGradient>
    <linearGradient id="New_Gradient_Swatch_copy_28" data-name="New Gradient Swatch copy 28" x1="66.76" y1="11.89" x2="66.76" y2="0" gradientUnits="userSpaceOnUse">
      <stop offset="0" stop-color="#69bd0a"/>
      <stop offset="1" stop-color="#9dc70b"/>
    </linearGradient>
    <linearGradient id="New_Gradient_Swatch_copy_29" data-name="New Gradient Swatch copy 29" x1="15.28" y1="119.99" x2="92.83" y2="42.43" gradientUnits="userSpaceOnUse">
      <stop offset="0" stop-color="#ffa100"/>
      <stop offset=".22" stop-color="#ffaf00"/>
      <stop offset=".71" stop-color="#ffc900"/>
      <stop offset="1" stop-color="#ffd300"/>
    </linearGradient>
    <linearGradient id="New_Gradient_Swatch_copy_30" data-name="New Gradient Swatch copy 30" x1="35.86" y1="34.48" x2="35.86" y2="22.59" gradientUnits="userSpaceOnUse">
      <stop offset="0" stop-color="#650abd"/>
      <stop offset="1" stop-color="#a54dfb"/>
    </linearGradient>
  </defs>
  <g class="cls-7">
    <g id="Layer_2" data-name="Layer 2">
      <g id="OBJECTS">
        <g>
          <ellipse class="cls-3" cx="80.75" cy="113.94" rx="80.75" ry="20.8"/>
          <g>
            <g>
              <g>
                <path class="cls-6" d="M45.46,12.86l20.35-4.39h70.7c1.22,0,2.21.99,2.21,2.22l-.39,95.23c0,1.22-1,2.21-2.22,2.2l-11.15-.07L45.46,12.86Z"/>
                <polygon class="cls-1" points="136.42 10.21 65.85 10.32 47.14 14.36 121.96 116.6 136.42 107.18 136.42 10.21"/>
                <polygon class="cls-8" points="136.42 10.21 109.91 17.33 47.14 14.36 121.96 116.6 136.42 107.18 136.42 10.21"/>
                <g>
                  <path class="cls-1" d="M123.5,15.14c.14,8.23.21,16.47.27,24.7l.08,24.7-.08,24.7-.1,12.35-.17,12.35-.17-12.35-.1-12.35-.08-24.7.08-24.7c.06-8.23.12-16.47.27-24.7Z"/>
                  <path class="cls-1" d="M125.14,14.62c.14,8.13.21,16.26.27,24.39l.08,24.39-.08,24.39-.1,12.2-.17,12.2-.17-12.2-.1-12.2-.08-24.39.08-24.39c.06-8.13.12-16.26.27-24.39Z"/>
                  <path class="cls-1" d="M126.78,14.09c.14,8.12.21,16.25.27,24.37l.08,24.37-.08,24.37-.1,12.18-.17,12.18-.17-12.18-.1-12.18-.08-24.37.08-24.37c.06-8.12.12-16.25.27-24.37Z"/>
                  <path class="cls-1" d="M128.41,13.57c.14,8.09.21,16.18.27,24.27l.08,24.27-.08,24.27-.1,12.13-.17,12.13-.17-12.13-.1-12.13-.08-24.27.08-24.27c.06-8.09.12-16.18.27-24.27Z"/>
                  <path class="cls-1" d="M130.05,13.05c.14,8.06.21,16.12.27,24.19l.08,24.19-.08,24.19-.1,12.09-.17,12.09-.17-12.09-.1-12.09-.08-24.19.08-24.19c.06-8.06.12-16.12.27-24.19Z"/>
                </g>
                <path class="cls-2" d="M119.88,118.69l-74.41-6.78V12.86h74.61c1.22,0,2.21.99,2.21,2.21v101.43c0,1.3-1.11,2.32-2.41,2.2Z"/>
              </g>
              <polygon class="cls-9" points="63.22 11.89 63.22 0 66.63 2.28 70.31 0 70.31 11.89 63.22 11.89"/>
            </g>
            <g>
              <g>
                <path class="cls-5" d="M19,35.7l18.08-3.9h62.82c1.09,0,1.96.88,1.96,1.97l-.35,84.61c0,1.08-.89,1.96-1.97,1.95l-9.91-.06L19,35.7Z"/>
                <polygon class="cls-1" points="99.81 33.34 37.11 33.45 20.49 37.03 86.97 127.87 99.81 119.49 99.81 33.34"/>
                <polygon class="cls-8" points="99.81 33.34 71.71 41.31 20.49 37.03 86.97 127.87 99.81 119.49 99.81 33.34"/>
                <g>
                  <polygon class="cls-1" points="88.56 40 88.65 50.6 88.68 61.2 88.74 82.41 88.68 103.61 88.65 114.21 88.56 124.81 88.48 114.21 88.45 103.61 88.39 82.41 88.45 61.2 88.48 50.6 88.56 40"/>
                  <polygon class="cls-1" points="90.1 39.55 90.19 50.02 90.22 60.49 90.27 81.43 90.22 102.37 90.19 112.84 90.1 123.31 90.02 112.84 89.99 102.37 89.93 81.43 89.99 60.49 90.02 50.02 90.1 39.55"/>
                  <polygon class="cls-1" points="91.64 39.1 91.72 49.56 91.75 60.02 91.81 80.94 91.75 101.86 91.72 112.32 91.64 122.77 91.55 112.32 91.52 101.86 91.46 80.94 91.52 60.02 91.55 49.56 91.64 39.1"/>
                  <polygon class="cls-1" points="93.17 38.65 93.26 49.07 93.29 59.49 93.35 80.32 93.29 101.15 93.26 111.56 93.17 121.98 93.09 111.56 93.06 101.15 93 80.32 93.06 59.49 93.09 49.07 93.17 38.65"/>
                  <polygon class="cls-1" points="94.71 38.21 94.79 48.59 94.82 58.97 94.88 79.73 94.82 100.49 94.79 110.87 94.71 121.25 94.62 110.87 94.59 100.49 94.54 79.73 94.59 58.97 94.62 48.59 94.71 38.21"/>
                  <polygon class="cls-1" points="96.24 37.76 96.33 48.09 96.36 58.41 96.42 79.07 96.36 99.73 96.33 110.05 96.24 120.38 96.16 110.05 96.13 99.73 96.07 79.07 96.13 58.41 96.16 48.09 96.24 37.76"/>
                  <polygon class="cls-1" points="97.78 37.31 97.86 47.59 97.9 57.87 97.95 78.42 97.9 98.98 97.87 109.26 97.78 119.54 97.7 109.26 97.67 98.98 97.61 78.42 97.67 57.87 97.7 47.59 97.78 37.31"/>
                  <polygon class="cls-1" points="99.32 36.86 99.4 47.11 99.43 57.36 99.49 77.86 99.43 98.36 99.4 108.61 99.32 118.86 99.23 108.61 99.2 98.36 99.14 77.86 99.2 57.36 99.23 47.11 99.32 36.86"/>
                </g>
                <path class="cls-4" d="M85.11,129.73l-66.11-6.02V35.7h66.29c1.08,0,1.96.88,1.96,1.96v90.11c0,1.15-.99,2.06-2.14,1.95Z"/>
              </g>
              <polygon class="cls-10" points="32.31 34.48 32.31 22.59 35.72 24.87 39.4 22.59 39.4 34.48 32.31 34.48"/>
            </g>
          </g>
        </g>
      </g>
    </g>
  </g>
</svg>