<?xml version="1.0" encoding="UTF-8"?>
<svg xmlns="http://www.w3.org/2000/svg" width="143.02" height="100" viewBox="0 0 143.02 100">
  <defs>
    <style>
      .cls-1 {
        mix-blend-mode: screen;
      }

      .cls-1, .cls-2, .cls-3 {
        fill: #fdc585;
      }

      .cls-4 {
        fill: #5e2c00;
      }

      .cls-5 {
        fill: #8b8b8b;
      }

      .cls-6 {
        fill: #9a9a9a;
      }

      .cls-7 {
        fill: #7d7d7d;
      }

      .cls-8 {
        fill: #fff;
      }

      .cls-9 {
        fill: #6e6e6e;
      }

      .cls-10 {
        fill: #606060;
      }

      .cls-11 {
        fill: #e2e2e2;
      }

      .cls-12 {
        isolation: isolate;
      }

      .cls-13 {
        fill: #f1f1f1;
      }

      .cls-14 {
        fill: #c5c5c5;
      }

      .cls-15, .cls-3 {
        mix-blend-mode: multiply;
      }

      .cls-16 {
        fill: #a8a8a8;
      }

      .cls-17 {
        fill: #f0f;
      }

      .cls-18 {
        fill: #fff9b4;
      }

      .cls-19 {
        fill: #ed1c24;
      }

      .cls-20 {
        fill: #d4d4d4;
      }

      .cls-21 {
        fill: #b7b7b7;
      }

      .cls-22 {
        fill: #fff794;
      }

      .cls-23 {
        fill: #7c421a;
      }

      .cls-24 {
        fill: #9fc443;
      }
    </style>
  </defs>
  <g class="cls-12">
    <g id="Layer_2" data-name="Layer 2">
      <g id="Layer_1-2" data-name="Layer 1">
        <g>
          <g class="cls-15">
            <path class="cls-8" d="M142.22,41.47c-1.11-1.89-3.3-3.22-6.03-3.65.37-1.21.56-2.46.56-3.73,0-.27-.01-.56-.03-.86.12-.71.18-1.43.18-2.14,0-7.06-5.97-13.27-14.63-15.34-4.53-4.13-10.55-7.29-17.9-9.4,0,0-.01,0-.02,0-4.3-1.23-9.15-2.11-14.36-2.63-.01,0-.07,0-.08,0-1.75-.17-3.57-.31-5.42-.4h-.23c-.82-.05-1.65-.08-2.49-.11h-.42c-.92-.03-1.85-.05-2.8-.06h-.77c-.67,0-1.36,0-2.05.01h-.73c-.96.03-1.93.05-2.92.09-14.7.53-26.67,3.43-35.6,8.63-2.62.51-4.71,1.97-5.89,4.13-.95.8-1.85,1.65-2.7,2.53-.58-.03-1.24-.11-1.93-.19-.99-.12-2.01-.25-3.06-.25-.96,0-1.81.11-2.6.33-3.21.9-5.8,2.73-7.69,5.43-1.21,1.74-4.44,6.36-2.54,11.45.59,1.57,1.69,2.49,2.56,3.11-.58.76-1.39,1.67-2.01,2.29-2.86,2.79-3.27,5.47-2.72,7.67-1.43,1-3.27,2.37-3.91,4.87,0,.03-.01.05-.02.08-1.22,2.25-1.48,4.53-.73,6.5.63,1.67,2.19,2.67,4.18,2.67,1.47,0,2.98-.5,4.27-.98.13-.04.23-.08.32-.11.4-.14.8-.29,1.19-.45-.03.44-.06.89-.1,1.33-.11,1.43-.22,2.91-.13,4.25.18,2.62.99,4.57,2.42,5.82,1.45,3.25,4.21,6.03,7.89,7.97,5.73,9.17,18.75,19.69,48.34,19.69.73,0,1.46,0,2.21-.02,12.5-.22,23.2-1.8,31.77-4.71.03,0,.05-.02.07-.02.63-.22,1.26-.44,1.91-.69l.1-.04c1.23-.46,2.44-.97,3.64-1.52l.13-.06c1.1-.51,2.19-1.07,3.27-1.67l.13-.07c1-.56,1.96-1.16,2.87-1.77l.17-.11c.9-.61,1.76-1.25,2.54-1.88l.15-.12c.39-.32.78-.65,1.15-.98.38-.34.75-.69,1.11-1.04l.09-.09c.33-.33.66-.66.97-.99.01-.01.04-.05.06-.06.33-.36.65-.71.95-1.08l.05-.06c.29-.34.56-.68.81-1.01l.1-.13c.28-.37.55-.74.78-1.06.01-.02.03-.04.04-.06.25-.35.48-.71.73-1.1l.07-.11c.45-.72.88-1.46,1.27-2.23l.08-.15c.36-.72.7-1.46,1-2.19l.08-.2c.29-.72.55-1.46.78-2.19l.06-.19c.1-.33.2-.67.28-.99,0-.02.02-.09.03-.11.08-.31.16-.63.23-.94.01,0,.03,0,.05,0,.41.05.82.08,1.23.08h0c2.88,0,5.53-1.37,7.47-3.85,2.28-2.93,3.2-7.01,2.34-10.39-.29-1.13-.99-2.09-1.74-3.12-.28-.39-.7-.97-.96-1.4.05-.07.11-.14.16-.21.98-1.3,1.99-2.64,2.72-4.51.75-1.93.65-3.88-.31-5.5Z"/>
            <path class="cls-13" d="M141.97,41.18c-1.11-1.89-3.3-3.22-6.03-3.65.37-1.21.56-2.46.56-3.73,0-.27-.01-.56-.03-.86.12-.71.18-1.43.18-2.14,0-7.06-5.97-13.28-14.63-15.34-4.53-4.13-10.96-6.19-17.9-9.4,0,0-.01,0-.02,0-4.3-1.23-9.14-2.13-14.36-2.63-.01,0-.07,0-.08,0-1.75-.23-3.57-.31-5.42-.4h-.23c-.82-.05-1.65-.08-2.49-.11h-.42c-.92-.03-1.85-.05-2.79-.06h-.78c-.67,0-1.36,0-2.05.01h-.73c-.96.03-1.93.05-2.92.09-14.7.53-26.67,3.43-35.6,8.63-2.62.51-4.71,1.97-5.89,4.13-.95.8-1.85,1.65-2.7,2.53-.58-.03-1.24-.11-1.93-.19-.99-.12-2.01-.25-3.06-.25-.96,0-1.81.11-2.6.33-3.21.9-5.8,2.73-7.69,5.43-1.21,1.74-4.44,6.36-2.54,11.45.59,1.57,1.69,2.49,2.56,3.11-.58.76-1.39,1.67-2.01,2.29-2.86,2.79-3.27,5.47-2.72,7.67-1.43,1-3.22,2.38-3.91,4.87,0,.03-.01.05-.02.08-1.22,2.25-1.48,4.53-.73,6.5.63,1.67,2.19,2.67,4.18,2.67,1.47,0,2.97-.51,4.27-.98.12-.04.23-.08.32-.11.4-.14.8-.29,1.19-.45-.03.44-.06.89-.1,1.33-.11,1.43-.23,2.91-.13,4.25.18,2.62.99,4.57,2.42,5.82,1.45,3.25,4.21,6.03,7.89,7.97,5.73,9.16,18.75,19.69,48.34,19.69.73,0,1.46,0,2.21-.02,12.5-.22,23.14-1.97,31.77-4.71.03,0,.05-.02.07-.02.64-.21,1.26-.44,1.91-.69l.1-.04c1.23-.47,2.44-.97,3.64-1.53l.13-.06c1.1-.51,2.19-1.07,3.27-1.67l.13-.07c1-.56,1.96-1.16,2.87-1.77l.17-.11c.9-.61,1.76-1.25,2.54-1.88l.15-.12c.39-.32.78-.65,1.15-.98.38-.34.75-.69,1.11-1.04l.09-.09c.33-.33.66-.66.97-.99.01-.01.04-.04.06-.06.32-.37.65-.71.95-1.08l.05-.06c.29-.34.56-.69.81-1.01l.1-.13c.28-.37.55-.73.78-1.06.01-.02.03-.04.04-.06.25-.35.48-.71.73-1.1l.07-.11c.45-.72.88-1.46,1.26-2.23l.08-.15c.36-.72.7-1.46,1-2.19l.08-.2c.29-.72.55-1.46.77-2.19l.06-.19c.1-.33.19-.67.28-.99,0-.02.02-.09.03-.1.1-.31.16-.63.23-.94.02,0,.03,0,.05,0,.41.08.82.08,1.23.08h0c2.88,0,5.53-1.37,7.47-3.85,2.28-2.93,3.2-7.01,2.34-10.39-.29-1.13-.99-2.09-1.74-3.12-.28-.39-.71-.97-.96-1.4.05-.07.11-.14.16-.21.96-1.31,1.99-2.64,2.72-4.51.75-1.93.65-3.88-.3-5.5Z"/>
            <path class="cls-11" d="M141.71,40.9c-1.11-1.89-3.3-3.22-6.03-3.65.37-1.21.56-2.46.56-3.73,0-.27-.01-.56-.03-.86.12-.71.18-1.43.18-2.14,0-7.06-5.97-13.27-14.63-15.34-4.53-4.13-10.78-6.62-17.9-9.4,0,0-.01,0-.02,0-4.3-1.23-9.14-2.16-14.36-2.63-.01,0-.07,0-.08,0-1.75-.23-3.57-.31-5.42-.4h-.23c-.82-.05-1.65-.08-2.49-.11h-.42c-.92-.04-1.85-.05-2.8-.06h-.77c-.67,0-1.36,0-2.05.01h-.73c-.96.03-1.93.05-2.92.09-14.7.53-26.67,3.43-35.6,8.63-2.62.51-4.71,1.97-5.89,4.12-.95.8-1.85,1.65-2.7,2.53-.58-.03-1.24-.11-1.93-.19-.99-.12-2.01-.25-3.06-.25-.96,0-1.81.11-2.6.33-3.21.9-5.8,2.73-7.69,5.43-1.21,1.74-4.44,6.36-2.54,11.45.59,1.57,1.69,2.49,2.56,3.11-.58.76-1.39,1.68-2.01,2.29-2.86,2.79-3.27,5.47-2.72,7.67-1.43,1-3.27,2.37-3.91,4.87,0,.03-.01.05-.02.08-1.22,2.25-1.48,4.53-.73,6.5.63,1.67,2.19,2.67,4.18,2.67,1.47,0,2.97-.51,4.27-.98.13-.05.23-.08.32-.11.4-.14.8-.29,1.19-.45-.03.44-.06.89-.1,1.33-.11,1.43-.22,2.91-.13,4.25.18,2.62.99,4.57,2.42,5.82,1.45,3.24,4.21,6.03,7.89,7.97,5.73,9.17,18.75,19.69,48.34,19.69.73,0,1.46,0,2.21-.02,12.5-.22,23.17-1.87,31.77-4.71.03,0,.05-.02.07-.03.64-.21,1.26-.44,1.91-.69l.1-.04c1.23-.46,2.44-.97,3.64-1.52l.13-.06c1.1-.51,2.19-1.07,3.27-1.67l.13-.07c1-.56,1.96-1.16,2.87-1.77l.17-.11c.9-.61,1.75-1.25,2.54-1.88l.15-.12c.4-.33.78-.65,1.15-.98.38-.34.75-.69,1.12-1.04l.09-.09c.33-.33.66-.66.97-.99.01-.01.04-.05.06-.06.32-.36.65-.71.95-1.08l.05-.06c.29-.34.56-.69.81-1.01l.1-.13c.28-.37.55-.74.78-1.07.01-.02.03-.04.04-.06.25-.35.48-.71.73-1.1l.07-.11c.45-.72.88-1.46,1.27-2.23l.08-.15c.36-.72.7-1.46,1-2.19l.08-.2c.29-.72.55-1.46.78-2.19l.06-.19c.1-.33.19-.67.28-.99,0-.02.02-.09.03-.1.09-.31.16-.63.23-.94.01,0,.03,0,.05,0,.41.08.82.08,1.23.08h0c2.88,0,5.53-1.37,7.46-3.85,2.28-2.93,3.2-7.01,2.34-10.39-.29-1.13-.99-2.09-1.74-3.12-.28-.39-.7-.97-.96-1.4.05-.07.11-.14.16-.21.96-1.31,1.99-2.64,2.72-4.51.75-1.93.65-3.88-.31-5.5Z"/>
            <path class="cls-20" d="M141.46,40.61c-1.11-1.89-3.3-3.22-6.03-3.65.37-1.21.56-2.46.56-3.73,0-.27-.01-.56-.03-.86.12-.71.18-1.43.18-2.14,0-7.06-5.97-13.27-14.63-15.34-4.53-4.13-10.7-6.83-17.9-9.4,0,0-.01,0-.02,0-4.3-1.23-9.14-2.15-14.36-2.63-.01,0-.07,0-.08,0-1.75-.23-3.57-.31-5.42-.4h-.23c-.82-.05-1.65-.08-2.49-.11h-.42c-.92-.03-1.85-.05-2.8-.06h-.77c-.67,0-1.36,0-2.05.01h-.73c-.96.03-1.93.05-2.92.09-14.7.53-26.67,3.43-35.6,8.63-2.62.51-4.71,1.97-5.89,4.12-.95.8-1.85,1.65-2.7,2.53-.58-.03-1.24-.11-1.93-.19-.99-.12-2.01-.25-3.06-.25-.96,0-1.81.11-2.6.33-3.21.9-5.8,2.73-7.69,5.43-1.21,1.74-4.44,6.36-2.54,11.46.59,1.57,1.69,2.49,2.56,3.11-.58.76-1.39,1.68-2.01,2.29-2.86,2.79-3.27,5.47-2.72,7.67-1.43,1-3.27,2.37-3.91,4.87,0,.03-.01.05-.02.08-1.22,2.25-1.48,4.53-.73,6.5.63,1.67,2.19,2.67,4.18,2.67,1.47,0,2.97-.51,4.27-.98.13-.05.23-.08.32-.11.4-.14.8-.29,1.19-.45-.03.44-.06.89-.1,1.33-.11,1.43-.22,2.91-.13,4.25.18,2.62.99,4.57,2.42,5.82,1.45,3.24,4.21,6.03,7.89,7.97,5.73,9.17,18.75,19.69,48.34,19.69.73,0,1.46,0,2.21-.02,12.5-.22,23.17-1.87,31.77-4.71.03,0,.05-.02.07-.02.64-.21,1.26-.44,1.91-.69l.1-.04c1.23-.46,2.44-.97,3.64-1.53l.13-.06c1.1-.51,2.19-1.07,3.27-1.67l.13-.07c1-.56,1.96-1.16,2.87-1.77l.17-.11c.9-.61,1.76-1.25,2.54-1.88l.15-.12c.39-.33.78-.65,1.15-.98.38-.34.75-.69,1.11-1.04l.09-.09c.33-.33.66-.65.97-.99.01-.01.05-.05.06-.06.32-.36.65-.71.95-1.08l.05-.06c.29-.34.56-.69.81-1.01l.1-.13c.28-.37.54-.74.78-1.07.01-.02.03-.04.04-.06.25-.35.48-.71.73-1.1l.07-.1c.45-.72.88-1.46,1.26-2.23l.08-.15c.36-.72.7-1.46,1-2.19l.08-.2c.29-.72.55-1.46.78-2.19l.06-.19c.1-.33.19-.67.28-.99,0-.02.02-.09.03-.1.1-.31.16-.63.23-.94.01,0,.03,0,.05,0,.41.07.82.08,1.23.08h0c2.88,0,5.53-1.37,7.46-3.85,2.28-2.93,3.2-7.01,2.34-10.39-.29-1.13-.99-2.09-1.74-3.12-.28-.39-.71-.97-.96-1.4.05-.07.11-.14.16-.21.97-1.3,1.99-2.64,2.72-4.51.75-1.93.64-3.88-.31-5.5Z"/>
            <path class="cls-14" d="M141.2,40.33c-1.11-1.89-3.3-3.22-6.03-3.65.37-1.21.56-2.46.56-3.73,0-.27-.01-.56-.03-.86.12-.71.18-1.43.18-2.14,0-7.06-5.97-13.27-14.63-15.34-4.53-4.13-10.7-6.83-17.9-9.39,0,0-.01,0-.02,0-4.3-1.23-9.17-1.94-14.36-2.63-.01,0-.07,0-.08,0-1.75-.22-3.57-.31-5.42-.4h-.23c-.82-.05-1.65-.08-2.49-.11h-.42c-.91-.03-1.85-.05-2.79-.06h-.77c-.67,0-1.36,0-2.05.01h-.73c-.96.03-1.93.05-2.92.09-14.7.53-26.67,3.43-35.6,8.63-2.62.51-4.71,1.97-5.89,4.12-.95.8-1.85,1.64-2.7,2.53-.58-.03-1.24-.11-1.93-.19-.99-.12-2.01-.25-3.06-.25-.96,0-1.81.11-2.6.33-3.21.9-5.8,2.73-7.69,5.43-1.21,1.74-4.44,6.36-2.54,11.45.59,1.57,1.69,2.48,2.56,3.11-.58.76-1.39,1.67-2.01,2.29-2.86,2.79-3.27,5.47-2.72,7.68-1.43,1-3.27,2.37-3.91,4.87,0,.03-.01.05-.02.08-1.22,2.25-1.48,4.53-.73,6.5.63,1.67,2.19,2.67,4.18,2.67,1.47,0,2.97-.51,4.27-.98.12-.04.23-.08.32-.11.4-.14.8-.29,1.19-.45-.03.44-.06.89-.1,1.33-.11,1.43-.23,2.91-.13,4.25.18,2.62.99,4.57,2.42,5.82,1.45,3.25,4.21,6.03,7.89,7.97,5.73,9.17,18.75,19.69,48.34,19.69.73,0,1.47,0,2.21-.02,12.5-.22,23.17-1.87,31.77-4.71.03,0,.05-.02.07-.02.64-.21,1.26-.44,1.92-.69l.1-.04c1.23-.46,2.44-.97,3.64-1.53l.13-.06c1.11-.51,2.19-1.07,3.27-1.67l.13-.07c1-.56,1.96-1.16,2.87-1.77l.17-.11c.89-.61,1.76-1.25,2.54-1.88l.15-.12c.39-.32.78-.65,1.15-.98.38-.34.75-.69,1.11-1.04l.09-.09c.33-.33.66-.66.97-.99.01-.01.04-.05.06-.06.32-.37.65-.71.96-1.08l.05-.06c.29-.34.56-.68.81-1.01l.1-.13c.28-.37.55-.74.78-1.06.01-.02.03-.04.04-.06.24-.36.48-.71.73-1.1l.07-.11c.45-.72.88-1.46,1.27-2.23l.08-.15c.36-.72.7-1.46,1-2.19l.08-.2c.29-.72.55-1.46.78-2.2l.06-.19c.1-.33.19-.67.28-.99,0-.02.02-.09.03-.11.09-.31.16-.63.23-.94.01,0,.03,0,.05,0,.41.08.82.08,1.23.08h0c2.88,0,5.53-1.37,7.46-3.85,2.28-2.93,3.2-7.01,2.34-10.39-.29-1.13-.99-2.09-1.74-3.12-.28-.39-.7-.97-.96-1.4.05-.07.11-.14.16-.21.97-1.3,1.99-2.64,2.72-4.51.75-1.93.64-3.88-.31-5.5Z"/>
            <path class="cls-21" d="M140.95,40.04c-1.11-1.89-3.3-3.22-6.03-3.65.37-1.21.56-2.46.56-3.73,0-.27-.01-.56-.03-.86.12-.71.18-1.43.18-2.14,0-7.06-5.97-13.28-14.63-15.35-4.53-4.13-10.86-6.42-17.9-9.39,0,0-.01,0-.02,0-4.3-1.23-9.14-2.16-14.36-2.63-.01,0-.07,0-.08,0-1.75-.23-3.57-.31-5.42-.4h-.23c-.82-.05-1.65-.08-2.49-.11h-.42c-.92-.03-1.85-.05-2.79-.06h-.78c-.67,0-1.36,0-2.05.01h-.73c-.96.03-1.93.05-2.92.09-14.7.53-26.67,3.43-35.6,8.63-2.62.51-4.71,1.97-5.89,4.12-.95.8-1.85,1.65-2.7,2.53-.58-.03-1.24-.11-1.93-.19-.99-.12-2.01-.25-3.06-.25-.96,0-1.81.11-2.6.33-3.21.9-5.8,2.73-7.69,5.43-1.21,1.74-4.44,6.36-2.54,11.46.59,1.57,1.69,2.49,2.56,3.11-.58.76-1.39,1.68-2.01,2.29-2.86,2.8-3.27,5.47-2.73,7.68-1.43,1-3.22,2.38-3.91,4.87,0,.03-.01.05-.02.08-1.21,2.25-1.48,4.53-.73,6.5.63,1.67,2.19,2.67,4.18,2.67,1.47,0,2.98-.51,4.27-.98.12-.04.23-.08.31-.11.4-.14.8-.29,1.19-.45-.03.44-.06.89-.1,1.33-.11,1.43-.22,2.91-.13,4.25.18,2.62.99,4.57,2.42,5.81,1.45,3.24,4.21,6.03,7.89,7.97,5.73,9.17,18.75,19.69,48.34,19.69.73,0,1.46,0,2.21-.02,12.5-.22,23.19-1.82,31.77-4.71.03,0,.05-.02.07-.03.64-.22,1.26-.44,1.92-.69l.1-.04c1.23-.47,2.44-.97,3.64-1.53l.13-.06c1.11-.51,2.19-1.07,3.27-1.67l.13-.07c1-.56,1.96-1.16,2.87-1.77l.17-.11c.9-.61,1.76-1.25,2.54-1.88l.15-.12c.39-.33.78-.65,1.15-.98.38-.34.75-.69,1.11-1.04l.09-.09c.33-.33.65-.67.97-1,.01-.01.04-.04.06-.06.32-.37.65-.71.95-1.08l.05-.06c.29-.34.57-.68.81-1.01l.1-.13c.28-.37.54-.74.78-1.07.01-.02.03-.04.04-.06.25-.35.48-.71.73-1.1l.07-.1c.45-.72.88-1.46,1.27-2.23l.08-.15c.36-.72.7-1.46,1-2.19l.08-.2c.29-.72.55-1.46.78-2.19l.06-.19c.1-.34.19-.67.28-.99,0-.02.02-.09.03-.11.09-.31.16-.63.23-.94.01,0,.03,0,.05,0,.41.07.82.08,1.23.08h0c2.88,0,5.54-1.37,7.46-3.85,2.28-2.93,3.2-7.01,2.34-10.39-.29-1.13-.99-2.09-1.74-3.12-.28-.39-.71-.97-.96-1.4.05-.07.11-.14.16-.21.97-1.3,1.99-2.64,2.72-4.51.75-1.93.65-3.88-.31-5.5Z"/>
            <path class="cls-16" d="M140.69,39.76c-1.11-1.89-3.3-3.22-6.03-3.65.37-1.21.56-2.46.56-3.73,0-.27-.01-.56-.03-.86.12-.71.18-1.43.18-2.14,0-7.06-5.97-13.27-14.63-15.35-4.53-4.13-10.7-6.83-17.9-9.39,0,0-.01,0-.02,0-4.3-1.23-9.16-1.97-14.36-2.63-.01,0-.07,0-.08,0-1.75-.23-3.57-.31-5.42-.4h-.23c-.82-.05-1.65-.08-2.49-.11h-.42c-.92-.03-1.85-.05-2.8-.06h-.77c-.68,0-1.36,0-2.05.01h-.73c-.96.03-1.93.05-2.92.09-14.7.53-26.67,3.43-35.61,8.63-2.62.51-4.71,1.97-5.89,4.12-.95.8-1.85,1.65-2.7,2.53-.58-.03-1.24-.11-1.93-.19-.99-.12-2.01-.25-3.06-.25-.96,0-1.81.11-2.6.33-3.21.9-5.8,2.73-7.69,5.43-1.22,1.74-4.44,6.36-2.54,11.46.59,1.57,1.69,2.49,2.56,3.11-.58.76-1.39,1.68-2.01,2.29-2.86,2.8-3.27,5.47-2.73,7.68-1.43,1-3.3,2.37-3.91,4.87,0,.03-.01.05-.02.08-1.22,2.25-1.48,4.53-.73,6.5.63,1.67,2.19,2.67,4.19,2.67,1.47,0,2.97-.51,4.27-.98.12-.04.23-.08.31-.11.4-.14.8-.29,1.19-.45-.03.44-.06.89-.1,1.33-.11,1.43-.22,2.91-.13,4.25.18,2.62.99,4.57,2.42,5.82,1.45,3.24,4.21,6.03,7.89,7.97,5.73,9.16,18.75,19.69,48.34,19.69.73,0,1.46,0,2.21-.02,12.5-.22,23.24-1.68,31.77-4.71.03,0,.05-.02.07-.03.63-.22,1.26-.44,1.91-.69l.1-.04c1.23-.47,2.44-.97,3.64-1.53l.13-.06c1.1-.52,2.19-1.07,3.27-1.67l.13-.07c1-.56,1.96-1.16,2.87-1.77l.17-.11c.9-.61,1.76-1.25,2.54-1.88l.15-.12c.39-.32.78-.65,1.15-.98.38-.34.75-.69,1.12-1.04l.09-.09c.33-.33.67-.65.97-.99.01-.01.04-.05.06-.06.32-.36.65-.71.96-1.08l.05-.06c.29-.34.56-.68.81-1.01l.1-.13c.28-.37.54-.74.78-1.07.01-.02.03-.04.04-.06.25-.35.48-.71.73-1.1l.07-.1c.45-.72.88-1.46,1.27-2.23l.08-.15c.36-.72.7-1.46,1-2.19l.08-.2c.29-.72.55-1.46.78-2.2l.06-.19c.1-.33.2-.67.28-.99,0-.02.02-.09.03-.11.11-.31.16-.63.23-.94.02,0,.03,0,.05,0,.41.07.82.08,1.23.08h0c2.88,0,5.53-1.37,7.46-3.85,2.28-2.93,3.2-7.01,2.34-10.39-.29-1.13-.99-2.09-1.74-3.12-.29-.39-.71-.97-.96-1.4.05-.07.11-.14.16-.21.98-1.3,1.99-2.64,2.72-4.51.75-1.93.65-3.88-.31-5.5Z"/>
            <path class="cls-6" d="M140.44,39.47c-1.11-1.89-3.3-3.22-6.03-3.65.37-1.21.56-2.46.56-3.73,0-.27-.01-.56-.03-.86.12-.71.18-1.43.18-2.14,0-7.06-5.97-13.27-14.63-15.35-4.53-4.13-10.64-7-17.9-9.39,0,0-.01,0-.02,0-4.3-1.23-9.14-2.16-14.36-2.63-.01,0-.07,0-.08,0-1.75-.23-3.57-.3-5.42-.4h-.23c-.82-.05-1.65-.08-2.49-.11h-.42c-.92-.04-1.85-.05-2.79-.06h-.78c-.67,0-1.36,0-2.05.01h-.73c-.96.03-1.93.05-2.92.09-14.7.53-26.67,3.43-35.6,8.63-2.62.51-4.71,1.97-5.89,4.12-.95.8-1.85,1.65-2.7,2.53-.58-.03-1.24-.11-1.93-.19-.99-.12-2.01-.25-3.06-.25-.96,0-1.81.11-2.6.33-3.21.9-5.8,2.73-7.69,5.43-1.21,1.74-4.44,6.36-2.54,11.46.59,1.57,1.69,2.49,2.56,3.11-.58.76-1.39,1.68-2.01,2.29-2.86,2.8-3.27,5.47-2.73,7.68-1.42,1-3.31,2.36-3.91,4.87,0,.03-.01.05-.02.08-1.22,2.25-1.48,4.53-.73,6.5.63,1.67,2.19,2.67,4.18,2.67,1.47,0,2.98-.5,4.27-.98.12-.05.23-.09.31-.11.4-.14.8-.29,1.19-.45-.03.44-.06.89-.1,1.33-.11,1.43-.22,2.91-.13,4.25.18,2.62.99,4.57,2.42,5.81,1.45,3.24,4.21,6.03,7.89,7.97,5.73,9.17,18.75,19.69,48.34,19.69.73,0,1.46,0,2.21-.02,12.5-.22,23.24-1.68,31.77-4.71.03,0,.05-.02.07-.03.63-.23,1.26-.44,1.91-.69l.1-.04c1.23-.46,2.44-.97,3.64-1.53l.13-.06c1.1-.51,2.19-1.07,3.27-1.67l.13-.07c1-.56,1.96-1.16,2.87-1.77l.17-.11c.89-.61,1.76-1.25,2.54-1.88l.15-.12c.39-.33.78-.65,1.15-.98.38-.34.75-.69,1.12-1.04l.09-.09c.33-.33.66-.65.97-.99.01-.01.04-.04.06-.06.32-.37.65-.71.95-1.07l.05-.06c.29-.34.57-.68.81-1.01l.1-.13c.28-.37.54-.74.78-1.07.01-.02.03-.04.04-.06.25-.35.48-.71.73-1.1l.07-.1c.45-.72.88-1.47,1.27-2.23l.08-.15c.36-.72.7-1.46,1-2.19l.08-.2c.29-.72.55-1.46.78-2.19l.06-.19c.1-.33.2-.67.28-.99,0-.02.02-.09.03-.1.09-.31.16-.63.23-.94.01,0,.03,0,.05,0,.41.05.82.08,1.23.08h0c2.88,0,5.53-1.37,7.46-3.85,2.28-2.93,3.2-7.01,2.34-10.39-.29-1.13-.99-2.09-1.74-3.12-.28-.39-.71-.97-.96-1.4.05-.07.11-.14.16-.21.97-1.3,1.99-2.64,2.72-4.51.75-1.93.64-3.88-.31-5.5Z"/>
            <path class="cls-5" d="M140.18,39.19c-1.11-1.89-3.3-3.22-6.03-3.65.37-1.21.56-2.46.56-3.73,0-.27-.01-.56-.03-.86.12-.71.18-1.43.18-2.14,0-7.06-5.97-13.28-14.63-15.35-4.53-4.13-10.64-7-17.9-9.39,0,0-.01,0-.02,0-4.3-1.23-9.14-2.17-14.36-2.63-.01,0-.07,0-.08,0-1.75-.23-3.57-.3-5.42-.4h-.23c-.82-.05-1.65-.08-2.49-.11h-.42c-.92-.04-1.85-.05-2.79-.06h-.78c-.67,0-1.36,0-2.05.01h-.73c-.96.03-1.93.05-2.92.09-14.7.53-26.67,3.43-35.6,8.63-2.62.51-4.71,1.97-5.89,4.12-.95.8-1.85,1.65-2.7,2.53-.58-.03-1.24-.11-1.93-.19-.99-.12-2.01-.25-3.06-.25-.96,0-1.81.11-2.6.33-3.21.9-5.8,2.73-7.69,5.42-1.21,1.74-4.44,6.36-2.54,11.46.59,1.57,1.69,2.49,2.56,3.11-.58.76-1.39,1.68-2.01,2.29-2.86,2.8-3.27,5.47-2.73,7.68-1.43,1-3.32,2.36-3.91,4.87,0,.03-.01.05-.02.08-1.21,2.25-1.48,4.53-.73,6.5.63,1.67,2.19,2.67,4.18,2.67,1.47,0,2.98-.5,4.27-.98.12-.05.23-.09.31-.11.4-.14.8-.29,1.19-.45-.03.44-.06.89-.1,1.33-.11,1.43-.22,2.91-.13,4.25.18,2.62.99,4.57,2.42,5.81,1.45,3.24,4.21,6.03,7.89,7.97,5.73,9.17,18.75,19.69,48.34,19.69.73,0,1.46,0,2.21-.02,12.5-.22,23.24-1.68,31.77-4.71.03,0,.05-.02.07-.03.63-.23,1.26-.44,1.92-.69l.1-.04c1.23-.47,2.44-.97,3.64-1.53l.13-.06c1.11-.51,2.19-1.07,3.27-1.67l.13-.07c1-.56,1.96-1.16,2.87-1.77l.17-.11c.9-.61,1.76-1.25,2.54-1.88l.15-.12c.39-.33.78-.65,1.15-.98.38-.34.75-.69,1.11-1.04l.09-.09c.33-.33.67-.65.97-1,.01-.01.04-.05.06-.06.31-.38.65-.71.95-1.07l.05-.06c.29-.34.57-.69.81-1.01l.1-.13c.28-.37.54-.74.78-1.07.01-.02.03-.04.04-.06.24-.36.48-.71.73-1.1l.07-.1c.45-.72.88-1.46,1.27-2.23l.08-.15c.36-.72.7-1.46,1-2.19l.08-.2c.29-.72.55-1.46.78-2.19l.06-.19c.1-.33.2-.67.28-.99,0-.02.02-.09.03-.1.1-.31.16-.63.23-.94.01,0,.03,0,.04,0,.41.05.82.08,1.23.08h0c2.88,0,5.54-1.37,7.46-3.85,2.28-2.93,3.2-7.01,2.34-10.39-.29-1.13-.99-2.09-1.74-3.12-.28-.39-.7-.97-.96-1.4.05-.07.11-.14.16-.21.98-1.3,1.99-2.64,2.72-4.51.75-1.93.65-3.88-.31-5.5Z"/>
            <path class="cls-7" d="M139.93,38.9c-1.11-1.89-3.3-3.22-6.03-3.65.37-1.21.56-2.46.56-3.73,0-.27-.01-.56-.03-.86.12-.71.18-1.43.18-2.14,0-7.06-5.97-13.28-14.63-15.35-4.53-4.13-10.7-6.83-17.9-9.39,0,0-.01,0-.02,0-4.3-1.23-9.16-1.98-14.36-2.63-.01,0-.07,0-.08,0-1.74-.3-3.57-.3-5.42-.4h-.23c-.82-.05-1.65-.08-2.49-.11h-.42c-.92-.04-1.85-.05-2.79-.06h-.78c-.67,0-1.36,0-2.05.01h-.73c-.96.03-1.92.05-2.92.09-14.7.53-26.67,3.43-35.6,8.63-2.62.51-4.71,1.98-5.89,4.12-.95.8-1.85,1.65-2.7,2.53-.58-.03-1.24-.11-1.93-.19-.99-.12-2.01-.25-3.06-.25-.96,0-1.81.11-2.6.33-3.21.9-5.8,2.73-7.69,5.43-1.21,1.74-4.44,6.36-2.54,11.46.59,1.57,1.69,2.49,2.56,3.11-.58.76-1.39,1.68-2.01,2.29-2.86,2.8-3.27,5.47-2.73,7.68-1.43,1-3.3,2.36-3.91,4.87,0,.03-.01.05-.02.08-1.22,2.25-1.48,4.53-.73,6.5.63,1.67,2.19,2.67,4.18,2.67,1.47,0,2.98-.51,4.27-.98.12-.04.23-.09.31-.11.4-.14.8-.29,1.19-.45-.03.44-.06.89-.1,1.33-.11,1.43-.22,2.91-.13,4.25.18,2.62.99,4.57,2.42,5.81,1.45,3.25,4.21,6.03,7.89,7.97,5.73,9.17,18.75,19.69,48.34,19.69.73,0,1.46,0,2.21-.02,12.5-.22,23.24-1.68,31.77-4.71.03,0,.05-.02.07-.03.64-.21,1.26-.44,1.91-.69l.1-.04c1.23-.47,2.44-.97,3.64-1.53l.13-.06c1.11-.51,2.19-1.07,3.27-1.67l.13-.07c1-.56,1.96-1.16,2.87-1.77l.17-.11c.9-.61,1.76-1.25,2.54-1.88l.15-.12c.39-.33.78-.65,1.15-.98.38-.34.75-.69,1.11-1.04l.09-.09c.33-.33.67-.65.97-.99.01-.01.04-.05.06-.06.32-.37.65-.72.96-1.08l.05-.06c.29-.34.57-.68.81-1.01l.1-.13c.28-.37.55-.74.78-1.07.01-.02.03-.04.04-.06.24-.36.48-.71.73-1.1l.07-.1c.45-.72.88-1.46,1.26-2.23l.08-.15c.36-.72.7-1.46,1-2.19l.08-.2c.29-.72.55-1.46.78-2.19l.06-.19c.1-.33.2-.67.28-.99,0-.02.02-.09.03-.1.11-.31.16-.63.23-.94.01,0,.03,0,.05,0,.41.06.82.08,1.23.08h0c2.88,0,5.53-1.37,7.46-3.85,2.28-2.93,3.2-7.01,2.34-10.39-.29-1.13-.99-2.09-1.74-3.12-.28-.39-.7-.97-.96-1.4.05-.07.11-.14.16-.21.98-1.3,1.99-2.64,2.72-4.51.75-1.93.65-3.88-.31-5.5Z"/>
            <path class="cls-9" d="M139.68,38.62c-1.11-1.89-3.3-3.22-6.03-3.65.37-1.21.56-2.46.56-3.73,0-.27-.01-.56-.03-.86.12-.71.18-1.43.18-2.14,0-7.06-5.97-13.28-14.63-15.35-4.53-4.13-10.7-6.83-17.9-9.39,0,0-.01,0-.02,0-4.3-1.23-9.16-1.98-14.36-2.63-.01,0-.07,0-.09,0-1.74-.3-3.57-.3-5.42-.4h-.23c-.82-.05-1.65-.08-2.49-.11h-.42c-.92-.03-1.85-.05-2.79-.06h-.78c-.67,0-1.36,0-2.05.01h-.73c-.96.03-1.92.05-2.92.09-14.7.53-26.67,3.43-35.6,8.63-2.62.51-4.71,1.97-5.89,4.12-.95.8-1.85,1.65-2.7,2.53-.58-.03-1.24-.11-1.93-.19-.99-.12-2.01-.25-3.06-.25-.96,0-1.81.11-2.6.33-3.21.9-5.8,2.73-7.69,5.43-1.22,1.74-4.44,6.36-2.54,11.46.59,1.57,1.69,2.48,2.56,3.1-.58.76-1.39,1.68-2.01,2.29-2.86,2.8-3.27,5.47-2.73,7.68-1.42,1-3.27,2.37-3.91,4.87,0,.03-.01.05-.02.08-1.21,2.25-1.48,4.53-.73,6.5.63,1.67,2.19,2.67,4.18,2.67,1.47,0,2.98-.51,4.27-.98.12-.04.23-.08.31-.11.4-.14.8-.29,1.19-.45-.03.44-.06.89-.1,1.33-.11,1.43-.22,2.91-.13,4.25.18,2.62.99,4.57,2.42,5.81,1.45,3.24,4.21,6.03,7.89,7.97,5.73,9.17,18.75,19.69,48.34,19.69.73,0,1.46,0,2.21-.02,12.5-.19,23.31-1.49,31.77-4.71.03,0,.04-.02.07-.03.64-.21,1.26-.44,1.92-.69l.1-.04c1.23-.47,2.44-.97,3.64-1.53l.13-.06c1.11-.52,2.19-1.07,3.27-1.67l.13-.07c1-.56,1.97-1.16,2.87-1.77l.17-.12c.9-.61,1.75-1.25,2.54-1.88l.15-.12c.39-.33.78-.65,1.15-.98.38-.34.75-.69,1.12-1.04l.09-.09c.33-.33.66-.65.97-.99.01-.01.04-.05.06-.06.32-.37.65-.72.95-1.08l.05-.06c.29-.34.57-.68.81-1.01l.1-.13c.28-.37.55-.74.78-1.07.01-.02.03-.04.04-.06.24-.36.48-.71.73-1.1l.07-.1c.45-.72.88-1.46,1.27-2.23l.08-.15c.36-.72.7-1.46,1-2.19l.08-.2c.29-.72.55-1.46.78-2.2l.06-.19c.1-.33.19-.67.28-.99,0-.02.02-.09.03-.1.1-.31.16-.63.23-.94.02,0,.03,0,.05,0,.41.07.82.08,1.23.08h0c2.88,0,5.54-1.37,7.46-3.85,2.28-2.93,3.2-7.01,2.34-10.39-.29-1.13-.99-2.09-1.74-3.12-.28-.39-.7-.97-.96-1.4.05-.07.11-.14.16-.21.98-1.3,1.99-2.64,2.72-4.51.75-1.93.65-3.88-.3-5.5Z"/>
            <path class="cls-10" d="M139.42,38.33c-1.11-1.89-3.3-3.22-6.03-3.65.37-1.21.56-2.46.56-3.73,0-.27-.01-.56-.03-.86.12-.71.18-1.43.18-2.14,0-7.06-5.97-13.28-14.63-15.35-4.53-4.13-10.55-7.29-17.9-9.39,0,0-.01,0-.02,0-4.3-1.23-9.15-2.12-14.36-2.63-.01,0-.07,0-.08,0-1.75-.17-3.57-.31-5.42-.4h-.23c-.82-.05-1.65-.08-2.49-.11h-.42c-.92-.04-1.85-.05-2.79-.06h-.78c-.67,0-1.36,0-2.05.01h-.73c-.96.03-1.92.05-2.92.09-14.7.53-26.67,3.43-35.61,8.63-2.62.51-4.71,1.97-5.89,4.12-.95.8-1.85,1.65-2.7,2.53-.58-.03-1.24-.11-1.93-.19-.99-.12-2.01-.25-3.06-.25-.96,0-1.81.11-2.6.33-3.21.9-5.8,2.73-7.69,5.43-1.22,1.74-4.44,6.36-2.54,11.46.59,1.57,1.69,2.49,2.56,3.11-.58.76-1.39,1.68-2.01,2.29-2.86,2.8-3.27,5.47-2.73,7.68-1.43,1-3.28,2.37-3.91,4.87,0,.03-.01.05-.02.08-1.21,2.25-1.48,4.53-.73,6.5.63,1.67,2.19,2.67,4.18,2.67,1.47,0,2.98-.51,4.27-.98.12-.05.23-.08.31-.11.4-.14.8-.29,1.19-.45-.03.44-.06.89-.1,1.33-.11,1.43-.22,2.91-.13,4.25.18,2.62.99,4.57,2.42,5.81,1.45,3.24,4.21,6.03,7.89,7.97,5.73,9.17,18.75,19.69,48.34,19.69.73,0,1.46,0,2.21-.02,12.5-.22,23.2-1.8,31.77-4.71.03-.01.05-.02.07-.03.64-.22,1.26-.44,1.91-.69l.1-.04c1.23-.47,2.44-.97,3.64-1.53l.13-.06c1.11-.51,2.19-1.07,3.27-1.67l.13-.07c1-.56,1.96-1.16,2.87-1.77l.17-.12c.9-.61,1.76-1.25,2.54-1.88l.15-.12c.39-.33.78-.65,1.15-.98.38-.34.75-.69,1.12-1.04l.09-.09c.33-.33.66-.66.97-.99.01-.01.04-.04.06-.06.33-.36.65-.72.96-1.07l.05-.06c.29-.34.57-.68.81-1.01l.1-.13c.28-.37.55-.74.78-1.07.01-.02.03-.04.04-.06.25-.35.48-.71.73-1.1l.07-.1c.45-.72.88-1.46,1.27-2.23l.08-.15c.36-.72.7-1.46,1-2.19l.08-.2c.29-.72.55-1.46.78-2.2l.06-.19c.1-.33.2-.67.28-.99,0-.02.02-.09.03-.1.08-.32.16-.63.23-.94.01,0,.03,0,.05,0,.41.05.82.08,1.23.08h0c2.88,0,5.53-1.37,7.46-3.85,2.28-2.93,3.2-7.01,2.34-10.39-.29-1.13-.99-2.09-1.74-3.12-.28-.39-.7-.97-.96-1.4.05-.07.11-.14.16-.21.98-1.3,1.99-2.64,2.72-4.51.75-1.93.65-3.88-.31-5.5Z"/>
          </g>
          <path class="cls-8" d="M139.42,38.33c-1.11-1.89-3.3-3.22-6.03-3.65.37-1.21.56-2.46.56-3.73,0-.27-.01-.56-.03-.86.12-.71.18-1.43.18-2.14,0-7.06-5.97-13.28-14.63-15.35-4.53-4.13-10.55-7.29-17.9-9.39,0,0-.01,0-.02,0-4.3-1.23-9.15-2.12-14.36-2.63-.01,0-.07,0-.08,0-1.75-.17-3.57-.31-5.42-.4h-.23c-.82-.05-1.65-.08-2.49-.11h-.42c-.92-.04-1.85-.05-2.79-.06h-.78c-.67,0-1.36,0-2.05.01h-.73c-.96.03-1.92.05-2.92.09-14.7.53-26.67,3.43-35.61,8.63-2.62.51-4.71,1.97-5.89,4.12-.95.8-1.85,1.65-2.7,2.53-.58-.03-1.24-.11-1.93-.19-.99-.12-2.01-.25-3.06-.25-.96,0-1.81.11-2.6.33-3.21.9-5.8,2.73-7.69,5.43-1.22,1.74-4.44,6.36-2.54,11.46.59,1.57,1.69,2.49,2.56,3.11-.58.76-1.39,1.68-2.01,2.29-2.86,2.8-3.27,5.47-2.73,7.68-1.43,1-3.28,2.37-3.91,4.87,0,.03-.01.05-.02.08-1.21,2.25-1.48,4.53-.73,6.5.63,1.67,2.19,2.67,4.18,2.67,1.47,0,2.98-.51,4.27-.98.12-.05.23-.08.31-.11.4-.14.8-.29,1.19-.45-.03.44-.06.89-.1,1.33-.11,1.43-.22,2.91-.13,4.25.18,2.62.99,4.57,2.42,5.81,1.45,3.24,4.21,6.03,7.89,7.97,5.73,9.17,18.75,19.69,48.34,19.69.73,0,1.46,0,2.21-.02,12.5-.22,23.2-1.8,31.77-4.71.03-.01.05-.02.07-.03.64-.22,1.26-.44,1.91-.69l.1-.04c1.23-.47,2.44-.97,3.64-1.53l.13-.06c1.11-.51,2.19-1.07,3.27-1.67l.13-.07c1-.56,1.96-1.16,2.87-1.77l.17-.12c.9-.61,1.76-1.25,2.54-1.88l.15-.12c.39-.33.78-.65,1.15-.98.38-.34.75-.69,1.12-1.04l.09-.09c.33-.33.66-.66.97-.99.01-.01.04-.04.06-.06.33-.36.65-.72.96-1.07l.05-.06c.29-.34.57-.68.81-1.01l.1-.13c.28-.37.55-.74.78-1.07.01-.02.03-.04.04-.06.25-.35.48-.71.73-1.1l.07-.1c.45-.72.88-1.46,1.27-2.23l.08-.15c.36-.72.7-1.46,1-2.19l.08-.2c.29-.72.55-1.46.78-2.2l.06-.19c.1-.33.2-.67.28-.99,0-.02.02-.09.03-.1.08-.32.16-.63.23-.94.01,0,.03,0,.05,0,.41.05.82.08,1.23.08h0c2.88,0,5.53-1.37,7.46-3.85,2.28-2.93,3.2-7.01,2.34-10.39-.29-1.13-.99-2.09-1.74-3.12-.28-.39-.7-.97-.96-1.4.05-.07.11-.14.16-.21.98-1.3,1.99-2.64,2.72-4.51.75-1.93.65-3.88-.31-5.5Z"/>
          <g>
            <path class="cls-17" d="M45.2,46.27c-.07,1.02-.75,1.8-1.44,2.49-.18-.9.82-1.89,1.3-2.55.43-.59.81-1.21,1.05-1.91.07-.22-.25,0-.29.11-.45,1.08-1.26,1.96-1.91,2.92-.38.56-.77,1.26-.49,1.93.04.1.19,0,.23-.05.87-.89,1.8-1.89,1.89-3.19.01-.19-.33.11-.34.24Z"/>
            <g>
              <path class="cls-2" d="M126.23,58.42c-.71-13.42-25.41-25.45-55.12-23.87-29.72,1.58-53.23,13.73-52.52,27.16.71,13.42,11.21,32.87,52.36,32.17,48.47-.83,56-22.03,55.28-35.45Z"/>
              <path class="cls-4" d="M68.79,94.34h0c-45.39,0-50.24-24.96-50.64-32.61-.35-6.68,5-13.23,15.09-18.44,9.97-5.16,23.41-8.42,37.85-9.19,1.75-.09,3.53-.14,5.28-.14,26.57,0,49.61,11.19,50.32,24.44.3,5.59-.75,13.75-7.43,20.92-8.91,9.56-25.15,14.6-48.29,15-.73.01-1.45.02-2.17.02ZM76.36,34.85c-1.73,0-3.49.05-5.23.14-14.31.76-27.62,3.99-37.49,9.09-9.75,5.04-14.94,11.3-14.61,17.6.4,7.45,5.15,31.76,49.75,31.76h0c.71,0,1.42,0,2.15-.02,22.88-.4,38.92-5.35,47.65-14.72,6.47-6.94,7.48-14.85,7.19-20.27-.68-12.79-23.31-23.59-49.42-23.59Z"/>
            </g>
            <path class="cls-3" d="M126.23,58.42c-.71-13.42-25.41-25.45-55.12-23.87-29.72,1.58-53.23,13.73-52.52,27.16.32,6.06,2.65,13.33,8.87,19.44,1.45.4,2.96.63,4.56.67,2.97.06,5.91-.32,8.81-.97,2.49-.56,5.07-1.59,7.66-1.51,4.62.14,7.52,3.83,11.44,5.77,5.34,2.64,9.49-.08,14.35-2.25,1.72-.76,3.71-1.39,5.62-1.18,2.56.28,4.92,1.44,7.47,1.84,4.66.74,8.98-1.42,13.58-.97,2.5.24,4,1.75,2.66,4.25-.5.93-1.1,1.77-1.77,2.53,21.04-7.13,24.92-21.09,24.4-30.9Z"/>
            <path class="cls-1" d="M44.1,87.74c-8.86-4.31-16.64-11.47-20.02-20.93-1.83-5.12-2.19-10.35-1.24-15.37-2.9,3.22-4.44,6.69-4.25,10.26.7,13.15,10.8,32.06,49.86,32.17-8.47-.61-16.73-2.44-24.36-6.14Z"/>
            <g>
              <path class="cls-18" d="M22.53,62.55c3.17,3.68,7.76,5.6,12.24,7.22,9.28,3.35,19.11,4.98,28.94,5.54,12.44.71,25.34-.56,37.51-3.12,8.07-1.7,23.5-9.32,24.44-16.77-3.89-12.16-27.07-22.34-54.55-20.88-25.21,1.33-45.94,10.29-51.22,21.17-.02,2.38.87,4.77,2.65,6.84Z"/>
              <path class="cls-4" d="M70.67,75.96h0c-2.36,0-4.71-.07-6.98-.2-10.91-.62-20.42-2.45-29.07-5.57-4.28-1.55-9.13-3.52-12.43-7.35-1.83-2.12-2.78-4.59-2.75-7.13,0-.07.02-.13.04-.19,5.48-11.29,26.7-20.1,51.6-21.42,1.75-.09,3.53-.14,5.28-.14,24.45,0,45.83,9.17,49.72,21.33.02.06.03.13.02.19-.55,4.39-5.61,8.34-9.76,10.87-4.72,2.89-10.62,5.35-15.04,6.28-10.48,2.21-20.79,3.33-30.64,3.33ZM20.33,55.82c0,2.29.88,4.51,2.54,6.44,3.16,3.67,7.88,5.59,12.05,7.1,8.56,3.09,17.99,4.9,28.81,5.52,2.26.13,4.59.2,6.93.2,9.79,0,20.04-1.11,30.46-3.31,7.94-1.67,23.05-9.11,24.08-16.3-3.8-11.56-25.22-20.61-48.84-20.61-1.73,0-3.49.05-5.23.14-24.52,1.3-45.39,9.86-50.8,20.83Z"/>
            </g>
            <path class="cls-4" d="M76.4,53.33c-3.49-16.21-22.43-19.08-36.56-16.49-7.59,1.11-15.36,3.14-22.55,5.66-3.44,1.2-7.14,2.79-10.14,4.89-1.29.91-2.7,1.81-3.1,3.41-.02.09-.03.2,0,.28-.82,1.31-1.43,3.04-.86,4.54.61,1.61,4.05.14,5.03-.19,1.76-.59,3.37-1.49,4.78-2.69.96,3.09-.11,7.46.1,10.44.59,8.47,8.62,2.81,12.54.76,7.78-4.07,7.89,13.65,15.56,12.64,3.91-.52,8.41-4.62,11.82-1.15,2.2,2.24,3.31,5.67,6.48,6.91,5.58,2.18,9.07-1.27,11.39-6,3.08-6.31,7.04-15.89,5.51-23.01Z"/>
            <path class="cls-24" d="M5.72,55.1c-.75,0-1.49.17-1.65-.78-.18-1.11,0-2.14.57-3.05.37,0,.5-.15,1.11-.51,2.48-1.43,4.79-2.11,6.57.48.18.26.33.56.46.85-2.15,1.25-4.5,2.98-7.06,2.99Z"/>
            <path class="cls-24" d="M73.98,65.38c-1.34,4.43-2.87,9.41-5.32,13.36-4.87,7.89-11.14.01-13.95-3.75-1.26-1.69-2.5-2.34-4.02-2.35.14-.16.27-.33.41-.48,1.55-1.78,3.09-3.59,4.61-5.4,1.8-2.14,3.73-4.19,5.67-6.2.79-.82,1.56-1.48,2.02-2.52.13-.31-.23-.12-.32.02-.97,1.46-2.68,2.69-3.93,3.92-1.4,1.38-2.74,2.82-4.05,4.29-1.84,2.05-4.09,4.15-5.64,6.48-.53.09-1.1.23-1.71.41-1.59.47-3.06,1.38-4.67,1.86-4,1.21-6.19-2.67-7.7-5.52-1.28-2.41-2.32-5.01-4.44-6.8-.02-.02-.04-.03-.06-.04,2.06-1.7,4.64-3.02,6.81-4.53,2.33-1.61,4.61-3.28,6.91-4.94.18-.13.37-.68,0-.44-2.57,1.72-5.13,3.44-7.73,5.11-1.51.97-3.06,1.9-4.62,2.8-.09.05-2.06,1.48-1.89,1.54-.06-.02-.12-.01-.18.02-2.11-.96-4.74.63-6.47,1.66-2.25,1.34-5.05,3.84-7.93,1.77-1.76-1.26-1.48-4.49-1.47-6.39,0-3.6.78-6.99-1.37-10.14-1.05-1.53-2.97-1.86-4.59-1.25,2.3-1.27,4.57-2.45,7-3.46,6.68-2.79,14.08-4.75,21.29-6.32,0,.07.04.11.15.09,9.2-1.91,17.35-1.44,26.04,2.08,10.96,4.44,14.55,13.91,11.16,25.11Z"/>
            <path class="cls-4" d="M136.96,42.75c1.23-3.14-1.59-4.8-4.24-5.16-.86-.12-4.16.35-7.42,1.23-3.42-.24-6.56-.83-10.12-.6-4.86.32-10.15,1.4-14.65,3.28-8,3.34-15.1,9.73-18.72,17.68-1.67,3.68-.03,7.76,1.65,11.06,1.83,3.59,4.44,4.35,8.19,3,1.15-.41,6.93-2.23,7.62-.96.88,1.65.35,3.79,1.78,5.29,2.8,2.93,6.89,2.8,10.63,2.2,3.13-.5,5.75-1.99,7.83-4.34,3.28-3.71,2.26-12.12,9.4-11.16,5.51.74,8.92-5.9,7.76-10.48-.42-1.63-3.99-4.58-2.67-6.38,1.15-1.58,2.25-2.84,2.97-4.67Z"/>
            <path class="cls-24" d="M132.3,50.76c.17.36,1.67,1.6,1.98,1.91,4.14,4.09-.67,10.95-6.17,10.18-3.22-.45-5.08,1.06-6.11,4.08-1.71,5-2.75,9.39-8.47,11.05-3.48,1.01-7.29.89-10.43-.99-2.16-1.29-1.22-5.83-2.86-6.6-1.84-.86-3.85.27-5.66.87-3.96,1.3-7.53,1.99-9.82-2.27-2.62-4.87-2.94-8.75.29-13.76,5.13-7.97,13.38-12.42,22.4-14.44,3.18-.71,6.37-.96,9.61-1.22,1.8-.14,3.47.07,5.16.25-2.81,1.08-4.86,2.47-4.02,4.05.18.34.88-.42.75-.72-.52-1.11,3.43-2.39,6.25-3.13.08,0,.16,0,.24,0,.09,0,.2-.06.31-.15.96-.25,1.72-.41,2.01-.47,1.77-.36,3.37-.31,5.1,0,4.54.83,1.3,6.06-.35,8.33-.8,1.1-.74,1.89-.19,3.04Z"/>
            <path class="cls-4" d="M44.39,17.45c-1.82.33-2.73-3.4-3.79-4.29-2.99-2.52-9.17-2.37-10.6,2-1.87,5.66-7.76,1.87-11.71,2.98-2.49.7-4.55,2.12-6.05,4.26-1.79,2.57-3.37,5.56-2.2,8.71.6,1.61,2.39,1.98,3.3,3.24.71.97-2.74,4.62-3.46,5.33-2.36,2.31-2.73,4.52-.72,7.18,1.85,2.44,4.29,5.14,7.64,5.22,7.23.17,14.54-2.82,19.92-7.57,3.03-2.67,5.73-6.23,7.73-9.73,1.46-2.56,2.15-5.13,3.2-7.75,1.83-2.11,3.38-4.4,3.6-5.08.68-2.1.46-4.8-2.32-5.02-1.63-.13-2.96.24-4.55.53Z"/>
            <path class="cls-24" d="M43.62,18.45c2.29-.41,7.35-.94,6.33,2.74-.39,1.41-.93,2.61-1.84,3.8-.14.19-.54.7-1.07,1.33-.1.05-.19.1-.22.17-.03.06-.06.12-.08.18-1.57,1.83-3.95,4.31-4.59,3.52-.17-.21-1,.04-.81.3.87,1.2,2.65.17,4.46-1.53-.47,1.32-.92,2.64-1.68,3.93-1.36,2.32-2.69,4.61-4.37,6.72-4.76,5.99-11.05,10.53-18.84,11.47-4.9.59-7.67-1.04-10.35-4.75-2.34-3.24-.55-5.66,1.85-8.13,1.1-1.13,2.67-2.22,2.69-3.91.02-1.5-3.71-2.44-3.89-4.51-.27-3.01,1.02-5.9,3.03-8.12,3.3-3.66,6.95-2.85,11.29-2.32,2.62.32,4.42-.53,5.24-3.08,1.41-4.38,8.25-5.49,9.81-.92.12.34.5,1.9.71,2.16.66.82,1.23,1.15,2.34.95Z"/>
            <g>
              <g>
                <path class="cls-19" d="M91.1,52.31c-9.9,0-17.93,5.87-17.93,13.1s8.03,13.1,17.93,13.1,17.93-5.87,17.93-13.1-8.02-13.1-17.93-13.1ZM91.1,74.79c-7.87,0-14.25-4.66-14.25-10.41s6.38-10.41,14.25-10.41,14.25,4.66,14.25,10.41-6.38,10.41-14.25,10.41Z"/>
                <path class="cls-4" d="M91.1,78.96c-10.13,0-18.38-6.08-18.38-13.55s8.24-13.55,18.38-13.55,18.37,6.08,18.37,13.55-8.24,13.55-18.37,13.55ZM91.1,52.76c-9.64,0-17.48,5.68-17.48,12.66s7.84,12.66,17.48,12.66,17.48-5.68,17.48-12.66-7.84-12.66-17.48-12.66ZM91.1,75.23c-8.1,0-14.69-4.87-14.69-10.86s6.59-10.86,14.69-10.86,14.69,4.87,14.69,10.86-6.59,10.86-14.69,10.86ZM91.1,54.41c-7.61,0-13.8,4.47-13.8,9.97s6.19,9.96,13.8,9.96,13.8-4.47,13.8-9.96-6.19-9.97-13.8-9.97Z"/>
              </g>
              <g>
                <path class="cls-19" d="M91.25,49.31c-9.9,0-17.93,5.87-17.93,13.11s8.03,13.1,17.93,13.1,17.93-5.87,17.93-13.1-8.03-13.11-17.93-13.11ZM91.25,71.78c-7.87,0-14.25-4.66-14.25-10.41s6.38-10.41,14.25-10.41,14.25,4.66,14.25,10.41-6.38,10.41-14.25,10.41Z"/>
                <path class="cls-4" d="M91.25,75.96c-10.13,0-18.38-6.08-18.38-13.55s8.24-13.55,18.38-13.55,18.38,6.08,18.38,13.55-8.24,13.55-18.38,13.55ZM91.25,49.76c-9.64,0-17.48,5.68-17.48,12.66s7.84,12.66,17.48,12.66,17.48-5.68,17.48-12.66-7.84-12.66-17.48-12.66ZM91.25,72.23c-8.1,0-14.69-4.87-14.69-10.86s6.59-10.86,14.69-10.86,14.69,4.87,14.69,10.86-6.59,10.86-14.69,10.86ZM91.25,51.41c-7.61,0-13.8,4.47-13.8,9.96s6.19,9.96,13.8,9.96,13.8-4.47,13.8-9.96-6.19-9.96-13.8-9.96Z"/>
              </g>
            </g>
            <g>
              <g>
                <path class="cls-19" d="M32.32,50.81c-9.9,0-17.93,5.87-17.93,13.1s8.03,13.1,17.93,13.1,17.93-5.87,17.93-13.1-8.03-13.1-17.93-13.1ZM32.32,73.28c-7.87,0-14.25-4.66-14.25-10.41s6.38-10.41,14.25-10.41,14.24,4.66,14.24,10.41-6.38,10.41-14.24,10.41Z"/>
                <path class="cls-4" d="M32.32,77.46c-10.13,0-18.38-6.08-18.38-13.55s8.24-13.55,18.38-13.55,18.38,6.08,18.38,13.55-8.24,13.55-18.38,13.55ZM32.32,51.25c-9.64,0-17.48,5.68-17.48,12.66s7.84,12.66,17.48,12.66,17.48-5.68,17.48-12.66-7.84-12.66-17.48-12.66ZM32.32,73.73c-8.1,0-14.69-4.87-14.69-10.86s6.59-10.86,14.69-10.86,14.69,4.87,14.69,10.86-6.59,10.86-14.69,10.86ZM32.32,52.91c-7.61,0-13.8,4.47-13.8,9.96s6.19,9.96,13.8,9.96,13.8-4.47,13.8-9.96-6.19-9.96-13.8-9.96Z"/>
              </g>
              <g>
                <path class="cls-19" d="M32.47,47.81c-9.9,0-17.93,5.87-17.93,13.1s8.03,13.11,17.93,13.11,17.93-5.87,17.93-13.11-8.03-13.1-17.93-13.1ZM32.47,70.28c-7.87,0-14.25-4.66-14.25-10.41s6.38-10.41,14.25-10.41,14.25,4.66,14.25,10.41-6.38,10.41-14.25,10.41Z"/>
                <path class="cls-4" d="M32.47,74.46c-10.13,0-18.38-6.08-18.38-13.55s8.24-13.55,18.38-13.55,18.38,6.08,18.38,13.55-8.24,13.55-18.38,13.55ZM32.47,48.25c-9.64,0-17.48,5.68-17.48,12.66s7.84,12.66,17.48,12.66,17.48-5.68,17.48-12.66-7.84-12.66-17.48-12.66ZM32.47,70.73c-8.1,0-14.69-4.87-14.69-10.86s6.59-10.86,14.69-10.86,14.69,4.87,14.69,10.86-6.59,10.86-14.69,10.86ZM32.47,49.91c-7.61,0-13.8,4.47-13.8,9.97s6.19,9.96,13.8,9.96,13.8-4.47,13.8-9.96-6.19-9.97-13.8-9.97Z"/>
              </g>
            </g>
            <g>
              <g>
                <path class="cls-8" d="M113.05,17.84c-9.9,0-17.93,5.87-17.93,13.11s8.03,13.1,17.93,13.1,17.93-5.87,17.93-13.1-8.03-13.11-17.93-13.11ZM113.05,40.32c-7.87,0-14.25-4.66-14.25-10.41s6.38-10.41,14.25-10.41,14.25,4.66,14.25,10.41-6.38,10.41-14.25,10.41Z"/>
                <path class="cls-4" d="M113.05,44.5c-10.13,0-18.38-6.08-18.38-13.55s8.24-13.55,18.38-13.55,18.37,6.08,18.37,13.55-8.24,13.55-18.37,13.55ZM113.05,18.29c-9.64,0-17.48,5.68-17.48,12.66s7.84,12.66,17.48,12.66,17.48-5.68,17.48-12.66-7.84-12.66-17.48-12.66ZM113.05,40.76c-8.1,0-14.69-4.87-14.69-10.85s6.59-10.86,14.69-10.86,14.69,4.87,14.69,10.86-6.59,10.85-14.69,10.85ZM113.05,19.94c-7.61,0-13.8,4.47-13.8,9.97s6.19,9.96,13.8,9.96,13.8-4.47,13.8-9.96-6.19-9.97-13.8-9.97Z"/>
              </g>
              <g>
                <path class="cls-8" d="M113.2,14.84c-9.9,0-17.93,5.87-17.93,13.1s8.03,13.1,17.93,13.1,17.93-5.86,17.93-13.1-8.02-13.1-17.93-13.1ZM113.2,37.31c-7.87,0-14.25-4.66-14.25-10.41s6.38-10.41,14.25-10.41,14.24,4.66,14.24,10.41-6.38,10.41-14.24,10.41Z"/>
                <path class="cls-4" d="M113.2,41.49c-10.13,0-18.38-6.08-18.38-13.55s8.24-13.55,18.38-13.55,18.37,6.08,18.37,13.55-8.24,13.55-18.37,13.55ZM113.2,15.29c-9.64,0-17.48,5.68-17.48,12.66s7.84,12.66,17.48,12.66,17.48-5.68,17.48-12.66-7.84-12.66-17.48-12.66ZM113.2,37.76c-8.1,0-14.69-4.87-14.69-10.86s6.59-10.86,14.69-10.86,14.69,4.87,14.69,10.86-6.59,10.86-14.69,10.86ZM113.2,16.94c-7.61,0-13.8,4.47-13.8,9.96s6.19,9.96,13.8,9.96,13.8-4.47,13.8-9.96-6.19-9.96-13.8-9.96Z"/>
              </g>
            </g>
            <g>
              <path class="cls-23" d="M123.74,43.61c0,12.76-22.81,25.41-51.06,25.41s-51.15-10.34-51.15-23.11S30.5,14.18,69.55,12.78c45.99-1.65,54.19,18.07,54.19,30.83Z"/>
              <path class="cls-4" d="M72.68,69.47c-28.45,0-51.6-10.57-51.6-23.55,0-7.47,3.49-31.96,48.45-33.58,21.12-.75,36.49,2.92,45.56,10.88,7.52,6.61,9.1,14.74,9.1,20.39,0,6.4-5.53,12.92-15.18,17.89-9.97,5.14-22.88,7.97-36.33,7.97ZM74.84,13.13c-1.71,0-3.48.03-5.27.1-44.16,1.58-47.59,25.42-47.59,32.68,0,12.5,22.75,22.66,50.71,22.66,13.32,0,26.07-2.79,35.92-7.87,9.34-4.81,14.7-11.04,14.7-17.09,0-5.47-1.53-13.34-8.8-19.72-8.13-7.14-21.47-10.76-39.67-10.76Z"/>
            </g>
            <g>
              <path class="cls-22" d="M117.65,38.95c-1.04.1-3.61,3.36-1.96,3.74,7.6,1.73,11.49,9.01,3.69,14.22-5.55,3.71-10.98,3.55-17.25,4.88-10.42,2.2-17.55,13.94-28.94,10.96-4.85-1.26-8.86-4.59-13.8-5.92-5.27-1.42-11.01-.88-16.4-1.67-11.64-1.71-28.73-13.75-17.59-26.65.52-.61.26-1.34-.48-.68-3.48,3.13-7.05,9.28-5.99,14.12,1.7,7.75,6.16,12.9,13.79,15.71,7.84,2.89,15.87,2,23.86,3.77,7.35,1.63,12.31,7.05,20.23,6.33,7.42-.67,12.31-6.9,18.54-10.04,6.85-3.44,14.94-1.48,21.63-5.67,4.54-2.85,10-6.74,10.77-12.53.82-6.16-3.84-11.17-10.1-10.58Z"/>
              <path class="cls-4" d="M75.38,78.28h0c-4.22,0-7.7-1.7-11.06-3.35-2.45-1.2-4.98-2.43-7.84-3.06-3.26-.72-6.6-1-9.83-1.27-4.63-.39-9.43-.79-14.09-2.51-7.72-2.85-12.32-8.1-14.07-16.04-1.08-4.91,2.35-11.16,6.13-14.55.58-.52,1.2-.45,1.42.02.17.37.05.87-.31,1.28-3.38,3.92-4.33,7.97-2.81,12.05,2.65,7.13,12.51,12.75,20.13,13.87,2.16.32,4.43.42,6.63.52,3.26.15,6.64.3,9.82,1.16,2.51.68,4.79,1.86,7,3.01,2.27,1.18,4.41,2.29,6.8,2.91,1.18.31,2.38.47,3.54.47h0c5.01,0,9.19-2.77,13.62-5.69,3.6-2.38,7.32-4.84,11.58-5.74,1.64-.35,3.23-.59,4.77-.83,4.27-.66,8.31-1.29,12.33-3.97,3.03-2.03,4.44-4.53,3.98-7.06-.54-2.94-3.5-5.44-7.52-6.36-.59-.13-.92-.58-.88-1.19.08-1.25,1.84-3.33,2.9-3.43.34-.03.69-.05,1.04-.05,2.87,0,5.46,1.14,7.27,3.21,1.86,2.13,2.67,4.94,2.27,7.92-.76,5.71-5.72,9.55-10.98,12.85-3.64,2.29-7.72,2.79-11.66,3.27-3.38.42-6.87.84-10.01,2.42-2.18,1.1-4.24,2.62-6.24,4.09-3.71,2.73-7.55,5.56-12.46,6-.49.04-.98.07-1.46.07ZM24.69,38.67c-3.41,3.35-6.24,9-5.32,13.19,1.67,7.62,6.09,12.65,13.5,15.39,4.55,1.68,9.28,2.07,13.86,2.46,3.25.27,6.62.55,9.94,1.29,2.96.65,5.54,1.91,8.04,3.13,3.43,1.67,6.66,3.25,10.67,3.25h0c.46,0,.92-.02,1.38-.06,4.66-.42,8.4-3.17,12.01-5.83,2.03-1.49,4.12-3.04,6.37-4.17,3.27-1.64,6.84-2.08,10.3-2.51,3.85-.47,7.82-.96,11.3-3.14,5.07-3.18,9.86-6.86,10.57-12.21.36-2.72-.37-5.29-2.06-7.22-1.84-2.1-4.58-3.14-7.55-2.86-.52.05-2.03,1.68-2.09,2.6-.01.19.03.23.19.26,4.37,1,7.59,3.77,8.2,7.06.54,2.9-1.01,5.73-4.36,7.96-4.19,2.8-8.32,3.44-12.69,4.12-1.52.24-3.1.48-4.72.82-4.09.86-7.74,3.28-11.27,5.61-4.34,2.87-8.83,5.84-14.11,5.84h0c-1.24,0-2.51-.17-3.77-.5-2.48-.65-4.77-1.83-6.98-2.98-2.17-1.13-4.41-2.29-6.82-2.94-3.08-.83-6.41-.98-9.63-1.13-2.22-.1-4.51-.21-6.72-.53-10.24-1.51-18.63-8.53-20.83-14.44-1.56-4.19-.66-8.5,2.59-12.5Z"/>
            </g>
            <g>
              <path class="cls-2" d="M126.47,35.55c0,13.44-24.03,26.76-53.78,26.76s-53.88-10.9-53.88-24.34S28.26,4.55,69.39,3.07c48.44-1.74,57.08,19.03,57.08,32.47Z"/>
              <path class="cls-4" d="M72.68,62.75c-29.96,0-54.33-11.12-54.33-24.79,0-7.86,3.68-33.64,51.01-35.34,22.25-.79,38.42,3.07,47.97,11.46,7.91,6.95,9.58,15.51,9.58,21.46,0,6.73-5.82,13.59-15.98,18.82-10.5,5.41-24.09,8.39-38.26,8.39ZM74.95,3.42c-1.8,0-3.67.04-5.55.1C22.86,5.19,19.25,30.31,19.25,37.97c0,13.17,23.97,23.89,53.44,23.89,14.03,0,27.47-2.94,37.85-8.29,9.84-5.07,15.49-11.64,15.49-18.03,0-5.77-1.61-14.06-9.27-20.79-8.56-7.52-22.62-11.34-41.79-11.34Z"/>
            </g>
            <path class="cls-3" d="M100.74,6.06c6.58,4.55,10.9,12,9.62,20.66-1.54,10.46-10.51,18.33-19.67,22.58-10.15,4.71-21.39,6.23-32.49,6.08-10.48-.14-22.33-1.12-30.9-7.82-4-3.13-7.06-7.26-8.38-12.14-.08.86-.11,1.71-.11,2.54,0,13.44,24.12,24.34,53.88,24.34s53.78-13.32,53.78-26.76c0-9.78-4.58-23.44-25.73-29.48Z"/>
            <path class="cls-1" d="M49.64,57.84c-6.62-1.93-13.3-4.62-18.47-9.33-3.02-2.75-5.78-6.34-6.12-10.57-.37-4.51,1.7-8.91,4.51-12.33,6.53-7.96,16.69-11.94,26.16-15.19,11.26-3.86,22.45-6.45,34.43-6.31.54,0,1.08.02,1.62.04-6.31-.97-13.7-1.38-22.39-1.07C28.26,4.55,18.8,24.53,18.8,37.97s22.24,23.46,50.36,24.28c-6.52-1.41-13.11-2.54-19.53-4.41Z"/>
            <path class="cls-1" d="M76.39,25.47s-5.87,5.44-2.3,6.91c3.27,1.35,4.47-3.56,2.3-6.91Z"/>
            <path class="cls-1" d="M61.94,22.83s-7.9,1.29-5.74,4.49c1.99,2.93,5.69-.5,5.74-4.49Z"/>
            <path class="cls-1" d="M35.53,27.19s-7.9,1.3-5.74,4.49c1.99,2.93,5.69-.5,5.74-4.49Z"/>
            <path class="cls-1" d="M92.33,23.37s2.91,7.46,5.58,4.68c2.46-2.55-1.67-5.46-5.58-4.68Z"/>
            <path class="cls-1" d="M98.65,12.02s5.66,3,5.83-.08c.15-2.83-3.87-2.44-5.83.08Z"/>
            <path class="cls-1" d="M108.86,21.63s3.29,5.5,5.03,2.95c1.6-2.34-2.04-4.09-5.03-2.95Z"/>
            <path class="cls-1" d="M76.52,8.33s3.29,5.5,5.03,2.95c1.6-2.34-2.04-4.09-5.03-2.95Z"/>
            <path class="cls-1" d="M47.43,16.71s-3.29,5.5-5.03,2.95c-1.6-2.34,2.04-4.09,5.03-2.95Z"/>
            <path class="cls-1" d="M64.3,15.54s-4.85-4.19-2.04-5.46c2.58-1.17,3.68,2.72,2.04,5.46Z"/>
            <path class="cls-1" d="M48.5,39.99s-4.85-4.19-2.04-5.46c2.58-1.17,3.68,2.72,2.04,5.46Z"/>
            <path class="cls-1" d="M93.55,37.61s-4.85-4.19-2.04-5.47c2.58-1.17,3.68,2.72,2.04,5.47Z"/>
          </g>
        </g>
      </g>
    </g>
  </g>
</svg>