<?xml version="1.0" encoding="UTF-8"?>
<svg xmlns="http://www.w3.org/2000/svg" width="89.63" height="100" xmlns:xlink="http://www.w3.org/1999/xlink" viewBox="0 0 89.63 100">
  <defs>
    <style>
      .cls-1 {
        fill: #5e2c00;
      }

      .cls-2 {
        fill: #8b8b8b;
      }

      .cls-3 {
        fill: url(#linear-gradient-2);
      }

      .cls-4 {
        fill: #9a9a9a;
      }

      .cls-5 {
        fill: #7d7d7d;
      }

      .cls-6 {
        fill: #fff;
      }

      .cls-7 {
        fill: #6e6e6e;
      }

      .cls-8 {
        fill: #606060;
      }

      .cls-9 {
        fill: #e2e2e2;
      }

      .cls-10 {
        fill: url(#radial-gradient);
      }

      .cls-11 {
        fill: url(#linear-gradient-3);
      }

      .cls-12 {
        isolation: isolate;
      }

      .cls-13 {
        fill: #f1f1f1;
      }

      .cls-14, .cls-15 {
        fill: #fcd2a3;
      }

      .cls-16 {
        fill: #c5c5c5;
      }

      .cls-17 {
        mix-blend-mode: multiply;
      }

      .cls-18 {
        fill: #a8a8a8;
      }

      .cls-19 {
        fill: #d4d4d4;
      }

      .cls-20 {
        fill: #b7b7b7;
      }

      .cls-21 {
        fill: url(#linear-gradient);
      }

      .cls-15 {
        opacity: .29;
      }

      .cls-22 {
        fill: #d28915;
      }
    </style>
    <radialGradient id="radial-gradient" cx="-366.9" cy="450.66" fx="-366.9" fy="450.66" r="49.42" gradientTransform="translate(447.32 -396.54) scale(1.06)" gradientUnits="userSpaceOnUse">
      <stop offset="0" stop-color="#fbbf7b"/>
      <stop offset=".14" stop-color="#f6b86c"/>
      <stop offset=".7" stop-color="#e4a136"/>
      <stop offset=".98" stop-color="#dd9821"/>
    </radialGradient>
    <linearGradient id="linear-gradient" x1="4.51" y1="89.51" x2="82.44" y2="89.51" gradientUnits="userSpaceOnUse">
      <stop offset=".02" stop-color="#dd9821"/>
      <stop offset=".17" stop-color="#e49c2c"/>
      <stop offset=".51" stop-color="#f4a442"/>
      <stop offset=".73" stop-color="#faa74a"/>
      <stop offset="1" stop-color="#fbbf7b"/>
    </linearGradient>
    <linearGradient id="linear-gradient-2" x1="38.47" y1="1.31" x2="38.34" y2="11.81" gradientUnits="userSpaceOnUse">
      <stop offset=".17" stop-color="#fbbf7b"/>
      <stop offset=".46" stop-color="#faa74a"/>
      <stop offset=".62" stop-color="#f4a442"/>
      <stop offset=".87" stop-color="#e49c2c"/>
      <stop offset=".98" stop-color="#dd9821"/>
    </linearGradient>
    <linearGradient id="linear-gradient-3" x1="39.77" y1="12.09" x2="39.94" y2="14.86" gradientUnits="userSpaceOnUse">
      <stop offset="0" stop-color="#fbbf7b"/>
      <stop offset=".27" stop-color="#faa74a"/>
      <stop offset=".49" stop-color="#f4a442"/>
      <stop offset=".83" stop-color="#e49c2c"/>
      <stop offset=".98" stop-color="#dd9821"/>
    </linearGradient>
  </defs>
  <g class="cls-12">
    <g id="Layer_2" data-name="Layer 2">
      <g id="Layer_1-2" data-name="Layer 1">
        <g>
          <g class="cls-17">
            <path class="cls-6" d="M77.94,81.92c-.15-2.71-.38-5.48-.7-8.42.63-.26,1.24-.54,1.82-.84.14,3.06.23,6.22.27,9.54-.44-.09-.91-.19-1.4-.28ZM76.75,69.4c-.15-1.18-.32-2.4-.5-3.63-.99-6.82-2.36-14.83-5.01-22.57-.79-2.29-1.67-4.52-2.63-6.66.01,0,.02,0,.03,0,.9-.28,1.88-.58,2.82-1.01.92,1.8,1.75,3.69,2.46,5.65,2.21,6.1,3.66,12.97,4.42,21.01.18,1.92.34,3.95.48,6.05-.64.42-1.33.81-2.06,1.17ZM73.8,80.98c-2.05-.4-4.17-.74-6.42-1-.09-1.33-.17-2.59-.27-3.79,1.96-.33,4.07-.74,6.18-1.33.21,2.08.38,4.13.51,6.12ZM66.79,72.32c0-.08-.02-.15-.02-.23-.72-7.68-1.83-15.44-3.28-23.05-.72-3.76-1.52-7.18-2.45-10.41,1.23-.26,2.45-.56,3.65-.89,1.34,2.91,2.53,6.01,3.53,9.21,2.18,6.98,3.32,14.43,4.23,20.87.14.99.27,2.02.41,3.09-1.98.6-4.04,1.04-6.05,1.4ZM67.09,33.02c-.06.02-.11.04-.17.05-1.85-3.56-3.95-6.8-6.25-9.64-.93-1.15-1.92-2.22-2.91-3.22,4.55,2.77,8.56,6.82,11.78,11.95-.75.34-1.61.6-2.45.86ZM63.1,76.82c.07.92.14,1.84.2,2.75-2.32-.19-4.74-.3-7.31-.36,0-.47,0-.94,0-1.42,2.22-.26,4.57-.58,7.11-.97ZM59.59,28.64c1.19,1.77,2.31,3.65,3.36,5.61-.95.25-1.96.49-3.04.73-.94-2.83-1.97-5.46-3.14-8.02l-.25-.55c-.51-1.13-1.07-2.36-1.7-3.6,1.75,1.77,3.38,3.75,4.78,5.84ZM57.07,39.37c.98,3.44,1.85,7.25,2.71,11.82,1.29,6.9,2.29,14.23,3,21.8-2.34.37-4.62.68-6.83.95-.12-6.91-.47-14.02-1.06-21.16-.33-4.01-.88-8.24-1.67-12.86,1.3-.16,2.58-.35,3.85-.55ZM54.01,30.6c.69,1.64,1.33,3.33,1.93,5.12-1.11.18-2.24.34-3.4.48-.34-1.79-.71-3.62-1.11-5.48l-.19-.91c-.64-3.02-1.37-6.5-2.77-9.64.54.72,1.03,1.51,1.5,2.3,1.37,2.29,2.69,4.94,4.03,8.12ZM47.67,78.54c1.37-.08,2.78-.19,4.25-.32,0,.32,0,.64,0,.95-1.35,0-2.75.02-4.24.05,0-.23,0-.46,0-.68ZM47.57,74.71c-.25-5.98-.84-11.95-1.53-18.51-.11-1.08-.23-2.15-.35-3.23-.44-4.04-.89-8.2-1.17-12.32,1.58-.08,3.14-.18,4.65-.31.8,4.66,1.35,9,1.7,13.2.55,6.72.89,13.72,1.01,20.83-1.47.14-2.92.25-4.31.35ZM43.65,19.58c1.93,3.07,2.8,7.15,3.58,10.83l.22,1.06c.37,1.7.72,3.42,1.04,5.15-1.34.11-2.73.2-4.19.28,0-.25-.02-.5-.03-.74-.04-1.11-.06-2.22-.09-3.33-.05-2.18-.11-4.44-.24-6.67l-.07-1.17c-.12-1.85-.23-3.63-.23-5.4ZM39.79,7.21c-.05.07-.1.15-.15.22-.11-.3-.09-.58.22-.97.14-.17.34-.3.5-.37,0,.19-.12.43-.57,1.11ZM43.63,79.34c-.74.02-1.48.05-2.21.08-1.04.04-2.11.09-3.18.15,0-.29-.02-.58-.02-.85,1.75.04,3.54.04,5.41,0,0,.21,0,.42,0,.63ZM38.08,37.11c.05-.98.1-1.93.16-2.87.16-2.56.42-5.92,1.12-9.18.11-.5.23-.99.36-1.46.04.55.08,1.1.12,1.62.21,2.57.26,5.22.32,7.78.02.7.03,1.39.05,2.09.02.62.04,1.26.07,1.96-.77.03-1.5.04-2.19.06ZM37.93,40.87c.89-.01,1.76-.04,2.56-.06.29,4.22.74,8.45,1.18,12.56l.22,2.03c.73,6.9,1.36,13.16,1.63,19.52-1.82.06-3.58.06-5.31.02,0-4.55-.11-9.13-.23-13.58-.06-2.12-.11-4.24-.16-6.36-.1-4.72-.06-9.47.1-14.13ZM30.61,36.97c.5-2.46,1.08-4.86,1.74-7.15.78-2.74,1.84-5.85,3.71-8.09-.16.5-.31,1.04-.46,1.63-.85,3.29-1.15,6.74-1.36,9.71-.09,1.32-.17,2.65-.24,4.05-1.17-.03-2.3-.07-3.38-.15ZM34.2,79.85c-1.86.16-3.7.35-5.49.57-.01-.4-.03-.81-.04-1.21-.01-.41-.03-.83-.04-1.24,1.8.24,3.65.43,5.53.56.01.45.03.9.04,1.33ZM33.74,54.53c.04,2.41.11,4.86.17,7.22.11,4.26.22,8.66.22,13-1.92-.13-3.81-.34-5.63-.6-.22-7.28-.36-14.99.18-22.74.25-3.66.67-7.26,1.24-10.72,1.24.09,2.54.15,3.91.18-.15,4.35-.18,8.84-.09,13.66ZM28.71,27.9c-.86,2.7-1.58,5.54-2.19,8.65-.79-.12-1.59-.25-2.42-.39-.2-.03-.4-.07-.6-.1,1.77-4.73,3.98-8.73,6.59-11.98-.55,1.29-.98,2.59-1.38,3.82ZM24.38,73.43c-2-.39-4.01-.84-6.16-1.33.07-8.73.6-15.75,1.65-22.07.61-3.66,1.41-7.13,2.39-10.31,1.06.17,2.22.34,3.56.53.01,0,.03,0,.04,0-.46,2.92-.83,6.01-1.12,9.39-.7,8.14-.59,16.18-.36,23.78ZM18.21,77.28c0-.41,0-.81,0-1.22,1.66.36,3.32.67,4.94.97.45.08.91.17,1.36.25.03.74.05,1.49.08,2.23l.05,1.47c-.19.03-.38.06-.57.09-1.96.32-3.93.7-5.86,1.08.01-1.63,0-3.28,0-4.88ZM17.1,34.72c.55-1.12,1.14-2.19,1.75-3.2,1.82-3,4.11-5.73,6.68-8.03-2.4,3.36-4.43,7.35-6.09,11.93-.88-.16-1.66-.37-2.34-.7ZM15.56,38.19c.9.39,1.82.64,2.7.83-.88,2.93-1.63,6.09-2.25,9.42-1.48,8.07-1.77,16.3-1.86,22.61-1.64-.51-3.01-1.09-4.28-1.78.14-7.03.91-13.58,2.36-20.01.95-4.22,2.05-7.86,3.33-11.06ZM88.09,78.69c-.78-.64-2.38-1.32-3.84-1.32-.26,0-.52.02-.76.06-.15-5.54-.46-10.71-.92-15.65-.79-8.4-2.32-15.61-4.65-22.05-5.4-14.89-16.38-25.18-29.36-27.5-.16-.03-.33-.06-.49-.08.02-.09.03-.17.04-.26.16-1.24-.41-2.43-1.53-3.17-.39-.26-.89-.46-1.43-.58.12-.36.22-.75.27-1.18.27-2.71-1.18-4.76-3.79-5.34-2.12-.47-4.16.16-5.51,1.69-1.2,1.37-1.75,3.27-1.53,5.21.01.46.2.9.51,1.23.53.55,1.23.61,1.55.61h0c.29,0,.55-.03.79-.06.18-.02.34-.04.44-.04.04,0,.08,0,.13,0,.21,0,.4-.02.58-.07-.04.52-.03,1.09.04,1.7-1.82.34-2.71.79-3.19,1.15-2.13.64-4.22,1.53-6.23,2.64-5.55,3.08-10.51,7.92-13.98,13.63-3.09,5.08-5.36,11.12-7.13,19-1.76,7.8-2.57,15.82-2.48,24.52v1.04c.03,1.97.06,4.02,0,6.01,0,.02,0,.05,0,.07-.08,0-.16,0-.24,0-.76,0-1.46.21-2.04.6-1.39.94-2.01,2.38-1.65,3.87.26,1.06,1.01,2.02,1.99,2.67-.25.8-.35,1.64-.18,2.35.75,3.14,4.1,4.51,5.19,4.96,2.56,1.05,5.28,1.63,7.63,2.09,1.15.22,2.33.47,3.47.72l.1.02c1.31.28,2.66.56,4,.82,6.78,1.29,13.61,1.94,20.32,1.94h0c7.84,0,15.43-.89,22.56-2.64,4.5-1.11,10.33-2.76,15.48-5.77,1.34-.78,3.84-2.25,4.38-4.77.06-.29.09-.59.07-.88,1.57-.77,2.66-2.13,2.88-3.63.2-1.38-.33-2.67-1.5-3.63ZM9.86,73.81v-.35c1.3.59,2.72,1.11,4.27,1.58,0,.57,0,1.13,0,1.7,0,1.74.01,3.54,0,5.31v.71c0,.09-.01.19-.01.28-1.22.31-2.52.74-3.75,1.39-.14.05-.28.11-.42.16-.13-1.41-.13-2.88-.09-4.59.05-2.07.03-4.15,0-6.19Z"/>
            <path class="cls-13" d="M77.8,81.79c-.15-2.71-.38-5.48-.7-8.42.63-.26,1.24-.54,1.82-.84.14,3.06.23,6.22.27,9.54-.44-.09-.91-.19-1.4-.28ZM76.61,69.27c-.15-1.18-.32-2.4-.5-3.63-.99-6.82-2.36-14.83-5.01-22.56-.78-2.29-1.67-4.52-2.63-6.66.01,0,.02,0,.03,0,.91-.26,1.88-.58,2.82-1.01.92,1.8,1.75,3.69,2.46,5.65,2.21,6.1,3.66,12.97,4.42,21,.18,1.92.34,3.95.48,6.05-.64.42-1.33.81-2.07,1.17ZM73.65,80.85c-2.05-.4-4.17-.74-6.42-1-.09-1.33-.18-2.59-.27-3.79,1.96-.33,4.07-.74,6.18-1.33.21,2.08.38,4.13.51,6.12ZM66.64,72.19c0-.08-.02-.15-.02-.23-.7-7.68-1.83-15.44-3.28-23.05-.72-3.76-1.52-7.18-2.45-10.41,1.23-.26,2.45-.56,3.65-.89,1.34,2.91,2.53,6,3.53,9.21,2.18,6.98,3.32,14.43,4.23,20.87.14,1,.27,2.02.41,3.09-1.98.6-4.04,1.04-6.05,1.4ZM66.95,32.89c-.06.02-.11.04-.17.05-1.85-3.56-3.95-6.79-6.25-9.64-.93-1.15-1.92-2.22-2.91-3.22,4.55,2.77,8.56,6.82,11.78,11.95-.75.34-1.61.6-2.45.86ZM62.96,76.69c.07.92.14,1.84.2,2.75-2.32-.19-4.74-.3-7.31-.36,0-.47,0-.94,0-1.42,2.22-.26,4.57-.58,7.11-.97ZM59.45,28.51c1.19,1.77,2.31,3.65,3.36,5.61-.96.25-1.96.49-3.04.73-.94-2.82-1.97-5.46-3.14-8.02l-.25-.55c-.51-1.13-1.07-2.36-1.7-3.6,1.75,1.77,3.38,3.75,4.78,5.84ZM56.93,39.23c.98,3.44,1.85,7.25,2.71,11.82,1.29,6.9,2.29,14.23,3,21.8-2.33.37-4.62.69-6.83.95-.12-6.91-.47-14.02-1.06-21.16-.33-4.01-.88-8.24-1.67-12.86,1.3-.16,2.58-.35,3.85-.55ZM53.87,30.46c.69,1.64,1.33,3.33,1.93,5.12-1.11.18-2.24.34-3.4.48-.34-1.79-.71-3.63-1.11-5.48l-.19-.91c-.64-3.02-1.37-6.5-2.77-9.64.54.72,1.03,1.51,1.5,2.3,1.37,2.29,2.69,4.94,4.03,8.12ZM47.53,78.41c1.37-.08,2.78-.19,4.24-.32,0,.32,0,.64,0,.95-1.35,0-2.75.02-4.24.05,0-.23,0-.46,0-.68ZM47.42,74.58c-.24-5.98-.84-11.95-1.53-18.51-.11-1.08-.23-2.15-.35-3.23-.44-4.04-.89-8.2-1.17-12.32,1.58-.08,3.14-.18,4.65-.31.8,4.66,1.35,9,1.7,13.2.55,6.72.89,13.72,1.01,20.82-1.47.14-2.92.25-4.31.35ZM43.51,19.45c1.93,3.07,2.8,7.15,3.58,10.83l.22,1.06c.37,1.7.72,3.42,1.04,5.15-1.34.11-2.73.2-4.19.28,0-.25-.02-.5-.03-.74-.04-1.11-.06-2.22-.09-3.33-.05-2.18-.11-4.44-.24-6.67l-.07-1.17c-.12-1.85-.23-3.63-.23-5.4ZM39.64,7.08c-.05.07-.1.15-.15.22-.11-.3-.09-.59.22-.97.14-.17.34-.3.5-.37,0,.19-.11.44-.57,1.11ZM43.49,79.2c-.74.02-1.47.05-2.21.08-1.04.04-2.11.09-3.18.15,0-.29-.01-.58-.02-.85,1.75.04,3.54.04,5.41,0,0,.21,0,.42,0,.63ZM37.94,36.98c.05-.98.1-1.93.16-2.87.16-2.56.42-5.92,1.12-9.18.11-.5.23-.99.36-1.46.04.55.08,1.1.12,1.62.21,2.57.26,5.22.32,7.78.02.7.03,1.39.05,2.09.02.62.04,1.26.07,1.96-.77.03-1.5.04-2.19.06ZM37.78,40.73c.89-.01,1.76-.04,2.56-.06.29,4.22.75,8.45,1.18,12.56l.22,2.03c.73,6.9,1.36,13.16,1.63,19.52-1.82.05-3.58.06-5.31.02,0-4.55-.11-9.13-.23-13.58-.06-2.12-.11-4.24-.16-6.36-.1-4.72-.06-9.47.1-14.13ZM30.46,36.83c.5-2.46,1.08-4.86,1.74-7.15.78-2.74,1.84-5.85,3.7-8.09-.16.5-.31,1.04-.46,1.63-.85,3.29-1.15,6.74-1.36,9.71-.09,1.32-.17,2.65-.24,4.05-1.17-.03-2.3-.07-3.38-.15ZM34.05,79.72c-1.86.16-3.7.35-5.49.57-.01-.41-.03-.81-.04-1.21-.01-.41-.03-.83-.04-1.24,1.8.24,3.65.43,5.53.56.01.45.03.9.04,1.33ZM33.59,54.39c.04,2.41.11,4.86.17,7.22.11,4.26.22,8.66.22,13-1.93-.14-3.81-.34-5.63-.6-.22-7.28-.36-14.99.18-22.74.25-3.66.67-7.26,1.24-10.72,1.24.09,2.54.15,3.91.18-.15,4.35-.18,8.84-.09,13.66ZM28.56,27.77c-.86,2.7-1.58,5.54-2.19,8.65-.79-.12-1.59-.25-2.42-.39-.2-.03-.4-.07-.61-.1,1.78-4.73,3.98-8.73,6.59-11.98-.55,1.29-.98,2.59-1.38,3.82ZM24.24,73.3c-2-.39-4.01-.84-6.16-1.33.07-8.73.6-15.75,1.65-22.07.61-3.66,1.41-7.13,2.39-10.31,1.06.17,2.23.3,3.56.53.01,0,.03,0,.04,0-.46,2.92-.83,6.01-1.12,9.39-.7,8.14-.59,16.18-.36,23.78ZM18.07,77.15c0-.41,0-.81,0-1.22,1.66.36,3.32.67,4.94.97.45.08.91.17,1.36.25.03.74.05,1.49.08,2.23l.05,1.47c-.19.03-.38.06-.57.09-1.96.32-3.93.7-5.86,1.08.01-1.63.01-3.28,0-4.88ZM16.96,34.59c.55-1.12,1.14-2.19,1.75-3.2,1.82-3,4.1-5.73,6.68-8.02-2.4,3.36-4.43,7.35-6.09,11.93-.88-.16-1.66-.37-2.34-.71ZM15.41,38.06c.9.39,1.82.64,2.7.83-.88,2.93-1.63,6.09-2.25,9.42-1.48,8.07-1.77,16.3-1.86,22.61-1.64-.51-3.01-1.09-4.28-1.78.14-7.03.91-13.58,2.36-20.01.95-4.22,2.05-7.86,3.33-11.06ZM87.94,78.56c-.77-.64-2.38-1.32-3.84-1.32-.26,0-.52.02-.76.06-.15-5.54-.46-10.71-.92-15.65-.79-8.4-2.32-15.61-4.65-22.05-5.4-14.89-16.38-25.18-29.36-27.5-.16-.03-.33-.06-.49-.08.02-.09.03-.17.04-.26.16-1.24-.41-2.43-1.53-3.17-.39-.26-.89-.46-1.43-.58.12-.36.22-.75.27-1.18.27-2.71-1.18-4.76-3.79-5.34-2.12-.47-4.16.16-5.51,1.69-1.2,1.37-1.75,3.27-1.53,5.21.01.46.2.9.51,1.23.53.55,1.23.61,1.55.61h0c.29,0,.55-.03.79-.06.18-.02.34-.04.44-.04.04,0,.08,0,.13,0,.21,0,.4-.02.58-.07-.04.52-.03,1.09.04,1.7-1.82.34-2.71.79-3.19,1.15-2.13.64-4.22,1.53-6.23,2.64-5.55,3.08-10.51,7.92-13.98,13.63-3.09,5.09-5.36,11.12-7.13,19-1.76,7.8-2.57,15.82-2.48,24.52v1.04c.03,1.97.03,4.02,0,6.01,0,.02,0,.04,0,.07-.08,0-.16,0-.24,0-.76,0-1.46.21-2.04.6-1.4.94-2.01,2.38-1.65,3.87.26,1.06,1.01,2.02,1.99,2.67-.25.8-.35,1.64-.18,2.35.75,3.14,4.1,4.51,5.19,4.96,2.56,1.05,5.28,1.63,7.63,2.09,1.15.22,2.33.47,3.47.72l.1.02c1.31.28,2.66.56,4,.82,6.78,1.29,13.61,1.94,20.32,1.94h0c7.84,0,15.43-.89,22.56-2.64,4.5-1.11,10.33-2.76,15.48-5.77,1.34-.78,3.83-2.25,4.38-4.77.06-.29.09-.59.07-.87,1.57-.77,2.66-2.13,2.88-3.63.2-1.38-.33-2.67-1.5-3.63ZM9.72,73.67v-.35c1.3.59,2.72,1.11,4.27,1.58,0,.57,0,1.13,0,1.7,0,1.74.01,3.54,0,5.31v.72c0,.09-.01.19-.01.28-1.22.31-2.52.74-3.75,1.39-.14.05-.28.11-.42.16-.13-1.41-.13-2.88-.09-4.59.05-2.07.03-4.15,0-6.19Z"/>
            <path class="cls-9" d="M77.65,81.65c-.15-2.71-.38-5.48-.7-8.42.63-.26,1.24-.54,1.82-.84.14,3.06.23,6.22.27,9.54-.44-.1-.91-.19-1.4-.28ZM76.47,69.13c-.15-1.18-.32-2.4-.5-3.63-.99-6.82-2.36-14.83-5.01-22.57-.79-2.29-1.67-4.52-2.63-6.66.01,0,.02,0,.03,0,.91-.25,1.88-.58,2.82-1.01.92,1.8,1.75,3.7,2.46,5.65,2.21,6.1,3.66,12.97,4.42,21.01.18,1.92.34,3.95.48,6.05-.64.42-1.33.81-2.06,1.17ZM73.51,80.71c-2.06-.4-4.18-.74-6.42-1-.09-1.33-.17-2.59-.27-3.79,1.96-.33,4.07-.74,6.18-1.33.21,2.08.38,4.13.51,6.12ZM66.5,72.05c0-.08-.01-.15-.02-.23-.74-7.68-1.83-15.44-3.28-23.05-.72-3.76-1.52-7.18-2.45-10.41,1.23-.26,2.45-.56,3.65-.89,1.34,2.91,2.53,6.01,3.53,9.21,2.18,6.98,3.32,14.43,4.23,20.87.14.99.27,2.01.41,3.09-1.98.6-4.04,1.04-6.05,1.4ZM66.8,32.75c-.06.02-.11.04-.17.05-1.85-3.56-3.95-6.8-6.25-9.64-.93-1.15-1.91-2.22-2.91-3.22,4.55,2.77,8.56,6.82,11.78,11.95-.75.34-1.61.6-2.45.86ZM62.81,76.55c.07.92.14,1.84.2,2.75-2.32-.19-4.74-.3-7.31-.36,0-.47,0-.94,0-1.42,2.22-.26,4.57-.58,7.11-.97ZM59.3,28.37c1.19,1.77,2.31,3.65,3.36,5.61-.95.25-1.96.49-3.04.73-.94-2.83-1.97-5.46-3.14-8.02l-.25-.55c-.51-1.13-1.07-2.36-1.7-3.6,1.75,1.77,3.38,3.75,4.78,5.84ZM56.78,39.1c.98,3.44,1.85,7.24,2.71,11.82,1.29,6.9,2.29,14.23,3,21.8-2.34.37-4.62.69-6.83.95-.12-6.91-.47-14.02-1.06-21.16-.33-4.01-.88-8.24-1.67-12.86,1.29-.16,2.58-.35,3.85-.55ZM53.72,30.33c.69,1.64,1.33,3.33,1.93,5.12-1.11.18-2.24.34-3.4.48-.34-1.79-.71-3.62-1.11-5.48l-.19-.91c-.64-3.02-1.37-6.5-2.77-9.64.54.72,1.03,1.51,1.5,2.3,1.37,2.29,2.69,4.94,4.03,8.12ZM47.39,78.28c1.37-.08,2.78-.19,4.24-.32,0,.32,0,.64,0,.95-1.35,0-2.75.02-4.24.05,0-.23,0-.46,0-.68ZM47.28,74.45c-.24-5.98-.84-11.95-1.53-18.51-.11-1.08-.23-2.15-.35-3.23-.44-4.04-.89-8.2-1.17-12.32,1.58-.08,3.14-.18,4.65-.31.8,4.66,1.35,9,1.7,13.2.55,6.72.89,13.72,1.01,20.83-1.47.14-2.92.26-4.31.35ZM43.36,19.31c1.93,3.07,2.8,7.14,3.58,10.83l.22,1.06c.37,1.7.72,3.42,1.05,5.15-1.34.11-2.73.2-4.19.28,0-.25-.02-.5-.03-.74-.04-1.11-.06-2.22-.09-3.33-.05-2.18-.11-4.44-.24-6.67l-.07-1.17c-.12-1.85-.23-3.63-.23-5.4ZM39.5,6.94c-.05.07-.1.15-.15.22-.11-.3-.09-.58.22-.97.14-.17.34-.3.5-.37,0,.19-.11.44-.57,1.11ZM43.35,79.07c-.74.02-1.48.05-2.21.08-1.04.04-2.11.09-3.18.15,0-.29-.02-.58-.02-.85,1.75.04,3.54.04,5.41,0,0,.21,0,.42,0,.63ZM37.8,36.84c.05-.98.1-1.93.16-2.87.16-2.56.42-5.92,1.12-9.18.11-.5.23-.99.36-1.46.04.55.08,1.1.12,1.62.2,2.57.26,5.22.32,7.78.02.7.03,1.39.05,2.09.02.62.04,1.26.07,1.96-.77.03-1.5.04-2.19.06ZM37.64,40.6c.9-.01,1.76-.04,2.56-.06.29,4.22.74,8.45,1.18,12.56l.22,2.03c.73,6.9,1.36,13.16,1.63,19.52-1.82.06-3.58.06-5.31.02,0-4.55-.11-9.13-.23-13.58-.06-2.12-.11-4.24-.16-6.35-.1-4.72-.06-9.47.1-14.13ZM30.32,36.7c.5-2.46,1.08-4.86,1.74-7.15.78-2.74,1.84-5.85,3.71-8.09-.16.5-.31,1.04-.46,1.63-.85,3.29-1.15,6.74-1.36,9.71-.09,1.32-.17,2.65-.24,4.05-1.17-.03-2.3-.07-3.38-.15ZM33.91,79.59c-1.86.16-3.7.35-5.49.57-.01-.4-.03-.81-.04-1.21-.01-.41-.03-.83-.04-1.24,1.8.24,3.65.43,5.53.56.01.45.02.9.04,1.33ZM33.45,54.26c.04,2.41.11,4.86.17,7.22.11,4.26.22,8.66.22,13-1.93-.13-3.81-.34-5.63-.6-.22-7.28-.36-14.99.18-22.74.25-3.66.67-7.26,1.24-10.72,1.24.09,2.54.15,3.91.18-.15,4.35-.18,8.84-.09,13.66ZM28.42,27.64c-.86,2.7-1.58,5.54-2.19,8.65-.79-.12-1.59-.25-2.42-.39-.2-.03-.4-.07-.6-.1,1.77-4.73,3.98-8.73,6.59-11.98-.55,1.29-.98,2.59-1.38,3.82ZM24.09,73.17c-2-.39-4.01-.84-6.16-1.33.07-8.73.6-15.75,1.65-22.07.61-3.66,1.41-7.13,2.39-10.31,1.06.17,2.22.34,3.56.53.01,0,.03,0,.04,0-.46,2.92-.83,6.01-1.12,9.39-.7,8.14-.59,16.18-.36,23.78ZM17.92,77.02c0-.41,0-.81,0-1.22,1.66.36,3.32.67,4.94.97.45.08.91.17,1.36.25.03.74.05,1.49.08,2.23l.05,1.47c-.19.03-.38.06-.57.09-1.96.32-3.93.7-5.86,1.08.01-1.63,0-3.28,0-4.88ZM16.81,34.46c.55-1.12,1.14-2.19,1.75-3.2,1.82-3,4.11-5.73,6.68-8.03-2.4,3.36-4.43,7.35-6.09,11.93-.88-.16-1.66-.37-2.34-.7ZM15.27,37.93c.9.39,1.82.64,2.7.83-.88,2.93-1.63,6.09-2.25,9.42-1.48,8.07-1.77,16.3-1.86,22.61-1.64-.51-3.01-1.09-4.28-1.78.14-7.03.91-13.58,2.36-20.01.95-4.22,2.05-7.86,3.33-11.06ZM87.8,78.42c-.77-.64-2.38-1.32-3.84-1.32-.26,0-.52.02-.76.06-.15-5.54-.46-10.7-.92-15.65-.79-8.4-2.32-15.61-4.65-22.05-5.4-14.89-16.37-25.2-29.36-27.5-.16-.03-.33-.06-.49-.08.02-.09.03-.17.05-.26.17-1.24-.41-2.43-1.53-3.17-.39-.26-.89-.46-1.43-.58.13-.36.22-.75.27-1.18.27-2.71-1.18-4.76-3.79-5.34-2.12-.47-4.16.16-5.51,1.69-1.2,1.37-1.75,3.27-1.53,5.21.01.46.2.9.51,1.23.53.55,1.23.61,1.55.61h0c.29,0,.55-.03.79-.06.18-.02.34-.04.44-.04.04,0,.08,0,.13,0,.21,0,.4-.02.58-.07-.04.52-.03,1.09.04,1.7-1.82.34-2.71.79-3.19,1.15-2.13.64-4.22,1.53-6.23,2.64-5.55,3.08-10.51,7.92-13.98,13.63-3.09,5.08-5.36,11.12-7.13,19-1.76,7.8-2.57,15.82-2.48,24.52v1.04c.03,1.98.08,4.02,0,6.01,0,.02,0,.05,0,.07-.08,0-.16,0-.24,0-.75,0-1.46.21-2.04.6-1.4.94-2.01,2.38-1.65,3.87.26,1.06,1.01,2.02,1.99,2.67-.25.8-.35,1.64-.18,2.35.75,3.14,4.1,4.51,5.19,4.96,2.56,1.05,5.28,1.63,7.63,2.09,1.15.22,2.33.47,3.47.72l.1.02c1.31.28,2.66.56,4,.82,6.78,1.29,13.61,1.94,20.32,1.94h0c7.84,0,15.43-.89,22.56-2.64,4.5-1.1,10.33-2.76,15.48-5.77,1.34-.78,3.84-2.25,4.38-4.77.06-.29.09-.59.08-.88,1.57-.77,2.66-2.13,2.87-3.62.2-1.38-.33-2.67-1.5-3.64ZM9.58,73.54v-.35c1.3.59,2.72,1.11,4.27,1.58,0,.57,0,1.13,0,1.7,0,1.74.01,3.54,0,5.31v.71c0,.09-.01.19-.01.28-1.22.31-2.52.74-3.75,1.39-.14.05-.28.11-.42.16-.13-1.41-.13-2.89-.09-4.59.05-2.07.03-4.15,0-6.19Z"/>
            <path class="cls-19" d="M77.51,81.52c-.15-2.71-.38-5.48-.7-8.42.63-.26,1.24-.54,1.82-.84.14,3.06.23,6.22.27,9.54-.44-.09-.91-.19-1.4-.28ZM76.32,69c-.15-1.18-.32-2.4-.5-3.63-.99-6.82-2.36-14.83-5.01-22.57-.79-2.29-1.67-4.52-2.63-6.66.01,0,.02,0,.03,0,.91-.25,1.88-.58,2.82-1.01.92,1.8,1.75,3.69,2.46,5.65,2.21,6.1,3.66,12.97,4.42,21,.18,1.92.34,3.95.48,6.05-.64.42-1.33.81-2.06,1.17ZM73.37,80.58c-2.05-.41-4.17-.74-6.42-1-.09-1.33-.17-2.59-.27-3.79,1.96-.33,4.07-.74,6.18-1.33.21,2.08.38,4.13.51,6.13ZM66.36,71.92c0-.08-.02-.15-.02-.23-.7-7.68-1.83-15.43-3.28-23.05-.72-3.76-1.52-7.18-2.45-10.41,1.23-.26,2.45-.56,3.65-.89,1.34,2.91,2.53,6,3.53,9.21,2.18,6.98,3.32,14.43,4.23,20.87.14.99.27,2.02.41,3.09-1.98.6-4.04,1.04-6.05,1.4ZM66.66,32.62c-.06.02-.11.04-.17.05-1.85-3.56-3.95-6.8-6.25-9.64-.93-1.15-1.91-2.22-2.91-3.22,4.55,2.77,8.56,6.82,11.78,11.95-.75.34-1.61.6-2.45.86ZM62.67,76.42c.07.92.14,1.84.2,2.75-2.32-.19-4.74-.3-7.31-.36,0-.47,0-.94,0-1.42,2.22-.26,4.57-.58,7.11-.97ZM59.16,28.24c1.19,1.77,2.31,3.65,3.36,5.61-.95.25-1.96.49-3.04.73-.94-2.82-1.97-5.46-3.14-8.02l-.25-.55c-.51-1.13-1.07-2.36-1.7-3.6,1.75,1.77,3.38,3.75,4.78,5.84ZM56.64,38.97c.98,3.44,1.85,7.24,2.71,11.82,1.29,6.9,2.29,14.23,3,21.8-2.34.37-4.62.68-6.83.95-.12-6.91-.47-14.02-1.06-21.16-.33-4.01-.88-8.24-1.67-12.86,1.3-.16,2.58-.34,3.85-.55ZM53.58,30.2c.69,1.64,1.33,3.33,1.93,5.12-1.11.18-2.24.34-3.4.48-.34-1.79-.71-3.62-1.11-5.48l-.19-.91c-.64-3.02-1.37-6.5-2.77-9.64.54.72,1.03,1.51,1.5,2.3,1.37,2.29,2.69,4.94,4.03,8.12ZM47.24,78.14c1.37-.08,2.78-.19,4.25-.32,0,.32,0,.64,0,.95-1.34,0-2.75.02-4.24.05,0-.23,0-.46,0-.68ZM47.14,74.31c-.25-5.98-.84-11.95-1.53-18.51-.11-1.08-.23-2.15-.35-3.23-.44-4.04-.89-8.2-1.17-12.32,1.58-.08,3.14-.18,4.65-.31.8,4.66,1.35,9,1.7,13.2.55,6.72.89,13.72,1.01,20.83-1.47.14-2.92.26-4.31.35ZM43.22,19.18c1.93,3.07,2.8,7.14,3.58,10.83l.22,1.06c.37,1.7.72,3.42,1.04,5.15-1.34.11-2.73.2-4.19.28,0-.25-.02-.5-.03-.74-.04-1.11-.06-2.22-.09-3.33-.05-2.18-.11-4.44-.24-6.67l-.07-1.17c-.12-1.85-.23-3.63-.23-5.4ZM39.36,6.81c-.05.07-.1.15-.15.22-.11-.3-.09-.59.22-.97.14-.17.34-.3.5-.37,0,.19-.11.43-.57,1.11ZM43.2,78.94c-.74.02-1.48.05-2.21.08-1.04.04-2.1.09-3.18.15,0-.29-.01-.58-.02-.85,1.75.04,3.54.04,5.41,0,0,.21,0,.42,0,.63ZM37.65,36.71c.05-.98.1-1.93.16-2.87.16-2.56.42-5.92,1.12-9.18.11-.5.23-.99.36-1.46.04.56.08,1.1.12,1.62.21,2.57.26,5.22.32,7.78.01.7.03,1.39.05,2.09.02.62.04,1.26.07,1.96-.77.03-1.5.04-2.19.06ZM37.5,40.47c.89-.01,1.76-.04,2.56-.06.29,4.22.74,8.45,1.18,12.56l.22,2.03c.73,6.9,1.36,13.16,1.63,19.52-1.82.06-3.58.06-5.31.02,0-4.55-.11-9.13-.23-13.58-.06-2.12-.11-4.24-.16-6.36-.1-4.72-.06-9.47.1-14.13ZM30.18,36.57c.5-2.46,1.08-4.86,1.74-7.15.78-2.74,1.84-5.85,3.71-8.09-.16.5-.31,1.04-.46,1.63-.85,3.29-1.15,6.74-1.36,9.71-.09,1.32-.17,2.65-.24,4.05-1.17-.03-2.3-.07-3.38-.15ZM33.77,79.45c-1.86.16-3.7.35-5.49.57-.01-.4-.03-.81-.04-1.21-.01-.41-.03-.83-.04-1.24,1.8.24,3.65.43,5.53.56.01.46.03.9.04,1.33ZM33.31,54.13c.04,2.41.11,4.86.17,7.22.11,4.26.22,8.66.22,13-1.92-.13-3.81-.34-5.63-.6-.22-7.28-.36-14.99.18-22.74.25-3.66.67-7.26,1.24-10.72,1.24.09,2.54.15,3.91.18-.15,4.35-.18,8.84-.09,13.66ZM28.27,27.5c-.86,2.7-1.58,5.54-2.19,8.65-.79-.12-1.59-.25-2.42-.39-.2-.03-.4-.07-.6-.1,1.77-4.73,3.98-8.73,6.59-11.98-.55,1.29-.98,2.59-1.38,3.82ZM23.95,73.03c-2-.39-4.01-.84-6.16-1.33.07-8.73.6-15.75,1.65-22.07.61-3.66,1.41-7.13,2.39-10.31,1.06.17,2.23.34,3.56.54.01,0,.03,0,.04,0-.46,2.92-.83,6.01-1.12,9.39-.69,8.14-.59,16.18-.35,23.78ZM17.78,76.88c0-.41,0-.81,0-1.22,1.66.36,3.32.67,4.94.97.45.08.91.17,1.36.25.03.74.05,1.49.08,2.23l.05,1.47c-.19.03-.38.06-.57.09-1.96.32-3.93.7-5.86,1.08.01-1.63,0-3.28,0-4.88ZM16.67,34.32c.55-1.12,1.14-2.19,1.75-3.2,1.82-3,4.11-5.73,6.68-8.03-2.4,3.36-4.43,7.35-6.09,11.93-.88-.16-1.66-.37-2.34-.71ZM15.13,37.79c.9.39,1.82.64,2.7.83-.88,2.93-1.63,6.09-2.25,9.42-1.48,8.07-1.77,16.3-1.86,22.61-1.64-.51-3.01-1.09-4.28-1.78.14-7.03.91-13.58,2.36-20.01.95-4.22,2.05-7.86,3.33-11.06ZM87.66,78.29c-.78-.64-2.38-1.32-3.84-1.32-.26,0-.52.02-.76.06-.15-5.54-.46-10.71-.92-15.65-.79-8.4-2.32-15.61-4.65-22.05-5.4-14.89-16.37-25.21-29.36-27.5-.16-.03-.33-.06-.49-.08.02-.09.03-.17.04-.26.17-1.24-.41-2.43-1.53-3.17-.39-.26-.89-.46-1.43-.58.12-.36.22-.75.27-1.18.27-2.71-1.18-4.76-3.79-5.34-2.12-.48-4.16.16-5.51,1.69-1.2,1.36-1.75,3.27-1.53,5.21.01.46.19.9.51,1.23.53.55,1.24.61,1.55.61h0c.29,0,.55-.03.79-.06.17-.02.34-.04.44-.04.04,0,.09,0,.13,0,.21,0,.4-.02.58-.07-.04.52-.03,1.09.04,1.7-1.82.34-2.71.79-3.19,1.15-2.13.64-4.22,1.53-6.23,2.64-5.55,3.08-10.51,7.92-13.98,13.63-3.09,5.09-5.36,11.12-7.13,19-1.76,7.8-2.57,15.82-2.48,24.52v1.04c.03,1.98.07,4.02,0,6.01,0,.02,0,.05,0,.07-.08,0-.16,0-.24,0-.76,0-1.46.21-2.04.6-1.39.94-2.01,2.38-1.65,3.87.26,1.06,1.01,2.02,1.99,2.67-.25.8-.35,1.64-.18,2.35.75,3.14,4.1,4.51,5.19,4.96,2.56,1.05,5.28,1.63,7.63,2.09,1.15.22,2.33.47,3.47.72l.1.02c1.31.28,2.66.56,4,.82,6.78,1.29,13.61,1.94,20.32,1.94h0c7.84,0,15.43-.89,22.56-2.64,4.5-1.11,10.33-2.76,15.48-5.77,1.34-.78,3.84-2.24,4.38-4.77.06-.29.09-.59.07-.88,1.57-.77,2.66-2.13,2.88-3.62.2-1.38-.33-2.67-1.5-3.63ZM9.43,73.41v-.35c1.3.59,2.72,1.11,4.27,1.58,0,.57,0,1.13,0,1.7,0,1.74.01,3.54,0,5.31v.72c0,.09-.01.19-.01.28-1.22.31-2.52.74-3.75,1.39-.14.05-.28.11-.42.16-.13-1.41-.13-2.88-.09-4.59.05-2.07.03-4.15,0-6.19Z"/>
            <path class="cls-16" d="M77.37,81.39c-.15-2.71-.38-5.48-.7-8.42.63-.26,1.24-.54,1.83-.84.14,3.06.23,6.22.27,9.54-.44-.09-.91-.19-1.39-.28ZM76.18,68.87c-.15-1.18-.32-2.4-.5-3.63-.99-6.82-2.36-14.83-5.01-22.57-.79-2.29-1.67-4.52-2.63-6.66.01,0,.02,0,.03,0,.9-.29,1.88-.58,2.82-1.01.92,1.8,1.75,3.69,2.46,5.65,2.21,6.1,3.66,12.97,4.42,21.01.18,1.92.34,3.95.48,6.05-.64.42-1.33.81-2.06,1.17ZM73.22,80.45c-2.05-.4-4.17-.74-6.42-1-.09-1.33-.17-2.59-.27-3.79,1.96-.33,4.07-.74,6.18-1.33.21,2.08.38,4.13.51,6.12ZM66.21,71.78c0-.08-.01-.15-.02-.23-.65-7.69-1.83-15.43-3.28-23.05-.72-3.76-1.52-7.18-2.45-10.41,1.23-.26,2.45-.56,3.65-.89,1.34,2.91,2.53,6,3.53,9.21,2.18,6.98,3.32,14.43,4.23,20.87.14.99.27,2.02.41,3.09-1.98.6-4.04,1.04-6.05,1.4ZM66.52,32.49c-.06.02-.11.04-.17.05-1.85-3.56-3.95-6.8-6.25-9.64-.93-1.15-1.92-2.22-2.91-3.22,4.55,2.77,8.56,6.82,11.78,11.95-.75.34-1.61.6-2.45.86ZM62.53,76.29c.07.92.14,1.84.2,2.75-2.32-.19-4.74-.3-7.31-.36,0-.47,0-.94,0-1.42,2.22-.26,4.57-.58,7.11-.97ZM59.02,28.11c1.19,1.77,2.31,3.66,3.36,5.61-.96.25-1.96.49-3.04.73-.94-2.82-1.97-5.46-3.14-8.02l-.25-.55c-.51-1.13-1.07-2.36-1.7-3.6,1.75,1.77,3.38,3.75,4.78,5.84ZM56.5,38.83c.98,3.44,1.85,7.24,2.71,11.82,1.29,6.9,2.29,14.23,3,21.8-2.34.37-4.62.68-6.83.95-.12-6.91-.47-14.02-1.06-21.16-.33-4.01-.88-8.24-1.67-12.86,1.3-.16,2.58-.34,3.85-.55ZM53.43,30.06c.69,1.64,1.33,3.33,1.93,5.12-1.11.18-2.24.34-3.4.48-.34-1.79-.71-3.62-1.11-5.48l-.19-.91c-.64-3.02-1.37-6.5-2.77-9.64.54.72,1.03,1.51,1.5,2.3,1.37,2.29,2.69,4.94,4.03,8.12ZM47.1,78.01c1.37-.08,2.78-.19,4.25-.32,0,.32,0,.64,0,.96-1.34,0-2.75.02-4.24.05,0-.23,0-.46,0-.68ZM46.99,74.18c-.24-5.98-.84-11.95-1.53-18.51-.11-1.08-.23-2.15-.35-3.23-.44-4.04-.89-8.2-1.17-12.32,1.58-.08,3.14-.18,4.65-.31.8,4.66,1.35,9,1.7,13.2.55,6.72.89,13.72,1.01,20.83-1.47.14-2.92.25-4.31.35ZM43.08,19.05c1.93,3.07,2.8,7.14,3.58,10.83l.22,1.06c.37,1.7.72,3.42,1.05,5.15-1.34.11-2.73.2-4.19.28,0-.25-.02-.5-.03-.74-.04-1.11-.06-2.22-.09-3.33-.05-2.18-.11-4.44-.24-6.67l-.07-1.17c-.12-1.85-.23-3.63-.23-5.4ZM39.21,6.68c-.05.07-.1.15-.15.22-.11-.3-.09-.59.22-.97.14-.17.34-.3.5-.37,0,.19-.12.43-.57,1.11ZM43.06,78.8c-.74.02-1.48.05-2.21.08-1.04.04-2.1.09-3.18.15,0-.29-.02-.58-.02-.85,1.75.04,3.54.04,5.41,0,0,.21,0,.42,0,.63ZM37.51,36.58c.05-.98.1-1.93.16-2.87.16-2.56.42-5.92,1.12-9.18.11-.5.23-.99.36-1.46.04.55.08,1.1.12,1.62.21,2.57.26,5.22.32,7.78.01.7.03,1.39.05,2.09.02.62.04,1.26.07,1.96-.77.03-1.5.04-2.19.06ZM37.35,40.33c.89-.01,1.76-.04,2.56-.06.29,4.22.74,8.45,1.18,12.56l.22,2.03c.73,6.9,1.36,13.16,1.63,19.52-1.82.06-3.58.06-5.31.02,0-4.55-.11-9.13-.23-13.58-.06-2.12-.11-4.24-.16-6.35-.1-4.72-.06-9.47.1-14.13ZM30.03,36.44c.5-2.46,1.08-4.86,1.74-7.15.78-2.74,1.84-5.85,3.7-8.09-.16.5-.31,1.04-.46,1.63-.85,3.29-1.15,6.74-1.36,9.71-.09,1.32-.17,2.65-.24,4.05-1.17-.03-2.3-.07-3.38-.15ZM33.62,79.32c-1.86.16-3.7.34-5.49.57-.01-.4-.03-.81-.04-1.21-.01-.41-.03-.83-.04-1.24,1.8.24,3.65.43,5.53.56.01.45.03.9.04,1.33ZM33.16,53.99c.04,2.41.11,4.86.17,7.22.11,4.26.22,8.66.22,13-1.93-.13-3.81-.33-5.63-.6-.22-7.28-.36-14.98.18-22.74.25-3.66.67-7.26,1.24-10.72,1.24.09,2.54.15,3.91.18-.15,4.35-.18,8.84-.09,13.66ZM28.13,27.37c-.86,2.7-1.58,5.54-2.19,8.65-.79-.12-1.59-.25-2.42-.39-.2-.03-.4-.07-.6-.1,1.77-4.73,3.98-8.73,6.59-11.98-.55,1.29-.98,2.59-1.38,3.82ZM23.81,72.9c-1.99-.39-4.01-.84-6.16-1.33.07-8.73.6-15.75,1.65-22.07.61-3.67,1.41-7.13,2.39-10.31,1.06.17,2.22.34,3.56.54.01,0,.03,0,.04,0-.46,2.92-.83,6.01-1.12,9.39-.7,8.14-.59,16.18-.36,23.78ZM17.64,76.75c0-.41,0-.81,0-1.22,1.66.36,3.32.67,4.94.97.45.08.91.17,1.36.25.03.74.05,1.49.08,2.23l.05,1.47c-.19.03-.38.06-.57.09-1.96.32-3.93.7-5.87,1.08.01-1.63,0-3.28,0-4.88ZM16.52,34.19c.55-1.12,1.14-2.19,1.75-3.2,1.82-3,4.11-5.73,6.68-8.02-2.4,3.36-4.43,7.35-6.09,11.93-.88-.16-1.66-.37-2.34-.7ZM14.98,37.66c.9.39,1.82.64,2.7.83-.88,2.93-1.63,6.09-2.25,9.42-1.48,8.07-1.77,16.3-1.86,22.61-1.64-.51-3.01-1.08-4.28-1.78.14-7.03.91-13.58,2.36-20.01.95-4.22,2.05-7.86,3.33-11.06ZM87.51,78.16c-.78-.64-2.38-1.32-3.84-1.32-.26,0-.52.02-.76.06-.15-5.54-.46-10.71-.92-15.65-.79-8.4-2.32-15.61-4.65-22.05-5.4-14.89-16.37-25.2-29.36-27.5-.16-.03-.33-.06-.49-.08.02-.09.03-.17.05-.26.17-1.24-.41-2.43-1.53-3.17-.39-.26-.89-.46-1.43-.58.12-.36.22-.75.27-1.18.27-2.71-1.18-4.76-3.79-5.34-2.12-.48-4.16.16-5.51,1.69-1.2,1.37-1.75,3.27-1.53,5.21.01.46.2.9.51,1.23.53.55,1.23.61,1.55.61h0c.29,0,.56-.03.79-.06.17-.02.34-.04.44-.04.04,0,.09,0,.13,0,.21,0,.4-.02.58-.07-.04.52-.03,1.09.04,1.7-1.81.34-2.71.79-3.19,1.15-2.13.64-4.22,1.53-6.23,2.64-5.55,3.08-10.51,7.92-13.98,13.63-3.09,5.09-5.36,11.12-7.13,19-1.76,7.8-2.57,15.82-2.48,24.52v1.04c.03,1.98.03,4.02,0,6.01,0,.02,0,.05,0,.07-.08,0-.16,0-.24,0-.76,0-1.46.21-2.05.6-1.39.94-2.01,2.38-1.65,3.87.26,1.06,1.01,2.02,1.99,2.67-.25.8-.35,1.64-.18,2.35.75,3.14,4.1,4.51,5.19,4.96,2.56,1.05,5.28,1.63,7.63,2.09,1.15.22,2.33.47,3.47.72l.1.02c1.31.28,2.66.56,4,.82,6.78,1.29,13.61,1.94,20.32,1.94h0c7.84,0,15.43-.89,22.56-2.64,4.5-1.11,10.33-2.76,15.48-5.77,1.34-.78,3.84-2.25,4.38-4.77.06-.29.09-.59.07-.88,1.57-.77,2.66-2.13,2.88-3.62.2-1.38-.33-2.67-1.5-3.64ZM9.29,73.27v-.35c1.3.59,2.72,1.11,4.27,1.58,0,.57,0,1.13,0,1.7,0,1.74.01,3.54,0,5.31v.71c0,.09-.01.19-.01.28-1.22.31-2.52.74-3.75,1.39-.14.05-.28.11-.42.16-.13-1.41-.13-2.89-.09-4.59.05-2.07.03-4.15,0-6.19Z"/>
            <path class="cls-20" d="M77.22,81.25c-.15-2.71-.38-5.48-.7-8.42.63-.26,1.24-.54,1.82-.84.14,3.06.23,6.22.27,9.54-.44-.09-.91-.19-1.4-.28ZM76.04,68.73c-.15-1.18-.32-2.4-.5-3.63-.99-6.82-2.36-14.83-5.01-22.56-.79-2.29-1.67-4.52-2.63-6.66.01,0,.02,0,.04-.01.9-.29,1.88-.58,2.82-1.01.93,1.8,1.75,3.69,2.46,5.65,2.21,6.1,3.66,12.97,4.42,21.01.18,1.92.34,3.95.48,6.05-.64.42-1.33.81-2.06,1.17ZM73.08,80.31c-2.05-.41-4.17-.74-6.42-1-.09-1.33-.18-2.59-.27-3.79,1.96-.33,4.07-.74,6.18-1.33.21,2.08.38,4.13.51,6.12ZM66.07,71.65c0-.08-.02-.15-.02-.23-.7-7.68-1.83-15.43-3.28-23.05-.72-3.76-1.53-7.18-2.45-10.41,1.23-.27,2.45-.56,3.65-.89,1.34,2.91,2.53,6,3.53,9.21,2.18,6.98,3.32,14.43,4.23,20.87.14.99.27,2.02.41,3.09-1.98.6-4.04,1.04-6.05,1.4ZM66.37,32.35c-.06.02-.11.04-.17.05-1.85-3.56-3.95-6.8-6.25-9.64-.93-1.15-1.92-2.22-2.91-3.22,4.54,2.77,8.56,6.82,11.78,11.95-.75.34-1.61.6-2.45.86ZM62.38,76.16c.07.92.14,1.84.2,2.75-2.32-.18-4.74-.3-7.31-.36,0-.47,0-.94,0-1.42,2.22-.26,4.57-.58,7.11-.97ZM58.87,27.97c1.19,1.77,2.31,3.65,3.36,5.61-.95.25-1.96.49-3.04.73-.94-2.82-1.97-5.46-3.14-8.02l-.25-.55c-.51-1.13-1.07-2.36-1.7-3.6,1.75,1.77,3.38,3.75,4.78,5.84ZM56.35,38.7c.98,3.44,1.85,7.24,2.71,11.82,1.29,6.9,2.29,14.23,3,21.8-2.34.37-4.62.68-6.83.95-.12-6.91-.47-14.02-1.06-21.16-.33-4.01-.88-8.24-1.67-12.86,1.3-.16,2.58-.34,3.85-.55ZM53.29,29.93c.69,1.64,1.33,3.33,1.93,5.12-1.11.18-2.24.34-3.39.48-.34-1.79-.71-3.62-1.11-5.48l-.19-.91c-.64-3.02-1.37-6.5-2.77-9.64.54.72,1.03,1.51,1.5,2.3,1.37,2.29,2.69,4.94,4.03,8.12ZM46.96,77.88c1.37-.08,2.78-.19,4.24-.32,0,.32,0,.64,0,.96-1.35,0-2.75.02-4.24.05,0-.23,0-.46,0-.68ZM46.85,74.05c-.24-5.98-.84-11.95-1.53-18.51-.11-1.08-.23-2.15-.35-3.23-.44-4.04-.89-8.2-1.17-12.32,1.58-.08,3.14-.18,4.65-.31.8,4.67,1.35,9,1.7,13.2.55,6.72.89,13.72,1.01,20.83-1.47.14-2.92.26-4.31.35ZM42.93,18.91c1.93,3.07,2.8,7.14,3.58,10.83l.22,1.06c.37,1.7.72,3.42,1.04,5.15-1.34.11-2.73.2-4.19.28,0-.25-.02-.5-.03-.74-.04-1.11-.06-2.22-.09-3.33-.05-2.18-.11-4.44-.24-6.67l-.07-1.17c-.12-1.85-.23-3.63-.23-5.4ZM39.07,6.54c-.05.07-.1.15-.15.22-.11-.3-.09-.59.22-.97.14-.17.34-.3.5-.37,0,.19-.12.43-.57,1.11ZM42.92,78.67c-.74.02-1.48.05-2.21.08-1.04.04-2.11.09-3.18.15,0-.29-.01-.58-.02-.85,1.75.04,3.54.04,5.41,0,0,.21,0,.42,0,.63ZM37.37,36.45c.05-.98.1-1.93.16-2.87.16-2.56.42-5.92,1.12-9.18.11-.5.23-.99.36-1.46.04.56.08,1.1.12,1.62.2,2.57.26,5.22.32,7.78.02.7.03,1.39.05,2.09.02.62.04,1.26.07,1.96-.77.03-1.5.04-2.19.06ZM37.21,40.2c.89-.02,1.76-.04,2.56-.06.29,4.22.74,8.45,1.18,12.56l.22,2.03c.73,6.9,1.36,13.16,1.63,19.52-1.82.05-3.58.06-5.31.02,0-4.55-.11-9.13-.23-13.58-.06-2.12-.11-4.24-.16-6.35-.1-4.72-.06-9.47.1-14.13ZM29.89,36.3c.5-2.46,1.08-4.86,1.74-7.15.78-2.74,1.84-5.85,3.71-8.09-.16.5-.31,1.04-.46,1.63-.85,3.29-1.15,6.74-1.36,9.71-.09,1.32-.17,2.65-.24,4.05-1.17-.02-2.3-.07-3.38-.14ZM33.48,79.19c-1.86.16-3.7.34-5.49.57-.01-.4-.03-.81-.04-1.21-.01-.41-.03-.83-.04-1.24,1.8.25,3.64.43,5.53.56.01.46.03.9.04,1.33ZM33.02,53.86c.04,2.41.11,4.86.17,7.22.11,4.26.22,8.66.23,13-1.93-.14-3.81-.34-5.63-.6-.22-7.28-.36-14.99.18-22.74.25-3.66.67-7.26,1.24-10.72,1.24.09,2.54.15,3.91.18-.15,4.35-.18,8.84-.09,13.66ZM27.99,27.24c-.86,2.7-1.58,5.54-2.19,8.65-.79-.12-1.59-.25-2.42-.39-.2-.03-.4-.07-.6-.1,1.77-4.73,3.98-8.73,6.59-11.98-.55,1.29-.98,2.59-1.38,3.82ZM23.66,72.77c-2-.39-4.01-.84-6.16-1.33.07-8.73.6-15.75,1.65-22.07.61-3.66,1.41-7.13,2.39-10.31,1.06.17,2.23.34,3.56.54.01,0,.03,0,.04,0-.46,2.92-.83,6.01-1.12,9.39-.69,8.14-.59,16.18-.35,23.78ZM17.49,76.62v-1.22c1.66.36,3.32.67,4.94.97.46.08.91.17,1.36.25.03.74.05,1.49.08,2.23l.05,1.47c-.19.03-.38.06-.57.09-1.97.31-3.93.7-5.86,1.08.01-1.63,0-3.28,0-4.88ZM16.38,34.06c.55-1.12,1.14-2.19,1.75-3.2,1.82-3,4.11-5.73,6.68-8.03-2.4,3.36-4.43,7.35-6.09,11.93-.88-.16-1.66-.37-2.34-.7ZM14.84,37.53c.9.39,1.82.64,2.7.83-.88,2.93-1.63,6.09-2.25,9.42-1.48,8.07-1.77,16.3-1.86,22.61-1.64-.51-3.01-1.08-4.28-1.78.14-7.03.91-13.58,2.36-20.01.95-4.22,2.05-7.86,3.33-11.06ZM87.37,78.02c-.78-.64-2.38-1.32-3.84-1.32-.26,0-.52.02-.76.06-.15-5.54-.46-10.71-.92-15.65-.79-8.4-2.32-15.61-4.65-22.05-5.4-14.89-16.37-25.21-29.36-27.5-.16-.03-.33-.06-.49-.08.02-.09.03-.17.04-.26.16-1.24-.41-2.43-1.53-3.17-.39-.26-.89-.46-1.43-.58.12-.36.22-.75.27-1.18.27-2.71-1.18-4.76-3.79-5.34-2.12-.48-4.16.16-5.51,1.69-1.2,1.36-1.75,3.27-1.53,5.21,0,.46.2.9.51,1.23.53.55,1.24.61,1.55.61h0c.29,0,.55-.03.79-.05.18-.02.34-.04.44-.04.04,0,.08,0,.13,0,.21,0,.4-.02.58-.07-.04.52-.03,1.09.04,1.7-1.82.34-2.71.79-3.19,1.15-2.13.64-4.22,1.53-6.23,2.64-5.55,3.08-10.52,7.92-13.98,13.63-3.09,5.09-5.36,11.12-7.13,19-1.76,7.8-2.57,15.82-2.48,24.52v1.04c.03,1.98.03,4.02,0,6.01,0,.02,0,.05,0,.07-.08,0-.16,0-.24,0-.76,0-1.46.21-2.04.6-1.39.94-2.01,2.38-1.65,3.87.26,1.06,1.01,2.02,1.99,2.67-.25.8-.35,1.64-.18,2.35.76,3.14,4.1,4.51,5.19,4.96,2.56,1.05,5.28,1.63,7.63,2.09,1.15.22,2.33.47,3.47.72l.1.02c1.31.28,2.66.56,4,.82,6.78,1.29,13.61,1.94,20.32,1.94h0c7.84,0,15.43-.89,22.56-2.64,4.5-1.11,10.33-2.76,15.48-5.77,1.34-.79,3.84-2.25,4.38-4.77.06-.29.09-.59.07-.88,1.57-.77,2.66-2.13,2.88-3.62.2-1.38-.33-2.67-1.5-3.64ZM9.15,73.14v-.35c1.3.59,2.72,1.11,4.27,1.58,0,.57,0,1.13,0,1.7,0,1.74.01,3.54,0,5.31v.72c0,.09-.01.19-.01.28-1.22.31-2.52.74-3.75,1.39-.14.05-.28.11-.42.16-.13-1.41-.13-2.88-.09-4.6.05-2.07.03-4.15,0-6.19Z"/>
            <path class="cls-18" d="M77.08,81.12c-.15-2.71-.38-5.48-.7-8.42.63-.26,1.24-.54,1.83-.84.14,3.06.23,6.22.27,9.54-.44-.09-.91-.19-1.39-.28ZM75.89,68.6c-.15-1.18-.32-2.4-.5-3.63-.99-6.82-2.36-14.83-5.01-22.56-.79-2.29-1.67-4.52-2.63-6.66.01,0,.02,0,.03-.01.9-.29,1.88-.58,2.82-1.01.92,1.8,1.75,3.69,2.46,5.65,2.21,6.1,3.66,12.97,4.42,21.01.18,1.92.34,3.95.48,6.05-.64.42-1.33.81-2.07,1.17ZM72.94,80.18c-2.05-.41-4.17-.74-6.42-1-.09-1.33-.17-2.59-.27-3.79,1.96-.33,4.07-.74,6.18-1.33.21,2.08.38,4.13.51,6.13ZM65.93,71.52c0-.08-.02-.15-.02-.23-.65-7.69-1.83-15.44-3.28-23.05-.72-3.76-1.52-7.18-2.45-10.41,1.23-.26,2.45-.56,3.65-.89,1.34,2.91,2.53,6,3.53,9.21,2.18,6.98,3.32,14.43,4.23,20.87.14.99.27,2.02.41,3.09-1.98.6-4.04,1.04-6.05,1.4ZM66.23,32.22c-.06.02-.11.04-.17.05-1.85-3.56-3.95-6.8-6.25-9.64-.93-1.15-1.92-2.22-2.91-3.22,4.55,2.77,8.56,6.82,11.78,11.95-.75.34-1.61.6-2.45.86ZM62.24,76.02c.07.92.14,1.84.2,2.75-2.32-.19-4.74-.3-7.31-.36,0-.47,0-.94,0-1.42,2.22-.26,4.57-.58,7.11-.97ZM58.73,27.84c1.19,1.77,2.31,3.66,3.36,5.61-.96.25-1.96.49-3.04.73-.94-2.83-1.97-5.46-3.14-8.02l-.25-.55c-.51-1.13-1.07-2.36-1.7-3.6,1.75,1.77,3.38,3.75,4.78,5.84ZM56.21,38.57c.98,3.44,1.85,7.24,2.71,11.82,1.29,6.9,2.29,14.23,3,21.8-2.34.37-4.62.68-6.83.95-.12-6.91-.47-14.02-1.06-21.16-.33-4.01-.88-8.23-1.67-12.86,1.3-.16,2.58-.35,3.85-.55ZM53.15,29.8c.69,1.64,1.33,3.33,1.93,5.12-1.11.18-2.24.34-3.4.48-.34-1.79-.71-3.62-1.11-5.48l-.19-.91c-.64-3.02-1.37-6.5-2.77-9.64.54.72,1.03,1.51,1.5,2.3,1.37,2.29,2.69,4.94,4.03,8.12ZM46.81,77.74c1.37-.08,2.78-.19,4.25-.32,0,.32,0,.64,0,.95-1.35,0-2.75.02-4.24.05,0-.23,0-.46,0-.68ZM46.71,73.91c-.24-5.98-.84-11.95-1.53-18.51-.12-1.08-.23-2.15-.35-3.23-.44-4.04-.89-8.2-1.17-12.32,1.58-.08,3.14-.18,4.65-.31.8,4.66,1.35,9,1.7,13.2.55,6.72.89,13.72,1.01,20.83-1.47.14-2.92.25-4.31.35ZM42.79,18.78c1.93,3.07,2.8,7.14,3.58,10.83l.22,1.06c.37,1.7.72,3.42,1.04,5.15-1.34.11-2.73.2-4.19.28,0-.25-.02-.5-.03-.74-.04-1.11-.06-2.22-.09-3.33-.05-2.18-.11-4.44-.24-6.67l-.07-1.17c-.12-1.85-.23-3.63-.23-5.4ZM38.93,6.41c-.05.07-.1.15-.15.22-.11-.3-.09-.58.22-.97.14-.17.34-.3.5-.37,0,.19-.12.43-.58,1.11ZM42.77,78.54c-.74.02-1.47.05-2.21.08-1.04.04-2.1.09-3.18.15,0-.29-.02-.58-.02-.85,1.75.04,3.54.04,5.41,0,0,.21,0,.42,0,.63ZM37.22,36.31c.05-.98.1-1.93.16-2.87.16-2.56.43-5.92,1.12-9.18.11-.5.23-.99.36-1.46.04.55.08,1.1.12,1.62.21,2.57.26,5.22.32,7.78.01.7.03,1.39.05,2.09.02.62.04,1.26.07,1.96-.77.03-1.5.04-2.19.06ZM37.06,40.07c.89-.01,1.76-.04,2.56-.06.29,4.22.74,8.45,1.18,12.56l.22,2.03c.73,6.9,1.36,13.16,1.63,19.52-1.82.06-3.58.06-5.31.02,0-4.55-.11-9.13-.23-13.58-.06-2.12-.11-4.24-.16-6.35-.1-4.72-.06-9.47.1-14.13ZM29.75,36.17c.5-2.46,1.08-4.86,1.74-7.15.78-2.74,1.84-5.85,3.7-8.09-.16.5-.31,1.04-.46,1.63-.85,3.29-1.15,6.74-1.36,9.71-.09,1.32-.17,2.65-.24,4.05-1.17-.03-2.29-.07-3.38-.15ZM33.34,79.05c-1.86.16-3.7.34-5.49.57-.01-.4-.03-.81-.04-1.21-.01-.41-.03-.83-.04-1.24,1.8.25,3.65.43,5.53.56.01.46.03.9.04,1.33ZM32.88,53.73c.04,2.41.11,4.86.17,7.22.11,4.26.22,8.66.22,13-1.93-.13-3.81-.34-5.63-.6-.22-7.28-.36-14.99.18-22.74.25-3.66.67-7.26,1.24-10.72,1.24.09,2.54.15,3.91.18-.15,4.35-.18,8.84-.09,13.66ZM27.84,27.11c-.86,2.7-1.58,5.54-2.19,8.65-.79-.12-1.59-.25-2.42-.39-.2-.03-.4-.07-.6-.1,1.77-4.73,3.97-8.73,6.59-11.98-.55,1.29-.98,2.59-1.38,3.82ZM23.52,72.63c-1.99-.39-4.01-.84-6.16-1.33.07-8.73.6-15.74,1.65-22.07.61-3.66,1.41-7.13,2.39-10.31,1.06.17,2.22.34,3.56.53.01,0,.03,0,.04,0-.46,2.92-.83,6.01-1.12,9.39-.7,8.14-.59,16.18-.36,23.78ZM17.35,76.49c0-.41,0-.81,0-1.22,1.66.36,3.32.67,4.94.97.45.08.91.17,1.36.25.03.74.05,1.49.08,2.23l.05,1.47c-.19.03-.38.06-.57.09-1.96.32-3.93.7-5.87,1.08.01-1.63,0-3.28,0-4.88ZM16.24,33.92c.55-1.12,1.14-2.19,1.75-3.2,1.82-3,4.11-5.73,6.68-8.03-2.4,3.36-4.43,7.35-6.09,11.93-.88-.16-1.66-.37-2.34-.71ZM14.7,37.39c.9.39,1.82.64,2.7.83-.88,2.93-1.63,6.09-2.25,9.42-1.48,8.07-1.77,16.3-1.86,22.61-1.64-.51-3.01-1.09-4.28-1.78.14-7.03.91-13.58,2.36-20.01.95-4.22,2.05-7.86,3.33-11.06ZM87.22,77.89c-.78-.64-2.38-1.32-3.84-1.32-.26,0-.52.02-.76.06-.15-5.54-.46-10.71-.92-15.65-.79-8.4-2.32-15.61-4.65-22.05-5.4-14.89-16.37-25.25-29.36-27.5-.16-.03-.33-.06-.49-.08.02-.09.03-.17.05-.26.16-1.24-.41-2.43-1.53-3.17-.39-.26-.89-.46-1.43-.58.12-.36.22-.75.27-1.18.27-2.71-1.18-4.76-3.79-5.34-2.12-.47-4.16.16-5.51,1.69-1.2,1.36-1.75,3.27-1.53,5.21.01.46.2.9.51,1.23.53.55,1.24.61,1.55.61h0c.29,0,.56-.03.79-.05.17-.02.34-.04.44-.04.04,0,.08,0,.13,0,.21,0,.4-.02.58-.07-.04.52-.03,1.09.04,1.7-1.81.34-2.71.79-3.19,1.15-2.13.64-4.22,1.53-6.23,2.64-5.55,3.08-10.51,7.92-13.98,13.63-3.09,5.08-5.36,11.12-7.13,19-1.76,7.8-2.57,15.82-2.48,24.52v1.04c.03,1.98.03,4.02,0,6.02,0,.02,0,.04,0,.07-.08,0-.16,0-.24,0-.76,0-1.46.21-2.04.6-1.39.94-2.01,2.38-1.65,3.87.26,1.06,1.01,2.02,1.99,2.67-.25.8-.35,1.64-.18,2.35.75,3.14,4.1,4.51,5.19,4.96,2.56,1.05,5.28,1.63,7.63,2.09,1.15.22,2.33.47,3.47.72l.1.02c1.31.28,2.66.56,4,.82,6.78,1.29,13.61,1.94,20.32,1.94h0c7.84,0,15.43-.89,22.56-2.64,4.5-1.11,10.33-2.76,15.48-5.77,1.34-.79,3.84-2.25,4.38-4.77.06-.29.09-.59.07-.88,1.57-.77,2.66-2.13,2.88-3.62.2-1.38-.33-2.67-1.5-3.64ZM9,73.01v-.35c1.3.59,2.72,1.11,4.27,1.58,0,.57,0,1.13,0,1.7,0,1.74.01,3.54,0,5.31v.72c0,.09-.01.19-.01.28-1.22.31-2.52.74-3.75,1.39-.14.05-.28.11-.42.16-.13-1.41-.13-2.89-.09-4.59.05-2.07.03-4.15,0-6.19Z"/>
            <path class="cls-4" d="M76.94,80.99c-.15-2.71-.38-5.48-.7-8.42.63-.26,1.24-.54,1.82-.84.14,3.06.23,6.22.27,9.54-.44-.1-.91-.19-1.39-.28ZM75.75,68.47c-.15-1.18-.32-2.4-.5-3.63-.99-6.82-2.36-14.83-5.01-22.56-.79-2.29-1.67-4.52-2.63-6.66.01,0,.02,0,.04,0,.9-.29,1.88-.58,2.82-1.01.93,1.8,1.75,3.69,2.46,5.65,2.21,6.1,3.66,12.97,4.42,21.01.18,1.92.34,3.95.48,6.05-.64.42-1.33.81-2.06,1.17ZM72.79,80.05c-2.05-.41-4.17-.74-6.42-1-.09-1.33-.18-2.59-.27-3.79,1.96-.33,4.07-.74,6.18-1.33.21,2.08.38,4.13.51,6.12ZM65.78,71.39c0-.08-.02-.15-.02-.23-.7-7.68-1.83-15.43-3.28-23.05-.72-3.76-1.53-7.18-2.45-10.41,1.23-.26,2.45-.56,3.65-.89,1.34,2.91,2.53,6,3.53,9.21,2.18,6.98,3.33,14.43,4.23,20.87.14.99.27,2.02.41,3.09-1.98.6-4.04,1.04-6.05,1.4ZM66.09,32.09c-.06.02-.11.04-.17.05-1.85-3.56-3.95-6.8-6.25-9.64-.93-1.15-1.91-2.22-2.9-3.22,4.54,2.77,8.56,6.82,11.78,11.95-.75.34-1.61.59-2.45.86ZM62.1,75.89c.07.92.14,1.84.2,2.75-2.32-.19-4.74-.3-7.31-.36,0-.47,0-.94,0-1.42,2.22-.26,4.57-.58,7.11-.97ZM58.59,27.71c1.19,1.77,2.31,3.65,3.36,5.61-.95.25-1.96.49-3.04.73-.94-2.83-1.97-5.46-3.14-8.02l-.25-.55c-.51-1.13-1.07-2.36-1.7-3.6,1.75,1.77,3.38,3.75,4.78,5.84ZM56.06,38.43c.98,3.44,1.85,7.24,2.71,11.82,1.29,6.9,2.29,14.23,3,21.8-2.34.37-4.62.68-6.83.95-.12-6.91-.47-14.02-1.06-21.16-.33-4.01-.88-8.24-1.67-12.86,1.3-.16,2.58-.35,3.85-.55ZM53,29.66c.69,1.64,1.33,3.33,1.93,5.12-1.11.18-2.24.34-3.39.48-.34-1.79-.71-3.62-1.11-5.48l-.19-.91c-.64-3.02-1.37-6.5-2.77-9.64.54.72,1.03,1.51,1.5,2.3,1.37,2.29,2.69,4.94,4.03,8.12ZM46.67,77.61c1.37-.08,2.78-.19,4.24-.32,0,.32,0,.64,0,.95-1.35,0-2.75.02-4.24.05,0-.23,0-.46,0-.68ZM46.56,73.78c-.24-5.98-.84-11.95-1.53-18.51-.11-1.08-.23-2.15-.35-3.23-.44-4.04-.89-8.2-1.17-12.32,1.58-.08,3.14-.18,4.65-.31.8,4.66,1.35,9,1.7,13.2.55,6.72.89,13.72,1.01,20.83-1.47.14-2.92.25-4.31.35ZM42.65,18.65c1.93,3.07,2.8,7.15,3.58,10.83l.22,1.06c.37,1.7.72,3.42,1.05,5.15-1.34.11-2.73.2-4.19.28-.01-.25-.02-.5-.03-.74-.04-1.11-.06-2.22-.09-3.33-.05-2.18-.11-4.44-.24-6.67l-.07-1.17c-.12-1.85-.23-3.63-.23-5.4ZM38.78,6.28c-.05.07-.1.15-.15.22-.11-.3-.09-.59.22-.97.14-.17.34-.3.5-.37,0,.19-.12.43-.57,1.11ZM42.63,78.4c-.74.03-1.47.05-2.21.08-1.04.04-2.11.09-3.18.15,0-.29-.01-.58-.02-.85,1.75.04,3.54.04,5.41,0,0,.21,0,.42,0,.63ZM37.08,36.18c.05-.98.1-1.93.16-2.87.16-2.56.42-5.92,1.12-9.18.11-.5.23-.99.36-1.46.04.56.08,1.1.12,1.62.21,2.57.26,5.22.32,7.78.02.7.03,1.39.05,2.09.02.62.04,1.26.07,1.96-.77.03-1.5.04-2.19.06ZM36.92,39.93c.89-.01,1.76-.04,2.56-.06.29,4.22.74,8.45,1.18,12.56l.22,2.03c.73,6.9,1.36,13.16,1.63,19.52-1.82.06-3.58.06-5.31.02,0-4.55-.11-9.13-.23-13.58-.06-2.12-.11-4.24-.16-6.35-.1-4.72-.06-9.47.1-14.13ZM29.6,36.04c.5-2.46,1.08-4.86,1.74-7.15.78-2.74,1.84-5.85,3.7-8.09-.16.5-.31,1.04-.46,1.63-.85,3.29-1.15,6.74-1.36,9.71-.09,1.32-.17,2.65-.24,4.05-1.17-.02-2.3-.07-3.38-.14ZM33.19,78.92c-1.86.16-3.7.35-5.49.57-.01-.4-.03-.81-.04-1.21-.01-.42-.03-.83-.04-1.24,1.8.24,3.64.43,5.53.56.01.45.03.9.04,1.33ZM32.73,53.59c.04,2.41.11,4.86.17,7.22.11,4.26.22,8.66.23,13-1.93-.13-3.81-.34-5.63-.6-.22-7.28-.36-14.98.18-22.74.25-3.66.67-7.26,1.24-10.72,1.24.09,2.54.15,3.91.18-.15,4.35-.18,8.84-.09,13.66ZM27.7,26.97c-.86,2.7-1.58,5.54-2.19,8.65-.79-.12-1.59-.25-2.42-.39-.2-.03-.4-.07-.6-.1,1.77-4.73,3.98-8.73,6.59-11.98-.55,1.29-.98,2.59-1.38,3.82ZM23.38,72.5c-2-.39-4.01-.84-6.16-1.33.07-8.73.6-15.74,1.65-22.07.61-3.66,1.41-7.12,2.39-10.31,1.06.17,2.22.34,3.56.54.01,0,.03,0,.04,0-.46,2.92-.83,6.01-1.12,9.39-.69,8.14-.59,16.18-.35,23.78ZM17.21,76.35c0-.41,0-.81,0-1.22,1.66.36,3.32.67,4.94.97.45.08.91.17,1.36.25.03.74.05,1.49.08,2.23l.05,1.46c-.19.03-.38.06-.57.09-1.96.32-3.94.7-5.87,1.08.01-1.63,0-3.28,0-4.88ZM16.09,33.79c.55-1.12,1.14-2.19,1.75-3.2,1.82-3,4.11-5.73,6.68-8.02-2.4,3.36-4.43,7.34-6.09,11.93-.88-.16-1.66-.37-2.34-.7ZM14.55,37.26c.9.39,1.82.64,2.7.83-.88,2.93-1.63,6.09-2.25,9.42-1.48,8.07-1.77,16.3-1.86,22.61-1.64-.51-3.01-1.09-4.28-1.78.14-7.03.91-13.58,2.36-20.01.95-4.22,2.05-7.86,3.33-11.06ZM87.08,77.76c-.78-.64-2.38-1.32-3.84-1.32-.26,0-.52.02-.76.06-.15-5.54-.46-10.71-.92-15.65-.79-8.4-2.32-15.61-4.65-22.05-5.4-14.89-16.37-25.21-29.36-27.5-.16-.03-.33-.06-.49-.08.02-.09.03-.17.04-.26.16-1.24-.41-2.43-1.53-3.17-.39-.26-.89-.46-1.43-.57.12-.36.22-.75.27-1.18.27-2.71-1.18-4.76-3.79-5.34-2.12-.47-4.16.16-5.51,1.69-1.2,1.37-1.75,3.27-1.53,5.21,0,.46.19.9.51,1.23.53.55,1.24.61,1.55.61h0c.29,0,.56-.03.79-.05.18-.02.34-.04.44-.04.04,0,.08,0,.13,0,.21,0,.4-.02.58-.07-.04.52-.03,1.09.04,1.7-1.81.34-2.71.79-3.19,1.15-2.13.64-4.22,1.53-6.23,2.64-5.55,3.08-10.52,7.92-13.98,13.63-3.09,5.08-5.36,11.12-7.13,19-1.76,7.8-2.57,15.82-2.48,24.52v1.04c.03,1.98.07,4.02,0,6.02,0,.02,0,.05,0,.07-.08,0-.16,0-.24,0-.76,0-1.46.21-2.05.6-1.39.94-2.01,2.38-1.65,3.87.26,1.06,1.01,2.02,1.99,2.67-.25.8-.35,1.64-.18,2.35.76,3.14,4.1,4.51,5.19,4.96,2.56,1.05,5.28,1.63,7.63,2.09,1.15.22,2.33.47,3.47.72l.1.02c1.31.28,2.66.56,4,.82,6.78,1.29,13.61,1.94,20.32,1.94h0c7.84,0,15.43-.89,22.56-2.64,4.5-1.11,10.33-2.76,15.48-5.77,1.34-.78,3.84-2.25,4.38-4.77.06-.29.09-.59.07-.88,1.57-.76,2.66-2.13,2.88-3.62.2-1.38-.33-2.67-1.5-3.64ZM8.86,72.87v-.35c1.3.59,2.72,1.11,4.27,1.58,0,.57,0,1.13,0,1.7,0,1.74.01,3.54,0,5.31v.72c0,.09-.01.19-.01.28-1.22.31-2.52.74-3.75,1.39-.14.05-.28.11-.42.16-.13-1.41-.13-2.88-.09-4.59.05-2.07.03-4.15,0-6.19Z"/>
            <path class="cls-2" d="M76.79,80.85c-.15-2.71-.38-5.48-.7-8.42.63-.26,1.24-.54,1.83-.84.14,3.06.23,6.22.27,9.54-.44-.1-.91-.19-1.39-.28ZM75.61,68.33c-.15-1.18-.32-2.4-.5-3.63-.99-6.82-2.36-14.83-5.01-22.57-.79-2.29-1.67-4.52-2.63-6.66.01,0,.02,0,.03,0,.9-.29,1.88-.58,2.82-1.01.92,1.8,1.75,3.69,2.46,5.65,2.21,6.1,3.66,12.97,4.42,21,.18,1.92.34,3.95.48,6.05-.64.42-1.33.81-2.06,1.17ZM72.65,79.91c-2.06-.41-4.17-.74-6.42-1-.09-1.33-.17-2.59-.27-3.79,1.96-.33,4.07-.74,6.18-1.33.21,2.08.38,4.13.51,6.13ZM65.64,71.25c0-.08-.02-.15-.02-.23-.7-7.68-1.83-15.43-3.28-23.05-.72-3.76-1.52-7.18-2.45-10.41,1.23-.26,2.45-.56,3.65-.89,1.34,2.91,2.53,6,3.53,9.21,2.18,6.98,3.32,14.43,4.23,20.87.14.99.27,2.02.41,3.09-1.98.6-4.04,1.04-6.05,1.4ZM65.94,31.95c-.06.02-.11.04-.17.05-1.85-3.56-3.95-6.8-6.25-9.64-.93-1.15-1.91-2.22-2.91-3.22,4.55,2.77,8.56,6.82,11.78,11.95-.75.34-1.61.6-2.45.86ZM61.95,75.76c.07.92.14,1.84.2,2.75-2.32-.19-4.74-.3-7.31-.36,0-.47,0-.94,0-1.42,2.22-.26,4.57-.58,7.11-.97ZM58.44,27.57c1.19,1.77,2.31,3.65,3.36,5.61-.95.25-1.96.49-3.04.73-.93-2.82-1.97-5.46-3.14-8.02l-.25-.55c-.51-1.13-1.07-2.36-1.7-3.6,1.75,1.77,3.38,3.75,4.78,5.84ZM55.92,38.3c.98,3.44,1.85,7.24,2.71,11.82,1.29,6.9,2.3,14.23,3,21.8-2.34.37-4.62.68-6.83.95-.12-6.91-.47-14.02-1.06-21.16-.33-4.01-.88-8.24-1.67-12.86,1.3-.16,2.58-.35,3.85-.55ZM52.86,29.53c.69,1.64,1.33,3.33,1.93,5.12-1.11.18-2.24.34-3.39.48-.34-1.79-.71-3.62-1.11-5.48l-.19-.91c-.64-3.03-1.37-6.5-2.77-9.64.54.72,1.03,1.51,1.5,2.3,1.37,2.29,2.69,4.94,4.03,8.12ZM46.52,77.48c1.37-.08,2.78-.19,4.24-.32,0,.32,0,.64,0,.96-1.34,0-2.75.02-4.24.05,0-.23,0-.46,0-.68ZM46.42,73.65c-.25-5.98-.84-11.95-1.53-18.51-.11-1.08-.23-2.15-.35-3.23-.44-4.04-.89-8.2-1.17-12.32,1.58-.08,3.14-.18,4.65-.31.8,4.66,1.35,9,1.7,13.2.55,6.72.89,13.72,1.01,20.83-1.47.14-2.92.25-4.31.35ZM42.5,18.51c1.93,3.07,2.8,7.14,3.58,10.83l.23,1.06c.37,1.7.72,3.42,1.04,5.15-1.34.11-2.73.2-4.19.28,0-.25-.02-.5-.03-.74-.04-1.11-.06-2.22-.09-3.33-.05-2.18-.11-4.44-.24-6.67l-.07-1.17c-.12-1.85-.23-3.63-.23-5.4ZM38.64,6.14c-.05.07-.1.15-.15.22-.11-.3-.09-.59.22-.97.14-.17.34-.3.5-.37,0,.19-.12.43-.57,1.11ZM42.49,78.27c-.74.02-1.47.05-2.21.08-1.04.04-2.1.09-3.18.15,0-.29-.02-.58-.02-.85,1.75.04,3.54.04,5.41,0,0,.21,0,.42,0,.63ZM36.94,36.04c.05-.98.1-1.93.16-2.87.16-2.56.42-5.92,1.12-9.18.11-.5.23-.99.36-1.46.03.56.08,1.1.12,1.62.21,2.57.26,5.22.32,7.78.01.7.03,1.39.05,2.09.02.62.04,1.26.07,1.96-.77.03-1.5.04-2.19.06ZM36.78,39.8c.9-.01,1.76-.04,2.56-.06.29,4.22.74,8.45,1.18,12.56l.22,2.03c.73,6.9,1.36,13.16,1.63,19.52-1.82.06-3.58.06-5.31.02,0-4.55-.11-9.13-.23-13.58-.06-2.12-.11-4.24-.16-6.36-.1-4.72-.06-9.47.1-14.13ZM29.46,35.9c.5-2.46,1.08-4.86,1.74-7.15.78-2.74,1.84-5.85,3.71-8.09-.16.5-.31,1.04-.46,1.63-.85,3.29-1.15,6.74-1.36,9.71-.09,1.32-.17,2.65-.24,4.05-1.17-.03-2.3-.07-3.38-.15ZM33.05,78.79c-1.86.16-3.7.35-5.49.57-.01-.4-.03-.81-.04-1.21-.01-.41-.03-.83-.04-1.24,1.8.24,3.64.43,5.53.56.01.46.03.9.04,1.33ZM32.59,53.46c.04,2.41.11,4.86.17,7.22.11,4.26.22,8.66.22,13-1.92-.13-3.81-.34-5.63-.6-.22-7.28-.36-14.98.18-22.74.25-3.66.67-7.26,1.24-10.72,1.24.09,2.54.15,3.91.18-.15,4.35-.18,8.84-.09,13.66ZM27.56,26.84c-.86,2.7-1.58,5.54-2.19,8.65-.79-.12-1.59-.25-2.42-.39-.2-.03-.4-.07-.6-.1,1.77-4.73,3.98-8.73,6.59-11.98-.55,1.29-.99,2.59-1.38,3.82ZM23.23,72.37c-2-.39-4.01-.84-6.16-1.33.07-8.73.6-15.75,1.65-22.07.61-3.66,1.41-7.13,2.39-10.31,1.06.17,2.22.34,3.56.54.01,0,.03,0,.04,0-.46,2.92-.83,6.01-1.12,9.39-.69,8.14-.59,16.18-.35,23.79ZM17.06,76.22c0-.41,0-.81,0-1.22,1.66.36,3.32.67,4.94.97.45.08.91.17,1.36.25.03.74.05,1.49.08,2.23l.05,1.47c-.19.03-.38.06-.57.09-1.97.31-3.93.7-5.87,1.08.01-1.63,0-3.28,0-4.88ZM15.95,33.66c.55-1.12,1.14-2.19,1.75-3.2,1.82-3,4.11-5.73,6.68-8.03-2.4,3.36-4.43,7.35-6.09,11.93-.88-.16-1.66-.37-2.34-.7ZM14.41,37.13c.9.39,1.82.64,2.7.83-.88,2.93-1.63,6.09-2.25,9.42-1.48,8.07-1.77,16.3-1.86,22.61-1.64-.51-3.01-1.09-4.28-1.79.14-7.03.91-13.58,2.36-20.01.95-4.22,2.05-7.86,3.33-11.06ZM86.94,77.62c-.78-.64-2.38-1.32-3.84-1.32-.26,0-.52.02-.76.06-.15-5.54-.46-10.71-.92-15.65-.79-8.4-2.32-15.61-4.66-22.05-5.4-14.89-16.37-25.2-29.36-27.5-.16-.03-.33-.06-.49-.08.02-.09.03-.17.04-.26.17-1.24-.41-2.43-1.53-3.17-.39-.26-.89-.46-1.43-.58.12-.36.22-.75.27-1.18.27-2.71-1.18-4.76-3.79-5.34-2.12-.48-4.16.16-5.51,1.69-1.2,1.36-1.75,3.27-1.53,5.21.01.46.2.9.51,1.23.53.55,1.24.61,1.55.61h0c.29,0,.56-.03.79-.06.17-.02.34-.04.44-.04.04,0,.08,0,.13,0,.21,0,.4-.02.58-.07-.04.52-.03,1.09.04,1.7-1.82.34-2.71.79-3.19,1.15-2.13.64-4.22,1.53-6.23,2.64-5.55,3.08-10.51,7.92-13.98,13.63-3.09,5.09-5.36,11.12-7.13,19-1.76,7.8-2.57,15.82-2.48,24.52v1.04c.03,1.98.07,4.02,0,6.02,0,.02,0,.05,0,.07-.08,0-.16,0-.24,0-.76,0-1.46.21-2.04.6-1.39.94-2.01,2.38-1.65,3.87.26,1.06,1.01,2.02,1.99,2.67-.25.8-.35,1.64-.18,2.35.75,3.14,4.1,4.51,5.19,4.96,2.56,1.05,5.28,1.63,7.63,2.09,1.16.22,2.33.47,3.47.72l.1.02c1.31.28,2.66.56,4,.82,6.78,1.29,13.61,1.94,20.32,1.94h0c7.84,0,15.43-.89,22.56-2.64,4.5-1.11,10.33-2.76,15.48-5.77,1.34-.79,3.84-2.24,4.38-4.77.06-.29.09-.59.07-.88,1.57-.77,2.66-2.13,2.88-3.62.2-1.38-.33-2.67-1.5-3.64ZM8.72,72.74v-.35c1.3.59,2.72,1.11,4.27,1.58,0,.57,0,1.13,0,1.7,0,1.74.01,3.54,0,5.31v.72c0,.09-.01.19-.01.28-1.22.31-2.52.74-3.75,1.39-.14.05-.28.11-.42.16-.13-1.41-.13-2.88-.09-4.59.05-2.07.03-4.15,0-6.19Z"/>
            <path class="cls-5" d="M76.65,80.72c-.15-2.71-.38-5.48-.7-8.42.63-.26,1.24-.54,1.83-.84.14,3.06.23,6.22.27,9.54-.44-.1-.91-.19-1.39-.28ZM75.46,68.2c-.15-1.18-.32-2.4-.5-3.63-.99-6.82-2.36-14.83-5.01-22.56-.79-2.29-1.67-4.52-2.63-6.66.01,0,.02,0,.03-.01.89-.32,1.88-.58,2.82-1.01.93,1.8,1.75,3.69,2.46,5.65,2.21,6.1,3.66,12.97,4.42,21.01.18,1.92.34,3.95.48,6.05-.64.42-1.33.81-2.07,1.17ZM72.51,79.78c-2.05-.41-4.18-.74-6.42-1-.09-1.33-.18-2.59-.27-3.79,1.96-.33,4.07-.74,6.18-1.33.21,2.08.38,4.13.51,6.12ZM65.5,71.12c0-.08-.02-.15-.02-.23-.74-7.68-1.83-15.43-3.28-23.05-.72-3.76-1.52-7.18-2.45-10.41,1.23-.26,2.45-.56,3.65-.89,1.34,2.91,2.53,6,3.53,9.21,2.18,6.98,3.33,14.43,4.23,20.87.14.99.27,2.02.41,3.09-1.98.6-4.04,1.04-6.05,1.4ZM65.8,31.82c-.06.02-.11.04-.17.05-1.85-3.56-3.95-6.8-6.25-9.64-.93-1.15-1.91-2.22-2.91-3.21,4.55,2.77,8.56,6.82,11.78,11.95-.75.34-1.61.59-2.45.86ZM61.81,75.62c.07.92.14,1.84.2,2.75-2.32-.18-4.74-.3-7.31-.36,0-.47,0-.94,0-1.42,2.22-.26,4.57-.58,7.11-.97ZM58.3,27.44c1.19,1.77,2.31,3.65,3.36,5.61-.95.25-1.96.49-3.04.72-.94-2.82-1.97-5.46-3.14-8.02l-.25-.55c-.51-1.13-1.07-2.36-1.7-3.6,1.75,1.77,3.38,3.75,4.78,5.84ZM55.78,38.17c.98,3.44,1.85,7.24,2.71,11.82,1.29,6.9,2.29,14.23,3,21.8-2.34.37-4.62.68-6.83.95-.12-6.91-.47-14.02-1.06-21.16-.33-4.01-.88-8.24-1.67-12.86,1.3-.16,2.58-.35,3.85-.55ZM52.72,29.4c.69,1.64,1.33,3.33,1.93,5.12-1.11.18-2.24.34-3.39.48-.34-1.79-.71-3.62-1.11-5.48l-.19-.91c-.64-3.02-1.37-6.5-2.77-9.64.54.72,1.03,1.51,1.5,2.3,1.37,2.29,2.69,4.94,4.03,8.12ZM46.38,77.34c1.37-.08,2.78-.19,4.24-.32,0,.32,0,.64,0,.96-1.35,0-2.75.02-4.24.05,0-.23,0-.46,0-.68ZM46.28,73.52c-.24-5.98-.84-11.96-1.53-18.51-.11-1.08-.23-2.15-.35-3.23-.44-4.04-.89-8.2-1.17-12.32,1.58-.08,3.14-.18,4.65-.31.8,4.66,1.35,9,1.7,13.2.55,6.72.89,13.72,1.01,20.83-1.47.14-2.92.26-4.31.35ZM42.36,18.38c1.93,3.07,2.8,7.14,3.58,10.83l.22,1.06c.37,1.7.72,3.42,1.05,5.15-1.34.11-2.73.2-4.19.28-.01-.25-.02-.5-.03-.74-.04-1.11-.06-2.22-.09-3.33-.05-2.18-.11-4.43-.24-6.67l-.07-1.17c-.12-1.85-.23-3.63-.23-5.4ZM38.5,6.01c-.05.07-.1.15-.15.22-.11-.3-.09-.59.22-.97.14-.17.34-.3.5-.37,0,.19-.11.44-.57,1.11ZM42.34,78.14c-.74.02-1.48.05-2.21.08-1.04.04-2.11.09-3.18.15,0-.29-.01-.58-.02-.85,1.75.04,3.54.04,5.4,0,0,.21,0,.42,0,.63ZM36.79,35.91c.05-.98.1-1.93.16-2.87.16-2.56.42-5.92,1.12-9.18.11-.5.23-.99.36-1.46.04.55.08,1.1.12,1.62.21,2.57.26,5.22.32,7.78.02.7.03,1.39.05,2.09.02.62.04,1.26.07,1.96-.77.03-1.5.04-2.19.06ZM36.63,39.67c.89-.02,1.76-.04,2.56-.06.29,4.22.75,8.45,1.18,12.56l.22,2.03c.73,6.9,1.36,13.16,1.63,19.52-1.82.05-3.58.06-5.31.02,0-4.55-.11-9.13-.23-13.58-.06-2.12-.11-4.24-.16-6.35-.1-4.72-.06-9.47.1-14.13ZM29.32,35.77c.5-2.46,1.08-4.86,1.74-7.15.79-2.74,1.84-5.85,3.71-8.09-.16.5-.31,1.04-.46,1.63-.85,3.29-1.15,6.74-1.36,9.71-.09,1.32-.17,2.65-.24,4.05-1.17-.02-2.3-.07-3.38-.14ZM32.91,78.65c-1.86.16-3.7.34-5.49.57-.01-.4-.03-.81-.04-1.21-.01-.41-.03-.83-.04-1.24,1.8.24,3.64.43,5.53.56.01.46.03.9.04,1.33ZM32.45,53.33c.04,2.41.11,4.86.17,7.22.11,4.26.22,8.66.23,13-1.93-.14-3.81-.34-5.63-.6-.22-7.28-.36-14.98.18-22.74.25-3.66.67-7.26,1.24-10.72,1.24.09,2.54.15,3.91.18-.15,4.35-.18,8.84-.09,13.66ZM27.41,26.7c-.86,2.7-1.58,5.54-2.19,8.65-.79-.12-1.59-.25-2.42-.39-.2-.03-.4-.07-.6-.1,1.77-4.73,3.97-8.73,6.59-11.98-.55,1.29-.98,2.59-1.38,3.82ZM23.09,72.23c-1.99-.39-4.01-.84-6.16-1.33.07-8.73.6-15.75,1.65-22.07.61-3.66,1.41-7.13,2.39-10.31,1.06.17,2.22.39,3.56.54.01,0,.03,0,.04,0-.46,2.92-.83,6.01-1.12,9.39-.69,8.14-.59,16.18-.36,23.78ZM16.92,76.09c0-.41,0-.81,0-1.22,1.66.36,3.32.67,4.94.97.45.08.91.17,1.36.25.03.74.05,1.49.08,2.23l.05,1.47c-.19.03-.38.06-.57.09-1.97.31-3.94.7-5.87,1.08.01-1.63,0-3.28,0-4.88ZM15.81,33.52c.55-1.12,1.14-2.19,1.75-3.2,1.82-3,4.1-5.73,6.68-8.02-2.4,3.36-4.43,7.35-6.09,11.93-.88-.16-1.66-.37-2.34-.7ZM14.27,36.99c.9.39,1.82.64,2.7.83-.88,2.93-1.63,6.09-2.24,9.42-1.48,8.07-1.77,16.3-1.86,22.61-1.64-.51-3.01-1.08-4.28-1.78.14-7.03.91-13.58,2.36-20.01.95-4.22,2.05-7.86,3.33-11.06ZM86.79,77.49c-.78-.64-2.38-1.32-3.84-1.32-.26,0-.52.02-.76.06-.15-5.54-.46-10.71-.92-15.65-.79-8.4-2.32-15.61-4.65-22.05-5.4-14.89-16.38-25.21-29.36-27.5-.16-.03-.33-.06-.49-.08.02-.09.03-.17.05-.26.17-1.24-.41-2.43-1.53-3.17-.39-.26-.89-.46-1.43-.58.12-.36.22-.75.27-1.18.27-2.71-1.18-4.76-3.79-5.34-2.12-.48-4.16.16-5.51,1.69-1.2,1.36-1.75,3.27-1.53,5.21.01.46.19.9.51,1.23.53.55,1.24.61,1.55.61h0c.29,0,.56-.03.79-.05.18-.02.34-.04.44-.04.04,0,.08,0,.13,0,.21,0,.4-.02.59-.07-.04.52-.03,1.09.04,1.7-1.81.34-2.71.79-3.19,1.15-2.13.64-4.23,1.53-6.23,2.64-5.55,3.08-10.51,7.92-13.98,13.63-3.09,5.09-5.36,11.12-7.13,19-1.76,7.8-2.57,15.82-2.48,24.52v1.04c.03,1.98.03,4.02,0,6.02,0,.02,0,.04,0,.07-.08,0-.16,0-.24,0-.76,0-1.46.2-2.05.6-1.39.94-2.01,2.38-1.65,3.87.26,1.06,1.01,2.02,1.99,2.67-.25.8-.35,1.64-.18,2.35.75,3.14,4.1,4.51,5.19,4.96,2.56,1.05,5.28,1.63,7.63,2.09,1.15.22,2.33.47,3.47.72l.1.02c1.31.28,2.66.56,4,.82,6.78,1.29,13.61,1.94,20.32,1.94h0c7.84,0,15.43-.89,22.56-2.64,4.5-1.11,10.33-2.76,15.48-5.77,1.34-.79,3.84-2.25,4.38-4.77.06-.29.09-.59.07-.88,1.57-.77,2.66-2.13,2.88-3.62.2-1.38-.33-2.67-1.5-3.64ZM8.57,72.61v-.35c1.3.59,2.72,1.11,4.27,1.58,0,.57,0,1.13,0,1.7,0,1.74.01,3.54-.01,5.31v.72c0,.09-.01.19-.01.28-1.22.31-2.52.74-3.75,1.39-.14.05-.28.11-.42.16-.13-1.41-.13-2.88-.09-4.6.05-2.07.03-4.15,0-6.19Z"/>
            <path class="cls-7" d="M76.5,80.59c-.15-2.71-.38-5.48-.7-8.42.63-.26,1.24-.54,1.83-.84.14,3.06.23,6.22.27,9.54-.44-.1-.91-.19-1.4-.28ZM75.32,68.07c-.15-1.18-.32-2.4-.5-3.63-.99-6.82-2.36-14.83-5.01-22.56-.79-2.29-1.67-4.52-2.63-6.66.01,0,.02,0,.03-.01.89-.32,1.88-.58,2.82-1.01.92,1.8,1.75,3.69,2.46,5.65,2.21,6.1,3.66,12.97,4.42,21,.18,1.92.34,3.95.48,6.05-.64.42-1.33.81-2.06,1.17ZM72.36,79.65c-2.06-.41-4.17-.74-6.42-1-.09-1.33-.18-2.59-.27-3.79,1.96-.33,4.07-.74,6.18-1.33.21,2.08.38,4.13.51,6.12ZM65.35,70.99c0-.08-.02-.15-.02-.23-.69-7.68-1.83-15.43-3.28-23.05-.72-3.76-1.52-7.18-2.45-10.41,1.24-.27,2.45-.56,3.65-.89,1.34,2.91,2.53,6,3.53,9.21,2.18,6.98,3.33,14.43,4.23,20.87.14.99.27,2.02.41,3.09-1.98.6-4.04,1.04-6.05,1.4ZM65.66,31.69c-.06.02-.11.04-.17.05-1.85-3.56-3.95-6.8-6.25-9.64-.93-1.15-1.91-2.22-2.91-3.22,4.55,2.77,8.56,6.82,11.78,11.95-.75.34-1.61.6-2.45.85ZM61.67,75.49c.07.92.14,1.84.2,2.75-2.32-.18-4.74-.3-7.31-.36,0-.47,0-.94,0-1.42,2.22-.26,4.57-.58,7.11-.97ZM58.16,27.31c1.19,1.77,2.31,3.65,3.36,5.61-.95.25-1.96.49-3.04.73-.93-2.82-1.97-5.46-3.14-8.02l-.25-.56c-.51-1.13-1.07-2.35-1.7-3.6,1.75,1.77,3.38,3.75,4.78,5.84ZM55.63,38.03c.98,3.44,1.85,7.25,2.71,11.82,1.29,6.9,2.3,14.23,3,21.8-2.34.37-4.62.68-6.83.95-.12-6.91-.47-14.02-1.06-21.16-.33-4.01-.88-8.24-1.67-12.86,1.3-.16,2.58-.35,3.85-.55ZM52.57,29.27c.69,1.64,1.33,3.33,1.93,5.12-1.11.18-2.24.34-3.39.48-.34-1.79-.71-3.63-1.11-5.48l-.19-.91c-.64-3.02-1.37-6.5-2.77-9.64.54.72,1.03,1.51,1.5,2.3,1.37,2.29,2.69,4.94,4.03,8.12ZM46.24,77.21c1.37-.08,2.78-.19,4.24-.32,0,.32,0,.64,0,.96-1.34,0-2.75.02-4.24.05,0-.23,0-.46,0-.68ZM46.13,73.38c-.24-5.98-.84-11.96-1.53-18.51-.11-1.08-.23-2.15-.35-3.23-.44-4.04-.89-8.2-1.17-12.32,1.58-.08,3.14-.18,4.65-.31.8,4.66,1.35,9,1.7,13.2.55,6.72.89,13.72,1.01,20.83-1.47.14-2.92.25-4.31.35ZM42.22,18.25c1.93,3.07,2.8,7.14,3.58,10.83l.23,1.06c.37,1.7.72,3.42,1.04,5.15-1.34.11-2.73.2-4.19.28,0-.25-.02-.5-.03-.74-.04-1.11-.06-2.22-.09-3.33-.05-2.18-.11-4.44-.24-6.67l-.07-1.17c-.12-1.85-.23-3.63-.23-5.4ZM38.35,5.88c-.05.07-.1.15-.15.22-.11-.3-.09-.59.22-.97.14-.17.34-.3.5-.37,0,.19-.11.44-.57,1.11ZM42.2,78c-.74.02-1.47.05-2.21.08-1.04.04-2.1.09-3.18.15,0-.29-.01-.58-.02-.85,1.75.04,3.54.04,5.41,0,0,.21,0,.42,0,.63ZM36.65,35.78c.05-.98.1-1.93.16-2.87.16-2.56.42-5.91,1.12-9.18.11-.5.23-.99.36-1.46.04.56.08,1.1.12,1.62.21,2.57.26,5.22.32,7.78.01.7.03,1.39.05,2.09.02.62.04,1.26.07,1.96-.77.03-1.5.04-2.19.06ZM36.49,39.53c.9-.02,1.76-.04,2.56-.06.29,4.22.74,8.45,1.18,12.56l.22,2.03c.73,6.9,1.36,13.16,1.63,19.52-1.82.06-3.58.06-5.31.02,0-4.55-.11-9.13-.23-13.58-.06-2.12-.11-4.24-.16-6.36-.1-4.72-.06-9.47.1-14.13ZM29.17,35.64c.5-2.46,1.08-4.86,1.74-7.15.78-2.74,1.84-5.85,3.71-8.09-.16.5-.31,1.04-.46,1.63-.85,3.29-1.15,6.74-1.36,9.71-.09,1.31-.17,2.65-.24,4.05-1.17-.03-2.3-.07-3.38-.15ZM32.76,78.52c-1.86.16-3.7.34-5.49.57-.01-.41-.03-.81-.04-1.21-.01-.41-.03-.83-.04-1.24,1.8.25,3.64.43,5.53.56.01.46.03.9.04,1.33ZM32.3,53.19c.04,2.41.11,4.86.17,7.22.11,4.26.22,8.66.23,13-1.93-.14-3.81-.34-5.63-.6-.22-7.28-.36-14.98.18-22.74.25-3.66.67-7.26,1.24-10.72,1.24.09,2.54.15,3.91.18-.15,4.35-.18,8.84-.09,13.66ZM27.27,26.57c-.86,2.7-1.58,5.54-2.19,8.65-.79-.12-1.59-.25-2.42-.39-.2-.03-.4-.07-.6-.1,1.77-4.73,3.98-8.73,6.59-11.98-.55,1.29-.99,2.59-1.38,3.82ZM22.95,72.1c-2-.39-4.01-.84-6.16-1.33.07-8.73.6-15.75,1.65-22.07.61-3.66,1.41-7.13,2.39-10.31,1.06.17,2.23.3,3.56.53.01,0,.03,0,.04,0-.46,2.92-.83,6.02-1.12,9.39-.69,8.14-.59,16.18-.35,23.78ZM16.77,75.95v-1.22c1.66.36,3.32.67,4.94.97.45.08.91.17,1.36.25.03.74.05,1.49.08,2.23l.05,1.47c-.19.03-.38.06-.57.09-1.97.31-3.93.7-5.87,1.08.01-1.63,0-3.28,0-4.88ZM15.66,33.39c.55-1.12,1.14-2.19,1.75-3.2,1.82-3,4.11-5.73,6.68-8.03-2.4,3.36-4.43,7.35-6.09,11.93-.88-.16-1.66-.37-2.34-.7ZM14.12,36.86c.9.39,1.82.64,2.7.83-.88,2.93-1.63,6.09-2.25,9.42-1.48,8.07-1.77,16.3-1.86,22.61-1.64-.51-3.01-1.08-4.28-1.78.14-7.03.91-13.58,2.36-20.01.95-4.22,2.05-7.86,3.33-11.06ZM86.65,77.36c-.78-.64-2.38-1.32-3.84-1.32-.26,0-.52.02-.76.06-.15-5.54-.46-10.71-.92-15.65-.79-8.4-2.32-15.61-4.65-22.05-5.4-14.89-16.38-25.18-29.36-27.5-.16-.03-.33-.06-.49-.08.02-.09.03-.17.04-.26.17-1.24-.41-2.43-1.53-3.17-.39-.26-.89-.46-1.43-.58.12-.36.22-.75.27-1.18.27-2.71-1.18-4.76-3.79-5.34-2.12-.48-4.16.16-5.51,1.69-1.2,1.36-1.75,3.27-1.53,5.21.01.46.19.9.51,1.23.53.55,1.24.61,1.55.61h0c.29,0,.56-.03.79-.05.17-.02.34-.04.44-.04.04,0,.08,0,.13,0,.21,0,.4-.02.58-.07-.04.52-.03,1.09.04,1.7-1.82.34-2.71.79-3.19,1.15-2.13.64-4.22,1.53-6.23,2.64-5.55,3.08-10.51,7.92-13.98,13.63-3.09,5.09-5.36,11.12-7.13,19-1.76,7.8-2.57,15.82-2.48,24.52v1.04c.03,1.98.03,4.02,0,6.02,0,.02,0,.05,0,.07-.08,0-.16,0-.24,0-.76,0-1.46.21-2.04.6-1.39.94-2.01,2.38-1.65,3.87.26,1.06,1.01,2.02,1.99,2.67-.25.8-.35,1.64-.18,2.35.75,3.14,4.1,4.51,5.19,4.96,2.56,1.05,5.28,1.63,7.63,2.09,1.15.22,2.33.47,3.47.71l.1.02c1.31.28,2.66.57,4,.82,6.78,1.29,13.61,1.94,20.32,1.94h0c7.84,0,15.43-.89,22.56-2.64,4.5-1.11,10.33-2.76,15.48-5.77,1.34-.79,3.84-2.25,4.38-4.77.06-.29.09-.59.07-.87,1.57-.77,2.66-2.13,2.88-3.62.2-1.38-.33-2.67-1.5-3.64ZM8.43,72.47v-.35c1.3.59,2.72,1.11,4.27,1.58,0,.57,0,1.13,0,1.7,0,1.74.01,3.54,0,5.31v.72c0,.09-.01.19-.01.28-1.22.31-2.52.74-3.75,1.39-.14.05-.28.11-.42.16-.13-1.41-.13-2.88-.09-4.59.05-2.07.03-4.15,0-6.19Z"/>
            <path class="cls-8" d="M76.36,80.45c-.15-2.71-.38-5.48-.7-8.42.63-.26,1.24-.54,1.83-.84.14,3.06.23,6.22.27,9.54-.44-.1-.91-.19-1.39-.28ZM75.18,67.93c-.15-1.18-.32-2.4-.5-3.63-.99-6.82-2.36-14.83-5.01-22.56-.79-2.29-1.67-4.52-2.63-6.66.01,0,.02,0,.03-.01.9-.28,1.88-.58,2.82-1.01.93,1.8,1.75,3.69,2.46,5.65,2.21,6.1,3.66,12.97,4.42,21.01.18,1.92.34,3.95.48,6.05-.64.42-1.33.81-2.06,1.17ZM72.22,79.51c-2.05-.41-4.17-.74-6.42-1-.09-1.33-.18-2.59-.27-3.79,1.96-.33,4.07-.74,6.18-1.33.21,2.08.38,4.13.51,6.13ZM65.21,70.85c0-.08-.02-.15-.02-.23-.72-7.68-1.83-15.43-3.28-23.05-.72-3.76-1.52-7.18-2.45-10.41,1.23-.26,2.45-.56,3.65-.89,1.34,2.91,2.53,6,3.53,9.21,2.18,6.98,3.33,14.43,4.23,20.87.14.99.27,2.02.41,3.09-1.98.6-4.04,1.04-6.05,1.4ZM65.51,31.55c-.06.02-.11.04-.17.05-1.85-3.56-3.95-6.8-6.25-9.64-.93-1.15-1.92-2.22-2.91-3.22,4.54,2.77,8.56,6.82,11.78,11.95-.75.34-1.61.6-2.45.86ZM61.52,75.36c.07.92.14,1.84.2,2.75-2.32-.18-4.74-.3-7.31-.36,0-.47,0-.94,0-1.42,2.22-.26,4.57-.58,7.11-.97ZM58.01,27.17c1.19,1.77,2.31,3.65,3.36,5.61-.95.25-1.96.49-3.04.73-.94-2.82-1.97-5.46-3.14-8.02l-.25-.55c-.51-1.13-1.07-2.36-1.7-3.6,1.75,1.77,3.38,3.75,4.78,5.84ZM55.49,37.9c.98,3.44,1.85,7.24,2.71,11.82,1.29,6.9,2.29,14.23,3,21.8-2.34.37-4.62.68-6.83.95-.12-6.91-.47-14.02-1.06-21.16-.33-4.01-.88-8.24-1.67-12.86,1.3-.16,2.58-.34,3.85-.55ZM52.43,29.13c.69,1.64,1.33,3.33,1.93,5.12-1.11.18-2.24.34-3.39.48-.34-1.79-.71-3.62-1.11-5.48l-.19-.91c-.64-3.02-1.37-6.5-2.77-9.64.54.72,1.03,1.51,1.5,2.3,1.37,2.29,2.69,4.94,4.03,8.12ZM46.09,77.08c1.37-.08,2.78-.19,4.24-.32,0,.32,0,.64,0,.96-1.34,0-2.75.02-4.24.05,0-.23,0-.46,0-.68ZM45.99,73.25c-.24-5.98-.84-11.96-1.53-18.51-.11-1.08-.23-2.15-.35-3.23-.44-4.04-.89-8.2-1.17-12.32,1.58-.08,3.14-.18,4.65-.31.8,4.66,1.35,9,1.7,13.2.55,6.72.89,13.72,1.01,20.83-1.47.14-2.92.25-4.31.35ZM42.07,18.11c1.93,3.07,2.8,7.14,3.58,10.83l.22,1.06c.37,1.7.72,3.42,1.04,5.15-1.34.11-2.73.2-4.19.28,0-.25-.02-.5-.03-.74-.04-1.11-.06-2.22-.09-3.33-.05-2.18-.11-4.44-.24-6.67l-.07-1.17c-.12-1.85-.23-3.63-.23-5.4ZM38.21,5.74c-.05.07-.1.15-.15.22-.11-.3-.09-.59.22-.97.14-.17.34-.3.5-.37,0,.19-.12.43-.57,1.11ZM42.06,77.87c-.74.02-1.47.05-2.21.08-1.04.04-2.1.09-3.18.15,0-.29-.01-.58-.02-.85,1.75.04,3.54.04,5.41,0,0,.21,0,.42,0,.63ZM36.51,35.65c.05-.98.1-1.93.16-2.87.16-2.56.42-5.92,1.12-9.18.11-.5.23-.99.36-1.46.04.56.08,1.1.12,1.62.21,2.57.26,5.22.32,7.78.01.7.03,1.39.05,2.09.02.62.04,1.26.07,1.96-.77.03-1.5.04-2.19.06ZM36.35,39.4c.89-.02,1.76-.04,2.56-.06.29,4.22.74,8.45,1.18,12.56l.22,2.03c.73,6.9,1.36,13.16,1.63,19.52-1.82.06-3.58.06-5.31.02,0-4.55-.11-9.13-.23-13.58-.06-2.12-.11-4.24-.16-6.35-.1-4.72-.06-9.47.1-14.13ZM29.03,35.5c.5-2.46,1.08-4.86,1.74-7.15.78-2.74,1.84-5.85,3.71-8.09-.16.5-.31,1.04-.46,1.63-.85,3.29-1.15,6.74-1.36,9.71-.09,1.32-.17,2.65-.24,4.05-1.17-.02-2.3-.07-3.38-.14ZM32.62,78.39c-1.86.16-3.7.34-5.49.57-.01-.4-.03-.81-.04-1.21-.01-.41-.03-.83-.04-1.24,1.8.25,3.64.43,5.53.56.01.46.03.9.04,1.33ZM32.16,53.06c.04,2.41.11,4.86.17,7.22.11,4.26.22,8.66.23,13-1.93-.14-3.81-.34-5.63-.6-.22-7.28-.36-14.98.18-22.74.25-3.66.67-7.26,1.24-10.72,1.24.09,2.54.15,3.91.18-.15,4.35-.18,8.84-.09,13.66ZM27.13,26.44c-.86,2.7-1.58,5.54-2.19,8.65-.79-.12-1.59-.25-2.42-.39-.2-.03-.4-.07-.6-.1,1.77-4.73,3.98-8.73,6.59-11.98-.55,1.29-.98,2.59-1.38,3.82ZM22.8,71.97c-2-.39-4.01-.84-6.16-1.33.07-8.73.6-15.75,1.65-22.07.61-3.66,1.41-7.13,2.39-10.31,1.06.17,2.22.34,3.56.54.01,0,.03,0,.04,0-.46,2.92-.83,6.01-1.12,9.39-.69,8.14-.59,16.18-.35,23.78ZM16.63,75.82v-1.22c1.66.36,3.32.67,4.94.97.45.08.91.17,1.36.25.03.74.05,1.49.08,2.23l.05,1.47c-.19.03-.38.06-.57.09-1.97.32-3.93.7-5.87,1.08.01-1.63,0-3.28,0-4.88ZM15.52,33.26c.55-1.12,1.14-2.19,1.75-3.2,1.82-3,4.11-5.73,6.68-8.03-2.4,3.36-4.43,7.35-6.09,11.93-.88-.16-1.66-.37-2.34-.7ZM13.98,36.73c.9.39,1.82.64,2.7.83-.88,2.93-1.63,6.09-2.25,9.42-1.48,8.07-1.77,16.3-1.86,22.61-1.64-.51-3.01-1.08-4.28-1.78.14-7.03.91-13.58,2.36-20.01.95-4.22,2.05-7.86,3.33-11.06ZM86.51,77.22c-.78-.64-2.38-1.32-3.84-1.32-.26,0-.52.02-.76.06-.15-5.54-.46-10.71-.92-15.65-.79-8.4-2.32-15.61-4.65-22.05-5.4-14.89-16.38-25.18-29.36-27.5-.16-.03-.33-.06-.49-.08.02-.09.03-.17.05-.26.16-1.24-.41-2.43-1.53-3.17-.39-.26-.89-.46-1.43-.58.12-.36.22-.75.27-1.18.27-2.71-1.18-4.76-3.79-5.34-2.12-.48-4.16.16-5.51,1.69-1.2,1.36-1.75,3.27-1.53,5.21.01.46.19.9.51,1.23.53.55,1.24.61,1.55.61h0c.29,0,.56-.03.79-.05.17-.02.34-.04.44-.04.04,0,.08,0,.13,0,.21,0,.4-.02.58-.07-.04.52-.03,1.09.04,1.7-1.81.34-2.71.79-3.19,1.15-2.13.64-4.22,1.53-6.23,2.64-5.55,3.08-10.51,7.92-13.98,13.63-3.09,5.09-5.36,11.12-7.13,19-1.76,7.8-2.57,15.82-2.48,24.52v1.04c.03,1.98.06,4.02,0,6.02,0,.02,0,.05,0,.07-.08,0-.16,0-.24,0-.76,0-1.46.2-2.04.6-1.39.94-2.01,2.38-1.65,3.87.26,1.06,1.01,2.02,1.99,2.67-.25.8-.35,1.64-.18,2.35.75,3.14,4.1,4.51,5.19,4.96,2.56,1.05,5.28,1.63,7.63,2.09,1.15.22,2.33.47,3.47.72l.1.02c1.31.28,2.66.56,4,.82,6.78,1.29,13.61,1.94,20.32,1.94h0c7.84,0,15.43-.89,22.56-2.64,4.5-1.11,10.33-2.76,15.48-5.77,1.34-.79,3.84-2.25,4.38-4.77.06-.29.09-.59.07-.88,1.57-.77,2.66-2.13,2.88-3.62.2-1.38-.33-2.67-1.5-3.64ZM8.29,72.34v-.35c1.3.59,2.72,1.11,4.27,1.58,0,.57,0,1.13,0,1.7,0,1.74.01,3.54,0,5.31v.72c0,.09-.01.19-.01.28-1.22.31-2.52.74-3.75,1.39-.14.05-.28.11-.42.16-.13-1.41-.13-2.88-.09-4.6.05-2.07.03-4.15,0-6.19Z"/>
          </g>
          <path class="cls-6" d="M86.51,77.22c-.78-.64-2.38-1.32-3.84-1.32-.26,0-.52.02-.76.06-.15-5.54-.46-10.71-.92-15.65-.79-8.4-2.32-15.61-4.65-22.05-5.4-14.89-16.38-25.18-29.36-27.5-.16-.03-.33-.06-.49-.08.02-.09.03-.17.05-.26.16-1.24-.41-2.43-1.53-3.17-.39-.26-.89-.46-1.43-.58.12-.36.22-.75.27-1.18.27-2.71-1.18-4.76-3.79-5.34-2.12-.48-4.16.16-5.51,1.69-1.2,1.36-1.75,3.27-1.53,5.21.01.46.19.9.51,1.23.53.55,1.24.61,1.55.61h0c.29,0,.56-.03.79-.05.17-.02.34-.04.44-.04.04,0,.08,0,.13,0,.21,0,.4-.02.58-.07-.04.52-.03,1.09.04,1.7-1.81.34-2.71.79-3.19,1.15-2.13.64-4.22,1.53-6.23,2.64-5.55,3.08-10.51,7.92-13.98,13.63-3.09,5.09-5.36,11.12-7.13,19-1.76,7.8-2.57,15.82-2.48,24.52v1.04c.03,1.98.06,4.02,0,6.02,0,.02,0,.05,0,.07-.08,0-.16,0-.24,0-.76,0-1.46.2-2.04.6-1.39.94-2.01,2.38-1.65,3.87.26,1.06,1.01,2.02,1.99,2.67-.25.8-.35,1.64-.18,2.35.75,3.14,4.1,4.51,5.19,4.96,2.56,1.05,5.28,1.63,7.63,2.09,1.15.22,2.33.47,3.47.72l.1.02c1.31.28,2.66.56,4,.82,6.78,1.29,13.61,1.94,20.32,1.94h0c7.84,0,15.43-.89,22.56-2.64,4.5-1.11,10.33-2.76,15.48-5.77,1.34-.79,3.84-2.25,4.38-4.77.06-.29.09-.59.07-.88,1.57-.77,2.66-2.13,2.88-3.62.2-1.38-.33-2.67-1.5-3.64ZM38.21,5.74c-.05.07-.1.15-.15.22-.11-.3-.09-.59.22-.97.14-.17.34-.3.5-.37,0,.19-.12.43-.57,1.11ZM8.29,72.34v-.35c1.3.59,2.72,1.11,4.27,1.58,0,.57,0,1.13,0,1.7,0,1.74.01,3.54,0,5.31v.72c0,.09-.01.19-.01.28-1.22.31-2.52.74-3.75,1.39-.14.05-.28.11-.42.16-.13-1.41-.13-2.88-.09-4.6.05-2.07.03-4.15,0-6.19ZM22.8,71.97c-2-.39-4.01-.84-6.16-1.33.07-8.73.6-15.75,1.65-22.07.61-3.66,1.41-7.13,2.39-10.31,1.06.17,2.22.34,3.56.54.01,0,.03,0,.04,0-.46,2.92-.83,6.01-1.12,9.39-.69,8.14-.59,16.18-.35,23.78ZM16.63,75.82v-1.22c1.66.36,3.32.67,4.94.97.45.08.91.17,1.36.25.03.74.05,1.49.08,2.23l.05,1.47c-.19.03-.38.06-.57.09-1.97.32-3.93.7-5.87,1.08.01-1.63,0-3.28,0-4.88ZM42.07,18.11c1.93,3.07,2.8,7.14,3.58,10.83l.22,1.06c.37,1.7.72,3.42,1.04,5.15-1.34.11-2.73.2-4.19.28,0-.25-.02-.5-.03-.74-.04-1.11-.06-2.22-.09-3.33-.05-2.18-.11-4.44-.24-6.67l-.07-1.17c-.12-1.85-.23-3.63-.23-5.4ZM72.22,79.51c-2.05-.41-4.17-.74-6.42-1-.09-1.33-.18-2.59-.27-3.79,1.96-.33,4.07-.74,6.18-1.33.21,2.08.38,4.13.51,6.13ZM45.99,73.25c-.24-5.98-.84-11.96-1.53-18.51-.11-1.08-.23-2.15-.35-3.23-.44-4.04-.89-8.2-1.17-12.32,1.58-.08,3.14-.18,4.65-.31.8,4.66,1.35,9,1.7,13.2.55,6.72.89,13.72,1.01,20.83-1.47.14-2.92.25-4.31.35ZM42.06,77.87c-.74.02-1.47.05-2.21.08-1.04.04-2.1.09-3.18.15,0-.29-.01-.58-.02-.85,1.75.04,3.54.04,5.41,0,0,.21,0,.42,0,.63ZM36.35,39.4c.89-.02,1.76-.04,2.56-.06.29,4.22.74,8.45,1.18,12.56l.22,2.03c.73,6.9,1.36,13.16,1.63,19.52-1.82.06-3.58.06-5.31.02,0-4.55-.11-9.13-.23-13.58-.06-2.12-.11-4.24-.16-6.35-.1-4.72-.06-9.47.1-14.13ZM46.09,77.08c1.37-.08,2.78-.19,4.24-.32,0,.32,0,.64,0,.96-1.34,0-2.75.02-4.24.05,0-.23,0-.46,0-.68ZM65.21,70.85c0-.08-.02-.15-.02-.23-.72-7.68-1.83-15.43-3.28-23.05-.72-3.76-1.52-7.18-2.45-10.41,1.23-.26,2.45-.56,3.65-.89,1.34,2.91,2.53,6,3.53,9.21,2.18,6.98,3.33,14.43,4.23,20.87.14.99.27,2.02.41,3.09-1.98.6-4.04,1.04-6.05,1.4ZM55.49,37.9c.98,3.44,1.85,7.24,2.71,11.82,1.29,6.9,2.29,14.23,3,21.8-2.34.37-4.62.68-6.83.95-.12-6.91-.47-14.02-1.06-21.16-.33-4.01-.88-8.24-1.67-12.86,1.3-.16,2.58-.34,3.85-.55ZM61.52,75.36c.07.92.14,1.84.2,2.75-2.32-.18-4.74-.3-7.31-.36,0-.47,0-.94,0-1.42,2.22-.26,4.57-.58,7.11-.97ZM52.43,29.13c.69,1.64,1.33,3.33,1.93,5.12-1.11.18-2.24.34-3.39.48-.34-1.79-.71-3.62-1.11-5.48l-.19-.91c-.64-3.02-1.37-6.5-2.77-9.64.54.72,1.03,1.51,1.5,2.3,1.37,2.29,2.69,4.94,4.03,8.12ZM32.62,78.39c-1.86.16-3.7.34-5.49.57-.01-.4-.03-.81-.04-1.21-.01-.41-.03-.83-.04-1.24,1.8.25,3.64.43,5.53.56.01.46.03.9.04,1.33ZM32.16,53.06c.04,2.41.11,4.86.17,7.22.11,4.26.22,8.66.23,13-1.93-.14-3.81-.34-5.63-.6-.22-7.28-.36-14.98.18-22.74.25-3.66.67-7.26,1.24-10.72,1.24.09,2.54.15,3.91.18-.15,4.35-.18,8.84-.09,13.66ZM29.03,35.5c.5-2.46,1.08-4.86,1.74-7.15.78-2.74,1.84-5.85,3.71-8.09-.16.5-.31,1.04-.46,1.63-.85,3.29-1.15,6.74-1.36,9.71-.09,1.32-.17,2.65-.24,4.05-1.17-.02-2.3-.07-3.38-.14ZM27.13,26.44c-.86,2.7-1.58,5.54-2.19,8.65-.79-.12-1.59-.25-2.42-.39-.2-.03-.4-.07-.6-.1,1.77-4.73,3.98-8.73,6.59-11.98-.55,1.29-.98,2.59-1.38,3.82ZM58.01,27.17c1.19,1.77,2.31,3.65,3.36,5.61-.95.25-1.96.49-3.04.73-.94-2.82-1.97-5.46-3.14-8.02l-.25-.55c-.51-1.13-1.07-2.36-1.7-3.6,1.75,1.77,3.38,3.75,4.78,5.84ZM36.51,35.65c.05-.98.1-1.93.16-2.87.16-2.56.42-5.92,1.12-9.18.11-.5.23-.99.36-1.46.04.56.08,1.1.12,1.62.21,2.57.26,5.22.32,7.78.01.7.03,1.39.05,2.09.02.62.04,1.26.07,1.96-.77.03-1.5.04-2.19.06ZM76.36,80.45c-.15-2.71-.38-5.48-.7-8.42.63-.26,1.24-.54,1.83-.84.14,3.06.23,6.22.27,9.54-.44-.1-.91-.19-1.39-.28ZM75.18,67.93c-.15-1.18-.32-2.4-.5-3.63-.99-6.82-2.36-14.83-5.01-22.56-.79-2.29-1.67-4.52-2.63-6.66.01,0,.02,0,.03-.01.9-.28,1.88-.58,2.82-1.01.93,1.8,1.75,3.69,2.46,5.65,2.21,6.1,3.66,12.97,4.42,21.01.18,1.92.34,3.95.48,6.05-.64.42-1.33.81-2.06,1.17ZM65.51,31.55c-.06.02-.11.04-.17.05-1.85-3.56-3.95-6.8-6.25-9.64-.93-1.15-1.92-2.22-2.91-3.22,4.54,2.77,8.56,6.82,11.78,11.95-.75.34-1.61.6-2.45.86ZM15.52,33.26c.55-1.12,1.14-2.19,1.75-3.2,1.82-3,4.11-5.73,6.68-8.03-2.4,3.36-4.43,7.35-6.09,11.93-.88-.16-1.66-.37-2.34-.7ZM13.98,36.73c.9.39,1.82.64,2.7.83-.88,2.93-1.63,6.09-2.25,9.42-1.48,8.07-1.77,16.3-1.86,22.61-1.64-.51-3.01-1.08-4.28-1.78.14-7.03.91-13.58,2.36-20.01.95-4.22,2.05-7.86,3.33-11.06Z"/>
          <g>
            <path class="cls-10" d="M51.71,79.69c-9.03-.07-17.77.2-26.56,1.53,0,0-10.61.83-18.03,4.37h0c.03.15-.51.24-.54.08,0,0,0-.02,0-.02-.02.02-.05.05-.07.09.11.05.18.12.13.17-.3.32-.54.75-.34,1.2.66,1.47,3.07,2.13,4.45,2.61,2.13.73,4.32,1.29,6.52,1.79,5.78,1.32,11.62,2.54,17.54,2.97,8.52.62,17.15.11,25.52-1.58,4.3-.87,8.56-2.01,12.71-3.44,2.06-.71,4.17-1.4,5.87-2.78.75-.61,2.8-2.64.97-3.14v.23c0,.17-.54.22-.54.08,0-.18,0-.36,0-.55,0-.01,0-.03,0-.04,0-.08,0-.17,0-.25-1.45-.59-5.04-1.07-7.52-1.64-2.48-.57-11.09-1.61-20.12-1.68Z"/>
            <path class="cls-22" d="M50.08,80.76c-7.75-.06-15.25.17-22.78,1.31,0,0-9.1.71-15.46,3.75h0c.03.13-.44.21-.46.07,0,0,0-.01,0-.01-.02.02-.04.05-.06.07.09.04.16.1.11.15-.26.28-.46.65-.29,1.03.57,1.26,2.63,1.83,3.82,2.23,1.83.63,3.71,1.11,5.59,1.54,4.96,1.13,9.97,2.18,15.05,2.54,7.31.53,14.71.09,21.9-1.36,3.69-.75,7.34-1.72,10.91-2.95,1.77-.61,3.57-1.2,5.04-2.39.65-.53,2.4-2.27.83-2.69v.2c0,.14-.46.19-.46.07,0-.16,0-.31,0-.47,0-.01,0-.02,0-.03,0-.07,0-.14,0-.21-1.25-.51-4.33-.92-6.45-1.41-2.12-.49-9.51-1.38-17.26-1.44Z"/>
            <path class="cls-14" d="M9.21,85.81s6.87-4.95,35.13-5.55c0,0-26.52,1.24-35.13,5.55Z"/>
            <path class="cls-1" d="M42.63,96.77c-6.57,0-13.29-.64-20-1.91-1.33-.25-2.69-.54-3.99-.82-1.17-.25-2.38-.5-3.57-.74-2.26-.44-4.88-.99-7.3-1.99-1.55-.63-3.66-1.71-4.15-3.74-.2-.81.43-2.62,1.34-3.36.31-.25.65-.38.99-.36-.19-1.68-.2-3.38-.15-5.38.05-2.04.03-4.1,0-6.1v-1.01c-.1-8.56.7-16.44,2.43-24.11,1.73-7.69,3.93-13.56,6.92-18.47,3.31-5.45,8.04-10.07,13.33-13,5.82-3.23,12.1-4.36,18.17-3.27,12.35,2.21,22.83,12.07,28.01,26.37,2.29,6.3,3.78,13.37,4.55,21.62.64,6.73.97,13.87,1.02,21.83.01,0,.03.02.05.03.38.09.71.18,1.01.28,1.45.14,3.25-.52,3.67-1.75.35-1.05-.49-1.77-1.31-2.06-.43-.15-1.15-.12-1.44.15-.08.08-.16.19-.09.46.08.28.19.47.35.57.03.01.05.02.08.03,0,0,0-.02,0-.02,0-.04-.06-.42.46-.51.41-.07.51-.06.94,0,.09.01.37.04.48.29.06.13.04.28-.04.39-.52.75-1.58,1.06-2.45.72-.75-.29-1.15-.99-1.04-1.82.08-.6.4-1.03.93-1.24,1.15-.45,2.95.27,3.56.77h0c.86.71.95,1.49.87,2.02-.14.97-.98,1.91-2.13,2.4-.34.14-.8.31-1.34.42.59.54.63,1.12.54,1.56-.38,1.76-2.36,2.92-3.55,3.62-4.95,2.89-10.62,4.5-15.01,5.58-7.02,1.72-14.48,2.59-22.14,2.59ZM5.9,84.55c-.13,0-.29.05-.49.21-.72.58-1.22,2.12-1.09,2.65.41,1.71,2.32,2.68,3.73,3.25,2.35.97,4.93,1.51,7.16,1.95,1.2.23,2.41.49,3.58.74,1.3.28,2.65.56,3.98.82,14.41,2.74,28.88,2.51,41.83-.67,4.34-1.07,9.95-2.65,14.83-5.5,1.08-.63,2.9-1.7,3.21-3.16.04-.19.17-.77-.97-1.31l-.42-.2s-.04,0-.06,0l-.08-.02c-.3-.1-.63-.2-1.02-.28l-.08-.03c-.11-.05-.21-.12-.32-.19l-.15-.1v-.18c-.05-8.02-.38-15.2-1.02-21.96-.77-8.19-2.25-15.2-4.52-21.44-5.1-14.06-15.37-23.74-27.47-25.92-5.91-1.06-12.03.04-17.7,3.19-5.18,2.87-9.82,7.4-13.07,12.75-2.95,4.85-5.12,10.65-6.83,18.26-1.72,7.61-2.51,15.44-2.42,23.95v1.01c.03,2,.06,4.08,0,6.13-.05,2.17-.04,3.99.21,5.81l.13.97-.72-.66c-.06-.03-.14-.05-.23-.05Z"/>
            <path class="cls-21" d="M81.16,83.21c-.44-.03-.87-.12-1.26-.3v.04s.06.06.09.09c.03.03-.01.07-.09.09,0,.05,0,.11,0,.16.59.12,1.18.36,1.28,1.02.12.79-.84,1.76-1.36,2.21-2.66,2.34-6.45,3.27-9.78,4.26-15.81,4.74-32.51,5.47-48.62,1.83-3.45-.78-6.93-1.43-10.3-2.55-1.21-.4-7.02-2.16-4.96-4.35.06-.06.23-.03.36.03.02-.03.05-.06.07-.09-.08-.41-.15-.83-.21-1.24-.05.05-.3.06-.4,0-.29-.14-1.37,1.98-1.42,2.26-.16.85.06,1.61.64,2.25,1.13,1.23,2.77,1.92,4.33,2.43,2.44.79,4.95,1.25,7.46,1.73,3,.58,5.96,1.3,8.99,1.76,7.34,1.12,14.81,1.51,22.22,1.08,7.53-.44,15.09-1.64,22.23-4.1,3.1-1.06,6.4-2.24,9.17-4.01.95-.61,2.18-1.4,2.66-2.48.5-1.12-.2-1.75-1.11-2.12Z"/>
            <path class="cls-1" d="M5.88,83.94c-1.37,1.25-3.67-.01-3.57-1.8.05-.88.89-1.62,1.75-1.66.63-.03,1.02.78,1.03,1.31,0,.17-.08.33-.17.46-.19.27-.17.21-.15-.07.01-.17-.52-.27-.53-.13-.06,1.01,1.4.69,1.39-.29-.01-1.41-1.89-1.88-2.88-1.21-2.9,1.95,1.42,5.61,3.64,3.57.11-.1-.38-.29-.5-.18h0Z"/>
            <path class="cls-1" d="M44.95,12.68c-1.08-.95-2.86-.99-4.39-.88.03-.02.05-.05.04-.08-.19-1.24-.1-2.37.35-3.56.36-.95,1.02-1.79,1.13-2.84.18-1.8-.68-3.05-2.42-3.44-3.28-.73-5.27,2.12-4.88,5.1,0,0,0,0,0,0,0,.01-.01.02-.01.03,0,.1.21.12.27.12.42,0,.84-.08,1.26-.09.01,0,.04,0,.07-.01.13.02.25,0,.21-.06-.57-1.08-.43-2.15.34-3.09.9-1.1,2.88-1.7,3.49,0,.57,1.58-.7,2.56-1.34,3.82-.59,1.16-.25,3,.06,4.22-1.02.11-4.92.61-4.45,1.73.03.06.13.11.24.13,1.33,1,3.21,1.15,4.81,1.11,1.79-.05,4.14-.47,5.23-2.05.02-.03,0-.06-.02-.09.03-.01.04-.04,0-.07Z"/>
            <path class="cls-3" d="M39.41,8.46c.13-.92.88-1.63,1.35-2.39.64-1.04.33-2.88-.9-3.36-2.45-.95-4.99,1.78-3.83,4.12-.24.01-.48.04-.72.06h0c-.18-1.36-.03-2.65.82-3.76,1.35-1.76,4.33-1.37,5.23.55.63,1.35-.13,2.89-.75,4.09-.67,1.27-.77,2.65-.55,4.04,0,0,0,.01.02.02-.15.01-.3.03-.44.04-.27-1.11-.38-2.28-.23-3.41Z"/>
            <path class="cls-1" d="M40.06,10.81c.47,1.3,2.09,1.42,3.23,1.03,1.39-.47,2.16-2.17.72-3.12-.88-.59-3.44-.74-2.95.99.27.95,2.6,1.22,1.82.06-.08-.12-.6-.2-.48-.02.44.66-.36.65-.71.24-.33-.38-.11-.96.23-1.23.96-.78,2.37.22,2.35,1.3-.02,1.63-3.1,2.49-3.69.84-.06-.15-.57-.22-.52-.09h0Z"/>
            <path class="cls-14" d="M81.7,85.07s-4.65,7.24-30.23,9.77c0,0,22.98-.72,30.23-9.77Z"/>
            <g>
              <path class="cls-1" d="M12.73,33.86c1.36,1.27,3.12,1.75,4.91,2.08,2.27.42,4.57.77,6.85,1.09,5.58.8,11.24.67,16.86.45,5.43-.21,10.84-.72,16.18-1.73,2.73-.52,5.43-1.19,8.07-2.07,1.69-.56,3.65-1.02,5.09-2.12.1-.07-.38-.22-.52-.12-1.48,1.14-3.52,1.57-5.26,2.15-2.37.78-4.81,1.36-7.26,1.86-5.24,1.07-10.59,1.54-15.92,1.78-5.04.23-10.13.35-15.16-.17-2.33-.24-4.61-.71-6.92-1.04-2.26-.33-4.69-.6-6.44-2.22-.11-.1-.63-.09-.48.05h0Z"/>
              <path class="cls-1" d="M5.97,68.76c5.24,3.33,11.63,4.26,17.64,5.39,6.83,1.29,13.77,1.56,20.71,1.25,6.54-.29,13.05-1.15,19.52-2.19,5.43-.87,11.2-2.01,15.72-5.34.12-.09-.35-.32-.48-.22-4.28,3.15-9.68,4.29-14.82,5.17-6.17,1.06-12.4,1.84-18.65,2.23-6.84.42-13.74.27-20.5-.86-3.14-.53-6.25-1.23-9.35-1.94-3.4-.78-6.49-1.69-9.46-3.58-.14-.09-.62-.1-.32.09h0Z"/>
              <path class="cls-1" d="M35.17,14.07c-11.7,6.56-16.71,20.74-19,33.22-1.36,7.42-1.74,14.99-1.83,22.52-.05,3.59.03,7.19-.02,10.78-.04,3.51-.15,7.09.57,10.54.04.17.57.14.55.02-.66-3.16-.61-6.43-.58-9.64.04-3.57,0-7.14.02-10.71.06-7.53.44-15.09,1.68-22.53,2.12-12.71,7.19-27.4,19.09-34.07.17-.09-.34-.2-.47-.13h0Z"/>
              <path class="cls-1" d="M36.67,14.79c-1.38,1.38-2.74,2.78-4.01,4.26-1.9,2.22-2.97,5.18-3.85,7.92-2.18,6.85-3.28,14.22-3.89,21.36-1.28,15.05.2,30.11.23,45.17,0,.14.54.1.54-.07-.03-14.55-1.35-29.07-.35-43.62.51-7.38,1.69-14.83,3.73-21.95.87-3.03,2.02-6.32,4.07-8.76,1.25-1.49,2.63-2.88,4.01-4.26.15-.15-.38-.15-.48-.05h0Z"/>
              <path class="cls-1" d="M39.06,15.15c.08-.06.15-.11.23-.17-.17-.03-.33-.06-.5-.09-.72.96-1.12,2.35-1.66,3.44-.63,1.28-1.05,2.62-1.41,4-.79,3.06-1.08,6.25-1.31,9.4-.5,7.1-.62,14.19-.49,21.3.13,7.15.42,14.3.39,21.46-.03,6.63.87,13.33.13,19.94-.02.14.53.17.55,0,.72-6.45-.19-12.94-.13-19.41.07-7.15-.23-14.3-.38-21.45-.14-6.98,0-13.93.41-20.9.19-3.17.49-6.33,1.16-9.44.36-1.67.87-3.3,1.6-4.84.52-1.09.95-2.49,1.66-3.44.1-.14-.42-.15-.5-.09-.08.06-.15.11-.23.17-.16.12.36.2.47.11h0Z"/>
              <path class="cls-1" d="M39.93,14.59c-.29,3-.15,6.03.09,9.03.26,3.31.29,6.64.37,9.97.18,6.74.96,13.45,1.67,20.15.72,6.77,1.41,13.55,1.67,20.37.26,6.82-.04,13.71-.66,20.51-.02.17.51.3.52.17.6-6.47.87-13.01.7-19.5-.19-6.81-.88-13.59-1.59-20.36-.71-6.71-1.53-13.43-1.76-20.18-.11-3.32-.13-6.64-.33-9.95-.2-3.34-.48-6.67-.16-10.02.02-.17-.51-.3-.52-.17h0Z"/>
              <path class="cls-1" d="M41.32,14.44c4.08,3.7,5.18,10.06,6.29,15.19,1.59,7.37,2.84,14.79,3.45,22.3.6,7.38.93,14.78,1.03,22.19.05,3.62.03,7.24-.04,10.86-.06,3.01.29,6.32-.36,9.28-.03.14.51.23.54.06.62-2.8.28-5.88.34-8.73.09-3.8.1-7.61.06-11.41-.09-7.59-.46-15.17-1.08-22.73-.6-7.35-1.88-14.62-3.42-21.83-1.1-5.17-2.23-11.53-6.33-15.25-.11-.1-.63-.08-.48.05h0Z"/>
              <path class="cls-1" d="M43.52,13.81c2.95.97,4.88,3.75,6.4,6.29,1.59,2.66,2.94,5.49,4.14,8.34,2.85,6.73,4.54,13.79,5.88,20.95,1.38,7.38,2.37,14.84,3.06,22.32.33,3.58.58,7.17.75,10.76.16,3.23.64,6.51-.02,9.71-.03.16.5.27.53.12.66-3.19.2-6.49.02-9.71-.22-3.94-.48-7.87-.85-11.8-.72-7.67-1.81-15.31-3.26-22.88-1.43-7.47-3.42-14.75-6.59-21.69-2.04-4.48-4.78-10.91-9.88-12.58-.22-.07-.54.06-.19.18h0Z"/>
              <path class="cls-1" d="M44.37,13.28c3-.19,5.93,3.01,8.01,4.82,2.7,2.35,5.11,5.12,7.11,8.08,3.88,5.77,6.77,12.15,8.83,18.77,2.15,6.88,3.29,14.03,4.29,21.15,1.06,7.52,1.72,15.11,1.65,22.71,0,.16.54.16.55,0,.08-8.13-.7-16.22-1.87-24.26-1.09-7.54-2.46-15.02-4.94-22.25-2.35-6.86-5.71-13.58-10.28-19.24-2.11-2.62-4.58-4.88-7.16-7.05-1.74-1.46-3.95-3.11-6.34-2.96-.37.02-.09.23.15.21h0Z"/>
              <path class="cls-1" d="M9.38,85.04c1.97-1.27,4.29-1.7,6.55-2.16,2.66-.54,5.33-1.06,8.02-1.48,5.46-.86,10.95-1.28,16.47-1.48,10.85-.41,21.84-.5,32.51,1.8.16.04.62-.12.27-.19-10.93-2.36-22.18-2.22-33.29-1.81-5.75.22-11.45.72-17.14,1.64-2.64.43-5.27.96-7.89,1.5-2.08.42-4.17.92-5.98,2.09-.16.11.35.18.47.1h0Z"/>
              <path class="cls-1" d="M6.6,85.17c-.15.47-.21.96.28,1.23.1.06.24.12.37.09.12-.03.01-.14-.04-.17-.34-.19-.18-.67-.09-.96.05-.15-.47-.33-.52-.18h0Z"/>
            </g>
            <path class="cls-11" d="M35.19,13.56h0c.03-.79,2.96-1.21,3.37-1.28.25-.04.54-.09.86-.13.12.03.24.02.26-.04,1.61-.22,3.74-.36,4.79.57h.01s-.02.02-.03.03c-1.67,2.44-7.12,2.72-9.26.86Z"/>
            <path class="cls-15" d="M43.73,12.28c-1.13-.46-2.78-.34-4.09-.16-.02.05-.13.06-.26.04-.31.05-.61.09-.86.13-.28.05-1.7.25-2.6.62,2.16,1.12,5.9.91,7.81-.64Z"/>
            <path class="cls-15" d="M35.93,13.62s4.2,2.29,8.12-.87c0,0-3.56,2.06-8.12.87Z"/>
          </g>
        </g>
      </g>
    </g>
  </g>
</svg>