<?xml version="1.0" encoding="UTF-8"?>
<svg xmlns="http://www.w3.org/2000/svg" width="99.5" height="100" viewBox="0 0 99.5 100">
  <defs>
    <style>
      .cls-1 {
        fill: #5e2c00;
      }

      .cls-2 {
        fill: #8b8b8b;
      }

      .cls-3 {
        fill: #9a9a9a;
      }

      .cls-4 {
        fill: #7d7d7d;
      }

      .cls-5 {
        fill: #008fd1;
      }

      .cls-5, .cls-6 {
        mix-blend-mode: multiply;
      }

      .cls-7 {
        fill: #fff;
      }

      .cls-8 {
        fill: #6e6e6e;
      }

      .cls-9 {
        fill: #ffda16;
      }

      .cls-10 {
        fill: #606060;
      }

      .cls-11 {
        fill: #009ecb;
      }

      .cls-12 {
        fill: #e2e2e2;
      }

      .cls-13 {
        isolation: isolate;
      }

      .cls-14 {
        fill: #f1f1f1;
      }

      .cls-15 {
        fill: #e73e2b;
      }

      .cls-16 {
        fill: #e73739;
      }

      .cls-17 {
        fill: #c5c5c5;
      }

      .cls-18 {
        fill: #c9e8fb;
      }

      .cls-19 {
        fill: #a8a8a8;
      }

      .cls-20 {
        fill: #93b23e;
      }

      .cls-21 {
        fill: #d4d4d4;
      }

      .cls-22 {
        fill: #b7b7b7;
      }
    </style>
  </defs>
  <g class="cls-13">
    <g id="Layer_2" data-name="Layer 2">
      <g id="Layer_1-2" data-name="Layer 1">
        <g>
          <g class="cls-6">
            <path class="cls-7" d="M50.72,2.43C23.82,2.43,1.94,24.32,1.94,51.22s21.88,48.78,48.78,48.78,48.78-21.88,48.78-48.78S77.62,2.43,50.72,2.43Z"/>
            <path class="cls-14" d="M50.54,2.21C23.64,2.21,1.76,24.1,1.76,50.99s21.88,48.79,48.79,48.79,48.78-21.88,48.78-48.79S77.44,2.21,50.54,2.21Z"/>
            <path class="cls-12" d="M50.37,1.99C23.47,1.99,1.59,23.88,1.59,50.77s21.88,48.78,48.78,48.78,48.78-21.88,48.78-48.78S77.27,1.99,50.37,1.99Z"/>
            <path class="cls-21" d="M50.19,1.77C23.29,1.77,1.41,23.65,1.41,50.55s21.88,48.78,48.78,48.78,48.78-21.88,48.78-48.78S77.09,1.77,50.19,1.77Z"/>
            <path class="cls-17" d="M50.02,1.55C23.12,1.55,1.23,23.43,1.23,50.33s21.88,48.78,48.78,48.78,48.78-21.88,48.78-48.78S76.91,1.55,50.02,1.55Z"/>
            <path class="cls-22" d="M49.84,1.33C22.94,1.33,1.06,23.21,1.06,50.11s21.88,48.79,48.78,48.79,48.78-21.88,48.78-48.79S76.74,1.33,49.84,1.33Z"/>
            <path class="cls-19" d="M49.66,1.11C22.76,1.11.88,22.99.88,49.89s21.88,48.78,48.78,48.78,48.78-21.88,48.78-48.78S76.56,1.11,49.66,1.11Z"/>
            <path class="cls-3" d="M49.49.88C22.59.88.7,22.77.7,49.67s21.88,48.78,48.78,48.78,48.78-21.88,48.78-48.78S76.39.88,49.49.88Z"/>
            <path class="cls-2" d="M49.31.66C22.41.66.53,22.55.53,49.45s21.88,48.79,48.78,48.79,48.78-21.88,48.78-48.79S76.21.66,49.31.66Z"/>
            <path class="cls-4" d="M49.13.44C22.24.44.35,22.33.35,49.22s21.88,48.79,48.78,48.79,48.79-21.88,48.79-48.79S76.03.44,49.13.44Z"/>
            <path class="cls-8" d="M48.96.22C22.06.22.18,22.1.18,49s21.88,48.79,48.78,48.79,48.78-21.88,48.78-48.79S75.86.22,48.96.22Z"/>
            <path class="cls-10" d="M48.78,0C21.88,0,0,21.88,0,48.78s21.88,48.79,48.78,48.79,48.78-21.88,48.78-48.79S75.68,0,48.78,0Z"/>
          </g>
          <path class="cls-7" d="M48.78,0C21.88,0,0,21.88,0,48.78s21.88,48.79,48.78,48.79,48.78-21.88,48.78-48.79S75.68,0,48.78,0Z"/>
          <g>
            <g>
              <path class="cls-11" d="M94.63,48.78c0,25.32-20.52,45.84-45.84,45.84S2.94,74.1,2.94,48.78,23.46,2.94,48.78,2.94s45.84,20.52,45.84,45.84Z"/>
              <path class="cls-1" d="M48.78,95.31c-25.65,0-46.52-20.87-46.52-46.52S23.13,2.26,48.78,2.26s46.52,20.87,46.52,46.52-20.87,46.52-46.52,46.52ZM48.78,3.62C23.88,3.62,3.62,23.88,3.62,48.78s20.26,45.17,45.16,45.17,45.17-20.26,45.17-45.17S73.69,3.62,48.78,3.62Z"/>
            </g>
            <path class="cls-5" d="M91.82,48.91c0,23.77-19.27,43.03-43.04,43.03S5.75,72.68,5.75,48.91,25.02,5.87,48.78,5.87s43.04,19.27,43.04,43.04Z"/>
            <g>
              <path class="cls-18" d="M89.73,48.78c0,22.62-18.34,40.95-40.95,40.95S7.84,71.4,7.84,48.78,26.17,7.84,48.78,7.84s40.95,18.33,40.95,40.95Z"/>
              <path class="cls-1" d="M48.78,90.41c-22.95,0-41.62-18.67-41.62-41.63S25.83,7.16,48.78,7.16s41.63,18.67,41.63,41.63-18.67,41.63-41.63,41.63ZM48.78,8.51c-22.2,0-40.27,18.07-40.27,40.27s18.06,40.27,40.27,40.27,40.27-18.06,40.27-40.27S70.99,8.51,48.78,8.51Z"/>
            </g>
            <path class="cls-7" d="M85.43,49.62c0,20.24-16.41,36.65-36.65,36.65S12.13,69.86,12.13,49.62,28.54,12.97,48.78,12.97s36.65,16.41,36.65,36.65Z"/>
            <g>
              <path class="cls-1" d="M48.78,49.99c-1.77,0-3.2-1.44-3.2-3.21v-27.16c0-1.77,1.44-3.21,3.2-3.21s3.21,1.44,3.21,3.21v27.16c0,1.77-1.44,3.21-3.21,3.21ZM48.78,18.84c-.43,0-.79.35-.79.79v27.16c0,.43.35.79.79.79s.79-.35.79-.79v-27.16c0-.43-.35-.79-.79-.79Z"/>
              <path class="cls-20" d="M50.78,46.79c0,1.1-.9,2-2,2h0c-1.1,0-2-.9-2-2v-27.16c0-1.1.89-2,2-2h0c1.1,0,2,.89,2,2v27.16Z"/>
            </g>
            <g>
              <path class="cls-1" d="M69.51,51.99h-19.34c-1.47,0-2.63-1.41-2.63-3.2s1.16-3.21,2.63-3.21h19.34c1.48,0,2.63,1.41,2.63,3.21s-1.16,3.2-2.63,3.2ZM69.45,47.98h-19.28s-.21.31-.21.8.21.76.28.8h19.23c.08-.08.26-.35.26-.8,0-.49-.21-.76-.28-.8Z"/>
              <path class="cls-9" d="M50.18,50.78c-.78,0-1.42-.89-1.42-2h0c0-1.1.64-2,1.42-2h19.34c.79,0,1.42.89,1.42,2h0c0,1.1-.64,2-1.42,2h-19.34Z"/>
            </g>
            <g>
              <path class="cls-16" d="M53.05,48.79c0,2.35-1.91,4.26-4.27,4.26s-4.26-1.91-4.26-4.26,1.91-4.26,4.26-4.26,4.27,1.91,4.27,4.26Z"/>
              <path class="cls-1" d="M48.78,54.26c-3.02,0-5.47-2.46-5.47-5.47s2.46-5.47,5.47-5.47,5.47,2.46,5.47,5.47-2.46,5.47-5.47,5.47ZM48.78,45.73c-1.68,0-3.05,1.37-3.05,3.06s1.37,3.05,3.05,3.05,3.06-1.37,3.06-3.05-1.37-3.06-3.06-3.06Z"/>
            </g>
            <g>
              <path class="cls-15" d="M84.92,46.21c.26,0,.49-.08.69-.23.19-.16.29-.38.29-.67,0-.22-.08-.42-.23-.57-.15-.16-.36-.24-.62-.24-.18,0-.32.03-.44.07-.11.05-.2.11-.27.19-.06.08-.13.19-.19.31-.06.12-.11.24-.16.36-.03.06-.08.11-.16.14-.08.04-.16.05-.26.05-.12,0-.22-.05-.32-.14-.09-.09-.14-.22-.14-.38s.05-.31.14-.47c.09-.16.22-.32.4-.48.18-.15.39-.27.65-.36.26-.09.55-.14.87-.14.28,0,.54.04.77.11.23.08.43.19.6.33.17.15.3.31.38.5.09.19.13.39.13.62,0,.29-.07.54-.19.74-.13.21-.31.41-.54.6.22.12.42.26.57.42.16.16.27.33.35.52.08.19.12.39.12.61,0,.26-.05.52-.16.76-.11.25-.26.46-.47.66-.21.19-.45.34-.73.45-.28.11-.59.16-.93.16s-.66-.06-.93-.18c-.28-.12-.5-.28-.68-.47-.18-.19-.31-.38-.41-.58-.09-.2-.14-.36-.14-.5,0-.17.05-.3.17-.4.11-.1.24-.16.4-.16.08,0,.16.02.23.07.08.05.12.11.15.17.15.4.31.7.49.89.17.2.41.29.72.29.18,0,.35-.04.52-.13.17-.09.3-.22.41-.39.11-.17.16-.38.16-.6,0-.34-.09-.6-.28-.8-.18-.19-.44-.29-.77-.29-.06,0-.15,0-.27.02-.12.01-.2.02-.23.02-.16,0-.28-.04-.37-.12-.09-.08-.13-.19-.13-.33s.05-.25.16-.34c.1-.09.26-.13.47-.13h.18Z"/>
              <path class="cls-15" d="M14.81,47.2c-.19.22-.4.39-.64.51-.23.11-.49.17-.78.17-.27,0-.53-.05-.76-.16-.24-.11-.44-.25-.61-.44-.17-.19-.31-.41-.4-.66-.09-.25-.14-.52-.14-.8,0-.3.05-.58.16-.85.1-.27.25-.5.45-.69.19-.2.42-.35.69-.46.27-.11.57-.16.89-.16.37,0,.7.07.99.21.29.13.54.33.74.59.2.26.35.58.46.98.11.39.16.84.16,1.33,0,.55-.06,1.04-.17,1.47-.12.42-.28.78-.49,1.07-.21.29-.47.5-.77.64-.3.14-.64.21-1.02.21s-.7-.07-.98-.21c-.28-.14-.49-.32-.63-.53-.14-.21-.22-.42-.22-.61,0-.12.05-.23.13-.33.09-.1.2-.14.34-.14.13,0,.24.04.34.11.1.07.18.18.23.32.06.17.17.31.32.42.15.11.32.16.5.16.16,0,.32-.04.47-.13.15-.08.27-.2.38-.35.21-.31.33-.86.37-1.64ZM14.71,45.87c0-.2-.02-.38-.08-.54-.05-.17-.13-.31-.22-.43-.1-.12-.21-.22-.35-.29-.13-.07-.28-.1-.44-.1-.27,0-.51.12-.7.35-.19.24-.28.55-.28.93s.09.69.28.92c.19.23.43.34.72.34.18,0,.35-.04.51-.14.16-.09.3-.23.4-.41.1-.18.15-.39.15-.63Z"/>
              <path class="cls-15" d="M66.8,20.68v-3.94c-.73.56-1.23.84-1.48.84-.12,0-.23-.05-.32-.14-.09-.1-.14-.21-.14-.34,0-.15.04-.26.14-.33.09-.07.26-.16.49-.27.35-.16.63-.34.84-.52.21-.18.39-.38.56-.61.16-.22.27-.36.32-.42.05-.05.14-.08.28-.08.15,0,.27.06.37.18.09.12.14.28.14.49v4.96c0,.58-.2.87-.59.87-.17,0-.32-.06-.42-.18-.11-.12-.16-.29-.16-.52Z"/>
              <path class="cls-15" d="M78.25,33.2h2.26c.22,0,.39.04.51.14.12.09.18.22.18.38,0,.14-.05.26-.14.36-.09.1-.24.15-.43.15h-3.19c-.22,0-.38-.06-.5-.18-.12-.12-.19-.26-.19-.42,0-.1.04-.24.12-.41.08-.17.17-.31.26-.41.38-.4.73-.74,1.04-1.02.31-.29.53-.47.66-.56.24-.17.43-.34.59-.5.16-.17.28-.34.36-.52.08-.18.12-.35.12-.52,0-.19-.04-.35-.13-.5-.09-.15-.21-.26-.36-.34-.15-.08-.31-.12-.49-.12-.38,0-.68.17-.89.5-.03.04-.08.16-.15.36-.06.19-.15.34-.23.45-.09.1-.21.16-.37.16-.15,0-.26-.05-.36-.14s-.14-.23-.14-.39c0-.2.05-.41.13-.62.09-.21.23-.41.4-.59.18-.18.4-.32.68-.43.27-.11.59-.16.96-.16.44,0,.82.07,1.13.21.2.09.38.22.53.38.15.16.27.35.36.56.09.21.13.43.13.66,0,.36-.09.69-.27.98-.18.29-.36.52-.54.69-.18.17-.49.43-.93.78-.43.35-.73.63-.89.83-.07.08-.14.17-.21.28Z"/>
              <path class="cls-15" d="M79.38,68.12v-.8h-2.18c-.27,0-.48-.06-.62-.19-.14-.12-.21-.29-.21-.51,0-.05.01-.11.03-.17.02-.05.05-.11.09-.18.04-.06.08-.12.13-.18.04-.06.1-.13.16-.22l2.3-3.07c.15-.2.27-.35.37-.44.1-.09.21-.14.35-.14.44,0,.66.25.66.75v3.35h.19c.22,0,.4.03.54.09.13.06.2.19.2.4,0,.17-.06.29-.17.37-.11.08-.27.12-.49.12h-.26v.8c0,.22-.05.39-.15.5-.1.11-.23.16-.4.16s-.29-.06-.39-.17c-.1-.11-.15-.27-.15-.49ZM77.52,66.35h1.86v-2.52l-1.86,2.52Z"/>
              <path class="cls-15" d="M68.4,75.52h-2.06l-.24,1.4c.41-.22.79-.33,1.13-.33.28,0,.54.05.78.16.24.1.45.25.63.43.18.18.33.4.43.65.11.25.16.52.16.81,0,.41-.09.8-.29,1.14-.19.34-.46.62-.81.82-.35.2-.76.3-1.22.3-.52,0-.94-.1-1.26-.29-.32-.19-.55-.41-.69-.65-.13-.25-.2-.46-.2-.65,0-.11.05-.22.14-.32.09-.1.21-.15.35-.15.24,0,.42.14.54.42.11.26.27.46.47.6.2.14.42.22.66.22.22,0,.42-.06.59-.17.17-.12.3-.28.39-.48.09-.2.14-.43.14-.69,0-.28-.05-.51-.15-.71-.1-.2-.23-.35-.4-.44-.16-.09-.35-.14-.55-.14-.25,0-.43.03-.53.09-.11.06-.26.17-.46.32-.2.15-.36.23-.49.23-.14,0-.27-.05-.38-.15-.11-.11-.16-.22-.16-.35,0-.01.02-.11.05-.29l.36-2.08c.04-.25.11-.43.22-.54.11-.11.29-.17.54-.17h2.29c.45,0,.68.17.68.52,0,.15-.06.27-.17.36-.11.1-.27.14-.49.14Z"/>
              <path class="cls-15" d="M29.89,74.51h2.89c.28,0,.48.05.6.13.12.09.18.23.18.43,0,.12-.07.28-.22.48-.15.2-.31.42-.5.66-.19.24-.38.54-.58.9-.2.36-.38.8-.54,1.31-.07.23-.12.42-.15.57-.03.15-.06.34-.09.58-.04.24-.07.42-.09.55-.06.3-.15.5-.26.62-.11.11-.26.17-.44.17s-.32-.06-.43-.19c-.1-.12-.16-.3-.16-.54,0-.18.04-.44.12-.75.08-.32.2-.7.38-1.14.18-.44.4-.9.66-1.37.27-.47.58-.93.94-1.39h-2.32c-.24,0-.42-.04-.54-.13-.12-.09-.18-.22-.18-.42s.06-.33.19-.38c.13-.06.31-.09.53-.09Z"/>
              <path class="cls-15" d="M16.82,63.94c0-.29.08-.56.24-.82.16-.26.39-.46.69-.62.31-.15.66-.23,1.07-.23.35,0,.65.05.91.13.26.09.48.21.65.37.17.16.3.33.38.53.08.2.13.41.13.63,0,.29-.07.54-.22.76-.14.22-.36.41-.65.55.24.1.45.22.61.38.16.15.29.33.37.54.08.2.12.43.12.68,0,.36-.09.69-.27.99-.18.3-.44.53-.78.7-.34.17-.74.25-1.2.25s-.89-.08-1.23-.25c-.34-.17-.6-.4-.77-.69-.17-.29-.26-.62-.26-.99,0-.78.37-1.31,1.1-1.6-.59-.28-.89-.71-.89-1.31ZM19.93,66.8c0-.22-.05-.42-.14-.59-.1-.17-.23-.3-.39-.38-.17-.09-.35-.14-.56-.14-.3,0-.54.1-.74.3-.2.2-.3.47-.3.82,0,.22.04.42.14.59.1.17.22.3.38.4.17.09.34.14.54.14s.38-.05.55-.14c.16-.1.29-.23.38-.4.09-.17.14-.37.14-.6ZM18.85,63.1c-.27,0-.49.09-.66.25-.16.17-.25.39-.25.65,0,.25.08.45.25.61.17.16.39.25.66.25.14,0,.26-.02.37-.07.11-.04.21-.1.29-.18.08-.07.14-.17.18-.27.04-.11.07-.22.07-.35,0-.17-.04-.32-.12-.46-.07-.14-.18-.24-.32-.32-.14-.08-.3-.12-.48-.12Z"/>
              <g>
                <path class="cls-15" d="M19.92,33.63v-3.94c-.73.56-1.23.85-1.48.85-.12,0-.23-.05-.32-.15-.1-.1-.14-.21-.14-.33,0-.15.04-.26.14-.33.09-.07.26-.16.49-.27.35-.16.63-.34.84-.52.21-.18.39-.39.56-.61.16-.22.27-.36.31-.41.05-.05.14-.08.28-.08.16,0,.28.06.37.18.09.12.14.28.14.49v4.96c0,.58-.2.87-.59.87-.18,0-.32-.06-.43-.18-.11-.12-.16-.29-.16-.52Z"/>
                <path class="cls-15" d="M27.54,31.1c0,.47-.03.88-.09,1.22-.06.34-.17.65-.32.93-.19.34-.45.6-.76.79-.31.18-.66.28-1.04.28-.44,0-.83-.12-1.18-.37-.35-.25-.61-.59-.79-1.03-.09-.24-.15-.5-.2-.79-.04-.29-.06-.6-.06-.94,0-.43.02-.83.07-1.18.05-.35.12-.65.21-.9.17-.42.42-.73.75-.95.32-.22.71-.33,1.16-.33.3,0,.57.05.81.14.24.1.46.24.64.43.19.19.34.42.47.69.22.48.33,1.15.33,2.02ZM26.35,31.02c0-.53-.03-.96-.09-1.3-.06-.34-.17-.59-.32-.76-.15-.17-.36-.26-.62-.26-.38,0-.65.19-.79.58-.15.38-.23.98-.23,1.78,0,.54.03.99.1,1.33.06.35.17.61.32.79.15.18.35.27.61.27s.47-.09.62-.28c.15-.19.26-.45.32-.79.06-.35.09-.8.09-1.36Z"/>
              </g>
              <g>
                <path class="cls-15" d="M31.01,20.68v-3.94c-.73.56-1.23.84-1.48.84-.12,0-.23-.05-.32-.14-.09-.1-.14-.21-.14-.34,0-.15.05-.26.14-.33.09-.07.26-.16.49-.27.35-.16.63-.34.84-.52.21-.18.39-.38.56-.61.16-.22.26-.36.31-.42.05-.05.14-.08.28-.08.16,0,.28.06.37.18.09.12.14.28.14.49v4.96c0,.58-.2.87-.59.87-.17,0-.32-.06-.42-.18-.11-.12-.16-.29-.16-.52Z"/>
                <path class="cls-15" d="M36.29,20.68v-3.94c-.74.56-1.23.84-1.48.84-.12,0-.23-.05-.32-.14-.09-.1-.14-.21-.14-.34,0-.15.05-.26.14-.33.09-.07.25-.16.49-.27.35-.16.63-.34.84-.52.21-.18.39-.38.56-.61.16-.22.27-.36.32-.42.05-.05.14-.08.28-.08.15,0,.27.06.37.18.09.12.13.28.13.49v4.96c0,.58-.2.87-.59.87-.18,0-.32-.06-.43-.18-.11-.12-.16-.29-.16-.52Z"/>
              </g>
              <g>
                <g>
                  <path class="cls-15" d="M46.5,15.46v-3.94c-.73.56-1.23.85-1.48.85-.12,0-.23-.05-.32-.15-.09-.1-.14-.21-.14-.33,0-.15.05-.26.14-.33.09-.07.25-.16.49-.27.35-.16.63-.34.84-.52.21-.18.39-.38.56-.61.16-.22.26-.36.32-.42.05-.05.14-.08.28-.08.15,0,.28.06.37.18.09.12.14.28.14.49v4.96c0,.58-.2.87-.59.87-.18,0-.32-.06-.43-.18-.11-.12-.16-.29-.16-.52Z"/>
                  <path class="cls-15" d="M51.25,15.03h2.26c.22,0,.4.05.51.14.12.09.18.22.18.38,0,.14-.05.26-.14.36-.09.1-.23.15-.43.15h-3.19c-.21,0-.38-.06-.51-.18-.12-.12-.18-.26-.18-.42,0-.1.04-.24.12-.41.08-.17.16-.31.25-.41.39-.4.73-.74,1.04-1.02.31-.29.53-.47.66-.56.24-.17.44-.34.59-.5.16-.17.28-.34.36-.52.08-.18.12-.35.12-.52,0-.19-.05-.35-.13-.5-.09-.15-.21-.26-.36-.34-.15-.08-.32-.12-.5-.12-.38,0-.67.17-.89.5-.03.04-.07.16-.15.36-.07.19-.14.34-.23.44-.08.1-.21.16-.37.16-.14,0-.26-.05-.36-.14-.1-.1-.14-.23-.14-.39,0-.2.05-.41.13-.62.09-.22.23-.41.4-.59.18-.18.4-.32.68-.43.27-.11.59-.16.96-.16.44,0,.82.07,1.13.21.2.09.38.22.53.38.16.16.27.35.36.56.09.21.13.43.13.66,0,.36-.09.68-.27.98-.18.29-.36.52-.55.69-.18.17-.49.43-.93.78-.43.36-.73.63-.89.83-.07.08-.14.17-.21.28Z"/>
                </g>
                <path class="cls-15" d="M48.24,84.49c.2-.23.41-.41.64-.52.23-.11.49-.17.78-.17.27,0,.53.05.76.15.23.1.44.25.61.44.17.19.31.41.4.67.1.26.14.53.14.81,0,.41-.09.77-.28,1.11-.19.33-.44.59-.78.77-.33.19-.71.28-1.13.28-.49,0-.91-.12-1.26-.35-.35-.24-.62-.59-.81-1.05-.19-.46-.28-1.03-.28-1.7,0-.55.06-1.03.17-1.46.11-.43.28-.79.48-1.07.21-.29.46-.5.77-.64.3-.15.64-.22,1.03-.22s.7.07.98.22c.28.14.49.32.64.54.14.21.21.42.21.61,0,.12-.05.23-.14.32-.09.1-.2.14-.34.14-.12,0-.23-.04-.34-.11-.1-.08-.18-.18-.23-.32-.07-.17-.17-.31-.31-.42-.15-.1-.32-.16-.5-.16-.15,0-.31.05-.46.13-.15.09-.28.21-.38.36-.21.31-.34.85-.38,1.64ZM49.41,87.18c.29,0,.53-.12.72-.36.19-.24.29-.55.29-.94,0-.26-.04-.49-.13-.68-.09-.19-.21-.33-.37-.43-.16-.1-.33-.15-.52-.15-.18,0-.35.05-.52.15-.16.09-.29.23-.39.41-.1.18-.15.39-.15.64,0,.39.1.71.3.97.2.26.46.39.76.39Z"/>
              </g>
            </g>
          </g>
        </g>
      </g>
    </g>
  </g>
</svg>