<?xml version="1.0" encoding="UTF-8"?>
<svg xmlns="http://www.w3.org/2000/svg" width="217.5" height="188.47" xmlns:xlink="http://www.w3.org/1999/xlink" viewBox="0 0 217.5 188.47">
  <defs>
    <style>
      .cls-1 {
        fill: url(#_횁책챌청챙첼챠챠청챕_찾챨횪채챔책챠챵_60-2);
      }

      .cls-2 {
        fill: url(#_횁책챌청챙첼챠챠청챕_찾챨횪채챔책챠챵_440-14);
      }

      .cls-3 {
        fill: url(#_횁책챌청챙첼챠챠청챕_찾챨횪채챔책챠챵_440-12);
      }

      .cls-4 {
        fill: url(#_횁책챌청챙첼챠챠청챕_찾챨횪채챔책챠챵_153-3);
      }

      .cls-5 {
        fill: url(#_횁책챌청챙첼챠챠청챕_찾챨횪채챔책챠챵_440-2);
      }

      .cls-6 {
        mask: url(#mask-15);
      }

      .cls-7 {
        fill: url(#_횁책챌청챙첼챠챠청챕_찾챨횪채챔책챠챵_1309-5);
      }

      .cls-8 {
        mask: url(#mask-5);
      }

      .cls-9 {
        mask: url(#mask-13);
      }

      .cls-10 {
        fill: url(#_횁책챌청챙첼챠챠청챕_찾챨횪채챔책챠챵_60-14);
      }

      .cls-11 {
        fill: url(#_횁책챌청챙첼챠챠청챕_찾챨횪채챔책챠챵_440-16);
      }

      .cls-12 {
        fill: url(#_횁책챌청챙첼챠챠청챕_찾챨횪채챔책챠챵_756);
      }

      .cls-13 {
        fill: url(#_횁책챌청챙첼챠챠청챕_찾챨횪채챔책챠챵_126-2);
      }

      .cls-14 {
        mask: url(#mask-1);
      }

      .cls-15 {
        fill: url(#_횁책챌청챙첼챠챠청챕_찾챨횪채챔책챠챵_126);
      }

      .cls-16 {
        fill: url(#_횁책챌청챙첼챠챠청챕_찾챨횪채챔책챠챵_730-2);
      }

      .cls-16, .cls-17, .cls-18, .cls-19, .cls-20, .cls-21, .cls-22, .cls-23, .cls-24, .cls-25, .cls-26, .cls-27, .cls-28, .cls-29, .cls-30, .cls-31, .cls-32 {
        mix-blend-mode: multiply;
      }

      .cls-33 {
        fill: url(#_횁책챌청챙첼챠챠청챕_찾챨횪채챔책챠챵_1405-2);
      }

      .cls-34 {
        fill: url(#_횁책챌청챙첼챠챠청챕_찾챨횪채챔책챠챵_366-4);
      }

      .cls-35 {
        fill: url(#_횁책챌청챙첼챠챠청챕_찾챨횪채챔책챠챵_60-7);
      }

      .cls-17 {
        fill: url(#_횁책챌청챙첼챠챠청챕_찾챨횪채챔책챠챵_5);
      }

      .cls-36 {
        fill: url(#_횁책챌청챙첼챠챠청챕_찾챨횪채챔책챠챵_440-11);
      }

      .cls-37 {
        fill: url(#_횁책챌청챙첼챠챠청챕_찾챨횪채챔책챠챵_1309-3);
      }

      .cls-38 {
        fill: url(#_횁책챌청챙첼챠챠청챕_찾챨횪채챔책챠챵_60-10);
      }

      .cls-39 {
        fill: url(#_횁책챌청챙첼챠챠청챕_찾챨횪채챔책챠챵_60-5);
      }

      .cls-40 {
        fill: url(#_횁책챌청챙첼챠챠청챕_찾챨횪채챔책챠챵_1309-2);
      }

      .cls-41 {
        mask: url(#mask-10);
      }

      .cls-42 {
        fill: url(#_횁책챌청챙첼챠챠청챕_찾챨횪채챔책챠챵_366);
      }

      .cls-43 {
        mask: url(#mask-6);
      }

      .cls-44 {
        mask: url(#mask-7);
      }

      .cls-45 {
        fill: url(#_횁책챌청챙첼챠챠청챕_찾챨횪채챔책챠챵_1710-2);
      }

      .cls-45, .cls-46, .cls-47, .cls-48 {
        mix-blend-mode: overlay;
        opacity: .73;
      }

      .cls-45, .cls-30 {
        fill-rule: evenodd;
      }

      .cls-18 {
        fill: url(#_횁책챌청챙첼챠챠청챕_찾챨횪채챔책챠챵_2-2);
      }

      .cls-49 {
        fill: url(#_횁책챌청챙첼챠챠청챕_찾챨횪채챔책챠챵_60-12);
      }

      .cls-50 {
        filter: url(#luminosity-noclip-15);
      }

      .cls-51 {
        filter: url(#luminosity-noclip-5);
      }

      .cls-52 {
        mask: url(#mask);
      }

      .cls-53 {
        fill: url(#_횁책챌청챙첼챠챠청챕_찾챨횪채챔책챠챵_957);
      }

      .cls-53, .cls-54, .cls-55 {
        opacity: .7;
      }

      .cls-53, .cls-54, .cls-55, .cls-56, .cls-57, .cls-58 {
        mix-blend-mode: screen;
      }

      .cls-19 {
        fill: url(#_횁책챌청챙첼챠챠청챕_찾챨횪채챔책챠챵_147-2);
      }

      .cls-19, .cls-29 {
        opacity: .5;
      }

      .cls-59 {
        fill: #5a0a6d;
      }

      .cls-54 {
        fill: url(#_횁책챌청챙첼챠챠청챕_찾챨횪채챔책챠챵_407);
      }

      .cls-60 {
        fill: url(#_횁책챌청챙첼챠챠청챕_찾챨횪채챔책챠챵_1308-4);
      }

      .cls-61 {
        fill: url(#_횁책챌청챙첼챠챠청챕_찾챨횪채챔책챠챵_1308-5);
      }

      .cls-62 {
        fill: url(#_횁책챌청챙첼챠챠청챕_찾챨횪채챔책챠챵_734);
      }

      .cls-63 {
        fill: #79567c;
      }

      .cls-20 {
        fill: url(#_횁책챌청챙첼챠챠청챕_찾챨횪채챔책챠챵_1721);
      }

      .cls-21 {
        fill: url(#_횁책챌청챙첼챠챠청챕_찾챨횪채챔책챠챵_730);
      }

      .cls-64 {
        fill: url(#_횁책챌청챙첼챠챠청챕_찾챨횪채챔책챠챵_440-7);
      }

      .cls-65 {
        fill: url(#_횁책챌청챙첼챠챠청챕_찾챨횪채챔책챠챵_153);
      }

      .cls-22 {
        fill: url(#_횁책챌청챙첼챠챠청챕_찾챨횪채챔책챠챵_933-2);
      }

      .cls-66 {
        mask: url(#mask-8);
      }

      .cls-67 {
        filter: url(#luminosity-noclip-11);
      }

      .cls-68 {
        mask: url(#mask-2);
      }

      .cls-69 {
        fill: url(#_횁책챌청챙첼챠챠청챕_찾챨횪채챔책챠챵_153-4);
      }

      .cls-70 {
        filter: url(#luminosity-noclip-3);
      }

      .cls-71 {
        fill: url(#_횁책챌청챙첼챠챠청챕_찾챨횪채챔책챠챵_60-3);
      }

      .cls-72 {
        fill: url(#_횁책챌청챙첼챠챠청챕_찾챨횪채챔책챠챵_60);
      }

      .cls-73 {
        mask: url(#mask-9);
      }

      .cls-74 {
        fill: url(#_횁책챌청챙첼챠챠청챕_찾챨횪채챔책챠챵_440);
      }

      .cls-23 {
        fill: url(#_횁책챌청챙첼챠챠청챕_찾챨횪채챔책챠챵_730-4);
      }

      .cls-75 {
        fill: url(#_횁책챌청챙첼챠챠청챕_찾챨횪채챔책챠챵_1308-3);
      }

      .cls-76 {
        fill: url(#_횁책챌청챙첼챠챠청챕_찾챨횪채챔책챠챵_440-15);
      }

      .cls-77 {
        fill: url(#_횁책챌청챙첼챠챠청챕_찾챨횪채챔책챠챵_440-5);
      }

      .cls-24 {
        fill: url(#_횁책챌청챙첼챠챠청챕_찾챨횪채챔책챠챵_5-3);
      }

      .cls-46 {
        fill: url(#_횁책챌청챙첼챠챠청챕_찾챨횪채챔책챠챵_1710);
      }

      .cls-78 {
        fill: url(#_횁책챌청챙첼챠챠청챕_찾챨횪채챔책챠챵_1309-4);
      }

      .cls-79 {
        isolation: isolate;
      }

      .cls-80 {
        fill: url(#_횁책챌청챙첼챠챠청챕_찾챨횪채챔책챠챵_1405-3);
      }

      .cls-81 {
        fill: url(#_횁책챌청챙첼챠챠청챕_찾챨횪채챔책챠챵_1308-2);
      }

      .cls-82 {
        fill: url(#_횁책챌청챙첼챠챠청챕_찾챨횪채챔책챠챵_1308-6);
      }

      .cls-25 {
        fill: url(#_횁책챌청챙첼챠챠청챕_찾챨횪채챔책챠챵_5-2);
      }

      .cls-55 {
        fill: url(#_횁책챌청챙첼챠챠청챕_찾챨횪채챔책챠챵_957-2);
      }

      .cls-47 {
        fill: #ffccf2;
      }

      .cls-83 {
        filter: url(#luminosity-noclip-13);
      }

      .cls-84 {
        fill: url(#_횁책챌청챙첼챠챠청챕_찾챨횪채챔책챠챵_440-13);
      }

      .cls-26 {
        fill: url(#_횁책챌청챙첼챠챠청챕_찾챨횪채챔책챠챵_5-5);
      }

      .cls-85 {
        fill: url(#_횁책챌청챙첼챠챠청챕_찾챨횪채챔책챠챵_366-2);
      }

      .cls-86 {
        fill: url(#_횁책챌청챙첼챠챠청챕_찾챨횪채챔책챠챵_60-6);
      }

      .cls-27 {
        fill: url(#_횁책챌청챙첼챠챠청챕_찾챨횪채챔책챠챵_730-3);
      }

      .cls-28 {
        fill: url(#_횁책챌청챙첼챠챠청챕_찾챨횪채챔책챠챵_933);
      }

      .cls-87 {
        filter: url(#luminosity-noclip-9);
      }

      .cls-88 {
        fill: url(#_횁책챌청챙첼챠챠청챕_찾챨횪채챔책챠챵_366-3);
      }

      .cls-29 {
        fill: url(#_횁책챌청챙첼챠챠청챕_찾챨횪채챔책챠챵_147);
      }

      .cls-30 {
        fill: url(#_횁책챌청챙첼챠챠청챕_찾챨횪채챔책챠챵_2-3);
      }

      .cls-89 {
        fill: url(#_횁책챌청챙첼챠챠청챕_찾챨횪채챔책챠챵_60-9);
      }

      .cls-90 {
        fill: url(#_횁책챌청챙첼챠챠청챕_찾챨횪채챔책챠챵_1308);
      }

      .cls-91 {
        fill: url(#_횁책챌청챙첼챠챠청챕_찾챨횪채챔책챠챵_440-3);
      }

      .cls-92 {
        fill: url(#_횁책챌청챙첼챠챠청챕_찾챨횪채챔책챠챵_440-4);
      }

      .cls-93 {
        fill: url(#_횁책챌청챙첼챠챠청챕_찾챨횪채챔책챠챵_153-5);
      }

      .cls-31 {
        fill: url(#_횁책챌청챙첼챠챠청챕_찾챨횪채챔책챠챵_5-4);
      }

      .cls-94 {
        fill: url(#_횁책챌청챙첼챠챠청챕_찾챨횪채챔책챠챵_1309);
      }

      .cls-32 {
        fill: url(#_횁책챌청챙첼챠챠청챕_찾챨횪채챔책챠챵_2);
      }

      .cls-56 {
        fill: url(#_횁책챌청챙첼챠챠청챕_찾챨횪채챔책챠챵_366-5);
      }

      .cls-56, .cls-57, .cls-58 {
        opacity: .26;
      }

      .cls-57 {
        fill: url(#_횁책챌청챙첼챠챠청챕_찾챨횪채챔책챠챵_366-7);
      }

      .cls-95 {
        fill: url(#_횁책챌청챙첼챠챠청챕_찾챨횪채챔책챠챵_60-8);
      }

      .cls-96 {
        fill: url(#_횁책챌청챙첼챠챠청챕_찾챨횪채챔책챠챵_153-6);
      }

      .cls-97 {
        mask: url(#mask-11);
      }

      .cls-98 {
        mask: url(#mask-12);
      }

      .cls-99 {
        fill: url(#_횁책챌청챙첼챠챠청챕_찾챨횪채챔책챠챵_60-13);
      }

      .cls-100 {
        fill: url(#_횁책챌청챙첼챠챠청챕_찾챨횪채챔책챠챵_920);
      }

      .cls-101 {
        fill: url(#_횁책챌청챙첼챠챠청챕_찾챨횪채챔책챠챵_440-10);
      }

      .cls-102 {
        fill: url(#_횁책챌청챙첼챠챠청챕_찾챨횪채챔책챠챵_60-4);
      }

      .cls-58 {
        fill: url(#_횁책챌청챙첼챠챠청챕_찾챨횪채챔책챠챵_366-6);
      }

      .cls-103 {
        fill: url(#_횁책챌청챙첼챠챠청챕_찾챨횪채챔책챠챵_440-9);
      }

      .cls-104 {
        fill: url(#_횁책챌청챙첼챠챠청챕_찾챨횪채챔책챠챵_440-6);
      }

      .cls-105 {
        mask: url(#mask-4);
      }

      .cls-48 {
        fill: url(#_횁책챌청챙첼챠챠청챕_찾챨횪채챔책챠챵_1394);
      }

      .cls-106 {
        fill: url(#_횁책챌청챙첼챠챠청챕_찾챨횪채챔책챠챵_366-9);
      }

      .cls-107 {
        fill: url(#_횁책챌청챙첼챠챠청챕_찾챨횪채챔책챠챵_153-2);
      }

      .cls-108 {
        fill: url(#_횁책챌청챙첼챠챠청챕_찾챨횪채챔책챠챵_1405);
      }

      .cls-109 {
        mask: url(#mask-14);
      }

      .cls-110 {
        fill: url(#_횁책챌청챙첼챠챠청챕_찾챨횪채챔책챠챵_366-8);
      }

      .cls-111 {
        filter: url(#luminosity-noclip-7);
      }

      .cls-112 {
        fill: url(#_횁책챌청챙첼챠챠청챕_찾챨횪채챔책챠챵_920-2);
      }

      .cls-113 {
        fill: url(#_횁책챌청챙첼챠챠청챕_찾챨횪채챔책챠챵_60-11);
      }

      .cls-114 {
        fill: url(#_횁책챌청챙첼챠챠청챕_찾챨횪채챔책챠챵_440-8);
      }

      .cls-115 {
        mask: url(#mask-3);
      }

      .cls-116 {
        filter: url(#luminosity-noclip);
      }
    </style>
    <linearGradient id="_횁책챌청챙첼챠챠청챕_찾챨횪채챔책챠챵_366" data-name="횁책챌청챙첼챠챠청챕 찾챨횪채챔책챠챵 366" x1="-41.42" y1="101.24" x2="-12.03" y2="93.53" gradientUnits="userSpaceOnUse">
      <stop offset=".01" stop-color="#edd7c0"/>
      <stop offset="1" stop-color="#877bb0"/>
    </linearGradient>
    <linearGradient id="_횁책챌청챙첼챠챠청챕_찾챨횪채챔책챠챵_366-2" data-name="횁책챌청챙첼챠챠청챕 찾챨횪채챔책챠챵 366" x1="90.75" y1="208.48" x2="93.87" y2="124.16" xlink:href="#_횁책챌청챙첼챠챠청챕_찾챨횪채챔책챠챵_366"/>
    <linearGradient id="_횁책챌청챙첼챠챠청챕_찾챨횪채챔책챠챵_366-3" data-name="횁책챌청챙첼챠챠청챕 찾챨횪채챔책챠챵 366" x1="52.44" y1="154.19" x2="61.47" y2="152.98" xlink:href="#_횁책챌청챙첼챠챠청챕_찾챨횪채챔책챠챵_366"/>
    <linearGradient id="_횁책챌청챙첼챠챠청챕_찾챨횪채챔책챠챵_933" data-name="횁책챌청챙첼챠챠청챕 찾챨횪채챔책챠챵 933" x1="102.2" y1="164.03" x2="85.74" y2="119.6" gradientUnits="userSpaceOnUse">
      <stop offset="0" stop-color="#fff"/>
      <stop offset="1" stop-color="#7261a3"/>
    </linearGradient>
    <linearGradient id="_횁책챌청챙첼챠챠청챕_찾챨횪채챔책챠챵_366-4" data-name="횁책챌청챙첼챠챠청챕 찾챨횪채챔책챠챵 366" x1="31.05" y1="-51.18" x2="156.09" y2="162.03" xlink:href="#_횁책챌청챙첼챠챠청챕_찾챨횪채챔책챠챵_366"/>
    <linearGradient id="_횁책챌청챙첼챠챠청챕_찾챨횪채챔책챠챵_366-5" data-name="횁책챌청챙첼챠챠청챕 찾챨횪채챔책챠챵 366" x1="66.45" y1="-49.91" x2="122.92" y2="46.38" xlink:href="#_횁책챌청챙첼챠챠청챕_찾챨횪채챔책챠챵_366"/>
    <linearGradient id="_횁책챌청챙첼챠챠청챕_찾챨횪채챔책챠챵_366-6" data-name="횁책챌청챙첼챠챠청챕 찾챨횪채챔책챠챵 366" x1="118.59" y1="93.22" x2="139.09" y2="128.17" xlink:href="#_횁책챌청챙첼챠챠청챕_찾챨횪채챔책챠챵_366"/>
    <linearGradient id="_횁책챌청챙첼챠챠청챕_찾챨횪채챔책챠챵_366-7" data-name="횁책챌청챙첼챠챠청챕 찾챨횪채챔책챠챵 366" x1="86.41" y1="39.43" x2="108.41" y2="76.94" xlink:href="#_횁책챌청챙첼챠챠청챕_찾챨횪채챔책챠챵_366"/>
    <linearGradient id="_횁책챌청챙첼챠챠청챕_찾챨횪채챔책챠챵_366-8" data-name="횁책챌청챙첼챠챠청챕 찾챨횪채챔책챠챵 366" x1="96.86" y1="193.07" x2="95.95" y2="167.98" xlink:href="#_횁책챌청챙첼챠챠청챕_찾챨횪채챔책챠챵_366"/>
    <linearGradient id="_횁책챌청챙첼챠챠청챕_찾챨횪채챔책챠챵_366-9" data-name="횁책챌청챙첼챠챠청챕 찾챨횪채챔책챠챵 366" x1="73.21" y1="205.4" x2="74.5" y2="184.75" xlink:href="#_횁책챌청챙첼챠챠청챕_찾챨횪채챔책챠챵_366"/>
    <linearGradient id="_횁책챌청챙첼챠챠청챕_찾챨횪채챔책챠챵_933-2" data-name="횁책챌청챙첼챠챠청챕 찾챨횪채챔책챠챵 933" x1="92.32" y1="175.39" x2="78.44" y2="198.09" xlink:href="#_횁책챌청챙첼챠챠청챕_찾챨횪채챔책챠챵_933"/>
    <linearGradient id="_횁책챌청챙첼챠챠청챕_찾챨횪채챔책챠챵_153" data-name="횁책챌청챙첼챠챠청챕 찾챨횪채챔책챠챵 153" x1="93.41" y1="152.89" x2="99.32" y2="-34.12" gradientUnits="userSpaceOnUse">
      <stop offset="0" stop-color="#594d59"/>
      <stop offset=".08" stop-color="#554456"/>
      <stop offset=".46" stop-color="#48254c"/>
      <stop offset=".78" stop-color="#3f1247"/>
      <stop offset="1" stop-color="#3d0c45"/>
    </linearGradient>
    <linearGradient id="_횁책챌청챙첼챠챠청챕_찾챨횪채챔책챠챵_920" data-name="횁책챌청챙첼챠챠청챕 찾챨횪채챔책챠챵 920" x1="97.82" y1="174.2" x2="97.82" y2="19.36" gradientUnits="userSpaceOnUse">
      <stop offset="0" stop-color="#6445ec"/>
      <stop offset=".14" stop-color="#6342e5"/>
      <stop offset=".32" stop-color="#6239d4"/>
      <stop offset=".54" stop-color="#602cb7"/>
      <stop offset=".77" stop-color="#5e198f"/>
      <stop offset="1" stop-color="#5c0461"/>
    </linearGradient>
    <linearGradient id="_횁책챌청챙첼챠챠청챕_찾챨횪채챔책챠챵_147" data-name="횁책챌청챙첼챠챠청챕 찾챨횪채챔책챠챵 147" x1="110.37" y1="87.37" x2="117.84" y2="106.9" gradientUnits="userSpaceOnUse">
      <stop offset="0" stop-color="#3f0085"/>
      <stop offset="1" stop-color="#fff"/>
    </linearGradient>
    <linearGradient id="_횁책챌청챙첼챠챠청챕_찾챨횪채챔책챠챵_957" data-name="횁책챌청챙첼챠챠청챕 찾챨횪채챔책챠챵 957" x1="94.59" y1="174.75" x2="96.12" y2="153.11" gradientUnits="userSpaceOnUse">
      <stop offset="0" stop-color="#000"/>
      <stop offset="1" stop-color="#ff8eae"/>
    </linearGradient>
    <linearGradient id="_횁책챌청챙첼챠챠청챕_찾챨횪채챔책챠챵_1405" data-name="횁책챌청챙첼챠챠청챕 찾챨횪채챔책챠챵 1405" x1="24.23" y1="125.41" x2="16.36" y2="159.43" gradientUnits="userSpaceOnUse">
      <stop offset="0" stop-color="#0bdcd7"/>
      <stop offset=".58" stop-color="#32bcd5"/>
      <stop offset="1" stop-color="#53a3d4"/>
    </linearGradient>
    <linearGradient id="_횁책챌청챙첼챠챠청챕_찾챨횪채챔책챠챵_920-2" data-name="횁책챌청챙첼챠챠청챕 찾챨횪채챔책챠챵 920" x1="26.41" y1="114.33" x2="17.48" y2="168.91" xlink:href="#_횁책챌청챙첼챠챠청챕_찾챨횪채챔책챠챵_920"/>
    <linearGradient id="_횁책챌청챙첼챠챠청챕_찾챨횪채챔책챠챵_153-2" data-name="횁책챌청챙첼챠챠청챕 찾챨횪채챔책챠챵 153" x1="116.66" y1="178.18" x2="111.84" y2="143.48" xlink:href="#_횁책챌청챙첼챠챠청챕_찾챨횪채챔책챠챵_153"/>
    <linearGradient id="_횁책챌청챙첼챠챠청챕_찾챨횪채챔책챠챵_153-3" data-name="횁책챌청챙첼챠챠청챕 찾챨횪채챔책챠챵 153" x1="109.98" y1="119.18" x2="107.56" y2="101.81" xlink:href="#_횁책챌청챙첼챠챠청챕_찾챨횪채챔책챠챵_153"/>
    <linearGradient id="_횁책챌청챙첼챠챠청챕_찾챨횪채챔책챠챵_1405-2" data-name="횁책챌청챙첼챠챠청챕 찾챨횪채챔책챠챵 1405" x1="71.31" y1="46.81" x2="62.79" y2="108.89" xlink:href="#_횁책챌청챙첼챠챠청챕_찾챨횪채챔책챠챵_1405"/>
    <linearGradient id="_횁책챌청챙첼챠챠청챕_찾챨횪채챔책챠챵_153-4" data-name="횁책챌청챙첼챠챠청챕 찾챨횪채챔책챠챵 153" x1="64.82" y1="132.2" x2="66.71" y2="105.52" xlink:href="#_횁책챌청챙첼챠챠청챕_찾챨횪채챔책챠챵_153"/>
    <linearGradient id="_횁책챌청챙첼챠챠청챕_찾챨횪채챔책챠챵_1405-3" data-name="횁책챌청챙첼챠챠청챕 찾챨횪채챔책챠챵 1405" x1="106.31" y1="105.26" x2="107.62" y2="86.84" xlink:href="#_횁책챌청챙첼챠챠청챕_찾챨횪채챔책챠챵_1405"/>
    <linearGradient id="_횁책챌청챙첼챠챠청챕_찾챨횪채챔책챠챵_153-5" data-name="횁책챌청챙첼챠챠청챕 찾챨횪채챔책챠챵 153" x1="108.11" y1="83.81" x2="108.78" y2="74.37" xlink:href="#_횁책챌청챙첼챠챠청챕_찾챨횪채챔책챠챵_153"/>
    <linearGradient id="_횁책챌청챙첼챠챠청챕_찾챨횪채챔책챠챵_60" data-name="횁책챌청챙첼챠챠청챕 찾챨횪채챔책챠챵 60" x1="122.53" y1="93.25" x2="123.13" y2="84.85" gradientUnits="userSpaceOnUse">
      <stop offset="0" stop-color="#ffea9f"/>
      <stop offset="1" stop-color="#ffc7cb"/>
    </linearGradient>
    <linearGradient id="_횁책챌청챙첼챠챠청챕_찾챨횪채챔책챠챵_60-2" data-name="횁책챌청챙첼챠챠청챕 찾챨횪채챔책챠챵 60" x1="130.63" y1="77.57" x2="131.26" y2="68.75" xlink:href="#_횁책챌청챙첼챠챠청챕_찾챨횪채챔책챠챵_60"/>
    <linearGradient id="_횁책챌청챙첼챠챠청챕_찾챨횪채챔책챠챵_60-3" data-name="횁책챌청챙첼챠챠청챕 찾챨횪채챔책챠챵 60" x1="162.3" y1="114.86" x2="163.23" y2="123.75" xlink:href="#_횁책챌청챙첼챠챠청챕_찾챨횪채챔책챠챵_60"/>
    <linearGradient id="_횁책챌청챙첼챠챠청챕_찾챨횪채챔책챠챵_60-4" data-name="횁책챌청챙첼챠챠청챕 찾챨횪채챔책챠챵 60" x1="164.54" y1="114.63" x2="165.46" y2="123.52" xlink:href="#_횁책챌청챙첼챠챠청챕_찾챨횪채챔책챠챵_60"/>
    <linearGradient id="_횁책챌청챙첼챠챠청챕_찾챨횪채챔책챠챵_60-5" data-name="횁책챌청챙첼챠챠청챕 찾챨횪채챔책챠챵 60" x1="166.87" y1="114.39" x2="167.79" y2="123.28" xlink:href="#_횁책챌청챙첼챠챠청챕_찾챨횪채챔책챠챵_60"/>
    <linearGradient id="_횁책챌청챙첼챠챠청챕_찾챨횪채챔책챠챵_60-6" data-name="횁책챌청챙첼챠챠청챕 찾챨횪채챔책챠챵 60" x1="166.86" y1="114.39" x2="167.78" y2="123.28" xlink:href="#_횁책챌청챙첼챠챠청챕_찾챨횪채챔책챠챵_60"/>
    <linearGradient id="_횁책챌청챙첼챠챠청챕_찾챨횪채챔책챠챵_60-7" data-name="횁책챌청챙첼챠챠청챕 찾챨횪채챔책챠챵 60" x1="168.19" y1="114.25" x2="169.11" y2="123.14" xlink:href="#_횁책챌청챙첼챠챠청챕_찾챨횪채챔책챠챵_60"/>
    <linearGradient id="_횁책챌청챙첼챠챠청챕_찾챨횪채챔책챠챵_60-8" data-name="횁책챌청챙첼챠챠청챕 찾챨횪채챔책챠챵 60" x1="169.74" y1="114.09" x2="170.66" y2="122.98" xlink:href="#_횁책챌청챙첼챠챠청챕_찾챨횪채챔책챠챵_60"/>
    <linearGradient id="_횁책챌청챙첼챠챠청챕_찾챨횪채챔책챠챵_60-9" data-name="횁책챌청챙첼챠챠청챕 찾챨횪채챔책챠챵 60" x1="159.47" y1="115.11" x2="160.39" y2="124.04" xlink:href="#_횁책챌청챙첼챠챠청챕_찾챨횪채챔책챠챵_60"/>
    <linearGradient id="_횁책챌청챙첼챠챠청챕_찾챨횪채챔책챠챵_60-10" data-name="횁책챌청챙첼챠챠청챕 찾챨횪채챔책챠챵 60" x1="154.28" y1="117.89" x2="154.68" y2="121.86" xlink:href="#_횁책챌청챙첼챠챠청챕_찾챨횪채챔책챠챵_60"/>
    <linearGradient id="_횁책챌청챙첼챠챠청챕_찾챨횪채챔책챠챵_60-11" data-name="횁책챌청챙첼챠챠청챕 찾챨횪채챔책챠챵 60" x1="151.2" y1="118.2" x2="151.6" y2="122.18" xlink:href="#_횁책챌청챙첼챠챠청챕_찾챨횪채챔책챠챵_60"/>
    <linearGradient id="_횁책챌청챙첼챠챠청챕_찾챨횪채챔책챠챵_60-12" data-name="횁책챌청챙첼챠챠청챕 찾챨횪채챔책챠챵 60" x1="151.87" y1="118.13" x2="152.28" y2="122.11" xlink:href="#_횁책챌청챙첼챠챠청챕_찾챨횪채챔책챠챵_60"/>
    <linearGradient id="_횁책챌청챙첼챠챠청챕_찾챨횪채챔책챠챵_60-13" data-name="횁책챌청챙첼챠챠청챕 찾챨횪채챔책챠챵 60" x1="157.21" y1="117.59" x2="157.62" y2="121.57" xlink:href="#_횁책챌청챙첼챠챠청챕_찾챨횪채챔책챠챵_60"/>
    <linearGradient id="_횁책챌청챙첼챠챠청챕_찾챨횪채챔책챠챵_60-14" data-name="횁책챌청챙첼챠챠청챕 찾챨횪채챔책챠챵 60" x1="156.41" y1="117.67" x2="156.81" y2="121.65" xlink:href="#_횁책챌청챙첼챠챠청챕_찾챨횪채챔책챠챵_60"/>
    <linearGradient id="_횁책챌청챙첼챠챠청챕_찾챨횪채챔책챠챵_407" data-name="횁책챌청챙첼챠챠청챕 찾챨횪채챔책챠챵 407" x1="89.76" y1="142.27" x2="90.89" y2="99.44" gradientUnits="userSpaceOnUse">
      <stop offset="0" stop-color="#000"/>
      <stop offset="1" stop-color="#ff8e27"/>
    </linearGradient>
    <linearGradient id="_횁책챌청챙첼챠챠청챕_찾챨횪채챔책챠챵_147-2" data-name="횁책챌청챙첼챠챠청챕 찾챨횪채챔책챠챵 147" x1="98.77" y1="132.78" x2="98.64" y2="112.23" xlink:href="#_횁책챌청챙첼챠챠청챕_찾챨횪채챔책챠챵_147"/>
    <linearGradient id="_횁책챌청챙첼챠챠청챕_찾챨횪채챔책챠챵_957-2" data-name="횁책챌청챙첼챠챠청챕 찾챨횪채챔책챠챵 957" x1="96.86" y1="50.6" x2="78.65" y2="-21.58" xlink:href="#_횁책챌청챙첼챠챠청챕_찾챨횪채챔책챠챵_957"/>
    <linearGradient id="_횁책챌청챙첼챠챠청챕_찾챨횪채챔책챠챵_153-6" data-name="횁책챌청챙첼챠챠청챕 찾챨횪채챔책챠챵 153" x1="90.75" y1="151.12" x2="94.62" y2="129.82" xlink:href="#_횁책챌청챙첼챠챠청챕_찾챨횪채챔책챠챵_153"/>
    <linearGradient id="_횁책챌청챙첼챠챠청챕_찾챨횪채챔책챠챵_440" data-name="횁책챌청챙첼챠챠청챕 찾챨횪채챔책챠챵 440" x1="39.92" y1="161.66" x2="32.55" y2="119.87" gradientTransform="translate(15.4 -3.74) rotate(5.81)" gradientUnits="userSpaceOnUse">
      <stop offset="0" stop-color="#ff68b8"/>
      <stop offset=".21" stop-color="#ff64bf"/>
      <stop offset=".52" stop-color="#ff58d2"/>
      <stop offset=".88" stop-color="#ff46f2"/>
      <stop offset="1" stop-color="#ff40ff"/>
    </linearGradient>
    <filter id="luminosity-noclip" x="16.01" y="127.55" width="41.33" height="29.83" color-interpolation-filters="sRGB" filterUnits="userSpaceOnUse">
      <feFlood flood-color="#fff" result="bg"/>
      <feBlend in="SourceGraphic" in2="bg"/>
    </filter>
    <filter id="luminosity-noclip-2" x="16.01" y="-8231.41" width="41.33" height="32766" color-interpolation-filters="sRGB" filterUnits="userSpaceOnUse">
      <feFlood flood-color="#fff" result="bg"/>
      <feBlend in="SourceGraphic" in2="bg"/>
    </filter>
    <mask id="mask-1" x="16.01" y="-8231.41" width="41.33" height="32766" maskUnits="userSpaceOnUse"/>
    <linearGradient id="_횁책챌청챙첼챠챠청챕_찾챨횪채챔책챠챵_5" data-name="횁책챌청챙첼챠챠청챕 찾챨횪채챔책챠챵 5" x1="39.18" y1="145.84" x2="2.73" y2="107.74" gradientTransform="translate(15.4 -3.74) rotate(5.81)" gradientUnits="userSpaceOnUse">
      <stop offset="0" stop-color="#000"/>
      <stop offset="1" stop-color="#fff"/>
    </linearGradient>
    <mask id="mask" x="16.01" y="127.55" width="41.33" height="29.83" maskUnits="userSpaceOnUse">
      <g class="cls-116">
        <g class="cls-14">
          <polygon class="cls-17" points="57.34 127.55 17.41 157.37 16.01 128.29 57.34 127.55"/>
        </g>
      </g>
    </mask>
    <linearGradient id="_횁책챌청챙첼챠챠청챕_찾챨횪채챔책챠챵_1721" data-name="횁책챌청챙첼챠챠청챕 찾챨횪채챔책챠챵 1721" x1="39.18" y1="145.84" x2="2.73" y2="107.74" gradientTransform="translate(15.4 -3.74) rotate(5.81)" gradientUnits="userSpaceOnUse">
      <stop offset="0" stop-color="#ce6ace"/>
      <stop offset="1" stop-color="#c6c"/>
    </linearGradient>
    <linearGradient id="_횁책챌청챙첼챠챠청챕_찾챨횪채챔책챠챵_440-2" data-name="횁책챌청챙첼챠챠청챕 찾챨횪채챔책챠챵 440" x1="158.13" y1="119.18" x2="178.41" y2="173.62" gradientTransform="matrix(1,0,0,1,0,0)" xlink:href="#_횁책챌청챙첼챠챠청챕_찾챨횪채챔책챠챵_440"/>
    <filter id="luminosity-noclip-3" x="151.93" y="133.87" width="34.9" height="20.05" color-interpolation-filters="sRGB" filterUnits="userSpaceOnUse">
      <feFlood flood-color="#fff" result="bg"/>
      <feBlend in="SourceGraphic" in2="bg"/>
    </filter>
    <filter id="luminosity-noclip-4" x="151.93" y="-8231.41" width="34.9" height="32766" color-interpolation-filters="sRGB" filterUnits="userSpaceOnUse">
      <feFlood flood-color="#fff" result="bg"/>
      <feBlend in="SourceGraphic" in2="bg"/>
    </filter>
    <mask id="mask-3" x="151.93" y="-8231.41" width="34.9" height="32766" maskUnits="userSpaceOnUse"/>
    <linearGradient id="_횁책챌청챙첼챠챠청챕_찾챨횪채챔책챠챵_5-2" data-name="횁책챌청챙첼챠챠청챕 찾챨횪채챔책챠챵 5" x1="163.37" y1="141.73" x2="185.61" y2="158.99" gradientTransform="matrix(1,0,0,1,0,0)" xlink:href="#_횁책챌청챙첼챠챠청챕_찾챨횪채챔책챠챵_5"/>
    <mask id="mask-2" x="151.93" y="133.87" width="34.9" height="20.05" maskUnits="userSpaceOnUse">
      <g class="cls-70">
        <g class="cls-115">
          <path class="cls-25" d="M180.39,133.87c.92,5.75,2.64,10.65,6.44,13.29l-34.9,6.76,28.46-20.05Z"/>
        </g>
      </g>
    </mask>
    <linearGradient id="_횁책챌청챙첼챠챠청챕_찾챨횪채챔책챠챵_730" data-name="횁책챌청챙첼챠챠청챕 찾챨횪채챔책챠챵 730" x1="163.37" y1="141.73" x2="185.61" y2="158.99" gradientUnits="userSpaceOnUse">
      <stop offset="0" stop-color="#ce6ace"/>
      <stop offset="1" stop-color="#8a619c"/>
    </linearGradient>
    <linearGradient id="_횁책챌청챙첼챠챠청챕_찾챨횪채챔책챠챵_734" data-name="횁책챌청챙첼챠챠청챕 찾챨횪채챔책챠챵 734" x1="125.99" y1="141.73" x2="112.67" y2="82.8" gradientUnits="userSpaceOnUse">
      <stop offset="0" stop-color="#19babd"/>
      <stop offset=".99" stop-color="#2279b1"/>
    </linearGradient>
    <filter id="luminosity-noclip-5" x="106.34" y="132.98" width="36.88" height="15.75" color-interpolation-filters="sRGB" filterUnits="userSpaceOnUse">
      <feFlood flood-color="#fff" result="bg"/>
      <feBlend in="SourceGraphic" in2="bg"/>
    </filter>
    <filter id="luminosity-noclip-6" x="106.34" y="-8231.41" width="36.88" height="32766" color-interpolation-filters="sRGB" filterUnits="userSpaceOnUse">
      <feFlood flood-color="#fff" result="bg"/>
      <feBlend in="SourceGraphic" in2="bg"/>
    </filter>
    <mask id="mask-5" x="106.34" y="-8231.41" width="36.88" height="32766" maskUnits="userSpaceOnUse"/>
    <linearGradient id="_횁책챌청챙첼챠챠청챕_찾챨횪채챔책챠챵_2" data-name="횁책챌청챙첼챠챠청챕 찾챨횪채챔책챠챵 2" x1="126.33" y1="146.69" x2="119.17" y2="115.01" gradientUnits="userSpaceOnUse">
      <stop offset="0" stop-color="#000"/>
      <stop offset=".89" stop-color="#fff"/>
    </linearGradient>
    <mask id="mask-4" x="106.34" y="132.98" width="36.88" height="15.75" maskUnits="userSpaceOnUse">
      <g class="cls-51">
        <g class="cls-8">
          <path class="cls-32" d="M106.36,144.92l-.02.37,36.88,3.44s-.23-9.13-.32-15.75c-12.63,2.41-24.98,6.06-36.54,11.94Z"/>
        </g>
      </g>
    </mask>
    <linearGradient id="_횁책챌청챙첼챠챠청챕_찾챨횪채챔책챠챵_1394" data-name="횁책챌청챙첼챠챠청챕 찾챨횪채챔책챠챵 1394" x1="126.33" y1="146.69" x2="119.17" y2="115.01" gradientUnits="userSpaceOnUse">
      <stop offset="0" stop-color="#cff6ff"/>
      <stop offset=".89" stop-color="#ffccf2"/>
    </linearGradient>
    <linearGradient id="_횁책챌청챙첼챠챠청챕_찾챨횪채챔책챠챵_756" data-name="횁책챌청챙첼챠챠청챕 찾챨횪채챔책챠챵 756" x1="214.57" y1="46.6" x2="181.29" y2="13.54" gradientUnits="userSpaceOnUse">
      <stop offset="0" stop-color="#ffae07"/>
      <stop offset=".41" stop-color="#ffa605"/>
      <stop offset="1" stop-color="#ff9402"/>
    </linearGradient>
    <filter id="luminosity-noclip-7" x="199.92" y="38.79" width="7.56" height="6.07" color-interpolation-filters="sRGB" filterUnits="userSpaceOnUse">
      <feFlood flood-color="#fff" result="bg"/>
      <feBlend in="SourceGraphic" in2="bg"/>
    </filter>
    <filter id="luminosity-noclip-8" x="199.92" y="-8231.41" width="7.56" height="32766" color-interpolation-filters="sRGB" filterUnits="userSpaceOnUse">
      <feFlood flood-color="#fff" result="bg"/>
      <feBlend in="SourceGraphic" in2="bg"/>
    </filter>
    <mask id="mask-7" x="199.92" y="-8231.41" width="7.56" height="32766" maskUnits="userSpaceOnUse"/>
    <linearGradient id="_횁책챌청챙첼챠챠청챕_찾챨횪채챔책챠챵_5-3" data-name="횁책챌청챙첼챠챠청챕 찾챨횪채챔책챠챵 5" x1="201.95" y1="39.01" x2="210.82" y2="56.85" gradientTransform="matrix(1,0,0,1,0,0)" xlink:href="#_횁책챌청챙첼챠챠청챕_찾챨횪채챔책챠챵_5"/>
    <mask id="mask-6" x="199.92" y="38.79" width="7.56" height="6.07" maskUnits="userSpaceOnUse">
      <g class="cls-111">
        <g class="cls-44">
          <path class="cls-24" d="M207.36,41.1c-.38.83-1.08,1.54-1.16,2.44-.02.22,0,.44.1.62.06.11.15.2.25.27l-6.49.42s-.04-.1-.06-.15c-.08-.27-.13-.6.06-.81.11-.11.25-.15.39-.18.44-.11.91-.1,1.33-.28.6-.27.99-.95.91-1.59-.07-.55-.42-1.02-.62-1.54-.2-.52-.19-1.23.29-1.52.27.58.79,1.02,1.38,1.21.95.31,1.99-.02,3,.03.25.01.52.07.66.27.16.23.08.55-.03.81Z"/>
        </g>
      </g>
    </mask>
    <linearGradient id="_횁책챌청챙첼챠챠청챕_찾챨횪채챔책챠챵_730-2" data-name="횁책챌청챙첼챠챠청챕 찾챨횪채챔책챠챵 730" x1="201.95" y1="39.01" x2="210.82" y2="56.85" xlink:href="#_횁책챌청챙첼챠챠청챕_찾챨횪채챔책챠챵_730"/>
    <filter id="luminosity-noclip-9" x="196.19" y="40.74" width="3.06" height="2.14" color-interpolation-filters="sRGB" filterUnits="userSpaceOnUse">
      <feFlood flood-color="#fff" result="bg"/>
      <feBlend in="SourceGraphic" in2="bg"/>
    </filter>
    <filter id="luminosity-noclip-10" x="196.19" y="-8231.41" width="3.06" height="32766" color-interpolation-filters="sRGB" filterUnits="userSpaceOnUse">
      <feFlood flood-color="#fff" result="bg"/>
      <feBlend in="SourceGraphic" in2="bg"/>
    </filter>
    <mask id="mask-9" x="196.19" y="-8231.41" width="3.06" height="32766" maskUnits="userSpaceOnUse"/>
    <linearGradient id="_횁책챌청챙첼챠챠청챕_찾챨횪채챔책챠챵_5-4" data-name="횁책챌청챙첼챠챠청챕 찾챨횪채챔책챠챵 5" x1="197.01" y1="38.99" x2="202.11" y2="58.54" gradientTransform="matrix(1,0,0,1,0,0)" xlink:href="#_횁책챌청챙첼챠챠청챕_찾챨횪채챔책챠챵_5"/>
    <mask id="mask-8" x="196.19" y="40.74" width="3.06" height="2.14" maskUnits="userSpaceOnUse">
      <g class="cls-87">
        <g class="cls-73">
          <path class="cls-31" d="M196.2,41.59c-.07.45.2.9.6,1.12s.88.22,1.32.08c.42-.13.81-.39,1.03-.77.11-.19.17-.44.04-.61-.05-.07-.13-.12-.2-.15-.29-.14-.62-.13-.93-.2-.28-.06-.51-.24-.78-.3-.49-.12-.98.35-1.06.83Z"/>
        </g>
      </g>
    </mask>
    <linearGradient id="_횁책챌청챙첼챠챠청챕_찾챨횪채챔책챠챵_730-3" data-name="횁책챌청챙첼챠챠청챕 찾챨횪채챔책챠챵 730" x1="197.01" y1="38.99" x2="202.11" y2="58.54" xlink:href="#_횁책챌청챙첼챠챠청챕_찾챨횪채챔책챠챵_730"/>
    <filter id="luminosity-noclip-11" x="206" y="13.4" width="8.66" height="10.01" color-interpolation-filters="sRGB" filterUnits="userSpaceOnUse">
      <feFlood flood-color="#fff" result="bg"/>
      <feBlend in="SourceGraphic" in2="bg"/>
    </filter>
    <filter id="luminosity-noclip-12" x="206" y="-8231.41" width="8.66" height="32766" color-interpolation-filters="sRGB" filterUnits="userSpaceOnUse">
      <feFlood flood-color="#fff" result="bg"/>
      <feBlend in="SourceGraphic" in2="bg"/>
    </filter>
    <mask id="mask-11" x="206" y="-8231.41" width="8.66" height="32766" maskUnits="userSpaceOnUse"/>
    <linearGradient id="_횁책챌청챙첼챠챠청챕_찾챨횪채챔책챠챵_5-5" data-name="횁책챌청챙첼챠챠청챕 찾챨횪채챔책챠챵 5" x1="210.4" y1="20.25" x2="209.35" y2="10.66" gradientTransform="matrix(1,0,0,1,0,0)" xlink:href="#_횁책챌청챙첼챠챠청챕_찾챨횪채챔책챠챵_5"/>
    <mask id="mask-10" x="206" y="13.4" width="8.66" height="10.01" maskUnits="userSpaceOnUse">
      <g class="cls-67">
        <g class="cls-97">
          <path class="cls-26" d="M214.66,23.42c-2.18-1.8-8.66-7.55-8.66-7.55l4.73-2.46,3.93,10.01Z"/>
        </g>
      </g>
    </mask>
    <linearGradient id="_횁책챌청챙첼챠챠청챕_찾챨횪채챔책챠챵_730-4" data-name="횁책챌청챙첼챠챠청챕 찾챨횪채챔책챠챵 730" x1="210.4" y1="20.25" x2="209.35" y2="10.66" xlink:href="#_횁책챌청챙첼챠챠청챕_찾챨횪채챔책챠챵_730"/>
    <filter id="luminosity-noclip-13" x="186.73" y="23.42" width="28.76" height="22.85" color-interpolation-filters="sRGB" filterUnits="userSpaceOnUse">
      <feFlood flood-color="#fff" result="bg"/>
      <feBlend in="SourceGraphic" in2="bg"/>
    </filter>
    <filter id="luminosity-noclip-14" x="186.73" y="-8231.41" width="28.76" height="32766" color-interpolation-filters="sRGB" filterUnits="userSpaceOnUse">
      <feFlood flood-color="#fff" result="bg"/>
      <feBlend in="SourceGraphic" in2="bg"/>
    </filter>
    <mask id="mask-13" x="186.73" y="-8231.41" width="28.76" height="32766" maskUnits="userSpaceOnUse"/>
    <linearGradient id="_횁책챌청챙첼챠챠청챕_찾챨횪채챔책챠챵_2-2" data-name="횁책챌청챙첼챠챠청챕 찾챨횪채챔책챠챵 2" x1="201.41" y1="35.37" x2="214.37" y2="44.99" xlink:href="#_횁책챌청챙첼챠챠청챕_찾챨횪채챔책챠챵_2"/>
    <mask id="mask-12" x="186.73" y="23.42" width="28.76" height="22.85" maskUnits="userSpaceOnUse">
      <g class="cls-83">
        <g class="cls-9">
          <polygon class="cls-18" points="186.73 46.27 215.5 44.37 214.66 23.42 186.73 46.27"/>
        </g>
      </g>
    </mask>
    <linearGradient id="_횁책챌청챙첼챠챠청챕_찾챨횪채챔책챠챵_1710" data-name="횁책챌청챙첼챠챠청챕 찾챨횪채챔책챠챵 1710" x1="201.41" y1="35.37" x2="214.37" y2="44.99" gradientUnits="userSpaceOnUse">
      <stop offset="0" stop-color="#ffccf2"/>
      <stop offset=".89" stop-color="#ffccf2"/>
    </linearGradient>
    <filter id="luminosity-noclip-15" x="181.69" y="15.13" width="24.31" height="29.82" color-interpolation-filters="sRGB" filterUnits="userSpaceOnUse">
      <feFlood flood-color="#fff" result="bg"/>
      <feBlend in="SourceGraphic" in2="bg"/>
    </filter>
    <filter id="luminosity-noclip-16" x="181.69" y="-8231.41" width="24.31" height="32766" color-interpolation-filters="sRGB" filterUnits="userSpaceOnUse">
      <feFlood flood-color="#fff" result="bg"/>
      <feBlend in="SourceGraphic" in2="bg"/>
    </filter>
    <mask id="mask-15" x="181.69" y="-8231.41" width="24.31" height="32766" maskUnits="userSpaceOnUse"/>
    <linearGradient id="_횁책챌청챙첼챠챠청챕_찾챨횪채챔책챠챵_2-3" data-name="횁책챌청챙첼챠챠청챕 찾챨횪채챔책챠챵 2" x1="202.74" y1="38.45" x2="182.17" y2="16.78" xlink:href="#_횁책챌청챙첼챠챠청챕_찾챨횪채챔책챠챵_2"/>
    <mask id="mask-14" x="181.69" y="15.13" width="24.31" height="29.82" maskUnits="userSpaceOnUse">
      <g class="cls-50">
        <g class="cls-6">
          <polygon class="cls-30" points="184.2 44.96 181.69 15.13 191.24 15.4 206 15.87 187.9 17.84 184.2 44.96"/>
        </g>
      </g>
    </mask>
    <linearGradient id="_횁책챌청챙첼챠챠청챕_찾챨횪채챔책챠챵_1710-2" data-name="횁책챌청챙첼챠챠청챕 찾챨횪채챔책챠챵 1710" x1="202.74" y1="38.45" x2="182.17" y2="16.78" xlink:href="#_횁책챌청챙첼챠챠청챕_찾챨횪채챔책챠챵_1710"/>
    <radialGradient id="_횁책챌청챙첼챠챠청챕_찾챨횪채챔책챠챵_126" data-name="횁책챌청챙첼챠챠청챕 찾챨횪채챔책챠챵 126" cx="132.95" cy="163.05" fx="132.95" fy="163.05" r="154.34" gradientUnits="userSpaceOnUse">
      <stop offset=".02" stop-color="#523e63"/>
      <stop offset=".99" stop-color="#4d2d4f"/>
    </radialGradient>
    <linearGradient id="_횁책챌청챙첼챠챠청챕_찾챨횪채챔책챠챵_1308" data-name="횁책챌청챙첼챠챠청챕 찾챨횪채챔책챠챵 1308" x1="173.88" y1="199.84" x2="176.27" y2="181.73" gradientUnits="userSpaceOnUse">
      <stop offset=".02" stop-color="#311945"/>
      <stop offset=".99" stop-color="#28012a"/>
    </linearGradient>
    <linearGradient id="_횁책챌청챙첼챠챠청챕_찾챨횪채챔책챠챵_1308-2" data-name="횁책챌청챙첼챠챠청챕 찾챨횪채챔책챠챵 1308" x1="87.64" y1="208.02" x2="90.45" y2="186.7" xlink:href="#_횁책챌청챙첼챠챠청챕_찾챨횪채챔책챠챵_1308"/>
    <linearGradient id="_횁책챌청챙첼챠챠청챕_찾챨횪채챔책챠챵_1309" data-name="횁책챌청챙첼챠챠청챕 찾챨횪채챔책챠챵 1309" x1="158.12" y1="161.28" x2="157.49" y2="181.89" gradientUnits="userSpaceOnUse">
      <stop offset=".02" stop-color="#523e63"/>
      <stop offset=".99" stop-color="#4d2d4f"/>
    </linearGradient>
    <linearGradient id="_횁책챌청챙첼챠챠청챕_찾챨횪채챔책챠챵_1309-2" data-name="횁책챌청챙첼챠챠청챕 찾챨횪채챔책챠챵 1309" x1="158.12" y1="161.28" x2="157.5" y2="181.9" xlink:href="#_횁책챌청챙첼챠챠청챕_찾챨횪채챔책챠챵_1309"/>
    <linearGradient id="_횁책챌청챙첼챠챠청챕_찾챨횪채챔책챠챵_1309-3" data-name="횁책챌청챙첼챠챠청챕 찾챨횪채챔책챠챵 1309" x1="189.08" y1="196.44" x2="188.91" y2="173.7" xlink:href="#_횁책챌청챙첼챠챠청챕_찾챨횪채챔책챠챵_1309"/>
    <linearGradient id="_횁책챌청챙첼챠챠청챕_찾챨횪채챔책챠챵_1308-3" data-name="횁책챌청챙첼챠챠청챕 찾챨횪채챔책챠챵 1308" x1="174.22" y1="161.08" x2="173.58" y2="182.19" xlink:href="#_횁책챌청챙첼챠챠청챕_찾챨횪채챔책챠챵_1308"/>
    <linearGradient id="_횁책챌청챙첼챠챠청챕_찾챨횪채챔책챠챵_1308-4" data-name="횁책챌청챙첼챠챠청챕 찾챨횪채챔책챠챵 1308" x1="9.69" y1="193.57" x2="33.69" y2="173.91" xlink:href="#_횁책챌청챙첼챠챠청챕_찾챨횪채챔책챠챵_1308"/>
    <linearGradient id="_횁책챌청챙첼챠챠청챕_찾챨횪채챔책챠챵_1308-5" data-name="횁책챌청챙첼챠챠청챕 찾챨횪채챔책챠챵 1308" x1="131.27" y1="183.13" x2="141.02" y2="213.33" xlink:href="#_횁책챌청챙첼챠챠청챕_찾챨횪채챔책챠챵_1308"/>
    <linearGradient id="_횁책챌청챙첼챠챠청챕_찾챨횪채챔책챠챵_1309-4" data-name="횁책챌청챙첼챠챠청챕 찾챨횪채챔책챠챵 1309" x1="53.74" y1="198.8" x2="53.55" y2="173.71" xlink:href="#_횁책챌청챙첼챠챠청챕_찾챨횪채챔책챠챵_1309"/>
    <linearGradient id="_횁책챌청챙첼챠챠청챕_찾챨횪채챔책챠챵_1309-5" data-name="횁책챌청챙첼챠챠청챕 찾챨횪채챔책챠챵 1309" x1="110.51" y1="198.37" x2="110.32" y2="173.28" xlink:href="#_횁책챌청챙첼챠챠청챕_찾챨횪채챔책챠챵_1309"/>
    <radialGradient id="_횁책챌청챙첼챠챠청챕_찾챨횪채챔책챠챵_126-2" data-name="횁책챌청챙첼챠챠청챕 찾챨횪채챔책챠챵 126" cx="43.63" cy="164.73" fx="43.63" fy="164.73" r="25.31" xlink:href="#_횁책챌청챙첼챠챠청챕_찾챨횪채챔책챠챵_126"/>
    <linearGradient id="_횁책챌청챙첼챠챠청챕_찾챨횪채챔책챠챵_1308-6" data-name="횁책챌청챙첼챠챠청챕 찾챨횪채챔책챠챵 1308" x1="91.55" y1="160.21" x2="90.91" y2="181.34" xlink:href="#_횁책챌청챙첼챠챠청챕_찾챨횪채챔책챠챵_1308"/>
    <linearGradient id="_횁책챌청챙첼챠챠청챕_찾챨횪채챔책챠챵_440-3" data-name="횁책챌청챙첼챠챠청챕 찾챨횪채챔책챠챵 440" x1="100.8" y1="170.77" x2="100.39" y2="185.36" gradientTransform="matrix(1,0,0,1,0,0)" xlink:href="#_횁책챌청챙첼챠챠청챕_찾챨횪채챔책챠챵_440"/>
    <linearGradient id="_횁책챌청챙첼챠챠청챕_찾챨횪채챔책챠챵_440-4" data-name="횁책챌청챙첼챠챠청챕 찾챨횪채챔책챠챵 440" x1="71.05" y1="172.56" x2="70.83" y2="180.57" gradientTransform="matrix(1,0,0,1,0,0)" xlink:href="#_횁책챌청챙첼챠챠청챕_찾챨횪채챔책챠챵_440"/>
    <linearGradient id="_횁책챌청챙첼챠챠청챕_찾챨횪채챔책챠챵_440-5" data-name="횁책챌청챙첼챠챠청챕 찾챨횪채챔책챠챵 440" x1="61.61" y1="172.51" x2="61.39" y2="180.52" gradientTransform="matrix(1,0,0,1,0,0)" xlink:href="#_횁책챌청챙첼챠챠청챕_찾챨횪채챔책챠챵_440"/>
    <linearGradient id="_횁책챌청챙첼챠챠청챕_찾챨횪채챔책챠챵_440-6" data-name="횁책챌청챙첼챠챠청챕 찾챨횪채챔책챠챵 440" x1="52.23" y1="172.61" x2="52" y2="180.67" gradientTransform="matrix(1,0,0,1,0,0)" xlink:href="#_횁책챌청챙첼챠챠청챕_찾챨횪채챔책챠챵_440"/>
    <linearGradient id="_횁책챌청챙첼챠챠청챕_찾챨횪채챔책챠챵_440-7" data-name="횁책챌청챙첼챠챠청챕 찾챨횪채챔책챠챵 440" x1="80.61" y1="168.27" x2="80.41" y2="175.34" gradientTransform="matrix(1,0,0,1,0,0)" xlink:href="#_횁책챌청챙첼챠챠청챕_찾챨횪채챔책챠챵_440"/>
    <linearGradient id="_횁책챌청챙첼챠챠청챕_찾챨횪채챔책챠챵_440-8" data-name="횁책챌청챙첼챠챠청챕 찾챨횪채챔책챠챵 440" x1="52.52" y1="165.37" x2="52.4" y2="169.81" gradientTransform="matrix(1,0,0,1,0,0)" xlink:href="#_횁책챌청챙첼챠챠청챕_찾챨횪채챔책챠챵_440"/>
    <linearGradient id="_횁책챌청챙첼챠챠청챕_찾챨횪채챔책챠챵_440-9" data-name="횁책챌청챙첼챠챠청챕 찾챨횪채챔책챠챵 440" x1="190.39" y1="169.58" x2="190.18" y2="177" gradientTransform="matrix(1,0,0,1,0,0)" xlink:href="#_횁책챌청챙첼챠챠청챕_찾챨횪채챔책챠챵_440"/>
    <linearGradient id="_횁책챌청챙첼챠챠청챕_찾챨횪채챔책챠챵_440-10" data-name="횁책챌청챙첼챠챠청챕 찾챨횪채챔책챠챵 440" x1="189.84" y1="167.85" x2="189.68" y2="173.48" gradientTransform="matrix(1,0,0,1,0,0)" xlink:href="#_횁책챌청챙첼챠챠청챕_찾챨횪채챔책챠챵_440"/>
    <linearGradient id="_횁책챌청챙첼챠챠청챕_찾챨횪채챔책챠챵_440-11" data-name="횁책챌청챙첼챠챠청챕 찾챨횪채챔책챠챵 440" x1="162.29" y1="168.38" x2="162.13" y2="174.12" gradientTransform="matrix(1,0,0,1,0,0)" xlink:href="#_횁책챌청챙첼챠챠청챕_찾챨횪채챔책챠챵_440"/>
    <linearGradient id="_횁책챌청챙첼챠챠청챕_찾챨횪채챔책챠챵_440-12" data-name="횁책챌청챙첼챠챠청챕 찾챨횪채챔책챠챵 440" x1="143.05" y1="165.36" x2="142.71" y2="177.66" gradientTransform="matrix(1,0,0,1,0,0)" xlink:href="#_횁책챌청챙첼챠챠청챕_찾챨횪채챔책챠챵_440"/>
    <linearGradient id="_횁책챌청챙첼챠챠청챕_찾챨횪채챔책챠챵_440-13" data-name="횁책챌청챙첼챠챠청챕 찾챨횪채챔책챠챵 440" x1="99.02" y1="164.88" x2="98.89" y2="169.58" gradientTransform="matrix(1,0,0,1,0,0)" xlink:href="#_횁책챌청챙첼챠챠청챕_찾챨횪채챔책챠챵_440"/>
    <linearGradient id="_횁책챌청챙첼챠챠청챕_찾챨횪채챔책챠챵_440-14" data-name="횁책챌청챙첼챠챠청챕 찾챨횪채챔책챠챵 440" x1="80.71" y1="164.84" x2="80.55" y2="170.73" gradientTransform="matrix(1,0,0,1,0,0)" xlink:href="#_횁책챌청챙첼챠챠청챕_찾챨횪채챔책챠챵_440"/>
    <linearGradient id="_횁책챌청챙첼챠챠청챕_찾챨횪채챔책챠챵_440-15" data-name="횁책챌청챙첼챠챠청챕 찾챨횪채챔책챠챵 440" x1="61.39" y1="164.48" x2="61.17" y2="172.5" gradientTransform="matrix(1,0,0,1,0,0)" xlink:href="#_횁책챌청챙첼챠챠청챕_찾챨횪채챔책챠챵_440"/>
    <linearGradient id="_횁책챌청챙첼챠챠청챕_찾챨횪채챔책챠챵_440-16" data-name="횁책챌청챙첼챠챠청챕 찾챨횪채챔책챠챵 440" x1="173.62" y1="171.85" x2="173.33" y2="181.99" gradientTransform="matrix(1,0,0,1,0,0)" xlink:href="#_횁책챌청챙첼챠챠청챕_찾챨횪채챔책챠챵_440"/>
  </defs>
  <g class="cls-79">
    <g id="Layer_2" data-name="Layer 2">
      <g id="_0" data-name="0">
        <g>
          <g>
            <path class="cls-42" d="M.01,4.69l8.2,125.05c.15,2.79,2.07,4.71,4.81,4.71l159.97-.39c2.76,0,4.22-.38,4.34-3.21l13.13-126.44s-1.16-1.82-3.74-2.44c-2.58-.62-5.45-.76-5.45-.76L4.35,0C1.39,0-.15,1.66.01,4.69Z"/>
            <path class="cls-85" d="M78.77,121.58c0,.96.8,57.6.8,57.6l27.46.12,1.05-57.85-29.31.14Z"/>
            <path class="cls-88" d="M78.77,121.58c0,.96.8,57.6.8,57.6l1.93.24-.84-57.8-1.89-.04Z"/>
            <path class="cls-28" d="M107.7,142.24l.38-20.8-29.31.14c0,.6.31,22.5.54,39.12,7.37-8.93,17.46-15.74,28.39-18.45Z"/>
            <path class="cls-34" d="M3.63,6.61l7.6,123.47c.15,2.73,2.07,4.6,4.81,4.6l163.23-.38c2.76,0,4.22-.37,4.34-3.13l7.47-124.32c.12-2.92-1.65-3.85-4.58-3.85L7.96,2.04c-2.96,0-4.5,1.62-4.34,4.58Z"/>
            <path class="cls-56" d="M98.37,6.73c77.74,0,91.04-3.73,88.12-3.74L7.96,2.04c-2.96,0,12.67,4.7,90.41,4.7Z"/>
            <polygon class="cls-58" points="187.42 67.41 58.88 134.58 124.83 134.43 185.82 94.19 187.42 67.41"/>
            <path class="cls-57" d="M191.06,6.85c.05-1.26-.27-2.13-.86-2.73L8.86,91.72l1.92,31.21L189.86,26.92l1.21-20.07Z"/>
            <polygon class="cls-110" points="65.6 175.32 126.82 174.78 126.82 183.13 66.08 183.13 65.6 175.32"/>
            <polygon class="cls-106" points="65.6 175.32 66.08 183.13 84.1 183.13 84.35 175.15 65.6 175.32"/>
            <path class="cls-22" d="M65.6,175.32l.48,7.81h48.27c-13.81-1.78-27.39-4.14-40.96-7.88l-7.79.07Z"/>
            <path class="cls-65" d="M13.99,14.08l6.89,107.03c.15,2.36,1.1,4.02,3.47,4.04h149.37c2.4.01,2.5-.93,2.63-3.33l5.32-107.02c.13-2.56-.33-2.63-2.89-2.65l-162.14-1.2c-2.6-.02-2.81.53-2.65,3.13Z"/>
            <path class="cls-100" d="M181.66,14.8l-5.13,103.18-.19,3.84c-.11,2.4-.23,3.35-2.63,3.33H24.34c-2.37-.01-3.32-1.67-3.47-4.04l-.23-3.61L13.99,14.08c-.16-2.59.04-3.15,2.64-3.13l162.15,1.21c2.55.01,3.02.09,2.88,2.64Z"/>
            <polygon class="cls-29" points="46.12 49.22 48.85 91.42 54.35 100.47 158.13 99.13 161.39 55.85 154.67 44.81 46.12 49.22"/>
            <path class="cls-53" d="M176.53,117.98l-.19,3.84c-.11,2.4-.23,3.35-2.63,3.33H24.34c-2.37-.01-3.32-1.67-3.47-4.04l-.23-3.61c12.27.04,144.59.44,155.88.48Z"/>
            <path class="cls-108" d="M30.84,115.25v7.23l-9.6.54c-.2-.55-.31-1.21-.36-1.91l-.23-3.61-.11-1.71v-.06c.49.16,10.3-.48,10.3-.48Z"/>
            <polygon class="cls-112" points="23.37 120.83 22.8 117.23 28.53 116.57 28.49 120.79 23.37 120.83"/>
            <path class="cls-107" d="M181.66,14.8l-5.32,107.02c-.11,2.4-.23,3.35-2.63,3.33H24.34c-2.01-.01-3.01-1.22-3.35-3.04,23.25.1,147.82.65,150.15.96,2.57.31,2.25-2.89,2.25-2.89,0,0,4.79-96.07,5.12-108.01h.26c2.55.01,3.02.09,2.88,2.64Z"/>
            <polygon class="cls-4" points="46.12 49.22 50.95 90.37 150.48 91 154.67 44.81 46.12 49.22"/>
            <polygon class="cls-33" points="93.36 45.02 92.1 91.42 48.85 91.42 44.44 46.49 93.36 45.02"/>
            <path class="cls-69" d="M55.59,56.41l12.7-1.13,1.77,14.31s4.66-4.34,9.16-2.89,5.63,5.47,3.22,9.16c-2.41,3.7-11.58,1.93-13.34,0-1.77-1.93-2.57-17.04-2.57-17.04l-9.81,3.05-1.13-5.47Z"/>
            <ellipse class="cls-80" cx="109.53" cy="59.87" rx="7.48" ry="7.64"/>
            <polygon class="cls-93" points="106.56 56.41 107.04 64.29 113.31 59.79 106.56 56.41"/>
            <path class="cls-72" d="M103.5,71.2c1.29,0,41.32-.64,41.32-.64l-.32,3.38-41.32.64.32-3.38Z"/>
            <polygon class="cls-1" points="120.54 53.52 120.22 58.66 143.69 59.3 144.18 53.03 120.54 53.52"/>
            <g>
              <path class="cls-71" d="M163.17,118.87l-.62.03s-.07,2.63.06,3.25l.65-.02-.09-3.25Z"/>
              <path class="cls-102" d="M166.39,121.67s-1.09.09-1.63.03c.93-.75,2.04-2.45.37-3.05-.53-.32-1.28.36-1.23.64.02.11,0,0,.5.05.74-.69,1.12.36.86.82-.39.69-1.48,1.62-.93,2.01.32,0,2.05.09,2.05.09l.03-.59Z"/>
              <path class="cls-39" d="M167.8,119.96c0-.19-.16-.46-.39-.39-.83.3.29,1.48.39.39Z"/>
              <path class="cls-86" d="M167.91,121.66c-.15-1.42-1.19.64-.11.19,0,0,0,.01,0,.02.06-.05.1-.12.11-.2Z"/>
              <path class="cls-35" d="M169.14,119.18l-.42.03s-.22,2.72-.13,3.06c.24.21.63-.04.63-.04l-.08-3.05Z"/>
              <path class="cls-95" d="M170.7,122.26l.08-3.19s-.4-.13-.59-.11c-.15,1.07-.13,3.54-.13,3.54l.63-.23Z"/>
            </g>
            <path class="cls-89" d="M159.92,118.09c-.01.11-.02,4.7-.02,4.7l.25-.06v-4.7s-.23.06-.23.06Z"/>
            <g>
              <path class="cls-38" d="M157.29,120.53c-.19-.87-.83-1.98-2.68-2-2-.02-2.54.95-2.8,1.89-.17.6,1.43,1.56,1.43,1.56l2.91-.03s1.17-1.12,1.14-1.43ZM153.43,121.25c-.69.06-.65-1.85-.05-1.89.61-.04.74,1.83.05,1.89ZM155.49,121.2c-.78-.05-.54-1.96-.03-1.98.51-.02.81,2.04.03,1.98Z"/>
              <path class="cls-113" d="M151.67,120.76l-.83.7s.28.78.31.64c.03-.14,1.06-.65,1.06-.65l-.54-.7Z"/>
              <path class="cls-49" d="M151.63,122.1l.17.5c.08-.03,1.12-.53,1.12-.53l-.59-.45c-.11,0-.7.48-.7.48Z"/>
              <path class="cls-99" d="M157.46,120.76l-.54.7s1.03.51,1.06.65.31-.64.31-.64l-.83-.7Z"/>
              <path class="cls-10" d="M156.22,122.07s1.04.5,1.12.53l.17-.5s-.59-.48-.7-.48l-.59.45Z"/>
            </g>
            <path class="cls-54" d="M32.09,117.63c.56.14,116.83.42,116.83.42l-117.12,2.25.28-2.67Z"/>
            <path class="cls-19" d="M169.49,117.96l-1.01,1.97-147.64.7.03.48c.15,2.37,1.11,4.03,3.47,4.04h149.37c2.4.01,2.52-.93,2.63-3.33l.19-3.84c-1.16,0-3.6-.01-7.03-.02Z"/>
            <path class="cls-55" d="M175.88,14.56c-1.21-.2-157.87-.24-158.01,1.25-.13,1.48,5.39,92.65,5.39,92.65,0,0,156.95-93.17,152.61-93.9Z"/>
            <path class="cls-96" d="M96.7,129.62c0,1.13-.92,2.04-2.04,2.04s-2.04-.92-2.04-2.04.92-2.04,2.04-2.04,2.04.92,2.04,2.04Z"/>
          </g>
          <g>
            <g>
              <polygon class="cls-74" points="58.63 149.16 58.55 149.42 57.19 153.82 48.95 157.25 48.35 157.5 17.41 157.37 16.01 128.29 57.34 127.55 58.63 149.16"/>
              <polygon class="cls-47" points="58.55 149.42 57.19 153.82 48.95 157.25 58.55 149.42"/>
              <g class="cls-52">
                <polygon class="cls-20" points="57.34 127.55 17.41 157.37 16.01 128.29 57.34 127.55"/>
              </g>
            </g>
            <path class="cls-47" d="M17.41,157.37l-1.98-29.7s42.33-.13,41.91-.13c-.42,0-40.31,1.55-40.31,1.55l.38,28.28Z"/>
            <path class="cls-59" d="M43.85,148.32c-.3.55-.73,1.05-1.23,1.45.16-.29.31-.58.47-.87.22-.41-.2-.96-.65-.68-.63.4-1.28.77-1.93,1.14-.36.21-.72.41-1.08.62-.1.06-.3.23-.41.24-.27.01-.16-.08-.09-.3.42-1.3,1.28-2.43,1.89-3.64.19-.39-.17-.89-.6-.64-.87.5-1.7,1.04-2.52,1.63-.81.59-1.64,1.18-2.56,1.59-.88.38-1.87.59-2.81.33.06-.1.13-.21.19-.31.64-1.14,1.17-2.36,1.55-3.61.37-1.22.61-2.49.69-3.76.06-.86-.03-2.12-1.14-2.22-1.16-.1-2.05,1.34-2.56,2.19-.66,1.07-1.1,2.27-1.31,3.51-.11.66-.16,1.36-.09,2.04-.48.34-.91.77-1.13.98-.48.46-.92.95-1.39,1.42-.29.28-1.66,1.66-1.81.71-.11-.66.23-1.53.46-2.13.3-.77.69-1.49,1.08-2.22.29-.53-.44-1.16-.85-.65-.5.63-1,1.25-1.49,1.88-.27.34-.55.69-.82,1.03-.08.1-.23.37-.34.42-.17.08-.15.05-.25-.14-.1-.18-.18-.37-.25-.57.43-2.16.83-4.33,1.15-6.51.19-1.29.38-2.58.55-3.88.09-.63.18-1.26.27-1.89.07-.45.07-.83-.12-1.25-.09-.2-.35-.23-.51-.09-.62.54-.85,1.3-1.08,2.07-.3.97-.55,1.95-.76,2.95-.41,1.94-.66,3.92-.71,5.91-.03.92,0,1.86.2,2.76.07.31.17.68.32,1.01,0,.03-.01.06-.02.1-.03.16.09.24.21.24.15.21.35.38.61.46.58.17,1.01-.22,1.37-.65-.22.98-.34,2.31.88,2.61,1.14.28,2.13-.76,2.85-1.49.42-.42.81-.87,1.24-1.29.21-.2.42-.4.64-.59.04.1.06.21.12.31.03.06.08.11.12.17-.06.15-.11.28-.15.39-.18.57-.29,1.14-.25,1.74.02.26.16.44.44.47.5.04.83-.25,1.12-.62.17-.22.32-.44.48-.67.27.09.56.16.85.19,2.61.27,4.4-1.56,6.41-2.87-.23.38-.45.77-.66,1.16-.32.62-.94,1.65-.59,2.37.43.89,1.47.45,2.08.08.41-.25.81-.5,1.21-.75-.05.11-.1.23-.12.35-.08.64.51.97,1.08.85,1.28-.28,2.13-1.63,2.27-2.85.03-.28-.38-.43-.52-.17ZM22.65,143.65c.09-1.59.3-3.19.61-4.75.16-.8.35-1.6.57-2.39.13-.49.27-.98.49-1.43.07.49-.03,1.03-.09,1.5-.07.57-.14,1.13-.22,1.7-.16,1.17-.34,2.34-.54,3.51-.27,1.58-.55,3.16-.85,4.73-.1-.97-.01-1.99.04-2.87ZM32.28,141.33c.24-.33.6-.92,1.01-1.06.66-.22.6.7.58,1.09-.04,1.02-.19,2.04-.44,3.03-.27,1.06-.63,2.1-1.13,3.08-.23.45-.48.89-.75,1.32-.09-.07-.18-.15-.26-.24.16-.48.47-1.25.19-1.71-.21-.35-.53-.41-.88-.32-.05-1.84.62-3.72,1.68-5.2Z"/>
            <path class="cls-59" d="M45.15,137.43c-.54-.2-1.21-.13-1.78-.16-.63-.03-1.27-.06-1.9-.08-1.38-.06-2.76-.12-4.14-.16-2.63-.08-5.26.02-7.89.11-.14,0-.16.26,0,.26,2.65-.03,5.31.1,7.96.19,1.3.05,2.6.11,3.9.17.67.03,1.35.07,2.02.1.57.03,1.23.16,1.78.02.22-.06.29-.37.05-.46Z"/>
            <path class="cls-59" d="M43.24,154.05c-.49-.29-1.05-.24-1.61-.24-.66,0-1.32,0-1.98,0-1.32,0-2.63,0-3.95,0-2.64,0-5.27.06-7.91.13-.24,0-.32.38-.05.39,2.64.1,5.27.21,7.9.25,1.32.02,2.64.04,3.95.07.66.01,1.32.03,1.98.03.55,0,1.11.07,1.61-.2.15-.08.23-.33.05-.44Z"/>
            <path class="cls-59" d="M52.64,131.45c-.95.13-1.38,1.16-1.76,1.93-.18.37-.35.75-.51,1.14-.02.06-.04.12-.07.18-.03-.09-.06-.18-.09-.27.04-.03.08-.08.08-.16.07-.67.06-1.35-.07-2.01-.1-.54-.29-1-.78-1.3-.2-.12-.46-.04-.58.15-.28.42-.2.98-.17,1.46.04.51.13,1.01.25,1.51.23,1.01.58,1.99.99,2.94.1.23.41.33.64.29.26-.05.46-.23.54-.49.23-.78.55-1.48.94-2.19.4-.73.83-1.44,1.18-2.19.2-.42-.05-1.06-.6-.98Z"/>
          </g>
          <g>
            <path class="cls-5" d="M146.84,127.73c-2.03,10.19-.62,21.37,5.09,26.19l33.92-6.98c-5.83-5.1-6.86-11.88-3.88-20.05l-35.13.85Z"/>
            <g class="cls-68">
              <path class="cls-21" d="M180.39,133.87c.92,5.75,2.64,10.65,6.44,13.29l-34.9,6.76,28.46-20.05Z"/>
            </g>
            <path class="cls-47" d="M147.81,147.76c-2.69-6.49-3.39-14.01-1.34-20.87h35.5l-33.78,2.21c-2.35,5.09-2.15,11.48-.38,18.67Z"/>
            <path class="cls-59" d="M177.35,138.55s-.06-.03-.1-.04h0s0,0,0,0c-.42-.2-.84-.36-1.28-.51-.2-.07-.35.1-.37.27-1.68-.18-3.38-.21-5.07-.33-.38-1.48-1.43-2.91-2.7-3.62-1.27-.72-3.94-.75-4.14,1.21-.23,2.31,3.49,2.84,5.05,3.05.32.04.64.08.96.11.05.52,0,1.06-.2,1.6-.44,1.27-1.34,2.76-2.4,3.6-.72.57-1.81.76-2.48.26.44-.63.79-1.32,1.05-1.91.3-.69.85-1.77.47-2.53-.47-.93-1.57-.47-2.11.12-1.03,1.11-1.58,2.91-.9,4.33-.2.2-.41.38-.63.51-.68.42-1.54.27-1.67-.61-.13-.85.28-1.73.3-2.58.01-.59-.72-.68-1.02-.26-.78,1.11-1.5,2.27-2.1,3.49-.28-.75-.36-1.55-.47-2.36-.08-.6-.1-2.05-.86-2.25-.85-.22-1.51,1.24-1.8,1.81-.52,1-.87,2.07-1.3,3.11-.18.44-.36.98-.65,1.36-.29.38-.48.24-.67-.12-.16-.31-.28-.65-.37-.99-.33-1.22-.36-2.53-.37-3.79-.01-2.58.32-5.25,1.13-7.71.15-.46.5-1.79,1.04-1.82.3-.02.27.11.36.37.06.19.1.4.14.6.07.37.13.75.17,1.12.15,1.49-.04,2.98-.41,4.43-.05.2.28.27.35.08.47-1.33.65-2.73.59-4.14-.03-.68-.12-1.36-.27-2.02-.09-.4-.22-.92-.62-1.12-.96-.48-1.63,1.28-1.88,1.91-.53,1.36-.83,2.85-1.05,4.29-.23,1.48-.33,2.97-.3,4.47.03,1.34.09,2.73.53,4,.28.82,1,2.13,1.97,1.19.36-.35.55-.88.75-1.33.27-.63.51-1.27.75-1.91.29-.73.59-1.46.99-2.13.12-.2.5-.94.71-.88.2.06.24.83.27,1.04.18,1.41.16,2.86.85,4.14.17.32.67.33.85,0,.41-.74.83-1.48,1.26-2.2,0,.23,0,.45.06.68.21.89.94,1.49,1.85,1.53.87.04,1.62-.38,2.25-1,1.23,1,3.08.51,4.2-.54.73-.69,1.3-1.61,1.77-2.49.49-.91.88-1.92.88-2.97,0-.1-.02-.21-.03-.32,2.11.14,4.24.14,6.33.55.41.08.81-.52.36-.75ZM164.23,141.62c.12-.3.29-.59.49-.84.04-.05.36-.45.44-.42-.1-.04-.15.35-.15.37-.2.7-.53,1.52-.97,2.25-.05-.46.02-.93.2-1.36ZM167.86,137.61c-.86-.16-4.47-1.06-3.12-2.54,1.11-1.22,3.01.02,3.79.97.46.56.81,1.17,1,1.81-.56-.06-1.12-.13-1.68-.23Z"/>
            <path class="cls-59" d="M177.08,132.77c-.24-.37-.98-.31-1.36-.32-.48,0-.95-.02-1.43-.03-.99-.02-1.98,0-2.97-.01-.43,0-.51.66-.06.68,1.01.04,2.02.12,3.03.16.5.02.99.04,1.49.06.41.01,1.02.08,1.31-.27.07-.08.05-.19,0-.27Z"/>
            <path class="cls-59" d="M174.02,130.93c0-.29-.51-.25-.5.03,0,.77-.02,1.55-.08,2.32-.06.75-.15,1.5-.15,2.26,0,.16.25.17.3.03.51-1.46.48-3.1.43-4.63Z"/>
          </g>
          <g>
            <path class="cls-62" d="M107.5,127.17s35.73-.89,35.44-.89.28,22.45.28,22.45l-36.88-3.44,1.16-18.12Z"/>
            <g class="cls-105">
              <path class="cls-48" d="M106.36,144.92l-.02.37,36.88,3.44s-.23-9.13-.32-15.75c-12.63,2.41-24.98,6.06-36.54,11.94Z"/>
            </g>
            <polygon class="cls-47" points="106.34 145.29 143.88 149.85 142.94 126.27 140.96 145.86 106.34 145.29"/>
            <path class="cls-59" d="M123.84,137.15c-.9-.16-1.82-.25-2.71-.45.01-.2.02-.35.03-.42.1-1.1.26-2.2.48-3.28.21-1.03.55-2.06.56-3.12,0-.45-.56-.51-.73-.12-.76,1.77-1.28,3.57-1.73,5.44-.08.34-.17.68-.26,1.03-.36-.08-.72-.1-.95.07-.16.11-.25.3-.19.49.03.09.13.18.19.24.22.25.4.4.53.66-.03.09-.05.18-.08.27-.12.35-.27.68-.43,1.02.03-.26.06-.53.09-.79.06-.62-.83-.74-1.09-.26-.27.49-.43,1.02-.63,1.54-.14.37-.38,1.22-.74,1.43-.32.19-.26-.19-.23-.47.4-.61.71-1.28.92-1.97.1-.34.36-1-.07-1.23-.48-.26-.83.4-1,.72-.37.72-.58,1.54-.61,2.35,0,0,0,.02,0,.03-.52.73-1.41,1.79-2.37,1.79-1.01,0-1.33-1.3-1.5-2.07-.24-1.1-.33-2.23-.22-3.34.18-1.98,1-3.9,2.38-5.34.62-.65,1.98-1.99,2.59-.65.43.94.32,2.16.08,3.12-.04.17.24.23.29.07.35-1.12.66-2.82-.1-3.86-.83-1.15-2.2-.26-3,.44-2.26,1.95-3.3,4.99-3.11,7.93.08,1.27.26,2.98,1.21,3.95,1.01,1.04,2.38.39,3.28-.43.2-.18.38-.38.56-.59.08.25.22.47.5.55.65.19,1.15-.55,1.44-1.02.05.35.2.66.62.72.58.09.88-.47,1.12-.9.18-.33.34-.67.49-1.01.04.18.12.35.26.46.96.71,1.28-1.33,1.4-2.72.9.22,1.8.32,2.76.1.19-.05.21-.31,0-.35ZM120.21,138.09c-.03.26-.06.51-.11.76-.03.12-.04.34-.06.44-.03-.08-.06-.16-.1-.24-.06-.13-.12-.26-.17-.39.01-.05.03-.09.05-.13.14-.45.26-.91.37-1.36.03,0,.05.02.08.02-.02.3-.03.6-.06.9Z"/>
            <path class="cls-59" d="M125.94,135.47s-.06-.07-.1-.08c-.09,0-.15.03-.23.06-.04.01-.15.03-.17.04-.16.04-.31.05-.47.05-.41,0-.83-.03-1.23-.12-.13-.03-.27.02-.33.16-.04.11.01.29.15.32.49.1.98.16,1.48.15.2,0,.42-.01.6-.09.17-.07.38-.3.3-.49Z"/>
            <path class="cls-59" d="M125.26,134.78c-.2-.06-.45.06-.51.27-.13.51-.25,1.02-.34,1.54-.04.25-.08.5-.1.75-.01.14-.04.28-.02.42.01.11.06.24.11.34.08.15.28.17.39.03.07-.1.16-.23.19-.35.04-.13.05-.28.08-.42.04-.23.09-.47.13-.7.09-.47.2-.93.32-1.39.06-.21-.04-.43-.25-.49Z"/>
            <path class="cls-59" d="M138.79,133.18c-.03-1.23-.6-2.28-.82-3.46-.09-.45-.69-.27-.67.14.08,1.9.01,3.79.01,5.68,0,.03,0,.05,0,.08-.12.2-.26.39-.4.58-.24.3-.72.92-1.19,1.22.08-.21.18-.47.2-.52.24-.55-.71-.93-.96-.39-.44.99-.93,1.95-1.61,2.8-.02.02-.04.04-.05.06.01-.07.02-.14.04-.18.16-.58.32-1.17.46-1.76.15-.58-.55-.78-.88-.37-.47.58-.86,1.23-1.25,1.87-.09.14-.18.29-.27.44.11-.35.22-.69.34-1.03.29-.86.57-1.72.76-2.6.1-.46-.41-.81-.78-.46-.59.55-1.18,1.11-1.76,1.67-.01-.08-.03-.17-.04-.25-.27-1.31-.61-2.59-.71-3.93-.05-.62-.15-1.38.04-1.98.16-.51.95-1.17,1.48-1.21.24-.02.21-.36,0-.4-.9-.18-1.98.56-2.3,1.38-.43,1.09-.18,2.53,0,3.66.1.69.24,1.37.4,2.05.12.51.26,1.04.29,1.57-.15.16-.32.32-.47.48-.44.49-.86.99-1.26,1.51-.43.55-.92,1.12-1.06,1.82-.07.35.27.76.64.52.93-.59,1.82-1.22,2.45-2.14.41-.6.59-1.26.62-1.94.37-.39.75-.77,1.14-1.12-.18.56-.37,1.12-.57,1.68-.17.5-.34,1-.47,1.51-.1.39-.28.82-.03,1.18.1.15.25.27.44.26.75-.05,1.26-.99,1.61-1.57,0,0,0-.01.01-.02,0,.55.22.93.86.81.66-.12,1.14-.9,1.49-1.41.17-.25.33-.51.48-.77.11.03.25.04.42,0,.76-.13,1.45-.9,1.95-1.59.01.39.02.77-.02,1.16-.02.24-.07.48-.11.72,0,.02-.11.43-.04.49-.23-.03-.62-.82-.68-.96-.08-.16-.35-.09-.32.09.09.49.38,1.64,1.12,1.45.27-.07.35-.32.39-.56.09-.67.07-1.36.17-2.04.07-.47.11-.93.15-1.4.47-.86.81-1.82.78-2.8Z"/>
            <path class="cls-59" d="M138.11,137.04c-.06,0-.06.1,0,.1s.06-.1,0-.1Z"/>
            <path class="cls-59" d="M140.66,133.88c-.86-.28-1.79-.37-2.69-.44-.91-.07-1.81-.08-2.69.16-.2.05-.18.33.04.32,1.77-.08,3.54.43,5.3.26.15-.01.19-.25.04-.3Z"/>
          </g>
          <g>
            <polygon class="cls-12" points="215.05 43.89 206.54 44.43 200.05 44.85 184.26 45.87 182.42 15.68 190.62 15.38 191.24 15.41 205.37 15.84 206 15.86 210.73 13.41 214.66 23.42 214.7 23.51 215.05 43.89"/>
            <g>
              <g class="cls-43">
                <path class="cls-16" d="M207.36,41.1c-.38.83-1.08,1.54-1.16,2.44-.02.22,0,.44.1.62.06.11.15.2.25.27l-6.49.42s-.04-.1-.06-.15c-.08-.27-.13-.6.06-.81.11-.11.25-.15.39-.18.44-.11.91-.1,1.33-.28.6-.27.99-.95.91-1.59-.07-.55-.42-1.02-.62-1.54-.2-.52-.19-1.23.29-1.52.27.58.79,1.02,1.38,1.21.95.31,1.99-.02,3,.03.25.01.52.07.66.27.16.23.08.55-.03.81Z"/>
              </g>
              <g class="cls-66">
                <path class="cls-27" d="M196.2,41.59c-.07.45.2.9.6,1.12s.88.22,1.32.08c.42-.13.81-.39,1.03-.77.11-.19.17-.44.04-.61-.05-.07-.13-.12-.2-.15-.29-.14-.62-.13-.93-.2-.28-.06-.51-.24-.78-.3-.49-.12-.98.35-1.06.83Z"/>
              </g>
            </g>
            <g class="cls-41">
              <path class="cls-23" d="M214.66,23.42c-2.18-1.8-8.66-7.55-8.66-7.55l4.73-2.46,3.93,10.01Z"/>
            </g>
            <g class="cls-98">
              <polygon class="cls-46" points="186.73 46.27 215.5 44.37 214.66 23.42 186.73 46.27"/>
            </g>
            <g class="cls-109">
              <polygon class="cls-45" points="184.2 44.96 181.69 15.13 191.24 15.4 206 15.87 187.9 17.84 184.2 44.96"/>
            </g>
            <polygon class="cls-47" points="186.73 15.52 205.37 15.84 210.84 12.62 211.88 16.32 210.33 14.47 206 16.32 186.73 15.52"/>
            <path class="cls-59" d="M206.17,36.59c-.26-.19-.53-.37-.79-.56-.36-.26-.73.06-.77.42-1.61-.13-3.26-.39-4.85-.16-.23-1.69-.51-3.39-.71-5.08.41-2.35.45-4.76.07-7.12-.06-.39-.58-.28-.64.05-.49,2.49-.36,4.98-.06,7.46-.12.64-.27,1.27-.47,1.89-.41,1.34-1.03,3.1-2.18,3.99-.92.71-1.16-1.02-1.25-1.57-.15-.9-.19-1.82-.12-2.73.03-.46-.55-.47-.72-.12-.39.82-.51,1.71-.66,2.6-.07.42-.15.85-.29,1.26-.15.43-.34,1.16-.67.39-.4-.94-.33-2.16-.31-3.15.03-1.08.11-2.16.06-3.25-.02-.44-.56-.52-.74-.12-.96,2.19-1.23,4.6-2.03,6.85-.26-.77-.46-1.56-.6-2.36.03.14.26.15.28-.01.45-2.79.86-5.58,1.03-8.4.08-1.31.15-2.63,0-3.94-.11-1.04-.32-2.16-1.18-2.84-.12-.1-.34-.04-.41.09-.35.6-.39,1.24-.43,1.93-.04.81-.08,1.62-.11,2.43-.07,1.73-.13,3.47-.15,5.21-.03,3.11.16,6.22,1.2,9.17.13.37.61.19.73-.07.8-1.76,1.11-3.67,1.6-5.52-.03.62-.05,1.23-.04,1.85.02.92-.01,2.62.91,3.18.93.56,1.45-.72,1.65-1.4.1-.34.16-.69.22-1.04.02.13.03.27.06.4.12.66.27,1.52.87,1.94,1.44,1.02,2.74-1.59,3.13-2.59.32-.82.59-1.66.82-2.51.15,1.09.32,2.18.47,3.27-.37.09-.75.2-1.11.37-.78.35-1.86,1.21-1.26,2.16.57.9,1.96,1.42,2.95,1.63.19.04.47-.07.46-.31-.04-1.08-.14-2.15-.28-3.23,2.02-.18,4.01.49,6.02.57.57.02.71-.72.3-1.01ZM188.11,29.65c.01-1.5.06-2.99.11-4.49.03-.77.06-1.54.09-2.31.02-.64-.02-1.38.19-2.01.65.78.71,2.08.75,3.02.07,1.31-.02,2.63-.11,3.94-.17,2.47-.46,4.94-.73,7.4-.3-1.82-.33-3.7-.32-5.55ZM197.42,38.69c-.61-.8.8-1.32,1.76-1.54.11.88.19,1.76.23,2.65-.73-.2-1.57-.55-1.99-1.11Z"/>
            <path class="cls-59" d="M211.93,33.09c-.71.41-1.66.61-2.27.07.45-.59.73-1.3.88-2.02.05-.27.14-.59-.01-.84-.16-.26-.44-.3-.7-.21-1.27.39-1.81,1.97-1.21,3.1-.45.31-.94.22-1.08-.35-.12-.49.04-1.02.19-1.48.19-.61.51-1.13.82-1.68,0,0,0,0,0,0,.01-.03.04-.05.05-.08.14-.32-.33-.62-.57-.37-.32.34-.61.78-.85,1.27-.35.21-.77.33-1.14.36-.82.07-2.08.04-2.49-.82-.04-.09-.18-.03-.14.06.42.96,1.64,1.27,2.6,1.24.32-.01.62-.08.9-.17-.21.66-.29,1.35-.11,1.95.17.56.62,1,1.23,1.02.38,0,.72-.15,1.03-.37.38.36.87.59,1.4.61.72.03,1.46-.36,1.71-1.05.05-.14-.09-.31-.24-.23ZM209.52,31.24c.08-.09.17-.19.27-.26,0,0,0,0,0,0-.06.27-.16.69-.17.73-.09.25-.21.52-.36.76-.12-.43-.03-.88.26-1.23Z"/>
            <path class="cls-59" d="M208.82,19.58c-2.01.56-2.46,2.59-2.79,4.43-.3-.36-.53-.82-.72-1.21-.05-.11-.1-.22-.15-.34.14-.31.2-.67.23-1.01.03-.41,0-.94-.16-1.33-.19-.43-.71-.5-1.05-.2-.32.29-.36.75-.36,1.15,0,.9.32,1.76.75,2.55.28.52.61,1.1,1.08,1.48-.12.45-.11.91.42,1.12.15.06.41-.01.51-.14.14-.17.26-.31.28-.54,0-.11,0-.23-.02-.35.02-.04.05-.06.05-.11.04-.21.07-.43.11-.64.03-.07.06-.15.1-.23.24-.46.51-.91.78-1.35.56-.89,1.08-1.78,1.41-2.79.09-.28-.16-.58-.45-.5Z"/>
          </g>
        </g>
        <g>
          <polygon class="cls-15" points="46.18 188.47 216.41 188.22 217.5 181.32 191.2 169.07 11.2 167.54 12.73 186.43 46.18 188.47"/>
          <path class="cls-90" d="M146.52,169.31c.14.1,23.51,11.35,23.51,11.35l37.82-.38-27.86-13.07-33.46,2.11Z"/>
          <path class="cls-81" d="M153.8,177.37l10.21,3.06s-114.51.51-115.02.51c-.48,0-25.85-10.9-28.87-12.27-.21-.09,1.55.14,1.55.14l132.13,8.55Z"/>
          <g>
            <g>
              <polygon class="cls-94" points="144.6 163.66 171.14 175.27 170.85 180.09 145.8 168.88 144.6 163.66"/>
              <polygon class="cls-40" points="171.14 175.27 170.85 180.09 166.74 178.25 165.45 177.67 161.36 175.84 160.58 175.49 156.65 173.73 155.72 173.31 152.63 171.93 151.43 171.39 148.3 169.99 147.72 169.73 145.8 168.87 144.61 163.65 147.38 164.86 148.44 165.33 148.45 165.33 151.66 166.74 153.15 167.39 155.74 168.52 157.41 169.26 157.42 169.26 160.52 170.62 160.53 170.62 161.89 171.22 161.9 171.22 165.38 172.75 165.39 172.75 167.01 173.46 171.14 175.27"/>
              <polygon class="cls-63" points="180.09 163.96 163.72 163.86 163.42 164.7 161.49 163.88 153.96 163.84 153.83 164.73 151.71 163.83 144.6 163.66 171.14 175.27 170.85 180.09 205.97 180.11 207.02 175.31 201.32 172.93 199.8 172.9 199.59 172.18 196.21 170.77 194.67 170.79 194.47 170.02 187.48 167.07 185.77 167.1 185.69 166.32 182.59 165.01 181.49 165.04 181.47 164.54 180.09 163.96"/>
              <path class="cls-37" d="M171.14,175.27l-.29,4.82,35.12.02,1.06-4.8c-1.93.24-4.02.29-6.51-.18l-2.17.13c-1.98.53-4.46.51-7.5-.13l-2.17.13c-2.44.6-4.94.53-7.5-.13l-2.17.13c-2.3.69-7.87,0-7.87,0Z"/>
            </g>
            <path class="cls-75" d="M199.59,172.18l-15.45.16h0c-1.07-.44-2.23-.92-3.43-1.42l13.97-.13-.2-.77-6.08.08c-1.4-.59-3.64-1.54-3.64-1.54l6.03-.1-1.5-.63c-2.69.11-5.68.24-5.8.2,0,0-1.58-.6-2.26-.88l4.55-.06-.08-.77-6.23.08c-.98-.41-1.9-.79-2.75-1.14h0s0,0,0,0l-.15-.06-.23-.11,5.17-.05-.02-.49-6.15.05-1.37-.67h-2.58c.28.11.92.38,1.63.69l-7.38.07c-.72-.3-1.34-.56-1.88-.79h0l-.31.81-7.25.06c-.86-.35-1.6-.66-2.21-.92l-.12.88.12.06-6.58.05v.03l.34,4.87.58.26.02-4.66h.13l6.72-.06,3.29,1.39-6.8.08h-.09l-.14,4.65,1.2.54.52-4.54h7.01s.02-.01.02-.01l2.2.92-6.64.21h0s-.02,4.8-.02,4.8l.93.42.64-4.47h.13l6.67-.25,3.22,1.35-6.78.26h-.24s.29,4.87.29,4.87l.78.35.29-4.61h.24s0-.01,0-.01l7-.18h.02l3.4,1.43-6.93.28h0l.07,4.92,1.29.58.27-4.79v-.02l6.93-.29h.02l5.05,2.11-.1,4.83h1.79l.48-4.96s-1.94-.81-4.83-2l7.1-.06,5.23,2.19-.1,4.84h1.79l.48-4.97s-2.03-.84-5-2.08l7.1-.05h0l5.39,2.26-.1,4.85h1.79l.48-4.98s-2.1-.87-5.18-2.15l4.47-.04-.22-.76ZM182.85,168.79c.43.18,3.24,1.34,3.24,1.34l-7.08.08h-.02c-1.06-.44-2.15-.89-3.23-1.34l7.09-.08ZM178.84,167.18c.62.25,1.43.56,2.2.87h-.69s-1.29.03-1.29.03l-5.05.07c-.74-.31-1.46-.61-2.17-.9l5.83-.05,1.17-.02ZM174.07,165.1l.93.39c.76.33,1.34.58,1.34.58v-.02s.9.38.9.38l-7.18.09c-1.17-.49-2.25-.94-3.24-1.35l7.25-.07ZM160.71,166.63h0c-1.19-.49-2.3-.95-3.32-1.38l7.21-.06h.02l3.24,1.35-7.14.09ZM162.44,167.35l7.15-.08,2.16.91-7.1.09c-.75-.31-1.49-.62-2.21-.92ZM166.37,168.99l7.12-.09,3.2,1.34-7.08.09c-1.07-.44-2.16-.89-3.24-1.34ZM174.7,172.44c-1.07-.44-2.22-.92-3.42-1.43l7.11-.07,3.36,1.43-7.05.07Z"/>
          </g>
          <path class="cls-60" d="M46.18,188.47l.51-5.87c-16.75-4.89-27.24-9.95-35.49-15.06l1.53,18.89,33.45,2.04Z"/>
          <path class="cls-61" d="M46.69,182.6c64.97.75,122.57.42,170.81-1.28l-1.09,6.89-170.23.26.51-5.87Z"/>
          <polygon class="cls-63" points="20.39 163.45 21.67 168.81 49.75 180.05 161.16 180.11 162.22 175.31 135.28 163.96 118.91 163.86 118.61 164.7 116.68 163.88 109.15 163.84 109.03 164.73 106.9 163.83 99.38 163.8 99.36 164.73 97.13 163.79 89.56 163.76 89.6 164.65 87.41 163.75 79.79 163.71 79.69 164.6 77.56 163.7 70.02 163.67 70.04 164.59 67.81 163.66 60.18 163.61 60.28 164.55 58.05 163.62 50.49 163.58 50.5 164.52 48.26 163.57 40.71 163.54 40.87 164.53 38.81 163.56 30.94 163.5 30.97 164.44 28.84 163.52 20.39 163.45"/>
          <path class="cls-78" d="M57.41,175.2c-2.41.58-4.88.63-7.4,0l-.26,4.85h7.66v-4.85Z"/>
          <path class="cls-7" d="M58.5,175.2v4.85l102.66.06,1.06-4.8c-2.63.41-5.36.92-6.51-.18l-2.07.1c-2.75.29-5.34.33-7.6-.1l-2.17.13c-2.43.34-4.93.31-7.5-.13l-2.17.13c-2.14.38-4.72.24-7.5-.13l-1.63.06c-15.54.97-30.92.76-46.21-.13l-2.68.2c-2.61.5-5.24.35-7.87-.13l-1.8.13c-2.82.68-5.46.51-8.01-.07Z"/>
          <polygon class="cls-13" points="20.39 163.45 21.67 168.81 49.75 180.05 50.01 175.2 20.39 163.45"/>
          <path class="cls-82" d="M150.52,172.98l6.04-.05-1.78-.75-15.44.16s0,0,0,0h0c-1.07-.44-2.23-.92-3.43-1.42l15.55-.15-1.78-.75-6.08.08c-1.82-.76-2.9-1.23-4.91-2.07l-3.13.03-1.7-.89,8.82-.1-1.79-.75-6.22.08c-1.14-.47-2.22-.92-3.19-1.32l6.34-.06-1.15-.48-15.85.14c-.72-.3-1.35-.56-1.88-.79h0l-.31.81-7.25.06c-.86-.35-1.6-.66-2.21-.92l-.12.88.13.05-7.27.06s0,0,0,0c-.98-.41-1.83-.76-2.5-1.04l-.02.93.32.13h0s-7.33.06-7.33.06c0,0,0,0,0,0-1.1-.46-2.05-.86-2.77-1.16h0l.05.88.73.3h0s-7.47.07-7.47.07c-1.25-.53-2.3-.97-3.08-1.3h0l-.09.89,1,.42h.01s-7.33.07-7.33.07c-1.37-.58-2.54-1.07-3.36-1.42l.02.92,1.24.52-7.33.06c-1.53-.64-3.77-1.57-3.77-1.57l.1.95,1.53.64-7.28.06s0,0,0,0c-1.72-.71-3.13-1.29-4.04-1.67v.93s1.82.76,1.82.76h0s-7.23.06-7.23.06c0,0,0,0,0,0h0c-1.88-.77-3.41-1.41-4.35-1.79l.16.99,1.97.82h.02s-7.3.07-7.3.07c-2.03-.85-3.66-1.53-4.62-1.92l.04.93,2.39,1h.01s-7.38.21-7.38.21l1.04,5.32.03.14.72.34-.03-.19-.73-5.21,7.62-.07h0s3.9,1.63,3.9,1.63l-7.24.09.84,5.31.02.15.73.33v-.18s-.28-4.99-.28-4.99l7.41-.08h0s2.6,1.09,2.6,1.09l-7.04.1.53,5.4.73.34.13-5.14,7.11-.09,3.31,1.38h0s-6.96.09-6.96.09l.63,5.18.03.28.73.34v-.32s-.15-5.03-.15-5.03l16.27-.16,3.53,1.48-16.21.17.62,5.17.06.52.73.34-.02-.55-.15-5.01,6.69-.05h0s3.62,1.51,3.62,1.51l-.1,4.78h1.8s.47-4.91.47-4.91c0,0-1.31-.55-3.38-1.4,0,0,0,0,0,0l7.1-.06,3.79,1.59-.1,4.79h1.8l.47-4.92s-1.39-.58-3.53-1.48l7.05-.06h0s0,0,0,0l3.97,1.66-.1,4.8h1.79l.48-4.93s-1.47-.61-3.74-1.55h0s0,0,0,0l7.26-.06.09.04,1.96-.04s-.01,0-.02-.02l28.03-.22.3.04s-.03-.01-.09-.04l7.55-.06,4.87,2.04-.1,4.83h1.79l.48-4.96s-1.86-.77-4.62-1.93l7.06-.06h0s0,0,0,0l5.05,2.11-.1,4.83h1.79l.48-4.96s-1.94-.81-4.83-2h0s0,0,0,0l7.12-.06,5.23,2.19-.1,4.84h1.79l.48-4.97s-2.03-.84-4.99-2.08l7.1-.06h0s5.39,2.26,5.39,2.26l-.1,4.85h1.79l.48-4.98s-2.1-.87-5.18-2.15c0,0,0,0,0,0ZM138.08,168.79l3.2,1.34-7.08.09s0,0,0,0h0c-1.06-.44-2.15-.89-3.22-1.34l7.13-.09ZM124.1,171.04h0l3.4,1.43-7.06.07s0,0,0,0c-1.07-.45-2.23-.93-3.45-1.43h0s0,0,0,0l7.11-.07h0ZM82.51,172.94c-.85-.36-2.06-.87-3.49-1.46,0,0,0,0,0,0l7.41-.07,3.49,1.46h0s-7.41.08-7.41.08ZM73.28,173.04c-1.07-.45-2.25-.95-3.52-1.47h0s0,0,0,0l7.23-.07h0s3.52,1.46,3.52,1.46h0s-7.22.08-7.22.08ZM59.08,171.16c-1.07-.45-2.18-.91-3.3-1.38l7.1-.09,3.26,1.37-7.06.09ZM58.89,168.02l2.49,1.05-7.09.1c-.85-.35-1.7-.71-2.54-1.06l7.15-.08ZM68.86,167.22c-1.28-.54-2.52-1.05-3.66-1.53,0,0,0,0,0,0l7.33-.07,3.62,1.51-7.28.09s0,0,0,0ZM105.97,167.49l2.25.95-7.35.1c-.76-.32-1.51-.64-2.26-.96,0,0,0,0,0,0l7.37-.08ZM115.9,166.63h0c-1.19-.49-2.3-.95-3.31-1.38l7.2-.07h0s0,0,0,0l3.24,1.35h.02s-7.15.09-7.15.09c0,0,0,0,0,0ZM124.78,167.28l2.16.9-7.11.1c-.74-.31-1.48-.62-2.2-.92l7.15-.08ZM115.36,167.38h0l2.21.92-7.12.1c-.77-.32-1.53-.63-2.27-.94,0,0,0,0,0,0l7.17-.08h0ZM115.42,170.45c-1.07-.44-2.16-.9-3.26-1.35l7.12-.09,3.22,1.35h0s-7.08.09-7.08.09ZM96.34,170.69c-1-.42-2.09-.88-3.21-1.36l7.78-.09,3.34,1.35-7.91.1ZM86.91,170.81c-1.01-.43-2.1-.89-3.22-1.36l7.22-.09,3.21,1.36-7.21.09ZM77.72,170.92h0c-1.02-.43-2.13-.89-3.26-1.37l7.31-.09,3.27,1.36h0s-7.31.09-7.31.09c0,0,0,0,0,0ZM77.76,167.81l2.41,1.01-7.28.1c-.81-.34-1.62-.68-2.44-1.02l7.3-.08ZM105.69,170.58s0,0,0,0c-1.01-.43-2.09-.89-3.19-1.35l7.38-.09,3.22,1.35-7.41.09ZM96.86,167.59l2.37.96-7.69.1c-.77-.33-1.55-.65-2.32-.98l7.64-.09h0ZM87,167.7l2.32.98-7.2.1c-.79-.33-1.58-.67-2.37-1,0,0,0,0,0,0l7.24-.08h0ZM78.18,167.11s0,0,0,0c-1.25-.52-2.46-1.03-3.57-1.5l7.3-.07,3.48,1.48h0s-7.21.09-7.21.09ZM68.34,167.91h0s2.46,1.03,2.46,1.03l-7.17.1c-.84-.35-1.68-.7-2.5-1.04,0,0,0,0,0,0l7.21-.08ZM65.17,169.67l7.19-.09,3.29,1.37-7.17.09c-1.07-.45-2.19-.91-3.31-1.37ZM91.73,172.84c-.81-.34-2.01-.85-3.45-1.45,0,0,0,0,0,0l7.28-.07,3.41,1.45-7.23.08s0,0,0,0ZM101.21,172.74c-.77-.33-1.97-.83-3.41-1.45l8.01-.08,3.53,1.44-8.13.09s0,0,0,0ZM110.6,172.64c-.87-.36-2.04-.86-3.4-1.44l7.45-.07h0s3.41,1.44,3.41,1.44l-7.46.08s0,0,0,0ZM124.8,170.34s0,0,0,0c-1.07-.44-2.15-.89-3.24-1.34l7.12-.09,3.2,1.34h.02s-7.09.09-7.09.09ZM134.25,168.08l-5.06.07c-.73-.3-1.46-.6-2.17-.9h-.02s0,0,0,0l5.77-.07,1.48.9ZM132.43,166.43l-7.19.09c-1.17-.49-2.25-.94-3.24-1.35h0s0,0-.01,0l7.27-.07,3.17,1.33ZM110.35,165.28l3.29,1.39h0s-7.16.09-7.16.09c-1.21-.5-2.36-.98-3.4-1.41,0,0,0,0,0,0l7.27-.07ZM100.88,165.36l3.37,1.42-7.31.09c-1.2-.51-2.35-.99-3.41-1.44,0,0,0,0,0,0l7.35-.07ZM91.59,165.45l3.56,1.44h0s-7.58.1-7.58.1c-1.21-.52-2.4-1.01-3.47-1.47l7.48-.07h.01ZM63.06,165.71h0s3.69,1.54,3.69,1.54l-7.22.09c-1.33-.56-2.58-1.08-3.75-1.56h0s0,0-.01,0l7.3-.07ZM53.56,165.8h0l3.75,1.56h.02s-7.16.09-7.16.09c0,0,0,0,0,0h0c-1.34-.56-2.63-1.1-3.81-1.59l7.2-.07h0ZM40.79,167.57c-1.37-.57-2.7-1.12-3.92-1.62h0s7.26-.07,7.26-.07l3.8,1.6h.01s-7.15.09-7.15.09c0,0,0,0,0,0ZM42.31,168.21l7.14-.08,2.54,1.07-7.07.1c-.87-.36-1.75-.72-2.61-1.08ZM49.72,171.27c-1.07-.44-2.19-.91-3.33-1.38l7.08-.09,3.28,1.38-7.02.09s0,0,0,0ZM63.89,173.14s0,0-.01,0h0c-1.07-.44-2.28-.94-3.56-1.47,0,0,0,0,0,0l7.1-.07h0s3.52,1.47,3.52,1.47h0s-7.04.07-7.04.07ZM129.89,172.44c-1.07-.44-2.21-.92-3.42-1.43l7.11-.07,3.36,1.42-7.05.07s0,0,0,0Z"/>
          <path class="cls-63" d="M217.5,181.32s-48.96,3.06-74.04,3.25c-23.97.19-90.44-1.78-96.35-1.96,64.8.74,122.25.41,170.39-1.29Z"/>
          <g>
            <polygon class="cls-91" points="85.06 174.68 83.74 174.1 116.73 173.93 117.67 174.21 85.06 174.68"/>
            <polygon class="cls-92" points="71.55 174.07 69.28 174.12 70.56 174.94 72.71 174.82 71.55 174.07"/>
            <path class="cls-77" d="M59.58,174.07c.17.06,2.38-.06,2.38-.06l1.57.76-2.62.12-1.34-.81Z"/>
            <polygon class="cls-104" points="50.11 174.41 51.68 175 54.23 175 52.9 174.12 50.11 174.41"/>
            <path class="cls-64" d="M78.52,169.77c.17,0,2.44-.17,2.44-.17l1.63.76h-3.02l-1.05-.58Z"/>
            <path class="cls-114" d="M50.4,166.34c.17,0,2.91-.12,2.91-.12l1.28.41-2.5.06-1.69-.35Z"/>
            <path class="cls-103" d="M183.99,171.34c.09,0,11.32-.24,11.41-.24s1.28.47,1.28.47l-12.03.06-.66-.3Z"/>
            <polygon class="cls-101" points="187.67 168.84 190.34 168.92 191.94 169.35 188.76 169.5 187.67 168.84"/>
            <polygon class="cls-36" points="160.05 169.61 163.56 169.48 164.45 170.03 161.04 170.06 160.05 169.61"/>
            <polygon class="cls-3" points="141.11 167.61 142.2 167.63 144.83 168.85 143.35 169.04 141.11 167.61"/>
            <path class="cls-84" d="M97.05,165.83l3.19-.04s.74.3.68.3-3.53.15-3.53.15l-.35-.41Z"/>
            <polygon class="cls-2" points="78.78 166.05 81.55 165.96 82.57 166.47 79.33 166.56 78.78 166.05"/>
            <path class="cls-76" d="M59.9,166h2.49s.55.46.37.46-2.86.37-2.86.37v-.83Z"/>
            <path class="cls-11" d="M170.78,173.98c.19,0,2.93-.24,2.93-.24,0,0,2.74,1.09,2.59,1.09h-4.53l-.99-.85Z"/>
          </g>
        </g>
      </g>
    </g>
  </g>
</svg>