<?xml version="1.0" encoding="UTF-8"?>
<svg xmlns="http://www.w3.org/2000/svg" width="140.69" height="132.06" xmlns:xlink="http://www.w3.org/1999/xlink" viewBox="0 0 140.69 132.06">
  <defs>
    <style>
      .cls-1 {
        fill: url(#linear-gradient-2);
      }

      .cls-2 {
        fill: url(#New_Gradient_Swatch_copy_31);
      }

      .cls-3 {
        fill: url(#radial-gradient);
        mix-blend-mode: multiply;
      }

      .cls-4 {
        fill: url(#linear-gradient-4);
      }

      .cls-5 {
        fill: #8b1fea;
      }

      .cls-6 {
        fill: url(#New_Gradient_Swatch_copy_35);
      }

      .cls-7 {
        fill: url(#linear-gradient-3);
      }

      .cls-8 {
        fill: url(#linear-gradient-5);
      }

      .cls-9 {
        isolation: isolate;
      }

      .cls-10 {
        fill: url(#linear-gradient-8);
      }

      .cls-11 {
        fill: url(#New_Gradient_Swatch_copy_13);
      }

      .cls-12 {
        fill: #5f00b2;
      }

      .cls-13 {
        fill: url(#linear-gradient-7);
      }

      .cls-14 {
        fill: url(#linear-gradient-9);
      }

      .cls-15 {
        fill: url(#New_Gradient_Swatch_copy_34);
      }

      .cls-16 {
        fill: url(#New_Gradient_Swatch_copy_33);
      }

      .cls-17 {
        fill: url(#linear-gradient-6);
      }

      .cls-18 {
        fill: url(#New_Gradient_Swatch_copy_36);
      }

      .cls-19 {
        fill: #7d00d6;
      }

      .cls-20 {
        fill: url(#linear-gradient);
      }

      .cls-21 {
        fill: url(#New_Gradient_Swatch_copy_32);
      }
    </style>
    <radialGradient id="radial-gradient" cx="24.16" cy="124.36" fx="24.16" fy="124.36" r="70.22" gradientTransform="translate(39.59 111.21) scale(.85 .11)" gradientUnits="userSpaceOnUse">
      <stop offset="0" stop-color="#d4d6db"/>
      <stop offset=".04" stop-color="#d4d6db" stop-opacity=".88"/>
      <stop offset=".13" stop-color="#d4d6db" stop-opacity=".67"/>
      <stop offset=".21" stop-color="#d4d6db" stop-opacity=".49"/>
      <stop offset=".31" stop-color="#d4d6db" stop-opacity=".34"/>
      <stop offset=".41" stop-color="#d4d6db" stop-opacity=".22"/>
      <stop offset=".51" stop-color="#d4d6db" stop-opacity=".12"/>
      <stop offset=".63" stop-color="#d4d6db" stop-opacity=".05"/>
      <stop offset=".78" stop-color="#d4d6db" stop-opacity=".01"/>
      <stop offset=".99" stop-color="#d4d6db" stop-opacity="0"/>
    </radialGradient>
    <linearGradient id="linear-gradient" x1="154.6" y1="130.76" x2="210.75" y2="74.61" gradientTransform="translate(-108.73 66.74) rotate(-33.4)" gradientUnits="userSpaceOnUse">
      <stop offset="0" stop-color="#c9c9c9"/>
      <stop offset=".26" stop-color="#d6d6d6"/>
      <stop offset=".68" stop-color="#e7e7e7"/>
      <stop offset="1" stop-color="#ededed"/>
    </linearGradient>
    <linearGradient id="New_Gradient_Swatch_copy_36" data-name="New Gradient Swatch copy 36" x1="180.6" y1="156.79" x2="180.6" y2="132.12" gradientTransform="translate(-108.73 66.74) rotate(-33.4)" gradientUnits="userSpaceOnUse">
      <stop offset="0" stop-color="#9daac9"/>
      <stop offset="1" stop-color="#677085"/>
    </linearGradient>
    <linearGradient id="linear-gradient-2" x1="124.42" y1="157.89" x2="131.67" y2="150.63" gradientTransform="translate(-90.22 -15.75) rotate(-8.67)" gradientUnits="userSpaceOnUse">
      <stop offset="0" stop-color="#3c414d"/>
      <stop offset="1" stop-color="#677085"/>
    </linearGradient>
    <linearGradient id="New_Gradient_Swatch_copy_32" data-name="New Gradient Swatch copy 32" x1="-1339.77" y1="128.64" x2="-1290.08" y2="78.96" gradientTransform="translate(-1263.03 162.81) rotate(171.33) scale(1 -1)" gradientUnits="userSpaceOnUse">
      <stop offset="0" stop-color="#c9c9c9"/>
      <stop offset=".26" stop-color="#d6d6d6"/>
      <stop offset=".68" stop-color="#e7e7e7"/>
      <stop offset="1" stop-color="#ededed"/>
    </linearGradient>
    <linearGradient id="linear-gradient-3" x1="-1318.37" y1="129.94" x2="-1309.91" y2="121.48" gradientTransform="translate(-1263.03 162.81) rotate(171.33) scale(1 -1)" xlink:href="#linear-gradient-2"/>
    <linearGradient id="New_Gradient_Swatch_copy_31" data-name="New Gradient Swatch copy 31" x1="153.44" y1="47.3" x2="159.31" y2="47.3" gradientTransform="translate(-101.46 -36.05)" gradientUnits="userSpaceOnUse">
      <stop offset="0" stop-color="#3c414d"/>
      <stop offset=".55" stop-color="#3f4552"/>
      <stop offset="1" stop-color="#3c414d"/>
    </linearGradient>
    <linearGradient id="linear-gradient-4" x1="144.18" y1="79.71" x2="168.57" y2="55.32" gradientTransform="translate(-93.43 -37.71)" gradientUnits="userSpaceOnUse">
      <stop offset="0" stop-color="#3c414d"/>
      <stop offset=".27" stop-color="#3f4552"/>
      <stop offset=".6" stop-color="#4b5160"/>
      <stop offset=".95" stop-color="#5d6578"/>
      <stop offset="1" stop-color="#61697d"/>
    </linearGradient>
    <linearGradient id="New_Gradient_Swatch_copy_13" data-name="New Gradient Swatch copy 13" x1="151.05" y1="36.39" x2="160.62" y2="36.39" gradientTransform="translate(-102.84 -18.11) scale(1 .69)" gradientUnits="userSpaceOnUse">
      <stop offset="0" stop-color="#3c414d"/>
      <stop offset=".55" stop-color="#61697d"/>
      <stop offset="1" stop-color="#3c414d"/>
    </linearGradient>
    <linearGradient id="linear-gradient-5" x1="154.85" y1="69.6" x2="159.01" y2="65.43" gradientTransform="translate(-107.38 29.98) rotate(-23.41)" gradientUnits="userSpaceOnUse">
      <stop offset="0" stop-color="#dbdbdb"/>
      <stop offset=".51" stop-color="#e7e7e7"/>
      <stop offset="1" stop-color="#ededed"/>
    </linearGradient>
    <linearGradient id="linear-gradient-6" x1="-274.53" y1="-473.29" x2="-274.53" y2="-481.06" gradientTransform="translate(676.17 225.14) rotate(72.4) scale(1 -1)" xlink:href="#linear-gradient-2"/>
    <linearGradient id="New_Gradient_Swatch_copy_35" data-name="New Gradient Swatch copy 35" x1="-276.81" y1="-473.29" x2="-276.81" y2="-481.06" gradientTransform="translate(676.17 225.14) rotate(72.4) scale(1 -1)" gradientUnits="userSpaceOnUse">
      <stop offset="0" stop-color="#ffcca7"/>
      <stop offset=".41" stop-color="#ffd5b0"/>
      <stop offset="1" stop-color="#ffebc7"/>
    </linearGradient>
    <linearGradient id="New_Gradient_Swatch_copy_34" data-name="New Gradient Swatch copy 34" x1="37.69" y1="27.7" x2="37.69" y2="20.23" gradientTransform="translate(85.25 79.81) rotate(-1.77) scale(1 -1)" gradientUnits="userSpaceOnUse">
      <stop offset="0" stop-color="#ffb5b5"/>
      <stop offset=".29" stop-color="#fbabad"/>
      <stop offset=".76" stop-color="#f29397"/>
      <stop offset="1" stop-color="#ed848b"/>
    </linearGradient>
    <linearGradient id="linear-gradient-7" x1="34.49" y1="20.04" x2="42.01" y2="22.28" gradientTransform="translate(80.26 67.4) rotate(15.83) scale(1 -1)" gradientUnits="userSpaceOnUse">
      <stop offset="0" stop-color="#9398a3"/>
      <stop offset=".51" stop-color="#d4d6db"/>
      <stop offset="1" stop-color="#9398a3"/>
    </linearGradient>
    <linearGradient id="New_Gradient_Swatch_copy_33" data-name="New Gradient Swatch copy 33" x1="109.1" y1="84.85" x2="133.94" y2="76.71" gradientUnits="userSpaceOnUse">
      <stop offset="0" stop-color="#9398a3"/>
      <stop offset=".51" stop-color="#d4d6db"/>
      <stop offset="1" stop-color="#9398a3"/>
    </linearGradient>
    <linearGradient id="linear-gradient-8" x1="174.12" y1="139.91" x2="180.99" y2="133.04" gradientTransform="translate(-108.73 66.74) rotate(-33.4)" xlink:href="#linear-gradient-2"/>
    <linearGradient id="linear-gradient-9" x1="175.46" y1="138.57" x2="179.65" y2="134.38" gradientTransform="translate(-108.73 66.74) rotate(-33.4)" gradientUnits="userSpaceOnUse">
      <stop offset="0" stop-color="#677085"/>
      <stop offset="1" stop-color="#3c414d"/>
    </linearGradient>
  </defs>
  <g class="cls-9">
    <g id="Layer_2" data-name="Layer 2">
      <g id="OBJECTS">
        <g>
          <ellipse class="cls-3" cx="60.18" cy="124.36" rx="60.18" ry="7.7"/>
          <g>
            <g>
              <g>
                <polygon class="cls-20" points="65.33 39.33 128.39 98.2 123.13 80.39 68.81 30.06 65.33 39.33"/>
                <polygon class="cls-18" points="111.32 82.27 128.39 98.2 123.13 80.39 117.92 75.56 111.32 82.27"/>
              </g>
              <g>
                <polygon class="cls-1" points="61.66 114.06 60.93 124.78 58.32 110.12 61.66 114.06"/>
                <path class="cls-21" d="M59.47,31.98l-6.01,67.29c-.35,3.9,1.07,7.76,3.86,10.51l4.34,4.28,6.25-73.54-8.44-8.54Z"/>
                <path class="cls-7" d="M49.17,89.81c.5,3.27,3.55,5.51,6.82,5.01,3.27-.5,5.51-3.55,5.01-6.82-.5-3.27-3.55-5.51-6.82-5.01-3.27.5-5.51,3.55-5.01,6.82Z"/>
              </g>
              <g>
                <g>
                  <rect class="cls-2" x="51.98" y="3.2" width="5.86" height="16.12" transform="translate(.05 22.75) rotate(-23.41)"/>
                  <rect class="cls-4" x="52.61" y="13.68" width="20.68" height="32.27" rx="3.54" ry="3.54" transform="translate(-6.66 27.46) rotate(-23.41)"/>
                  <rect class="cls-11" x="48.22" y="1.46" width="9.56" height="10.78" transform="translate(1.64 21.62) rotate(-23.41)"/>
                </g>
                <path class="cls-8" d="M66.15,28.42c.65,1.49-.04,3.22-1.53,3.87-1.49.65-3.22-.04-3.87-1.53-.65-1.49.04-3.22,1.53-3.87,1.49-.65,3.22.04,3.87,1.53Z"/>
              </g>
            </g>
            <g>
              <g>
                <polygon class="cls-12" points="140.69 102.43 126.51 56.17 119.1 58.52 133.28 104.78 140.69 102.43"/>
                <polygon class="cls-5" points="136.99 103.61 122.8 57.35 119.1 58.52 133.28 104.78 136.99 103.61"/>
                <polygon class="cls-19" points="139.01 102.97 124.83 56.71 121.16 57.87 135.35 104.13 139.01 102.97"/>
              </g>
              <path class="cls-17" d="M133.28,104.78l7.3,9.5.11-11.86s-.6-1.18-2-.46c-1.42-1.47-3.18-1.12-3.82.68-1.07.22-1.67.72-1.6,2.13Z"/>
              <path class="cls-6" d="M137.63,110.44l-4.35-5.66c-.08-1.41.53-1.91,1.6-2.13.63-1.8,2.4-2.15,3.82-.68,1.39-.72,2,.46,2,.46l-.06,6.77c-1.13.02-2.19.23-3,1.24Z"/>
              <path class="cls-15" d="M119.1,58.52l-1.05-3.27c-.48-1.49.35-3.08,1.84-3.54l2.11-.65c1.48-.46,3.05.37,3.51,1.85l1,3.25-7.41,2.35Z"/>
              <rect class="cls-13" x="118.9" y="56.18" width="7.89" height="2.6" transform="translate(-11.63 39.83) rotate(-17.6)"/>
            </g>
            <path class="cls-16" d="M135.73,82.54l-19.38,6.15c-3.16,1-6.53-.75-7.53-3.9h0c-1-3.16.75-6.53,3.9-7.53l19.38-6.15,3.63,11.43Z"/>
            <g>
              <path class="cls-10" d="M118.7,80.26c1.48,2.24.86,5.25-1.38,6.73-2.24,1.48-5.25.86-6.73-1.38-1.48-2.24-.86-5.25,1.38-6.73,2.24-1.48,5.25-.86,6.73,1.38Z"/>
              <path class="cls-14" d="M117.11,81.3c.9,1.36.52,3.2-.84,4.1-1.36.9-3.2.52-4.1-.84-.9-1.36-.52-3.2.84-4.1s3.2-.52,4.1.84Z"/>
            </g>
          </g>
        </g>
      </g>
    </g>
  </g>
</svg>