<?xml version="1.0" encoding="UTF-8"?>
<svg xmlns="http://www.w3.org/2000/svg" width="111.02" height="139.95" viewBox="0 0 111.02 139.95">
  <defs>
    <style>
      .cls-1 {
        fill: #848587;
      }

      .cls-2 {
        fill: #703a00;
      }

      .cls-3 {
        mix-blend-mode: overlay;
      }

      .cls-3, .cls-4 {
        fill: #fff47c;
        opacity: .14;
      }

      .cls-5 {
        fill: #eb8500;
      }

      .cls-6 {
        fill: #c84800;
      }

      .cls-7 {
        opacity: .45;
      }

      .cls-7, .cls-8, .cls-9, .cls-10, .cls-4 {
        mix-blend-mode: multiply;
      }

      .cls-8 {
        opacity: .52;
      }

      .cls-11 {
        fill: #cbcbcb;
      }

      .cls-12 {
        fill: #ccc;
      }

      .cls-13 {
        fill: #70412c;
      }

      .cls-14 {
        opacity: .43;
      }

      .cls-14, .cls-15 {
        fill: #6a6b6d;
      }

      .cls-9 {
        opacity: .27;
      }

      .cls-16 {
        fill: #3e240f;
      }

      .cls-17 {
        fill: #fda618;
      }

      .cls-18 {
        isolation: isolate;
      }

      .cls-19 {
        fill: #b3b3b3;
      }

      .cls-20 {
        fill: #757678;
      }

      .cls-21 {
        fill: #9a9a9a;
      }

      .cls-22 {
        fill: #999a9c;
      }

      .cls-23 {
        fill: #b2b2b2;
      }
    </style>
  </defs>
  <g class="cls-18">
    <g id="Layer_2" data-name="Layer 2">
      <g id="Layer_1-2" data-name="Layer 1">
        <g>
          <g>
            <path class="cls-21" d="M41.72,100.7c-.24-2.06-4.85-4.97-7.88-6.55-3.03-1.57-4.24-2.55-5.45-3.88-.12-.14-.27-.25-.42-.36-.32.26-.67.58-1.03.96-4,4.18-3.45,7.45-3.45,8.54s4,4,6.18,6.36c1.18,1.28,2.52,2.18,4.2,2.45,1.85-.53,3.38-1.13,4.11-1.72,1.94-1.58,4-3.76,3.75-5.82Z"/>
            <g>
              <path class="cls-23" d="M29.66,105.79c-2.18-2.36-6.18-5.27-6.18-6.36,0-.35-.06-.95,0-1.73l-.19-.08-2.36,4.91s-5.27.73-8.73,2.36c-1.45.69-2.68.89-3.61.9.35,1.65.89,2.92.89,2.92,0,0,10.18,1.09,14.54,1.09,2.73,0,6.74-.66,9.83-1.55-1.67-.27-3.02-1.17-4.2-2.45Z"/>
              <path class="cls-12" d="M20.94,102.51l2.36-4.91.19.08c.13-1.6.76-4,3.45-6.81.37-.39.71-.7,1.03-.96-1.4-.96-4.05-.85-6.13.24-2.3,1.21-3.15,2.06-5.94,3.15-2.79,1.09-4.72,3.64-6.78,6.66-1.09,1.61-.93,3.95-.53,5.81.94,0,2.16-.21,3.61-.9,3.46-1.64,8.73-2.36,8.73-2.36Z"/>
            </g>
          </g>
          <g>
            <path class="cls-17" d="M108.91,79.79c-1.64,3.09-3.09,2.73-3.64,2.73,2.91-3.82-.54-8.18-2.91-13.45-2.37-5.27-.37-7.45,2-8.36-3.27-.54-6.18,2.91-6.91,2.91,4.54-6.91,0-14.9-4.36-16.18,5.27,6.18-1.82,13.45-.18,10,1.64-3.46-1.27-7.46-4.54-7.46s-4.91.55-4.36-4.36c.54-4.91-.36-7.64-2.72-6.36-2.36,1.27-6.73.54-4.91-2.18,1.82-2.73,1.09-4.54.91-4-.16,2.29-4.42,6.76-4.89,7.25,2.17-2.2,2.88-9.8-3.11-13.25-4.45-2.56-4.69-5.93-4.53-7.35-1.06,3.39-4.9,5.13-4.56,4.62,3.27-3.09,1.64-9.45,1.64-11.45,0,4-5.27,5.45-11.09,7.09-5.82,1.63-10.72,8.54-6.18,15.45,4.54,6.91.36,9.27-1.46,5.45-1.82-3.82-4.18-4.73-4.18-4.73,4.18,4.73,5.45,11.08-4.18,13.09-9.63,2-7.63,10.54-6.91,11.81-5.83-5.67-1.97-10.79.35-12.17-16.81,6.74-15.08,21.91-5.62,27.62,9.64,5.82,12,7.46,8.18,11.27-.84.84-1.56,2.11-2.18,3.57-.89-.54-2-1.76-2-4.48,0-4.54-7.27,12.91-.72,18.36.16.13.31.24.46.34.52,1.27,1.16,3.83,1.54,8.92.73,9.64,30.9,12.18,51.08,12.18s24.36-17.63,21.81-20.36c-2.54-2.73-5.09-2.36,3.64-9.09,8.73-6.72,5.45-16.72,4.55-17.45Z"/>
            <path class="cls-17" d="M64.76,19.74c.07-.21.12-.43.17-.65,0-.1-.11.16-.17.65Z"/>
            <path class="cls-17" d="M28.2,48.9c.31-.12.6-.25.92-.37-.24.02-.56.15-.92.37Z"/>
          </g>
          <path class="cls-5" d="M40.02,117.24s-11.47-5.3-8.64-14.11c2.82-8.8,6.64-12.79,3.73-19.88,0,0,3.45,1.09,5.09,6.18,1.64,5.09,9.94-6.37-2.91-12-8.73-3.81-7.64-13.81-2.18-17.27-.36.72-2.18,7.27,6,6.54-.91-.36-7.45-11.09,1.64-16.18-.91.55-2.55,6.36,3.82,6.54,6.36.18-5.81-10,2.55-14.54,8.36-4.55,3.09-10.72,3.09-10.72,0,0,6.91,2.54,5.27,10.91-1.64,8.36-.73,16.18,2.91,15.45,3.64-.72,3.46-14.9,10.54-16.18,0,0-6.36,6.9-.91,13.45,3.75,4.49,4.18,12,0,18.72s11.27-11.63,6.54-18.72c0,0,15.27,15.45,4.55,27.63-6.36,8,9.82,7.82,10.54-.73.73-8.54,7.45-6.54,10.73-3.45-1.09-.54-6.55.18-3.27,7.82,3.27,7.63-7.94,16.48-18.78,23.05-10.85,6.57-40.29,7.48-40.29,7.48Z"/>
          <path class="cls-6" d="M47.66,100.7s-5.09,1.64-3.63-2.91c1.45-4.54-7.64-7.82-7.64-7.82,0,0,5.63,1.27,3.09,6.36-2.54,5.09-6.97,13.39,2.24,14.42,9.21,1.03,6.66-10.3,6.66-10.3l-.73.24Z"/>
          <path class="cls-6" d="M44.75,107.06s.18-6.54,5.09-9.82c4.91-3.27,2.18-9.27-4-10.54-6.18-1.27-3.45-6.18-1.09-7.45,2.36-1.27-15.99-9.63-.72-23.26-.91.55-1.82,5.09,2,6.73.18-.73-.54-5.27,5.27-7.27,3.82-2-2.54-4,1.46-6.73,4-2.72,3.27-6.73,3.27-6.73,0,0,1.82,3.63.18,6.36-1.64,2.73,1.64,5.45,4.91,7.09,3.27,1.63,5.64,10.36-.73,15.26,1.82-.18,4.91-1.27,6-6,.54-1.45-.36,2.73,1.45,6.72,1.82,4,.55,7.27-5.64,10.18-6.18,2.91,1.64,5.09,5.82,0,2-2.36,4.18-1.09,4.18-1.09,0,0-4.54.73-4.54,6s-1.09,15.27-8.72,16.18c-7.64.91,15.81.73,16.54-8.36s-2.18-15.63,2.36-15.81c.55-.54-2.73.73-1.09,4.55,1.64,3.82,8.9,2.18,5.27-7.09-3.63-9.27-1.27-14.18-1.27-14.18,0,0,.73,7.64,2.55,8.54,1.82.91,1.82-1.45.91-2.54-.91-1.09,10,3.63,8,15.45,0,.73,2.91.36,1.64-3.64,1.27.18,6.72,11.09-3.27,16.17-10,5.09-15.27,3.27-10.54,7.81,4.73,4.55,6,.73,12.18-.18,6.18-.91,6,12.18-2,16.91-8,4.72-21.63,10.72-35.08,6.54-13.45-4.18-18.18-11.27-15.99-15.27,2.18-4,5.63-4.55,5.63-4.55Z"/>
          <g>
            <path class="cls-13" d="M29.17,103.49s6.17.26,9.38.93c3.21.66,1,.99,1,.99l-5.16,1.73.8.82s3.52-2.13,6.34-1.94c2.82.19,7.53.85,10.12,1.48,2.59.63,8.71,1.14,10.5,1.95,1.8.82,1.14-1.09,1.14-1.09,0,0,1.14-1.09.17-1.71-.97-.61-3.29-.81-3.97-.6-.68.21-4.53-.36-7-.97-2.47-.61-5.98-2.59-6.53-2.85-.56-.26-5.77-.92-6.59-1.12-.83-.21-5.94-.71-7.35-1.06-1.41-.34-5.29-.8-5.29-.8l.51,2s7.71,1.14,9.88,1.43c2.18.28,8.2,1.14,8.2,1.14,0,0-4.41-.34-7.09-.62-2.68-.28-8.82-.17-9.05.28Z"/>
            <g class="cls-8">
              <path class="cls-13" d="M40.05,104.85c.45-.14.85-.44-1.39-.91-2.01-.41-5.19-.67-7.28-.81-1.23.07-2.13.19-2.22.36,0,0,6.17.26,9.38.93.8.17,1.26.31,1.51.44Z"/>
              <path class="cls-13" d="M38.34,102.74c2.67.28,7.09.61,7.09.61,0,0-6.03-.85-8.21-1.14-2.18-.28-9.88-1.43-9.88-1.43l-.38-1.5c-.15-.02-.24-.03-.24-.03l.51,2s6.85,1.02,9.46,1.37c.62.03,1.2.06,1.66.11Z"/>
              <path class="cls-13" d="M63.4,107.89s.03.11.07.26c.17-.21.38-.54.37-.87-.16.34-.44.61-.44.61Z"/>
              <path class="cls-13" d="M62.25,108.99c-1.79-.81-7.91-1.32-10.5-1.95-2.59-.64-7.3-1.29-10.12-1.48-2.82-.2-6.34,1.94-6.34,1.94l-.48-.5-.43.14.8.82s3.52-2.13,6.34-1.94c2.82.19,7.53.85,10.12,1.48,2.59.63,8.71,1.14,10.5,1.95,1.06.48,1.26.02,1.25-.44-.15.2-.48.27-1.14-.03Z"/>
            </g>
            <path class="cls-3" d="M32.73,100.43s3.28.37,4.48.54c1.2.17,4,.73,5.32.93,1.32.2,1.65.91-.66.4-2.31-.5-4.72-.84-7.16-1.07-2.44-.22-3.77-.42-1.99-.8Z"/>
            <path class="cls-3" d="M48.46,103.92s.65.16,2.12.77c1.47.61,2.76,1.24,5.33,1.43,2.57.19,3.53.37,3.53.37,0,0,1.46,1.17-3.5.26-4.96-.91-7.21-1.4-8.75-1.71-1.55-.32-3.91-.58-4.79-.8-.89-.22,1.64-.35,3.79.06,2.15.4,1.57-.3,1.19-.52-.38-.22-.39-.72,1.09.14Z"/>
          </g>
          <path class="cls-16" d="M30.21,116.33s2.79-3.64,4.24-4.37c1.46-.72,6.91-2.18,8-2.91,1.09-.73,2.06-.73,5.09-.49,3.03.24,7.03.85,8.48-.24,1.45-1.09,7.51-1.58,8.85-1.09,1.33.49,5.94.85,8,1.21,2.06.36,5.21-1.45,8-.6,2.79.85,5.09.72,6.18,1.57,1.09.85,2.06,2.06,3.03,3.15.97,1.09,2.91,5.21,2.91,5.21,0,0-4,4.85-5.09,5.33-1.09.49-4.36,3.52-9.21,3.52s-8,.12-15.15.12-14.3,1.09-20.72-1.57c-6.42-2.67-14.9-5.94-12.6-8.84Z"/>
          <path class="cls-6" d="M50.47,112.33s.45-.18,2.45.09c2,.27,2.09.27,1.09.27s-3.45.09-3.54-.36Z"/>
          <path class="cls-6" d="M56.02,116.6s1.09-.09,1.82-.09,3.18-.27,2.36,0c-.82.27-.54.73-1.73,1-1.18.27-2.09.82-1.63.27.45-.54,2.18-.45.45-.54-1.72-.09-1.91-.45-1.27-.64Z"/>
          <path class="cls-6" d="M62.56,117.78s.73-.91,2.09-.91h2.36s-1,.55-1.82.72c-.82.18-3.45.46-1.91.46s1.54.55-.37.64-2.27.09-1.63-.27c.64-.37.64-.28,1.27-.64Z"/>
          <path class="cls-6" d="M60.29,109.33s-2.45.19-2,.54c.45.37.64.55,1.37.37.72-.18,1.54-1,1.81-1s0,.09-1.18.09Z"/>
          <path class="cls-6" d="M72.83,112.51s.91-.18,1.73-.18h2c.82,0,2.91-.27,2.09,0-.82.27-2,.63-2.91.63s-2.54.09-2.82,0c-.27-.09-.73-.54-.09-.45Z"/>
          <path class="cls-6" d="M71.65,115.51s.51.12,1.94.33c1.42.21,1.61.21,2.69.21s2.82-.46,2.82-.46c0,0-2.55-.27-3.18-.27s1.09-.28,3.09-.37c2-.09,4.54-.36,2.63-.36s-2.36-.18-4.64,0c-2.27.18-2.45.09-5,.36-2.55.27-3.63.73-.36.54Z"/>
          <path class="cls-6" d="M86.64,112.6s.12-.49-1.26.12c-1.38.61-3.01.7-2.01.88,1,.18,1.73.18,2.54.18s-.45.54,1.46,0c1.91-.54,1.27-1-.55-.82-1.82.18-.73-.45.36-.72,1.09-.28-1.09.27-1.09.27l.54.09Z"/>
          <g>
            <path class="cls-13" d="M51.9,110.15s6.06-1.21,9.33-1.33c3.27-.12,1.21.73,1.21.73l-4.61,2.91.97.6s2.91-2.91,5.69-3.39c2.79-.48,7.51-.97,10.18-.97s8.73-.97,10.67-.6c1.94.36.85-1.34.85-1.34,0,0,.85-1.33-.24-1.7-1.09-.37-3.39,0-4,.36-.6.36-4.48.73-7.03.73s-6.42-1.09-7.03-1.21c-.61-.12-5.82.49-6.66.49s-5.94.73-7.39.73-5.33.49-5.33.49l.97,1.82s7.76-.73,9.94-.97c2.18-.24,8.24-.85,8.24-.85,0,0-4.36.73-7.03,1.09-2.67.36-8.6,1.94-8.72,2.42Z"/>
            <g class="cls-8">
              <path class="cls-13" d="M62.8,108.88c.4-.24.72-.63-1.57-.55-2.05.08-5.2.58-7.26.95-1.18.36-2.02.69-2.07.87,0,0,6.06-1.21,9.33-1.33.82-.03,1.3,0,1.57.06Z"/>
              <path class="cls-13" d="M60.62,107.24c2.67-.36,7.03-1.09,7.03-1.09,0,0-6.06.61-8.24.85-2.18.24-9.94.97-9.94.97l-.73-1.37c-.15.02-.24.03-.24.03l.97,1.82s6.89-.65,9.51-.92c.61-.12,1.18-.23,1.64-.29Z"/>
              <path class="cls-13" d="M86.19,106.27s.06.1.13.24c.11-.24.24-.61.16-.94-.08.37-.29.7-.29.7Z"/>
              <path class="cls-13" d="M85.34,107.6c-1.94-.36-8,.61-10.67.61s-7.39.48-10.18.97c-2.79.48-5.69,3.39-5.69,3.39l-.59-.37-.38.24.97.6s2.91-2.91,5.69-3.39c2.79-.48,7.51-.97,10.18-.97s8.73-.97,10.67-.6c1.14.21,1.23-.29,1.11-.74-.1.24-.4.38-1.11.25Z"/>
            </g>
            <path class="cls-3" d="M54.63,106.33s3.27-.43,4.48-.55c1.21-.12,4.06-.24,5.39-.36,1.33-.12,1.82.48-.55.55-2.36.06-4.79.3-7.21.66-2.42.36-3.76.48-2.12-.3Z"/>
            <path class="cls-3" d="M70.74,105.97s.67,0,2.24.24c1.58.24,2.97.55,5.51.12,2.55-.43,3.51-.48,3.51-.48,0,0,1.7.79-3.33,1.09-5.03.3-7.33.36-8.9.42-1.58.06-3.94.37-4.85.37s1.51-.73,3.69-.85c2.18-.12,1.45-.67,1.03-.79-.43-.12-.54-.61,1.09-.12Z"/>
          </g>
          <g>
            <g>
              <polygon class="cls-2" points="29.57 107.07 38.55 108.54 44.82 109.15 56.23 108.87 56.24 109.72 53.52 109.97 58.15 110.97 65.31 111.33 65.16 113.4 45.79 111 32.83 109.23 26.81 108.53 26.93 106.71 29.57 107.07"/>
              <g class="cls-9">
                <polygon class="cls-2" points="46.01 110.29 33.04 108.53 27.02 107.82 27.1 106.74 26.93 106.71 26.81 108.53 32.83 109.23 45.79 111 65.16 113.4 65.21 112.68 46.01 110.29"/>
                <polygon class="cls-2" points="55.99 109.75 56.24 109.72 56.23 109.04 53.74 109.27 55.99 109.75"/>
              </g>
            </g>
            <path class="cls-3" d="M46.99,109.63s3.27.26,4.56.16c1.3-.1,1.75.6,2.91.85,1.16.25-1.55-.12-3.07-.32-1.53-.21-8.55-.52-4.4-.69Z"/>
          </g>
          <g>
            <g>
              <polygon class="cls-2" points="66.42 111.5 75.36 109.82 81.46 108.25 92.1 104.09 92.39 104.9 89.92 106.05 94.61 105.41 101.47 103.31 102.03 105.31 83.01 109.65 70.22 112.41 64.32 113.81 63.82 112.06 66.42 111.5"/>
              <g class="cls-9">
                <polygon class="cls-2" points="82.97 108.92 70.18 111.67 64.28 113.07 63.98 112.02 63.82 112.06 64.32 113.81 70.22 112.41 83.01 109.65 102.03 105.31 101.84 104.61 82.97 108.92"/>
                <polygon class="cls-2" points="92.16 105 92.39 104.9 92.16 104.25 89.88 105.31 92.16 105"/>
              </g>
            </g>
            <path class="cls-3" d="M83.67,107.96s3.16-.87,4.34-1.4c1.19-.54,1.85-.03,3.03-.19,1.17-.16-1.49.42-3,.74-1.51.33-8.22,2.43-4.37.85Z"/>
          </g>
          <g>
            <g>
              <g>
                <polygon class="cls-2" points="45.96 107.15 55.03 106.52 61.28 105.7 72.34 102.97 72.54 103.74 69.94 104.55 74.67 104.44 81.74 103.21 82.04 105.12 62.64 107.16 49.61 108.38 43.58 109.07 43.31 107.4 45.96 107.15"/>
                <g class="cls-9">
                  <polygon class="cls-2" points="62.69 106.47 49.66 107.7 43.64 108.38 43.48 107.38 43.31 107.4 43.58 109.07 49.61 108.38 62.64 107.16 82.04 105.12 81.94 104.46 62.69 106.47"/>
                  <polygon class="cls-2" points="72.3 103.81 72.54 103.74 72.38 103.12 69.99 103.87 72.3 103.81"/>
                </g>
              </g>
              <path class="cls-3" d="M63.5,105.67s3.24-.48,4.48-.85c1.24-.37,1.84.16,3.03.14,1.18-.03-1.53.23-3.07.37-1.54.15-8.45,1.39-4.44.34Z"/>
            </g>
            <polygon class="cls-4" points="81.74 103.21 74.67 104.44 69.94 104.55 72.54 103.74 72.38 103.12 72.38 103.12 72.34 102.97 61.28 105.7 55.03 106.52 45.96 107.15 43.31 107.4 43.58 109.07 49.61 108.38 62.64 107.16 82.04 105.12 81.74 103.21"/>
          </g>
          <g>
            <path class="cls-13" d="M31.3,114.75s4.48-2.79,6.78-4.85c2.3-2.06,5.09-4.12,6.42-5.45,1.33-1.33.97-2.3.97-2.3,0,0-.85-2.67-.73-4,.12-1.33.49-3.51.49-3.51l1.09.12s-.24.49-.24,2.79,0,4.12.73,4.24c.73.12,1.57-1.33,1.57-1.33,0,0,2.18-2.18,2.91-2.79.73-.6,4.48-1.94,4.48-1.94,0,0,.61.6.61,1.21s-2.55,1.33-3.03,1.45c-.48.12-4.36,2.31-5.21,4.24-.85,1.94-4.97,7.03-6.42,8.12-1.45,1.09-5.82,6.42-7.51,7.51-1.7,1.09-2.91-3.51-2.91-3.51Z"/>
            <g class="cls-7">
              <path class="cls-13" d="M45.64,94.68c-.06.42-.11,1.09-.11,2.13,0,2.3,0,4.12.73,4.24,0,0,.01,0,.02,0-.2-.76-.2-2.03-.2-3.51,0-2.3.24-2.79.24-2.79l-.68-.07Z"/>
              <path class="cls-13" d="M55.78,95.73s-.01,0-.05.02c.06.15.11.31.11.47,0,.61-2.54,1.33-3.03,1.45-.48.12-4.36,2.3-5.21,4.25-.85,1.94-4.97,7.03-6.42,8.12-1.45,1.09-5.82,6.42-7.51,7.52-.5.32-.95.14-1.35-.26.5.85,1.15,1.46,1.89.98,1.7-1.09,6.06-6.42,7.51-7.51,1.45-1.09,5.57-6.18,6.42-8.12.85-1.94,4.73-4.12,5.21-4.24.48-.12,3.03-.85,3.03-1.45s-.61-1.21-.61-1.21Z"/>
            </g>
            <path class="cls-3" d="M35.02,112.78s4.27-3.36,5.09-4.09c.82-.72,4.18-3.45,4.64-3.63.46-.18-.91,1.18-2.55,2.73-1.64,1.54-1.36,1.54-2.73,2.82-1.36,1.27-2.91,2.45-4,2.73-1.09.27-1,.09-.46-.55Z"/>
          </g>
          <g>
            <path class="cls-13" d="M71.38,116.4s5.27.2,8.33-.23c3.06-.42,6.52-.57,8.37-.93,1.85-.36,2.09-1.37,2.09-1.37,0,0,.79-2.68,1.63-3.72.84-1.04,2.37-2.65,2.37-2.65l.83.71s-.47.27-1.76,2.17c-1.28,1.91-2.3,3.42-1.76,3.92.54.51,2.05-.22,2.05-.22,0,0,3.03-.59,3.97-.69.94-.1,4.8.9,4.8.9,0,0,.16.84-.17,1.34-.34.5-2.86-.32-3.33-.49-.47-.17-4.9-.53-6.69.61-1.78,1.13-8.05,3.05-9.86,3.15-1.82.09-8.41,2.07-10.43,2.03-2.01-.04-.45-4.54-.45-4.54Z"/>
            <g class="cls-7">
              <path class="cls-13" d="M102.31,114.3s-.02,0-.05-.01c-.03.16-.08.32-.17.45-.34.5-2.86-.32-3.32-.49-.47-.17-4.91-.53-6.69.6-1.79,1.14-8.05,3.05-9.86,3.15-1.81.09-8.41,2.08-10.43,2.03-.59-.01-.87-.41-.97-.96-.06.97.13,1.85,1.02,1.87,2.02.04,8.62-1.94,10.43-2.03,1.81-.09,8.07-2.01,9.86-3.15,1.79-1.13,6.22-.77,6.69-.61.47.17,2.99.99,3.33.49.34-.5.17-1.34.17-1.34Z"/>
            </g>
            <path class="cls-3" d="M75.57,116.85s5.42-.4,6.51-.55c1.09-.15,5.4-.53,5.88-.43.48.1-1.41.47-3.63.84-2.22.36-1.99.52-3.83.81-1.84.29-3.78.41-4.84.03-1.06-.38-.88-.48-.08-.71Z"/>
          </g>
          <g>
            <path class="cls-13" d="M50.81,117.3s6.06-1.21,9.33-1.33c3.27-.12,1.21.73,1.21.73l-4.61,2.91.97.6s2.91-2.91,5.69-3.39c2.79-.48,7.51-.97,10.18-.97s8.73-.97,10.67-.61c1.94.36.84-1.33.84-1.33,0,0,.85-1.33-.24-1.7-1.09-.36-3.4,0-4,.37-.6.36-4.48.73-7.03.73s-6.42-1.09-7.03-1.21c-.61-.12-5.82.49-6.67.49s-5.94.73-7.39.73-5.33.49-5.33.49l.97,1.81s7.75-.72,9.94-.97c2.18-.24,8.24-.85,8.24-.85,0,0-4.36.72-7.03,1.09-2.67.36-8.6,1.94-8.73,2.42Z"/>
            <g class="cls-8">
              <path class="cls-13" d="M61.71,116.03c.4-.24.72-.63-1.57-.55-2.05.08-5.21.58-7.27.95-1.17.36-2.02.69-2.06.87,0,0,6.06-1.21,9.33-1.33.81-.03,1.3,0,1.57.06Z"/>
              <path class="cls-13" d="M59.53,114.39c2.66-.36,7.03-1.09,7.03-1.09,0,0-6.06.61-8.24.85-2.18.24-9.94.97-9.94.97l-.72-1.36c-.15.02-.24.03-.24.03l.97,1.81s6.89-.64,9.51-.92c.61-.12,1.18-.22,1.64-.29Z"/>
              <path class="cls-13" d="M85.1,113.42s.06.1.13.24c.11-.24.24-.62.15-.94-.08.38-.29.7-.29.7Z"/>
              <path class="cls-13" d="M84.25,114.75c-1.94-.36-8,.61-10.67.61s-7.39.48-10.18.97c-2.79.48-5.69,3.39-5.69,3.39l-.59-.36-.38.24.97.6s2.91-2.91,5.69-3.39c2.79-.48,7.51-.97,10.18-.97s8.73-.97,10.67-.61c1.14.21,1.23-.28,1.11-.73-.1.24-.4.38-1.11.25Z"/>
            </g>
            <path class="cls-3" d="M53.53,113.48s3.27-.42,4.48-.55c1.21-.12,4.06-.24,5.39-.36,1.33-.12,1.82.48-.54.54-2.36.06-4.79.3-7.21.67-2.43.36-3.76.48-2.12-.31Z"/>
            <path class="cls-3" d="M69.65,113.12s.67,0,2.24.24c1.57.24,2.97.54,5.51.12,2.55-.42,3.51-.48,3.51-.48,0,0,1.69.79-3.33,1.09-5.03.3-7.33.36-8.91.42-1.58.07-3.94.37-4.85.37s1.51-.73,3.7-.85c2.18-.12,1.45-.66,1.03-.79-.42-.12-.55-.61,1.09-.12Z"/>
          </g>
          <g>
            <path class="cls-2" d="M98.07,112.67s-6.06-.87-9.33-.96c-3.27-.09-1.21.52-1.21.52l4.61,2.09-.97.43s-2.91-2.09-5.69-2.43c-2.79-.35-7.51-.7-10.18-.7s-8.73-.69-10.67-.43c-1.94.26-.85-.95-.85-.95,0,0-.85-.96.24-1.22,1.09-.26,3.39,0,4,.26.6.26,4.48.52,7.03.52s6.42-.78,7.03-.87c.61-.09,5.81.35,6.66.35s5.94.52,7.39.52,5.33.35,5.33.35l-.97,1.3s-7.76-.52-9.94-.69c-2.18-.17-8.24-.61-8.24-.61,0,0,4.36.52,7.03.78,2.67.26,8.6,1.39,8.73,1.74Z"/>
            <g class="cls-8">
              <path class="cls-13" d="M87.17,111.76c-.4-.18-.72-.45,1.57-.39,2.05.05,5.2.42,7.27.68,1.18.26,2.02.49,2.07.62,0,0-6.06-.87-9.33-.96-.81-.02-1.3,0-1.57.04Z"/>
              <path class="cls-13" d="M89.34,110.58c-2.67-.26-7.03-.78-7.03-.78,0,0,6.06.44,8.24.61,2.18.17,9.94.69,9.94.69l.72-.98c.15.01.24.02.24.02l-.97,1.3s-6.89-.46-9.51-.66c-.61-.09-1.18-.16-1.64-.2Z"/>
              <path class="cls-13" d="M63.78,109.89s-.06.07-.13.17c-.11-.17-.24-.44-.16-.67.08.27.29.5.29.5Z"/>
              <path class="cls-13" d="M64.62,110.84c1.94-.26,8,.44,10.67.44s7.39.35,10.18.7c2.79.35,5.69,2.44,5.69,2.44l.59-.26.39.17-.97.43s-2.91-2.09-5.69-2.43c-2.79-.35-7.51-.7-10.18-.7s-8.73-.69-10.67-.43c-1.14.15-1.23-.21-1.11-.53.1.17.4.27,1.11.18Z"/>
            </g>
            <path class="cls-3" d="M95.34,109.93s-3.27-.31-4.48-.39c-1.21-.09-4.06-.18-5.39-.26-1.33-.09-1.82.35.55.39,2.36.04,4.79.22,7.21.48,2.42.26,3.76.35,2.12-.22Z"/>
            <path class="cls-3" d="M79.22,109.67s-.67,0-2.24.17c-1.58.17-2.97.39-5.51.09-2.54-.31-3.51-.35-3.51-.35,0,0-1.7.57,3.33.78,5.03.22,7.33.26,8.91.3,1.58.04,3.94.26,4.85.26s-1.51-.52-3.7-.61c-2.18-.08-1.45-.48-1.03-.57.42-.09.55-.43-1.09-.09Z"/>
          </g>
          <path class="cls-1" d="M34.13,113.43c-.29-.62-.69-1.24-1.26-1.83-2.67-2.79-4.97-5.7-6.18-7.03-.79-.87-2.78-.96-5.15-.79,0,.09,0,.17,0,.24.01-.07.01-.15,0-.24-1.25.1-2.6.26-3.94.43-3.88.48-7.03,2.3-10.42,2.91-3.39.61-7.27,4.24-7.15,8.48,0,0,.04.41.07,1,.04.8.07,1.92-.07,2.76-.24,1.46.72,1.34,2.42,3.64,1.7,2.3,2.43,2.55,6.67,2.91,3.72.32,4.64.73,7.45,1.65.39.13.8.26,1.27.41,3.88,1.21,6.18,2.06,8.24.61,2.06-1.45,8.6-10.66,8.6-10.66,0,0,.52-2.18-.56-4.47Z"/>
          <g>
            <path class="cls-15" d="M32.02,115.42c-1.64.37-4.36,1.82-6.9,4.36-2.55,2.55-5.27,8.91-6.91,5.09-1.63-3.82-2.54-7.45-2.54-7.45,0,0,.72-2,1.82-4.73.63-1.58.77-3.47.78-4.77-.08.24-.16.5-.24.77-1.27,4.72-4,8.36-4,8.36l-.14.15c.37.15.62.34.69.58.37,1.27,2.18,6.91,2.36,8.72.04.39-.12.74-.37,1.05.39.13.8.26,1.27.41,3.88,1.21,6.18,2.06,8.24.61,2.06-1.45,8.6-10.66,8.6-10.66,0,0,.52-2.18-.56-4.47-.34,1.16-1.02,1.74-2.11,1.98Z"/>
            <path class="cls-1" d="M26.69,104.57c-.79-.87-2.78-.96-5.15-.79.11,1.38-2.03.62-3.28,4.14,0,1.31-.15,3.19-.78,4.77-1.09,2.72-1.82,4.73-1.82,4.73,0,0,.91,3.63,2.54,7.45,1.64,3.82,4.36-2.54,6.91-5.09,2.55-2.54,5.27-4,6.9-4.36,1.09-.24,1.77-.82,2.11-1.98-.29-.62-.69-1.24-1.26-1.83-2.67-2.79-4.97-5.7-6.18-7.03Z"/>
          </g>
          <path class="cls-19" d="M22.94,128.81s-2.3,3.51,6.42,5.82c8.72,2.3,16.24,3.15,19.88,3.51,3.63.36,7.63-.85,10.66-4.97,3.03-4.12,3.51-9.57-.97-13.45-4.49-3.88-10.54-8.97-13.94-8.6-3.39.36-9.69,4.97-12.72,5.57-3.03.61-9.21,6.3-9.33,12.12Z"/>
          <path class="cls-6" d="M72.65,109.42s.64-.27,1.73-.18c1.09.09,2,0,2,0,0,0-1.36.55-3.73.18Z"/>
          <path class="cls-5" d="M57.38,109.6s2.28-.51,1.73-.18c-1.54.91-3.09.55-2.09.27l.37-.09Z"/>
          <path class="cls-5" d="M71.38,112.51s.73.27,1.46,0c.73-.27,1.91-.64,2.46-.46.54.18-1,1.45-3.91.46Z"/>
          <path class="cls-5" d="M91.83,108.15s-.09-.09-1.63.18c-1.55.27-2.55.09-1.55.27,1,.18,1.55.45,2.27.18.72-.27,1.63-.72.91-.64Z"/>
          <path class="cls-5" d="M63.02,117.69s1.18-.36,1.82-.45c.64-.09,1.82-.64,2.18-.36.36.27-1.27,1.18-2,1.18s-2.45-.09-2-.36Z"/>
          <path class="cls-5" d="M89.28,0s-2.91.36-.91,3.09c2,2.73-.37,4.91-.37,4.91,0,0,1.64-1.82-.36-3.46-2-1.63-2-4.54,1.63-4.54Z"/>
          <path class="cls-5" d="M82.56,10.36s-2.54,2.18.18,5.27c2.73,3.09,0,5.63,0,5.63,0,0,.73-2.91-1.09-5.27-1.82-2.36-.91-4.18.91-5.63Z"/>
          <path class="cls-5" d="M20.21,18.36s2.91.73,3.45,2.36c.54,1.63,2.36,1.63,2.36,1.63,0,0-2.54.91-3.27-.91-.73-1.82-1.82-3.09-2.55-3.09Z"/>
          <path class="cls-5" d="M28.39,3.09s-1.82,3.09.73,5.63c2.54,2.55.91,3.82.91,3.82,0,0-.55-2.73-2-3.45-1.46-.73-2.18-4.18.36-6Z"/>
          <path class="cls-20" d="M81.34,125.42s1.21-7.15,4.36-10.42c3.15-3.27,5.82-4.72,11.27-3.88,5.45.85,12.24,6.18,13.57,9.09,1.33,2.91.12,7.51-6.91,10.3-7.03,2.79-7.87,3.39-12.12,3.39s-10.54.24-10.18-8.48Z"/>
          <path class="cls-12" d="M58.93,119.72c-.82-.71-1.69-1.45-2.58-2.2-2.14-2.1-4.63-3.66-6.32-4.28-4-1.46-.36,5.45-1.45,10.18-1.09,4.73-.91,9.63-.73,13.09.03.58.16,1.09.35,1.53.37.04.73.08,1.05.11,3.63.36,7.63-.85,10.66-4.97,3.03-4.12,3.51-9.57-.97-13.45Z"/>
          <g>
            <path class="cls-19" d="M29.2,118.28c.14-.1.28-.21.41-.3-.14.1-.27.2-.41.3Z"/>
            <path class="cls-19" d="M29.89,117.8c.15-.09.3-.2.44-.29-.14.09-.29.19-.44.29Z"/>
            <path class="cls-19" d="M30.44,117.46c.38-.23.76-.41,1.1-.54-.35.13-.72.31-1.1.54Z"/>
            <path class="cls-22" d="M31.62,116.88s-.05.02-.08.03c.02,0,.05-.02.08-.03h0Z"/>
            <path class="cls-22" d="M28.88,118.53c.11-.09.22-.16.32-.24-.11.08-.21.16-.32.24Z"/>
            <path class="cls-22" d="M29.62,117.98c.09-.07.18-.12.28-.18-.09.06-.18.11-.28.18Z"/>
            <path class="cls-22" d="M30.34,117.51s.07-.04.11-.05c-.04.02-.07.04-.11.05Z"/>
            <path class="cls-22" d="M47.84,129.23c-.36-1.82-14-6.73-14.54-8.91-.51-2.04,1.99-4.07-1.67-3.45-.02,0-.05.02-.08.03-.35.13-.72.31-1.1.54-.04.02-.07.04-.11.05-.14.09-.29.19-.44.29-.09.06-.18.11-.28.18-.14.09-.27.2-.41.3-.11.08-.21.16-.32.24-.13.11-.26.22-.4.33-.12.1-.23.2-.35.3-.13.11-.25.23-.38.35-.12.12-.24.23-.36.35-.12.12-.24.25-.36.37-.12.13-.25.26-.37.4-.12.13-.23.26-.34.39-.12.14-.24.29-.36.44-.11.14-.21.27-.31.41-.12.16-.23.32-.35.48-.09.14-.19.28-.28.42-.11.17-.22.34-.32.51-.09.14-.17.29-.25.43-.1.18-.19.36-.29.54-.07.14-.14.29-.21.43-.09.19-.16.38-.24.58-.06.15-.12.29-.17.43-.07.2-.13.41-.19.62-.04.14-.09.27-.12.41-.06.23-.1.46-.14.7-.02.11-.05.23-.07.35-.05.35-.08.7-.09,1.06,0,0-1.82,2.97,6.42,5.82,7.66,2.02,14.38,2.92,18.36,3.36.33-2.87.33-7.68.12-8.75Z"/>
          </g>
          <path class="cls-14" d="M13,95.12s1.94-1.58,2.91-1.82c.97-.24,1.34.24,1.34.24l5.94,2.42-7.03-1.33-5.21,2.79,2.06-2.3Z"/>
          <g class="cls-10">
            <path class="cls-12" d="M60.26,121.1c.07.67,0,1.27-.12,1.89-.24,1.33-.24,5.7-.48,7.15-.24,1.45-2.43,6.06-4.36,5.94-1.94-.12-5.7-2.18-5.94-3.75-.24-1.58-.73-6.3-.24-10.06.28-2.16-.28-4.19-.81-5.53.29,2.04.75,4.58.26,6.68-1.09,4.73-.91,9.63-.73,13.09.03.58.16,1.09.35,1.53.37.04.73.08,1.05.11,3.63.36,7.63-.85,10.66-4.97,2.69-3.66,3.36-8.35.36-12.07Z"/>
          </g>
          <g>
            <path class="cls-11" d="M60.38,130.63s-2.18,4.61,1.21,7.39c3.39,2.79,3.88,1.94,10.78,1.21,6.91-.73,12-2.79,12.97-5.58.97-2.78.12-6.42-3.76-10.3-3.88-3.88-7.75-5.94-10.91-6.54-3.15-.6-8.84,4.6-9.69,7.39-.85,2.79-.61,6.42-.61,6.42Z"/>
            <path class="cls-19" d="M74.37,135.6c.55-1.46-1.09-7.45-2-9.63-.74-1.77-2.31-6.63-5.24-8.23-2.74,1.54-5.57,4.57-6.15,6.47-.85,2.79-.61,6.42-.61,6.42,0,0-2.18,4.61,1.21,7.39,3.39,2.79,3.88,1.94,10.78,1.21,1.99-.21,3.83-.53,5.46-.95-2.08-1.11-3.66-2.15-3.46-2.68Z"/>
          </g>
        </g>
      </g>
    </g>
  </g>
</svg>