<?xml version="1.0" encoding="UTF-8"?>
<svg xmlns="http://www.w3.org/2000/svg" width="81.77" height="100" viewBox="0 0 81.77 100">
  <defs>
    <style>
      .cls-1 {
        fill: #5e2c00;
      }

      .cls-2 {
        fill: #8b8b8b;
      }

      .cls-3 {
        fill: #9a9a9a;
      }

      .cls-4 {
        fill: #7d7d7d;
      }

      .cls-5 {
        fill: #d5d7d8;
      }

      .cls-6 {
        fill: #fcc33c;
      }

      .cls-7 {
        fill: #fff;
      }

      .cls-8 {
        fill: #6e6e6e;
      }

      .cls-9 {
        fill: #606060;
      }

      .cls-10 {
        fill: #e2e2e2;
      }

      .cls-11 {
        isolation: isolate;
      }

      .cls-12 {
        fill: #f1f1f1;
      }

      .cls-13 {
        fill: #c5c5c5;
      }

      .cls-14 {
        mix-blend-mode: multiply;
      }

      .cls-15 {
        fill: #a8a8a8;
      }

      .cls-16 {
        fill: #e88d3b;
      }

      .cls-17 {
        mix-blend-mode: darken;
      }

      .cls-18 {
        fill: #d4d4d4;
      }

      .cls-19 {
        fill: #b7b7b7;
      }
    </style>
  </defs>
  <g class="cls-11">
    <g id="Layer_2" data-name="Layer 2">
      <g id="Layer_1-2" data-name="Layer 1">
        <g>
          <g class="cls-14">
            <path class="cls-7" d="M81.46,13.25C78.5,4.03,55.18,1.56,41.76,1.56c-10.11.01-19.65,1.15-26.87,3.21C7.55,6.87,3.25,9.74,2.1,13.32c-.25.52-.35,1.11-.3,1.68,0,.09-.01.19-.01.28,0,.63.1,1.26.28,1.87l9.14,71.57c.09,3.82,3.64,6.77,10.56,8.8,5.39,1.58,12.68,2.48,20,2.48h.1c10.06,0,23.59-1.8,28.6-6.83,1.31-1.31,1.99-2.78,2.03-4.36l9.01-71.77c.18-.61.28-1.23.28-1.83,0-.11,0-.22,0-.33.04-.56-.06-1.12-.3-1.62Z"/>
            <path class="cls-12" d="M81.29,13.11C78.33,3.89,55.01,1.42,41.6,1.42c-10.11.01-19.65,1.15-26.87,3.21C7.39,6.72,3.09,9.6,1.94,13.18c-.25.52-.35,1.11-.3,1.68,0,.09-.01.19-.01.28,0,.63.1,1.26.29,1.87l9.14,71.57c.09,3.82,3.64,6.77,10.56,8.8,5.39,1.58,12.68,2.48,20,2.48h.1c10.06,0,23.59-1.8,28.59-6.83,1.31-1.31,1.99-2.78,2.03-4.36l9.01-71.77c.18-.61.28-1.23.28-1.83,0-.11,0-.22,0-.33.04-.56-.06-1.12-.3-1.62Z"/>
            <path class="cls-10" d="M81.13,12.97C78.17,3.75,54.85,1.28,41.44,1.28c-10.11.01-19.65,1.15-26.87,3.21C7.23,6.58,2.92,9.46,1.78,13.04c-.25.52-.35,1.11-.3,1.68,0,.09-.01.19-.01.28,0,.63.09,1.26.28,1.87l9.14,71.57c.09,3.82,3.64,6.77,10.56,8.8,5.39,1.57,12.68,2.48,20,2.48h.1c10.06,0,23.59-1.8,28.6-6.83,1.31-1.31,1.99-2.78,2.03-4.36l9.01-71.77c.18-.61.28-1.23.28-1.83,0-.11,0-.22,0-.33.04-.55-.06-1.12-.3-1.62Z"/>
            <path class="cls-18" d="M80.97,12.82C78.01,3.61,54.69,1.14,41.28,1.14c-10.11.01-19.65,1.15-26.87,3.21C7.07,6.44,2.76,9.31,1.61,12.9c-.25.52-.35,1.11-.3,1.68,0,.09-.01.19-.01.28,0,.63.09,1.26.28,1.87l9.14,71.57c.09,3.82,3.64,6.77,10.56,8.8,5.39,1.57,12.68,2.48,20,2.48h.1c10.06,0,23.59-1.8,28.6-6.83,1.31-1.31,1.99-2.78,2.02-4.36l9.01-71.77c.18-.61.28-1.23.28-1.83,0-.11,0-.22,0-.33.04-.56-.06-1.12-.3-1.62Z"/>
            <path class="cls-13" d="M80.81,12.68C77.85,3.46,54.53,1,41.11,1c-10.11.01-19.65,1.15-26.87,3.21C6.9,6.3,2.6,9.17,1.45,12.75c-.25.53-.35,1.11-.3,1.68,0,.09-.01.19-.01.28,0,.63.1,1.26.29,1.87l9.14,71.57c.09,3.82,3.64,6.77,10.56,8.8,5.39,1.58,12.68,2.48,20,2.48h.1c10.06,0,23.59-1.8,28.6-6.83,1.31-1.31,1.99-2.78,2.03-4.36l9.01-71.77c.18-.61.28-1.23.28-1.83,0-.11,0-.22,0-.33.04-.55-.06-1.12-.3-1.62Z"/>
            <path class="cls-19" d="M80.65,12.54C77.69,3.32,54.36.85,40.95.85c-10.11.01-19.65,1.15-26.87,3.21C6.74,6.15,2.44,9.03,1.29,12.61c-.25.53-.35,1.11-.3,1.68,0,.09-.01.19-.01.28,0,.63.1,1.26.28,1.87l9.14,71.57c.09,3.81,3.64,6.77,10.56,8.79,5.39,1.58,12.68,2.48,20,2.48h.1c10.06,0,23.59-1.8,28.6-6.83,1.31-1.31,1.99-2.78,2.03-4.36l9.01-71.77c.18-.61.28-1.23.28-1.83,0-.11,0-.22,0-.33.04-.55-.06-1.12-.3-1.62Z"/>
            <path class="cls-15" d="M80.48,12.4C77.52,3.18,54.2.71,40.79.71c-10.11.01-19.65,1.15-26.87,3.21C6.58,6.01,2.27,8.89,1.13,12.47c-.25.53-.35,1.11-.3,1.68,0,.09-.01.19-.01.28,0,.63.1,1.26.29,1.87l9.14,71.57c.09,3.81,3.64,6.77,10.56,8.8,5.39,1.58,12.68,2.48,20,2.48h.1c10.06,0,23.59-1.8,28.6-6.83,1.31-1.31,1.99-2.78,2.02-4.36l9.01-71.77c.18-.61.28-1.23.28-1.83,0-.11,0-.22,0-.33.04-.55-.06-1.12-.3-1.62Z"/>
            <path class="cls-3" d="M80.32,12.25C77.36,3.04,54.04.57,40.63.57c-10.11.01-19.65,1.15-26.87,3.21C6.42,5.87,2.11,8.74.96,12.33c-.25.53-.35,1.11-.3,1.68,0,.09-.01.19-.01.28,0,.63.1,1.26.29,1.87l9.14,71.57c.09,3.81,3.64,6.77,10.56,8.8,5.39,1.58,12.68,2.48,20,2.48h.1c10.06,0,23.59-1.8,28.6-6.83,1.31-1.31,1.99-2.78,2.02-4.36l9.01-71.77c.18-.61.28-1.23.28-1.83,0-.11,0-.22,0-.33.04-.55-.06-1.12-.3-1.62Z"/>
            <path class="cls-2" d="M80.16,12.11C77.2,2.89,53.88.43,40.46.43c-10.11.01-19.65,1.15-26.87,3.21C6.25,5.73,1.95,8.6.8,12.19c-.25.53-.35,1.11-.3,1.68,0,.09-.01.19-.01.28,0,.63.09,1.26.28,1.87l9.14,71.57c.09,3.81,3.64,6.77,10.56,8.79,5.39,1.58,12.68,2.48,20,2.48h.1c10.06,0,23.59-1.8,28.6-6.83,1.31-1.31,1.99-2.78,2.02-4.36l9.01-71.77c.18-.61.28-1.23.28-1.83,0-.11,0-.22,0-.33.04-.55-.06-1.12-.3-1.62Z"/>
            <path class="cls-4" d="M79.99,11.97C77.03,2.75,53.71.28,40.3.28c-10.11.01-19.65,1.15-26.87,3.21C6.09,5.58,1.79,8.46.64,12.04c-.25.53-.35,1.11-.3,1.68,0,.09-.01.19-.01.28,0,.63.1,1.26.29,1.87l9.14,71.57c.09,3.81,3.64,6.77,10.56,8.8,5.39,1.57,12.68,2.48,20,2.48h.1c10.06,0,23.59-1.8,28.6-6.83,1.31-1.31,1.99-2.78,2.02-4.36l9.01-71.77c.18-.61.28-1.23.28-1.83,0-.11,0-.22,0-.33.04-.55-.06-1.12-.3-1.62Z"/>
            <path class="cls-8" d="M79.83,11.83C76.87,2.61,53.55.14,40.14.14c-10.11.01-19.65,1.15-26.87,3.21C5.93,5.44,1.62,8.32.48,11.9c-.25.53-.35,1.11-.3,1.68,0,.09-.01.19-.01.28,0,.63.1,1.26.29,1.87l9.14,71.57c.09,3.81,3.64,6.77,10.56,8.8,5.39,1.58,12.68,2.48,20,2.48h.1c10.06,0,23.59-1.8,28.6-6.83,1.31-1.31,1.99-2.78,2.02-4.36l9.01-71.77c.18-.61.28-1.23.28-1.83,0-.11,0-.22,0-.33.04-.55-.06-1.12-.3-1.62Z"/>
            <path class="cls-9" d="M79.67,11.69C76.71,2.47,53.39,0,39.98,0c-10.11.01-19.65,1.15-26.87,3.21C5.77,5.3,1.46,8.18.31,11.76c-.25.53-.35,1.11-.3,1.68,0,.09-.01.19-.01.28,0,.63.1,1.26.29,1.87l9.14,71.57c.09,3.81,3.64,6.77,10.56,8.79,5.39,1.58,12.68,2.48,20,2.48h.1c10.06,0,23.59-1.8,28.6-6.83,1.31-1.31,1.99-2.78,2.02-4.36l9.01-71.77c.18-.61.28-1.23.28-1.83,0-.11,0-.22,0-.33.04-.55-.06-1.12-.3-1.62Z"/>
          </g>
          <path class="cls-7" d="M79.67,11.69C76.71,2.47,53.39,0,39.98,0c-10.11.01-19.65,1.15-26.87,3.21C5.77,5.3,1.46,8.18.31,11.76c-.25.53-.35,1.11-.3,1.68,0,.09-.01.19-.01.28,0,.63.1,1.26.29,1.87l9.14,71.57c.09,3.81,3.64,6.77,10.56,8.79,5.39,1.58,12.68,2.48,20,2.48h.1c10.06,0,23.59-1.8,28.6-6.83,1.31-1.31,1.99-2.78,2.02-4.36l9.01-71.77c.18-.61.28-1.23.28-1.83,0-.11,0-.22,0-.33.04-.55-.06-1.12-.3-1.62Z"/>
          <g>
            <g>
              <g>
                <path class="cls-7" d="M3.24,13.14l9.42,73.87c0,4.53,12.28,8.2,27.41,8.18,15.13-.01,27.4-3.7,27.39-8.24l9.28-73.89-73.5.08Z"/>
                <path class="cls-1" d="M39.98,96.35c-13.8,0-28.47-3.27-28.48-9.34L2.09,13.29c-.04-.33.06-.66.28-.91s.54-.39.87-.39l73.5-.08h0c.33,0,.65.14.87.39.22.25.32.58.28.91l-9.27,73.89c.01,5.94-14.7,9.24-28.54,9.25h-.09ZM4.56,14.3l9.25,72.56c.01,3.08,9.96,7.17,26.17,7.17v1.16l.09-1.16c16.26-.01,26.24-4.13,26.23-7.07l9.12-72.73-70.87.07Z"/>
              </g>
              <g>
                <path class="cls-7" d="M76.74,13.64c0,5.76-16.44,10.45-36.74,10.47-20.3.02-36.75-4.63-36.76-10.4,0-5.76,16.44-10.45,36.74-10.47,20.29-.02,36.75,4.63,36.76,10.4Z"/>
                <path class="cls-1" d="M39.88,25.27C21.57,25.27,2.09,21.22,2.08,13.72c0-3.41,4.01-6.35,11.6-8.51,7.04-2.01,16.38-3.12,26.3-3.13,18.44,0,37.91,4.05,37.92,11.56,0,3.4-4.01,6.34-11.6,8.51-7.04,2.01-16.38,3.12-26.3,3.13h-.12ZM40.1,4.4c-9.83.01-18.94,1.09-25.78,3.04-6.12,1.75-9.92,4.15-9.91,6.28,0,4.37,14.58,9.24,35.48,9.24v1.16l.12-1.16c9.71,0,18.83-1.09,25.67-3.04,6.12-1.75,9.92-4.15,9.91-6.27,0-4.37-14.58-9.24-35.48-9.24Z"/>
              </g>
            </g>
            <g>
              <path class="cls-6" d="M8.53,39.12l5.46,46.86c0,4.31,11.68,7.8,26.08,7.79,14.4-.01,26.07-3.52,26.07-7.84l5.45-47.17-63.06.36Z"/>
              <path class="cls-1" d="M39.98,94.92c-13.16,0-27.15-3.13-27.15-8.94l-5.45-46.73c-.04-.33.06-.66.28-.9.22-.25.53-.39.86-.39l63.06-.36c.27,0,.65.14.87.39.22.25.33.58.29.91l-5.45,47.18c.01,2.55-2.91,4.85-8.45,6.51-5.03,1.51-11.69,2.35-18.77,2.35h-.09ZM9.83,40.27l5.31,45.58c0,2.9,9.46,6.76,24.84,6.76v1.16l.09-1.16c6.86,0,13.29-.81,18.1-2.25,5.02-1.51,6.81-3.27,6.8-4.42l5.31-46.01-60.46.35Z"/>
            </g>
            <g>
              <path class="cls-16" d="M71.59,38.75c0,2.17-14.13,3.94-31.58,3.95-17.45.01-31.58-1.72-31.58-3.89,0-2.16,14.13-3.93,31.58-3.95,17.44-.02,31.58,1.72,31.58,3.89Z"/>
              <path class="cls-1" d="M39.79,43.87c-7.63,0-32.51-.36-32.52-5.05,0-4.71,25.06-5.11,32.74-5.12h.27c7.62,0,32.47.37,32.47,5.05,0,4.71-25.05,5.11-32.73,5.11h-.23ZM9.99,38.82c2.58,1.24,13.34,2.73,29.8,2.73h.23c16.59-.02,27.42-1.54,30.01-2.79-2.58-1.24-13.32-2.73-29.75-2.73h-.27c-16.59.02-27.42,1.54-30.02,2.79Z"/>
            </g>
            <g class="cls-14">
              <g class="cls-17">
                <path class="cls-5" d="M3.27,13.01s-.02.09-.02.13l9.42,73.87c0,3.05,5.57,5.7,13.82,7.11l-5.15-71.72C6.52,19.9,3.72,15.28,3.27,13.01Z"/>
              </g>
              <g class="cls-17">
                <path class="cls-5" d="M63.1,21.17l-6.47,72.33c6.58-1.5,10.84-3.87,10.83-6.54l9.28-73.89s-2.21,6.55-13.64,8.1Z"/>
              </g>
            </g>
          </g>
        </g>
      </g>
    </g>
  </g>
</svg>