<?xml version="1.0" encoding="UTF-8"?>
<svg id="Layer_2" data-name="Layer 2" xmlns="http://www.w3.org/2000/svg" width="240.46" height="318.79" xmlns:xlink="http://www.w3.org/1999/xlink" viewBox="0 0 240.46 318.79">
  <defs>
    <style>
      .cls-1 {
        fill: #454545;
      }

      .cls-2 {
        mask: url(#mask-1);
      }

      .cls-3 {
        fill: #009547;
      }

      .cls-4 {
        fill: #009fe3;
      }

      .cls-5 {
        fill: url(#radial-gradient-3);
      }

      .cls-5, .cls-6 {
        mix-blend-mode: multiply;
      }

      .cls-6 {
        fill: url(#radial-gradient);
      }

      .cls-7 {
        mask: url(#mask);
      }

      .cls-8 {
        fill: #292929;
      }

      .cls-9 {
        mask: url(#mask-2);
      }

      .cls-10 {
        fill: #7e7e7d;
      }

      .cls-11 {
        fill: url(#radial-gradient-2);
      }

      .cls-12 {
        fill: url(#radial-gradient-4);
      }

      .cls-13 {
        fill: #212121;
      }

      .cls-14 {
        mask: url(#mask-3);
      }
    </style>
    <filter id="luminosity-noclip" x="49.3" y="-8449.22" width="125.74" height="32766" color-interpolation-filters="sRGB" filterUnits="userSpaceOnUse">
      <feFlood flood-color="#fff" result="bg"/>
      <feBlend in="SourceGraphic" in2="bg"/>
    </filter>
    <mask id="mask-1" x="49.3" y="-8449.22" width="125.74" height="32766" maskUnits="userSpaceOnUse"/>
    <radialGradient id="radial-gradient" cx="43.85" cy="151.2" fx="43.85" fy="151.2" r="123.93" gradientUnits="userSpaceOnUse">
      <stop offset="0" stop-color="#fff"/>
      <stop offset=".19" stop-color="#c5c5c5"/>
      <stop offset=".57" stop-color="#5c5c5c"/>
      <stop offset=".82" stop-color="#191919"/>
      <stop offset=".94" stop-color="#000"/>
    </radialGradient>
    <mask id="mask" x="49.3" y="61.12" width="125.74" height="158.07" maskUnits="userSpaceOnUse">
      <g class="cls-2">
        <path class="cls-6" d="M111.33,61.12s-19.18,10.96-39.73,4.11c0,0-37.68,41.79-15.07,99.33,22.6,57.55,89.74,58.92,118.52,51.38,0,0-88.38-39.73-63.71-154.83Z"/>
      </g>
    </mask>
    <radialGradient id="radial-gradient-2" cx="43.85" cy="151.2" fx="43.85" fy="151.2" r="123.93" gradientUnits="userSpaceOnUse">
      <stop offset="0" stop-color="#fff"/>
      <stop offset=".94" stop-color="#fff"/>
    </radialGradient>
    <filter id="luminosity-noclip-2" x="3.63" y="-8449.22" width="89.2" height="32766" color-interpolation-filters="sRGB" filterUnits="userSpaceOnUse">
      <feFlood flood-color="#fff" result="bg"/>
      <feBlend in="SourceGraphic" in2="bg"/>
    </filter>
    <mask id="mask-3" x="3.63" y="-8449.22" width="89.2" height="32766" maskUnits="userSpaceOnUse"/>
    <radialGradient id="radial-gradient-3" cx="-41.45" cy="46.05" fx="-41.45" fy="46.05" r="149.92" xlink:href="#radial-gradient"/>
    <mask id="mask-2" x="3.63" y="6.31" width="89.2" height="178.12" maskUnits="userSpaceOnUse">
      <g class="cls-14">
        <path class="cls-5" d="M89.4,6.31l3.42,9.59S-9.93,54.96,14.73,184.43c0,0-27.12-59.35,3.42-116.46C49.67,9.05,89.4,6.31,89.4,6.31Z"/>
      </g>
    </mask>
    <radialGradient id="radial-gradient-4" cx="-41.45" cy="46.05" fx="-41.45" fy="46.05" r="149.92" xlink:href="#radial-gradient-2"/>
  </defs>
  <g id="Layer_1-2" data-name="Layer 1">
    <g>
      <path class="cls-1" d="M191.29,314.24c-.19-.37-17.91-36.72-17.28-61.14l-17.22-.13h0s-.49,0-.49,0h-.71s0,0,0,0l-11.64.13c.63,24.27-16.86,60.3-17.26,61.12-.13.15-.21.3-.21.46,0,2.27,14.55,4.11,32.5,4.11s32.5-1.84,32.5-4.11c0-.15-.07-.3-.19-.44Z"/>
      <path class="cls-8" d="M191.29,314.24c-.19-.37-17.91-36.72-17.28-61.14l-14.22-.11v65.8c17.57-.05,31.69-1.88,31.69-4.11,0-.15-.07-.3-.19-.44Z"/>
      <path class="cls-1" d="M194.85,224.83c-21.79-47.24-61.12-132.54-85.69-185.96-.05.05-.1.11-.15.16-5.34,5.57-11.09,5.06-12.14,4.91l86.59,187.05c3.92-1.84,7.73-3.89,11.39-6.16Z"/>
      <path class="cls-10" d="M134.96,241.81c-62.99,0-114.06-51.07-114.06-114.07,0-50.83,33.25-93.89,79.18-108.62-3.61-7.86-6.6-14.37-8.76-19.12C38.2,18.15,0,68.48,0,127.74c0,74.54,60.43,134.96,134.96,134.96,25.09,0,48.58-6.86,68.7-18.78-2.42-5.25-5.41-11.71-8.81-19.09-17.41,10.76-37.93,16.98-59.9,16.98Z"/>
      <path class="cls-4" d="M240.46,126.89c0,54.11-43.86,97.96-97.96,97.96s-97.96-43.86-97.96-97.96S88.39,28.92,142.49,28.92s97.96,43.86,97.96,97.97Z"/>
      <path class="cls-3" d="M85.65,176.35c-.04-.22.02-.47.24-.58,4.16-2.21,8.51-4,12.9-5.64-1.55-4.46-2.88-8.99-5.13-13.18-.12-.23-.07-.57.19-.71,3.52-1.71,7.28-2.86,10.9-4.32,2.07-.83,4.51-1.76,6.61-3.07-2.87-3.08-6.13-5.8-9.23-8.66-2.77-2.56-5.55-5.57-8.58-8.1-5.08,5.86-10.01,11.85-15.01,17.78-.23.26-.65.16-.81-.11-3.61-5.7-3.97-12.66-5.51-19.06-.9-3.74-1.98-6.94-5.77-8.57-2.67-1.15-5.5-1.86-8.06-3.26-.22-.13-.34-.48-.18-.7,3.54-4.76,6.76-9.79,9.62-15-2.98-5.37-5.95-10.73-9.31-15.85-3.11,3.2-6.32,6.3-9.31,9.6-3.04,9.45-4.69,19.53-4.69,29.99,0,29.48,13.03,55.92,33.64,73.88,3.8-1.63,7.65-3.15,11.51-4.66-1.4-6.57-2.7-13.17-4.02-19.76Z"/>
      <path class="cls-3" d="M197.57,76.79c-.18.3-.56.32-.81.1-6.4-5.56-12.3-11.66-18.49-17.44-.76,5.1-1.79,10.18-2.71,15.27,1.57,3.7,3.08,7.42,4.79,11.05.16.33-.02.79-.44.77-4.18-.18-8.14,1.08-12.13,2.05.28.76.56,1.52.83,2.29,1.56,4.51,3.47,9.26,3.33,14.11-.07,2.61-.45,5.2-.49,7.81-.04,2.58.2,5.16.18,7.75-.04,3.78.11,7.55.08,11.32,0,1.79-.08,3.7-1.88,4.62-1.98,1-4.29,1.27-6.48,1.42-1.39.1-2.79.15-4.2.16.57,7.69-.21,15.57.61,23.22,2.35-2.12,5.01-3.88,7.79-5.38,1.67-.89,3.36-1.74,5.09-2.53,1.11-.5,2.97-.82,3.12-2.13.6-5.4,7.05-9.22,5.19-14.98-.12-.37.26-.75.63-.63,6.32,2,13.39,4.3,20.02,2.57.48-.13.91.51.5.86-2.9,2.47-1.97,7.4-2.21,10.83-.19,2.63-.48,5.26-.58,7.9,4.47,1.54,9.08,2.67,13.42,4.63,5.17,2.35,7.86,6.63,10.98,11.06.52-5.74,2.15-11.31,2.7-17.06.03-.27.21-.52.52-.52,2.93.12,5.88.53,8.83.99,3.05-9.46,4.69-19.54,4.69-30.01,0-23.36-8.18-44.81-21.83-61.65-.34-.06-.68-.11-1.03-.16-4.31-.65-8.59-1.49-12.91-2.12-2.11,4.74-4.39,9.4-7.11,13.84Z"/>
      <path class="cls-1" d="M136.79,29.09c-26.11,1.5-49.48,13.23-66.17,31.24,1.34.06,2.69.11,4.06.11,25.47,0,48.04-12.33,62.12-31.34Z"/>
      <g>
        <path class="cls-1" d="M55.25,35.29c.54.76.36,1.81-.4,2.34h0c-.75.54-1.8.36-2.33-.4l-5.93-8.37c-.54-.75-.35-1.8.4-2.34h0c.75-.53,1.8-.35,2.33.4l5.93,8.37Z"/>
        <path class="cls-1" d="M23.87,76.31c.87.38,1.26,1.38.88,2.25h0c-.37.86-1.38,1.26-2.24.89l-9.59-4.16c-.86-.37-1.26-1.38-.88-2.24h0c.38-.87,1.39-1.26,2.25-.88l9.58,4.15Z"/>
        <path class="cls-1" d="M13.53,134.23c.94-.04,1.74.69,1.79,1.63h0c.04.94-.69,1.74-1.63,1.78l-10.43.48c-.94.04-1.74-.69-1.79-1.63h0c-.04-.94.68-1.74,1.62-1.78l10.44-.48Z"/>
        <path class="cls-1" d="M28.26,185.83c.83-.46,1.87-.15,2.32.68h0c.45.83.14,1.86-.69,2.31l-9.17,4.99c-.82.45-1.86.15-2.31-.68h0c-.45-.83-.14-1.86.69-2.31l9.17-4.99Z"/>
        <path class="cls-1" d="M57.24,221.26c.69-.64,1.78-.59,2.41.11h0c.64.69.58,1.77-.11,2.41l-7.7,7.06c-.7.64-1.78.6-2.42-.1h0c-.63-.69-.58-1.78.12-2.41l7.69-7.06Z"/>
        <path class="cls-1" d="M97.24,243.71c.38-.86,1.39-1.25,2.25-.86h0c.86.38,1.25,1.39.87,2.25l-4.25,9.53c-.38.87-1.39,1.25-2.26.87h0c-.85-.38-1.25-1.4-.86-2.26l4.24-9.54Z"/>
        <path class="cls-1" d="M153.44,247.55c-.2-.92.36-1.84,1.29-2.05h0c.92-.21,1.83.36,2.05,1.28l2.35,10.17c.21.92-.36,1.84-1.28,2.05h0c-.92.21-1.83-.37-2.05-1.28l-2.36-10.17Z"/>
      </g>
      <path class="cls-13" d="M109.01,39.03c.05-.06.1-.11.15-.16-3.33-7.22-6.38-13.87-9.08-19.75-4.27,1.37-8.43,2.99-12.46,4.83l9.26,19.99c1.05.15,6.8.67,12.14-4.91Z"/>
      <g class="cls-7">
        <path class="cls-11" d="M111.33,61.12s-19.18,10.96-39.73,4.11c0,0-37.68,41.79-15.07,99.33,22.6,57.55,89.74,58.92,118.52,51.38,0,0-88.38-39.73-63.71-154.83Z"/>
      </g>
      <g class="cls-9">
        <path class="cls-12" d="M89.4,6.31l3.42,9.59S-9.93,54.96,14.73,184.43c0,0-27.12-59.35,3.42-116.46C49.67,9.05,89.4,6.31,89.4,6.31Z"/>
      </g>
    </g>
  </g>
</svg>