<?xml version="1.0" encoding="UTF-8"?>
<svg xmlns="http://www.w3.org/2000/svg" width="100.22" height="100" viewBox="0 0 100.22 100">
  <defs>
    <style>
      .cls-1 {
        fill: #8b8b8b;
      }

      .cls-2 {
        fill: #9a9a9a;
      }

      .cls-3 {
        fill: #7d7d7d;
      }

      .cls-4 {
        fill: #fff;
      }

      .cls-5 {
        fill: #6e6e6e;
      }

      .cls-6 {
        fill: #606060;
      }

      .cls-7 {
        fill: #e2e2e2;
      }

      .cls-8 {
        fill: #696a6d;
      }

      .cls-9, .cls-10 {
        opacity: .4;
      }

      .cls-9, .cls-10, .cls-11, .cls-12 {
        mix-blend-mode: multiply;
      }

      .cls-13 {
        isolation: isolate;
      }

      .cls-14 {
        fill: #acacac;
      }

      .cls-15 {
        fill: #f1f1f1;
      }

      .cls-16 {
        fill: #f7ac67;
      }

      .cls-10 {
        fill: #de7e38;
      }

      .cls-17 {
        fill: #c5c5c5;
      }

      .cls-18, .cls-19 {
        fill: #fad194;
      }

      .cls-19, .cls-12, .cls-20 {
        opacity: .6;
      }

      .cls-19, .cls-21, .cls-20 {
        mix-blend-mode: screen;
      }

      .cls-22 {
        fill: #a8a8a8;
      }

      .cls-12, .cls-21, .cls-20 {
        fill: #9fa1a4;
      }

      .cls-23 {
        fill: #d4d4d4;
      }

      .cls-24 {
        fill: #b7b7b7;
      }

      .cls-21 {
        opacity: .8;
      }

      .cls-25 {
        fill: #5c2f10;
      }
    </style>
  </defs>
  <g class="cls-13">
    <g id="Layer_2" data-name="Layer 2">
      <g id="Layer_1-2" data-name="Layer 1">
        <g>
          <g class="cls-11">
            <path class="cls-4" d="M91.43,77.97c-.99-1.08-2.02-2.2-3-3.31l-.15-.17c-7.01-7.95-14.26-16.16-21.92-23.82-6.32-6.32-12.54-13.03-20.04-21.66.05-.31.06-.63.04-.94-.04-.51-.21-1-.51-1.44-2.22-3.22-4.89-7.18-5.7-8.67-.25-.44-.24-.72-.23-.83.57-.9,2.19-2.99,4.06-3.72,0,0,.19-.06.68-.06,2.12,0,5.77.97,8.43,1.67h.06c2.31.63,3.7.99,4.72.99,1.28,0,2.33-.59,2.89-1.63.72-1.34.58-2.45.34-3.14-.34-.94-1.03-1.55-1.63-1.83-.67-.34-8.55-4.34-13.54-6.48-1.76-.76-3.67-1.14-5.69-1.14-5.58,0-10.14,2.9-10.65,3.23-.02.02-.05.03-.07.05-.09.06-.17.13-.26.2l-.05.05c-8,7.02-17.64,15.45-18.46,16.12-.48.4-.86.87-1.12,1.4-.51.12-1.02.36-1.56.7-.96.62-3.55,2.98-5.03,4.36-.08.08-.16.17-.24.25-1.7,2-.57,4.9,3.88,10,4.97,5.69,6.92,5.69,7.65,5.69.49,0,.95-.1,1.38-.31.23-.1.45-.24.66-.41,1.88-1.55,4.28-3.57,4.97-4.38.13-.16.26-.32.38-.49.1-.12.2-.25.28-.39,1.39-.23,2.51-1.24,2.92-2.65.81-1.43,1.9-2.71,2.46-3.03,1.04.31,3.78,2.23,5.87,4.15.76.74,1.69,1.49,2.89,1.59,2.36,2.84,4.59,5.57,6.34,7.71.65.8,1.3,1.59,1.98,2.41,1.06,1.28,2.15,2.61,3.19,3.92l.06.08c2.95,3.71,29.08,36.45,38.88,46.5.45.52,1.51,1.46,3.32,1.46.62,0,1.27-.12,1.93-.36,2.06-.75,7.42-5.47,8.21-8.42.36-1.2.16-2.52-.54-3.55-2.36-3.49-5.27-6.65-8.08-9.71Z"/>
            <path class="cls-15" d="M91.24,77.8c-.99-1.08-2.01-2.2-3-3.31l-.15-.17c-7.01-7.94-14.26-16.16-21.92-23.82-6.32-6.32-12.54-13.03-20.04-21.66.05-.31.06-.63.04-.94-.04-.51-.21-1-.51-1.44-2.21-3.22-4.89-7.18-5.7-8.67-.25-.45-.24-.72-.23-.83.57-.9,2.19-2.99,4.06-3.72,0,0,.19-.06.67-.06,2.12,0,5.77.97,8.43,1.67l.06.02c2.31.61,3.7.98,4.72.98,1.28,0,2.33-.59,2.89-1.63.73-1.34.58-2.45.34-3.14-.34-.94-1.03-1.54-1.63-1.83-.68-.33-8.55-4.34-13.54-6.48-1.76-.76-3.67-1.14-5.68-1.14-5.58,0-10.15,2.88-10.65,3.23-.02.02-.05.03-.07.05-.09.06-.17.13-.26.2l-.05.05c-8,7.02-17.64,15.45-18.46,16.12-.48.4-.86.87-1.12,1.4-.51.12-1.02.36-1.56.7-.96.62-3.56,2.97-5.03,4.36-.08.08-.16.16-.24.25-1.68,2.01-.57,4.9,3.88,10,4.97,5.69,6.92,5.69,7.65,5.69.49,0,.95-.11,1.38-.31.23-.11.45-.24.66-.41,1.89-1.54,4.28-3.57,4.97-4.38.13-.16.26-.32.38-.49.1-.12.2-.25.28-.39,1.39-.23,2.51-1.24,2.92-2.65.82-1.43,1.9-2.71,2.46-3.04,1.04.31,3.78,2.23,5.87,4.15.76.74,1.69,1.49,2.89,1.59,2.35,2.84,4.59,5.57,6.34,7.71.65.8,1.3,1.59,1.98,2.41,1.06,1.28,2.15,2.61,3.19,3.92l.06.08c2.95,3.71,29.08,36.45,38.88,46.5.45.52,1.51,1.46,3.32,1.46.62,0,1.27-.12,1.93-.36,2.06-.75,7.38-5.48,8.21-8.42.34-1.21.16-2.52-.54-3.55-2.36-3.49-5.27-6.65-8.08-9.71Z"/>
            <path class="cls-7" d="M91.06,77.64c-.99-1.08-2.02-2.19-3-3.3l-.15-.17c-7.01-7.95-14.26-16.16-21.92-23.82-6.32-6.32-12.53-13.03-20.04-21.66.05-.31.06-.63.04-.94-.04-.51-.21-1-.51-1.44-2.21-3.23-4.89-7.19-5.7-8.67-.25-.44-.24-.72-.23-.83.57-.9,2.19-2.99,4.06-3.72,0,0,.19-.06.68-.06,2.12,0,5.77.97,8.43,1.67h.06c2.31.63,3.7.99,4.72.99,1.28,0,2.33-.59,2.89-1.63.72-1.34.58-2.45.34-3.14-.34-.94-1.03-1.54-1.63-1.83-.68-.33-8.55-4.34-13.54-6.48-1.76-.76-3.67-1.14-5.69-1.14-5.58,0-10.15,2.88-10.65,3.23-.02.02-.05.03-.07.05-.09.07-.17.13-.26.2l-.05.05c-8,7.02-17.64,15.45-18.46,16.12-.48.4-.86.88-1.12,1.4-.51.12-1.02.36-1.56.7-.96.62-3.55,2.98-5.03,4.36-.08.08-.16.16-.24.25-1.68,2.01-.57,4.9,3.88,10,4.97,5.69,6.92,5.69,7.65,5.69.49,0,.95-.11,1.38-.31.23-.11.45-.24.66-.41,1.89-1.54,4.28-3.57,4.97-4.38.13-.16.26-.32.38-.48.1-.12.2-.25.28-.39,1.39-.23,2.51-1.24,2.92-2.65.81-1.43,1.9-2.71,2.46-3.03,1.04.31,3.78,2.23,5.87,4.15.76.74,1.69,1.49,2.89,1.59,2.36,2.84,4.59,5.57,6.34,7.71.65.8,1.3,1.59,1.98,2.41,1.06,1.28,2.15,2.61,3.19,3.92l.06.08c2.95,3.71,29.08,36.45,38.88,46.5.45.52,1.51,1.46,3.32,1.46.62,0,1.27-.12,1.93-.36,2.06-.75,7.38-5.48,8.21-8.42.34-1.21.16-2.52-.54-3.55-2.36-3.49-5.27-6.65-8.08-9.71Z"/>
            <path class="cls-23" d="M90.87,77.48c-.99-1.08-2.02-2.2-3-3.31l-.15-.17c-7.01-7.95-14.25-16.16-21.92-23.82-6.32-6.32-12.54-13.03-20.04-21.66.05-.31.06-.63.04-.94-.04-.51-.21-1-.51-1.44-2.21-3.23-4.89-7.18-5.7-8.67-.25-.44-.24-.72-.23-.83.57-.9,2.19-2.99,4.06-3.72,0,0,.19-.06.68-.06,2.12,0,5.76.97,8.43,1.67h.06c2.31.63,3.7.99,4.72.99,1.28,0,2.33-.59,2.89-1.63.73-1.34.58-2.45.34-3.14-.34-.94-1.03-1.54-1.63-1.84-.68-.33-8.55-4.34-13.54-6.48-1.76-.76-3.67-1.14-5.69-1.14-5.58,0-10.15,2.88-10.65,3.23-.02.02-.05.03-.07.05-.09.06-.17.13-.26.2l-.05.05c-8,7.02-17.64,15.45-18.46,16.12-.48.4-.86.87-1.12,1.4-.5.13-1.02.36-1.56.7-.96.62-3.56,2.97-5.03,4.36-.08.08-.16.16-.24.25-1.68,2.01-.57,4.9,3.88,10,4.98,5.69,6.92,5.69,7.65,5.69.49,0,.95-.11,1.38-.31.23-.11.45-.24.66-.41,1.9-1.54,4.28-3.57,4.97-4.38.13-.16.26-.32.38-.49.1-.12.2-.25.28-.39,1.39-.23,2.51-1.24,2.92-2.65.81-1.43,1.9-2.71,2.46-3.03,1.04.31,3.78,2.23,5.87,4.14.76.74,1.69,1.49,2.89,1.59,2.36,2.84,4.59,5.57,6.34,7.71.65.8,1.31,1.59,1.98,2.41,1.06,1.28,2.15,2.61,3.19,3.91l.06.08c2.95,3.71,29.08,36.45,38.88,46.5.45.52,1.51,1.46,3.32,1.46.62,0,1.27-.12,1.93-.36,2.06-.75,7.38-5.48,8.21-8.42.34-1.21.16-2.52-.54-3.55-2.36-3.49-5.27-6.65-8.08-9.71Z"/>
            <path class="cls-17" d="M90.68,77.31c-.99-1.08-2.02-2.19-3-3.3l-.15-.17c-7.01-7.95-14.26-16.16-21.92-23.82-6.32-6.32-12.54-13.03-20.04-21.66.05-.31.06-.63.04-.94-.04-.51-.21-1-.51-1.44-2.21-3.22-4.89-7.18-5.7-8.67-.25-.44-.24-.72-.23-.83.57-.9,2.19-2.99,4.06-3.72,0,0,.19-.06.68-.06,2.12,0,5.77.97,8.43,1.67l.06.02c2.31.61,3.7.98,4.72.98,1.28,0,2.33-.59,2.89-1.63.72-1.34.58-2.45.34-3.14-.34-.94-1.03-1.54-1.63-1.84-.68-.33-8.55-4.34-13.54-6.48-1.76-.76-3.67-1.14-5.69-1.14-5.58,0-10.15,2.89-10.65,3.23-.02.02-.05.03-.08.05-.09.06-.17.13-.25.2l-.05.05c-8,7.02-17.64,15.45-18.46,16.12-.48.4-.86.87-1.12,1.4-.5.12-1.02.36-1.56.7-.96.62-3.56,2.98-5.03,4.36-.08.08-.16.17-.24.25-1.69,2.01-.57,4.9,3.88,10,4.97,5.69,6.92,5.69,7.65,5.69.49,0,.95-.11,1.38-.31.23-.11.45-.24.66-.41,1.89-1.54,4.28-3.57,4.97-4.38.13-.16.26-.32.38-.49.1-.12.2-.25.28-.39,1.39-.23,2.51-1.24,2.92-2.65.81-1.43,1.9-2.71,2.46-3.04,1.04.31,3.78,2.23,5.87,4.15.76.74,1.69,1.49,2.89,1.59,2.36,2.84,4.59,5.58,6.34,7.71.65.8,1.31,1.59,1.98,2.4,1.06,1.28,2.15,2.61,3.19,3.92l.06.08c2.95,3.71,29.08,36.45,38.88,46.5.45.52,1.51,1.46,3.32,1.46.62,0,1.27-.12,1.93-.36,2.06-.75,7.38-5.48,8.21-8.42.34-1.2.16-2.52-.54-3.55-2.36-3.49-5.27-6.65-8.08-9.71Z"/>
            <path class="cls-24" d="M90.5,77.15c-.99-1.08-2.02-2.19-3-3.3l-.15-.17c-7.01-7.95-14.26-16.16-21.92-23.82-6.32-6.31-12.54-13.03-20.04-21.66.05-.31.06-.63.04-.94-.04-.51-.21-1-.51-1.44-2.21-3.23-4.89-7.18-5.7-8.67-.24-.44-.24-.72-.23-.83.57-.9,2.19-2.99,4.06-3.72,0,0,.19-.06.68-.06,2.12,0,5.76.97,8.43,1.67h.06c2.31.63,3.7.99,4.72.99,1.28,0,2.33-.59,2.89-1.63.73-1.34.58-2.45.34-3.14-.34-.94-1.03-1.54-1.63-1.84-.68-.33-8.55-4.34-13.54-6.48-1.76-.76-3.67-1.14-5.69-1.14-5.58,0-10.15,2.88-10.65,3.23-.02.02-.05.03-.07.05-.09.06-.17.13-.25.2l-.05.05c-8,7.02-17.64,15.45-18.46,16.12-.48.4-.86.87-1.12,1.4-.51.13-1.02.36-1.56.7-.96.62-3.55,2.98-5.03,4.36-.08.08-.16.16-.24.25-1.68,2.01-.57,4.9,3.88,10,4.97,5.69,6.92,5.69,7.65,5.69.49,0,.95-.11,1.38-.31.23-.11.45-.24.66-.41,1.9-1.54,4.28-3.57,4.97-4.38.13-.16.26-.32.38-.48.1-.12.2-.25.28-.39,1.39-.23,2.51-1.24,2.92-2.65.81-1.43,1.9-2.71,2.46-3.03,1.04.31,3.78,2.23,5.87,4.15.76.74,1.69,1.49,2.89,1.59,2.36,2.84,4.59,5.57,6.34,7.71.65.8,1.31,1.59,1.98,2.4,1.06,1.28,2.15,2.61,3.19,3.92l.06.08c2.95,3.71,29.08,36.45,38.88,46.5.45.52,1.51,1.46,3.32,1.46.62,0,1.27-.12,1.93-.36,2.06-.75,7.38-5.48,8.21-8.42.34-1.21.16-2.52-.54-3.55-2.36-3.49-5.27-6.65-8.08-9.71Z"/>
            <path class="cls-22" d="M90.31,76.99c-.99-1.08-2.02-2.19-3-3.3l-.15-.17c-7.01-7.95-14.25-16.16-21.92-23.82-6.32-6.32-12.54-13.03-20.04-21.66.05-.31.06-.63.04-.94-.04-.51-.21-1-.51-1.44-2.21-3.22-4.89-7.18-5.7-8.67-.24-.44-.24-.72-.23-.83.57-.9,2.2-2.99,4.06-3.72,0,0,.19-.06.68-.06,2.12,0,5.77.97,8.43,1.67h.06c2.31.63,3.7.99,4.72.99,1.28,0,2.33-.59,2.89-1.63.72-1.34.58-2.45.34-3.14-.34-.94-1.03-1.54-1.63-1.83-.68-.33-8.55-4.34-13.54-6.48-1.76-.76-3.67-1.14-5.69-1.14-5.58,0-10.15,2.89-10.65,3.23-.03.02-.05.03-.08.05-.09.06-.17.13-.25.2l-.05.05c-8,7.02-17.64,15.45-18.46,16.12-.48.4-.86.87-1.12,1.4-.5.12-1.02.36-1.56.7-.96.62-3.56,2.97-5.03,4.36-.08.08-.16.17-.24.25-1.69,2.01-.57,4.9,3.88,10,4.97,5.69,6.92,5.69,7.65,5.69.49,0,.95-.11,1.38-.31.23-.11.45-.24.66-.41,1.89-1.54,4.28-3.57,4.97-4.38.13-.16.26-.32.38-.49.1-.12.2-.25.28-.39,1.39-.23,2.51-1.24,2.92-2.65.81-1.43,1.9-2.71,2.46-3.03,1.04.31,3.77,2.23,5.87,4.15.76.74,1.69,1.49,2.89,1.59,2.36,2.84,4.6,5.57,6.34,7.71.65.8,1.31,1.59,1.98,2.4,1.06,1.28,2.15,2.61,3.19,3.92l.06.08c2.95,3.71,29.08,36.45,38.88,46.5.45.52,1.51,1.46,3.32,1.46.62,0,1.27-.12,1.93-.36,2.06-.74,7.38-5.48,8.21-8.42.34-1.21.16-2.52-.54-3.55-2.36-3.49-5.27-6.65-8.08-9.71Z"/>
            <path class="cls-2" d="M90.12,76.82c-.99-1.08-2.02-2.19-3-3.31l-.15-.17c-7.01-7.95-14.26-16.16-21.92-23.82-6.32-6.32-12.54-13.03-20.04-21.66.05-.31.06-.63.04-.94-.04-.51-.21-1-.51-1.44-2.21-3.22-4.89-7.18-5.7-8.67-.24-.44-.24-.72-.23-.83.57-.9,2.19-2.99,4.06-3.72,0,0,.19-.06.68-.06,2.12,0,5.76.97,8.43,1.67l.06.02c2.31.61,3.7.98,4.72.98,1.28,0,2.33-.59,2.89-1.63.73-1.34.58-2.45.34-3.14-.34-.94-1.03-1.54-1.63-1.83-.68-.33-8.55-4.34-13.54-6.48-1.76-.76-3.67-1.14-5.69-1.14-5.58,0-10.15,2.89-10.65,3.23-.02.02-.05.03-.08.05-.09.06-.17.13-.25.2l-.05.05c-8,7.02-17.64,15.45-18.46,16.12-.48.4-.86.87-1.12,1.4-.5.13-1.02.36-1.56.7-.96.62-3.56,2.98-5.03,4.36-.08.08-.16.17-.24.25-1.69,2.01-.57,4.9,3.88,10,4.97,5.69,6.92,5.69,7.65,5.69.49,0,.95-.11,1.38-.31.23-.11.45-.24.66-.41,1.89-1.54,4.28-3.57,4.97-4.38.13-.16.26-.32.38-.49.1-.12.2-.25.28-.39,1.39-.23,2.51-1.24,2.92-2.65.81-1.43,1.9-2.71,2.46-3.04,1.04.31,3.78,2.23,5.87,4.15.76.74,1.69,1.49,2.89,1.59,2.36,2.84,4.59,5.57,6.34,7.71.65.8,1.31,1.59,1.98,2.41,1.06,1.28,2.15,2.61,3.19,3.91l.06.08c2.95,3.71,29.08,36.45,38.88,46.5.45.52,1.51,1.46,3.32,1.46.62,0,1.27-.12,1.93-.36,2.06-.75,7.38-5.48,8.21-8.42.34-1.21.16-2.52-.54-3.55-2.36-3.49-5.27-6.65-8.08-9.71Z"/>
            <path class="cls-1" d="M89.94,76.66c-.99-1.08-2.02-2.19-3-3.3l-.15-.17c-7.01-7.95-14.25-16.16-21.92-23.82-6.32-6.31-12.54-13.03-20.04-21.66.05-.31.06-.63.04-.94-.04-.51-.21-1-.51-1.44-2.21-3.22-4.89-7.18-5.7-8.67-.24-.44-.24-.72-.23-.83.57-.9,2.19-2.99,4.06-3.72,0,0,.19-.06.68-.06,2.12,0,5.76.97,8.43,1.67l.06.02c2.31.61,3.7.98,4.72.98,1.28,0,2.33-.59,2.89-1.63.73-1.34.58-2.45.34-3.14-.34-.94-1.03-1.54-1.63-1.83-.68-.33-8.55-4.34-13.54-6.48-1.76-.76-3.67-1.14-5.69-1.14-5.58,0-10.15,2.89-10.65,3.23-.02.02-.05.03-.08.05-.09.06-.17.13-.25.2l-.05.05c-8,7.02-17.64,15.45-18.46,16.12-.48.4-.86.87-1.12,1.4-.5.13-1.02.36-1.56.7-.96.62-3.55,2.98-5.03,4.36-.08.08-.16.16-.24.25-1.68,2.01-.57,4.9,3.88,10,4.98,5.69,6.92,5.69,7.65,5.69.49,0,.95-.11,1.38-.31.23-.11.45-.24.66-.41,1.89-1.54,4.28-3.57,4.97-4.38.13-.16.26-.32.38-.49.1-.12.2-.25.28-.39,1.39-.23,2.51-1.24,2.92-2.65.81-1.43,1.9-2.71,2.46-3.04,1.04.31,3.77,2.24,5.87,4.15.76.74,1.69,1.49,2.89,1.59,2.36,2.84,4.59,5.57,6.34,7.71.65.8,1.31,1.59,1.98,2.4,1.06,1.28,2.15,2.61,3.19,3.91l.06.08c2.95,3.71,29.08,36.45,38.88,46.5.45.52,1.51,1.46,3.32,1.46.62,0,1.27-.12,1.93-.36,2.06-.74,7.38-5.48,8.21-8.42.34-1.21.16-2.52-.54-3.55-2.36-3.49-5.27-6.65-8.08-9.71Z"/>
            <path class="cls-3" d="M89.75,76.5c-.99-1.08-2.02-2.19-3-3.3l-.15-.17c-7.01-7.95-14.26-16.16-21.92-23.82-6.32-6.32-12.54-13.03-20.04-21.66.05-.31.06-.63.04-.94-.04-.51-.21-1-.51-1.44-2.21-3.23-4.89-7.18-5.7-8.67-.24-.44-.24-.72-.23-.83.57-.9,2.2-2.99,4.06-3.72,0,0,.19-.06.68-.06,2.12,0,5.76.97,8.43,1.67l.06.02c2.31.61,3.7.98,4.72.98,1.28,0,2.33-.59,2.89-1.63.73-1.34.58-2.45.34-3.14-.34-.94-1.03-1.54-1.63-1.84-.68-.33-8.55-4.34-13.54-6.48-1.76-.76-3.67-1.14-5.69-1.14-5.58,0-10.15,2.88-10.65,3.23-.03.02-.05.04-.08.05-.09.06-.17.13-.25.2l-.05.05c-8,7.02-17.64,15.45-18.46,16.12-.48.4-.86.87-1.12,1.4-.5.13-1.02.36-1.56.7-.96.62-3.56,2.98-5.03,4.36-.08.08-.16.16-.24.25-1.69,2.01-.57,4.9,3.88,10,4.97,5.69,6.92,5.69,7.65,5.69.49,0,.95-.11,1.38-.31.23-.11.45-.24.66-.41,1.89-1.54,4.27-3.57,4.97-4.38.13-.16.26-.32.38-.49.1-.12.2-.25.28-.38,1.39-.23,2.51-1.24,2.92-2.65.81-1.43,1.9-2.71,2.46-3.04,1.04.31,3.78,2.23,5.87,4.15.76.74,1.69,1.49,2.89,1.59,2.36,2.84,4.6,5.57,6.34,7.71.65.8,1.31,1.59,1.98,2.4,1.06,1.28,2.15,2.61,3.19,3.92l.06.08c2.95,3.71,29.08,36.45,38.88,46.5.45.52,1.51,1.46,3.32,1.46.62,0,1.27-.12,1.93-.36,2.06-.74,7.38-5.48,8.21-8.42.34-1.21.16-2.52-.54-3.55-2.36-3.49-5.27-6.65-8.08-9.71Z"/>
            <path class="cls-5" d="M89.56,76.33c-.99-1.08-2.02-2.19-3-3.31l-.15-.17c-7.01-7.95-14.26-16.16-21.92-23.82-6.32-6.32-12.54-13.03-20.04-21.66.05-.31.06-.63.04-.94-.04-.51-.21-1.01-.51-1.44-2.21-3.22-4.89-7.18-5.71-8.67-.24-.45-.24-.72-.23-.83.57-.9,2.2-2.99,4.06-3.72,0,0,.19-.06.68-.06,2.12,0,5.76.97,8.43,1.67l.06.02c2.31.61,3.7.98,4.72.98,1.28,0,2.33-.59,2.89-1.63.73-1.34.58-2.45.34-3.14-.34-.94-1.03-1.54-1.63-1.83-.68-.33-8.55-4.34-13.54-6.48-1.76-.76-3.67-1.14-5.69-1.14-5.58,0-10.15,2.88-10.65,3.23-.03.02-.05.03-.08.05-.09.06-.17.13-.25.2l-.05.05c-8,7.02-17.64,15.45-18.46,16.12-.48.4-.86.88-1.12,1.4-.5.12-1.02.36-1.56.7-.96.62-3.56,2.98-5.03,4.36-.08.08-.16.16-.24.25-1.69,2.01-.57,4.9,3.88,10,4.97,5.69,6.92,5.69,7.65,5.69.49,0,.95-.11,1.38-.31.23-.11.45-.24.66-.41,1.89-1.54,4.27-3.57,4.97-4.38.13-.16.26-.32.38-.49.1-.12.2-.25.28-.39,1.39-.23,2.51-1.24,2.92-2.65.81-1.43,1.9-2.71,2.46-3.04,1.04.31,3.78,2.24,5.87,4.15.76.74,1.69,1.49,2.89,1.59,2.36,2.84,4.6,5.57,6.34,7.71.65.8,1.31,1.59,1.98,2.4,1.06,1.28,2.15,2.61,3.19,3.91l.06.08c2.95,3.71,29.08,36.45,38.88,46.5.45.52,1.51,1.46,3.32,1.46.62,0,1.27-.12,1.93-.36,2.06-.74,7.38-5.48,8.21-8.42.34-1.21.16-2.52-.54-3.55-2.36-3.49-5.27-6.65-8.08-9.71Z"/>
            <path class="cls-6" d="M89.38,76.17c-.99-1.08-2.02-2.19-3-3.3l-.15-.17c-7.01-7.95-14.26-16.16-21.92-23.82-6.32-6.32-12.54-13.03-20.04-21.66.05-.31.06-.63.04-.94-.04-.51-.21-1-.51-1.44-2.22-3.22-4.89-7.18-5.71-8.67-.24-.44-.24-.72-.23-.83.57-.9,2.2-2.99,4.06-3.72,0,0,.19-.06.68-.06,2.12,0,5.76.97,8.43,1.67l.06.02c2.31.61,3.7.98,4.72.98,1.28,0,2.33-.59,2.89-1.63.73-1.34.58-2.45.34-3.14-.34-.94-1.03-1.54-1.63-1.83-.67-.34-8.55-4.34-13.54-6.48-1.76-.76-3.67-1.14-5.69-1.14-5.58,0-10.14,2.9-10.65,3.23-.03.02-.05.03-.08.05-.09.06-.17.13-.25.2l-.05.05c-8,7.02-17.64,15.45-18.46,16.12-.48.4-.86.87-1.12,1.4-.5.13-1.02.36-1.56.7-.96.62-3.55,2.98-5.03,4.36-.08.08-.16.16-.24.25-1.7,2-.57,4.9,3.88,10,4.97,5.69,6.92,5.69,7.65,5.69.49,0,.95-.1,1.38-.31.23-.1.45-.24.66-.41,1.89-1.55,4.28-3.57,4.97-4.38.13-.16.26-.32.38-.49.1-.12.2-.25.28-.39,1.39-.23,2.51-1.24,2.92-2.65.81-1.43,1.9-2.71,2.46-3.04,1.04.31,3.78,2.24,5.87,4.15.76.74,1.69,1.49,2.89,1.59,2.36,2.84,4.6,5.57,6.34,7.71.65.8,1.31,1.59,1.98,2.4,1.06,1.28,2.15,2.61,3.19,3.91l.06.08c2.95,3.71,29.08,36.45,38.88,46.5.45.52,1.51,1.46,3.32,1.46.62,0,1.27-.12,1.93-.36,2.06-.75,7.42-5.47,8.21-8.42.36-1.2.16-2.52-.54-3.55-2.36-3.49-5.27-6.65-8.08-9.71Z"/>
          </g>
          <path class="cls-4" d="M89.38,76.17c-.99-1.08-2.02-2.19-3-3.3l-.15-.17c-7.01-7.95-14.26-16.16-21.92-23.82-6.32-6.32-12.54-13.03-20.04-21.66.05-.31.06-.63.04-.94-.04-.51-.21-1-.51-1.44-2.22-3.22-4.89-7.18-5.71-8.67-.24-.44-.24-.72-.23-.83.57-.9,2.2-2.99,4.06-3.72,0,0,.19-.06.68-.06,2.12,0,5.76.97,8.43,1.67l.06.02c2.31.61,3.7.98,4.72.98,1.28,0,2.33-.59,2.89-1.63.73-1.34.58-2.45.34-3.14-.34-.94-1.03-1.54-1.63-1.83-.67-.34-8.55-4.34-13.54-6.48-1.76-.76-3.67-1.14-5.69-1.14-5.58,0-10.14,2.9-10.65,3.23-.03.02-.05.03-.08.05-.09.06-.17.13-.25.2l-.05.05c-8,7.02-17.64,15.45-18.46,16.12-.48.4-.86.87-1.12,1.4-.5.13-1.02.36-1.56.7-.96.62-3.55,2.98-5.03,4.36-.08.08-.16.16-.24.25-1.7,2-.57,4.9,3.88,10,4.97,5.69,6.92,5.69,7.65,5.69.49,0,.95-.1,1.38-.31.23-.1.45-.24.66-.41,1.89-1.55,4.28-3.57,4.97-4.38.13-.16.26-.32.38-.49.1-.12.2-.25.28-.39,1.39-.23,2.51-1.24,2.92-2.65.81-1.43,1.9-2.71,2.46-3.04,1.04.31,3.78,2.24,5.87,4.15.76.74,1.69,1.49,2.89,1.59,2.36,2.84,4.6,5.57,6.34,7.71.65.8,1.31,1.59,1.98,2.4,1.06,1.28,2.15,2.61,3.19,3.91l.06.08c2.95,3.71,29.08,36.45,38.88,46.5.45.52,1.51,1.46,3.32,1.46.62,0,1.27-.12,1.93-.36,2.06-.75,7.42-5.47,8.21-8.42.36-1.2.16-2.52-.54-3.55-2.36-3.49-5.27-6.65-8.08-9.71Z"/>
          <g>
            <g>
              <g>
                <path class="cls-16" d="M95.18,88.63s.21-.59-.14-1.11c-3.07-4.54-7.24-8.62-10.85-12.71-7.16-8.11-14.29-16.21-21.95-23.86-10.81-10.81-20.78-22.35-30.63-34.04-.27-.32-4.59-5.43-4.52-5.49l-6.54,5.71c.87-.76,8.26,8.26,8.83,8.92,4.53,5.24,8.93,10.59,13.3,15.95,1.73,2.12,3.5,4.21,5.19,6.35,0,0,28.67,36.06,38.83,46.44,0,0,.57.85,2.07.31,1.5-.54,6.05-4.84,6.4-6.46Z"/>
                <path class="cls-25" d="M87.85,95.81h0c-.93,0-1.41-.5-1.54-.67-9.66-9.87-35.83-42.67-38.79-46.38l-.06-.07c-1.06-1.34-2.17-2.68-3.24-3.97-.65-.79-1.3-1.58-1.95-2.38-4.19-5.14-8.7-10.62-13.29-15.94-.06-.07-.19-.22-.37-.44-5.93-7.08-7.5-8.18-7.89-8.33-.2.07-.43.01-.57-.16-.19-.22-.17-.56.05-.75h0l6.48-5.66s.04-.03.06-.05c.22-.19.56-.17.75.06.04.04.06.08.08.13.29.41,2.48,3.04,4.44,5.36,10.96,13,20.36,23.76,30.6,34.01,7.62,7.62,14.85,15.82,21.85,23.75l.12.14c.98,1.11,2,2.22,3.03,3.34,2.76,3,5.6,6.1,7.86,9.43.45.67.28,1.37.22,1.56-.45,1.87-5.13,6.24-6.73,6.82-.39.14-.76.21-1.11.21ZM87.16,94.49s.2.25.7.25c.22,0,.47-.05.75-.15,1.4-.51,5.76-4.71,6.05-6.08,0-.02.01-.05.02-.07,0,0,.11-.34-.09-.63-2.21-3.27-5.04-6.34-7.76-9.31-1.03-1.12-2.05-2.24-3.04-3.35l-.12-.14c-6.98-7.92-14.2-16.1-21.8-23.7-10.27-10.27-19.69-21.05-30.66-34.07-2.37-2.8-3.6-4.26-4.19-5.06l-5.41,4.73c.99.69,3.06,2.67,7.83,8.36.18.21.3.36.36.42,4.6,5.33,9.12,10.82,13.31,15.96.64.79,1.29,1.58,1.95,2.37,1.07,1.3,2.18,2.64,3.25,3.99h0s.04.05.06.07c2.95,3.71,29.13,36.52,38.74,46.32.03.02.04.05.06.08h0Z"/>
              </g>
              <path class="cls-10" d="M39.85,33.14c1.05-.98,2.21-1.85,3.43-2.62-3.94-4.5-7.81-9.05-11.67-13.62-.27-.32-4.59-5.43-4.52-5.49l-6.54,5.71c.87-.76,8.26,8.26,8.83,8.92,2.81,3.26,5.58,6.56,8.32,9.88.42-1.08,1.45-2.15,2.14-2.79Z"/>
              <g class="cls-9">
                <path class="cls-18" d="M34.05,29.38c-.6-.69-1.22-1.46-1.95-2.02-.24-.18-.78-.36-.86.03.03.02.05.05.06.09.18.55.41,1.08.68,1.6-.17-.45-.34-.9-.51-1.36-.2-.56.43-.1.6.04.31.24.6.54.84.85.78,1.01,1.71,1.92,2.49,2.95.92,1.21,1.76,2.48,2.56,3.77.04.01.07.04.1.08.68,1.11,1.38,2.2,2.15,3.24-1.8-3.26-3.7-6.45-6.15-9.27Z"/>
                <path class="cls-18" d="M43.65,41.51c-.9-1.88-1.77-3.79-2.87-5.56-1.1-1.77-2.34-3.45-3.66-5.06-.56-.68-1.19-1.31-1.77-1.98-.67-.79-1.21-1.66-1.89-2.44-.54-.63-1.14-1.24-1.76-1.79-.29-.26-1.01-.85-1.46-.72-.31.09-.4.34-.46.63-.04.25.13.7.15.95,0,.2.05.41.09.61.17.43.35.85.56,1.24,0-.02-.02-.05-.02-.07-.21-.82-.32-1.62-.48-2.44-.23-1.17,1.08-.12,1.44.17,1.44,1.17,2.43,2.8,3.59,4.21,1.08,1.31,2.22,2.56,3.28,3.89,2.16,2.75,3.68,5.84,5.19,8.97.06,0,.12.03.15.1.55,1.21,1.27,2.32,2.05,3.39-.76-1.34-1.46-2.71-2.13-4.1Z"/>
                <path class="cls-18" d="M48.76,43.55c-2.34-2.93-4.41-6.02-6.65-9.01-2.2-2.94-4.55-5.86-7.09-8.51-1.2-1.25-2.53-2.29-3.92-3.33-.58-.43-1.12-.95-1.72-1.33-.42-.27-.59-.01-.77.35-.23.48-.07,1.26-.05,1.76.02.36.04.71.07,1.07.08.17.16.33.25.5-.06-.47-.1-.94-.12-1.42-.02-.38-.03-.77-.04-1.15-.06-.35.11-.62.49-.79.19.1.36.28.52.42,1.07.96,2.29,1.76,3.4,2.68,1.31,1.09,2.46,2.44,3.58,3.73,2.09,2.42,4.19,4.91,6.03,7.54,1.84,2.64,3.72,5.29,5.89,7.67.06.06.17-.13.12-.18Z"/>
                <path class="cls-18" d="M49.28,39.58c-1.03-1.01-2.16-1.91-3.21-2.91-1.1-1.05-2.12-2.18-3.13-3.3-2.01-2.23-3.81-4.68-5.68-7.03-.99-1.24-2.09-2.4-3.14-3.58-1.06-1.21-2.1-2.39-3.27-3.5-.05-.04-.12.09-.09.13,2.16,2.21,4.14,4.65,6.08,7.04,1.96,2.42,3.76,4.98,5.84,7.3.95,1.06,1.91,2.1,2.93,3.1,1.04,1.01,2.19,1.89,3.26,2.87,1.22,1.12,2.4,2.29,3.61,3.42,1.06.99,1.97,2.14,3.07,3.09.04.04.14-.13.1-.17-2.07-2.22-4.21-4.34-6.38-6.46Z"/>
                <path class="cls-18" d="M75.69,75.58c-1.42-1.44-2.82-2.89-4.19-4.38-2.7-2.93-5.26-5.99-7.9-8.99-1.29-1.47-2.58-2.95-3.8-4.48-1.19-1.49-2.27-3.06-3.44-4.57-.54-.69-1.17-1.3-1.74-1.96-.61-.69-1.14-1.46-1.68-2.21-1.08-1.51-2.12-3.04-3.42-4.38-.04-.05-.12.1-.09.13,1.15,1.36,2.13,2.86,3.13,4.33.53.77,1.07,1.54,1.66,2.27.54.68,1.17,1.27,1.72,1.94,1.21,1.48,2.27,3.07,3.45,4.57,1.2,1.54,2.5,3,3.81,4.44,2.67,2.95,5.26,5.96,7.96,8.87,1.38,1.48,2.79,2.93,4.22,4.36,1.36,1.36,2.58,2.83,3.89,4.23.05.05.13-.11.1-.14-1.23-1.34-2.39-2.74-3.67-4.04Z"/>
                <path class="cls-18" d="M66.34,69.96c.28.25.57.5.87.73-2.82-3.76-5.54-7.59-8.23-11.45-.73-1.06-1.5-2.08-2.26-3.1-.79-1.06-1.51-2.18-2.36-3.2-1.57-1.89-3.19-3.66-4.48-5.77-.03-.04-.1.08-.08.12,1.23,2.17,2.78,4.02,4.37,5.92.79.95,1.44,1.99,2.17,2.98.81,1.12,1.64,2.22,2.42,3.36,1.5,2.2,3.04,4.36,4.59,6.52.71.99,1.42,1.98,2.21,2.91.27.31.52.64.78.97Z"/>
                <path class="cls-18" d="M85.44,79.56c-.48-.6-.94-1.09-1.5-1.63-1.18-1.12-2.26-2.35-3.43-3.48-2.61-2.53-5.28-4.98-7.85-7.55-2.57-2.55-4.9-5.32-7.39-7.94-1.18-1.25-2.44-2.43-3.62-3.68-1.26-1.32-2.37-2.74-3.52-4.16-.04-.05-.13.1-.1.14,1.06,1.39,2.07,2.8,3.23,4.1,1.14,1.28,2.4,2.46,3.57,3.71,2.48,2.64,4.8,5.4,7.36,7.96,2.5,2.51,5.08,4.91,7.65,7.34,1.2,1.13,2.32,2.34,3.49,3.49.54.53,1.14,1.04,1.6,1.64.18.24.37.47.57.7.1.11.33.42.47.68-.36-.1-.79-.53-1.01-.68-.79-.56-1.63-1.02-2.37-1.65-.68-.59-1.32-1.22-2.03-1.78-.83-.65-1.71-1.25-2.55-1.88-1.72-1.29-3.48-2.55-5.01-4.07-1.55-1.54-3.08-3.09-4.56-4.69-1.39-1.5-2.53-3.17-3.81-4.75-1.28-1.58-2.52-3.19-3.76-4.81-1.24-1.6-2.44-3.23-3.68-4.83-.62-.8-1.25-1.6-1.84-2.41-.28-.38-.53-.77-.77-1.17-.18-.29-.4-.54-.54-.84.45.32.87.74,1.28,1.08.58.48,1.13,1,1.71,1.48,1.23,1.04,2.55,1.98,3.81,2.98,2.66,2.12,5.11,4.42,7.42,6.92,2.24,2.42,4.51,4.81,6.77,7.21,2.3,2.44,4.61,4.89,6.67,7.54.03.03.09-.07.06-.1-2.03-2.68-4.33-5.13-6.64-7.58-2.27-2.41-4.47-4.87-6.71-7.3-2.19-2.37-4.48-4.56-6.99-6.59-1.26-1.01-2.56-1.98-3.83-2.99-.67-.53-1.31-1.09-1.95-1.66-.52-.47-1.13-1.05-1.73-1.39-.08-.04-.14.15-.13.2.1.7.73,1.38,1.11,1.95.55.84,1.22,1.6,1.82,2.41,1.26,1.71,2.54,3.39,3.83,5.08,1.3,1.7,2.59,3.39,3.94,5.05,1.41,1.73,2.68,3.55,4.22,5.19,1.41,1.5,2.82,3.12,4.39,4.47,1.64,1.42,3.33,2.72,5.06,4.03.84.63,1.7,1.24,2.51,1.9.78.63,1.44,1.38,2.2,2.03.64.54,1.41.91,2.08,1.42.3.23.82.75,1.24.58.1-.04.16-.19.15-.29-.06-.49-.6-.99-.9-1.37Z"/>
                <path class="cls-18" d="M76.82,73.03c-.96-1.01-1.95-1.99-2.93-2.99-.95-.96-1.82-1.96-2.73-2.95-1.79-1.96-3.91-3.68-5.28-6-.03-.05-.13.1-.1.15,1.27,2.43,3.32,4.22,5.13,6.22.9,1,1.77,2,2.74,2.93.99.96,1.93,2.03,3.07,2.81.05.04.14-.14.11-.18Z"/>
                <path class="cls-18" d="M72.17,61.93c-.36-.35-.73-.7-1.09-1.05-1.03-1.02-2-2.1-3.03-3.12-1.94-1.93-3.95-3.78-5.9-5.7-2.02-2-4.35-3.61-6.64-5.28-1.19-.87-2.38-1.77-3.48-2.74-.51-.45-1.09-.91-1.49-1.47-.31-.44-.66-.86-1.08-1.22-.03-.03-.1.1-.07.13.47.43.79.95,1.14,1.47.29.43.79.82,1.17,1.17,1.08,1,2.24,1.9,3.41,2.79,2.41,1.82,4.87,3.54,7.03,5.67.82.81,1.58,1.7,2.44,2.45,1.13.99,2.2,1.99,3.26,3.04,1.83,1.81,3.56,3.74,5.46,5.48-.4-.52-.76-1.07-1.14-1.6Z"/>
                <path class="cls-18" d="M48.33,37.67c-3-3.59-5.9-7.3-9.09-10.71-.71-.75-1.29-1.6-1.99-2.35-.77-.84-1.55-1.67-2.31-2.51-.73-.81-1.36-1.68-2.04-2.54-.62-.78-1.1-1.67-1.84-2.34-.04-.03-.12.1-.08.14.71.71,1.19,1.63,1.77,2.44.63.9,1.27,1.78,1.98,2.61.75.86,1.53,1.69,2.3,2.52.69.76,1.28,1.6,1.98,2.36,1.54,1.65,3.02,3.32,4.46,5.05,1.55,1.86,3.08,3.74,4.75,5.49.05.05.14-.11.11-.16Z"/>
                <path class="cls-18" d="M86.46,92.68s-.05-.1-.04-.15c-.78-.8-1.55-1.62-2.27-2.48-1.57-1.87-3.01-3.92-4.37-5.95-.66-.99-1.48-1.87-2.24-2.79-.78-.94-1.52-1.9-2.28-2.84-1.56-1.94-3.09-3.89-4.57-5.89-.03-.04-.09.07-.07.1,1.29,2.05,2.74,3.95,4.24,5.86.76.96,1.5,1.94,2.25,2.9.79,1.01,1.69,1.97,2.4,3.05,1.35,2.05,2.82,4.04,4.38,5.94.68.83,1.45,1.62,2.21,2.39.61.61,1.22,1.25,1.9,1.79-.47-.67-1.04-1.27-1.55-1.92Z"/>
                <path class="cls-18" d="M89.3,92.66c-1.69-1.97-3.51-3.77-5.08-5.85-1.65-2.18-3.63-4.1-5.25-6.3-.03-.04-.1.08-.08.11,1.57,2.26,3.44,4.31,5.1,6.51.84,1.11,1.66,2.21,2.64,3.2.39.39.76.81,1.14,1.23.5.37,1.01.73,1.52,1.1Z"/>
                <path class="cls-18" d="M90.06,89.29c-.2-.23-.42-.45-.64-.64-.85-.73-1.52-1.57-2.29-2.38-1.28-1.34-2.43-2.8-3.74-4.11-.03-.03-.09.07-.07.1,1.28,1.37,2.34,2.91,3.64,4.26,1.26,1.31,2.44,2.71,3.75,3.97-.22-.4-.44-.8-.65-1.2Z"/>
                <path class="cls-18" d="M91.11,92.28c-.29-.39-.57-.8-.89-1.17-.05-.06-.05-.13-.04-.19-.15-.15-.31-.3-.47-.45-.74-.65-1.44-1.35-2.12-2.07-.63-.67-1.25-1.36-1.84-2.07-.48-.58-.93-1.19-1.43-1.75-.05-.05-.14.1-.1.15.49.58.87,1.24,1.38,1.82.62.7,1.18,1.43,1.82,2.12.56.61,1.13,1.21,1.74,1.76.71.66,1.34,1.44,2.08,2.06,0,0,0,0,0,0-.04-.07-.09-.14-.13-.21Z"/>
                <path class="cls-18" d="M94.11,89.99s.03-.08.01-.1c-.23-.36-.55-.6-.89-.87-.56-.45-1.07-.95-1.58-1.45-.77-.76-1.52-1.53-2.31-2.27-1.83-1.7-3.85-3.18-5.68-4.88-.03-.03-.11.09-.07.12,1.8,1.75,3.79,3.29,5.6,5.01,1.46,1.38,2.84,2.81,4.36,4.12.18.11.37.22.56.31Z"/>
                <path class="cls-18" d="M93.55,87.13c-.88-1.12-1.88-2.16-2.8-3.25-1.08-1.27-2.15-2.53-3.25-3.77-.15-.07-.3-.15-.45-.22,1.2,1.39,2.35,2.83,3.53,4.25.7.85,1.42,1.68,2.13,2.53.48.58.96,1.28,1.51,1.78,0,.01.03,0,.04,0-.28-.42-.5-.87-.71-1.33Z"/>
              </g>
              <path class="cls-10" d="M27.66,23.53c-.38-1.44.45-2.11,1.43-3.01,1.28-1.18,2.29-1.75,3.88-.72.88.58,1.75,1.18,2.61,1.8-1.33-1.56-2.65-3.12-3.97-4.69-.27-.32-4.59-5.43-4.52-5.49l-6.54,5.71c.67-.58,5.23,4.66,7.54,7.38-.18-.31-.33-.64-.42-.98Z"/>
              <path class="cls-19" d="M82.92,85.19c-4.13-4.61-8.57-8.93-12.43-13.8-1.95-2.46-4.02-4.83-6.01-7.26-2.06-2.51-3.96-5.12-5.97-7.66-1.29-1.63-2.55-3.32-3.8-5.02-2.74-3.12-5.5-6.23-8.14-9.43-3.57-4.33-6.87-8.99-11.14-12.66,7.66,9.15,15.12,18.47,22.68,27.7,1.04,1.27,1.82,2.48,2.54,3.47.95,1.32,2.09,2.51,3.08,3.79,1.91,2.48,4.01,4.8,5.97,7.24,4.02,4.99,8.65,9.33,12.91,14.08.14.15.43-.32.31-.45Z"/>
            </g>
            <g>
              <g>
                <path class="cls-14" d="M19.05,32.77l-8.54-9.77s-.87,1.66-1.97,1.38l8.91,10.21s.2-1.28,1.6-1.81Z"/>
                <path class="cls-25" d="M17.45,35.11c-.15,0-.3-.06-.4-.18l-8.91-10.2c-.15-.18-.18-.43-.05-.63.12-.2.36-.3.59-.24.54.14,1.16-.71,1.37-1.11.08-.16.24-.26.41-.28.17-.02.35.05.46.18l8.54,9.78c.12.13.16.31.12.48-.04.17-.17.31-.33.37-1.08.41-1.25,1.36-1.26,1.4-.04.2-.19.37-.38.43-.05.01-.1.02-.14.02ZM9.57,24.75l7.71,8.83c.19-.32.48-.68.92-.97l-7.62-8.73c-.24.31-.58.66-1,.87Z"/>
              </g>
              <g>
                <path class="cls-4" d="M17.07,35.06c.69-.8.41-1.04.41-1.04l-3.84-4.39-1.12-1.29-3.84-4.39s-.2-.3-1.08.27c-.89.57-4.6,4.02-4.6,4.02h0c-.49.43,1.22,3.21,3.84,6.2,2.61,2.99,5.13,5.07,5.63,4.64h0s3.92-3.21,4.6-4.01Z"/>
                <path class="cls-25" d="M12.29,39.66c-1.55,0-5.42-4.38-5.85-4.88-1.5-1.71-4.82-5.76-3.85-6.89.02-.02.04-.04.05-.06.38-.36,3.78-3.5,4.68-4.08.45-.29.83-.43,1.15-.43.34,0,.54.16.62.26l8.79,10.07c.07.08.17.22.19.45.03.37-.16.79-.59,1.29-.69.82-4.26,3.75-4.67,4.09-.04.04-.09.06-.14.08-.1.05-.22.09-.38.09ZM3.45,28.54c.07.54,1.18,2.56,3.79,5.54,2.62,3,4.48,4.37,4.99,4.5,1.15-.95,3.92-3.26,4.44-3.87.2-.23.28-.38.31-.46l-8.59-9.84c-.09.03-.24.09-.5.25-.68.43-3.35,2.87-4.44,3.88Z"/>
              </g>
              <g>
                <path class="cls-14" d="M17.07,35.06c.69-.8.41-1.04.41-1.04l-3.84-4.39-1.12-1.29-3.84-4.39s-.2-.3-1.08.27c-.89.57-4.6,4.02-4.6,4.02h0c-.49.43,1.22,3.21,3.84,6.2,2.61,2.99,5.13,5.07,5.63,4.64h0s3.92-3.21,4.6-4.01Z"/>
                <path class="cls-25" d="M12.29,39.66c-1.55,0-5.42-4.38-5.85-4.88-1.5-1.71-4.82-5.76-3.85-6.89.02-.02.04-.04.05-.06.38-.36,3.78-3.5,4.68-4.08.45-.29.83-.43,1.15-.43.34,0,.54.16.62.26l8.79,10.07c.07.08.17.22.19.45.03.37-.16.79-.59,1.29-.69.82-4.26,3.75-4.67,4.09-.04.04-.09.06-.14.08-.1.05-.22.09-.38.09ZM3.45,28.54c.07.54,1.18,2.56,3.79,5.54,2.62,3,4.48,4.37,4.99,4.5,1.15-.95,3.92-3.26,4.44-3.87.2-.23.28-.38.31-.46l-8.59-9.84c-.09.03-.24.09-.5.25-.68.43-3.35,2.87-4.44,3.88Z"/>
              </g>
              <g class="cls-11">
                <path class="cls-8" d="M17.48,34.02l-3.45-3.96c-1.61,1.51-3.6,3.64-5.83,3.61-2.73-.03-3.74-2.36-5.02-4.34.54,1.17,1.9,3.09,3.66,5.11,2.61,2.99,5.13,5.07,5.63,4.64h0s3.92-3.21,4.6-4.01c.69-.8.41-1.04.41-1.04Z"/>
              </g>
              <g>
                <path class="cls-14" d="M41.21,27.29c.13-.26.2-.52.18-.79-1.03-1.49-4.76-6.92-5.86-8.92-1.16-2.11-.26-3.59-.26-3.59,0,0,2.21-3.77,5.62-5.09,3.41-1.33,14.82,3.11,15.25,2.32.42-.78,0-.96,0-.96,0,0-8.24-4.2-13.41-6.42-6.53-2.81-13.56,1.84-13.56,1.84,0,0-17.4,15.25-18.6,16.24-1.18.97.27,2.46.58,2.71.18.15,7.06,8.09,7.06,8.09,1.74,1.29,1.9-.32,1.9-.32,0,0,2.61-4.98,5.15-4.95,2.54.03,7.95,4.98,7.95,4.98,1.2,1.18,1.3.7,1.3.7l6.7-5.84Z"/>
                <path class="cls-25" d="M34.37,33.76h0c-.39,0-.85-.29-1.53-.95-1.45-1.33-5.66-4.82-7.58-4.83-1.8,0-3.91,3.23-4.63,4.58-.1.59-.53,1.18-1.28,1.18-.43,0-.91-.2-1.46-.6-.03-.03-.06-.05-.08-.08-2.69-3.1-6.78-7.8-7.03-8.05h0s-1.2-1-1.21-2.19c0-.51.22-.97.65-1.32,1.18-.97,18.41-16.08,18.58-16.23.02-.01.04-.03.06-.04.18-.12,4.34-2.84,9.33-2.84,1.69,0,3.28.32,4.74.95,5.12,2.21,13.36,6.39,13.44,6.44.04.01.3.14.43.49.12.34.06.74-.19,1.2-.14.25-.4.37-.79.37-.71,0-2.16-.38-4.17-.91-2.95-.78-6.62-1.75-9.04-1.75-.65,0-1.16.07-1.53.21-3.2,1.25-5.33,4.83-5.35,4.87-.03.05-.71,1.28.27,3.07,1.08,1.96,4.73,7.29,5.83,8.88.05.08.09.17.09.27.03.34-.05.68-.23,1.06-.03.07-.07.12-.13.17l-6.62,5.79c-.11.16-.31.29-.57.29ZM18.57,32.32c.45.32.69.36.78.36.19,0,.23-.33.23-.34,0-.06.03-.13.06-.19.28-.54,2.83-5.24,5.61-5.24,2.7.02,7.76,4.6,8.33,5.12.36.35.58.52.71.6l6.49-5.67c.05-.11.07-.21.08-.3-1.21-1.75-4.72-6.88-5.79-8.83-1.29-2.35-.29-4.05-.25-4.13.09-.15,2.34-3.94,5.88-5.32.5-.19,1.12-.29,1.92-.29,2.56,0,6.3.99,9.31,1.79,1.64.43,3.2.85,3.83.88.02-.04.02-.07.03-.1-1.12-.57-8.54-4.32-13.27-6.35-1.32-.57-2.78-.86-4.32-.86-4.45,0-8.35,2.41-8.71,2.64-1.05.92-17.4,15.26-18.58,16.22-.23.19-.26.36-.26.49,0,.54.62,1.21.84,1.39.18.15,3.94,4.48,7.09,8.11Z"/>
              </g>
              <g class="cls-11">
                <path class="cls-8" d="M36.36,31.52c-2.46-3.11-5.81-6.92-9.65-7.76-2.53-.55-4.78,0-6.78,1.67-.9.75-1.77,1.46-2.95,1.67-2.26.41-4.27-2.61-5.06-4.31-.29-.62-.39-1.21-.35-1.77-.53.45-.89.77-1.03.88-1.18.97.27,2.46.58,2.71.18.15,7.06,8.09,7.06,8.09,1.74,1.29,1.9-.32,1.9-.32,0,0,2.61-4.98,5.15-4.95,2.54.03,7.95,4.98,7.95,4.98,1.2,1.18,1.3.7,1.3.7l1.84-1.61Z"/>
                <path class="cls-8" d="M56.29,10.46s-.1,0-.16,0c-4.34-1.06-8.29-3.31-12.8-3.88-4.17-.54-7.52.85-10.36,3.93-1.56,1.7-3.28,4.07-2.23,6.47.72,1.64,6.86,9.3,9.03,11.56l1.44-1.25c.13-.26.2-.52.18-.79-1.03-1.49-4.76-6.92-5.86-8.92-1.16-2.11-.26-3.59-.26-3.59,0,0,2.21-3.77,5.62-5.09,3.41-1.33,14.82,3.11,15.25,2.32.2-.37.21-.61.16-.75Z"/>
              </g>
              <path class="cls-12" d="M29.43,5.74c1.19-.51,2.47-1.03,3.74-1.27,2.62-.49,5.39-.36,7.95.41,2.84.85,5.53,2.09,8.24,3.25,2.28.98,4.63,1.77,6.94,2.67.1-.43-.17-.55-.17-.55,0,0-8.24-4.2-13.41-6.42-6.53-2.81-13.56,1.84-13.56,1.84,0,0-.22.19-.6.53.29-.17.58-.33.88-.46Z"/>
              <path class="cls-21" d="M6.35,32.47c.45.34.92.66,1.4.96-1.34-1.49-2.73-3.25-2.45-3.82.52-1.06,2.78-3.02,2.78-3.02,0,0-.47-.75-2.55,1.06,0,0-1.74.84-.9,2.32.35.61.97,1.55,1.72,2.51Z"/>
              <path class="cls-21" d="M16.04,24.68s-3.09-2.59-2.07-3.44c1.02-.85,15.05-12.78,15.05-12.78,0,0,3.14-1.93,5.16-1.07,0,0-2.48-.12-4.97,1.98-2.49,2.11-13.81,12.6-13.81,12.6,0,0-1,.59.64,2.7Z"/>
              <path class="cls-20" d="M37.34,9.93s2.94-2.76,6.58-2.16c3.64.61,11.45,3.22,11.45,3.22,0,0-10.86-5.02-14.32-4.38-3.46.63-6.28,4.93-3.7,3.32Z"/>
            </g>
          </g>
        </g>
      </g>
    </g>
  </g>
</svg>