<?xml version="1.0" encoding="UTF-8"?>
<svg xmlns="http://www.w3.org/2000/svg" width="166.91" height="100" viewBox="0 0 166.91 100">
  <defs>
    <style>
      .cls-1 {
        fill: #8b8b8b;
      }

      .cls-2 {
        fill: #9a9a9a;
      }

      .cls-3 {
        fill: #7d7d7d;
      }

      .cls-4, .cls-5 {
        mix-blend-mode: screen;
      }

      .cls-4, .cls-6, .cls-7, .cls-8 {
        fill: #c68342;
      }

      .cls-9 {
        fill: #fff;
      }

      .cls-5, .cls-10, .cls-11 {
        fill: #f1cd45;
      }

      .cls-12 {
        fill: #6e6e6e;
      }

      .cls-13 {
        fill: #606060;
      }

      .cls-6, .cls-10, .cls-14, .cls-8 {
        mix-blend-mode: multiply;
      }

      .cls-15 {
        fill: #e2e2e2;
      }

      .cls-16 {
        isolation: isolate;
      }

      .cls-17 {
        fill: #f1f1f1;
      }

      .cls-18 {
        fill: #56271e;
      }

      .cls-19 {
        fill: #c5c5c5;
      }

      .cls-20 {
        fill: #a8a8a8;
      }

      .cls-8 {
        opacity: .6;
      }

      .cls-21 {
        fill: #d4d4d4;
      }

      .cls-22 {
        fill: #b7b7b7;
      }
    </style>
  </defs>
  <g class="cls-16">
    <g id="Layer_2" data-name="Layer 2">
      <g id="Layer_1-2" data-name="Layer 1">
        <g>
          <g class="cls-14">
            <path class="cls-9" d="M151.34,48.51c-4.35-2.95-9.37-5.1-14.15-7.05-3.23-1.32-6.61-2.32-10.79-3.18-.13-.6-.26-1.2-.39-1.79-1.53-6.98-4.4-13.93-8.1-19.57-5.85-8.93-16.05-14.05-27.99-14.05-3.07,0-6.16.35-9.19,1.03-12.31,2.77-23.42,10.73-30.47,21.82-2.8,4.41-4.89,9.47-6.24,15.07-12.95.93-24.01,4.66-32.06,10.85-5.83,4.48-9.17,10.2-9.4,16.1-.23,5.77,3.1,11.22,9.9,16.22,5.26,3.86,11.7,6.69,20.28,8.92,8.1,2.1,16.92,3.87,26.22,5.25,8.38,1.25,17.42,1.88,26.87,1.88h0c8.58,0,17.79-.52,27.37-1.55,13.05-1.41,23.51-3.72,32.91-7.3,10.91-4.14,17.92-10.17,20.29-17.42,1.31-4.03-.01-9.05-3.95-14.92-3.05-4.55-7.82-8.06-11.14-10.3Z"/>
            <path class="cls-17" d="M151.1,48.25c-4.35-2.95-9.37-5.1-14.15-7.05-3.23-1.32-6.61-2.32-10.79-3.18-.13-.6-.26-1.2-.39-1.79-1.53-6.98-4.4-13.93-8.1-19.57-5.85-8.93-16.05-14.05-27.99-14.05-3.07,0-6.16.35-9.19,1.03-12.31,2.77-23.42,10.72-30.47,21.82-2.8,4.41-4.89,9.47-6.24,15.07-12.95.93-24,4.66-32.06,10.85-5.83,4.48-9.17,10.2-9.4,16.1-.23,5.77,3.1,11.22,9.9,16.22,5.26,3.85,11.7,6.69,20.28,8.92,8.1,2.1,16.92,3.87,26.22,5.25,8.38,1.25,17.42,1.88,26.87,1.88h0c8.58,0,17.79-.52,27.37-1.55,13.05-1.41,23.51-3.72,32.91-7.3,10.91-4.14,17.92-10.17,20.29-17.42,1.31-4.03-.01-9.05-3.95-14.92-3.05-4.55-7.82-8.06-11.14-10.3Z"/>
            <path class="cls-15" d="M150.87,47.99c-4.35-2.95-9.37-5.1-14.15-7.05-3.23-1.32-6.61-2.32-10.79-3.18-.13-.6-.26-1.2-.39-1.79-1.53-6.98-4.4-13.93-8.1-19.57-5.85-8.93-16.05-14.05-27.99-14.05-3.07,0-6.16.35-9.18,1.03-12.32,2.77-23.42,10.73-30.47,21.82-2.8,4.41-4.89,9.47-6.24,15.07-12.95.93-24.01,4.66-32.06,10.85-5.83,4.48-9.17,10.2-9.4,16.1-.23,5.77,3.1,11.22,9.9,16.22,5.26,3.86,11.7,6.69,20.28,8.92,8.1,2.1,16.92,3.87,26.22,5.25,8.38,1.25,17.42,1.88,26.87,1.88h0c8.58,0,17.79-.52,27.37-1.55,13.05-1.4,23.51-3.72,32.91-7.3,10.91-4.14,17.92-10.17,20.29-17.42,1.31-4.03-.01-9.05-3.95-14.92-3.05-4.55-7.82-8.06-11.14-10.3Z"/>
            <path class="cls-21" d="M150.64,47.73c-4.35-2.95-9.37-5.1-14.15-7.05-3.23-1.32-6.61-2.32-10.79-3.18-.13-.6-.26-1.2-.39-1.79-1.53-6.98-4.4-13.93-8.1-19.57-5.85-8.93-16.05-14.05-27.99-14.05-3.07,0-6.16.35-9.19,1.03-12.31,2.77-23.42,10.72-30.47,21.82-2.8,4.41-4.89,9.47-6.24,15.07-12.95.93-24.01,4.66-32.06,10.85-5.83,4.48-9.17,10.2-9.4,16.1-.23,5.77,3.1,11.22,9.9,16.21,5.26,3.86,11.7,6.69,20.28,8.92,8.1,2.1,16.92,3.87,26.22,5.25,8.38,1.25,17.42,1.88,26.87,1.88h0c8.58,0,17.79-.52,27.37-1.55,13.05-1.41,23.51-3.72,32.91-7.3,10.91-4.14,17.92-10.17,20.29-17.42,1.31-4.03-.01-9.05-3.95-14.92-3.05-4.55-7.82-8.06-11.14-10.3Z"/>
            <path class="cls-19" d="M150.4,47.47c-4.35-2.95-9.37-5.1-14.15-7.05-3.23-1.32-6.62-2.32-10.79-3.18-.13-.6-.26-1.2-.39-1.79-1.53-6.98-4.4-13.93-8.1-19.57-5.85-8.93-16.05-14.05-27.99-14.05-3.07,0-6.16.35-9.19,1.03-12.31,2.77-23.42,10.72-30.47,21.82-2.8,4.41-4.89,9.47-6.24,15.07-12.95.93-24.01,4.66-32.06,10.85-5.83,4.48-9.17,10.2-9.4,16.1-.23,5.77,3.1,11.22,9.9,16.21,5.26,3.86,11.7,6.69,20.28,8.92,8.1,2.1,16.92,3.87,26.22,5.25,8.38,1.25,17.42,1.88,26.87,1.88h0c8.58,0,17.79-.52,27.37-1.55,13.05-1.41,23.51-3.72,32.91-7.3,10.91-4.14,17.92-10.17,20.29-17.42,1.32-4.03-.01-9.05-3.95-14.92-3.05-4.55-7.82-8.06-11.14-10.3Z"/>
            <path class="cls-22" d="M150.17,47.21c-4.35-2.95-9.37-5.1-14.15-7.05-3.23-1.32-6.62-2.32-10.79-3.18-.13-.6-.26-1.2-.39-1.79-1.53-6.98-4.4-13.93-8.1-19.57-5.85-8.93-16.05-14.05-27.99-14.05-3.07,0-6.16.35-9.19,1.03-12.31,2.77-23.42,10.72-30.47,21.82-2.8,4.41-4.89,9.47-6.24,15.07-12.95.93-24.01,4.66-32.06,10.85-5.83,4.48-9.17,10.2-9.4,16.1-.23,5.77,3.1,11.22,9.9,16.22,5.26,3.85,11.7,6.69,20.28,8.92,8.1,2.1,16.92,3.87,26.22,5.25,8.38,1.25,17.42,1.88,26.87,1.88h0c8.58,0,17.79-.52,27.37-1.55,13.05-1.41,23.51-3.72,32.91-7.3,10.91-4.14,17.92-10.17,20.29-17.42,1.31-4.03-.01-9.05-3.95-14.92-3.05-4.55-7.82-8.06-11.14-10.3Z"/>
            <path class="cls-20" d="M149.94,46.95c-4.35-2.95-9.38-5.1-14.15-7.05-3.23-1.32-6.61-2.32-10.79-3.18-.13-.6-.26-1.2-.39-1.79-1.53-6.98-4.4-13.93-8.1-19.57-5.85-8.93-16.05-14.05-27.99-14.05-3.07,0-6.16.35-9.19,1.03-12.31,2.77-23.42,10.72-30.47,21.82-2.8,4.41-4.89,9.47-6.24,15.07-12.95.93-24.01,4.66-32.06,10.85-5.83,4.48-9.17,10.2-9.4,16.1-.23,5.77,3.1,11.22,9.9,16.21,5.25,3.85,11.7,6.69,20.28,8.92,8.1,2.1,16.92,3.87,26.22,5.25,8.38,1.25,17.42,1.88,26.87,1.88h0c8.58,0,17.79-.52,27.37-1.55,13.05-1.41,23.51-3.72,32.91-7.3,10.91-4.14,17.92-10.17,20.29-17.42,1.32-4.03-.01-9.05-3.95-14.92-3.05-4.55-7.82-8.06-11.14-10.3Z"/>
            <path class="cls-2" d="M149.7,46.68c-4.35-2.95-9.37-5.1-14.15-7.05-3.23-1.32-6.61-2.32-10.79-3.18-.13-.6-.26-1.2-.39-1.79-1.53-6.98-4.4-13.93-8.1-19.57-5.85-8.93-16.05-14.05-27.99-14.05-3.07,0-6.16.34-9.19,1.03-12.31,2.77-23.42,10.72-30.47,21.82-2.8,4.41-4.89,9.47-6.24,15.07-12.95.93-24.01,4.66-32.06,10.85-5.83,4.48-9.17,10.2-9.4,16.1-.23,5.77,3.1,11.22,9.9,16.21,5.26,3.85,11.7,6.69,20.28,8.92,8.1,2.1,16.92,3.87,26.22,5.25,8.38,1.25,17.42,1.88,26.87,1.88h0c8.58,0,17.79-.52,27.37-1.55,13.05-1.4,23.51-3.72,32.91-7.3,10.91-4.14,17.92-10.17,20.29-17.42,1.31-4.03-.01-9.05-3.95-14.92-3.05-4.55-7.82-8.06-11.14-10.3Z"/>
            <path class="cls-1" d="M149.47,46.42c-4.35-2.95-9.38-5.1-14.15-7.05-3.23-1.32-6.62-2.32-10.79-3.18-.13-.6-.26-1.2-.39-1.79-1.53-6.98-4.4-13.93-8.1-19.57C110.2,5.9,100,.78,88.06.78c-3.07,0-6.16.35-9.19,1.03-12.31,2.77-23.42,10.72-30.47,21.82-2.8,4.41-4.89,9.47-6.24,15.07-12.95.93-24.01,4.66-32.06,10.85C4.29,54.02.95,59.74.71,65.65c-.23,5.77,3.1,11.22,9.9,16.21,5.25,3.86,11.7,6.69,20.28,8.92,8.1,2.1,16.92,3.87,26.22,5.25,8.38,1.25,17.42,1.88,26.87,1.88h0c8.58,0,17.79-.52,27.37-1.55,13.05-1.41,23.51-3.73,32.91-7.3,10.91-4.14,17.92-10.17,20.29-17.42,1.32-4.03-.01-9.05-3.95-14.92-3.05-4.55-7.82-8.06-11.14-10.3Z"/>
            <path class="cls-3" d="M149.24,46.16c-4.35-2.95-9.37-5.1-14.15-7.05-3.23-1.32-6.62-2.32-10.79-3.18-.13-.6-.26-1.2-.39-1.79-1.53-6.98-4.4-13.93-8.1-19.57C109.97,5.64,99.77.52,87.83.52c-3.07,0-6.16.34-9.19,1.03-12.31,2.77-23.42,10.72-30.47,21.82-2.8,4.41-4.89,9.47-6.24,15.07-12.95.93-24,4.66-32.06,10.85C4.05,53.76.71,59.48.48,65.38c-.23,5.77,3.1,11.22,9.9,16.22,5.26,3.85,11.7,6.69,20.28,8.92,8.1,2.1,16.92,3.87,26.22,5.25,8.38,1.25,17.42,1.88,26.87,1.88h0c8.58,0,17.79-.52,27.37-1.55,13.05-1.41,23.51-3.73,32.91-7.3,10.91-4.14,17.92-10.17,20.29-17.42,1.31-4.04-.01-9.06-3.95-14.92-3.05-4.55-7.82-8.06-11.14-10.3Z"/>
            <path class="cls-12" d="M149,45.9c-4.35-2.95-9.38-5.1-14.15-7.05-3.23-1.32-6.62-2.32-10.79-3.18-.13-.6-.26-1.2-.39-1.79-1.53-6.98-4.4-13.93-8.1-19.57C109.74,5.38,99.54.26,87.6.26c-3.07,0-6.16.34-9.19,1.03-12.31,2.77-23.42,10.72-30.47,21.82-2.8,4.41-4.89,9.47-6.24,15.07-12.95.93-24.01,4.66-32.06,10.85C3.82,53.5.48,59.22.24,65.12c-.23,5.77,3.1,11.22,9.9,16.22,5.25,3.85,11.7,6.69,20.28,8.92,8.1,2.1,16.92,3.87,26.22,5.25,8.38,1.25,17.42,1.88,26.87,1.88h0c8.58,0,17.79-.52,27.37-1.55,13.05-1.41,23.51-3.73,32.91-7.3,10.91-4.15,17.92-10.17,20.29-17.42,1.32-4.03-.01-9.05-3.95-14.92-3.05-4.55-7.82-8.06-11.14-10.3Z"/>
            <path class="cls-13" d="M148.77,45.64c-4.35-2.95-9.37-5.1-14.15-7.05-3.23-1.32-6.62-2.32-10.79-3.18-.13-.6-.26-1.2-.39-1.79-1.53-6.98-4.4-13.93-8.1-19.57C109.5,5.12,99.3,0,87.36,0c-3.07,0-6.16.34-9.19,1.03-12.31,2.77-23.42,10.72-30.47,21.82-2.8,4.41-4.89,9.47-6.24,15.07-12.95.93-24.01,4.66-32.06,10.85C3.59,53.24.25,58.96.01,64.86c-.23,5.77,3.1,11.22,9.9,16.21,5.26,3.85,11.7,6.69,20.28,8.92,8.1,2.1,16.92,3.87,26.22,5.25,8.38,1.25,17.42,1.88,26.87,1.88h0c8.58,0,17.79-.52,27.37-1.55,13.05-1.41,23.51-3.73,32.91-7.3,10.91-4.14,17.92-10.17,20.29-17.42,1.32-4.04-.01-9.05-3.95-14.92-3.05-4.55-7.82-8.06-11.14-10.3Z"/>
          </g>
          <path class="cls-9" d="M148.77,45.64c-4.35-2.95-9.37-5.1-14.15-7.05-3.23-1.32-6.62-2.32-10.79-3.18-.13-.6-.26-1.2-.39-1.79-1.53-6.98-4.4-13.93-8.1-19.57C109.5,5.12,99.3,0,87.36,0c-3.07,0-6.16.34-9.19,1.03-12.31,2.77-23.42,10.72-30.47,21.82-2.8,4.41-4.89,9.47-6.24,15.07-12.95.93-24.01,4.66-32.06,10.85C3.59,53.24.25,58.96.01,64.86c-.23,5.77,3.1,11.22,9.9,16.21,5.26,3.85,11.7,6.69,20.28,8.92,8.1,2.1,16.92,3.87,26.22,5.25,8.38,1.25,17.42,1.88,26.87,1.88h0c8.58,0,17.79-.52,27.37-1.55,13.05-1.41,23.51-3.73,32.91-7.3,10.91-4.14,17.92-10.17,20.29-17.42,1.32-4.04-.01-9.05-3.95-14.92-3.05-4.55-7.82-8.06-11.14-10.3Z"/>
          <g>
            <g>
              <path class="cls-18" d="M157.64,57.46c-2.59-3.86-6.6-6.99-10.41-9.57-4.16-2.82-9.01-4.89-13.65-6.78-3.98-1.62-7.96-2.61-12.06-3.38-.24-1.19-.49-2.37-.75-3.54-1.4-6.43-4.11-13.15-7.71-18.66-7.44-11.36-21.65-14.7-34.29-11.86-11.96,2.69-22.24,10.35-28.77,20.62-3.05,4.81-5.14,10.4-6.32,16.21-11.68.56-23.6,3.49-32.62,10.41-4.45,3.42-8.11,8.28-8.34,14.05-.24,5.93,4.38,10.67,8.79,13.91,5.75,4.22,12.51,6.7,19.36,8.48,8.49,2.2,17.26,3.91,25.94,5.2,17.59,2.62,35.9,2.21,53.54.31,10.97-1.18,21.89-3.2,32.23-7.13,7.43-2.82,16.05-7.7,18.66-15.71,1.35-4.15-1.39-9.23-3.62-12.55Z"/>
              <path class="cls-7" d="M44.45,43.95c.04-1.2.3-2.36.68-3.49h0c1.21-5.67,3.21-11.13,6.16-15.97,6.49-10.64,18.24-17.89,30.56-19.41,12.48-1.54,24.62,3.14,31.4,14.02,2.88,4.62,4.74,9.48,6.04,14.5h0c.02.08.03.15.05.21.31,1.22.59,2.44.84,3.68,0,0-.02,0-.03,0,.06.35.12.7.18,1.04.02,0,.04,0,.06.01.58,3.01,1.01,6.07,1.39,9.15-2.14,1.46-4.62,2.61-6.84,3.58-3.68,1.61-7.76,2.33-11.69,3-7.21,1.24-14.31,1.19-21.58,1.6-3.06.17-6.4-.37-9.45-.69-3.82-.41-7.66-.94-11.43-1.73-5.95-1.25-12.24-3.62-16.53-8.05.06-.44.13-.88.2-1.32-.02-.04-.03-.08-.02-.12Z"/>
              <path class="cls-11" d="M44.14,46.46c3.71,3.98,8.76,6.11,14.11,7.67,3.94,1.15,8.12,1.62,12.19,2.11,3.74.46,7.74.97,11.51.76,7.74-.44,15.16-.55,22.83-1.96,3.7-.67,7.35-1.64,10.81-3.13,2-.87,4.31-2.01,6.31-3.38.25,2.08.48,4.17.71,6.28-.02.47-.07.99,0,1.47-2.05,1.54-4.15,2.94-6.6,3.99-3.75,1.62-7.68,2.71-11.66,3.57-8.12,1.75-16.31,2.56-24.62,2.26-7.47-.27-14.87-1.51-22.11-3.35-5.2-1.32-10.18-3.25-13.96-6.69-.04-3.18.12-6.39.5-9.6Z"/>
              <path class="cls-7" d="M160.42,69.68c-.39,2.64-2.16,4.91-3.96,6.77-3.21,3.3-7.64,5.58-11.8,7.42-8.2,3.62-17.38,5.52-26.2,6.82-18.29,2.7-37.14,3.22-55.54,1.38-8.92-.89-17.66-2.89-26.42-4.7-7.83-1.62-15.43-3.98-22.25-8.24-4.34-2.71-8.43-6.35-10.08-11.34-2.45-7.42,3.6-13.92,9.22-17.77,6.11-4.17,13.96-6.37,21.17-7.59,2.97-.5,5.96-.86,8.96-1.08-.11.56-.2,1.12-.29,1.69-.07.77-.19,1.53-.32,2.3-.22,1.95-.34,3.9-.37,5.85.18,2.06.37,4.11.67,6.15.15.18.31.36.47.54,0-.03,0-.07,0-.1,3.06,2.74,6.95,4.48,11.29,5.83,8.04,2.51,16.54,3.66,24.92,3.95,8.4.3,16.67-.79,24.87-2.58,6.94-1.51,13.32-4.06,18.82-8.4-.05-1.25-.12-2.5-.2-3.74,0-.01,0-.02,0-.04v-.05c-.17-2.48-.38-4.95-.54-7.43-.29-2.18-.66-4.35-1.09-6.5,2.13.46,4.25.97,6.33,1.64,4.46,1.43,8.83,3.58,13,5.68,7.21,3.63,14.44,8.95,17.81,16.51.95,2.12,1.86,4.67,1.51,7.02Z"/>
              <path class="cls-4" d="M5.32,64.68c.89-5.79,5.08-10.56,9.57-14.05,4.52-3.51,9.83-5.88,15.41-7.38-5.94,1.32-11.98,3.4-16.91,6.76-5.62,3.84-11.67,10.35-9.22,17.77.38,1.14.89,2.21,1.49,3.22-.54-2.05-.66-4.28-.35-6.32Z"/>
              <path class="cls-8" d="M158.91,62.66c-3.38-7.56-10.6-12.88-17.81-16.51-4.17-2.1-8.55-4.25-13-5.68-2.09-.67-4.2-1.18-6.33-1.64.43,2.15.8,4.32,1.09,6.5.16,2.48.37,4.95.54,7.43v.05s0,.02,0,.04c.08,1.25.15,2.49.2,3.74-5.5,4.34-11.87,6.89-18.82,8.4-8.2,1.79-16.47,2.88-24.87,2.58-8.39-.3-16.89-1.45-24.92-3.95-4.34-1.35-8.22-3.09-11.29-5.83,0,.03,0,.07,0,.1-.16-.17-.31-.35-.47-.54-.3-2.04-.49-4.1-.67-6.15.03-1.94.15-3.9.37-5.85.13-.77.25-1.53.32-2.3.05-.29.1-.58.15-.87-.95,1.08-1.86,2.2-2.68,3.38-2.17,3.08-4.35,6.88-4.56,10.74-.18,3.16,1.26,5.86,3.69,7.83,5.04,4.07,12.27,5.84,18.48,7.13,17.44,3.6,36,1.98,52.91-3.38.24-.08.51.23.34.45-14.22,19.03-41.99,21.18-63.73,18.69-6.26-.72-12.53-1.8-18.56-3.6-6.34-1.88-12.75-4.55-17.71-9.04-3.87-3.5-6.96-8.13-7.43-13.31-.65,2.12-.73,4.38.05,6.73,1.64,4.98,5.73,8.63,10.08,11.34,6.82,4.26,14.42,6.62,22.25,8.24,8.76,1.81,17.5,3.82,26.42,4.7,18.4,1.84,37.25,1.32,55.54-1.38,8.82-1.31,18-3.2,26.2-6.82,4.16-1.84,8.59-4.11,11.8-7.42,1.8-1.86,3.57-4.13,3.96-6.77.35-2.35-.56-4.9-1.51-7.02Z"/>
            </g>
            <path class="cls-4" d="M47.32,47.98c.29-2.88.77-5.73,1.48-8.53,1.84-7.18,5.32-14.03,9.95-19.83,4.09-5.13,9.17-9.34,14.83-12.63-9.12,3.09-17.28,9.29-22.29,17.5-2.95,4.84-4.95,10.3-6.16,15.97h0c-.38,1.13-.65,2.29-.68,3.49,0,.05,0,.09.02.12-.07.44-.14.88-.2,1.32.93.96,1.95,1.82,3.04,2.59Z"/>
            <path class="cls-6" d="M120.4,38.54s-.04,0-.06-.01c-.06-.35-.12-.7-.18-1.04,0,0,.02,0,.02,0-.24-1.23-.52-2.46-.83-3.68-.02-.07-.03-.13-.05-.2h0c-1.3-5.03-3.16-9.89-6.04-14.51-6.36-10.21-17.45-14.97-29.12-14.23.32.2.62.41.9.61,4.85,3.51,7.89,9.16,9.64,14.77,3.48,11.12,3.87,22.96,3.82,34.66,1.58-.16,3.17-.37,4.76-.64,3.93-.67,8.01-1.4,11.69-3,2.21-.96,4.7-2.12,6.84-3.58-.38-3.08-.81-6.13-1.39-9.15Z"/>
            <path class="cls-5" d="M47.21,49.16c-1.1-.79-2.13-1.69-3.07-2.7-.38,3.21-.54,6.42-.5,9.6,1.02.92,2.12,1.74,3.29,2.46-.05-3.12.01-6.25.28-9.36Z"/>
            <path class="cls-10" d="M122.61,54.81c-.24-2.1-.46-4.19-.71-6.28-2,1.38-4.31,2.51-6.31,3.38-3.46,1.5-7.11,2.46-10.81,3.13-2.11.39-4.2.67-6.28.89-.02,3.01-.06,6.02-.08,9,1.98-.31,3.95-.67,5.92-1.1,3.98-.86,7.91-1.95,11.66-3.57,2.45-1.05,4.55-2.45,6.6-3.99-.07-.48-.01-1,0-1.47Z"/>
          </g>
        </g>
      </g>
    </g>
  </g>
</svg>