<?xml version="1.0" encoding="UTF-8"?>
<svg xmlns="http://www.w3.org/2000/svg" width="93.6" height="100" viewBox="0 0 93.6 100">
  <defs>
    <style>
      .cls-1 {
        fill: #5e2c00;
      }

      .cls-2 {
        fill: #8b8b8b;
      }

      .cls-3 {
        fill: #f2324a;
      }

      .cls-4 {
        fill: #ffffe0;
      }

      .cls-5 {
        fill: #9a9a9a;
      }

      .cls-6 {
        fill: #7d7d7d;
      }

      .cls-7 {
        fill: #fff;
      }

      .cls-8 {
        fill: #6e6e6e;
      }

      .cls-9 {
        fill: #606060;
      }

      .cls-10 {
        fill: #e2e2e2;
      }

      .cls-11 {
        isolation: isolate;
      }

      .cls-12 {
        fill: #f1f1f1;
      }

      .cls-13 {
        fill: #f6d9a8;
      }

      .cls-13, .cls-14 {
        mix-blend-mode: multiply;
      }

      .cls-15 {
        fill: #928771;
      }

      .cls-16 {
        fill: #c5c5c5;
      }

      .cls-17 {
        fill: #a8a8a8;
      }

      .cls-18 {
        fill: #831b29;
      }

      .cls-19 {
        fill: #c1e6fb;
      }

      .cls-20 {
        fill: #d4d4d4;
      }

      .cls-21 {
        fill: #b7b7b7;
      }

      .cls-22 {
        fill: #a89b81;
      }

      .cls-23 {
        fill: #a87846;
      }
    </style>
  </defs>
  <g class="cls-11">
    <g id="Layer_2" data-name="Layer 2">
      <g id="Layer_1-2" data-name="Layer 1">
        <g>
          <g class="cls-14">
            <path class="cls-7" d="M92.77,47.08L49.57,3.15c-.43-.43-1.02-.68-1.64-.68s-1.21.25-1.63.68L2.95,47.22c-.65.66-.85,1.63-.49,2.51.36.85,1.19,1.4,2.11,1.4h4.75v46.57c0,1.26,1.03,2.29,2.29,2.29h72.63c1.27,0,2.29-1.03,2.29-2.29v-46.57h4.76c1.26,0,2.29-1.03,2.29-2.29,0-.68-.31-1.33-.83-1.76Z"/>
            <path class="cls-12" d="M92.57,46.86L49.36,2.93c-.42-.43-1.02-.68-1.64-.68s-1.21.25-1.63.68L2.74,47c-.65.66-.85,1.64-.49,2.51.36.85,1.19,1.4,2.11,1.4h4.75v46.57c0,1.26,1.03,2.29,2.29,2.29h72.63c1.27,0,2.29-1.03,2.29-2.29v-46.57h4.77c1.26,0,2.29-1.03,2.29-2.29,0-.68-.31-1.33-.82-1.76Z"/>
            <path class="cls-10" d="M92.36,46.63L49.15,2.71c-.43-.43-1.02-.68-1.64-.68s-1.21.25-1.63.68L2.53,46.78c-.66.65-.85,1.63-.49,2.51.36.85,1.19,1.4,2.11,1.4h4.75v46.57c0,1.26,1.03,2.29,2.29,2.29h72.63c1.26,0,2.3-1.03,2.3-2.29v-46.57h4.76c1.26,0,2.29-1.03,2.29-2.29,0-.68-.31-1.33-.83-1.76Z"/>
            <path class="cls-20" d="M92.15,46.41L48.94,2.48c-.43-.43-1.02-.68-1.64-.68s-1.21.25-1.63.68L2.32,46.55c-.65.66-.85,1.64-.49,2.51.36.85,1.19,1.4,2.11,1.4h4.75v46.57c0,1.27,1.03,2.29,2.29,2.29h72.63c1.26,0,2.29-1.03,2.29-2.29v-46.57h4.76c1.26,0,2.29-1.03,2.29-2.29,0-.68-.31-1.33-.83-1.76Z"/>
            <path class="cls-16" d="M91.94,46.18L48.74,2.26c-.43-.43-1.02-.68-1.64-.68s-1.21.25-1.63.68L2.12,46.33c-.65.66-.85,1.63-.49,2.51.36.85,1.19,1.4,2.11,1.4h4.75v46.57c0,1.27,1.03,2.29,2.29,2.29h72.63c1.26,0,2.29-1.03,2.29-2.29v-46.57h4.76c1.26,0,2.29-1.03,2.29-2.29,0-.68-.31-1.33-.83-1.76Z"/>
            <path class="cls-21" d="M91.74,45.96L48.53,2.03c-.43-.43-1.02-.68-1.64-.68s-1.21.25-1.63.68L1.91,46.1c-.65.66-.85,1.63-.49,2.51.36.85,1.19,1.4,2.11,1.4h4.75v46.57c0,1.26,1.03,2.29,2.29,2.29h72.63c1.27,0,2.3-1.03,2.3-2.29v-46.57h4.76c1.26,0,2.29-1.03,2.29-2.29,0-.68-.31-1.33-.83-1.76Z"/>
            <path class="cls-17" d="M91.53,45.73L48.32,1.81c-.42-.43-1.02-.68-1.64-.68s-1.21.25-1.63.68L1.7,45.88c-.65.66-.85,1.63-.49,2.51.36.85,1.19,1.4,2.11,1.4h4.75v46.58c0,1.26,1.03,2.29,2.29,2.29h72.63c1.26,0,2.29-1.03,2.29-2.29v-46.58h4.77c1.26,0,2.29-1.03,2.29-2.29,0-.68-.31-1.33-.83-1.76Z"/>
            <path class="cls-5" d="M91.32,45.51L48.12,1.58c-.43-.43-1.02-.68-1.64-.68s-1.21.25-1.63.68L1.49,45.65c-.65.66-.85,1.63-.49,2.51.36.85,1.19,1.4,2.11,1.4h4.75v46.57c0,1.26,1.03,2.29,2.29,2.29h72.63c1.27,0,2.29-1.03,2.29-2.29v-46.57h4.76c1.26,0,2.29-1.03,2.29-2.29,0-.68-.31-1.33-.83-1.76Z"/>
            <path class="cls-2" d="M91.12,45.28L47.91,1.36c-.43-.43-1.02-.68-1.64-.68s-1.21.25-1.63.68L1.29,45.43c-.65.66-.85,1.63-.49,2.51.36.85,1.19,1.4,2.11,1.4h4.75v46.57c0,1.26,1.03,2.29,2.29,2.29h72.63c1.27,0,2.29-1.03,2.29-2.29v-46.57h4.76c1.26,0,2.29-1.03,2.29-2.29,0-.68-.31-1.33-.83-1.76Z"/>
            <path class="cls-6" d="M90.91,45.06L47.7,1.13c-.43-.43-1.02-.68-1.64-.68s-1.21.25-1.63.68L1.08,45.2c-.65.66-.85,1.63-.49,2.51.36.85,1.19,1.4,2.11,1.4h4.75v46.57c0,1.27,1.03,2.3,2.29,2.3h72.64c1.26,0,2.3-1.03,2.3-2.3v-46.57h4.76c1.26,0,2.29-1.03,2.29-2.29,0-.68-.31-1.33-.83-1.76Z"/>
            <path class="cls-8" d="M90.7,44.83L47.49.91c-.42-.43-1.02-.68-1.64-.68s-1.21.25-1.63.68L.87,44.98c-.65.66-.85,1.64-.49,2.51.36.85,1.19,1.39,2.11,1.39h4.75v46.58c0,1.26,1.03,2.29,2.29,2.29h72.64c1.26,0,2.29-1.03,2.29-2.29v-46.58h4.76c1.26,0,2.29-1.03,2.29-2.29,0-.68-.31-1.33-.83-1.76Z"/>
            <path class="cls-9" d="M90.49,44.61L47.29.68c-.43-.43-1.02-.68-1.64-.68s-1.21.25-1.63.68L.67,44.75c-.65.66-.85,1.63-.49,2.51.36.85,1.19,1.4,2.11,1.4h4.75v46.57c0,1.26,1.03,2.29,2.29,2.29h72.64c1.26,0,2.29-1.03,2.29-2.29v-46.57h4.76c1.26,0,2.29-1.03,2.29-2.29,0-.68-.31-1.33-.83-1.76Z"/>
          </g>
          <path class="cls-7" d="M90.49,44.61L47.29.68c-.43-.43-1.02-.68-1.64-.68s-1.21.25-1.63.68L.67,44.75c-.65.66-.85,1.63-.49,2.51.36.85,1.19,1.4,2.11,1.4h4.75v46.57c0,1.26,1.03,2.29,2.29,2.29h72.64c1.26,0,2.29-1.03,2.29-2.29v-46.57h4.76c1.26,0,2.29-1.03,2.29-2.29,0-.68-.31-1.33-.83-1.76Z"/>
          <g>
            <g>
              <rect class="cls-4" x="9.33" y="43.8" width="72.64" height="51.44"/>
              <path class="cls-1" d="M81.97,95.56H9.33c-.18,0-.32-.14-.32-.32v-51.44c0-.18.14-.32.32-.32h72.64c.18,0,.32.14.32.32v51.44c0,.18-.15.32-.32.32ZM9.66,94.91h71.99v-50.79H9.66v50.79Z"/>
            </g>
            <rect class="cls-13" x="9.33" y="43.8" width="72.64" height="6.53"/>
            <g>
              <rect class="cls-15" x="17.91" y="59.04" width="23.38" height="36.2"/>
              <path class="cls-1" d="M41.29,95.56h-23.38c-.18,0-.32-.14-.32-.32v-36.2c0-.18.15-.32.32-.32h23.38c.18,0,.33.14.33.32v36.2c0,.18-.15.32-.33.32ZM18.23,94.91h22.74v-35.55h-22.74v35.55Z"/>
            </g>
            <g>
              <rect class="cls-23" x="20.01" y="61.08" width="19.1" height="34.16"/>
              <path class="cls-1" d="M39.11,95.56h-19.1c-.18,0-.33-.14-.33-.32v-34.16c0-.18.15-.32.33-.32h19.1c.18,0,.32.14.32.32v34.16c0,.18-.14.32-.32.32ZM20.33,94.91h18.45v-33.51h-18.45v33.51Z"/>
            </g>
            <g>
              <rect class="cls-19" x="22.49" y="62.62" width="14.16" height="6.96"/>
              <path class="cls-1" d="M36.66,69.9h-14.16c-.18,0-.32-.15-.32-.32v-6.96c0-.18.15-.32.32-.32h14.16c.18,0,.32.15.32.32v6.96c0,.18-.15.32-.32.32ZM22.82,69.25h13.51v-6.31h-13.51v6.31Z"/>
            </g>
            <g>
              <polygon class="cls-3" points="2.29 46.37 45.65 2.29 89.01 46.37 2.29 46.37"/>
              <path class="cls-1" d="M89.03,46.69H2.29c-.13,0-.25-.08-.3-.2-.05-.12-.02-.26.07-.35L45.42,2.06c.12-.12.34-.12.46,0l43.31,44.03c.09.06.16.16.16.28,0,.18-.14.32-.32.32ZM3.06,46.05h85.17L45.65,2.75,3.06,46.05Z"/>
            </g>
            <g>
              <polygon class="cls-18" points="9.33 46.37 45.65 9.45 81.97 46.37 9.33 46.37"/>
              <path class="cls-1" d="M81.98,46.69H9.33c-.13,0-.25-.08-.3-.2-.05-.12-.02-.26.07-.35L45.42,9.22c.12-.12.34-.12.46,0l36.26,36.87c.1.06.16.16.16.28,0,.18-.14.32-.32.32ZM10.11,46.05h71.09L45.65,9.91,10.11,46.05Z"/>
            </g>
            <g>
              <polygon class="cls-22" points="12.58 46.37 45.65 12.75 78.72 46.37 12.58 46.37"/>
              <path class="cls-1" d="M78.73,46.69H12.58c-.13,0-.25-.08-.3-.2-.05-.12-.02-.26.07-.35L45.42,12.53c.12-.12.34-.12.46,0l33.01,33.57c.1.06.16.16.16.28,0,.18-.14.32-.32.32ZM13.36,46.05h64.59L45.65,13.22,13.36,46.05Z"/>
            </g>
            <g>
              <g>
                <rect class="cls-23" x="38.14" y="28.07" width="15.02" height="14.28"/>
                <path class="cls-1" d="M53.16,42.67h-15.02c-.18,0-.32-.15-.32-.32v-14.28c0-.18.14-.32.32-.32h15.02c.18,0,.32.14.32.32v14.28c0,.18-.15.32-.32.32ZM38.46,42.03h14.37v-13.64h-14.37v13.64Z"/>
              </g>
              <g>
                <g>
                  <rect class="cls-19" x="39.7" y="29.56" width="5.22" height="4.96"/>
                  <path class="cls-1" d="M44.91,34.85h-5.22c-.18,0-.33-.15-.33-.32v-4.96c0-.18.15-.32.33-.32h5.22c.18,0,.32.15.32.32v4.96c0,.18-.15.32-.32.32ZM40.02,34.2h4.57v-4.31h-4.57v4.31Z"/>
                </g>
                <g>
                  <rect class="cls-19" x="46.38" y="29.56" width="5.22" height="4.96"/>
                  <path class="cls-1" d="M51.6,34.85h-5.22c-.18,0-.32-.15-.32-.32v-4.96c0-.18.14-.32.32-.32h5.22c.18,0,.32.15.32.32v4.96c0,.18-.15.32-.32.32ZM46.71,34.2h4.57v-4.31h-4.57v4.31Z"/>
                </g>
                <g>
                  <rect class="cls-19" x="39.7" y="35.77" width="5.22" height="4.96"/>
                  <path class="cls-1" d="M44.91,41.05h-5.22c-.18,0-.33-.15-.33-.32v-4.96c0-.18.15-.33.33-.33h5.22c.18,0,.32.15.32.33v4.96c0,.18-.15.32-.32.32ZM40.02,40.4h4.57v-4.32h-4.57v4.32Z"/>
                </g>
                <g>
                  <rect class="cls-19" x="46.38" y="35.77" width="5.22" height="4.96"/>
                  <path class="cls-1" d="M51.6,41.05h-5.22c-.18,0-.32-.15-.32-.32v-4.96c0-.18.14-.33.32-.33h5.22c.18,0,.32.15.32.33v4.96c0,.18-.15.32-.32.32ZM46.71,40.4h4.57v-4.32h-4.57v4.32Z"/>
                </g>
              </g>
            </g>
            <g>
              <g>
                <rect class="cls-23" x="53.16" y="58.9" width="17.93" height="19.81"/>
                <path class="cls-1" d="M71.09,79.03h-17.93c-.18,0-.32-.15-.32-.32v-19.81c0-.18.15-.32.32-.32h17.93c.18,0,.33.14.33.32v19.81c0,.18-.15.32-.33.32ZM53.48,78.39h17.28v-19.17h-17.28v19.17Z"/>
              </g>
              <g>
                <g>
                  <rect class="cls-19" x="55.02" y="60.97" width="6.23" height="6.88"/>
                  <path class="cls-1" d="M61.25,68.17h-6.23c-.18,0-.32-.14-.32-.32v-6.88c0-.18.15-.32.32-.32h6.23c.18,0,.32.15.32.32v6.88c0,.18-.14.32-.32.32ZM55.34,67.53h5.58v-6.23h-5.58v6.23Z"/>
                </g>
                <g>
                  <rect class="cls-19" x="63" y="60.97" width="6.23" height="6.88"/>
                  <path class="cls-1" d="M69.23,68.17h-6.23c-.18,0-.32-.14-.32-.32v-6.88c0-.18.14-.32.32-.32h6.23c.18,0,.32.15.32.32v6.88c0,.18-.14.32-.32.32ZM63.32,67.53h5.58v-6.23h-5.58v6.23Z"/>
                </g>
                <g>
                  <rect class="cls-19" x="55.02" y="69.58" width="6.23" height="6.88"/>
                  <path class="cls-1" d="M61.25,76.78h-6.23c-.18,0-.32-.15-.32-.32v-6.88c0-.18.15-.33.32-.33h6.23c.18,0,.32.15.32.33v6.88c0,.18-.14.32-.32.32ZM55.34,76.13h5.58v-6.23h-5.58v6.23Z"/>
                </g>
                <g>
                  <rect class="cls-19" x="63" y="69.58" width="6.23" height="6.88"/>
                  <path class="cls-1" d="M69.23,76.78h-6.23c-.18,0-.32-.15-.32-.32v-6.88c0-.18.14-.33.32-.33h6.23c.18,0,.32.15.32.33v6.88c0,.18-.14.32-.32.32ZM63.32,76.13h5.58v-6.23h-5.58v6.23Z"/>
                </g>
              </g>
            </g>
            <g>
              <path class="cls-4" d="M36.66,77.3c0,1.27-1.03,2.31-2.31,2.31s-2.31-1.03-2.31-2.31,1.03-2.31,2.31-2.31,2.31,1.03,2.31,2.31Z"/>
              <path class="cls-1" d="M34.35,79.93c-1.45,0-2.63-1.18-2.63-2.63s1.18-2.63,2.63-2.63,2.63,1.18,2.63,2.63-1.18,2.63-2.63,2.63ZM34.35,75.32c-1.09,0-1.98.89-1.98,1.98s.89,1.98,1.98,1.98,1.98-.89,1.98-1.98-.89-1.98-1.98-1.98Z"/>
            </g>
          </g>
        </g>
      </g>
    </g>
  </g>
</svg>