<?xml version="1.0" encoding="UTF-8"?>
<svg id="Layer_2" data-name="Layer 2" xmlns="http://www.w3.org/2000/svg" width="101.85" height="172.48" xmlns:xlink="http://www.w3.org/1999/xlink" viewBox="0 0 101.85 172.48">
  <defs>
    <style>
      .cls-1 {
        stroke: url(#Degradado_sin_nombre_10-12);
      }

      .cls-1, .cls-2, .cls-3, .cls-4, .cls-5, .cls-6, .cls-7, .cls-8, .cls-9, .cls-10, .cls-11, .cls-12, .cls-13, .cls-14, .cls-15 {
        fill: none;
      }

      .cls-1, .cls-2, .cls-3, .cls-4, .cls-6, .cls-7, .cls-8, .cls-9, .cls-10, .cls-11, .cls-12, .cls-13, .cls-14, .cls-15 {
        stroke-miterlimit: 10;
        stroke-width: .92px;
      }

      .cls-2 {
        stroke: url(#Degradado_sin_nombre_10-14);
      }

      .cls-3 {
        stroke: url(#Degradado_sin_nombre_10-9);
      }

      .cls-16 {
        fill: url(#Degradado_sin_nombre_4-4);
      }

      .cls-17 {
        fill: url(#Degradado_sin_nombre_9-2);
      }

      .cls-18 {
        fill: url(#Degradado_sin_nombre_7-3);
      }

      .cls-19 {
        fill: url(#Degradado_sin_nombre_4-2);
      }

      .cls-20 {
        fill: url(#Degradado_sin_nombre_3-3);
      }

      .cls-4 {
        stroke: url(#Degradado_sin_nombre_10-8);
      }

      .cls-6 {
        stroke: url(#Degradado_sin_nombre_10-3);
      }

      .cls-21 {
        fill: url(#Degradado_sin_nombre_4);
      }

      .cls-22 {
        fill: url(#Degradado_sin_nombre_3-5);
      }

      .cls-7 {
        stroke: url(#Degradado_sin_nombre_10-4);
      }

      .cls-23 {
        fill: url(#Degradado_sin_nombre_3-2);
      }

      .cls-8 {
        stroke: url(#Degradado_sin_nombre_10-2);
      }

      .cls-24 {
        fill: url(#Degradado_sin_nombre_7-4);
      }

      .cls-25 {
        fill: url(#Degradado_sin_nombre_4-3);
      }

      .cls-9 {
        stroke: url(#Degradado_sin_nombre_10-10);
      }

      .cls-26 {
        fill: url(#Degradado_sin_nombre_9);
      }

      .cls-27 {
        fill: url(#Degradado_sin_nombre_7);
      }

      .cls-10 {
        stroke: url(#Degradado_sin_nombre_10-5);
      }

      .cls-28 {
        fill: url(#Degradado_sin_nombre_7-7);
      }

      .cls-11 {
        stroke: url(#Degradado_sin_nombre_10);
      }

      .cls-12 {
        stroke: url(#Degradado_sin_nombre_10-6);
      }

      .cls-13 {
        stroke: url(#Degradado_sin_nombre_10-13);
      }

      .cls-29 {
        fill: url(#Degradado_sin_nombre_3);
      }

      .cls-14 {
        stroke: url(#Degradado_sin_nombre_10-11);
      }

      .cls-30 {
        fill: url(#Degradado_sin_nombre_8-2);
      }

      .cls-31 {
        fill: url(#Degradado_sin_nombre_7-6);
      }

      .cls-32 {
        fill: url(#Degradado_sin_nombre_7-5);
      }

      .cls-33 {
        fill: url(#Degradado_sin_nombre_3-4);
      }

      .cls-34 {
        fill: url(#Degradado_sin_nombre_7-2);
      }

      .cls-35 {
        fill: url(#Degradado_sin_nombre_8);
      }

      .cls-36 {
        clip-path: url(#clippath);
      }

      .cls-15 {
        stroke: url(#Degradado_sin_nombre_10-7);
      }
    </style>
    <linearGradient id="Degradado_sin_nombre_9" data-name="Degradado sin nombre 9" x1="74.41" y1="-101.12" x2="80.63" y2="-33.35" gradientTransform="translate(-4.58 113.93) rotate(-9.66)" gradientUnits="userSpaceOnUse">
      <stop offset="0" stop-color="#ff78c3"/>
      <stop offset="1" stop-color="#ff38ac"/>
    </linearGradient>
    <linearGradient id="Degradado_sin_nombre_7" data-name="Degradado sin nombre 7" x1="59.98" y1="-9.29" x2="72.4" y2="-63.04" gradientTransform="translate(-15.09 48.15) rotate(44.58)" gradientUnits="userSpaceOnUse">
      <stop offset="0" stop-color="#ff2149"/>
      <stop offset="1" stop-color="#c41434"/>
    </linearGradient>
    <clipPath id="clippath">
      <path class="cls-5" d="M86.89,76.43l-15.27,75.74c-.52,2.55-5.23,3.35-6.56,1.12L25.59,86.86s32.43,7.11,61.3-10.43Z"/>
    </clipPath>
    <linearGradient id="Degradado_sin_nombre_3" data-name="Degradado sin nombre 3" x1="34.28" y1="15.33" x2="96.47" y2="15.33" gradientTransform="translate(-4.58 113.93) rotate(-9.66)" gradientUnits="userSpaceOnUse">
      <stop offset="0" stop-color="#ffdd01"/>
      <stop offset="1" stop-color="#ffa301"/>
    </linearGradient>
    <linearGradient id="Degradado_sin_nombre_10" data-name="Degradado sin nombre 10" x1="33.75" y1="43.91" x2="97" y2="43.91" gradientTransform="translate(-4.58 113.93) rotate(-9.66)" gradientUnits="userSpaceOnUse">
      <stop offset="0" stop-color="#ffa201"/>
      <stop offset="1" stop-color="#ff6701"/>
    </linearGradient>
    <linearGradient id="Degradado_sin_nombre_10-2" data-name="Degradado sin nombre 10" x1="33.75" y1="32.27" x2="97" y2="32.27" xlink:href="#Degradado_sin_nombre_10"/>
    <linearGradient id="Degradado_sin_nombre_10-3" data-name="Degradado sin nombre 10" x1="33.75" y1="20.62" x2="97" y2="20.62" xlink:href="#Degradado_sin_nombre_10"/>
    <linearGradient id="Degradado_sin_nombre_10-4" data-name="Degradado sin nombre 10" x1="33.75" y1="8.98" x2="97" y2="8.98" xlink:href="#Degradado_sin_nombre_10"/>
    <linearGradient id="Degradado_sin_nombre_10-5" data-name="Degradado sin nombre 10" x1="33.75" y1="-2.67" x2="97" y2="-2.67" xlink:href="#Degradado_sin_nombre_10"/>
    <linearGradient id="Degradado_sin_nombre_10-6" data-name="Degradado sin nombre 10" x1="33.75" y1="-14.31" x2="97" y2="-14.31" xlink:href="#Degradado_sin_nombre_10"/>
    <linearGradient id="Degradado_sin_nombre_10-7" data-name="Degradado sin nombre 10" x1="33.75" y1="-25.95" x2="97" y2="-25.95" xlink:href="#Degradado_sin_nombre_10"/>
    <linearGradient id="Degradado_sin_nombre_10-8" data-name="Degradado sin nombre 10" x1="1276.12" y1="43.75" x2="1339.36" y2="43.75" gradientTransform="translate(1349.06 -116.31) rotate(170.34) scale(1 -1)" xlink:href="#Degradado_sin_nombre_10"/>
    <linearGradient id="Degradado_sin_nombre_10-9" data-name="Degradado sin nombre 10" x1="1276.12" y1="32.1" x2="1339.36" y2="32.1" gradientTransform="translate(1349.06 -116.31) rotate(170.34) scale(1 -1)" xlink:href="#Degradado_sin_nombre_10"/>
    <linearGradient id="Degradado_sin_nombre_10-10" data-name="Degradado sin nombre 10" x1="1276.12" y1="20.46" x2="1339.36" y2="20.46" gradientTransform="translate(1349.06 -116.31) rotate(170.34) scale(1 -1)" xlink:href="#Degradado_sin_nombre_10"/>
    <linearGradient id="Degradado_sin_nombre_10-11" data-name="Degradado sin nombre 10" x1="1276.12" y1="8.81" x2="1339.36" y2="8.81" gradientTransform="translate(1349.06 -116.31) rotate(170.34) scale(1 -1)" xlink:href="#Degradado_sin_nombre_10"/>
    <linearGradient id="Degradado_sin_nombre_10-12" data-name="Degradado sin nombre 10" x1="1276.12" y1="-2.83" x2="1339.36" y2="-2.83" gradientTransform="translate(1349.06 -116.31) rotate(170.34) scale(1 -1)" xlink:href="#Degradado_sin_nombre_10"/>
    <linearGradient id="Degradado_sin_nombre_10-13" data-name="Degradado sin nombre 10" x1="1276.12" y1="-14.48" x2="1339.36" y2="-14.48" gradientTransform="translate(1349.06 -116.31) rotate(170.34) scale(1 -1)" xlink:href="#Degradado_sin_nombre_10"/>
    <linearGradient id="Degradado_sin_nombre_10-14" data-name="Degradado sin nombre 10" x1="1276.12" y1="-26.12" x2="1339.36" y2="-26.12" gradientTransform="translate(1349.06 -116.31) rotate(170.34) scale(1 -1)" xlink:href="#Degradado_sin_nombre_10"/>
    <linearGradient id="Degradado_sin_nombre_7-2" data-name="Degradado sin nombre 7" x1="54.58" y1="-6.6" x2="70.86" y2="-64.98" gradientTransform="translate(-4.58 113.93) rotate(-9.66)" xlink:href="#Degradado_sin_nombre_7"/>
    <linearGradient id="Degradado_sin_nombre_9-2" data-name="Degradado sin nombre 9" x1="83.94" y1="-102" x2="90.17" y2="-34.22" xlink:href="#Degradado_sin_nombre_9"/>
    <linearGradient id="Degradado_sin_nombre_8" data-name="Degradado sin nombre 8" x1="66.87" y1="-94.17" x2="34.66" y2="-29.26" gradientTransform="translate(-4.58 113.93) rotate(-9.66)" gradientUnits="userSpaceOnUse">
      <stop offset="0" stop-color="#01c2e0"/>
      <stop offset="1" stop-color="#008ce6"/>
    </linearGradient>
    <linearGradient id="Degradado_sin_nombre_8-2" data-name="Degradado sin nombre 8" x1="60.95" y1="-97.11" x2="28.73" y2="-32.2" xlink:href="#Degradado_sin_nombre_8"/>
    <linearGradient id="Degradado_sin_nombre_7-3" data-name="Degradado sin nombre 7" x1="35.86" y1="-89.01" x2="33.45" y2="-84.47" gradientTransform="translate(-4.58 113.93) rotate(-9.66)" xlink:href="#Degradado_sin_nombre_7"/>
    <linearGradient id="Degradado_sin_nombre_7-4" data-name="Degradado sin nombre 7" x1="94.52" y1="-93.31" x2="92.11" y2="-88.76" gradientTransform="translate(-4.58 113.93) rotate(-9.66)" xlink:href="#Degradado_sin_nombre_7"/>
    <linearGradient id="Degradado_sin_nombre_7-5" data-name="Degradado sin nombre 7" x1="573.09" y1="631.56" x2="570.68" y2="636.11" gradientTransform="translate(575.04 -646.25) rotate(80.34)" xlink:href="#Degradado_sin_nombre_7"/>
    <linearGradient id="Degradado_sin_nombre_7-6" data-name="Degradado sin nombre 7" x1="590.65" y1="655.96" x2="588.24" y2="660.51" gradientTransform="translate(575.04 -646.25) rotate(80.34)" xlink:href="#Degradado_sin_nombre_7"/>
    <linearGradient id="Degradado_sin_nombre_7-7" data-name="Degradado sin nombre 7" x1="575.91" y1="596.07" x2="573.51" y2="600.62" gradientTransform="translate(575.04 -646.25) rotate(80.34)" xlink:href="#Degradado_sin_nombre_7"/>
    <linearGradient id="Degradado_sin_nombre_3-2" data-name="Degradado sin nombre 3" x1="900.3" y1="578.7" x2="897.9" y2="583.25" gradientTransform="translate(913.38 -591.5) rotate(112.62)" xlink:href="#Degradado_sin_nombre_3"/>
    <linearGradient id="Degradado_sin_nombre_3-3" data-name="Degradado sin nombre 3" x1="936.12" y1="590.85" x2="933.72" y2="595.39" gradientTransform="translate(913.38 -591.5) rotate(112.62)" xlink:href="#Degradado_sin_nombre_3"/>
    <linearGradient id="Degradado_sin_nombre_3-4" data-name="Degradado sin nombre 3" x1="263.04" y1="-474.06" x2="260.64" y2="-469.52" gradientTransform="translate(222.1 -473.44) rotate(48.06) scale(1 -1)" xlink:href="#Degradado_sin_nombre_3"/>
    <linearGradient id="Degradado_sin_nombre_3-5" data-name="Degradado sin nombre 3" x1="888.63" y1="547.39" x2="886.22" y2="551.94" gradientTransform="translate(913.38 -591.5) rotate(112.62)" xlink:href="#Degradado_sin_nombre_3"/>
    <linearGradient id="Degradado_sin_nombre_4" data-name="Degradado sin nombre 4" x1="1290.71" y1="-62.29" x2="1288.3" y2="-57.75" gradientTransform="translate(1316.48 112.71) rotate(-173.58)" gradientUnits="userSpaceOnUse">
      <stop offset="0" stop-color="#f5f5f5"/>
      <stop offset="1" stop-color="#c2c2c2"/>
    </linearGradient>
    <linearGradient id="Degradado_sin_nombre_4-2" data-name="Degradado sin nombre 4" x1="1247.13" y1="-57.98" x2="1244.72" y2="-53.43" xlink:href="#Degradado_sin_nombre_4"/>
    <linearGradient id="Degradado_sin_nombre_4-3" data-name="Degradado sin nombre 4" x1="1268.15" y1="-37.86" x2="1265.74" y2="-33.31" xlink:href="#Degradado_sin_nombre_4"/>
    <linearGradient id="Degradado_sin_nombre_4-4" data-name="Degradado sin nombre 4" x1="136.94" y1="268.3" x2="134.53" y2="272.85" gradientTransform="translate(8.81 335.5) rotate(-25.73) scale(1 -1)" xlink:href="#Degradado_sin_nombre_4"/>
  </defs>
  <g id="OBJECTS">
    <g>
      <path class="cls-26" d="M94.63,35.4c-.63-2.5-1.27-5.01-1.9-7.51-.09-.35-.15-.78-.29-1.16C89.07,9.18,72.28-2.54,54.58.47c-17.93,3.05-29.99,20.06-26.94,37.99,3.05,17.93,20.06,29.99,37.99,26.94,6.45-1.1,12.14-4.01,16.64-8.12.3,1.8.72,3.59,1.28,5.33.32.99.81,2.11,1.82,2.37.63.16,1.32-.07,1.82-.49.5-.42.84-1,1.11-1.59.78-1.72,1.08-3.66.86-5.53-.12-.95-.36-1.91-.21-2.86.15-.95.88-1.9,1.84-1.91.81,0,1.59.65,2.36.42.79-.24,1.02-1.23,1.08-2.05.12-1.81-.02-3.64-.42-5.41-.34-1.52-.86-3.14-.26-4.57.32-.78.95-1.4,1.25-2.19.4-1.08.12-2.29-.16-3.41Z"/>
      <circle class="cls-27" cx="54.39" cy="70.78" r="32.93" transform="translate(-34.83 73.54) rotate(-54.24)"/>
      <g class="cls-36">
        <path class="cls-29" d="M86.89,76.43l-15.27,75.74c-.52,2.55-5.23,3.35-6.56,1.12L25.59,86.86s32.43,7.11,61.3-10.43Z"/>
        <g>
          <line class="cls-11" x1="32.8" y1="130.88" x2="101.67" y2="161.62"/>
          <line class="cls-8" x1="30.85" y1="119.4" x2="99.71" y2="150.14"/>
          <line class="cls-6" x1="28.89" y1="107.92" x2="97.76" y2="138.66"/>
          <line class="cls-7" x1="26.94" y1="96.44" x2="95.81" y2="127.18"/>
          <line class="cls-10" x1="24.98" y1="84.96" x2="93.85" y2="115.71"/>
          <line class="cls-12" x1="23.03" y1="73.48" x2="91.9" y2="104.23"/>
          <line class="cls-15" x1="21.08" y1="62" x2="89.94" y2="92.75"/>
        </g>
        <g>
          <line class="cls-4" x1="94.64" y1="120.35" x2="39.82" y2="172.15"/>
          <line class="cls-3" x1="92.69" y1="108.87" x2="37.87" y2="160.67"/>
          <line class="cls-9" x1="90.74" y1="97.39" x2="35.92" y2="149.19"/>
          <line class="cls-14" x1="88.78" y1="85.91" x2="33.96" y2="137.71"/>
          <line class="cls-1" x1="86.83" y1="74.43" x2="32.01" y2="126.23"/>
          <line class="cls-13" x1="84.87" y1="62.95" x2="30.06" y2="114.75"/>
          <line class="cls-2" x1="82.92" y1="51.48" x2="28.1" y2="103.27"/>
        </g>
      </g>
      <path class="cls-34" d="M26.12,89.4c.41,1.24,1.71,2.44,2.89,1.89.49-.23.84-.73,1.37-.83.52-.1,1.05.23,1.35.67s.42.97.56,1.48c.39,1.47.95,2.89,1.66,4.23.35.67.76,1.34,1.36,1.8.6.46,1.44.69,2.14.39.74-.31,1.14-1.11,1.37-1.88.23-.77.35-1.59.77-2.27.42-.68,1.29-1.18,2.03-.87,1.04.44,1.3,2.2,2.43,2.18,1.16-.02,1.35-1.87,2.42-2.3.58-.23,1.27.05,1.69.52.42.47.64,1.08.84,1.67.66,1.92,1.32,3.85,1.99,5.77.39,1.12.79,2.27,1.58,3.16.79.89,2.07,1.45,3.18,1.05.9-.32,1.51-1.19,1.78-2.1.28-.91.28-1.88.32-2.83.07-1.89.31-3.77.69-5.61.25-1.2.68-2.54,1.78-3.07,1.43-.69,3.38.27,4.62-.72.67-.54.85-1.45,1.09-2.28.24-.82.68-1.72,1.52-1.91.62-.14,1.25.16,1.88.11.93-.07,1.63-.86,2.09-1.67.46-.81.79-1.72,1.47-2.36.66-.63,1.57-.91,2.36-1.36.79-.45,1.55-1.2,1.51-2.11-.06-1.26-1.51-1.91-2.74-2.17-5.97-1.29-12.17-.18-18.17.94-9.5,1.76-35.81-6.14-32.57,2.98,1.24,3.48,2.06,5.47,2.74,7.52Z"/>
      <path class="cls-17" d="M64.39,41.05c.09.7.45,1.41,1.08,1.72.38.19.83.22,1.21.4.78.39,1.1,1.35,1.13,2.22.03.87-.16,1.75-.04,2.62.12.87.66,1.77,1.52,1.91.9.14,1.76-.6,2.66-.5.69.08,1.24.64,1.51,1.28.27.64.3,1.35.32,2.04l.18,4.57c.03.85.08,1.73.49,2.47s1.33,1.28,2.12.98c.63-.24.99-.89,1.34-1.47.35-.58.84-1.19,1.51-1.21.68-.03,1.24.56,1.47,1.2.23.64.23,1.33.37,1.99.11.54.32,1.09.73,1.46.41.37,1.04.53,1.53.27.55-.3.74-1,.82-1.62.47-3.58-.62-7.27-2.58-10.3-1.96-3.03-4.75-5.46-7.8-7.42-1.86-1.19-3.82-2.22-5.81-3.17-.79-.38-2.09-1.31-2.96-1.36-.93-.05-.91,1.19-.82,1.91Z"/>
      <path class="cls-35" d="M68.69,53.63c-.51-1.4-1.02-2.8-1.53-4.2-.39-1.08-.79-2.16-.99-3.29-.28-1.58,0-3.19-.13-4.78-.09-1.06-.37-5.49-.83-7.03-.01-.04-.03-.07-.05-.1-3.62-17.22-20.24-28.65-37.74-25.67C9.48,11.61-2.58,28.62.47,46.55s20.06,29.99,37.99,26.94c4.47-.76,8.57-2.39,12.16-4.68.12.04.25.07.38.07,1.14,0,1.93-1.55,3.05-1.32.41.09.74.41,1.16.46.74.1,1.29-.66,1.58-1.34.29-.68.61-1.49,1.32-1.7.77-.23,1.52.38,2.02,1,.5.63.98,1.37,1.76,1.56.75.19,1.56-.24,2.01-.87.45-.63.6-1.43.65-2.2.07-1.12-.05-2.25.14-3.35.18-1.1.75-2.23,1.77-2.69.61-.28,1.34-.3,1.9-.68.62-.42.89-1.21.88-1.96-.01-.75-.27-1.46-.53-2.16Z"/>
      <path class="cls-30" d="M3.19,58.51c1.28,1.93,3.17,3.65,3.43,5.96.1.89-.06,1.81.06,2.7.13.89.67,1.83,1.56,1.98.59.1,1.17-.17,1.76-.22,1.29-.11,2.46.84,3.07,1.98.61,1.14.78,2.45,1.05,3.71.27,1.26.67,2.57,1.61,3.45.94.89,2.54,1.18,3.51.32.8-.71.97-2,1.87-2.58.94-.61,2.25-.12,3.03.69.79.8,1.25,1.87,1.95,2.74.71.88,1.83,1.59,2.91,1.27,2-.59,1.99-3.96,3.99-4.56,1.06-.32,2.19.37,2.85,1.26.65.89.98,1.98,1.5,2.96.52.98,1.36,1.9,2.46,2.03,1.24.15,2.4-.81,2.93-1.95.53-1.14.57-2.43.67-3.68.1-1.25.27-2.56,1-3.58,1.4-1.96,4.61-2.59,5.03-4.96.34-1.91-1.44-3.49-3.11-4.47-6.2-3.65-13.41-5.08-20.32-7.1-5.18-1.52-10.26-3.4-15.18-5.63-2.5-1.13-4.95-2.35-7.36-3.65-.59-.32-3.41-4.2-3.34-3.32.09,1.16.38,5.36.45,6.08.28,2.99.93,6.02,2.61,8.56Z"/>
      <g>
        <path class="cls-18" d="M15.53,24.88h0c-.33.06-.64-.17-.7-.49l-.65-3.84c-.06-.33.17-.64.49-.7h0c.33-.06.64.17.7.49l.65,3.84c.06.33-.17.64-.49.7Z"/>
        <path class="cls-24" d="M72.65,10.8h0c-.33.06-.64-.17-.7-.49l-.65-3.84c-.06-.33.17-.64.49-.7h0c.33-.06.64.17.7.49l.65,3.84c.06.33-.17.64-.49.7Z"/>
        <path class="cls-32" d="M43.9,24.38h0c-.06-.33.17-.64.49-.7l3.84-.65c.33-.06.64.17.7.49h0c.06.33-.17.64-.49.7l-3.84.65c-.33.06-.64-.17-.7-.49Z"/>
        <path class="cls-31" d="M22.79,45.79h0c-.06-.33.17-.64.49-.7l3.84-.65c.33-.06.64.17.7.49h0c.06.33-.17.64-.49.7l-3.84.65c-.33.06-.64-.17-.7-.49Z"/>
        <path class="cls-28" d="M79.36,21.22h0c-.06-.33.17-.64.49-.7l3.84-.65c.33-.06.64.17.7.49h0c.06.33-.17.64-.49.7l-3.84.65c-.33.06-.64-.17-.7-.49Z"/>
        <path class="cls-23" d="M29.1,14.24h0c.13-.31.48-.45.79-.33l3.6,1.5c.31.13.45.48.33.79h0c-.13.31-.48.45-.79.33l-3.6-1.5c-.31-.13-.45-.48-.33-.79Z"/>
        <path class="cls-20" d="M4.11,42.63h0c.13-.31.48-.45.79-.33l3.6,1.5c.31.13.45.48.33.79h0c-.13.31-.48.45-.79.33l-3.6-1.5c-.31-.13-.45-.48-.33-.79Z"/>
        <path class="cls-33" d="M47.93,35.18h0c-.22-.25-.6-.27-.85-.05l-2.9,2.61c-.25.22-.27.6-.05.85h0c.22.25.6.27.85.05l2.9-2.61c.25-.22.27-.6.05-.85Z"/>
        <path class="cls-22" d="M62.5,15.5h0c.13-.31.48-.45.79-.33l3.6,1.5c.31.13.45.48.33.79h0c-.13.31-.48.45-.79.33l-3.6-1.5c-.31-.13-.45-.48-.33-.79Z"/>
        <path class="cls-21" d="M28.54,25.87h0c.33.04.57.34.53.67l-.44,3.87c-.04.33-.34.57-.67.53h0c-.33-.04-.57-.34-.53-.67l.44-3.87c.04-.33.34-.57.67-.53Z"/>
        <path class="cls-19" d="M72.32,26.45h0c.33.04.57.34.53.67l-.44,3.87c-.04.33-.34.57-.67.53h0c-.33-.04-.57-.34-.53-.67l.44-3.87c.04-.33.34-.57.67-.53Z"/>
        <path class="cls-25" d="M53.68,4.11h0c.33.04.57.34.53.67l-.44,3.87c-.04.33-.34.57-.67.53h0c-.33-.04-.57-.34-.53-.67l.44-3.87c.04-.33.34-.57.67-.53Z"/>
        <path class="cls-16" d="M12.7,30.68h0c-.3.14-.43.51-.28.81l1.69,3.51c.14.3.51.43.81.28h0c.3-.14.43-.51.28-.81l-1.69-3.51c-.14-.3-.51-.43-.81-.28Z"/>
      </g>
    </g>
  </g>
</svg>