<?xml version="1.0" encoding="UTF-8"?>
<svg xmlns="http://www.w3.org/2000/svg" width="170.98" height="100" viewBox="0 0 170.98 100">
  <defs>
    <style>
      .cls-1 {
        fill: #8b8b8b;
      }

      .cls-2 {
        fill: #caebf5;
      }

      .cls-3 {
        fill: #9a9a9a;
      }

      .cls-4 {
        fill: #7d7d7d;
      }

      .cls-5 {
        fill: #d8f0f6;
      }

      .cls-6 {
        mix-blend-mode: color-dodge;
      }

      .cls-7 {
        fill: #fff;
      }

      .cls-8 {
        fill: #6e6e6e;
      }

      .cls-9 {
        fill: #606060;
      }

      .cls-10 {
        fill: #e2e2e2;
      }

      .cls-11 {
        opacity: .6;
      }

      .cls-11, .cls-12, .cls-13, .cls-14, .cls-15, .cls-16 {
        mix-blend-mode: multiply;
      }

      .cls-11, .cls-17, .cls-15 {
        fill: #a2def9;
      }

      .cls-12 {
        opacity: .4;
      }

      .cls-18 {
        isolation: isolate;
      }

      .cls-19, .cls-14 {
        fill: #93c4d6;
      }

      .cls-20, .cls-17, .cls-21 {
        mix-blend-mode: screen;
      }

      .cls-20, .cls-22 {
        fill: #5bcbf5;
      }

      .cls-23 {
        fill: #f1f1f1;
      }

      .cls-24 {
        fill: #c5c5c5;
      }

      .cls-25 {
        fill: #a8a8a8;
      }

      .cls-26 {
        fill: #b5dff2;
      }

      .cls-27 {
        fill: #d4d4d4;
      }

      .cls-28 {
        fill: #b7b7b7;
      }

      .cls-29 {
        fill: #5c2f10;
      }

      .cls-30 {
        fill: #bfe7fb;
      }

      .cls-16 {
        opacity: .5;
      }
    </style>
  </defs>
  <g class="cls-18">
    <g id="Layer_2" data-name="Layer 2">
      <g id="Layer_1-2" data-name="Layer 1">
        <g>
          <g class="cls-13">
            <path class="cls-7" d="M170.04,69.17c-.06-.66-.12-1.31-.19-1.97l-.11-1c-.03-.3-.07-.6-.11-.91l-.11-.84c-.03-.24-.07-.48-.1-.73l-.04-.28c-.05-.33-.1-.65-.15-.98l-.07-.41c-2.78-16.97-10.23-30.74-22.15-40.93-.01-.01-.03-.02-.04-.03-.5-.43-1.02-.86-1.57-1.3l-.65-.51c-.27-.21-.54-.42-.81-.62-1.14-.87-2.35-1.73-3.6-2.56-.01,0-.03-.02-.04-.02,0,0-.02-.01-.03-.02-.44-.29-.88-.57-1.33-.86-.03-.02-.05-.03-.08-.05-3.88-2.44-8.13-4.59-12.62-6.37-.29-.11-.57-.23-.86-.34-.3-.11-.6-.23-.89-.34-.6-.23-1.2-.44-1.81-.66-.04-.01-.08-.03-.12-.04-14.43-5.02-26.75-5.08-27.28-5.08-2.95.01-5.9.11-8.78.3-.04,0-.08,0-.12,0-.01,0-1.32.05-1.33.05-.26.01-.51.05-.76.12-21.87,1.85-38.95,9.17-50.75,21.76-6.39,6.82-11.23,15.25-14.39,25.05-.09.17-.16.35-.21.53-.44,1.38-.83,2.79-1.21,4.27-6.6,3.17-11.13,9.54-13.48,18.98-2.23,8.94-1.87,18.24-1.45,23,.17,1.93,1.76,3.39,3.71,3.39h4.18c.41.15.84.23,1.29.23h26.55c.44,0,.87-.08,1.28-.23h30.09c.39,0,.77-.06,1.13-.18,7.27.12,14.75.18,22.26.18,29.13,0,56.21-.89,74.29-2.43,1.44-.12,2.69-1.08,3.17-2.41.18-.48.25-.97.23-1.44l-.92-24.19s0-.08,0-.13Z"/>
            <path class="cls-23" d="M169.82,68.96c-.06-.66-.12-1.31-.19-1.97l-.11-1c-.03-.3-.07-.6-.11-.91l-.11-.84c-.03-.24-.07-.48-.1-.73l-.04-.28c-.05-.33-.09-.65-.15-.98l-.07-.41c-2.78-16.97-10.02-30.99-22.15-40.93-.01-.01-.03-.02-.04-.03-.5-.44-1.02-.86-1.57-1.3l-.65-.52c-.27-.21-.54-.42-.81-.62-1.14-.87-2.35-1.73-3.6-2.56-.01,0-.02-.02-.04-.02,0,0-.02-.01-.03-.02-.43-.3-.88-.58-1.33-.86-.03-.02-.05-.03-.08-.05-3.92-2.38-8.13-4.58-12.62-6.37-.29-.11-.57-.23-.86-.34-.3-.12-.6-.23-.89-.34-.6-.23-1.2-.45-1.82-.66-.04-.01-.08-.03-.12-.04-14.45-4.98-26.75-5.08-27.28-5.08-2.95,0-5.9.12-8.78.3-.04,0-.08,0-.12,0-.01,0-1.33.05-1.33.05-.26.01-.52.05-.77.12-21.87,1.85-38.95,9.17-50.75,21.76-6.39,6.82-11.23,15.25-14.39,25.05-.09.17-.16.35-.21.53-.43,1.38-.83,2.79-1.21,4.27-6.6,3.17-11.13,9.54-13.48,18.98-2.23,8.94-1.87,18.24-1.45,23,.17,1.93,1.76,3.39,3.71,3.39h4.18c.41.15.84.23,1.29.23h26.55c.44,0,.87-.08,1.28-.23h30.09c.39,0,.77-.06,1.13-.18,7.27.12,14.75.18,22.26.18,29.13,0,56.21-.89,74.29-2.43,1.44-.12,2.68-1.09,3.17-2.41.17-.48.26-.97.23-1.44l-.92-24.19s0-.09,0-.13Z"/>
            <path class="cls-10" d="M169.59,68.75c-.05-.66-.12-1.31-.19-1.97l-.11-1c-.03-.3-.07-.6-.11-.9l-.11-.84c-.03-.24-.07-.48-.1-.73l-.04-.28c-.05-.32-.1-.65-.15-.97l-.07-.41c-2.78-16.97-10.02-30.99-22.15-40.93-.01-.01-.03-.02-.04-.03-.5-.43-1.02-.86-1.57-1.3l-.65-.51c-.27-.21-.54-.42-.81-.62-1.14-.87-2.33-1.77-3.6-2.56-.01,0-.03-.01-.04-.02,0,0-.02-.01-.03-.02-.45-.27-.88-.58-1.33-.86-.03-.02-.05-.03-.08-.05-3.9-2.41-8.13-4.59-12.62-6.37-.29-.11-.57-.23-.86-.34-.3-.12-.6-.23-.89-.34-.6-.23-1.2-.46-1.82-.66-.04-.01-.08-.03-.12-.04-14.54-4.71-26.75-5.08-27.28-5.08-2.95.01-5.9.11-8.78.3-.04,0-.08,0-.12,0-.01,0-1.32.05-1.33.05-.26.01-.51.05-.76.12-21.87,1.85-38.95,9.17-50.75,21.76-6.39,6.82-11.23,15.25-14.39,25.05-.09.18-.16.35-.21.53-.43,1.38-.83,2.79-1.21,4.27-6.6,3.17-11.13,9.54-13.48,18.98-2.23,8.94-1.87,18.25-1.45,23,.17,1.93,1.76,3.39,3.71,3.39h4.18c.41.15.84.23,1.29.23h26.55c.44,0,.87-.08,1.28-.23h30.09c.39,0,.77-.06,1.13-.18,7.27.12,14.75.18,22.26.18,29.13,0,56.21-.88,74.29-2.43,1.44-.12,2.68-1.08,3.17-2.41.17-.48.25-.97.23-1.44l-.92-24.2s0-.08,0-.13Z"/>
            <path class="cls-27" d="M169.36,68.54c-.05-.66-.12-1.31-.19-1.97l-.11-1c-.03-.3-.07-.6-.11-.91l-.11-.84c-.03-.24-.07-.48-.1-.73l-.04-.28c-.05-.33-.09-.65-.15-.98l-.07-.41c-2.78-16.97-10.42-30.51-22.15-40.93-.01-.01-.03-.02-.04-.03-.49-.45-1.02-.86-1.58-1.3l-.65-.51c-.27-.21-.54-.42-.81-.62-1.14-.87-2.33-1.77-3.6-2.56-.01,0-.03-.02-.04-.02,0,0-.02-.01-.03-.02-.43-.31-.88-.57-1.33-.86-.03-.02-.05-.03-.08-.05-3.88-2.44-8.13-4.59-12.62-6.37-.29-.11-.57-.23-.86-.34-.3-.12-.6-.23-.89-.34-.6-.23-1.2-.45-1.81-.66-.04-.01-.08-.03-.12-.04-14.49-4.87-26.75-5.08-27.28-5.08-2.95,0-5.9.11-8.78.3-.04,0-.08,0-.12,0-.01,0-1.32.05-1.33.05-.26.01-.51.05-.76.12-21.87,1.85-38.94,9.17-50.75,21.76-6.39,6.82-11.23,15.25-14.39,25.05-.09.17-.16.35-.21.53-.43,1.38-.83,2.79-1.21,4.27-6.6,3.17-11.13,9.54-13.48,18.98-2.23,8.94-1.87,18.25-1.45,23,.17,1.93,1.76,3.39,3.71,3.39h4.18c.41.15.84.23,1.28.23h26.55c.44,0,.87-.08,1.28-.23h30.09c.39,0,.77-.06,1.13-.18,7.27.12,14.75.18,22.25.18,29.13,0,56.21-.89,74.29-2.43,1.44-.12,2.68-1.09,3.17-2.41.17-.48.25-.97.23-1.44l-.92-24.19s0-.08,0-.13Z"/>
            <path class="cls-24" d="M169.14,68.33c-.06-.66-.12-1.31-.19-1.97l-.11-1c-.03-.3-.07-.6-.11-.91l-.11-.84c-.03-.24-.07-.48-.1-.73l-.04-.28c-.05-.33-.09-.65-.15-.98l-.07-.41c-2.78-16.97-10.23-30.74-22.15-40.93-.01-.01-.03-.02-.04-.03-.52-.42-1.02-.86-1.57-1.3l-.65-.51c-.27-.21-.54-.42-.81-.62-1.14-.87-2.38-1.7-3.6-2.56-.01,0-.02-.02-.04-.03,0,0-.02-.01-.03-.02-.45-.27-.88-.57-1.33-.86-.03-.02-.05-.03-.08-.05-3.87-2.46-8.13-4.59-12.62-6.37-.29-.12-.57-.23-.86-.34-.3-.12-.6-.23-.89-.34-.6-.23-1.2-.45-1.82-.66-.04-.01-.08-.03-.12-.04-14.43-5.02-26.75-5.08-27.28-5.07-2.95,0-5.9.11-8.78.3-.04,0-.08,0-.12,0-.01,0-1.32.05-1.32.05-.27.01-.52.05-.77.12-21.87,1.85-38.95,9.17-50.75,21.76-6.39,6.82-11.23,15.25-14.39,25.05-.09.17-.16.35-.21.53-.43,1.38-.83,2.79-1.21,4.27-6.6,3.17-11.13,9.54-13.48,18.98-2.23,8.94-1.87,18.24-1.45,23,.17,1.94,1.76,3.39,3.71,3.39h4.18c.41.15.84.23,1.28.23h26.55c.44,0,.87-.08,1.28-.23h30.09c.39,0,.77-.06,1.13-.18,7.27.12,14.75.18,22.26.18,29.13,0,56.21-.88,74.29-2.43,1.44-.12,2.68-1.09,3.17-2.41.17-.48.25-.97.23-1.44l-.92-24.19s0-.09,0-.13Z"/>
            <path class="cls-28" d="M168.91,68.12c-.06-.66-.12-1.31-.19-1.97l-.11-1c-.03-.3-.07-.6-.11-.9l-.11-.84c-.03-.24-.07-.48-.1-.73l-.04-.28c-.05-.33-.1-.65-.15-.98l-.07-.41c-2.78-16.97-10.23-30.74-22.15-40.93-.01-.01-.03-.02-.04-.03-.5-.44-1.02-.86-1.57-1.3l-.65-.51c-.27-.21-.54-.42-.81-.63-1.14-.87-2.36-1.72-3.6-2.56-.01,0-.03-.02-.04-.03,0,0-.02-.01-.03-.02-.43-.31-.88-.57-1.33-.86-.03-.02-.05-.03-.08-.05-3.88-2.44-8.13-4.59-12.62-6.37-.29-.11-.57-.23-.86-.34-.3-.11-.6-.23-.89-.34-.6-.22-1.2-.44-1.81-.66-.04-.01-.08-.03-.12-.04-14.43-5.02-26.75-5.08-27.28-5.08-2.95,0-5.9.12-8.78.3-.04,0-.08,0-.12,0-.01,0-1.32.05-1.33.05-.26.01-.51.05-.76.12-21.87,1.85-38.94,9.17-50.75,21.76-6.39,6.82-11.23,15.25-14.39,25.05-.09.17-.16.35-.21.53-.43,1.38-.83,2.79-1.21,4.27-6.6,3.17-11.13,9.54-13.48,18.98-2.23,8.94-1.87,18.24-1.45,23,.17,1.93,1.76,3.39,3.71,3.39h4.18c.41.15.84.23,1.28.23h26.55c.44,0,.87-.08,1.28-.23h30.09c.39,0,.77-.06,1.13-.18,7.27.12,14.75.18,22.26.18,29.13,0,56.21-.88,74.29-2.43,1.44-.12,2.68-1.09,3.17-2.41.17-.48.25-.97.23-1.44l-.92-24.19s0-.08,0-.13Z"/>
            <path class="cls-25" d="M168.68,67.91c-.06-.66-.12-1.31-.19-1.97l-.11-1c-.03-.3-.07-.6-.11-.9l-.11-.84c-.03-.24-.07-.48-.1-.73l-.04-.28c-.05-.33-.09-.65-.15-.97l-.07-.41c-2.78-16.97-10.42-30.51-22.15-40.93-.01-.01-.03-.02-.04-.03-.5-.44-1.02-.86-1.57-1.3l-.65-.51c-.27-.21-.54-.42-.81-.63-1.14-.87-2.36-1.72-3.6-2.56-.01,0-.02-.02-.04-.03,0,0-.02-.01-.03-.02-.43-.29-.88-.58-1.33-.86-.03-.02-.05-.03-.08-.05-3.9-2.41-8.13-4.59-12.62-6.37-.29-.11-.57-.23-.86-.34-.3-.12-.6-.23-.89-.34-.6-.23-1.2-.44-1.82-.66-.04-.01-.08-.03-.12-.04-14.43-5.02-26.75-5.08-27.28-5.08-2.95,0-5.9.12-8.78.3-.04,0-.08,0-.12,0-.01,0-1.32.05-1.33.05-.26.01-.51.05-.76.12-21.87,1.85-38.95,9.17-50.75,21.76-6.39,6.82-11.23,15.25-14.39,25.05-.09.17-.16.35-.21.53-.43,1.38-.83,2.79-1.21,4.27-6.6,3.16-11.13,9.54-13.48,18.97-2.23,8.94-1.87,18.24-1.45,23,.17,1.93,1.77,3.39,3.71,3.39h4.18c.41.15.84.23,1.28.23h26.55c.44,0,.87-.08,1.28-.23h30.09c.39,0,.77-.06,1.13-.18,7.27.12,14.75.18,22.26.18,29.13,0,56.21-.88,74.29-2.43,1.44-.12,2.68-1.09,3.17-2.41.17-.48.25-.97.23-1.43l-.92-24.19s0-.08,0-.13Z"/>
            <path class="cls-3" d="M168.46,67.7c-.05-.66-.12-1.31-.19-1.97l-.11-1c-.03-.3-.07-.6-.11-.9l-.11-.84c-.03-.24-.07-.48-.1-.73l-.04-.28c-.05-.33-.09-.65-.15-.98l-.07-.41c-2.78-16.97-10.63-30.28-22.15-40.93-.01-.01-.03-.02-.04-.03-.49-.45-1.02-.86-1.57-1.3l-.65-.51c-.27-.21-.54-.42-.81-.63-1.14-.87-2.34-1.75-3.6-2.56-.01,0-.02-.02-.04-.03,0,0-.02-.01-.03-.02-.44-.28-.87-.59-1.33-.86-.03-.02-.05-.03-.08-.05-3.87-2.46-8.13-4.59-12.62-6.37-.29-.11-.57-.23-.86-.34-.3-.12-.6-.23-.89-.34-.6-.23-1.2-.44-1.82-.66-.04-.01-.08-.03-.12-.04C106.49,1.05,94.22.84,93.7.84c-2.95,0-5.9.11-8.78.3-.04,0-.08,0-.12,0-.01,0-1.32.05-1.32.05-.27.01-.52.05-.77.12-21.87,1.85-38.95,9.17-50.75,21.76-6.39,6.82-11.23,15.25-14.39,25.05-.09.17-.16.35-.21.53-.43,1.38-.83,2.79-1.21,4.27-6.6,3.16-11.13,9.54-13.48,18.97-2.23,8.94-1.87,18.24-1.45,23,.17,1.94,1.77,3.39,3.71,3.39h4.18c.41.15.84.23,1.28.23h26.55c.44,0,.87-.08,1.28-.23h30.09c.39,0,.77-.06,1.13-.18,7.27.12,14.75.18,22.26.18,29.13,0,56.21-.88,74.29-2.43,1.44-.12,2.68-1.09,3.17-2.41.17-.48.25-.97.23-1.44l-.92-24.19s0-.08,0-.13Z"/>
            <path class="cls-1" d="M168.23,67.49c-.05-.66-.12-1.31-.19-1.97l-.11-1c-.03-.3-.07-.6-.11-.9l-.11-.84c-.03-.24-.07-.48-.1-.73l-.04-.28c-.05-.33-.1-.65-.15-.98l-.07-.41c-2.78-16.97-10.63-30.28-22.15-40.93-.01-.01-.03-.02-.04-.03-.5-.44-1.02-.86-1.57-1.3l-.65-.51c-.27-.21-.54-.42-.81-.63-1.14-.87-2.34-1.75-3.6-2.56-.01,0-.02-.02-.04-.02,0,0-.02-.01-.03-.02-.43-.31-.88-.58-1.33-.86-.03-.02-.05-.03-.08-.05-3.87-2.46-8.13-4.59-12.62-6.37-.29-.12-.57-.23-.86-.34-.3-.11-.59-.23-.89-.34-.6-.23-1.2-.45-1.82-.66-.04-.01-.08-.03-.12-.04C106.34.62,94,.63,93.47.63c-2.95,0-5.9.12-8.78.31-.04,0-.08,0-.12,0-.01,0-1.33.05-1.33.05-.26.01-.51.05-.76.12-21.87,1.85-38.94,9.17-50.75,21.76-6.39,6.82-11.23,15.25-14.39,25.05-.09.17-.16.35-.21.53-.43,1.38-.83,2.79-1.21,4.27-6.6,3.16-11.13,9.54-13.48,18.98-2.23,8.94-1.87,18.24-1.45,23,.17,1.94,1.77,3.39,3.7,3.39h4.18c.41.15.84.23,1.28.23h26.55c.44,0,.87-.08,1.28-.23h30.09c.39,0,.77-.06,1.13-.18,7.27.12,14.75.18,22.26.18,29.13,0,56.21-.88,74.29-2.43,1.44-.12,2.68-1.09,3.17-2.41.17-.48.25-.97.23-1.44l-.92-24.19s0-.09,0-.13Z"/>
            <path class="cls-4" d="M168,67.28c-.05-.66-.12-1.31-.19-1.97l-.11-1c-.03-.3-.07-.6-.11-.9l-.11-.84c-.03-.24-.07-.48-.1-.73l-.04-.28c-.05-.32-.09-.65-.15-.98l-.07-.41c-2.78-16.97-10.42-30.52-22.15-40.93-.01-.01-.03-.02-.04-.03-.49-.45-1.02-.86-1.57-1.3l-.65-.51c-.27-.21-.54-.42-.81-.63-1.14-.87-2.36-1.72-3.6-2.56-.01,0-.02-.02-.04-.03,0,0-.02-.01-.03-.02-.44-.29-.87-.59-1.33-.86-.03-.02-.05-.03-.08-.05-3.82-2.54-8.13-4.58-12.62-6.37-.29-.11-.57-.23-.86-.34-.3-.11-.6-.23-.89-.34-.6-.23-1.2-.45-1.82-.66-.04-.01-.08-.03-.12-.04C106.04.63,93.77.42,93.24.42c-2.95.01-5.9.11-8.78.3-.04,0-.08,0-.12,0-.01,0-1.32.05-1.33.05-.26.01-.51.05-.76.12-21.87,1.85-38.95,9.17-50.75,21.76-6.39,6.82-11.23,15.25-14.39,25.05-.09.17-.16.35-.21.53-.43,1.38-.83,2.79-1.21,4.27-6.6,3.16-11.13,9.54-13.48,18.97C-.01,80.42.35,89.73.77,94.48c.17,1.94,1.77,3.39,3.71,3.39h4.18c.41.15.84.23,1.28.23h26.55c.44,0,.87-.08,1.28-.23h30.09c.39,0,.77-.06,1.13-.18,7.27.12,14.75.18,22.26.18,29.13,0,56.21-.88,74.29-2.43,1.44-.12,2.68-1.09,3.17-2.41.17-.48.25-.97.23-1.44l-.92-24.19s0-.09,0-.13Z"/>
            <path class="cls-8" d="M167.78,67.07c-.05-.66-.12-1.31-.19-1.97l-.11-1c-.03-.3-.07-.6-.11-.9l-.11-.84c-.03-.24-.07-.48-.1-.73l-.04-.28c-.05-.33-.09-.65-.15-.98l-.07-.41c-2.78-16.97-10.63-30.28-22.15-40.93-.01-.01-.03-.02-.04-.03-.51-.43-1.02-.86-1.57-1.3l-.65-.51c-.27-.21-.54-.42-.81-.63-1.14-.87-2.38-1.7-3.6-2.56-.01,0-.02-.01-.04-.02,0,0-.02-.01-.03-.02-.42-.31-.87-.59-1.33-.86-.03-.01-.05-.03-.08-.05-3.85-2.49-8.13-4.58-12.62-6.37-.29-.11-.57-.23-.86-.34-.3-.12-.6-.23-.89-.34-.6-.23-1.2-.45-1.82-.66-.04-.01-.08-.03-.12-.04C105.86.27,93.54.21,93.02.21c-2.95,0-5.9.12-8.78.31-.04,0-.08,0-.12,0-.01,0-1.33.05-1.33.05-.26.01-.52.05-.77.12-21.87,1.85-38.95,9.17-50.75,21.76-6.39,6.82-11.23,15.25-14.39,25.05-.09.17-.16.35-.21.53-.43,1.38-.83,2.79-1.21,4.27-6.6,3.16-11.13,9.54-13.48,18.97C-.24,80.21.12,89.52.54,94.27c.17,1.94,1.77,3.39,3.71,3.39h4.18c.41.15.84.23,1.28.23h26.55c.44,0,.87-.08,1.28-.23h30.09c.39,0,.77-.06,1.13-.18,7.27.12,14.75.18,22.26.18,29.13,0,56.21-.88,74.29-2.43,1.44-.12,2.68-1.09,3.17-2.41.17-.48.25-.97.23-1.44l-.92-24.19s0-.09,0-.13Z"/>
            <path class="cls-9" d="M167.55,66.86c-.06-.66-.12-1.31-.19-1.97l-.11-1c-.03-.3-.07-.6-.11-.9l-.11-.84c-.03-.24-.07-.48-.1-.73l-.04-.28c-.05-.33-.09-.65-.15-.98l-.07-.41c-2.78-16.97-10.23-30.74-22.15-40.93-.01-.01-.03-.02-.04-.03-.5-.43-1.02-.86-1.57-1.3l-.65-.51c-.27-.21-.54-.42-.81-.63-1.14-.87-2.35-1.73-3.6-2.56-.01,0-.02-.02-.04-.03,0,0-.02-.01-.03-.02-.44-.29-.88-.57-1.33-.86-.03-.01-.05-.03-.08-.05-3.88-2.44-8.13-4.59-12.62-6.37-.29-.12-.57-.23-.86-.34-.3-.11-.6-.23-.89-.34-.6-.22-1.2-.44-1.82-.66-.04-.01-.08-.03-.12-.04C105.64.06,93.32,0,92.79,0c-2.95.01-5.9.12-8.78.31-.04,0-.08,0-.12,0-.01,0-1.32.05-1.33.05-.26.01-.51.05-.76.12-21.87,1.85-38.94,9.17-50.75,21.76-6.39,6.82-11.23,15.25-14.39,25.05-.09.17-.16.35-.21.53-.43,1.38-.83,2.79-1.21,4.27-6.6,3.16-11.13,9.54-13.48,18.97C-.47,80-.1,89.3.31,94.06c.17,1.94,1.77,3.39,3.7,3.39h4.18c.41.15.84.23,1.28.23h26.55c.44,0,.87-.08,1.28-.23h30.09c.39,0,.77-.06,1.13-.18,7.27.12,14.75.18,22.26.18,29.13,0,56.21-.88,74.29-2.43,1.44-.12,2.69-1.08,3.17-2.41.18-.47.25-.97.23-1.44l-.92-24.19s0-.09,0-.13Z"/>
          </g>
          <path class="cls-7" d="M167.55,66.86c-.06-.66-.12-1.31-.19-1.97l-.11-1c-.03-.3-.07-.6-.11-.9l-.11-.84c-.03-.24-.07-.48-.1-.73l-.04-.28c-.05-.33-.09-.65-.15-.98l-.07-.41c-2.78-16.97-10.23-30.74-22.15-40.93-.01-.01-.03-.02-.04-.03-.5-.43-1.02-.86-1.57-1.3l-.65-.51c-.27-.21-.54-.42-.81-.63-1.14-.87-2.35-1.73-3.6-2.56-.01,0-.02-.02-.04-.03,0,0-.02-.01-.03-.02-.44-.29-.88-.57-1.33-.86-.03-.01-.05-.03-.08-.05-3.88-2.44-8.13-4.59-12.62-6.37-.29-.12-.57-.23-.86-.34-.3-.11-.6-.23-.89-.34-.6-.22-1.2-.44-1.82-.66-.04-.01-.08-.03-.12-.04C105.64.06,93.32,0,92.79,0c-2.95.01-5.9.12-8.78.31-.04,0-.08,0-.12,0-.01,0-1.32.05-1.33.05-.26.01-.51.05-.76.12-21.87,1.85-38.94,9.17-50.75,21.76-6.39,6.82-11.23,15.25-14.39,25.05-.09.17-.16.35-.21.53-.43,1.38-.83,2.79-1.21,4.27-6.6,3.16-11.13,9.54-13.48,18.97C-.47,80-.1,89.3.31,94.06c.17,1.94,1.77,3.39,3.7,3.39h4.18c.41.15.84.23,1.28.23h26.55c.44,0,.87-.08,1.28-.23h30.09c.39,0,.77-.06,1.13-.18,7.27.12,14.75.18,22.26.18,29.13,0,56.21-.88,74.29-2.43,1.44-.12,2.69-1.08,3.17-2.41.18-.47.25-.97.23-1.44l-.92-24.19s0-.09,0-.13Z"/>
          <g>
            <g>
              <path class="cls-29" d="M165.69,91.29l-.92-24.19c-.05-.64-.12-1.27-.18-1.9-.02-.2-.04-.4-.07-.6-.02-.13-.03-.27-.05-.4-.03-.29-.07-.57-.1-.86-.04-.28-.07-.55-.11-.83-.03-.23-.06-.46-.1-.69-.01-.1-.03-.2-.04-.29-.04-.31-.09-.62-.14-.93-.02-.14-.05-.27-.07-.41-2.67-16.33-9.78-29.49-21.21-39.27,0,0-.02-.02-.03-.03-.48-.41-.97-.82-1.47-1.22-.08-.06-.16-.13-.24-.19-.13-.11-.26-.21-.4-.31,0,0-.02-.01-.02-.02-.26-.2-.52-.4-.78-.6-1.12-.85-2.27-1.67-3.46-2.46-.01,0-.03-.02-.04-.02,0,0-.01,0-.02,0-.42-.28-.85-.56-1.29-.83,0,0-.02,0-.03-.01-3.76-2.37-7.84-4.43-12.22-6.17-.28-.11-.55-.22-.83-.33-.29-.11-.58-.22-.87-.33-.58-.22-1.16-.43-1.74-.63-.04-.01-.07-.02-.1-.04-13.97-4.86-25.79-4.93-26.38-4.93-3.03.01-5.97.12-8.83.32-.03,0-.05-.01-.08-.01-.01,0-1.2.05-1.2.05-.12,0-.23.03-.34.08-21.32,1.75-37.87,8.76-49.26,20.92-6.82,7.28-11.15,15.77-13.85,24.26-.05.07-.09.15-.12.24-.57,1.82-1.06,3.64-1.49,5.46-.12.04-.2.06-.21.07-.02,0-.03.01-.05.02-6.3,2.62-10.64,8.52-12.89,17.54-2.13,8.54-1.78,17.5-1.38,22.08.04.48.44.85.93.85h4.86c.16.14.38.23.61.23h26.55c.23,0,.44-.09.61-.23h30.76c.21,0,.4-.07.55-.19,7.38.12,15.03.19,22.84.19,29.05,0,56.04-.88,74.05-2.42.37-.03.67-.28.79-.61.04-.11.06-.23.05-.35Z"/>
              <g>
                <g>
                  <g>
                    <path class="cls-15" d="M164.46,83.48l-.62-16.31C158.46,3.57,92.8,3.72,92.8,3.72,19.82,3.98,14.71,58.29,16.25,83.55c.19,3.08.47,5.72.75,7.79,17.24,1.46,43.88,2.4,73.79,2.4s56.74-.94,73.97-2.41l-.3-7.84Z"/>
                    <path class="cls-5" d="M164.46,83.48l-.62-16.31C158.46,3.57,92.8,3.72,92.8,3.72,19.82,3.98,14.71,58.29,16.25,83.55c.19,3.08.47,5.72.75,7.79,17.24,1.46,43.88,2.4,73.79,2.4s56.74-.94,73.97-2.41l-.3-7.84Z"/>
                  </g>
                  <g class="cls-12">
                    <g class="cls-13">
                      <path class="cls-26" d="M164.46,83.48l-.62-16.31C159.46,15.32,115.01,5.84,98.74,4.11c5.25,2.2,8.74,5.23,8.74,5.23l-14.88,3.8,15.94-.3c4.1,1.52,9.11,9.41,9.11,9.41l-5.16-10.17,2.73.3c5.77,2.58,14.72,15.03,14.72,15.03l-12.14,1.82c2.28,2.73,4.55,12.6,4.55,12.6l-21.25,3.03,21.86-.3,2.28,13.66-16.24,3.64,33.25.46.76,15.94-15.08,1.22-1.47,10.79c-3.95.61-34.76,1.24-34.76,1.24l-1.82-8.78-.61,8.71h-17.61l-.61-9.25,18.82-2.04-20.34-1.55s.45-15.34-11.54-22.78c-11.99-7.44-32.49-3.19-35.98-3.19-1.79,0-2.11-1.87-1.99-3.7-4,12.72-4.31,25.55-3.75,34.62.19,3.08.47,5.72.75,7.79,17.24,1.46,43.88,2.4,73.79,2.4s56.74-.95,73.97-2.41l-.3-7.85Z"/>
                    </g>
                  </g>
                  <g>
                    <path class="cls-30" d="M67.4,93.73c.08-5.7-.38-20.24-6.44-30.29-4.41-7.31-10.39-9-14.69-9.1l-24.03.04-.28,39.35h45.45Z"/>
                    <path class="cls-2" d="M67.4,93.73c.08-5.7-.38-20.24-6.44-30.29-4.41-7.31-10.39-9-14.69-9.1l-24.03.04-.28,39.35h45.45Z"/>
                    <g class="cls-16">
                      <path class="cls-26" d="M60.96,63.44c-3.29-5.45-7.46-7.78-11.15-8.65.25.1.5.2.75.31.94.4,1.86.87,2.67,1.5.81.63,1.41,1.37,2.05,2.16.48.58.95,1.18,1.36,1.82.27.43.76,1.12.64,1.67-.1.47-.7.59-1.1.69-.22.06-.45.1-.68.15.58,0,1.16,0,1.68.15.83.25,1.25.97,1.57,1.73,1.39,3.33,2.12,6.87,2.73,10.42,0,.07,0,.13-.07.17-1.35.76-2.83,1.21-4.28,1.74.94-.16,2.44.21,3.39.65,1,.47.66.94.85,1.98.52,2.68,1.16,5.59.68,8.33-.19,1.06-12.25,2.9-12.5,1.96-.45-1.75-.96-3.46-1.53-5.18-.62-1.88-1.23-3.79-1.32-5.79,0-.07.05-.12.11-.14,1.46-.46,3.19-.37,4.51-1.19-1.14-.2-2.33,0-3.47.05-.87.04-2.15.14-2.9-.4-.63-.45-.91-1.27-1.14-1.98-.31-.99-.52-2-.76-3-.32-1.33-.93-2.58-1.36-3.89-.23-.71-.41-1.42-.65-2.12-.07-.2-.2-.47-.15-.69.15-.63,1.2-1.1,1.72-1.31.94-.4,1.96-.55,2.95-.82-2.02-.66-4.37.4-6.3-.61-.85-.45-1.41-1.18-2.02-1.9-.72-.85-1.54-1.62-2.41-2.3-2.86-2.25-6.37-3.98-10.02-4.57h-2.58s-.28,39.36-.28,39.36h45.45c.08-5.7-.38-20.24-6.44-30.29Z"/>
                    </g>
                    <path class="cls-5" d="M44.33,93.73c.08-5.7-.38-20.24-6.44-30.29-7.69-12.75-20.17-8.39-20.17-8.39-13.59,5.66-14.76,26.54-13.7,38.68h40.31Z"/>
                    <path class="cls-17" d="M14.91,56.77c3.22-1.58,6.72-2.1,10.21-1.16,3.97,1.08,7.17,3.34,9.71,6.57,2.43,3.08,3.99,6.77,5.15,10.48,1.38,4.42,2.49,8.97,3.37,13.52.44,2.24.77,4.49.99,6.73.02-6.18-.66-19.87-6.45-29.47-7.69-12.75-20.17-8.39-20.17-8.39-1.53.64-2.9,1.47-4.13,2.46.42-.26.86-.52,1.32-.74Z"/>
                    <path class="cls-17" d="M36.31,93.73c.05-4.25-.25-15.09-4.33-22.59-5.17-9.51-13.56-6.26-13.56-6.26-9.14,4.22-9.93,19.79-9.21,28.85h27.11Z"/>
                    <path class="cls-19" d="M36.03,93.73c.05-4.17-.25-14.78-4.25-22.12-5.07-9.31-13.28-6.13-13.28-6.13-8.96,4.13-9.72,19.38-9.02,28.25h26.55Z"/>
                    <g class="cls-6">
                      <path class="cls-11" d="M56.12,62.67c-2.59-7.15-9.38-8.4-9.38-8.4l-1.7.18c6.61.8,11.08,8.22,11.08,8.22Z"/>
                      <path class="cls-11" d="M62.45,77.31c1.9-.43,3.03-.78,3.03-.78l-10.96.77c-.31-6.35-2.44-11.46-3.28-13.24,6.12-.5,9.17-1.59,9.17-1.59l-18.06,1.2c-2.96-7.99-10.58-9.4-10.58-9.4l-1.92.2c6.98.85,11.84,8.2,12.48,9.19l-4.79.32c5,.4,9.16.37,12.52.16,2.41,3.82,3.9,10.87,4.35,13.16l-12.11.85c1.1.19,2.2.33,3.29.43l3.59,14.54c-.42-7-1.76-12.73-2.19-14.45,5.71.33,11-.44,14.44-1.15l2.73,11.05c-.33-5.49-1.38-9.98-1.71-11.27Z"/>
                    </g>
                  </g>
                  <polygon class="cls-17" points="4.22 88.47 8.97 88.67 8.97 87.51 4.22 88.47"/>
                  <polygon class="cls-17" points="4.97 78.59 9.41 80.3 9.78 79.19 4.97 78.59"/>
                  <polygon class="cls-17" points="8.2 64.82 13.13 69.98 12.6 70.74 8.2 64.82"/>
                  <polygon class="cls-17" points="19.43 55.63 19.66 64.59 20.88 64.36 19.43 55.63"/>
                  <polygon class="cls-17" points="28.16 66.72 29.07 67.55 33.48 62.24 28.16 66.72"/>
                  <polygon class="cls-17" points="33.93 76.2 34.21 77.04 40.28 74.66 33.93 76.2"/>
                  <polygon class="cls-17" points="36.06 86.65 36.13 87.53 42.6 86.7 36.06 86.65"/>
                  <path class="cls-20" d="M10.63,61.76c-.61.69-1.16,1.47-1.66,2.31.68.92,1.39,1.8,2.1,2.69,2.1-3.92,5.18-7.35,9.69-9.46,0,0-5.25-1.12-10.12,4.46Z"/>
                  <path class="cls-20" d="M7.41,78.33c.47-3.02,1.25-6.2,2.53-9.2-.81-.75-1.59-1.53-2.35-2.33-1.36,3.19-2.23,6.95-2.72,10.76.83.31,1.68.54,2.54.77Z"/>
                  <path class="cls-20" d="M6.77,87.4c-.01-1.98.07-4.36.35-6.91-.84-.21-1.67-.47-2.51-.67-.26,2.79-.33,5.55-.26,8.07.82-.07,1.63-.25,2.42-.48Z"/>
                  <path class="cls-20" d="M4.43,89.73c.08,1.3.19,2.52.33,3.6l2.33-.3s-.18-1.37-.27-3.59c-.8.11-1.59.2-2.39.29Z"/>
                  <path class="cls-20" d="M21.66,50.32S27.94,6.3,91.69,4.33c0,0-15.18,1.67-25.91,5.31,0,0-6.58,1.82-7.69,3.04l5.67.1-9.71,1.31s-10.83,5.67-14.47,10.42l11.03,2.33-12.24-.61s-6.17,7.49-8.7,14.88l5.06.5-5.97.51-2.93,7.79-4.15.41Z"/>
                  <g class="cls-21">
                    <path class="cls-22" d="M163.18,75.58c.21-.04.3-.06.3-.06-.1.02-.2.04-.3.06Z"/>
                    <path class="cls-22" d="M143.07,26.08c.34-.06.51-.1.51-.1-.17.04-.34.06-.51.1Z"/>
                    <path class="cls-22" d="M129.6,79.99c11.48-.8,23.14-2.16,33.58-4.41-1.18.24-5.85,1.13-15.24,2.07.37-8.23-.06-16.23-.17-18.04,4.2-.59,8.3-1.31,12.22-2.16,0,0-24.59,4.1-96.39,3.19,0,0,2.19.2,6,.47l.75,15.09,1.34-14.95c8.09.52,21.46,1.17,36.5,1.01l.94,14.4.74-14.42c11.63-.16,24.17-.81,35.97-2.37,1.22,4.36,1.92,15.6,2.05,17.78-14.3,1.42-39.54,2.93-80.05,2.42,0,0,8.51.6,21.22.83l.49,12.73.78-12.71c10.61.17,23.93.07,37.6-.81l.48,12.62,1.17-12.73Z"/>
                    <path class="cls-22" d="M37.17,40.96s4.88-10.78,7.22-13.46c6.47.61,16.72,1.45,28.8,1.95-.4,1.94-1.57,8.2-1.31,13.89,0,0,1.38-9.95,2.92-13.82,9.39.36,19.8.52,30.37.21l2.4,13.41-.68-13.47c9.8-.33,19.69-1.07,28.98-2.41.58,1.03,4.92,8.78,6.71,14.25,0,0-1.59-8.52-5.15-14.49,1.91-.29,3.78-.61,5.63-.95-.83.15-2.69.45-5.72.8,0-.01-.01-.02-.02-.04l-.46.09c-12.34,1.4-42.73,3.45-99.88-.21,0,0,1.74.21,4.85.52-.37.78-3.49,7.4-4.67,13.71Z"/>
                    <path class="cls-22" d="M18.75,54.34l5.54-12.14-1.21-.53s-3.04,8.04-4.33,12.67Z"/>
                    <path class="cls-22" d="M59.2,26.11s4.8-10.28,8.09-13.73c5.94.53,13.52,1.04,21.71,1.15l.76,13.72.38-13.7c7.08.06,14.57-.18,21.8-.95,1.52,1.79,6.49,7.86,8.28,12.91,0,0-2.39-8.77-6.33-13.14,3.35-.41,6.63-.94,9.77-1.61,0,0-18.09,3.4-68.9.21,0,0,4.31.64,11.11,1.28-1.15,1.5-4.61,6.41-6.67,13.86Z"/>
                    <path class="cls-22" d="M83.9,4.02l-1.17.05s-3.03,3.72-4.15,7.59c0,0,3.12-5.63,5.31-7.64Z"/>
                    <path class="cls-22" d="M101.2,11.67c-1.12-3.87-4.15-7.59-4.15-7.59l-1.17-.05c2.19,2.01,5.31,7.64,5.31,7.64Z"/>
                    <path class="cls-22" d="M89.07,45.44l.5,12.98.79-12.97c11.16.09,22.88-.15,34.36-.91.53,1.43,1.84,5.6,3,14.28,0,0-.36-9.91-1.39-14.39,5.06-.35,10.07-.82,14.95-1.4,4.11-.38,9.66-1.16,12.45-1.31.71-.04,1.29-.02,1.76.03.96,1.96,3.65,7.87,4.52,13.89,0,0-1.21-8.53-3.56-13.71.42.13.66.3.8.45l-.98-2.17c-2.74.56-11.14,1.8-14.61,2.31-18.44,1.62-55.16,3.19-115.99-.71,0,0,11.17,1.27,27.89,2.32-.23,1.12-1.46,7.31-1.25,11.51l3.04-11.4c9.83.59,21.43,1.09,33.73,1.21Z"/>
                    <path class="cls-22" d="M157.23,42.38l.18.41s.01-.19-.18-.41Z"/>
                  </g>
                  <path class="cls-14" d="M10.93,87.87l22.16-.71s-13.36,2.02-22.16.71Z"/>
                  <path class="cls-14" d="M11.84,80.06l21.66-.62s-13.05,1.77-21.66.62Z"/>
                  <path class="cls-14" d="M13.77,70.76l15.59-.4s-7.29,1.31-15.59.4Z"/>
                  <path class="cls-14" d="M18.07,70.81s-2.43,3.7-2.43,9.16c0,0-.81-5.92,1.42-9.11l1.01-.05Z"/>
                  <path class="cls-14" d="M28.69,70.51s-2.43,3.69-2.43,9.16c0,0-.81-5.92,1.42-9.11l1.01-.05Z"/>
                  <path class="cls-14" d="M22.12,70.62s1.52-3.8,3.34-4.96c0,0-2.12,2.43-2.48,4.96h-.86Z"/>
                  <path class="cls-14" d="M20.4,80.22s-.35,4.1,0,7.74l.66-7.79-.66.05Z"/>
                  <path class="cls-14" d="M15.28,88.17l-.15,5.01s-.96-5.06-.81-5.11c.15-.05.96.1.96.1Z"/>
                  <path class="cls-14" d="M26.82,87.72l-.15,5.45s-.96-5.51-.81-5.56c.15-.06.96.11.96.11Z"/>
                  <path class="cls-14" d="M31.83,79.47c0,.15-.88,4.76-.84,7.69,0,0-.56-5.26-.23-7.59l1.07-.1Z"/>
                  <g class="cls-13">
                    <path class="cls-19" d="M31.79,71.73c-4.1-7.54-10.26-6.94-12.47-6.42,2.39.07,5.27.58,7.07,2.48l.32,1.79-7.28,1,6.48.7s-1.42,4.85-1.42,7.49l-8.85,1.21,8.15.51s-.41,4.35-.3,6.17l-9.72,1.21,9.41.6-.3,3.54-6.76-.3-1.8-2.02v2.53l-3.31-.4s-1.73-7.84.18-16.91c-2.04,6.11-2.12,13.71-1.7,19.06h26.55c.05-4.22-.25-14.89-4.25-22.24Z"/>
                  </g>
                </g>
                <g class="cls-12">
                  <g class="cls-13">
                    <path class="cls-26" d="M164.46,83.48l-.62-16.31c-3.34-39.45-29.86-54.37-49.53-60.01,2.64,1.47,3.33,2.79,3.33,2.79l-4.4,2.12,8.5-.76c6.38,1.82,16.39,13.51,16.39,13.51,0,0-4.93,2.46-5.16,2.58.3-.15,3.49,0,3.49,0l5.31,14.27-8.2,2.28,14.42.91,2.73,10.32-18.37,4.86,14.12-.31,1.82,5.47,2.58-5.77,2.28,16.55-7.44,2.43,7.29-.76.76,12.45c-8.65,1.37-23.07,1.52-23.07,1.52l-1.82-7.13-1.36,8.76c14.7-.42,27.49-1.08,37.24-1.91l-.3-7.84Z"/>
                  </g>
                </g>
              </g>
            </g>
            <path class="cls-29" d="M41.68,69.33c-2.22-6.2-6.37-11.86-12.62-14.41-3.23-1.32-6.84-1.72-10.2-.67-.07.02-.2.25-.08.22,6.3-1.26,12.7,1.36,16.88,6.12,4.55,5.18,6.57,12.06,7.5,18.76.6,4.29.81,8.63,1.16,12.94.04.48.82-.28.79-.64-.64-7.49-.86-15.17-3.43-22.32Z"/>
            <path class="cls-29" d="M66.84,79.19c-.73-4.19-1.94-8.34-3.7-12.21-1.6-3.53-3.79-6.84-6.85-9.26-1.43-1.13-3.03-2.05-4.75-2.66-2.12-.74-4.35-.92-6.57-.99-2.55-.08-5.1-.1-7.64-.15-2.7-.05-5.42-.17-8.12-.02-.09,0-.27.26-.14.28,4.46.47,9.01.36,13.49.47,2.18.06,4.38.07,6.52.51,1.95.4,3.78,1.2,5.43,2.31,6.69,4.48,9.84,13.05,11.36,20.62.46,2.32.77,4.67.91,7.03.15,2.47.04,4.92-.02,7.38,0,.39.6-.23.63-.43.54-4.23.18-8.68-.54-12.87Z"/>
          </g>
        </g>
      </g>
    </g>
  </g>
</svg>