<?xml version="1.0" encoding="UTF-8"?>
<svg xmlns="http://www.w3.org/2000/svg" width="87.48" height="100" viewBox="0 0 87.48 100">
  <defs>
    <style>
      .cls-1 {
        fill: #5e2c00;
      }

      .cls-2 {
        fill: #8b8b8b;
      }

      .cls-3 {
        fill: #9a9a9a;
      }

      .cls-4 {
        fill: #7d7d7d;
      }

      .cls-5 {
        fill: #fff;
      }

      .cls-6 {
        fill: #858484;
      }

      .cls-7 {
        fill: #6e6e6e;
      }

      .cls-8 {
        fill: #606060;
      }

      .cls-9 {
        fill: #e2e2e2;
      }

      .cls-10 {
        isolation: isolate;
      }

      .cls-11 {
        fill: #f1f1f1;
      }

      .cls-12 {
        fill: #c5c5c5;
      }

      .cls-13 {
        mix-blend-mode: multiply;
      }

      .cls-14 {
        fill: #a8a8a8;
      }

      .cls-15 {
        fill: #ee000f;
      }

      .cls-16 {
        mix-blend-mode: screen;
        opacity: .7;
      }

      .cls-17 {
        fill: #d4d4d4;
      }

      .cls-18 {
        fill: #b7b7b7;
      }

      .cls-19 {
        fill: #bc0f0b;
      }

      .cls-20 {
        fill: #b5b5b5;
      }
    </style>
  </defs>
  <g class="cls-10">
    <g id="Layer_2" data-name="Layer 2">
      <g id="Layer_1-2" data-name="Layer 1">
        <g>
          <g class="cls-13">
            <path class="cls-5" d="M75.24,10.67c-1.04-1-4.08-2.92-4.95-3.38-.51-.28-1.34-.65-1.89-.89-.5-.32-1.26-.8-1.78-1.06-.88-.48-4.1-1.91-5.49-2.23-4.51-1.4-8.09-1.51-9.07-1.51h-.32c-24.64,0-33.69,23.65-34.06,24.66,0,.02-.02.05-.03.07l-6.12,18.44s-.01.04-.02.06L1.96,73.62c-.4,1.21.12,2.54,1.25,3.14l3.64,1.95s.02,0,.02.01l11.45,6.12c.3.16.63.26.95.28h0c.44.05.85-.01,1.25-.17.72-.29,1.28-.88,1.51-1.61l16.13-48.63c.42-1.05,5.89-14.06,18.32-14.06h.26s.05,0,.08,0h0s1.55.05,3.57.7c1.52,1.2,2.38,2.33,2.55,2.56l.1.15c7.07,10.35-.73,22.24-1.38,23.18l-12.81,16.47s-.03.04-.05.06l-18.61,23.94c-.48.61-.66,1.41-.5,2.16.16.77.65,1.42,1.33,1.77l11.43,6.11s.03.01.04.02l3.61,1.93c.38.21.81.32,1.25.32.82,0,1.57-.37,2.07-1.01l18.62-23.94s.02-.03.03-.04l11.88-15.27s.02-.02.03-.04l.09-.12c.63-.88,15.38-21.72,1.39-42.25-.39-.58-2.49-3.63-6.24-6.66Z"/>
            <path class="cls-11" d="M75.07,10.53c-1.04-1-4.09-2.91-4.95-3.38-.51-.27-1.34-.65-1.89-.89-.5-.32-1.27-.8-1.78-1.06-.88-.47-4.1-1.91-5.49-2.23-4.51-1.4-8.09-1.51-9.07-1.51h-.32c-24.64,0-33.66,23.66-34.06,24.66,0,.02-.02.05-.03.07l-6.12,18.44s-.01.04-.02.06L1.8,73.47c-.41,1.21.12,2.54,1.25,3.14l3.64,1.95s.02,0,.02,0l11.46,6.12c.3.16.63.26.95.28h0c.44.06.85-.01,1.25-.17.72-.29,1.28-.88,1.51-1.61l16.13-48.63c.42-1.05,5.89-14.06,18.32-14.06h.26s.05,0,.08,0h0s1.55.05,3.57.7c1.52,1.21,2.38,2.33,2.55,2.56l.1.15c7.08,10.35-.73,22.24-1.38,23.18l-12.81,16.47s-.03.04-.05.06l-18.61,23.94c-.48.62-.66,1.41-.5,2.16.16.77.65,1.42,1.33,1.77l11.43,6.11s.03.01.04.02l3.61,1.93c.38.21.81.32,1.25.32.82,0,1.57-.37,2.07-1.01l18.62-23.94s.02-.03.03-.04l11.87-15.27s.02-.02.03-.04l.08-.12c.63-.88,15.26-21.64,1.39-42.25-.39-.58-2.49-3.63-6.24-6.66Z"/>
            <path class="cls-9" d="M74.91,10.38c-1.04-1-4.08-2.91-4.95-3.38-.51-.28-1.34-.65-1.89-.89-.5-.32-1.27-.79-1.77-1.06-.88-.47-4.1-1.91-5.49-2.23-4.51-1.4-8.09-1.51-9.07-1.51h-.32c-24.64,0-33.67,23.66-34.06,24.66,0,.02-.02.05-.03.07l-6.12,18.44s-.01.04-.02.06L1.63,73.33c-.4,1.21.12,2.54,1.25,3.14l3.64,1.94s.02,0,.02.01l11.45,6.12c.3.16.63.26.95.28h0c.44.05.85-.01,1.25-.17.72-.29,1.28-.88,1.51-1.61l16.13-48.63c.42-1.05,5.89-14.06,18.32-14.06h.25s.06,0,.08,0h0s1.55.05,3.57.7c1.52,1.2,2.38,2.33,2.55,2.56l.1.15c7.07,10.35-.73,22.24-1.38,23.18l-12.81,16.47s-.03.04-.05.06l-18.61,23.94c-.48.61-.66,1.41-.5,2.16.16.77.65,1.41,1.33,1.77l11.43,6.11s.02.01.04.02l3.61,1.93c.38.21.81.32,1.25.32.82,0,1.57-.37,2.07-1.01l18.62-23.94s.02-.03.03-.04l11.88-15.27s.02-.02.03-.03l.09-.12c.63-.88,15.25-21.63,1.39-42.25-.39-.58-2.49-3.63-6.24-6.66Z"/>
            <path class="cls-17" d="M74.74,10.24c-1.04-1-4.08-2.91-4.95-3.38-.51-.27-1.34-.65-1.89-.89-.5-.32-1.27-.79-1.78-1.07-.88-.47-4.1-1.91-5.49-2.23-4.51-1.4-8.09-1.51-9.07-1.51h-.32c-24.64,0-33.66,23.66-34.06,24.66,0,.02-.02.05-.03.07l-6.12,18.44s-.01.04-.02.06L1.46,73.18c-.4,1.21.12,2.54,1.25,3.14l3.64,1.94s.01,0,.02.01l11.45,6.12c.3.16.63.25.95.28h0c.44.06.85-.01,1.25-.17.72-.29,1.28-.88,1.51-1.61l16.13-48.63c.42-1.05,5.89-14.06,18.32-14.06h.26s.05,0,.08,0h0s1.55.05,3.57.7c1.52,1.2,2.38,2.33,2.55,2.56l.1.15c7.07,10.35-.73,22.24-1.38,23.19l-12.81,16.46s-.03.04-.05.06l-18.61,23.94c-.48.62-.66,1.41-.5,2.16.16.77.65,1.42,1.33,1.77l11.43,6.11s.02.01.04.02l3.61,1.93c.38.21.81.32,1.25.32.82,0,1.57-.37,2.07-1.01l18.62-23.94s.02-.03.03-.04l11.87-15.27s.02-.02.03-.03l.08-.12c.63-.88,15.25-21.63,1.39-42.25-.39-.58-2.49-3.63-6.24-6.66Z"/>
            <path class="cls-12" d="M74.57,10.09c-1.04-1-4.08-2.91-4.95-3.38-.51-.27-1.34-.65-1.89-.89-.5-.32-1.27-.79-1.78-1.06-.88-.47-4.1-1.91-5.49-2.23-4.51-1.4-8.09-1.51-9.07-1.51h-.32C26.43,1.02,17.4,24.68,17.01,25.68c0,.02-.02.05-.03.07l-6.12,18.44s-.01.04-.02.06L1.3,73.04c-.4,1.21.12,2.54,1.25,3.14l3.64,1.94s.01,0,.02.01l11.45,6.12c.3.16.63.26.95.28,0,0,0,0,0,0,.44.05.85-.01,1.25-.17.72-.29,1.28-.88,1.51-1.61l16.13-48.63c.42-1.05,5.89-14.06,18.32-14.06h.25s.05,0,.08,0h0s1.55.05,3.57.7c1.52,1.2,2.38,2.33,2.55,2.56l.1.15c7.07,10.35-.73,22.24-1.38,23.18l-12.81,16.47s-.03.04-.05.06l-18.61,23.94c-.48.61-.66,1.4-.5,2.16.16.77.65,1.41,1.33,1.77l11.43,6.11s.02.01.04.02l3.61,1.93c.38.21.81.32,1.25.32.82,0,1.57-.37,2.07-1.01l18.62-23.94s.02-.03.03-.04l11.88-15.27s.02-.02.03-.03l.08-.12c.63-.88,15.24-21.63,1.39-42.25-.39-.58-2.49-3.63-6.24-6.66Z"/>
            <path class="cls-18" d="M74.41,9.95c-1.04-1-4.08-2.91-4.95-3.38-.51-.27-1.34-.65-1.89-.89-.5-.32-1.27-.79-1.78-1.06-.88-.47-4.09-1.91-5.49-2.23-4.51-1.4-8.09-1.51-9.07-1.51h-.32c-24.64,0-33.66,23.66-34.06,24.66,0,.02-.02.05-.03.07l-6.12,18.44s-.01.04-.02.06L1.13,72.89c-.4,1.21.12,2.54,1.25,3.14l3.64,1.95s.01,0,.02.01l11.45,6.12c.3.16.63.26.95.28h0c.44.05.85-.01,1.25-.17.73-.29,1.28-.88,1.51-1.61l16.13-48.63c.42-1.05,5.89-14.06,18.32-14.06h.34s1.55.05,3.57.7c1.53,1.21,2.38,2.33,2.55,2.56l.1.15c7.08,10.35-.73,22.24-1.38,23.18l-12.81,16.47s-.03.04-.05.06l-18.61,23.94c-.48.61-.66,1.4-.5,2.16.16.77.65,1.41,1.33,1.77l11.43,6.11s.02.01.04.02l3.61,1.93c.38.21.81.32,1.25.32.82,0,1.57-.37,2.07-1.01l18.62-23.94s.02-.03.03-.04l11.88-15.27s.02-.02.03-.03l.08-.12c.63-.88,15.22-21.61,1.39-42.25-.39-.58-2.49-3.63-6.24-6.66Z"/>
            <path class="cls-14" d="M74.24,9.8c-1.04-1-4.08-2.91-4.95-3.38-.51-.27-1.34-.65-1.89-.89-.5-.32-1.27-.79-1.78-1.06-.88-.47-4.1-1.91-5.49-2.23-4.51-1.4-8.09-1.51-9.07-1.51h-.32C26.1.73,17.07,24.39,16.68,25.39c0,.02-.02.05-.03.07l-6.12,18.44s-.01.04-.02.06L.97,72.74c-.4,1.21.12,2.54,1.25,3.14l3.64,1.95s.02,0,.02.01l11.45,6.12c.3.16.63.26.95.28h0c.44.05.85-.01,1.25-.17.73-.29,1.28-.88,1.51-1.61l16.13-48.63c.42-1.05,5.89-14.06,18.32-14.06h.34s1.55.05,3.57.7c1.52,1.21,2.38,2.33,2.55,2.56l.1.15c7.08,10.35-.73,22.24-1.38,23.18l-12.81,16.47s-.03.04-.05.06l-18.61,23.94c-.48.61-.66,1.4-.5,2.16.16.77.65,1.41,1.33,1.77l11.43,6.11s.03.01.04.02l3.61,1.93c.38.21.81.32,1.25.32.82,0,1.57-.37,2.07-1.01l18.62-23.94s.02-.03.03-.04l11.88-15.27s.02-.02.03-.03l.09-.12c.63-.88,15.24-21.62,1.39-42.25-.39-.58-2.49-3.63-6.24-6.66Z"/>
            <path class="cls-3" d="M74.07,9.66c-1.04-1-4.08-2.91-4.95-3.38-.51-.27-1.34-.65-1.89-.89-.5-.32-1.27-.79-1.78-1.06-.88-.47-4.1-1.91-5.49-2.23-4.51-1.4-8.09-1.51-9.07-1.51h-.32c-24.64,0-33.65,23.67-34.06,24.66,0,.02-.02.05-.03.07l-6.12,18.44s-.01.04-.02.06L.8,72.6c-.4,1.21.12,2.54,1.25,3.14l3.64,1.95s.01,0,.02,0l11.45,6.12c.3.16.63.25.95.28h0c.44.05.85-.01,1.25-.17.73-.29,1.28-.88,1.51-1.61l16.13-48.63c.42-1.05,5.89-14.06,18.32-14.06h.26s.05,0,.08,0h0s1.55.05,3.57.7c1.52,1.2,2.38,2.33,2.55,2.56l.1.15c7.07,10.35-.73,22.24-1.38,23.19l-12.81,16.46s-.03.04-.05.06l-18.61,23.94c-.48.62-.66,1.41-.5,2.16.16.77.65,1.41,1.33,1.77l11.43,6.11s.02.01.04.02l3.61,1.93c.38.21.81.32,1.25.32.82,0,1.57-.37,2.07-1.01l18.62-23.94s.02-.03.03-.04l11.87-15.27s.02-.02.03-.03l.09-.12c.63-.88,15.25-21.63,1.39-42.25-.39-.58-2.49-3.63-6.24-6.66Z"/>
            <path class="cls-2" d="M73.91,9.51c-1.04-1-4.08-2.91-4.95-3.38-.51-.27-1.34-.65-1.89-.89-.5-.32-1.27-.79-1.78-1.06-.88-.47-4.09-1.91-5.49-2.23-4.51-1.4-8.09-1.51-9.07-1.51h-.32c-24.64,0-33.66,23.66-34.06,24.66,0,.02-.02.05-.03.07l-6.12,18.44s-.01.04-.02.06L.63,72.45c-.4,1.21.12,2.54,1.25,3.14l3.64,1.95s.01,0,.02.01l11.45,6.12c.3.16.63.25.95.28h0c.44.05.85-.01,1.25-.17.73-.29,1.28-.88,1.51-1.61l16.13-48.63c.42-1.05,5.89-14.06,18.32-14.06h.34s1.55.05,3.57.7c1.53,1.2,2.38,2.33,2.55,2.56l.1.15c7.08,10.35-.73,22.24-1.38,23.19l-12.81,16.46s-.03.04-.05.06l-18.61,23.94c-.48.61-.66,1.4-.5,2.16.16.77.65,1.41,1.33,1.77l11.43,6.11s.02.01.04.02l3.61,1.93c.38.21.81.32,1.25.32.82,0,1.57-.37,2.07-1.01l18.62-23.94s.02-.03.03-.04l11.88-15.27s.02-.02.03-.03l.08-.12c.64-.88,15.25-21.63,1.39-42.25-.39-.58-2.49-3.63-6.24-6.66Z"/>
            <path class="cls-4" d="M73.74,9.36c-1.04-1-4.08-2.91-4.95-3.38-.51-.27-1.34-.65-1.89-.89-.5-.32-1.26-.79-1.77-1.06-.88-.47-4.1-1.91-5.49-2.23-4.51-1.4-8.09-1.51-9.07-1.51h-.32c-24.64,0-33.64,23.67-34.06,24.66,0,.02-.02.05-.03.07l-6.12,18.44s-.01.04-.02.06L.47,72.31c-.4,1.21.12,2.54,1.25,3.14l3.64,1.95s.01,0,.02.01l11.45,6.12c.3.16.63.25.95.28h0c.44.06.85-.01,1.25-.17.73-.29,1.28-.88,1.51-1.61l16.13-48.63c.42-1.05,5.89-14.06,18.32-14.06h.25s.05,0,.08,0h0s1.55.05,3.57.7c1.52,1.2,2.38,2.33,2.55,2.56l.1.15c7.08,10.35-.73,22.24-1.38,23.19l-12.8,16.46s-.03.04-.05.06l-18.61,23.94c-.48.62-.66,1.41-.5,2.16.16.77.65,1.42,1.33,1.77l11.43,6.11s.02.01.04.02l3.61,1.93c.38.21.81.32,1.25.32.82,0,1.57-.37,2.07-1.01l18.62-23.94s.02-.03.03-.04l11.88-15.27s.02-.02.03-.03l.08-.12c.63-.88,15.24-21.62,1.39-42.25-.39-.58-2.49-3.63-6.24-6.66Z"/>
            <path class="cls-7" d="M73.57,9.22c-1.04-1-4.08-2.91-4.95-3.38-.51-.27-1.34-.65-1.89-.89-.5-.32-1.27-.79-1.78-1.06-.88-.47-4.1-1.91-5.49-2.23C54.95.26,51.38.15,50.4.15h-.32C25.43.15,16.41,23.81,16.01,24.81c0,.02-.02.05-.03.07l-6.12,18.44s-.01.04-.02.06L.3,72.16c-.41,1.21.12,2.54,1.25,3.14l3.64,1.95s.01,0,.02.01l11.45,6.12c.3.16.63.26.95.28h0c.43.05.85-.01,1.25-.17.72-.29,1.28-.88,1.51-1.61l16.13-48.63c.42-1.05,5.89-14.06,18.32-14.06h.34s1.55.05,3.57.7c1.53,1.2,2.38,2.33,2.55,2.56l.1.15c7.08,10.35-.73,22.24-1.38,23.19l-12.8,16.46s-.03.04-.05.06l-18.61,23.94c-.48.62-.66,1.41-.5,2.16.16.77.65,1.41,1.33,1.77l11.43,6.11s.02.01.04.02l3.61,1.93c.38.21.81.32,1.25.32.82,0,1.57-.37,2.07-1.01l18.62-23.94s.02-.03.03-.04l11.88-15.27s.01-.02.03-.03l.08-.12c.63-.88,15.23-21.62,1.39-42.25-.39-.58-2.49-3.63-6.24-6.66Z"/>
            <path class="cls-8" d="M73.41,9.07c-1.04-1-4.08-2.92-4.95-3.38-.51-.28-1.34-.65-1.89-.89-.5-.32-1.26-.8-1.78-1.06-.88-.48-4.1-1.91-5.49-2.23C54.79.11,51.21,0,50.23,0h-.32c-24.64,0-33.69,23.65-34.06,24.66,0,.02-.02.05-.03.07l-6.12,18.44s-.01.04-.02.06L.14,72.02c-.4,1.21.12,2.54,1.25,3.14l3.64,1.95s.01,0,.02.01l11.45,6.12c.3.16.63.25.95.28h0c.44.05.85-.01,1.25-.17.72-.29,1.28-.88,1.51-1.61l16.13-48.63c.42-1.05,5.89-14.06,18.32-14.06h.34s1.55.05,3.57.7c1.53,1.2,2.38,2.33,2.55,2.56l.1.15c7.08,10.35-.73,22.24-1.38,23.19l-12.8,16.46s-.03.04-.05.06l-18.61,23.94c-.48.62-.66,1.41-.5,2.16.16.77.65,1.41,1.33,1.77l11.43,6.11s.02.01.04.02l3.61,1.93c.38.21.81.32,1.25.32.82,0,1.57-.37,2.07-1.01l18.62-23.94s.02-.03.03-.04l11.88-15.27s.02-.02.03-.03l.08-.12c.63-.88,15.38-21.72,1.39-42.25-.38-.58-2.49-3.63-6.24-6.66Z"/>
          </g>
          <path class="cls-5" d="M73.41,9.07c-1.04-1-4.08-2.92-4.95-3.38-.51-.28-1.34-.65-1.89-.89-.5-.32-1.26-.8-1.78-1.06-.88-.48-4.1-1.91-5.49-2.23C54.79.11,51.21,0,50.23,0h-.32c-24.64,0-33.69,23.65-34.06,24.66,0,.02-.02.05-.03.07l-6.12,18.44s-.01.04-.02.06L.14,72.02c-.4,1.21.12,2.54,1.25,3.14l3.64,1.95s.01,0,.02.01l11.45,6.12c.3.16.63.25.95.28h0c.44.05.85-.01,1.25-.17.72-.29,1.28-.88,1.51-1.61l16.13-48.63c.42-1.05,5.89-14.06,18.32-14.06h.34s1.55.05,3.57.7c1.53,1.2,2.38,2.33,2.55,2.56l.1.15c7.08,10.35-.73,22.24-1.38,23.19l-12.8,16.46s-.03.04-.05.06l-18.61,23.94c-.48.62-.66,1.41-.5,2.16.16.77.65,1.41,1.33,1.77l11.43,6.11s.02.01.04.02l3.61,1.93c.38.21.81.32,1.25.32.82,0,1.57-.37,2.07-1.01l18.62-23.94s.02-.03.03-.04l11.88-15.27s.02-.02.03-.03l.08-.12c.63-.88,15.38-21.72,1.39-42.25-.38-.58-2.49-3.63-6.24-6.66Z"/>
          <g>
            <g>
              <g>
                <path class="cls-19" d="M17.72,80.91l16.16-48.72c.41-1.06,6.52-15.92,21-15.78.06,0,.11,0,.17,0,.04,0,3.14.05,6.71,1.78,3.42,2.01,5.19,4.56,5.21,4.59.03.05.06.09.09.14,8.18,11.96-.79,25.29-1.44,26.23l-31.51,40.51,11.43,6.11,30.48-39.19s.07-.09.1-.14c.59-.81,14.33-20.18,1.33-39.26-.45-.67-2.36-3.39-5.85-6.2-.41-.47-3.43-2.49-4.41-2.98-.95-.54-4.31-1.92-4.93-2-4.27-1.34-7.6-1.42-8.4-1.42-23.09-.2-31.55,21.99-31.9,22.93-.02.05-.04.11-.06.17l-15.63,47.12,11.43,6.11Z"/>
                <path class="cls-1" d="M45.55,96.27c-.08,0-.16-.02-.23-.06l-11.43-6.11c-.13-.07-.22-.19-.25-.33-.03-.14,0-.29.09-.41l31.51-40.51c.25-.37,2.66-3.92,3.94-8.8,1.66-6.3.81-11.97-2.52-16.84l-.1-.15s-1.74-2.49-5.04-4.43c-3.42-1.65-6.44-1.71-6.46-1.71l-.12-.49v.49s-.26,0-.26,0c-14.11,0-20.08,14.83-20.33,15.46l-16.15,48.69c-.05.14-.15.25-.29.3-.13.05-.29.04-.41-.02l-11.44-6.11c-.21-.11-.31-.36-.24-.59l15.7-47.31c.35-.94,8.86-23.25,32.05-23.25h.31c.95,0,4.28.11,8.54,1.44.66.08,4.09,1.52,5.03,2.04.94.47,4.03,2.52,4.54,3.09,3.56,2.86,5.53,5.71,5.89,6.25,13.18,19.35-.74,39-1.34,39.83l-.07.09-30.53,39.25c-.09.12-.24.19-.39.19ZM34.86,89.51l10.55,5.64,30.32-38.99c.58-.8,14.12-19.91,1.32-38.69-.35-.53-2.24-3.26-5.75-6.09-.41-.46-3.35-2.44-4.32-2.93-.96-.54-4.25-1.89-4.77-1.95-4.21-1.31-7.43-1.41-8.31-1.41h-.33c-22.52,0-30.79,21.69-31.13,22.61l-.04.11-15.51,46.77,10.55,5.64,15.97-48.16c.27-.68,6.48-16.12,21.26-16.12h.22s.1.5.1.5l.04-.5h0c.11,0,3.3.06,6.95,1.82,3.58,2.1,5.38,4.73,5.4,4.76l.09.13c3.45,5.05,4.37,11.16,2.66,17.66-1.3,4.94-3.64,8.47-4.1,9.13l-31.17,40.07Z"/>
              </g>
              <g>
                <polygon class="cls-6" points="15.84 46.01 6.29 74.8 17.72 80.91 27.27 52.12 15.84 46.01"/>
                <path class="cls-1" d="M17.72,81.4c-.08,0-.16-.02-.23-.06l-11.44-6.11c-.21-.11-.31-.36-.24-.59l9.55-28.79c.04-.14.15-.25.29-.3.13-.06.29-.05.42.02l11.43,6.11c.21.11.31.36.24.59l-9.55,28.79c-.05.14-.15.25-.29.3-.06.02-.12.03-.18.03ZM6.89,74.56l10.55,5.64,9.23-27.83-10.55-5.64-9.24,27.84Z"/>
              </g>
              <g>
                <polygon class="cls-6" points="52.74 65.73 34.11 89.67 45.55 95.78 64.17 71.84 52.74 65.73"/>
                <path class="cls-1" d="M45.55,96.27c-.08,0-.16-.02-.23-.06l-11.43-6.11c-.13-.07-.22-.19-.25-.33-.03-.14,0-.29.09-.41l18.62-23.94c.15-.19.41-.25.62-.13l11.43,6.11c.13.07.22.19.25.33.03.14,0,.29-.09.41l-18.62,23.94c-.09.12-.24.19-.39.19ZM34.86,89.51l10.55,5.64,18-23.15-10.55-5.64-18,23.15Z"/>
              </g>
              <g>
                <path class="cls-15" d="M14.06,78.95L30.22,30.24c.42-1.06,6.52-15.92,21-15.77h.17s3.14.05,6.71,1.78c3.42,2.01,5.19,4.56,5.21,4.59.03.05.06.09.09.14,8.18,11.96-.79,25.29-1.43,26.23l-31.51,40.51,11.43,6.11,30.48-39.19s.07-.09.11-.14c.59-.82,14.33-20.18,1.33-39.27-.45-.67-2.36-3.39-5.85-6.19-.41-.47-3.43-2.49-4.41-2.99-.96-.54-4.31-1.92-4.93-2-4.27-1.34-7.6-1.42-8.4-1.42-23.09-.2-31.55,21.99-31.9,22.93-.02.05-.04.11-.06.17L2.63,72.84l11.43,6.11Z"/>
                <path class="cls-1" d="M41.89,94.31c-.08,0-.16-.02-.23-.06l-11.43-6.11c-.13-.07-.22-.19-.25-.33-.03-.14,0-.29.09-.41l31.51-40.51c.38-.54,9.45-13.89,1.42-25.65l-.1-.16s-1.7-2.46-5.04-4.42c-3.42-1.65-6.43-1.71-6.46-1.71h-.16s-.21,0-.21,0c-5.84,0-10.96,2.46-15.24,7.32-3.31,3.76-4.92,7.7-5.09,8.14l-16.15,48.69c-.05.14-.15.25-.29.3-.13.05-.29.05-.41-.02l-11.44-6.11c-.21-.12-.31-.37-.24-.59l15.69-47.29c.36-.96,8.89-23.27,32.06-23.27h.31c.94,0,4.28.11,8.54,1.44.66.08,4.09,1.51,5.02,2.04.94.47,4.04,2.52,4.54,3.09,3.43,2.75,5.38,5.48,5.89,6.25,13.19,19.37-.74,39-1.34,39.83-.03.05-.08.1-.12.15l-30.48,39.19c-.1.12-.24.19-.39.19ZM31.2,87.55l10.55,5.64,30.31-38.98c.59-.81,14.13-19.9,1.33-38.7-.5-.74-2.36-3.36-5.75-6.09-.41-.46-3.35-2.44-4.32-2.93-.96-.54-4.25-1.89-4.77-1.95-4.22-1.31-7.43-1.41-8.31-1.41h-.33c-22.5,0-30.79,21.69-31.13,22.61l-.06.16L3.22,72.61l10.55,5.63,15.97-48.16c.3-.77,1.92-4.65,5.27-8.45,4.41-5.01,9.94-7.66,15.98-7.66h.22s.14,0,.14,0c0,0,3.23.04,6.95,1.83,3.56,2.09,5.4,4.75,5.41,4.77l-.33.4.41-.28c8.42,12.31-1.03,26.2-1.44,26.79l-31.16,40.07Z"/>
              </g>
              <g>
                <polygon class="cls-20" points="12.17 44.06 2.63 72.84 14.06 78.95 23.61 50.17 12.17 44.06"/>
                <path class="cls-1" d="M14.06,79.45c-.08,0-.16-.02-.23-.06l-11.44-6.11c-.21-.12-.31-.37-.24-.59l9.55-28.79c.05-.14.15-.25.29-.3.13-.05.29-.05.42.02l11.43,6.11c.21.11.31.36.24.59l-9.55,28.79c-.05.14-.15.25-.29.3-.06.03-.12.04-.18.04ZM3.22,72.61l10.55,5.63,9.23-27.83-10.55-5.63-9.23,27.83Z"/>
              </g>
              <g>
                <polygon class="cls-20" points="49.07 63.77 30.45 87.71 41.89 93.82 60.51 69.88 49.07 63.77"/>
                <path class="cls-1" d="M41.89,94.31c-.08,0-.16-.02-.23-.06l-11.43-6.11c-.13-.07-.22-.19-.25-.33-.03-.14,0-.29.09-.41l18.62-23.94c.15-.19.41-.24.62-.13l11.44,6.11c.13.07.22.19.25.33.03.14,0,.29-.09.41l-18.62,23.94c-.1.12-.24.19-.39.19ZM31.2,87.55l10.55,5.64,18.01-23.15-10.55-5.63-18,23.15Z"/>
              </g>
            </g>
            <g class="cls-16">
              <path class="cls-5" d="M54.65,4.76s-16.94-1.52-28.53,10.85c0,0-4.05,4.82-5.54,8.6-1.48,3.78-16.37,48.01-16.37,48.01L22.35,23.94S31.92,5.52,54.65,4.76Z"/>
            </g>
          </g>
        </g>
      </g>
    </g>
  </g>
</svg>