<?xml version="1.0" encoding="UTF-8"?>
<svg xmlns="http://www.w3.org/2000/svg" width="285.49" height="100" viewBox="0 0 285.49 100">
  <defs>
    <style>
      .cls-1 {
        mix-blend-mode: screen;
      }

      .cls-1, .cls-2 {
        fill: #9f7e6b;
      }

      .cls-3 {
        fill: #5e2c00;
      }

      .cls-4 {
        fill: #8b8b8b;
      }

      .cls-5 {
        fill: #9a9a9a;
      }

      .cls-6 {
        fill: #7d7d7d;
      }

      .cls-7 {
        fill: #fff;
      }

      .cls-8 {
        fill: #6e6e6e;
      }

      .cls-9 {
        fill: #606060;
      }

      .cls-10 {
        fill: #e2e2e2;
      }

      .cls-11 {
        fill: #b88667;
      }

      .cls-12 {
        isolation: isolate;
      }

      .cls-13 {
        fill: #f1f1f1;
      }

      .cls-14 {
        fill: #c5c5c5;
      }

      .cls-15, .cls-16 {
        mix-blend-mode: multiply;
      }

      .cls-17 {
        fill: #a8a8a8;
      }

      .cls-16 {
        fill: #a56d37;
        opacity: .6;
      }

      .cls-18 {
        fill: #d4d4d4;
      }

      .cls-19 {
        fill: #b7b7b7;
      }
    </style>
  </defs>
  <g class="cls-12">
    <g id="Layer_2" data-name="Layer 2">
      <g id="Layer_1-2" data-name="Layer 1">
        <g>
          <g class="cls-15">
            <path class="cls-7" d="M283.68,90.31l-1-.72c-.44-.32-.88-.63-1.3-.93-.75-.53-1.5-1.05-2.25-1.57l-.47-.32c-2.92-2.03-5.94-4.12-8.62-6.41-6.47-5.51-13.14-10.97-19.6-16.26l-.32-.26c-3.79-3.1-8.08-6.61-12.23-10.06-9.19-7.63-18.37-16.79-28.05-28-3.25-3.77-6.25-7.9-9.15-11.9-1.91-2.64-3.64-5.02-5.48-7.4-.83-1.06-2.08-1.66-3.42-1.66-.67,0-1.34.16-1.9.44-.25.12-.34.15-.33.15-.67.06-1.06-.01-2.15-.24l-.74-.15c-.63-.12-1.27-.18-1.9-.18-2.51,0-4.54.94-6.16,1.69-.76.35-1.91.88-2.58.88-.07,0-.13,0-.19-.02-4.62-.92-7.7-1.04-11.72-.45-1.83.26-2.37.14-2.37.14-.35-.08-.57-.18-1.22-.52-.37-.19-.84-.43-1.39-.66-.5-.21-1.03-.38-1.56-.5-.76-.18-1.6-.14-2.28.07-1.29.4-2.37.74-3.35,1.08-.42.14-.82.35-1.21.64-2.32,1.74-4.6,3.5-6.82,5.2-4.87,3.75-9.91,7.63-15.09,11.13-7.25,4.92-14.71,9.83-21.93,14.59l-.6.39c-7.62,5.02-15.5,10.21-23.2,15.44-12.88,8.75-27.35,16.39-45.54,24.05-2.67,1.12-5.35,2.44-8.19,3.83l-.11.05c-6.92,3.39-14.08,6.9-20.91,7.53-1.34.13-2.53.86-3.25,2-.02.03-.03.05-.05.07-.7,1.16-.83,2.55-.35,3.8.46,1.2,1.26,2.24,2.37,3.08,1.67,1.26,2.17,1.64,64.4,1.64,53.09,0,129.51-.45,170.57-.69h1.77c19.2-.13,28.9-.18,31.45-.18h.51c.4.02.77.03,1.14.03,2.82,0,5.02-.58,6.69-1.76,1.16-.81,1.86-2.14,1.86-3.56s-.69-2.75-1.81-3.54Z"/>
            <path class="cls-13" d="M283.23,96.96c1.16-.81,1.86-2.14,1.86-3.56s-.69-2.75-1.81-3.54l-1-.72c-.44-.32-.88-.63-1.3-.93-.75-.53-1.5-1.05-2.25-1.57l-.46-.32c-2.92-2.03-5.94-4.12-8.62-6.41-6.47-5.51-13.14-10.98-19.6-16.26l-.32-.26c-3.79-3.1-8.08-6.61-12.23-10.06-9.19-7.63-18.37-16.79-28.05-28-3.25-3.77-6.25-7.9-9.16-11.9-1.91-2.64-3.63-5.03-5.48-7.41-.83-1.06-2.08-1.66-3.42-1.66-.67,0-1.34.16-1.9.44-.25.12-.34.15-.33.15-.67.06-1.06-.01-2.15-.24l-.74-.15c-.63-.12-1.27-.18-1.9-.18-2.51,0-4.54.94-6.16,1.69-.76.35-1.91.88-2.58.88-.07,0-.13,0-.19-.02-4.61-.97-7.7-1.03-11.72-.45-1.83.26-2.37.14-2.37.14-.35-.08-.57-.19-1.22-.52-.37-.19-.84-.43-1.39-.66-.5-.21-1.03-.38-1.56-.5-.76-.17-1.6-.14-2.28.07-1.29.41-2.37.74-3.35,1.08-.42.14-.82.35-1.21.64-2.33,1.72-4.61,3.5-6.82,5.2-4.87,3.75-9.91,7.63-15.09,11.13-7.25,4.92-14.71,9.83-21.93,14.59l-.6.39c-7.62,5.02-15.5,10.21-23.2,15.44-12.88,8.75-27.35,16.39-45.54,24.05-2.67,1.12-5.35,2.44-8.2,3.83l-.11.05c-6.92,3.39-14.08,6.88-20.91,7.53-1.34.13-2.53.85-3.25,2-.02.03-.03.05-.05.07-.67,1.18-.83,2.55-.35,3.8.46,1.2,1.26,2.24,2.37,3.08,1.67,1.26,2.17,1.64,64.4,1.64,53.09,0,129.51-.45,170.57-.69h1.77c19.2-.13,28.9-.18,31.45-.18h.51c.4.02.77.03,1.14.03,2.82,0,5.01-.59,6.69-1.76Z"/>
            <path class="cls-10" d="M282.83,96.53c1.16-.81,1.86-2.14,1.86-3.56s-.69-2.75-1.81-3.54l-1-.72c-.44-.32-.88-.64-1.3-.93-.75-.53-1.5-1.05-2.25-1.57l-.47-.32c-2.92-2.03-5.94-4.12-8.62-6.41-6.47-5.51-13.14-10.98-19.6-16.26l-.32-.26c-3.79-3.1-8.08-6.61-12.23-10.06-9.19-7.63-18.37-16.79-28.05-28-3.25-3.77-6.25-7.9-9.15-11.9-1.91-2.64-3.63-5.03-5.48-7.4-.83-1.06-2.08-1.66-3.42-1.66-.67,0-1.34.16-1.9.44-.25.12-.34.15-.33.15-.67.06-1.06-.01-2.15-.24l-.74-.15c-.63-.12-1.27-.18-1.9-.18-2.51,0-4.54.94-6.16,1.69-.76.35-1.91.88-2.58.88-.07,0-.13,0-.19-.02-4.61-.97-7.7-1.03-11.72-.45-1.83.26-2.37.14-2.37.14-.35-.08-.57-.19-1.21-.51-.38-.19-.84-.43-1.39-.66-.5-.21-1.03-.38-1.56-.5-.76-.17-1.6-.14-2.28.07-1.29.4-2.37.74-3.35,1.08-.42.14-.82.35-1.21.64-2.33,1.72-4.6,3.5-6.82,5.2-4.87,3.75-9.91,7.63-15.08,11.13-7.25,4.92-14.71,9.83-21.93,14.59l-.6.4c-7.62,5.02-15.5,10.21-23.2,15.44-12.88,8.75-27.35,16.39-45.54,24.05-2.67,1.12-5.35,2.44-8.19,3.83l-.11.05c-6.92,3.39-14.08,6.88-20.9,7.53-1.34.13-2.54.86-3.25,2-.02.03-.03.05-.05.07-.73,1.14-.83,2.55-.34,3.8.46,1.21,1.26,2.24,2.37,3.08,1.67,1.26,2.17,1.64,64.4,1.64,53.09,0,129.51-.45,170.57-.69h1.77c19.2-.13,28.9-.18,31.45-.18h.51c.4.02.77.03,1.14.03,2.82,0,5.01-.59,6.69-1.76Z"/>
            <path class="cls-18" d="M282.42,96.09c1.16-.81,1.86-2.14,1.86-3.56s-.69-2.75-1.81-3.54l-1-.72c-.44-.32-.88-.64-1.3-.93-.75-.53-1.5-1.05-2.25-1.57l-.47-.32c-2.92-2.03-5.94-4.12-8.62-6.41-6.47-5.51-13.14-10.98-19.6-16.26l-.32-.26c-3.79-3.1-8.08-6.61-12.23-10.06-9.19-7.63-18.37-16.79-28.05-28-3.25-3.77-6.25-7.9-9.15-11.9-1.91-2.64-3.63-5.03-5.48-7.4-.83-1.06-2.08-1.66-3.42-1.66-.67,0-1.34.16-1.9.44-.25.12-.34.15-.33.15-.67.06-1.06-.01-2.15-.24l-.74-.15c-.63-.12-1.27-.18-1.9-.18-2.51,0-4.54.94-6.16,1.69-.76.35-1.91.88-2.58.88-.07,0-.13,0-.19-.02-4.61-.97-7.7-1.03-11.72-.45-1.83.26-2.37.14-2.37.14-.35-.08-.57-.19-1.22-.52-.37-.19-.84-.43-1.39-.66-.5-.21-1.03-.38-1.56-.5-.76-.17-1.6-.14-2.28.07-1.29.41-2.37.74-3.35,1.08-.42.14-.82.35-1.21.64-2.33,1.72-4.6,3.5-6.82,5.2-4.87,3.75-9.91,7.63-15.08,11.13-7.25,4.92-14.71,9.83-21.93,14.59l-.6.39c-7.62,5.02-15.5,10.21-23.2,15.44-12.88,8.75-27.35,16.39-45.54,24.05-2.67,1.12-5.35,2.44-8.19,3.83l-.11.05c-6.92,3.39-14.08,6.88-20.9,7.53-1.34.13-2.53.85-3.25,2-.02.03-.03.05-.05.07-.7,1.16-.83,2.55-.35,3.8.46,1.21,1.26,2.24,2.37,3.08,1.67,1.26,2.17,1.64,64.4,1.64,53.09,0,129.51-.45,170.57-.69h1.77c19.2-.13,28.9-.18,31.45-.18h.51c.4.02.77.03,1.14.03,2.82,0,5.01-.59,6.69-1.76Z"/>
            <path class="cls-14" d="M282.02,95.65c1.16-.81,1.86-2.14,1.86-3.56s-.69-2.75-1.81-3.54l-1-.72c-.44-.32-.88-.64-1.3-.93-.75-.53-1.5-1.05-2.25-1.57l-.47-.32c-2.92-2.03-5.94-4.12-8.62-6.4-6.47-5.51-13.14-10.98-19.6-16.26l-.32-.26c-3.79-3.1-8.08-6.61-12.23-10.06-9.19-7.63-18.37-16.79-28.05-28-3.25-3.77-6.25-7.9-9.15-11.9-1.91-2.64-3.63-5.03-5.48-7.4-.83-1.06-2.08-1.66-3.42-1.66-.67,0-1.34.16-1.9.44-.25.12-.34.15-.33.15-.67.06-1.06,0-2.15-.24l-.74-.15c-.63-.12-1.27-.18-1.9-.18-2.51,0-4.53.94-6.16,1.69-.76.35-1.91.88-2.58.88-.07,0-.13,0-.19-.01-4.62-.93-7.7-1.03-11.72-.45-1.83.26-2.37.15-2.37.15-.35-.08-.57-.18-1.21-.51-.38-.19-.84-.43-1.39-.66-.5-.21-1.03-.38-1.56-.5-.76-.18-1.6-.14-2.28.07-1.29.4-2.37.74-3.35,1.08-.42.14-.82.35-1.21.64-2.33,1.72-4.6,3.5-6.82,5.2-4.87,3.75-9.91,7.63-15.08,11.14-7.25,4.92-14.71,9.83-21.93,14.59l-.6.39c-7.62,5.02-15.5,10.21-23.2,15.44-12.88,8.75-27.35,16.39-45.54,24.05-2.67,1.12-5.35,2.44-8.19,3.83l-.11.05c-6.92,3.39-14.08,6.88-20.91,7.53-1.34.13-2.53.86-3.25,2-.02.03-.03.05-.05.08-.71,1.16-.83,2.55-.35,3.8.46,1.21,1.26,2.24,2.37,3.08,1.67,1.26,2.17,1.64,64.4,1.64,53.09,0,129.51-.45,170.57-.69h1.77c19.2-.12,28.9-.18,31.45-.18.25,0,.42,0,.51,0,.4.02.77.03,1.14.03,2.82,0,5.01-.59,6.69-1.76Z"/>
            <path class="cls-19" d="M281.61,95.21c1.16-.81,1.86-2.14,1.86-3.56s-.69-2.75-1.81-3.54l-1-.72c-.44-.32-.88-.64-1.3-.93-.75-.53-1.5-1.05-2.25-1.57l-.47-.32c-2.92-2.03-5.94-4.12-8.62-6.4-6.47-5.51-13.14-10.98-19.6-16.26l-.32-.26c-3.79-3.1-8.08-6.61-12.23-10.06-9.19-7.63-18.37-16.79-28.05-28-3.25-3.77-6.25-7.9-9.15-11.9-1.91-2.64-3.63-5.03-5.48-7.4-.83-1.06-2.08-1.66-3.42-1.66-.67,0-1.34.16-1.9.44-.25.12-.34.15-.33.15-.67.06-1.06,0-2.15-.24l-.74-.15c-.63-.12-1.27-.18-1.9-.18-2.51,0-4.54.94-6.16,1.69-.76.35-1.91.88-2.58.88-.07,0-.13,0-.19-.01-4.62-.93-7.7-1.03-11.72-.45-1.83.26-2.37.14-2.37.14-.35-.08-.57-.18-1.21-.51-.38-.19-.84-.43-1.39-.66-.5-.21-1.03-.38-1.56-.5-.76-.18-1.6-.14-2.28.07-1.29.4-2.37.74-3.35,1.08-.42.14-.82.35-1.21.64-2.32,1.73-4.61,3.5-6.82,5.2-4.87,3.75-9.91,7.63-15.08,11.13-7.25,4.92-14.71,9.83-21.93,14.59l-.6.39c-7.62,5.02-15.5,10.21-23.2,15.44-12.88,8.75-27.35,16.39-45.54,24.05-2.67,1.12-5.35,2.44-8.2,3.83l-.11.05c-6.92,3.39-14.08,6.88-20.91,7.53-1.34.13-2.54.85-3.25,2-.02.03-.03.05-.05.08-.7,1.16-.83,2.55-.35,3.8.46,1.21,1.26,2.24,2.37,3.08,1.67,1.26,2.17,1.64,64.4,1.64,53.09,0,129.51-.45,170.57-.69h1.77c19.2-.12,28.9-.18,31.45-.18.25,0,.42,0,.51,0,.4.02.77.03,1.14.03,2.82,0,5.02-.58,6.69-1.76Z"/>
            <path class="cls-17" d="M281.21,94.78c1.16-.81,1.86-2.14,1.86-3.56s-.69-2.75-1.81-3.54l-1-.72c-.44-.32-.88-.64-1.3-.93-.75-.53-1.5-1.05-2.26-1.57l-.46-.32c-2.92-2.03-5.94-4.12-8.62-6.4-6.47-5.51-13.14-10.98-19.6-16.26l-.32-.26c-3.79-3.1-8.08-6.61-12.23-10.06-9.19-7.63-18.37-16.79-28.05-28-3.25-3.77-6.25-7.9-9.15-11.9-1.91-2.64-3.63-5.03-5.48-7.4-.83-1.06-2.08-1.66-3.42-1.66-.67,0-1.34.16-1.9.44-.25.12-.34.15-.33.15-.67.06-1.06,0-2.15-.23l-.74-.15c-.63-.12-1.27-.18-1.9-.18-2.51,0-4.54.94-6.16,1.69-.76.35-1.91.88-2.58.88-.07,0-.13,0-.19-.01-4.63-.89-7.7-1.04-11.72-.45-1.83.26-2.37.14-2.37.14-.35-.08-.57-.18-1.21-.51-.38-.19-.84-.43-1.39-.66-.5-.21-1.03-.38-1.56-.5-.76-.18-1.6-.14-2.28.07-1.29.4-2.37.74-3.35,1.08-.42.14-.82.35-1.21.64-2.33,1.73-4.6,3.5-6.82,5.2-4.87,3.75-9.91,7.63-15.08,11.13-7.25,4.92-14.71,9.83-21.93,14.59l-.6.4c-7.62,5.02-15.5,10.21-23.2,15.44-12.88,8.75-27.35,16.39-45.54,24.05-2.67,1.12-5.35,2.44-8.2,3.83l-.11.05c-6.92,3.39-14.08,6.88-20.9,7.53-1.34.13-2.54.85-3.25,2-.02.03-.03.05-.05.08-.72,1.15-.83,2.55-.35,3.8.46,1.21,1.26,2.24,2.37,3.08,1.67,1.26,2.17,1.64,64.4,1.64,53.09,0,129.51-.45,170.57-.69h1.77c19.2-.13,28.9-.18,31.45-.18.25,0,.42,0,.51,0,.4.02.77.03,1.14.03,2.83,0,5.02-.58,6.69-1.76Z"/>
            <path class="cls-5" d="M280.81,94.34c1.16-.81,1.86-2.14,1.86-3.56s-.69-2.75-1.81-3.54l-1-.72c-.44-.32-.88-.64-1.3-.93-.75-.53-1.5-1.05-2.25-1.57l-.47-.32c-2.92-2.03-5.94-4.12-8.62-6.4-6.47-5.51-13.14-10.98-19.6-16.26l-.32-.26c-3.79-3.1-8.08-6.61-12.23-10.06-9.19-7.63-18.37-16.79-28.05-28-3.25-3.77-6.25-7.9-9.15-11.9-1.91-2.64-3.63-5.03-5.48-7.4-.83-1.06-2.08-1.66-3.42-1.66-.67,0-1.34.16-1.9.44-.25.12-.34.15-.33.15-.67.06-1.06,0-2.15-.24l-.74-.15c-.63-.12-1.27-.18-1.9-.18-2.51,0-4.54.94-6.16,1.69-.76.35-1.91.88-2.58.88-.07,0-.13,0-.19-.01-4.62-.93-7.7-1.03-11.72-.45-1.83.26-2.37.14-2.37.14-.35-.08-.57-.18-1.21-.51-.38-.19-.84-.43-1.39-.66-.5-.21-1.03-.38-1.56-.5-.76-.18-1.6-.14-2.28.07-1.29.4-2.36.75-3.35,1.08-.42.14-.82.35-1.21.64-2.33,1.73-4.6,3.5-6.82,5.2-4.87,3.75-9.91,7.63-15.08,11.13-7.25,4.92-14.71,9.83-21.93,14.59l-.6.39c-7.62,5.02-15.5,10.21-23.2,15.44-12.88,8.75-27.35,16.39-45.54,24.05-2.67,1.12-5.35,2.44-8.2,3.83l-.11.05c-6.92,3.39-14.08,6.88-20.9,7.53-1.34.13-2.54.85-3.25,2-.02.03-.03.05-.05.08-.71,1.16-.82,2.55-.34,3.8.46,1.21,1.26,2.24,2.37,3.08,1.66,1.26,2.17,1.64,64.4,1.64,53.09,0,129.51-.45,170.57-.69h1.77c19.2-.12,28.9-.18,31.45-.18.25,0,.42,0,.51,0,.4.02.77.03,1.14.03,2.83,0,5.01-.59,6.69-1.76Z"/>
            <path class="cls-4" d="M280.4,93.9c1.16-.82,1.86-2.14,1.86-3.56s-.69-2.75-1.81-3.54l-1-.72c-.44-.32-.88-.64-1.3-.93-.75-.53-1.5-1.05-2.25-1.57l-.47-.32c-2.92-2.03-5.94-4.12-8.62-6.4-6.47-5.51-13.14-10.98-19.6-16.26l-.32-.26c-3.79-3.1-8.08-6.61-12.23-10.06-9.19-7.63-18.37-16.79-28.05-28-3.25-3.77-6.25-7.9-9.15-11.9-1.91-2.64-3.63-5.03-5.48-7.4-.83-1.06-2.08-1.66-3.42-1.66-.67,0-1.34.16-1.9.44-.25.12-.34.15-.34.15-.67.06-1.06,0-2.15-.23l-.74-.15c-.63-.12-1.27-.18-1.9-.18-2.51,0-4.54.94-6.16,1.69-.76.35-1.91.88-2.58.88-.07,0-.13,0-.19-.01-4.62-.94-7.7-1.03-11.72-.45-1.83.26-2.37.14-2.37.14-.35-.08-.57-.18-1.21-.51-.38-.19-.84-.43-1.39-.66-.5-.21-1.03-.38-1.56-.5-.76-.18-1.6-.14-2.28.07-1.29.4-2.37.74-3.35,1.08-.42.14-.82.35-1.21.64-2.33,1.73-4.6,3.5-6.82,5.2-4.87,3.75-9.91,7.63-15.08,11.13-7.25,4.92-14.71,9.83-21.93,14.59l-.6.4c-7.62,5.02-15.5,10.21-23.2,15.44-12.88,8.75-27.35,16.39-45.54,24.05-2.67,1.12-5.35,2.44-8.19,3.83l-.11.05c-6.92,3.39-14.08,6.88-20.91,7.53-1.34.13-2.52.86-3.25,2-.02.03-.03.05-.05.08-.73,1.14-.83,2.55-.35,3.8.46,1.21,1.26,2.24,2.37,3.08,1.66,1.26,2.17,1.64,64.4,1.64,53.09,0,129.51-.45,170.57-.69h1.77c19.2-.12,28.9-.18,31.45-.18.25,0,.42,0,.51,0,.4.02.77.03,1.14.03,2.83,0,5.02-.58,6.69-1.76Z"/>
            <path class="cls-6" d="M280,93.47c1.16-.82,1.86-2.14,1.86-3.56s-.69-2.75-1.81-3.54l-1-.72c-.44-.32-.88-.64-1.3-.93-.75-.53-1.5-1.05-2.25-1.57l-.47-.32c-2.92-2.03-5.94-4.12-8.62-6.4-6.47-5.51-13.14-10.98-19.6-16.26l-.32-.26c-3.79-3.1-8.08-6.61-12.23-10.06-9.19-7.63-18.37-16.79-28.05-28-3.25-3.77-6.25-7.9-9.15-11.9-1.91-2.64-3.63-5.03-5.48-7.4-.83-1.06-2.08-1.66-3.42-1.66-.67,0-1.34.16-1.9.44-.25.12-.34.15-.33.15-.67.06-1.06,0-2.15-.23l-.74-.15c-.63-.12-1.27-.18-1.9-.18-2.51,0-4.53.94-6.16,1.69-.76.35-1.91.88-2.58.88-.07,0-.13,0-.19-.01-4.63-.89-7.7-1.03-11.72-.45-1.83.26-2.37.14-2.37.14-.35-.08-.57-.18-1.21-.51-.38-.19-.84-.43-1.39-.66-.5-.21-1.03-.38-1.56-.5-.76-.18-1.6-.14-2.28.07-1.29.4-2.37.75-3.35,1.08-.42.14-.82.35-1.21.64-2.33,1.73-4.6,3.5-6.82,5.2-4.87,3.75-9.91,7.63-15.08,11.13-7.25,4.92-14.71,9.83-21.93,14.59l-.6.4c-7.62,5.02-15.5,10.21-23.2,15.44-12.88,8.75-27.35,16.39-45.54,24.05-2.67,1.12-5.35,2.44-8.2,3.83l-.11.05c-6.92,3.39-14.08,6.88-20.9,7.53-1.34.13-2.54.85-3.25,2-.02.03-.03.05-.05.08-.73,1.14-.82,2.55-.34,3.8.46,1.21,1.26,2.24,2.37,3.08,1.66,1.26,2.17,1.64,64.4,1.64,53.09,0,129.51-.45,170.57-.69h1.77c19.2-.12,28.9-.18,31.45-.18.25,0,.42,0,.51,0,.4.02.77.03,1.14.03,2.82,0,5.02-.58,6.69-1.76Z"/>
            <path class="cls-8" d="M279.59,93.03c1.16-.82,1.86-2.14,1.86-3.56s-.69-2.75-1.81-3.54l-1-.72c-.44-.32-.88-.64-1.3-.93-.75-.53-1.5-1.05-2.25-1.57l-.46-.32c-2.92-2.03-5.94-4.12-8.62-6.4-6.47-5.52-13.14-10.98-19.6-16.26l-.32-.26c-3.79-3.1-8.08-6.61-12.23-10.06-9.19-7.63-18.37-16.79-28.05-28-3.25-3.77-6.26-7.9-9.16-11.9-1.91-2.64-3.63-5.03-5.48-7.4-.83-1.06-2.08-1.66-3.42-1.66-.67,0-1.34.16-1.9.44-.25.12-.34.15-.34.15-.66.06-1.05,0-2.14-.23l-.74-.15c-.63-.12-1.27-.18-1.9-.18-2.51,0-4.53.94-6.16,1.69-.76.35-1.91.88-2.58.88-.07,0-.13,0-.19-.01-4.63-.89-7.7-1.03-11.72-.45-1.83.26-2.37.14-2.37.14-.35-.08-.57-.18-1.21-.51-.38-.19-.84-.43-1.39-.66-.5-.21-1.03-.38-1.56-.5-.76-.18-1.6-.14-2.28.07-1.29.4-2.37.74-3.35,1.08-.42.14-.82.35-1.21.64-2.32,1.73-4.61,3.5-6.82,5.2-4.87,3.75-9.91,7.63-15.08,11.13-7.25,4.92-14.71,9.83-21.93,14.59l-.6.39c-7.62,5.02-15.5,10.21-23.2,15.44-12.88,8.75-27.35,16.39-45.54,24.05-2.67,1.12-5.35,2.44-8.2,3.83l-.11.05c-6.92,3.39-14.08,6.88-20.9,7.53-1.34.13-2.55.84-3.25,2-.02.03-.03.05-.05.08-.74,1.14-.83,2.55-.34,3.8.46,1.21,1.26,2.24,2.37,3.08,1.66,1.26,2.17,1.64,64.4,1.64,53.09,0,129.51-.45,170.57-.69h1.77c19.2-.12,28.9-.18,31.45-.18.25,0,.42,0,.51,0,.4.02.77.03,1.14.03,2.83,0,5.02-.58,6.69-1.76Z"/>
            <path class="cls-9" d="M279.24,85.49l-1-.72c-.44-.32-.88-.64-1.3-.93-.75-.53-1.5-1.05-2.25-1.57l-.47-.32c-2.92-2.03-5.94-4.12-8.62-6.4-6.47-5.52-13.14-10.98-19.6-16.26l-.32-.26c-3.79-3.1-8.08-6.61-12.23-10.06-9.19-7.63-18.37-16.79-28.05-28-3.25-3.77-6.25-7.9-9.15-11.9-1.91-2.64-3.65-5.02-5.48-7.4-.83-1.06-2.08-1.66-3.42-1.66-.67,0-1.34.16-1.9.44-.25.12-.34.15-.33.15-.67.06-1.06,0-2.15-.23l-.74-.15c-.63-.12-1.27-.18-1.9-.18-2.51,0-4.53.94-6.16,1.69-.76.35-1.91.88-2.58.88-.07,0-.13,0-.19-.01-4.62-.92-7.7-1.03-11.72-.45-1.83.26-2.37.14-2.38.14-.35-.08-.57-.18-1.21-.51-.38-.19-.84-.43-1.39-.66-.5-.21-1.03-.38-1.56-.5-.76-.18-1.6-.14-2.28.07-1.3.4-2.37.74-3.35,1.08-.42.14-.82.35-1.21.64-2.32,1.74-4.6,3.5-6.82,5.2-4.87,3.75-9.91,7.63-15.08,11.13-7.25,4.92-14.71,9.83-21.93,14.59l-.6.39c-7.62,5.02-15.5,10.21-23.2,15.44-12.88,8.75-27.35,16.39-45.54,24.05-2.67,1.12-5.35,2.44-8.2,3.83l-.11.05c-6.92,3.39-14.08,6.9-20.9,7.53-1.34.13-2.53.86-3.25,2-.02.03-.03.05-.05.08-.7,1.16-.82,2.55-.34,3.8.46,1.21,1.26,2.24,2.37,3.08,1.66,1.26,2.17,1.64,64.4,1.64,53.09,0,129.51-.45,170.57-.69h1.77c19.2-.12,28.9-.18,31.45-.18.25,0,.42,0,.51,0,.4.02.77.03,1.14.03,2.83,0,5.02-.58,6.69-1.76,1.16-.81,1.86-2.14,1.86-3.56s-.69-2.75-1.81-3.54Z"/>
          </g>
          <path class="cls-7" d="M279.24,85.49l-1-.72c-.44-.32-.88-.64-1.3-.93-.75-.53-1.5-1.05-2.25-1.57l-.47-.32c-2.92-2.03-5.94-4.12-8.62-6.4-6.47-5.52-13.14-10.98-19.6-16.26l-.32-.26c-3.79-3.1-8.08-6.61-12.23-10.06-9.19-7.63-18.37-16.79-28.05-28-3.25-3.77-6.25-7.9-9.15-11.9-1.91-2.64-3.65-5.02-5.48-7.4-.83-1.06-2.08-1.66-3.42-1.66-.67,0-1.34.16-1.9.44-.25.12-.34.15-.33.15-.67.06-1.06,0-2.15-.23l-.74-.15c-.63-.12-1.27-.18-1.9-.18-2.51,0-4.53.94-6.16,1.69-.76.35-1.91.88-2.58.88-.07,0-.13,0-.19-.01-4.62-.92-7.7-1.03-11.72-.45-1.83.26-2.37.14-2.38.14-.35-.08-.57-.18-1.21-.51-.38-.19-.84-.43-1.39-.66-.5-.21-1.03-.38-1.56-.5-.76-.18-1.6-.14-2.28.07-1.3.4-2.37.74-3.35,1.08-.42.14-.82.35-1.21.64-2.32,1.74-4.6,3.5-6.82,5.2-4.87,3.75-9.91,7.63-15.08,11.13-7.25,4.92-14.71,9.83-21.93,14.59l-.6.39c-7.62,5.02-15.5,10.21-23.2,15.44-12.88,8.75-27.35,16.39-45.54,24.05-2.67,1.12-5.35,2.44-8.2,3.83l-.11.05c-6.92,3.39-14.08,6.9-20.9,7.53-1.34.13-2.53.86-3.25,2-.02.03-.03.05-.05.08-.7,1.16-.82,2.55-.34,3.8.46,1.21,1.26,2.24,2.37,3.08,1.66,1.26,2.17,1.64,64.4,1.64,53.09,0,129.51-.45,170.57-.69h1.77c19.2-.12,28.9-.18,31.45-.18.25,0,.42,0,.51,0,.4.02.77.03,1.14.03,2.83,0,5.02-.58,6.69-1.76,1.16-.81,1.86-2.14,1.86-3.56s-.69-2.75-1.81-3.54Z"/>
          <g>
            <g>
              <path class="cls-2" d="M274.43,87.4c-3.95-2.79-7.98-5.42-11.65-8.55-10.56-9-21.43-17.66-32.11-26.54-10.39-8.63-19.78-18.34-28.56-28.51-5.34-6.18-9.8-13.01-14.77-19.46-.57.28-1.16.51-1.83.57-1.6.14-2.55-.14-4.11-.45-4-.79-6.82,3.16-10.84,2.37-3.6-.71-6.58-.95-10.27-.42-1.21.17-2.71.36-3.92.09-1.4-.31-2.09-.88-3.38-1.43-.28-.12-.56-.2-.85-.26-1.08.33-2.16.67-3.22,1.04-7.33,5.5-14.45,11.29-22.07,16.46-15.15,10.27-30.58,20.13-45.72,30.41-14.55,9.88-30.01,17.61-46.29,24.46-9.22,3.88-19.9,10.76-30.47,11.73.16.41.45.8.93,1.15,2.41,1.83,263.9-.22,266.25-.1,2.45.13,4.13-.21,5.17-.95-.78-.55-1.54-1.12-2.27-1.63Z"/>
              <path class="cls-3" d="M67.05,91.35c-60.95,0-61.69-.56-62.08-.87-.53-.4-.9-.87-1.1-1.38-.06-.15-.04-.31.04-.45.09-.14.23-.22.39-.24,7.51-.69,14.99-4.36,22.23-7.91,2.83-1.38,5.49-2.69,8.09-3.79,18.42-7.76,33.11-15.51,46.2-24.41,7.67-5.21,15.54-10.39,23.16-15.41,7.42-4.89,15.09-9.94,22.57-15.01,5.24-3.55,10.34-7.47,15.27-11.27,2.25-1.73,4.5-3.47,6.78-5.17.04-.03.09-.06.14-.07,1.07-.37,2.16-.71,3.24-1.04.09-.03.18-.03.26,0,.36.08.66.18.93.29.46.19.85.39,1.21.58.66.33,1.22.63,2.08.81.97.21,2.46.09,3.74-.09,3.48-.51,6.3-.4,10.43.42,1.76.34,3.43-.36,5.12-1.15,1.42-.66,2.89-1.34,4.55-1.34.39,0,.78.04,1.17.12l.7.14c1.16.24,2,.42,3.27.3.62-.06,1.16-.28,1.65-.52.22-.11.48-.04.63.15,1.84,2.39,3.65,4.88,5.39,7.28,2.95,4.07,6.01,8.28,9.36,12.15,9.83,11.38,19.15,20.68,28.5,28.45,4.07,3.38,8.16,6.73,12.25,10.07,6.54,5.36,13.32,10.89,19.86,16.47,2.84,2.42,5.96,4.58,8.98,6.68.88.61,1.76,1.22,2.64,1.84.43.3.86.61,1.3.93l.97.7c.14.1.22.25.22.42s-.08.32-.22.42c-1.02.72-2.49,1.07-4.5,1.07h0c-.32,0-.65,0-1-.03-.5-.02-13.29.05-32.13.16-41.41.24-118.49.7-172.32.7ZM5.23,89.35c.11.11.22.22.36.32.85.28,12.28.66,61.46.66,53.83,0,130.91-.46,172.31-.7,16.31-.1,28.1-.17,31.29-.17.52,0,.82,0,.9,0,1.81.09,3.2-.07,4.19-.49l-.32-.22c-.44-.32-.87-.63-1.29-.92-.88-.62-1.75-1.23-2.63-1.84-3.04-2.11-6.18-4.29-9.06-6.74-6.54-5.57-13.3-11.11-19.84-16.45-4.09-3.35-8.19-6.7-12.26-10.08-9.39-7.8-18.76-17.14-28.62-28.56-3.37-3.91-6.44-8.14-9.41-12.23-1.66-2.29-3.37-4.65-5.13-6.93-.47.21-1.01.39-1.63.45-1.42.13-2.39-.07-3.57-.31l-.7-.14c-1.73-.35-3.4.36-5.09,1.15-1.42.65-2.89,1.34-4.57,1.34-.4,0-.79-.04-1.18-.12-4.02-.79-6.73-.89-10.09-.41-1.38.2-2.98.33-4.11.08-.99-.22-1.64-.55-2.33-.91-.35-.18-.71-.37-1.14-.55-.21-.09-.42-.15-.63-.21-1,.31-2,.62-3,.96-2.25,1.69-4.48,3.4-6.7,5.12-4.94,3.8-10.05,7.73-15.32,11.31-7.48,5.07-15.16,10.12-22.58,15.02-7.61,5.01-15.48,10.2-23.14,15.4-13.16,8.94-27.9,16.72-46.38,24.5-2.57,1.08-5.23,2.39-8.04,3.77-7.06,3.46-14.35,7.04-21.76,7.92Z"/>
            </g>
            <g>
              <path class="cls-11" d="M274.43,87.4c-3.95-2.79-7.98-5.42-11.65-8.55-10.56-9-21.43-17.66-32.11-26.54-10.39-8.63-19.78-18.34-28.56-28.51-5.34-6.18-9.8-13.01-14.77-19.46-.57.28-1.16.51-1.83.57-1.6.14-2.55-.14-4.11-.45-4-.79-6.82,3.16-10.84,2.37-3.6-.71-6.58-.95-10.27-.42-1.21.17-2.71.36-3.92.09-1.4-.31-2.09-.88-3.38-1.43-.28-.12-.56-.2-.85-.26-1.08.33-2.16.67-3.22,1.04-7.33,5.5-14.45,11.29-22.07,16.46-15.15,10.27-30.58,20.13-45.72,30.41-14.55,9.88-30.01,17.61-46.29,24.46-9.22,3.88-19.9,10.76-30.47,11.73.16.41.45.8.93,1.15,2.41,1.83,263.9-.22,266.25-.1,2.45.13,4.13-.21,5.17-.95-.78-.55-1.54-1.12-2.27-1.63Z"/>
              <path class="cls-3" d="M67.05,91.35c-60.95,0-61.69-.56-62.08-.87-.53-.4-.9-.87-1.1-1.38-.06-.15-.04-.31.04-.45.09-.14.23-.22.39-.24,7.51-.69,14.99-4.36,22.23-7.91,2.83-1.38,5.49-2.69,8.09-3.79,18.42-7.76,33.11-15.51,46.2-24.41,7.67-5.21,15.54-10.39,23.16-15.41,7.42-4.89,15.09-9.94,22.57-15.01,5.24-3.55,10.34-7.47,15.27-11.27,2.25-1.73,4.5-3.47,6.78-5.17.04-.03.09-.06.14-.07,1.07-.37,2.16-.71,3.24-1.04.09-.03.18-.03.26,0,.36.08.66.18.93.29.46.19.85.39,1.21.58.66.33,1.22.63,2.08.81.97.21,2.46.09,3.74-.09,3.48-.51,6.3-.4,10.43.42,1.76.34,3.43-.36,5.12-1.15,1.42-.66,2.89-1.34,4.55-1.34.39,0,.78.04,1.17.12l.7.14c1.16.24,2,.42,3.27.3.62-.06,1.16-.28,1.65-.52.22-.11.48-.04.63.15,1.84,2.39,3.65,4.88,5.39,7.28,2.95,4.07,6.01,8.28,9.36,12.15,9.83,11.38,19.15,20.68,28.5,28.45,4.07,3.38,8.16,6.73,12.25,10.07,6.54,5.36,13.32,10.89,19.86,16.47,2.84,2.42,5.96,4.58,8.98,6.68.88.61,1.76,1.22,2.64,1.84.43.3.86.61,1.3.93l.97.7c.14.1.22.25.22.42s-.08.32-.22.42c-1.02.72-2.49,1.07-4.5,1.07h0c-.32,0-.65,0-1-.03-.5-.02-13.29.05-32.13.16-41.41.24-118.49.7-172.32.7ZM5.23,89.35c.11.11.22.22.36.32.85.28,12.28.66,61.46.66,53.83,0,130.91-.46,172.31-.7,16.31-.1,28.1-.17,31.29-.17.52,0,.82,0,.9,0,1.81.09,3.2-.07,4.19-.49l-.32-.22c-.44-.32-.87-.63-1.29-.92-.88-.62-1.75-1.23-2.63-1.84-3.04-2.11-6.18-4.29-9.06-6.74-6.54-5.57-13.3-11.11-19.84-16.45-4.09-3.35-8.19-6.7-12.26-10.08-9.39-7.8-18.76-17.14-28.62-28.56-3.37-3.91-6.44-8.14-9.41-12.23-1.66-2.29-3.37-4.65-5.13-6.93-.47.21-1.01.39-1.63.45-1.42.13-2.39-.07-3.57-.31l-.7-.14c-1.73-.35-3.4.36-5.09,1.15-1.42.65-2.89,1.34-4.57,1.34-.4,0-.79-.04-1.18-.12-4.02-.79-6.73-.89-10.09-.41-1.38.2-2.98.33-4.11.08-.99-.22-1.64-.55-2.33-.91-.35-.18-.71-.37-1.14-.55-.21-.09-.42-.15-.63-.21-1,.31-2,.62-3,.96-2.25,1.69-4.48,3.4-6.7,5.12-4.94,3.8-10.05,7.73-15.32,11.31-7.48,5.07-15.16,10.12-22.58,15.02-7.61,5.01-15.48,10.2-23.14,15.4-13.16,8.94-27.9,16.72-46.38,24.5-2.57,1.08-5.23,2.39-8.04,3.77-7.06,3.46-14.35,7.04-21.76,7.92Z"/>
            </g>
            <path class="cls-16" d="M274.43,87.4c-3.95-2.79-7.98-5.42-11.65-8.55-10.56-9-21.43-17.66-32.11-26.54-10.39-8.63-19.78-18.34-28.56-28.51-5.34-6.18-9.8-13.01-14.77-19.46-.57.28-1.16.51-1.83.57-1.6.14-2.55-.14-4.11-.45-4-.79-6.82,3.16-10.84,2.37-3.6-.71-6.58-.95-10.27-.42-1.21.17-2.71.36-3.92.09-1.4-.31-2.09-.88-3.38-1.43-.05-.02-.09-.02-.15-.04-6.52,7.88-13.03,15.88-20.69,22.74-8.45,7.57-18.21,13.77-27.22,20.7-8.98,6.91-17.83,13.34-28.19,18.26-9.75,4.63-19.3,10.36-29.59,13.78-.86.29-1.58-.73-1.14-1.44,3.01-4.89,7.54-8.98,12.22-12.78-7.6,3.94-15.39,7.52-23.39,10.89-9.22,3.88-19.9,10.76-30.47,11.73.16.41.45.8.93,1.15,2.41,1.83,263.9-.22,266.25-.1,2.45.13,4.13-.21,5.17-.95-.78-.55-1.54-1.12-2.27-1.63ZM128.2,59.3c-8.32,11.96-35.96,11.8-35.33,10.99,8.18-10.66,12.86-13.86,22.67-23.19,4.97-4.73,10.44-9.08,15.66-13.66,4.67-6.17,9.38-12.51,15.97-16.81.79-.51,1.67.33,1.49,1.1-1.78,7.85-7.46,14.89-10.64,22.3-2.86,6.65-5.63,13.25-9.81,19.27ZM142.22,65.89c-.46.98-1.8.37-1.89-.49-1.02-10.2,9.83-40.47,13.31-45.48.44-.64,1.68-.67,1.85.23,3.07,16.33-6.5,31.47-13.28,45.74ZM209.98,79.2c-6.2-3.3-12.1-7.19-17.4-11.75-4.25-3.66-7.29-8.36-11.34-12.2.41,6.17,1.32,12.32,3.38,18.19.31.89-1.06,1.73-1.7.95-4.15-5.12-9.79-9.5-13.34-15.02-.82,6.55-2.35,13-3.71,19.48-.14.68-1.22.99-1.69.43-4.04-4.74-4.06-11.77-4.43-17.61-.46-7.43-.49-14.32.54-21.49.28-4.8.77-9.6,1.06-14.41.07-1.13,1.6-1.29,1.99-.26,2.47,6.41,5.22,13.03,6.32,19.86.18-1.98.32-3.95.55-5.93.48-4.23,2.06-8.22,2.54-12.46.11-.93,1.33-1.38,1.89-.49,5.73,9.03,7.58,19.27,15.56,26.99,7.81,7.55,15.75,14.94,21.16,24.36.5.86-.49,1.81-1.39,1.34ZM234.05,70.16c-5.68-2.41-11.07-6.37-16.37-9.52-4.59-2.73-9.28-5.66-13.11-9.36-1.88-1.81-3.56-3.75-5.1-5.77-6.74-6.92-11.72-14.73-13.03-24.86-.11-.88,1.17-1.25,1.73-.69,7.79,7.62,11.77,17.92,19.91,25.31,8.85,8.03,18.86,14.8,27.2,23.35.83.86-.21,1.97-1.23,1.54Z"/>
            <path class="cls-16" d="M274.43,87.4c-3.95-2.79-7.98-5.42-11.65-8.55-10.56-9-21.43-17.66-32.11-26.54-6.73-5.58-13-11.65-18.98-17.97,2.66,3.38,5.3,6.75,7.9,10.14,10.55,13.76,24.37,24.71,35.7,37.83.63.74.05,1.88-.99,1.64-6.93-1.61-14.12-1.3-21.08-2.7-6.97-1.39-11.85-4.36-16.56-9.45-5.76-6.22-11.15-12.7-17.65-18.24-2.77-2.36-5.51-4.72-7.99-7.3,3.31,6.15,24.49,27.94,28.44,35.32.35.66-20.95,2.87-30.25,2.6-6.5-.19-26.47-.16-27.71-2.6-3.96-4.74-2.09-27.25-2.02-30.82-.27,1.67-.54,3.35-.83,5.02-1.48,8.35-.68,17.45-3.39,25.53-.13.38-22.31-.73-22.22-1.25,1.46-8.48,5.06-16.26,8.17-24.23-2.91,3.83-5.9,7.61-8.89,11.39-2.12,2.68-3.78,5.36-5.44,8.31-.93,1.64-1.95,3.52-3.57,4.64-5.61,3.85-39.64,1.98-39.39,1.42,2.44-5.45,5.6-12.61,9.95-17.47-1.7,1.51-3.43,3-5.23,4.42-6.67,5.26-12.13,13.06-21.14,14.58-5.25.88-11.02.8-16.35,1.17-5.6.38-11.12.5-16.68-.34-.64-.1-.93-.95-.6-1.44,2.44-3.64,5.85-6.41,9.43-9.01-2.8,1.26-5.61,2.49-8.45,3.69-9.22,3.88-19.9,10.76-30.47,11.73.16.41.45.8.93,1.15,2.41,1.83,263.9-.22,266.25-.1,2.45.13,4.13-.21,5.17-.95-.78-.55-1.54-1.12-2.27-1.63Z"/>
            <g>
              <path class="cls-3" d="M159.33,22.38c-.98,3.13-2.45,6.06-3.61,9.12-1.58,4.18-2.44,8.51-3.94,12.7-2.54,7.1-5.72,13.69-7.19,21.15-.15.76.95.2,1.07-.23,1.11-3.81,2.4-7.51,3.9-11.19,1.57-3.86,3.87-7.39,5.15-11.36,1.17-3.62,1.54-7.51,2.56-11.18.85-3.08,1.95-5.98,2.6-9.11.08-.39-.48-.1-.54.12Z"/>
              <path class="cls-3" d="M144.9,14.97c-2.92,4.55-6.86,8.94-10.34,13.13-3.67,4.43-10.18,6.8-14.88,10.05-9.18,6.36-17.76,13.81-26.59,20.63-.39.3-.23.91.28.53,10.69-7.78,20.99-15.85,32.56-22.37,9.06-5.1,14.62-12.99,19.47-21.85.25-.45-.28-.45-.49-.12Z"/>
              <path class="cls-3" d="M211.77,67.38c-5.15-6.73-10.73-13.08-17.05-18.8-4.17-3.78-5.6-8.3-8.39-12.88-2.3-3.78-4.24-7.52-6.01-11.57-.1-.24-.51.15-.47.34,1.05,3.9,2.03,7.68,3.62,11.41,1.47,3.47,3.26,7.7,5.97,10.41,3.39,3.39,7.32,6.18,10.75,9.54,3.91,3.83,7.39,8.04,11.08,12.06.18.19.63-.3.49-.49Z"/>
              <path class="cls-3" d="M249.22,81.03c-4.39-2.31-8.1-5.38-12.25-8.01-4.57-2.9-9.35-5.46-13.94-8.33-4.07-2.55-7.67-5.64-11.72-8.22-4.21-2.67-8-6.22-11.21-9.94-.18-.21-.65.3-.51.51,5.17,7.4,12.85,13.42,20.69,18.12,5.19,3.12,10.73,5.66,15.93,8.76,4.29,2.56,7.88,5.85,12.63,7.65.22.09.62-.42.39-.55Z"/>
              <path class="cls-3" d="M229.73,58.51c-5.33-5.76-12.38-10.44-16.97-16.71-4.04-5.54-10.5-9.82-13.72-15.94-.11-.2-.42.14-.39.29.47,2.38,2.41,4.22,3.75,6.18,2.63,3.84,5.27,7.7,8.21,11.31,2.42,2.97,4.69,4.18,8.06,6.16,3.92,2.31,7.16,6.33,10.58,9.28.24.21.69-.35.48-.57Z"/>
              <path class="cls-3" d="M171.05,63.04c-.3-3.58-1.49-7.14-1.83-10.76-.03-.34-.49.07-.52.24-.53,3.57-.59,6.61-.11,10.27.55,4.23.42,8.42,1.16,12.66.1.64.92-.13.97-.45.58-3.96.68-7.97.34-11.96Z"/>
              <path class="cls-3" d="M158.57,75.22c-.14-.28-.56.2-.49.41.42,1.35-.12,2.81.1,4.19.08.51.75-.1.79-.37.18-1.27.18-3.06-.4-4.23Z"/>
              <path class="cls-3" d="M144.41,46.59c-2.54,6.25-5.67,12.22-8.8,18.21-2.32,4.41-5.6,9.28-5.92,14.32-.06.97,1.12.42,1.38-.12,5.11-10.54,10.34-21.27,13.8-32.45.12-.39-.36-.2-.46.04Z"/>
            </g>
            <g>
              <path class="cls-1" d="M140.46,14.59c-1.37,1.88-5.08,3.67-6.95,5.01-3.64,2.62-7.08,5.48-10.75,8.06-6.93,4.88-13.9,9.72-21.04,14.32-6.51,4.19-12.95,8.47-19.62,12.42-6.38,3.78-13.28,6.78-19.28,11.13-.21.15-.19.64.13.41,6.41-4.5,13.91-7.46,20.79-11.26,7.01-3.89,14.11-7.6,20.88-11.85,6.9-4.32,13.43-9.26,20.02-14.01,3.79-2.74,7.21-5.96,10.74-8.99,1.77-1.52,4.31-3.01,5.39-5.1.14-.27-.14-.37-.31-.15Z"/>
              <path class="cls-1" d="M125.1,40.98c-4.22,1.86-7.66,5.78-10.85,8.92-1.39,1.36-3.05,2.48-4.39,3.91-1.85,1.96-3.22,4.2-5.24,6.01-.35.31-.42,1.25.24.81,7.63-5,14.66-12.32,20.38-19.22.11-.13.19-.57-.14-.43Z"/>
              <path class="cls-1" d="M151.61,30.34c-.07,0-.12.04-.18.07-.13.05-.47.38-.25.53-.09-.06-1.89,3.46-2.15,4.11-.78,1.89-1.4,3.91-1.79,5.91-.26,1.28,1.4.36,1.72-.14,1.92-3,2.88-6.73,2.95-10.25,0-.19-.09-.27-.28-.22Z"/>
              <path class="cls-1" d="M163.54,33.99c-.18-.32-.66.17-.67.39-.13,4.54-1.33,8.97-1.37,13.51-.05,5.59.53,11.4,1.07,16.97.06.6.95-.08.96-.45.17-5.51,1.13-11.08,1.08-16.57-.03-4.22,1.17-10-1.07-13.86Z"/>
              <path class="cls-1" d="M191.98,63.61c-4.52-9.57-10.61-18.55-15.83-27.79-.17-.29-.62.22-.54.46,1.87,5.38,2.61,11.52,5.8,16.38,2.79,4.25,6.21,8.12,9.52,12.01.39.46,1.25-.63,1.04-1.06Z"/>
              <path class="cls-1" d="M199.38,40.84c-.87-2.11-1.88-4.34-3.18-6.24-.62-.91-1.15-2.11-1.97-2.85-1.04-.96-1.93-1.74-2.69-2.94-.2-.31-.7.23-.58.49,1.08,2.38,1.55,5.03,2.76,7.41,1.2,2.33,2.22,3.76,4.35,5.45.63.5,1.53-.76,1.3-1.32Z"/>
            </g>
          </g>
        </g>
      </g>
    </g>
  </g>
</svg>