<?xml version="1.0" encoding="UTF-8"?>
<svg xmlns="http://www.w3.org/2000/svg" width="182.41" height="100" viewBox="0 0 182.41 100">
  <defs>
    <style>
      .cls-1 {
        fill: #5e2c00;
      }

      .cls-2, .cls-3, .cls-4 {
        mix-blend-mode: screen;
      }

      .cls-2, .cls-5, .cls-6 {
        fill: #ffd98c;
      }

      .cls-7, .cls-8 {
        fill: #f6a97c;
      }

      .cls-8, .cls-9, .cls-5, .cls-10 {
        mix-blend-mode: multiply;
      }

      .cls-11 {
        isolation: isolate;
      }

      .cls-3, .cls-9, .cls-12 {
        fill: #fff594;
      }

      .cls-4, .cls-13 {
        fill: #ea5159;
      }

      .cls-10 {
        fill: #f0a87d;
        opacity: .5;
      }
    </style>
  </defs>
  <g class="cls-11">
    <g id="Layer_2" data-name="Layer 2">
      <g id="Layer_1-2" data-name="Layer 1">
        <g>
          <g>
            <path class="cls-1" d="M180.19,14.39c-1.02-1.73-2.52-3.02-4.25-3.9-.02-.07-.07-.13-.14-.16-3.79-1.78-8.03-1.96-12.16-2.33-5.84-.53-11.77-1.17-17.63-1.29-11.45-.23-22.85-2.36-34.32-2.56-10.81-.18-21.27-3.69-32.04-4.02-1.98-.06-4.12-.22-6.09-.05-2.42.21-4.17,1.31-6.31,2.39-1.84.92-3.32,2.75-4.51,4.65-4.69,5.62-6.88,14.3-2.68,20.15-1.11,1.17-2.71,2.18-3.8,3.21-1.84,1.74-3.63,3.54-5.42,5.33-3.86,3.84-7.66,7.75-11.47,11.64-7.13,7.31-14,14.86-20.47,22.75-6.46,7.87-12.44,16.1-17.8,24.75-1.29,2.08-1.95,3.97.92,4.76,4.38,1.21,10.12-1.72,14.13-3.12,20.72-7.23,41.62-14.19,62.64-20.5,20.39-6.12,41.35-9.7,61.68-16.07,6.17-1.93,12.15-4.35,18.1-6.87,5.82-2.47,10.14-5.35,14.66-9.76,6.96-6.79,12.41-19.81,6.97-29Z"/>
            <path class="cls-6" d="M65.63,5.32c2.14-1.85,4.66-3.07,7.99-3.01,4.85.09,9.65.36,14.43,1.23,4.97.9,9.84,1.67,14.88,2.16,4.6.45,9.22.5,13.84.87,10.16.84,20.38,1.72,30.57,2.28,4.98.28,10.11.54,15.06,1.19,1,.13,2.01.27,3.02.39-2.11,1.26-4.07,2.85-5.83,4.62.04-.03.08-.07.12-.1-3.53,3.54-5.62,8.65-4.6,13.33,1.27,5.82,2.77,10.19,8.6,12.31.53.19,1.6.32,2.66.23.41.11.82.17,1.23.16-1.21,2.53-3.81,4.16-6.52,4.19-.75.29-1.57.06-2.34-.4-.21-.07-.41-.15-.61-.25-2.46-1.18-4.61-3.15-6.97-4.54-4.02-2.37-8.02-4.16-12.54-5.35-5.06-1.32-9.76-3.65-14.94-4.71-5.9-1.21-11.79-2.48-17.76-3.33-10.58-1.5-21.12-1.1-31.69.12-2.69.31-5.37.66-8.09.53-3.53-.17-4.87-2.67-5.82-5.64-1.78-5.58,1.21-12.11,5.31-16.28Z"/>
            <path class="cls-2" d="M63.04,16.08c.75-2.87,2.02-5.44,4.34-7.38,2.54-2.12,6.03-2.53,9.22-2.45,10.3.26,20.63,1.16,30.9,1.94,5.59.43,11.17.96,16.78,1.01,5.57.05,11.13-.16,16.69-.3,1.82-.05,3.63-.09,5.45-.1-9.88-.56-19.8-1.41-29.66-2.22-4.61-.38-9.23-.43-13.84-.87-5.03-.49-9.9-1.25-14.88-2.16-4.78-.87-9.58-1.14-14.43-1.23-3.33-.06-5.84,1.15-7.99,3.01-4.1,4.17-7.09,10.7-5.31,16.28.59,1.84,1.33,3.49,2.64,4.53-1.15-3.08-.65-7.25.08-10.04Z"/>
            <path class="cls-5" d="M163.7,40.6c-5.83-2.12-7.33-6.48-8.6-12.31-1.02-4.68,1.07-9.8,4.6-13.33-.04.03-.08.07-.12.1.17-.17.35-.34.53-.5-2.68,1.55-4.98,3.72-6.43,6.5-1.58,3.04-1.63,7.35-4.46,9.63-2.1,1.69-4.76,1.82-7.32,1.32-4.31-.84-8.37-2.71-12.62-3.83-10.56-2.79-21.33-3.44-32.17-2.42,2.93.15,5.87.41,8.8.83,5.97.85,11.86,2.12,17.76,3.33,5.18,1.06,9.88,3.39,14.94,4.71,4.52,1.18,8.52,2.98,12.54,5.35,2.36,1.39,4.51,3.36,6.97,4.54.2.1.4.17.61.25.77.46,1.59.69,2.34.4,2.71-.02,5.31-1.66,6.52-4.19-.41,0-.82-.05-1.23-.16-1.06.09-2.13-.03-2.66-.23Z"/>
            <path class="cls-12" d="M15.23,93.31c-2.88,1.2-9.19,4.54-11.08,4.19-1.54-.16-2.6-.89-1.1-2.94,1.35-1.84,2.47-3.91,3.68-5.85,5.19-8.31,11.71-16.03,18.07-23.45,6.22-7.25,12.8-14.17,19.51-20.97,3.26-3.3,6.42-6.71,9.65-10.04,1.96-2.02,4.75-4.09,6.49-6.49.1.13.2.26.31.38,1.63,1.85,5.25,1.52,7.36,1.41,3.34-.17,6.64-.8,9.94-1.29,8.11-1.21,16.23-1.43,24.39-.55,7.26.77,14.32,2.54,21.42,4.18,3.48.81,6.97,2.11,10.29,3.41,3.51,1.38,7.25,2.23,10.61,3.94,3.04,1.55,6.31,3.26,8.97,5.4,1.16.94,2.29,1.67,3.51,2.13-.66.26-1.35.47-1.8.65-2,.79-4.03,1.54-6.1,2.13-3.52.99-7.16,1.44-10.76,2.07-8.08,1.44-16.18,3.68-24.3,4.77-4.68.63-12.07,1.89-14.4,6.69-2.05,4.25-6,2.9-9.82,1.99-3.36-.8-6.04-1.04-9.35.07-1.72.58-3.03,2.03-4.06,3.46-2.63,3.66-7.32,4.02-11.42,4.74-7.52,1.31-14.21,5.61-21.46,7.89-2.8.88-5.26,2.5-8.02,3.52-3.83,1.42-7.57,3.18-11.34,4.75-3.07,1.27-6.15,2.52-9.22,3.8Z"/>
            <path class="cls-3" d="M2.6,96.91c1.45-2.92,3.52-5.55,5.55-8.06,3.03-3.74,5.81-7.62,8.74-11.44,6.28-8.18,13.47-15.65,20.75-22.94,7.42-7.42,15.33-14.1,23.47-20.7,1.7-1.38,3.4-2.76,5.12-4.12-1.97.05-4.26-.13-5.47-1.5-.11-.12-.21-.25-.31-.38-1.74,2.4-4.53,4.47-6.49,6.49-3.24,3.33-6.39,6.73-9.65,10.04-6.71,6.79-13.29,13.72-19.51,20.97-6.37,7.42-12.88,15.14-18.07,23.45-1.21,1.94-2.33,4-3.68,5.85-.85,1.17-.87,1.9-.45,2.35Z"/>
            <path class="cls-9" d="M153.74,44.66c-2.66-2.14-5.92-3.86-8.97-5.4-3.37-1.71-7.11-2.56-10.61-3.94-3.33-1.3-6.81-2.61-10.29-3.41-7.09-1.65-14.16-3.41-21.42-4.18-8.16-.87-16.28-.65-24.39.55-3.3.49-6.6,1.12-9.94,1.29-2.11.11-5.73.44-7.36-1.41-.11-.12-.21-.25-.31-.38-1.36,1.88-3.36,3.55-5.11,5.16.96,0,1.84.18,2.81.41,1.58.38,3.15.16,4.73-.15,2.62-.51,5.18-1.3,7.82-1.72,11.68-1.86,23.39-1.52,35.15-.93,5.82.29,12.14.59,17.51,3.08,2.37,1.1,4.54,2.67,5.63,5.12,1.12,2.53.56,5.77-1.92,7.28-3.89,2.37-8.83.66-13.09,1.57-4.23.91-6.77,3.57-9.44,6.74-1.93,2.29-4.09,4.99-7.06,5.96-3.69,1.19-6.58-.71-9.95-1.91-9.23-3.28-13.24,8.16-20.63,11-4.56,1.75-9.18,1.15-13.91,1.71-4.83.56-9.43,2.23-13.72,4.5-8.25,4.35-15.98,9.84-23.74,14.99-3.22,2.14-7.18,4.86-11.19,5.08-.69.04-1.31-.03-1.84-.19-.6,1.37.35,1.9,1.63,2.04,1.89.35,8.2-2.98,11.08-4.19,3.07-1.28,6.15-2.52,9.22-3.8,3.77-1.57,7.51-3.33,11.34-4.75,2.76-1.02,5.22-2.64,8.02-3.52,7.24-2.29,13.94-6.58,21.46-7.89,4.1-.71,8.78-1.08,11.42-4.74,1.03-1.43,2.33-2.88,4.06-3.46,3.31-1.11,5.98-.87,9.35-.07,3.82.91,7.76,2.26,9.82-1.99,2.32-4.8,9.72-6.06,14.4-6.69,8.12-1.09,16.21-3.34,24.3-4.77,3.59-.64,7.23-1.08,10.76-2.07,2.07-.58,4.1-1.33,6.1-2.13.45-.18,1.14-.38,1.8-.65-1.22-.45-2.35-1.19-3.51-2.13Z"/>
            <path class="cls-7" d="M173.46,41.09c-3.65,3.83-7.33,6.62-12.15,8.79-5.28,2.36-10.63,4.57-16.1,6.46-20.19,7-41.31,10.12-61.72,16.22-20.81,6.22-41.41,13.17-61.97,20.14,6.69-2.5,13.3-5.53,19.7-8.6,3.43-1.64,7.45-2.1,10.83-3.89,3.88-2.07,7.9-3.74,12.23-4.58,3.11-.6,6.92-.78,9.68-2.49,2.96-1.83,4.02-5.18,7.59-6.24,5.83-1.73,13.11,4.94,18.11-.1.69-.69,1.09-1.59,1.47-2.47,1.13-2.61,3.56-3.37,6.09-4.17,3.97-1.25,8.37-1.76,12.45-2.61,8.35-1.74,16.84-2.94,25.16-4.8,3.57-.8,6.87-2.1,10.19-3.6,1.19-.54,2.58-1.11,3.63-2,.74.13,1.52.17,2.38.07,3.64-.41,6.52-3.11,7.71-6.42,2.76-.75,5.24-3.77,6.35-6.07,2.03-4.21,2.28-9.42-2.39-11.76-.23-.11-.67.42-.49.61,2.68,2.64,2.94,5.66,2.13,9.2-.95,4.09-3.75,5.7-7.42,6.43-.08.02-.19.08-.3.16-3.83-.35-7.43-4.06-8.61-7.55-1.04-3.07-1.54-6.89-.66-10.17.45-2.06,1.46-3.98,3.18-5.63,2.51-2.41,4.83-3.63,7.84-4.28,2.11-.04,4.25.45,6.31,1.61,9.7,5.5,4.75,21.45-1.23,27.72Z"/>
            <path class="cls-8" d="M174.68,13.37c-1.56-.88-3.17-1.38-4.78-1.55,3.79,1.68,6.61,5.4,5.14,9.76-.09.26-.38.32-.58.15-2.23-1.89-5.64-2.7-8.24-1-2.64,1.72-3.56,5.26-2.6,8.21.73,2.24,2.81,3.4,4.92,1.99,2.09-1.4,2.81-3.87,2.2-6.25-.07-.27.25-.58.51-.39,3.58,2.7,1.23,7.71-1.15,10.4-1.82,2.05-4.15,3.56-6.61,3.67.99.55,2.04.92,3.12,1.02.11-.09.22-.15.3-.16,3.67-.73,6.47-2.34,7.42-6.43.82-3.54.55-6.56-2.13-9.2-.19-.18.26-.72.49-.61,4.67,2.34,4.42,7.55,2.39,11.76-1.11,2.3-3.58,5.32-6.35,6.07-1.19,3.31-4.07,6.01-7.71,6.42-.85.1-1.63.06-2.38-.07-1.04.89-2.43,1.46-3.63,2-3.32,1.49-6.62,2.8-10.19,3.6-8.33,1.85-16.81,3.06-25.16,4.8-4.08.85-8.48,1.35-12.45,2.61-2.54.8-4.96,1.56-6.09,4.17-.38.88-.79,1.78-1.47,2.47-5,5.04-12.28-1.63-18.11.1-3.58,1.06-4.64,4.4-7.59,6.24-2.76,1.71-6.57,1.89-9.68,2.49-4.33.84-8.35,2.51-12.23,4.58-3.37,1.79-7.4,2.25-10.83,3.89-6.4,3.07-13.02,6.1-19.7,8.6,20.56-6.96,41.17-13.92,61.97-20.14,20.42-6.1,41.54-9.22,61.72-16.22,5.47-1.9,10.82-4.1,16.1-6.46,4.83-2.16,8.5-4.95,12.15-8.79,5.97-6.28,10.92-22.23,1.23-27.72Z"/>
            <g>
              <path class="cls-1" d="M64.27,31.07c-5.72-1.34-19.54,6.55-14.38,13.54,0,0,.01.01.02.02.07.18.14.36.22.55,1.82,4.16,8.98,3.25,12.1,1.85,3.68-1.65,6.93-4.11,8.5-7.91,2.16-5.21-2.29-7.07-6.45-8.05Z"/>
              <path class="cls-13" d="M69.17,36.39c.22.41.36.81.44,1.21-.02.03-.05.06-.06.09-2.47,5.56-8.82,7.56-14.37,7.51-2.1-.02-3.82-1.05-4.45-2.56-.07-1.76.74-3.69,1.78-5.07,2.65-2.47,5.24-3.68,8.73-4.43,2.58-.56,6.7.95,7.93,3.24Z"/>
              <path class="cls-4" d="M52.67,40.6c1.79-3.88,6.22-5.93,10.38-5.82,2.13.05,4.88.59,6.39,2.2-.07-.2-.16-.4-.27-.6-1.22-2.29-5.34-3.8-7.93-3.24-3.49.75-6.08,1.96-8.73,4.43-1.04,1.38-1.85,3.31-1.78,5.07.47,1.12,1.54,1.98,2.92,2.35-1.41-.72-2.06-2.06-.98-4.39Z"/>
              <path class="cls-13" d="M61.34,46.52c-2.61.96-5.52.99-8.02-.22,2.52.42,5.8-.29,7.47-.92,3.98-1.48,6.91-3.1,8.89-6.59-.33,3.66-5.51,6.69-8.34,7.73Z"/>
            </g>
            <g>
              <path class="cls-1" d="M97.09,36.17c-5.72-1.34-19.54,6.55-14.38,13.54,0,0,.01.01.02.02.07.18.14.36.22.55,1.82,4.16,8.98,3.25,12.1,1.85,3.68-1.65,6.93-4.11,8.5-7.91,2.16-5.21-2.29-7.07-6.45-8.05Z"/>
              <path class="cls-13" d="M101.99,41.49c.22.41.36.81.44,1.21-.02.03-.05.06-.06.09-2.47,5.56-8.82,7.56-14.37,7.51-2.1-.02-3.82-1.05-4.45-2.56-.07-1.76.74-3.69,1.78-5.07,2.65-2.47,5.24-3.68,8.73-4.43,2.58-.56,6.7.95,7.93,3.24Z"/>
              <path class="cls-4" d="M84.51,46.88c.79-2.82,3.52-5.08,6.1-6.26,3.09-1.43,7.48-2.16,10.26-.45-1.77-1.51-4.76-2.35-6.81-1.91-3.49.75-6.08,1.96-8.73,4.43-1.04,1.38-1.85,3.31-1.78,5.07.24.58.65,1.09,1.17,1.5-.37-.6-.5-1.37-.22-2.37Z"/>
              <path class="cls-13" d="M94.17,51.63c-2.61.96-5.52.99-8.02-.22,2.52.42,5.8-.29,7.47-.92,3.98-1.48,6.91-3.1,8.89-6.59-.33,3.66-5.51,6.69-8.34,7.73Z"/>
            </g>
            <g>
              <path class="cls-1" d="M69.47,53.53c-5.72-1.34-19.54,6.55-14.38,13.54,0,0,.01.01.02.02.07.18.14.36.22.55,1.82,4.16,8.98,3.25,12.1,1.85,3.68-1.65,6.93-4.11,8.5-7.91,2.16-5.2-2.29-7.07-6.45-8.05Z"/>
              <path class="cls-13" d="M74.37,58.84c.22.41.36.81.44,1.22-.02.03-.05.06-.06.09-2.47,5.56-8.82,7.56-14.37,7.51-2.1-.02-3.82-1.06-4.45-2.56-.07-1.76.74-3.69,1.78-5.07,2.65-2.47,5.24-3.68,8.73-4.43,2.58-.56,6.7.95,7.93,3.24Z"/>
              <path class="cls-4" d="M57.59,65.13c.08-2.76,1.98-5.05,4.23-6.47,2.75-1.73,6.03-2.63,9.23-1.78.91.24,1.84.58,2.65,1.06-1.67-1.76-5.03-2.81-7.25-2.34-3.49.75-6.08,1.96-8.73,4.43-1.04,1.38-1.85,3.32-1.78,5.07.38.9,1.15,1.63,2.15,2.08-.33-.58-.53-1.27-.5-2.05Z"/>
              <path class="cls-13" d="M66.55,68.98c-2.61.96-5.52,1-8.02-.22,2.52.42,5.8-.29,7.47-.92,3.98-1.48,6.91-3.1,8.89-6.59-.33,3.66-5.51,6.69-8.34,7.73Z"/>
            </g>
            <g>
              <path class="cls-1" d="M133.77,36.18c-5.72-1.34-19.54,6.55-14.38,13.54,0,0,.01.01.02.02.07.18.14.36.22.55,1.82,4.16,8.98,3.25,12.1,1.85,3.68-1.65,6.93-4.11,8.5-7.91,2.15-5.2-2.29-7.07-6.45-8.05Z"/>
              <path class="cls-13" d="M138.67,41.49c.22.41.36.81.44,1.22-.02.03-.05.06-.06.09-2.47,5.56-8.82,7.56-14.37,7.51-2.1-.02-3.82-1.06-4.45-2.56-.07-1.76.74-3.69,1.78-5.07,2.65-2.47,5.24-3.68,8.73-4.43,2.59-.56,6.7.95,7.93,3.24Z"/>
              <path class="cls-4" d="M122.17,49.63c-1.07-1.12-1.51-2.63-.78-4.08,1.33-2.63,3.97-4.37,6.78-5.04,2.99-.72,9.13-1.32,10.82,1.73-.08-.25-.18-.5-.31-.75-1.22-2.29-5.34-3.8-7.93-3.24-3.49.75-6.08,1.96-8.73,4.43-1.04,1.38-1.85,3.32-1.78,5.07.38.91,1.16,1.64,2.18,2.09-.08-.07-.17-.13-.25-.21Z"/>
              <path class="cls-13" d="M130.85,51.63c-2.61.96-5.52.99-8.02-.22,2.52.42,5.8-.29,7.47-.92,3.98-1.48,6.91-3.1,8.89-6.59-.33,3.66-5.51,6.69-8.34,7.73Z"/>
            </g>
            <g>
              <path class="cls-1" d="M33.14,69.3c-5.72-1.34-19.54,6.55-14.38,13.54,0,0,.01.01.02.02.07.18.14.36.22.55,1.82,4.16,8.98,3.25,12.1,1.85,3.68-1.65,6.93-4.11,8.5-7.91,2.16-5.21-2.29-7.07-6.45-8.05Z"/>
              <path class="cls-13" d="M38.04,74.61c.22.41.36.81.44,1.21-.02.03-.05.06-.06.09-2.47,5.56-8.82,7.56-14.37,7.51-2.1-.02-3.82-1.05-4.45-2.56-.07-1.76.74-3.69,1.78-5.07,2.65-2.47,5.24-3.68,8.73-4.43,2.58-.56,6.7.95,7.93,3.24Z"/>
              <path class="cls-4" d="M21.27,79.92c.72-3.06,3.45-5.19,6.29-6.24,2.39-.88,6.62-1.68,9.33-.43-1.78-1.49-4.74-2.32-6.77-1.88-3.49.75-6.08,1.96-8.73,4.43-1.04,1.38-1.85,3.31-1.78,5.07.39.94,1.2,1.69,2.26,2.13-.63-.76-.9-1.79-.6-3.08Z"/>
              <path class="cls-13" d="M30.22,84.75c-2.61.96-5.52.99-8.02-.22,2.52.42,5.8-.29,7.47-.92,3.98-1.48,6.91-3.1,8.89-6.59-.33,3.66-5.51,6.69-8.34,7.73Z"/>
            </g>
          </g>
          <path class="cls-10" d="M41.55,58.61c.83.69.87,2,.1,2.92-.77.92-2.06,1.1-2.89.41-.83-.69-.87-2-.1-2.92.77-.92,2.06-1.1,2.89-.41Z"/>
          <path class="cls-10" d="M47,72.73c.68.57.72,1.66.09,2.42-.64.76-1.71.91-2.39.34-.68-.57-.72-1.66-.09-2.42.64-.76,1.71-.91,2.39-.34Z"/>
          <path class="cls-10" d="M77.64,42.85c.68.57.72,1.65.09,2.42-.64.76-1.71.91-2.39.34-.68-.57-.72-1.66-.09-2.42.64-.76,1.71-.91,2.39-.34Z"/>
          <path class="cls-10" d="M118.23,38.18c.68.57.72,1.66.09,2.42-.64.76-1.71.91-2.39.34-.68-.57-.72-1.66-.09-2.42.64-.76,1.71-.91,2.39-.34Z"/>
          <path class="cls-10" d="M97.91,58.9c.68.57.72,1.65.09,2.42-.64.76-1.71.91-2.39.34s-.72-1.66-.09-2.42c.64-.76,1.71-.91,2.39-.34Z"/>
        </g>
      </g>
    </g>
  </g>
</svg>