<?xml version="1.0" encoding="UTF-8"?>
<svg xmlns="http://www.w3.org/2000/svg" width="231.82" height="100" viewBox="0 0 231.82 100">
  <defs>
    <style>
      .cls-1 {
        fill: #d4d8d9;
        mix-blend-mode: multiply;
      }

      .cls-2 {
        fill: #5e2c00;
      }

      .cls-3 {
        fill: #fff;
      }

      .cls-4 {
        isolation: isolate;
      }
    </style>
  </defs>
  <g class="cls-4">
    <g id="Layer_2" data-name="Layer 2">
      <g id="Layer_1-2" data-name="Layer 1">
        <g>
          <g>
            <path class="cls-3" d="M229.96,50c0,26.6-51.07,48.15-114.06,48.15S1.86,76.6,1.86,50,52.92,1.85,115.91,1.85s114.06,21.56,114.06,48.15Z"/>
            <path class="cls-2" d="M115.91,100C50.91,100,0,78.03,0,50S50.91,0,115.91,0s115.91,21.96,115.91,50-50.91,50-115.91,50ZM115.91,3.7C54.04,3.7,3.71,24.47,3.71,50s50.33,46.3,112.2,46.3,112.21-20.77,112.21-46.3S177.78,3.7,115.91,3.7Z"/>
          </g>
          <path class="cls-1" d="M115.91,81.6c-47.83,0-85.28-15.19-85.28-34.58S68.08,12.45,115.91,12.45s85.28,15.19,85.28,34.57-37.46,34.58-85.28,34.58ZM115.91,16.29c-49.17,0-82.19,15.89-82.19,30.73s33.02,30.73,82.19,30.73,82.19-15.89,82.19-30.73-33.03-30.73-82.19-30.73Z"/>
          <polygon class="cls-1" points="115.91 79.67 118.36 95.74 113.46 95.73 115.91 79.67"/>
          <polygon class="cls-1" points="32.17 47.02 3.13 44.62 3.13 50.73 32.17 47.02"/>
          <polygon class="cls-1" points="199.64 47.02 229.96 44.62 229.95 50.73 199.64 47.02"/>
          <polygon class="cls-1" points="58.08 70.63 37.39 84.92 41.85 86.62 58.08 70.63"/>
          <polygon class="cls-1" points="173.79 70.63 194.48 84.92 190.04 86.62 173.79 70.63"/>
          <polygon class="cls-1" points="221.55 68.17 192.43 60.27 216.47 72.72 221.55 68.17"/>
          <polygon class="cls-1" points="163.52 93.7 145.79 77.53 156.57 95 163.52 93.7"/>
          <polygon class="cls-1" points="68.47 93.7 86.2 77.53 75.41 95 68.47 93.7"/>
          <polygon class="cls-1" points="13.09 71.43 37.39 60.27 20.04 72.72 13.09 71.43"/>
          <polygon class="cls-1" points="115.91 15.57 118.36 4.86 113.46 4.86 115.91 15.57"/>
          <polygon class="cls-1" points="53.36 25.31 37.39 15.67 41.85 13.98 53.36 25.31"/>
          <polygon class="cls-1" points="177.39 26.43 194.48 15.67 190.04 13.98 177.39 26.43"/>
          <polygon class="cls-1" points="221.55 32.42 192.43 40.33 216.47 27.87 221.55 32.42"/>
          <polygon class="cls-1" points="163.52 6.9 146.99 17.07 156.57 5.6 163.52 6.9"/>
          <polygon class="cls-1" points="68.47 6.9 82.5 17.07 75.41 5.6 68.47 6.9"/>
          <polygon class="cls-1" points="13.09 29.17 37.39 40.33 20.04 27.87 13.09 29.17"/>
        </g>
      </g>
    </g>
  </g>
</svg>