<?xml version="1.0" encoding="UTF-8"?>
<svg xmlns="http://www.w3.org/2000/svg" width="260.12" height="100" viewBox="0 0 260.12 100">
  <defs>
    <style>
      .cls-1, .cls-2, .cls-3 {
        mix-blend-mode: multiply;
      }

      .cls-1, .cls-4 {
        fill: #ca7757;
      }

      .cls-5 {
        fill: #5e2c00;
      }

      .cls-2, .cls-6 {
        fill: #77cfe2;
      }

      .cls-7 {
        fill: #8b8b8b;
      }

      .cls-8 {
        fill: #9a9a9a;
      }

      .cls-9 {
        fill: #7d7d7d;
      }

      .cls-10 {
        fill: #fff;
      }

      .cls-11 {
        fill: #6e6e6e;
      }

      .cls-12 {
        fill: #606060;
      }

      .cls-13 {
        fill: #e2e2e2;
      }

      .cls-14 {
        isolation: isolate;
      }

      .cls-15 {
        fill: #f1f1f1;
      }

      .cls-16 {
        fill: #c5c5c5;
      }

      .cls-17 {
        fill: #a8a8a8;
      }

      .cls-18 {
        fill: #c4e7e5;
      }

      .cls-19 {
        fill: #d4d4d4;
      }

      .cls-20 {
        fill: #b7b7b7;
      }
    </style>
  </defs>
  <g class="cls-14">
    <g id="Layer_2" data-name="Layer 2">
      <g id="Layer_1-2" data-name="Layer 1">
        <g>
          <g class="cls-3">
            <path class="cls-10" d="M22.56,61.99c10.4,4.86,24.87,8.9,42,11.72,6.88,17.27,52.87,26.29,97.34,26.29,25.5,0,49.53-2.83,67.66-7.97,20-5.67,30.56-13.56,30.56-22.83,0-7.59-6.77-14.09-20.15-19.36,1.85-2.72,2.79-5.58,2.79-8.53,0-23.94-61.63-36.87-119.61-36.87S3.54,17.37,3.54,41.31c0,7.82,6.4,14.78,19.03,20.68Z"/>
            <path class="cls-15" d="M22.24,61.59c10.4,4.86,24.88,8.9,42,11.72,6.88,17.27,52.87,26.29,97.34,26.29,25.5,0,49.53-2.83,67.66-7.97,20-5.67,30.57-13.56,30.57-22.83,0-7.59-6.77-14.09-20.15-19.36,1.85-2.72,2.79-5.58,2.79-8.53,0-23.94-61.62-36.87-119.61-36.87S3.22,16.96,3.22,40.91c0,7.82,6.4,14.78,19.03,20.68Z"/>
            <path class="cls-13" d="M21.92,61.19c10.4,4.86,24.87,8.9,42,11.72,6.88,17.27,52.87,26.29,97.34,26.29,25.5,0,49.53-2.83,67.66-7.97,20-5.67,30.56-13.56,30.56-22.83,0-7.59-6.77-14.09-20.15-19.36,1.85-2.72,2.79-5.58,2.79-8.53,0-23.94-61.62-36.87-119.61-36.87S2.89,16.56,2.89,40.5c0,7.82,6.4,14.78,19.03,20.68Z"/>
            <path class="cls-19" d="M21.6,60.78c10.4,4.86,24.88,8.9,41.99,11.72,6.88,17.27,52.87,26.29,97.34,26.29,25.5,0,49.53-2.83,67.66-7.97,20-5.67,30.57-13.56,30.57-22.83,0-7.59-6.77-14.09-20.15-19.36,1.85-2.72,2.79-5.58,2.79-8.53,0-23.94-61.62-36.87-119.61-36.87S2.57,16.15,2.57,40.1c0,7.82,6.4,14.78,19.03,20.68Z"/>
            <path class="cls-16" d="M21.28,60.38c10.4,4.86,24.87,8.9,41.99,11.72,6.88,17.27,52.87,26.29,97.34,26.29,25.5,0,49.53-2.83,67.66-7.97,20-5.67,30.56-13.56,30.56-22.83,0-7.59-6.77-14.09-20.15-19.36,1.85-2.72,2.79-5.58,2.79-8.53,0-23.94-61.63-36.86-119.61-36.86S2.25,15.75,2.25,39.69c0,7.82,6.4,14.78,19.02,20.69Z"/>
            <path class="cls-20" d="M20.96,59.97c10.4,4.86,24.88,8.9,41.99,11.72,6.88,17.27,52.87,26.29,97.34,26.29,25.5,0,49.53-2.83,67.66-7.97,20-5.67,30.56-13.57,30.56-22.84,0-7.59-6.77-14.09-20.15-19.36,1.85-2.73,2.79-5.58,2.79-8.53,0-23.94-61.62-36.87-119.61-36.87S1.93,15.35,1.93,39.29c0,7.82,6.4,14.78,19.03,20.68Z"/>
            <path class="cls-17" d="M20.63,59.57c10.4,4.86,24.88,8.9,41.99,11.72,6.88,17.27,52.87,26.29,97.34,26.29,25.5,0,49.53-2.83,67.66-7.97,20-5.67,30.56-13.56,30.56-22.83,0-7.59-6.77-14.09-20.15-19.36,1.85-2.73,2.79-5.58,2.79-8.53,0-23.94-61.62-36.87-119.61-36.87S1.61,14.94,1.61,38.89c0,7.82,6.4,14.78,19.02,20.68Z"/>
            <path class="cls-8" d="M20.31,59.17c10.4,4.86,24.87,8.9,41.99,11.72,6.88,17.27,52.87,26.29,97.34,26.29,25.5,0,49.53-2.83,67.66-7.97,20-5.67,30.56-13.56,30.56-22.83,0-7.59-6.77-14.09-20.15-19.36,1.85-2.73,2.79-5.58,2.79-8.53C240.51,14.54,178.88,1.62,120.9,1.62S1.29,14.54,1.29,38.48c0,7.82,6.4,14.78,19.03,20.68Z"/>
            <path class="cls-7" d="M19.99,58.76c10.4,4.86,24.87,8.9,41.99,11.72,6.88,17.27,52.87,26.29,97.34,26.29,25.5,0,49.53-2.83,67.66-7.97,20-5.67,30.56-13.57,30.56-22.84,0-7.59-6.77-14.09-20.15-19.36,1.85-2.73,2.79-5.58,2.79-8.53C240.19,14.13,178.56,1.21,120.57,1.21S.96,14.13.96,38.08c0,7.82,6.4,14.78,19.03,20.68Z"/>
            <path class="cls-9" d="M19.67,58.36c10.4,4.86,24.88,8.9,41.99,11.72,6.88,17.27,52.88,26.29,97.34,26.29,25.5,0,49.53-2.83,67.66-7.97,20-5.67,30.56-13.56,30.56-22.84,0-7.59-6.77-14.09-20.15-19.36,1.85-2.73,2.79-5.58,2.79-8.53C239.86,13.73,178.24.81,120.25.81S.64,13.73.64,37.67c0,7.82,6.4,14.78,19.02,20.68Z"/>
            <path class="cls-11" d="M19.35,57.96c10.4,4.86,24.88,8.9,41.99,11.72,6.88,17.27,52.88,26.29,97.34,26.29,25.5,0,49.53-2.83,67.66-7.97,20-5.67,30.57-13.56,30.57-22.84,0-7.58-6.77-14.09-20.15-19.36,1.85-2.73,2.79-5.58,2.79-8.53C239.54,13.32,177.92.4,119.93.4S.32,13.32.32,37.27c0,7.82,6.4,14.78,19.02,20.69Z"/>
            <path class="cls-12" d="M19.02,57.55c10.4,4.86,24.88,8.9,41.99,11.72,6.88,17.27,52.88,26.29,97.34,26.29,25.5,0,49.53-2.83,67.66-7.97,20-5.67,30.56-13.56,30.56-22.84,0-7.58-6.77-14.09-20.15-19.36,1.85-2.73,2.79-5.58,2.79-8.53C239.22,12.92,177.59,0,119.61,0S0,12.92,0,36.87c0,7.82,6.4,14.78,19.02,20.69Z"/>
          </g>
          <path class="cls-10" d="M19.02,57.55c10.4,4.86,24.88,8.9,41.99,11.72,6.88,17.27,52.88,26.29,97.34,26.29,25.5,0,49.53-2.83,67.66-7.97,20-5.67,30.56-13.56,30.56-22.84,0-7.58-6.77-14.09-20.15-19.36,1.85-2.73,2.79-5.58,2.79-8.53C239.22,12.92,177.59,0,119.61,0S0,12.92,0,36.87c0,7.82,6.4,14.78,19.02,20.69Z"/>
          <g>
            <path class="cls-1" d="M41.79,27.8c-3.03,2.79-4.66,5.76-4.66,8.83,0,2.68,1.25,5.28,3.58,7.75.28-.98.74-1.96,1.36-2.92-.3-4.54-.31-9.1-.29-13.66Z"/>
            <g>
              <path class="cls-5" d="M229.21,47.2c3.81-3.25,5.88-6.72,5.88-10.34,0-18.08-51.7-32.73-115.48-32.73S4.13,18.79,4.13,36.87c0,12.4,24.32,23.19,60.19,28.74,1.6,14.33,43.09,25.81,94.04,25.81s94.09-11.94,94.09-26.67c0-6.72-8.77-12.86-23.24-17.55Z"/>
              <path class="cls-4" d="M8.03,36.62c0-17.01,49.96-30.79,111.58-30.79s111.58,13.79,111.58,30.79c0,1.32-.31,2.62-.89,3.89-10.54-13.72-55.04-24.02-108.33-24.02-58.19,0-105.88,12.28-110.36,27.88-2.33-2.47-3.58-5.07-3.58-7.75Z"/>
              <path class="cls-1" d="M18.73,23.45c-6.86,3.99-10.7,8.46-10.7,13.17,0,2.68,1.25,5.28,3.58,7.75,1.02-3.55,4.29-6.94,9.42-10.04-.83-3.62-1.61-7.24-2.3-10.88Z"/>
              <path class="cls-1" d="M43.54,24.59c-.07-3.48-.11-6.96-.16-10.45-2.69.69-5.25,1.42-7.68,2.19.23,3.73.53,7.46.88,11.18,2.2-.73,4.54-1.43,6.98-2.1,0-.27-.02-.54-.02-.82Z"/>
              <path class="cls-1" d="M67.5,9.41c-5.83.85-11.38,1.84-16.54,2.95-.2,3.73-.4,7.46-.26,11.18,0,.03,0,.04,0,.06,4.98-1.15,10.34-2.17,16.02-3.07.2-3.71.47-7.42.77-11.13Z"/>
              <path class="cls-1" d="M97.94,12.86c.02-2.13.17-4.29.33-6.46-2.81.15-5.59.33-8.33.54.34,3.6.77,7.18,1.37,10.74,2.18-.17,4.38-.32,6.61-.46,0-1.45,0-2.91.01-4.36Z"/>
              <path class="cls-1" d="M180.8,10.87c-3.85-.7-7.87-1.33-12.03-1.9.13,2.26.28,4.52.5,6.77.12,1.24.28,2.48.45,3.71,2.96.39,5.84.81,8.64,1.26.32-1.18.62-2.35.91-3.51.49-2.01.98-4.15,1.53-6.34Z"/>
              <path class="cls-1" d="M225.6,26.97c-.17-.14-.34-.28-.52-.42-1.18,2.34-2.32,4.7-3.31,7.12.75.43,1.46.86,2.14,1.3.41-2.24.86-4.47,1.39-6.69.1-.43.19-.87.29-1.3Z"/>
              <path class="cls-1" d="M212.94,28.89c.59-2.8,1.18-5.59,1.75-8.39-6.46-2.89-14.6-5.47-24.05-7.63-.15,3.37-.23,6.73-.24,10.1,8.59,1.85,16.15,4.05,22.42,6.5.04-.2.08-.39.12-.58Z"/>
              <path class="cls-1" d="M133.99,6.09c-3.02-.1-6.08-.19-9.17-.22-.33,3.54-.53,7.09-.72,10.65,2.54.01,5.05.04,7.55.11.44-2.19.91-4.37,1.4-6.55.3-1.32.61-2.65.94-3.98Z"/>
              <path class="cls-1" d="M116.22,5.85c-2.09.02-4.18.05-6.25.1-.35,3.59-.67,7.18-1.06,10.77,1.59-.05,3.19-.09,4.8-.13.52-2.71,1.09-5.4,1.79-8.05.24-.89.47-1.79.71-2.69Z"/>
              <path class="cls-1" d="M144.11,6.58c-.2,3.5-.29,7.02-.16,10.52,4.46.25,8.83.56,13.08.96.24-1.24.48-2.46.7-3.68.39-2.2.81-4.38,1.23-6.57-4.8-.5-9.76-.91-14.85-1.22Z"/>
              <path class="cls-6" d="M241.79,74.53c-13.98,8.89-46.07,15.11-83.44,15.11-46.73,0-85.22-9.73-90.33-22.25-.5-.63-.88-1.36-1.09-2.23-.32-1.37-2.22-1.3-3.5-1.93-22.09-3.56-39.34-9.15-48.39-15.85-.03-.28-.05-.55-.05-.83,0-15.73,47.89-28.49,106.97-28.49,55.27,0,100.74,11.16,106.38,25.48-.63.75-1.36,1.5-2.18,2.23-1.15.73-2.12,1.63-2.33,3.15-.46,3.38-.33,7.57,1.01,10.75.35.81,1.61,1.24,2.33,1.51,1.88.72,3.58,1.43,5.31,2.47,3.73,2.25,9.85,5.74,9.3,10.87Z"/>
              <path class="cls-2" d="M232.5,63.67c-1.73-1.04-3.43-1.76-5.31-2.47-.72-.28-1.98-.7-2.33-1.51-1.35-3.18-1.47-7.37-1.01-10.75.21-1.52,1.17-2.42,2.33-3.15.82-.73,1.55-1.47,2.18-2.23-4.49-11.4-34.26-20.81-74.12-24.16,4.25.63,8.5,1.31,12.73,2.04,7.48,1.29,15.06,1.91,22.52,3.29,5.68,1.05,12.45,2.47,16.36,7.13,5.16,6.14-6.6,10.09-10.58,11.27-3.79,1.12-7.61,2.05-11.45,2.8.22.05.43.09.65.14,6.76,1.52,13.84,2.99,20.29,5.54,3.75,1.48,7.43,3.36,10.12,6.44,5.84,6.69-2.77,12.22-8.35,14.53-18.16,7.54-39.11,6.79-58.41,6.41-10.75-.21-21.53-.8-32.15-2.55-7.21-1.19-15.33-2.25-22.12-5.12-4.03-1.7-9.77-5.37-7.81-10.7,1.07-2.92,3.43-4.83,6.17-6.18-12.32-.99-24.63-2.32-36.94-3.86-5.22-.65-22.43-1.46-21.75-9.74.41-5.04,7.67-9.22,11.47-11.41,3.96-2.28,8.16-4.1,12.47-5.58-25.79,5.2-42.46,13.44-42.46,22.72,0,.28.02.55.05.83,9.06,6.7,26.31,12.29,48.39,15.85,1.28.63,3.18.56,3.5,1.93.2.87.58,1.6,1.09,2.23,5.11,12.52,43.6,22.25,90.33,22.25,37.36,0,69.46-6.22,83.44-15.11.55-5.12-5.56-8.62-9.3-10.87Z"/>
              <path class="cls-4" d="M243.11,73.65c.98-4.66-5.01-8.73-8.38-10.87-1.32-.84-2.54-1.81-3.94-2.51-1.94-.96-3.9-1.27-4.49-3.69-.66-2.7-1.19-6.04-.28-8.74.38.17.88.22,1.26.34.16.05.32.12.48.18,0,0,.01,0,.02-.01,13.41,4.37,21.5,10.03,21.5,16.2,0,3.21-2.19,6.28-6.17,9.1Z"/>
              <path class="cls-1" d="M242.92,70.91c.73-4.64,1.42-9.29,2.12-13.94-1.88-1.63-4.33-3.2-7.32-4.67-.46,3.83-.99,7.64-1.48,11.47,2.58,1.75,5.73,4.25,6.68,7.14Z"/>
              <path class="cls-1" d="M230.04,59.94c.93-3.26,1.92-6.49,3.04-9.68-1.66-.66-3.43-1.3-5.31-1.91,0,0-.01,0-.02.01-.16-.06-.32-.13-.48-.18-.38-.12-.88-.17-1.26-.34-.92,2.7-.38,6.04.28,8.74.52,2.11,2.08,2.61,3.76,3.35Z"/>
              <path class="cls-18" d="M182.31,28.14c-22.26-6.76-45.42-6.87-68.51-6.14-22.03.7-44.18,2.9-64.51,11.98-.23.1-.39.58-.01.44,20.54-7.56,42.53-8.86,64.2-9.27,22.79-.42,45.64.07,68.15,3.98.41.07,1.2-.84.67-1Z"/>
            </g>
          </g>
        </g>
      </g>
    </g>
  </g>
</svg>