<?xml version="1.0" encoding="UTF-8"?>
<svg xmlns="http://www.w3.org/2000/svg" width="146.19" height="100" viewBox="0 0 146.19 100">
  <defs>
    <style>
      .cls-1 {
        fill: #5e2c00;
      }

      .cls-2 {
        fill: #8b8b8b;
      }

      .cls-3 {
        fill: #9a9a9a;
      }

      .cls-4 {
        fill: #7d7d7d;
      }

      .cls-5 {
        fill: #fff;
      }

      .cls-6 {
        fill: #6e6e6e;
      }

      .cls-7 {
        fill: #606060;
      }

      .cls-8 {
        fill: #e2e2e2;
      }

      .cls-9 {
        isolation: isolate;
      }

      .cls-10 {
        fill: #f1f1f1;
      }

      .cls-11 {
        mix-blend-mode: screen;
      }

      .cls-12 {
        fill: #c5c5c5;
      }

      .cls-13 {
        mix-blend-mode: multiply;
      }

      .cls-14 {
        fill: #a8a8a8;
      }

      .cls-15 {
        fill: #c1e6fb;
      }

      .cls-16 {
        fill: #dadada;
      }

      .cls-17 {
        fill: #d4d4d4;
      }

      .cls-18 {
        fill: #b7b7b7;
      }
    </style>
  </defs>
  <g class="cls-9">
    <g id="Layer_2" data-name="Layer 2">
      <g id="Layer_1-2" data-name="Layer 1">
        <g>
          <g class="cls-13">
            <g>
              <path class="cls-5" d="M54.35,57.35c-.47-.28-1.02-.42-1.56-.42-.83,0-1.61.32-2.19.9-1.82,1.79-7.77,7.97-7.73,12.41.01,1.39.52,2.61,1.47,3.51.81.77,1.8,1.18,2.85,1.18,3.19,0,5.07-3.73,6.35-6.97,1.13-2.86,1.96-5.92,2.27-7.12.34-1.35-.26-2.79-1.46-3.48Z"/>
              <path class="cls-5" d="M68.28,69.96c-.47-.27-1-.41-1.54-.41-.83,0-1.62.33-2.19.9-1.82,1.79-7.77,7.97-7.73,12.41,0,1.39.52,2.6,1.47,3.51.81.77,1.8,1.18,2.86,1.18,1.37,0,5,0,8.62-14.09.34-1.35-.26-2.78-1.49-3.49Z"/>
              <path class="cls-5" d="M13.06,53.29c-.48-.28-1.02-.42-1.56-.42-.84,0-1.62.32-2.2.9-2,1.97-6.65,6.97-6.61,10.75.01,1.3.49,2.44,1.39,3.3.77.74,1.72,1.12,2.74,1.12,2.13,0,4.94-1.38,7.71-12.16.35-1.36-.25-2.8-1.46-3.49Z"/>
              <path class="cls-5" d="M13.06,76.8c-.48-.28-1.02-.42-1.56-.42-.84,0-1.62.32-2.2.9-2,1.97-6.65,6.97-6.61,10.75.01,1.3.49,2.44,1.4,3.3.77.74,1.72,1.12,2.73,1.12,2.13,0,4.94-1.38,7.71-12.16.35-1.36-.25-2.8-1.46-3.49Z"/>
              <path class="cls-5" d="M42.54,84.35c-.47-.27-1.01-.42-1.56-.42-.84,0-1.62.32-2.19.9-2,1.97-6.65,6.95-6.62,10.75.01,1.3.49,2.44,1.39,3.3.77.74,1.72,1.13,2.74,1.13,2.14,0,4.94-1.38,7.71-12.16.35-1.35-.25-2.79-1.46-3.49Z"/>
              <path class="cls-5" d="M75.94,84.35c-.47-.27-1.01-.41-1.56-.41-.84,0-1.62.32-2.19.89-6.18,6.04-6.63,9.76-6.62,10.75,0,1.3.49,2.44,1.39,3.3.77.74,1.72,1.12,2.74,1.12,2.14,0,4.94-1.38,7.71-12.17.34-1.35-.26-2.78-1.47-3.48Z"/>
              <path class="cls-5" d="M109.06,78.13c-.41-.19-.85-.29-1.31-.29-.97,0-1.87.44-2.46,1.2-7.48,9.57-6.97,14.15-5.22,16.32.79.96,1.85,1.49,3,1.49,3.36,0,5.6-4.43,7.75-15.29.27-1.43-.46-2.84-1.76-3.43Z"/>
              <path class="cls-5" d="M144.63,63.11c-.47-.28-1.02-.42-1.56-.42-.83,0-1.61.32-2.2.9-4.83,4.77-5.54,7.76-5.52,9.12.01,1.2.48,2.3,1.32,3.1.73.69,1.66,1.07,2.62,1.07,1.94,0,4.47-1.17,6.81-10.29.35-1.36-.26-2.8-1.46-3.48Z"/>
              <path class="cls-5" d="M134.35,77.74c-.47-.28-1.01-.42-1.56-.42-.83,0-1.61.32-2.2.9-2.07,2.05-5.55,5.96-5.52,9.12,0,1.2.48,2.3,1.3,3.08.72.69,1.66,1.09,2.57,1.09.07,0,.15,0,.22,0,1.92-.07,4.37-1.41,6.66-10.29.34-1.35-.26-2.78-1.47-3.48Z"/>
              <path class="cls-5" d="M33.68,61.49c-.47-.27-1.01-.41-1.55-.41-.82,0-1.6.31-2.2.9-2.16,2.12-9.19,9.45-9.14,14.53.01,1.49.56,2.8,1.58,3.77.85.81,1.89,1.24,3,1.24,1.51,0,5.54,0,9.79-16.54.34-1.36-.26-2.79-1.48-3.49Z"/>
              <path class="cls-5" d="M122.9,63.25c1.3-.57,2.55-1.28,3.74-2.12.42,0,.84-.04,1.23-.08,2.31-.26,8.06-1.32,11.49-5.59,3.25-4.06,2.57-8.33.46-10.76-1.75-2.02-3.95-3.04-6.54-3.04-.19,0-.38,0-.57.02-2.15-2.13-5.5-3.36-9.29-3.36-.47,0-.93.02-1.4.06-1.49-2.65-4.28-4.47-7.44-4.68-.5-.03-1.08,0-1.62.07-.3-.66-.67-1.32-1.1-1.96-2.15-3.23-5.81-4.94-10.57-4.94-1.17,0-2.4.11-3.63.32-1.5-1.96-3.76-3.53-6.84-4.78-.94-.38-1.9-.69-2.86-.92-.02-4.98-2.82-9.64-7.86-12.84-3.74-2.38-8.35-3.69-12.96-3.69-2.03,0-4,.25-5.89.75-2.84-1.84-6.18-2.74-8.06-3.12-1.86-.38-3.8-.58-5.77-.58-4.46,0-8.85.96-12.7,2.78-4.12,1.95-7.49,5.21-9.44,9.09-3.58.51-7.01,1.97-9.79,4.18-2.89,2.29-4.91,5.29-5.82,8.59-2.84.79-5.16,2.36-6.78,4.62-3.6,5.03-2.44,11.62,2.94,16.79,4.5,4.32,10.32,5.23,14.41,5.23.75,0,1.53-.03,2.31-.1,2.08-.17,4.17-.53,6.12-1.04,3.6,2.46,8.06,3.8,12.71,3.8.27,0,.53,0,.79-.01,5.56-.19,10.52-2,14.36-5.24.02,0,.04.01.06.02.03.01.07.03.11.04-1.28,2.9-1.48,6.06-.52,8.85,1,2.9,3.09,5.1,6.04,6.36,1.61.68,3.44,1.03,5.43,1.03,1.51,0,3.06-.2,4.63-.6.61.37,1.27.68,1.96.92,1.49.52,3.08.79,4.74.79,2.13,0,4.3-.46,6.27-1.3,1.42,1.21,3.22,2.11,5.27,2.69-.55.13-1.05.4-1.46.8-1.82,1.79-7.77,7.97-7.73,12.41.01,1.39.52,2.6,1.47,3.51.81.77,1.79,1.18,2.85,1.18,1.37,0,5,0,8.62-14.09.31-1.22-.16-2.5-1.14-3.26.95.13,1.94.2,2.96.2,1.73,0,3.5-.2,5.12-.58,2.86-.67,6.1-2.3,8.75-4.38.85.17,1.76.26,2.72.26,1.81,0,3.66-.3,5.33-.7-2.23,2.38-5.53,6.42-5.5,9.61.01,1.3.49,2.44,1.39,3.3.77.73,1.72,1.12,2.74,1.12,2.14,0,4.94-1.38,7.7-12.16.35-1.34-.24-2.76-1.42-3.46Z"/>
            </g>
            <g>
              <path class="cls-10" d="M54.28,57.17c-.47-.27-1.02-.42-1.56-.42-.83,0-1.61.32-2.19.9-1.82,1.79-7.77,7.97-7.73,12.41.01,1.39.52,2.61,1.47,3.51.81.77,1.8,1.18,2.85,1.18,3.19,0,5.07-3.73,6.35-6.97,1.13-2.86,1.96-5.92,2.27-7.12.34-1.35-.26-2.78-1.46-3.48Z"/>
              <path class="cls-10" d="M68.2,69.78c-.47-.27-1-.41-1.54-.41-.84,0-1.62.33-2.19.9-1.81,1.8-7.77,7.97-7.73,12.41,0,1.39.52,2.6,1.47,3.51.81.77,1.8,1.18,2.86,1.18,1.37,0,5,0,8.62-14.09.34-1.35-.26-2.78-1.49-3.49Z"/>
              <path class="cls-10" d="M12.99,53.1c-.48-.28-1.02-.42-1.56-.42-.84,0-1.62.33-2.2.9-1.99,1.98-6.64,6.97-6.61,10.75.01,1.3.49,2.44,1.39,3.3.77.74,1.72,1.12,2.74,1.12,2.13,0,4.94-1.38,7.71-12.16.35-1.36-.25-2.8-1.46-3.49Z"/>
              <path class="cls-10" d="M12.99,76.62c-.48-.28-1.02-.42-1.56-.42-.84,0-1.62.33-2.2.9-1.99,1.98-6.64,6.97-6.61,10.75.01,1.3.49,2.44,1.4,3.3.77.73,1.72,1.12,2.73,1.12,2.13,0,4.94-1.38,7.71-12.16.35-1.36-.25-2.8-1.46-3.49Z"/>
              <path class="cls-10" d="M42.46,84.17c-.47-.27-1.01-.42-1.56-.42-.84,0-1.62.33-2.19.9-1.99,1.97-6.65,6.95-6.62,10.75.01,1.3.49,2.44,1.39,3.3.77.74,1.72,1.13,2.74,1.13,2.14,0,4.94-1.38,7.71-12.16.35-1.35-.25-2.79-1.46-3.49Z"/>
              <path class="cls-10" d="M75.87,84.16c-.47-.27-1.01-.42-1.56-.42-.84,0-1.62.33-2.19.89-6.15,6.08-6.63,9.76-6.62,10.75,0,1.3.49,2.44,1.39,3.3.77.74,1.72,1.12,2.73,1.12,2.14,0,4.94-1.38,7.71-12.17.34-1.35-.26-2.78-1.47-3.48Z"/>
              <path class="cls-10" d="M108.99,77.95c-.41-.19-.85-.29-1.31-.29-.97,0-1.87.44-2.46,1.2-7.48,9.57-6.98,14.15-5.22,16.32.78.96,1.85,1.49,3,1.49,3.36,0,5.63-4.42,7.75-15.29.28-1.42-.46-2.83-1.76-3.43Z"/>
              <path class="cls-10" d="M144.56,62.92c-.47-.27-1.02-.42-1.56-.42-.83,0-1.61.32-2.2.9-4.82,4.78-5.54,7.76-5.52,9.12.01,1.2.48,2.3,1.32,3.1.73.69,1.66,1.07,2.62,1.07,1.94,0,4.47-1.17,6.81-10.29.35-1.36-.26-2.79-1.46-3.48Z"/>
              <path class="cls-10" d="M134.28,77.56c-.47-.28-1.01-.42-1.56-.42-.83,0-1.61.32-2.2.9-2.07,2.05-5.55,5.96-5.52,9.12,0,1.2.48,2.3,1.3,3.08.72.69,1.66,1.09,2.57,1.09.07,0,.15,0,.22,0,1.92-.07,4.37-1.41,6.66-10.29.34-1.35-.26-2.78-1.47-3.48Z"/>
              <path class="cls-10" d="M33.61,61.31c-.47-.27-1.01-.41-1.55-.41-.82,0-1.6.31-2.2.9-2.16,2.12-9.19,9.45-9.14,14.53.01,1.49.56,2.8,1.58,3.77.85.81,1.89,1.24,3,1.24,1.51,0,5.54,0,9.79-16.54.34-1.36-.26-2.79-1.48-3.49Z"/>
              <path class="cls-10" d="M122.83,63.07c1.3-.57,2.55-1.28,3.74-2.12.42,0,.84-.04,1.23-.08,2.31-.26,8.06-1.32,11.49-5.59,3.25-4.06,2.57-8.33.46-10.76-1.75-2.02-3.95-3.04-6.54-3.04-.19,0-.38,0-.57.02-2.15-2.13-5.5-3.36-9.29-3.36-.47,0-.93.02-1.4.06-1.49-2.65-4.28-4.48-7.44-4.68-.51-.03-1.08,0-1.62.07-.3-.66-.67-1.32-1.1-1.96-2.15-3.23-5.81-4.94-10.57-4.94-1.17,0-2.4.11-3.63.32-1.5-1.96-3.76-3.53-6.84-4.78-.94-.38-1.9-.69-2.86-.92-.02-4.98-2.82-9.64-7.86-12.84-3.75-2.38-8.35-3.69-12.96-3.69-2.03,0-4,.25-5.89.75-2.84-1.84-6.18-2.74-8.06-3.12-1.86-.38-3.8-.58-5.77-.58-4.46,0-8.85.96-12.7,2.78-4.12,1.95-7.49,5.21-9.44,9.09-3.58.51-7.01,1.97-9.79,4.18-2.89,2.3-4.91,5.29-5.82,8.59-2.84.79-5.16,2.36-6.78,4.62-3.6,5.03-2.44,11.62,2.94,16.79,4.5,4.32,10.32,5.23,14.41,5.23.75,0,1.53-.03,2.3-.1,2.08-.17,4.17-.53,6.12-1.04,3.6,2.46,8.06,3.8,12.71,3.8.27,0,.53,0,.79-.01,5.56-.2,10.52-2,14.36-5.24.02,0,.04.01.06.02.03.01.07.03.11.04-1.28,2.9-1.48,6.06-.52,8.85,1,2.9,3.09,5.1,6.04,6.35,1.61.69,3.44,1.03,5.43,1.03,1.51,0,3.06-.2,4.63-.6.61.37,1.27.68,1.96.92,1.49.52,3.08.79,4.74.79,2.13,0,4.3-.46,6.27-1.3,1.42,1.21,3.22,2.11,5.27,2.69-.55.13-1.05.4-1.46.8-1.82,1.79-7.77,7.97-7.73,12.41.01,1.39.52,2.6,1.47,3.51.81.77,1.79,1.18,2.85,1.18,1.37,0,5,0,8.62-14.09.31-1.22-.16-2.5-1.15-3.26.95.13,1.94.2,2.96.2,1.73,0,3.5-.2,5.12-.58,2.86-.67,6.1-2.3,8.75-4.38.85.17,1.76.26,2.72.26,1.81,0,3.66-.3,5.33-.7-2.23,2.38-5.53,6.42-5.5,9.61.01,1.3.49,2.44,1.39,3.3.77.74,1.72,1.12,2.74,1.12,2.14,0,4.94-1.38,7.7-12.16.35-1.34-.24-2.76-1.42-3.46Z"/>
            </g>
            <g>
              <path class="cls-8" d="M54.2,56.99c-.48-.28-1.02-.42-1.57-.42-.83,0-1.61.32-2.19.9-1.82,1.79-7.77,7.97-7.73,12.41.01,1.39.52,2.61,1.48,3.51.81.77,1.8,1.18,2.85,1.18,3.19,0,5.07-3.73,6.35-6.97,1.13-2.86,1.96-5.92,2.27-7.12.34-1.35-.26-2.79-1.46-3.48Z"/>
              <path class="cls-8" d="M68.13,69.59c-.47-.27-1-.41-1.54-.41-.84,0-1.62.33-2.19.9-1.82,1.8-7.77,7.97-7.73,12.41,0,1.39.52,2.6,1.47,3.51.81.77,1.8,1.18,2.86,1.18,1.37,0,5,0,8.62-14.09.34-1.35-.26-2.79-1.49-3.49Z"/>
              <path class="cls-8" d="M12.92,52.92c-.48-.28-1.02-.42-1.57-.42-.84,0-1.62.33-2.19.9-1.99,1.98-6.65,6.97-6.61,10.75.01,1.3.49,2.44,1.39,3.3.77.74,1.72,1.12,2.74,1.12,2.13,0,4.94-1.38,7.71-12.16.35-1.36-.25-2.8-1.46-3.5Z"/>
              <path class="cls-8" d="M12.92,76.44c-.48-.28-1.02-.42-1.57-.42-.84,0-1.62.33-2.19.9-1.99,1.98-6.65,6.97-6.61,10.75.01,1.3.49,2.44,1.4,3.3.77.74,1.72,1.12,2.73,1.12,2.13,0,4.94-1.38,7.71-12.16.35-1.36-.25-2.8-1.46-3.49Z"/>
              <path class="cls-8" d="M42.39,83.98c-.47-.27-1.01-.42-1.56-.42-.83,0-1.62.33-2.19.9-1.99,1.97-6.65,6.95-6.62,10.75.01,1.3.49,2.44,1.39,3.3.77.74,1.72,1.13,2.74,1.13,2.14,0,4.94-1.38,7.71-12.16.35-1.35-.25-2.79-1.46-3.49Z"/>
              <path class="cls-8" d="M75.8,83.98c-.47-.27-1.01-.42-1.56-.42-.84,0-1.62.33-2.19.89-6.15,6.08-6.63,9.76-6.62,10.75,0,1.3.49,2.44,1.39,3.31.77.74,1.72,1.12,2.74,1.12,2.13,0,4.94-1.38,7.71-12.17.34-1.35-.26-2.78-1.47-3.48Z"/>
              <path class="cls-8" d="M108.91,77.76c-.41-.19-.85-.29-1.31-.29-.97,0-1.87.44-2.46,1.2-7.48,9.57-6.98,14.15-5.22,16.32.78.96,1.85,1.49,3,1.49,3.36,0,5.63-4.42,7.75-15.29.28-1.42-.46-2.83-1.76-3.43Z"/>
              <path class="cls-8" d="M144.48,62.74c-.47-.27-1.02-.42-1.56-.42-.83,0-1.61.32-2.2.9-4.82,4.78-5.54,7.76-5.52,9.12.01,1.2.47,2.3,1.32,3.1.73.69,1.66,1.07,2.62,1.07,1.94,0,4.47-1.17,6.81-10.29.35-1.36-.26-2.79-1.46-3.48Z"/>
              <path class="cls-8" d="M134.21,77.38c-.47-.27-1.01-.42-1.56-.42-.83,0-1.61.32-2.2.9-2.07,2.05-5.55,5.96-5.52,9.12,0,1.2.48,2.3,1.3,3.08.72.69,1.66,1.09,2.57,1.09.07,0,.15,0,.22,0,1.92-.07,4.37-1.41,6.66-10.29.34-1.35-.26-2.78-1.47-3.48Z"/>
              <path class="cls-8" d="M33.53,61.13c-.47-.27-1.01-.41-1.55-.41-.82,0-1.6.31-2.2.9-2.16,2.12-9.19,9.45-9.15,14.53.01,1.49.56,2.8,1.58,3.77.85.81,1.89,1.24,3,1.24,1.52,0,5.54,0,9.79-16.54.34-1.36-.26-2.79-1.48-3.49Z"/>
              <path class="cls-8" d="M122.76,62.88c1.3-.57,2.55-1.28,3.74-2.13.42,0,.84-.04,1.23-.08,2.31-.26,8.06-1.32,11.49-5.59,3.25-4.06,2.57-8.33.46-10.76-1.75-2.02-3.95-3.04-6.54-3.04-.19,0-.38,0-.57.02-2.16-2.13-5.5-3.36-9.29-3.36-.47,0-.93.02-1.4.06-1.49-2.65-4.28-4.47-7.44-4.68-.51-.03-1.08,0-1.62.07-.31-.66-.67-1.32-1.1-1.96-2.15-3.23-5.81-4.94-10.57-4.94-1.17,0-2.4.11-3.63.32-1.5-1.96-3.76-3.53-6.84-4.78-.94-.38-1.9-.69-2.86-.92-.02-4.98-2.82-9.64-7.86-12.84-3.74-2.38-8.35-3.69-12.96-3.69-2.03,0-4,.25-5.89.75-2.84-1.84-6.18-2.74-8.06-3.12-1.86-.38-3.8-.58-5.77-.58-4.46,0-8.85.96-12.7,2.78-4.12,1.95-7.49,5.21-9.44,9.09-3.58.51-7.01,1.97-9.79,4.18-2.89,2.3-4.91,5.29-5.83,8.59-2.84.78-5.16,2.36-6.78,4.62-3.6,5.03-2.44,11.62,2.94,16.79,4.5,4.32,10.32,5.23,14.41,5.23.75,0,1.53-.03,2.31-.1,2.08-.17,4.17-.53,6.12-1.03,3.6,2.46,8.06,3.8,12.71,3.8.26,0,.53,0,.79-.01,5.56-.2,10.52-2,14.36-5.24.02,0,.04.01.06.02.03.01.07.03.1.04-1.28,2.9-1.48,6.06-.52,8.85,1,2.9,3.09,5.1,6.04,6.36,1.61.69,3.44,1.03,5.43,1.03,1.51,0,3.06-.2,4.63-.6.61.37,1.27.68,1.96.92,1.49.52,3.08.79,4.74.79,2.13,0,4.3-.46,6.27-1.3,1.42,1.21,3.22,2.11,5.27,2.69-.55.13-1.05.4-1.46.8-1.82,1.79-7.77,7.97-7.73,12.41.01,1.39.52,2.6,1.48,3.51.81.77,1.79,1.18,2.85,1.18,1.37,0,5,0,8.62-14.09.31-1.22-.16-2.5-1.14-3.26.95.13,1.94.2,2.96.2,1.73,0,3.5-.2,5.12-.58,2.86-.67,6.1-2.3,8.75-4.38.84.17,1.76.26,2.72.26,1.81,0,3.66-.3,5.33-.7-2.23,2.38-5.53,6.42-5.5,9.61,0,1.3.49,2.44,1.39,3.3.77.74,1.72,1.12,2.74,1.12,2.14,0,4.94-1.38,7.71-12.16.35-1.34-.24-2.76-1.42-3.46Z"/>
            </g>
            <g>
              <path class="cls-17" d="M54.13,56.81c-.47-.27-1.02-.42-1.56-.42-.83,0-1.61.32-2.19.9-1.82,1.79-7.77,7.97-7.73,12.41,0,1.39.52,2.61,1.47,3.51.81.77,1.79,1.18,2.85,1.18,3.19,0,5.07-3.73,6.35-6.97,1.13-2.86,1.96-5.92,2.27-7.12.34-1.35-.26-2.78-1.46-3.48Z"/>
              <path class="cls-17" d="M68.06,69.41c-.47-.27-1-.41-1.54-.41-.83,0-1.62.33-2.19.9-1.82,1.8-7.77,7.97-7.73,12.41,0,1.39.52,2.6,1.47,3.51.81.77,1.8,1.18,2.86,1.18,1.37,0,5,0,8.62-14.09.34-1.35-.26-2.79-1.49-3.49Z"/>
              <path class="cls-17" d="M12.84,52.74c-.48-.27-1.02-.42-1.56-.42-.84,0-1.62.33-2.2.9-1.99,1.98-6.64,6.97-6.61,10.75.01,1.3.49,2.44,1.39,3.3.77.74,1.72,1.12,2.74,1.12,2.13,0,4.94-1.38,7.71-12.16.35-1.36-.25-2.79-1.46-3.49Z"/>
              <path class="cls-17" d="M12.84,76.25c-.48-.27-1.02-.42-1.56-.42-.84,0-1.62.33-2.2.9-1.99,1.98-6.64,6.97-6.61,10.75.01,1.3.49,2.44,1.4,3.3.77.74,1.72,1.12,2.73,1.12,2.13,0,4.94-1.38,7.71-12.16.35-1.36-.25-2.79-1.46-3.49Z"/>
              <path class="cls-17" d="M42.32,83.8c-.47-.27-1.01-.42-1.56-.42-.84,0-1.62.33-2.19.9-1.99,1.97-6.65,6.95-6.62,10.75.01,1.3.49,2.44,1.39,3.3.77.74,1.72,1.13,2.74,1.13,2.14,0,4.94-1.38,7.71-12.16.35-1.35-.25-2.79-1.46-3.49Z"/>
              <path class="cls-17" d="M75.72,83.8c-.47-.27-1.01-.42-1.56-.42-.84,0-1.62.33-2.19.89-6.14,6.08-6.63,9.76-6.62,10.75,0,1.3.49,2.44,1.39,3.3.77.74,1.72,1.12,2.74,1.12,2.13,0,4.94-1.38,7.71-12.17.34-1.35-.26-2.78-1.47-3.48Z"/>
              <path class="cls-17" d="M108.84,77.58c-.42-.19-.86-.29-1.31-.29-.97,0-1.87.44-2.46,1.2-7.48,9.57-6.98,14.15-5.22,16.32.78.96,1.85,1.49,3.01,1.49,3.36,0,5.63-4.42,7.75-15.29.28-1.43-.46-2.83-1.76-3.43Z"/>
              <path class="cls-17" d="M144.41,62.56c-.47-.27-1.02-.42-1.56-.42-.83,0-1.61.32-2.2.9-4.82,4.78-5.54,7.76-5.52,9.12,0,1.2.47,2.3,1.32,3.1.73.69,1.66,1.07,2.62,1.07,1.94,0,4.47-1.17,6.81-10.29.35-1.36-.26-2.79-1.46-3.48Z"/>
              <path class="cls-17" d="M134.13,77.19c-.47-.28-1.01-.42-1.56-.42-.83,0-1.61.32-2.2.9-2.07,2.05-5.55,5.96-5.52,9.12,0,1.2.48,2.3,1.3,3.08.72.69,1.66,1.09,2.57,1.09.07,0,.15,0,.22,0,1.92-.07,4.37-1.41,6.66-10.29.34-1.35-.26-2.78-1.46-3.48Z"/>
              <path class="cls-17" d="M33.46,60.95c-.47-.27-1.01-.41-1.55-.41-.82,0-1.6.31-2.2.9-2.16,2.12-9.19,9.45-9.14,14.53.01,1.49.56,2.8,1.58,3.77.85.81,1.89,1.24,3,1.24,1.51,0,5.57,0,9.79-16.54.35-1.35-.26-2.79-1.48-3.49Z"/>
              <path class="cls-17" d="M122.68,62.7c1.3-.57,2.55-1.28,3.74-2.13.42,0,.84-.04,1.23-.08,2.31-.26,8.06-1.32,11.49-5.59,3.25-4.06,2.57-8.33.46-10.76-1.75-2.02-3.95-3.04-6.54-3.04-.19,0-.38,0-.57.02-2.15-2.13-5.5-3.36-9.29-3.36-.47,0-.93.02-1.4.06-1.49-2.65-4.28-4.48-7.45-4.68-.5-.03-1.08,0-1.62.07-.3-.66-.67-1.31-1.1-1.96-2.15-3.23-5.81-4.94-10.57-4.94-1.17,0-2.4.11-3.63.32-1.5-1.96-3.76-3.53-6.84-4.78-.94-.38-1.9-.69-2.86-.92-.02-4.98-2.82-9.64-7.86-12.84-3.74-2.38-8.35-3.69-12.96-3.69-2.03,0-4,.25-5.89.75-2.84-1.84-6.18-2.74-8.06-3.12-1.86-.38-3.8-.58-5.77-.58-4.46,0-8.85.96-12.7,2.78-4.12,1.95-7.49,5.21-9.44,9.09-3.58.51-7.01,1.97-9.79,4.18-2.89,2.29-4.91,5.29-5.82,8.59-2.84.79-5.16,2.36-6.78,4.62-3.6,5.03-2.44,11.62,2.94,16.79,4.5,4.33,10.32,5.23,14.41,5.23.75,0,1.53-.03,2.31-.1,2.08-.17,4.17-.53,6.12-1.04,3.6,2.46,8.06,3.8,12.71,3.8.27,0,.53,0,.79-.01,5.56-.2,10.52-2,14.36-5.24.02,0,.04.01.06.02.03.01.07.03.11.04-1.28,2.9-1.48,6.06-.52,8.85,1,2.9,3.09,5.1,6.04,6.35,1.61.69,3.44,1.03,5.43,1.03,1.51,0,3.06-.2,4.63-.6.61.37,1.27.68,1.96.92,1.49.52,3.08.79,4.74.79,2.13,0,4.3-.45,6.27-1.3,1.42,1.21,3.22,2.11,5.27,2.69-.55.13-1.05.4-1.46.8-1.82,1.79-7.77,7.97-7.73,12.41,0,1.39.52,2.61,1.47,3.51.81.77,1.79,1.18,2.85,1.18,1.37,0,5,0,8.62-14.09.31-1.22-.16-2.5-1.15-3.26.95.13,1.94.2,2.96.2,1.73,0,3.5-.2,5.12-.58,2.86-.67,6.1-2.3,8.75-4.38.85.17,1.76.26,2.73.26,1.81,0,3.66-.3,5.33-.7-2.23,2.38-5.53,6.42-5.5,9.61.01,1.3.49,2.44,1.39,3.3.77.73,1.72,1.12,2.74,1.12,2.14,0,4.94-1.38,7.7-12.16.35-1.34-.24-2.76-1.42-3.46Z"/>
            </g>
            <g>
              <path class="cls-12" d="M54.06,56.62c-.48-.27-1.02-.42-1.56-.42-.83,0-1.61.32-2.19.9-1.82,1.79-7.77,7.97-7.73,12.41.01,1.39.52,2.6,1.47,3.51.81.77,1.8,1.18,2.85,1.18,3.19,0,5.07-3.73,6.35-6.97,1.13-2.86,1.96-5.92,2.27-7.12.34-1.35-.26-2.78-1.46-3.48Z"/>
              <path class="cls-12" d="M67.98,69.23c-.47-.27-1-.41-1.54-.41-.83,0-1.62.33-2.19.9-1.82,1.8-7.77,7.98-7.73,12.41,0,1.39.52,2.6,1.47,3.51.81.77,1.8,1.18,2.86,1.18,1.37,0,5,0,8.62-14.09.34-1.35-.26-2.78-1.49-3.49Z"/>
              <path class="cls-12" d="M12.77,52.56c-.48-.28-1.02-.42-1.56-.42-.84,0-1.62.33-2.2.9-1.99,1.98-6.65,6.97-6.61,10.75.01,1.3.49,2.44,1.39,3.3.77.74,1.72,1.12,2.74,1.12,2.13,0,4.94-1.38,7.71-12.16.35-1.36-.25-2.8-1.46-3.49Z"/>
              <path class="cls-12" d="M12.77,76.07c-.48-.28-1.02-.42-1.56-.42-.84,0-1.62.33-2.2.9-1.99,1.98-6.65,6.97-6.61,10.75.01,1.3.49,2.44,1.4,3.3.77.74,1.72,1.12,2.73,1.12,2.13,0,4.94-1.38,7.71-12.16.35-1.36-.25-2.8-1.46-3.49Z"/>
              <path class="cls-12" d="M42.25,83.62c-.47-.27-1.01-.42-1.56-.42-.83,0-1.62.33-2.19.9-1.99,1.97-6.65,6.95-6.62,10.75.01,1.3.49,2.44,1.39,3.3.77.74,1.72,1.13,2.74,1.13,2.14,0,4.94-1.38,7.71-12.16.35-1.35-.25-2.79-1.46-3.49Z"/>
              <path class="cls-12" d="M75.65,83.62c-.47-.27-1.01-.42-1.56-.42-.84,0-1.62.33-2.19.89-6.15,6.08-6.63,9.76-6.62,10.75,0,1.3.49,2.44,1.39,3.3.77.74,1.72,1.12,2.74,1.12,2.13,0,4.94-1.38,7.71-12.17.34-1.35-.26-2.78-1.47-3.48Z"/>
              <path class="cls-12" d="M108.77,77.4c-.41-.19-.85-.29-1.31-.29-.97,0-1.87.44-2.46,1.2-7.48,9.57-6.98,14.15-5.22,16.32.78.96,1.85,1.49,3,1.49,3.36,0,5.63-4.42,7.75-15.29.28-1.42-.46-2.83-1.76-3.43Z"/>
              <path class="cls-12" d="M144.34,62.38c-.47-.27-1.02-.42-1.56-.42-.83,0-1.61.32-2.2.9-4.82,4.78-5.54,7.76-5.52,9.12.01,1.2.47,2.3,1.32,3.1.73.69,1.66,1.07,2.62,1.07,1.94,0,4.47-1.17,6.81-10.29.35-1.36-.26-2.79-1.46-3.48Z"/>
              <path class="cls-12" d="M134.06,77.01c-.47-.28-1.01-.42-1.56-.42-.83,0-1.61.32-2.2.9-2.07,2.05-5.55,5.96-5.52,9.12,0,1.2.48,2.3,1.3,3.08.72.69,1.66,1.09,2.57,1.09.07,0,.15,0,.22,0,1.92-.07,4.37-1.41,6.66-10.29.34-1.35-.26-2.78-1.47-3.48Z"/>
              <path class="cls-12" d="M33.39,60.76c-.47-.27-1.01-.41-1.55-.41-.82,0-1.6.31-2.2.9-2.16,2.12-9.19,9.45-9.14,14.53.01,1.49.56,2.8,1.58,3.77.85.81,1.89,1.24,3,1.24,1.51,0,5.54,0,9.79-16.54.34-1.36-.26-2.79-1.48-3.49Z"/>
              <path class="cls-12" d="M122.61,62.52c1.3-.57,2.55-1.28,3.74-2.12.42,0,.84-.04,1.23-.08,2.31-.26,8.06-1.32,11.49-5.59,3.25-4.06,2.57-8.33.46-10.76-1.75-2.02-3.95-3.04-6.54-3.04-.19,0-.38,0-.57.02-2.15-2.13-5.5-3.36-9.29-3.36-.47,0-.93.02-1.4.06-1.49-2.65-4.28-4.48-7.44-4.68-.51-.03-1.08,0-1.62.07-.31-.66-.67-1.32-1.1-1.96-2.15-3.23-5.81-4.94-10.57-4.94-1.17,0-2.4.11-3.63.32-1.5-1.96-3.76-3.53-6.84-4.78-.94-.38-1.9-.68-2.86-.92-.02-4.98-2.82-9.64-7.86-12.84-3.74-2.38-8.35-3.69-12.96-3.69-2.03,0-4,.25-5.89.75-2.84-1.84-6.18-2.74-8.06-3.12-1.86-.38-3.8-.58-5.77-.58-4.46,0-8.85.96-12.7,2.78-4.12,1.95-7.49,5.21-9.44,9.09-3.58.51-7.01,1.97-9.79,4.18-2.89,2.29-4.91,5.29-5.82,8.59-2.84.79-5.16,2.36-6.78,4.62-3.6,5.03-2.44,11.62,2.94,16.79,4.5,4.33,10.32,5.23,14.41,5.23.75,0,1.53-.03,2.31-.1,2.08-.17,4.17-.53,6.12-1.04,3.6,2.46,8.06,3.8,12.71,3.8.27,0,.53,0,.79-.01,5.56-.2,10.52-2,14.36-5.24.02,0,.04.01.06.02.03.01.07.03.11.04-1.28,2.9-1.48,6.06-.52,8.85,1,2.9,3.09,5.1,6.04,6.36,1.61.69,3.44,1.03,5.43,1.03,1.51,0,3.06-.2,4.63-.6.61.37,1.27.68,1.96.92,1.49.52,3.08.79,4.74.79,2.13,0,4.3-.46,6.27-1.3,1.42,1.21,3.22,2.11,5.27,2.69-.55.13-1.05.4-1.46.8-1.82,1.79-7.77,7.97-7.73,12.41.01,1.39.52,2.6,1.47,3.51.81.77,1.79,1.18,2.85,1.18,1.37,0,5,0,8.62-14.09.31-1.22-.16-2.5-1.14-3.25.95.13,1.94.2,2.96.2,1.73,0,3.5-.2,5.12-.58,2.86-.67,6.1-2.3,8.75-4.38.85.17,1.76.26,2.72.26,1.81,0,3.66-.3,5.33-.7-2.23,2.37-5.53,6.42-5.5,9.61.01,1.3.49,2.44,1.39,3.3.77.74,1.72,1.12,2.74,1.12,2.14,0,4.94-1.38,7.7-12.16.35-1.34-.24-2.76-1.42-3.46Z"/>
            </g>
            <g>
              <path class="cls-18" d="M53.99,56.44c-.48-.27-1.02-.42-1.56-.42-.83,0-1.61.32-2.19.9-1.82,1.79-7.77,7.97-7.73,12.41.01,1.39.52,2.61,1.47,3.51.81.77,1.79,1.18,2.85,1.18,3.19,0,5.07-3.73,6.35-6.97,1.13-2.86,1.96-5.92,2.27-7.12.34-1.35-.26-2.78-1.46-3.48Z"/>
              <path class="cls-18" d="M67.91,69.05c-.47-.27-1-.41-1.54-.41-.83,0-1.62.33-2.19.9-1.82,1.8-7.77,7.98-7.73,12.41,0,1.39.52,2.6,1.47,3.51.81.77,1.79,1.18,2.86,1.18,1.37,0,5,0,8.62-14.09.34-1.35-.26-2.78-1.49-3.49Z"/>
              <path class="cls-18" d="M12.7,52.37c-.48-.28-1.02-.42-1.56-.42-.84,0-1.62.33-2.2.9-1.99,1.98-6.65,6.97-6.61,10.75.01,1.3.49,2.44,1.39,3.3.77.74,1.72,1.12,2.74,1.12,2.13,0,4.91-1.39,7.71-12.16.35-1.36-.25-2.8-1.46-3.49Z"/>
              <path class="cls-18" d="M12.7,75.89c-.48-.28-1.02-.42-1.56-.42-.84,0-1.62.33-2.2.9-1.99,1.98-6.65,6.97-6.61,10.75.01,1.3.49,2.44,1.4,3.3.77.74,1.72,1.12,2.73,1.12,2.13,0,4.94-1.38,7.71-12.16.35-1.36-.25-2.8-1.46-3.49Z"/>
              <path class="cls-18" d="M42.17,83.44c-.47-.27-1.01-.42-1.56-.42-.84,0-1.62.33-2.19.9-1.99,1.97-6.65,6.95-6.62,10.75.01,1.3.49,2.44,1.39,3.3.77.74,1.72,1.13,2.74,1.13,2.14,0,4.94-1.38,7.7-12.16.35-1.35-.25-2.79-1.46-3.49Z"/>
              <path class="cls-18" d="M75.58,83.43c-.47-.27-1.01-.41-1.56-.41-.84,0-1.62.33-2.19.89-6.15,6.07-6.63,9.76-6.62,10.75,0,1.3.49,2.44,1.39,3.3.77.74,1.72,1.12,2.74,1.12,2.14,0,4.94-1.38,7.71-12.17.34-1.35-.26-2.78-1.47-3.48Z"/>
              <path class="cls-18" d="M108.7,77.22c-.41-.19-.85-.29-1.31-.29-.97,0-1.87.44-2.46,1.2-7.48,9.57-6.98,14.15-5.22,16.32.78.96,1.85,1.49,3,1.49,3.36,0,5.63-4.42,7.75-15.29.28-1.43-.46-2.83-1.76-3.43Z"/>
              <path class="cls-18" d="M144.27,62.19c-.47-.27-1.02-.42-1.56-.42-.83,0-1.61.32-2.2.9-4.83,4.77-5.54,7.76-5.53,9.12.01,1.2.48,2.3,1.32,3.1.73.69,1.66,1.07,2.62,1.07,1.94,0,4.47-1.17,6.81-10.29.35-1.36-.26-2.79-1.46-3.48Z"/>
              <path class="cls-18" d="M133.99,76.83c-.47-.28-1.01-.42-1.56-.42-.83,0-1.61.32-2.2.9-2.07,2.05-5.55,5.96-5.52,9.12,0,1.2.48,2.3,1.3,3.08.72.69,1.66,1.09,2.57,1.09.07,0,.15,0,.22,0,1.92-.07,4.37-1.41,6.66-10.29.34-1.35-.26-2.78-1.47-3.48Z"/>
              <path class="cls-18" d="M33.31,60.58c-.47-.27-1.01-.41-1.55-.41-.82,0-1.6.31-2.2.9-2.16,2.12-9.19,9.45-9.14,14.53.01,1.49.56,2.8,1.58,3.77.85.81,1.89,1.24,3,1.24,1.52,0,5.54,0,9.79-16.54.34-1.36-.26-2.79-1.48-3.49Z"/>
              <path class="cls-18" d="M122.54,62.34c1.3-.57,2.55-1.28,3.74-2.12.42,0,.84-.04,1.23-.08,2.31-.26,8.06-1.32,11.49-5.59,3.25-4.06,2.57-8.33.46-10.76-1.75-2.02-3.95-3.04-6.54-3.04-.19,0-.38,0-.57.02-2.15-2.13-5.5-3.36-9.29-3.36-.47,0-.93.02-1.4.06-1.49-2.65-4.28-4.48-7.44-4.68-.51-.03-1.08,0-1.62.07-.3-.66-.67-1.32-1.1-1.96-2.15-3.24-5.81-4.94-10.57-4.94-1.17,0-2.4.11-3.63.32-1.5-1.95-3.76-3.53-6.84-4.78-.94-.38-1.9-.69-2.86-.92-.02-4.98-2.82-9.64-7.86-12.84-3.75-2.38-8.35-3.69-12.96-3.69-2.03,0-4,.25-5.89.75-2.84-1.84-6.18-2.74-8.06-3.12-1.86-.38-3.8-.58-5.77-.58-4.46,0-8.85.96-12.7,2.78-4.12,1.95-7.49,5.21-9.44,9.09-3.59.51-7.01,1.97-9.79,4.18-2.89,2.3-4.91,5.29-5.82,8.59-2.84.79-5.16,2.36-6.78,4.62-3.6,5.03-2.44,11.62,2.94,16.79,4.5,4.32,10.32,5.23,14.41,5.23.75,0,1.53-.03,2.3-.1,2.08-.17,4.17-.53,6.12-1.04,3.6,2.46,8.06,3.8,12.71,3.8.27,0,.53,0,.79-.01,5.56-.2,10.52-2,14.36-5.24.02,0,.04.02.06.02.03.01.07.03.11.04-1.28,2.9-1.48,6.06-.52,8.84,1,2.9,3.09,5.1,6.04,6.36,1.61.69,3.44,1.03,5.43,1.03,1.51,0,3.06-.2,4.63-.6.61.37,1.27.68,1.96.92,1.49.52,3.08.79,4.74.79,2.13,0,4.3-.46,6.27-1.3,1.42,1.21,3.22,2.11,5.27,2.69-.55.13-1.05.4-1.45.8-1.82,1.8-7.77,7.97-7.73,12.41.01,1.39.52,2.6,1.47,3.51.81.77,1.8,1.18,2.85,1.18,1.37,0,5,0,8.62-14.09.31-1.22-.16-2.5-1.14-3.25.95.13,1.94.2,2.96.2,1.73,0,3.5-.2,5.12-.58,2.86-.67,6.1-2.3,8.75-4.38.85.17,1.76.25,2.72.25,1.81,0,3.66-.3,5.33-.7-2.23,2.38-5.53,6.42-5.5,9.61.01,1.3.49,2.44,1.39,3.3.77.74,1.72,1.12,2.74,1.12,2.14,0,4.94-1.38,7.71-12.16.35-1.34-.24-2.76-1.42-3.46Z"/>
            </g>
            <g>
              <path class="cls-14" d="M53.91,56.26c-.47-.27-1.02-.42-1.56-.42-.83,0-1.61.32-2.19.9-1.82,1.79-7.77,7.97-7.73,12.41,0,1.39.52,2.6,1.47,3.51.81.77,1.79,1.18,2.85,1.18,3.19,0,5.07-3.73,6.35-6.97,1.13-2.86,1.96-5.92,2.27-7.12.35-1.35-.26-2.78-1.46-3.48Z"/>
              <path class="cls-14" d="M67.84,68.86c-.47-.27-1-.41-1.54-.41-.83,0-1.62.33-2.19.9-1.82,1.8-7.77,7.98-7.73,12.41,0,1.39.52,2.6,1.47,3.51.81.77,1.8,1.18,2.86,1.18,1.37,0,5,0,8.62-14.09.34-1.35-.26-2.78-1.49-3.49Z"/>
              <path class="cls-14" d="M12.62,52.19c-.48-.27-1.02-.42-1.56-.42-.84,0-1.62.33-2.2.9-1.99,1.98-6.64,6.97-6.61,10.75.01,1.3.49,2.44,1.39,3.3.77.74,1.72,1.12,2.74,1.12,2.13,0,4.94-1.38,7.71-12.16.35-1.36-.25-2.79-1.46-3.49Z"/>
              <path class="cls-14" d="M12.62,75.71c-.48-.27-1.02-.42-1.56-.42-.84,0-1.62.33-2.2.9-1.99,1.98-6.64,6.97-6.61,10.75.01,1.3.49,2.44,1.39,3.3.78.74,1.72,1.12,2.74,1.12,2.13,0,4.94-1.38,7.71-12.16.35-1.36-.25-2.79-1.46-3.49Z"/>
              <path class="cls-14" d="M42.1,83.25c-.47-.27-1.01-.42-1.56-.42-.83,0-1.62.33-2.19.9-1.99,1.97-6.65,6.95-6.62,10.75.01,1.3.49,2.44,1.39,3.3.77.74,1.72,1.13,2.74,1.13,2.14,0,4.94-1.38,7.71-12.16.35-1.35-.25-2.79-1.46-3.49Z"/>
              <path class="cls-14" d="M75.51,83.25c-.47-.27-1.01-.42-1.56-.42-.84,0-1.62.33-2.19.89-6.14,6.08-6.63,9.76-6.62,10.75,0,1.3.49,2.44,1.39,3.3.78.74,1.72,1.12,2.74,1.12,2.13,0,4.94-1.38,7.71-12.17.34-1.35-.26-2.78-1.47-3.48Z"/>
              <path class="cls-14" d="M108.62,77.03c-.42-.19-.86-.29-1.31-.29-.97,0-1.87.44-2.46,1.2-7.48,9.57-6.98,14.15-5.22,16.32.78.96,1.85,1.49,3.01,1.49,3.36,0,5.63-4.42,7.75-15.29.28-1.43-.46-2.84-1.76-3.43Z"/>
              <path class="cls-14" d="M144.19,62.01c-.47-.27-1.02-.42-1.57-.42-.83,0-1.61.32-2.2.9-4.82,4.79-5.54,7.76-5.53,9.12,0,1.2.47,2.3,1.32,3.1.73.69,1.66,1.07,2.62,1.07,1.94,0,4.47-1.17,6.81-10.29.35-1.36-.26-2.79-1.46-3.48Z"/>
              <path class="cls-14" d="M133.92,76.65c-.47-.28-1.01-.42-1.56-.42-.83,0-1.61.32-2.2.9-2.07,2.05-5.55,5.96-5.52,9.12,0,1.2.48,2.3,1.3,3.08.72.69,1.66,1.09,2.57,1.09.07,0,.15,0,.22,0,1.92-.07,4.37-1.41,6.65-10.29.34-1.35-.26-2.78-1.46-3.48Z"/>
              <path class="cls-14" d="M33.24,60.4c-.47-.27-1.01-.41-1.55-.41-.82,0-1.6.31-2.2.9-2.16,2.12-9.19,9.45-9.14,14.53.01,1.49.56,2.8,1.58,3.77.85.81,1.89,1.24,3,1.24,1.51,0,5.54,0,9.79-16.54.34-1.35-.26-2.79-1.48-3.49Z"/>
              <path class="cls-14" d="M122.46,62.16c1.3-.57,2.55-1.28,3.74-2.13.42,0,.84-.04,1.23-.08,2.31-.26,8.06-1.32,11.49-5.59,3.25-4.06,2.57-8.33.46-10.76-1.75-2.02-3.95-3.04-6.54-3.04-.19,0-.38,0-.57.02-2.15-2.13-5.5-3.36-9.29-3.36-.47,0-.93.02-1.4.06-1.49-2.65-4.28-4.48-7.45-4.68-.51-.03-1.08,0-1.62.07-.3-.66-.67-1.32-1.1-1.96-2.15-3.23-5.81-4.94-10.57-4.94-1.17,0-2.4.11-3.63.32-1.5-1.96-3.76-3.53-6.84-4.78-.94-.38-1.9-.68-2.86-.92-.02-4.98-2.82-9.64-7.86-12.84-3.74-2.38-8.35-3.69-12.96-3.69-2.03,0-4,.25-5.89.75-2.84-1.84-6.18-2.74-8.06-3.12-1.86-.38-3.8-.58-5.77-.58-4.46,0-8.85.96-12.7,2.78-4.12,1.95-7.49,5.21-9.44,9.09-3.58.51-7.01,1.97-9.79,4.18-2.89,2.3-4.91,5.29-5.82,8.59-2.84.79-5.16,2.36-6.78,4.62C-1.16,35.19,0,41.78,5.38,46.96c4.5,4.32,10.32,5.23,14.41,5.23.75,0,1.53-.03,2.31-.1,2.08-.17,4.17-.53,6.12-1.04,3.6,2.46,8.06,3.8,12.71,3.8.27,0,.53,0,.79-.01,5.55-.2,10.52-2,14.36-5.24.02,0,.04.01.06.02.03.01.07.03.11.04-1.28,2.9-1.48,6.06-.52,8.85,1,2.9,3.09,5.1,6.04,6.36,1.61.69,3.44,1.03,5.43,1.03,1.51,0,3.06-.2,4.63-.6.61.37,1.27.68,1.96.92,1.49.52,3.08.79,4.74.79,2.13,0,4.3-.46,6.27-1.3,1.42,1.21,3.22,2.11,5.27,2.69-.55.13-1.05.4-1.46.8-1.82,1.79-7.77,7.97-7.73,12.41,0,1.39.52,2.61,1.47,3.51.81.77,1.79,1.18,2.85,1.18,1.37,0,5,0,8.62-14.09.31-1.22-.16-2.5-1.14-3.26.95.13,1.94.2,2.96.2,1.73,0,3.5-.2,5.12-.58,2.86-.67,6.1-2.3,8.75-4.38.85.17,1.76.26,2.72.26,1.81,0,3.66-.3,5.33-.7-2.23,2.38-5.53,6.42-5.5,9.61.01,1.3.49,2.44,1.39,3.3.77.73,1.72,1.12,2.74,1.12,2.14,0,4.94-1.38,7.7-12.16.35-1.34-.24-2.76-1.42-3.46Z"/>
            </g>
            <g>
              <path class="cls-3" d="M53.84,56.08c-.48-.27-1.02-.42-1.56-.42-.83,0-1.61.32-2.19.9-1.82,1.79-7.77,7.97-7.73,12.41.01,1.39.52,2.61,1.47,3.51.81.77,1.8,1.18,2.85,1.18,3.19,0,5.07-3.73,6.35-6.97,1.13-2.86,1.96-5.92,2.27-7.12.34-1.35-.26-2.78-1.46-3.48Z"/>
              <path class="cls-3" d="M67.77,68.68c-.47-.27-1-.41-1.54-.41-.83,0-1.62.33-2.19.9-1.82,1.8-7.77,7.98-7.73,12.41,0,1.39.52,2.6,1.47,3.51.81.77,1.8,1.18,2.86,1.18,1.37,0,5,0,8.62-14.09.34-1.35-.26-2.79-1.49-3.49Z"/>
              <path class="cls-3" d="M12.55,52.01c-.48-.28-1.02-.42-1.56-.42-.84,0-1.62.33-2.2.9-1.99,1.98-6.65,6.97-6.61,10.75.01,1.3.49,2.44,1.39,3.3.77.74,1.72,1.12,2.74,1.12,2.13,0,4.94-1.38,7.71-12.16.35-1.36-.25-2.8-1.46-3.49Z"/>
              <path class="cls-3" d="M12.55,75.52c-.48-.28-1.02-.42-1.56-.42-.84,0-1.62.33-2.2.9-1.99,1.98-6.65,6.97-6.61,10.75.01,1.3.49,2.44,1.4,3.3.77.74,1.72,1.12,2.73,1.12,2.13,0,4.94-1.38,7.71-12.16.35-1.36-.25-2.8-1.46-3.49Z"/>
              <path class="cls-3" d="M42.03,83.07c-.47-.27-1.01-.42-1.56-.42-.83,0-1.62.33-2.19.9-1.99,1.97-6.65,6.95-6.62,10.75.01,1.3.49,2.44,1.39,3.3.77.74,1.72,1.13,2.74,1.13,2.14,0,4.94-1.38,7.71-12.16.35-1.35-.25-2.79-1.46-3.49Z"/>
              <path class="cls-3" d="M75.43,83.07c-.47-.27-1.01-.42-1.56-.42-.84,0-1.62.33-2.19.89-6.15,6.08-6.63,9.76-6.62,10.75,0,1.3.49,2.44,1.39,3.3.77.74,1.72,1.12,2.74,1.12,2.13,0,4.94-1.38,7.71-12.17.34-1.35-.26-2.78-1.47-3.48Z"/>
              <path class="cls-3" d="M108.55,76.85c-.41-.19-.85-.29-1.31-.29-.97,0-1.87.44-2.46,1.2-7.48,9.57-6.98,14.15-5.22,16.32.78.96,1.85,1.49,3,1.49,3.36,0,5.63-4.42,7.75-15.29.28-1.43-.46-2.84-1.76-3.43Z"/>
              <path class="cls-3" d="M144.12,61.83c-.47-.27-1.02-.42-1.56-.42-.83,0-1.61.32-2.2.9-4.82,4.78-5.54,7.76-5.53,9.12.01,1.2.48,2.3,1.32,3.1.73.69,1.66,1.07,2.62,1.07,1.94,0,4.47-1.17,6.81-10.29.35-1.36-.26-2.79-1.46-3.48Z"/>
              <path class="cls-3" d="M133.84,76.46c-.47-.28-1.01-.42-1.56-.42-.83,0-1.61.32-2.2.9-2.07,2.05-5.55,5.96-5.52,9.12,0,1.2.48,2.3,1.3,3.08.72.69,1.66,1.09,2.57,1.09.07,0,.15,0,.22,0,1.92-.07,4.37-1.41,6.66-10.29.34-1.35-.26-2.78-1.47-3.48Z"/>
              <path class="cls-3" d="M33.17,60.22c-.47-.27-1.01-.41-1.55-.41-.82,0-1.6.31-2.2.9-2.16,2.12-9.19,9.45-9.14,14.53.01,1.5.56,2.8,1.58,3.77.85.81,1.89,1.24,3,1.24,1.52,0,5.54,0,9.79-16.54.34-1.35-.26-2.79-1.48-3.49Z"/>
              <path class="cls-3" d="M122.39,61.97c1.3-.57,2.55-1.28,3.74-2.13.42,0,.84-.04,1.23-.08,2.31-.26,8.06-1.32,11.49-5.59,3.25-4.06,2.57-8.33.46-10.76-1.75-2.02-3.95-3.04-6.54-3.04-.19,0-.38,0-.57.02-2.15-2.13-5.5-3.36-9.29-3.36-.47,0-.93.02-1.4.06-1.49-2.65-4.28-4.48-7.44-4.68-.51-.03-1.08,0-1.62.07-.31-.66-.67-1.31-1.1-1.96-2.15-3.24-5.81-4.94-10.57-4.94-1.17,0-2.4.11-3.63.32-1.5-1.96-3.76-3.53-6.84-4.78-.94-.38-1.9-.69-2.86-.92-.02-4.98-2.82-9.64-7.86-12.84-3.75-2.38-8.35-3.69-12.96-3.69-2.03,0-4,.25-5.89.75-2.84-1.84-6.18-2.74-8.06-3.12-1.86-.38-3.8-.58-5.77-.58-4.46,0-8.85.96-12.7,2.78-4.12,1.95-7.49,5.21-9.44,9.09-3.58.51-7.01,1.97-9.79,4.18-2.89,2.3-4.91,5.29-5.82,8.59-2.84.78-5.16,2.36-6.78,4.62-3.6,5.03-2.44,11.62,2.94,16.79,4.5,4.32,10.32,5.23,14.41,5.23.75,0,1.53-.03,2.31-.1,2.08-.17,4.17-.53,6.12-1.04,3.6,2.46,8.06,3.8,12.71,3.8.27,0,.53,0,.79-.01,5.55-.21,10.52-2,14.36-5.24.02,0,.04.02.06.02.03.01.07.03.11.04-1.28,2.9-1.48,6.06-.52,8.84,1,2.9,3.09,5.1,6.04,6.36,1.61.69,3.44,1.03,5.43,1.03,1.51,0,3.06-.2,4.63-.6.61.37,1.27.68,1.96.92,1.49.52,3.08.79,4.74.79,2.13,0,4.3-.45,6.27-1.3,1.42,1.21,3.22,2.11,5.27,2.69-.55.13-1.05.4-1.46.8-1.82,1.79-7.77,7.97-7.73,12.41.01,1.39.52,2.6,1.47,3.51.81.77,1.79,1.17,2.85,1.17,1.37,0,5,0,8.62-14.09.31-1.22-.16-2.5-1.14-3.25.95.13,1.94.2,2.96.2,1.73,0,3.5-.2,5.12-.58,2.86-.67,6.1-2.3,8.75-4.38.85.17,1.76.25,2.72.25,1.81,0,3.66-.3,5.33-.7-2.23,2.38-5.53,6.42-5.5,9.61.01,1.3.49,2.44,1.39,3.3.77.73,1.72,1.12,2.74,1.12,2.14,0,4.94-1.38,7.7-12.16.35-1.34-.24-2.76-1.42-3.46Z"/>
            </g>
            <g>
              <path class="cls-2" d="M53.77,55.9c-.47-.27-1.02-.42-1.56-.42-.83,0-1.61.32-2.19.9-1.82,1.79-7.77,7.97-7.73,12.41.01,1.39.52,2.61,1.47,3.51.81.77,1.79,1.18,2.85,1.18,3.19,0,5.07-3.73,6.35-6.97,1.13-2.86,1.96-5.92,2.27-7.12.34-1.35-.26-2.78-1.46-3.48Z"/>
              <path class="cls-2" d="M67.69,68.5c-.47-.27-1-.41-1.54-.41-.83,0-1.62.33-2.19.89-1.82,1.8-7.77,7.98-7.73,12.41,0,1.39.52,2.6,1.47,3.51.81.77,1.8,1.18,2.86,1.18,1.37,0,5,0,8.62-14.09.34-1.35-.26-2.79-1.49-3.49Z"/>
              <path class="cls-2" d="M12.48,51.83c-.48-.28-1.02-.42-1.56-.42-.84,0-1.62.33-2.2.9-1.99,1.98-6.65,6.97-6.61,10.75.01,1.3.49,2.44,1.39,3.3.77.74,1.72,1.12,2.74,1.12,2.13,0,4.94-1.38,7.71-12.16.35-1.36-.25-2.8-1.46-3.49Z"/>
              <path class="cls-2" d="M12.48,75.34c-.48-.28-1.02-.42-1.56-.42-.84,0-1.62.33-2.2.9-1.99,1.98-6.65,6.97-6.61,10.75.01,1.3.49,2.44,1.4,3.3.77.74,1.72,1.12,2.73,1.12,2.13,0,4.94-1.38,7.71-12.16.35-1.36-.25-2.8-1.46-3.49Z"/>
              <path class="cls-2" d="M41.95,82.89c-.47-.28-1.01-.42-1.56-.42-.84,0-1.62.33-2.19.9-1.99,1.97-6.65,6.95-6.62,10.75.01,1.3.49,2.44,1.39,3.3.77.74,1.72,1.13,2.74,1.13,2.14,0,4.94-1.38,7.71-12.16.35-1.35-.25-2.79-1.46-3.49Z"/>
              <path class="cls-2" d="M75.36,82.89c-.47-.27-1.01-.41-1.56-.41-.84,0-1.62.33-2.19.89-6.15,6.08-6.63,9.76-6.62,10.75,0,1.3.49,2.44,1.39,3.3.77.74,1.72,1.12,2.74,1.12,2.13,0,4.94-1.38,7.71-12.17.34-1.35-.26-2.78-1.47-3.48Z"/>
              <path class="cls-2" d="M108.48,76.67c-.41-.19-.85-.29-1.31-.29-.97,0-1.87.44-2.46,1.2-7.48,9.57-6.98,14.15-5.22,16.32.78.96,1.85,1.49,3,1.49,3.36,0,5.63-4.42,7.75-15.29.28-1.43-.46-2.84-1.76-3.43Z"/>
              <path class="cls-2" d="M144.05,61.65c-.47-.27-1.02-.42-1.56-.42-.83,0-1.61.32-2.2.9-4.82,4.78-5.54,7.76-5.53,9.12.01,1.2.48,2.3,1.32,3.1.73.69,1.66,1.07,2.62,1.07,1.94,0,4.47-1.17,6.81-10.29.35-1.36-.26-2.79-1.46-3.48Z"/>
              <path class="cls-2" d="M133.77,76.28c-.47-.27-1.01-.42-1.56-.42-.83,0-1.61.32-2.2.9-2.07,2.05-5.55,5.96-5.52,9.12,0,1.21.48,2.3,1.3,3.09.72.69,1.66,1.09,2.57,1.09.07,0,.15,0,.22,0,1.92-.07,4.37-1.41,6.66-10.29.34-1.35-.26-2.78-1.47-3.48Z"/>
              <path class="cls-2" d="M33.09,60.03c-.47-.27-1.01-.41-1.55-.41-.82,0-1.6.31-2.2.9-2.16,2.12-9.19,9.45-9.14,14.53.01,1.5.56,2.8,1.58,3.77.85.81,1.89,1.24,3,1.24,1.52,0,5.54,0,9.79-16.54.34-1.35-.26-2.79-1.48-3.49Z"/>
              <path class="cls-2" d="M122.32,61.79c1.3-.57,2.55-1.28,3.74-2.13.42,0,.84-.04,1.23-.08,2.31-.26,8.06-1.32,11.49-5.59,3.25-4.06,2.57-8.33.46-10.76-1.75-2.02-3.95-3.04-6.54-3.04-.19,0-.38,0-.57.02-2.15-2.13-5.5-3.36-9.29-3.36-.47,0-.93.02-1.4.06-1.49-2.65-4.28-4.48-7.44-4.68-.51-.03-1.08,0-1.62.07-.31-.66-.67-1.31-1.1-1.96-2.15-3.23-5.81-4.94-10.57-4.94-1.17,0-2.4.11-3.63.32-1.5-1.96-3.76-3.53-6.84-4.78-.94-.38-1.9-.68-2.86-.92-.02-4.98-2.82-9.64-7.86-12.84-3.75-2.38-8.35-3.69-12.96-3.69-2.03,0-4,.25-5.89.75-2.84-1.84-6.18-2.73-8.06-3.12-1.86-.38-3.8-.58-5.77-.58-4.46,0-8.85.96-12.7,2.78-4.12,1.95-7.49,5.21-9.44,9.09-3.58.51-7.01,1.97-9.79,4.18-2.89,2.29-4.91,5.29-5.82,8.59-2.84.78-5.16,2.36-6.78,4.62-3.6,5.03-2.44,11.62,2.94,16.79,4.5,4.32,10.32,5.23,14.41,5.23.75,0,1.53-.03,2.3-.1,2.08-.17,4.17-.53,6.12-1.04,3.6,2.46,8.06,3.8,12.71,3.8.27,0,.53,0,.79-.01,5.56-.19,10.52-2,14.36-5.24.02,0,.04.01.06.02.03.01.07.03.11.04-1.28,2.9-1.48,6.06-.52,8.84,1,2.9,3.09,5.1,6.04,6.36,1.61.69,3.44,1.03,5.43,1.03,1.51,0,3.06-.2,4.63-.6.61.37,1.27.68,1.96.92,1.49.52,3.08.79,4.74.79,2.13,0,4.3-.45,6.27-1.3,1.42,1.21,3.22,2.11,5.27,2.69-.55.13-1.05.4-1.46.8-1.82,1.79-7.77,7.97-7.73,12.41.01,1.39.52,2.6,1.47,3.51.81.77,1.79,1.18,2.85,1.18,1.37,0,5,0,8.62-14.09.31-1.22-.16-2.5-1.15-3.26.95.13,1.94.2,2.96.2,1.73,0,3.5-.2,5.12-.58,2.86-.67,6.1-2.31,8.75-4.38.85.17,1.76.25,2.72.25,1.81,0,3.66-.3,5.33-.7-2.23,2.38-5.53,6.42-5.5,9.61.01,1.3.49,2.44,1.39,3.3.77.73,1.72,1.12,2.74,1.12,2.14,0,4.94-1.38,7.7-12.16.35-1.34-.24-2.76-1.42-3.46Z"/>
            </g>
            <g>
              <path class="cls-4" d="M53.69,55.71c-.47-.27-1.02-.42-1.56-.42-.83,0-1.61.32-2.19.9-1.82,1.79-7.77,7.97-7.73,12.41.01,1.39.52,2.61,1.48,3.51.81.77,1.79,1.18,2.85,1.18,3.19,0,5.07-3.73,6.35-6.97,1.13-2.86,1.96-5.92,2.27-7.12.34-1.35-.26-2.78-1.46-3.48Z"/>
              <path class="cls-4" d="M67.62,68.32c-.47-.27-1-.41-1.54-.41-.84,0-1.62.33-2.19.89-1.82,1.8-7.77,7.98-7.73,12.41,0,1.39.52,2.6,1.47,3.51.81.77,1.8,1.18,2.86,1.18,1.37,0,5,0,8.62-14.09.34-1.35-.26-2.79-1.49-3.49Z"/>
              <path class="cls-4" d="M12.41,51.64c-.48-.27-1.02-.42-1.56-.42-.84,0-1.62.33-2.2.9-1.99,1.98-6.64,6.97-6.61,10.75.01,1.3.49,2.44,1.39,3.3.77.74,1.72,1.12,2.74,1.12,2.13,0,4.94-1.38,7.71-12.16.35-1.36-.25-2.79-1.46-3.49Z"/>
              <path class="cls-4" d="M12.41,75.16c-.48-.27-1.02-.42-1.56-.42-.84,0-1.62.33-2.2.9-1.99,1.98-6.64,6.97-6.61,10.75.01,1.3.49,2.44,1.39,3.3.77.74,1.72,1.12,2.74,1.12,2.13,0,4.94-1.38,7.71-12.16.35-1.36-.25-2.79-1.46-3.49Z"/>
              <path class="cls-4" d="M41.88,82.71c-.47-.27-1.01-.42-1.56-.42-.83,0-1.62.33-2.19.9-1.99,1.97-6.65,6.95-6.62,10.75.01,1.3.49,2.44,1.39,3.3.77.74,1.72,1.13,2.74,1.13,2.14,0,4.94-1.38,7.71-12.16.35-1.35-.25-2.79-1.46-3.49Z"/>
              <path class="cls-4" d="M75.29,82.7c-.47-.27-1.01-.41-1.56-.41-.84,0-1.62.33-2.19.89-6.15,6.08-6.63,9.76-6.62,10.75,0,1.3.49,2.44,1.39,3.3.77.74,1.72,1.12,2.74,1.12,2.13,0,4.94-1.38,7.71-12.17.34-1.35-.26-2.78-1.47-3.48Z"/>
              <path class="cls-4" d="M108.4,76.49c-.41-.19-.85-.29-1.31-.29-.97,0-1.87.44-2.46,1.2-7.48,9.57-6.98,14.15-5.22,16.32.78.96,1.85,1.49,3.01,1.49,3.36,0,5.63-4.42,7.75-15.29.28-1.43-.46-2.84-1.76-3.43Z"/>
              <path class="cls-4" d="M143.97,61.46c-.47-.27-1.02-.42-1.57-.42-.83,0-1.61.32-2.2.9-4.82,4.79-5.54,7.76-5.53,9.12.01,1.2.47,2.3,1.32,3.1.73.69,1.66,1.07,2.62,1.07,1.94,0,4.47-1.17,6.81-10.29.35-1.36-.26-2.79-1.46-3.48Z"/>
              <path class="cls-4" d="M133.7,76.1c-.47-.27-1.01-.42-1.56-.42-.83,0-1.61.32-2.2.9-2.07,2.05-5.55,5.96-5.52,9.12,0,1.21.48,2.3,1.3,3.09.72.69,1.66,1.09,2.57,1.09.07,0,.15,0,.22,0,1.92-.07,4.37-1.41,6.66-10.29.34-1.35-.26-2.78-1.47-3.48Z"/>
              <path class="cls-4" d="M33.02,59.85c-.47-.27-1.01-.41-1.55-.41-.82,0-1.6.31-2.2.9-2.16,2.12-9.19,9.45-9.15,14.53.01,1.5.56,2.8,1.58,3.77.85.81,1.89,1.24,3,1.24,1.52,0,5.54,0,9.79-16.54.34-1.35-.26-2.79-1.48-3.48Z"/>
              <path class="cls-4" d="M122.24,61.61c1.3-.57,2.55-1.28,3.74-2.13.42,0,.84-.04,1.23-.08,2.31-.26,8.06-1.32,11.49-5.59,3.25-4.06,2.57-8.33.46-10.76-1.75-2.02-3.95-3.04-6.54-3.04-.19,0-.38,0-.57.02-2.15-2.13-5.5-3.36-9.29-3.36-.47,0-.93.02-1.4.06-1.49-2.65-4.28-4.48-7.44-4.68-.51-.03-1.08,0-1.62.07-.31-.66-.67-1.31-1.1-1.96-2.15-3.23-5.81-4.94-10.57-4.94-1.17,0-2.4.11-3.63.32-1.5-1.96-3.76-3.53-6.84-4.78-.94-.38-1.9-.68-2.86-.92-.02-4.98-2.82-9.64-7.86-12.84-3.75-2.38-8.35-3.69-12.96-3.69-2.03,0-4,.25-5.89.75-2.84-1.84-6.18-2.74-8.06-3.12-1.86-.38-3.8-.58-5.77-.58-4.46,0-8.85.96-12.7,2.78-4.12,1.95-7.49,5.21-9.44,9.09-3.58.51-7.01,1.97-9.79,4.18-2.89,2.29-4.91,5.29-5.83,8.59-2.84.78-5.16,2.36-6.78,4.62-3.6,5.03-2.44,11.62,2.94,16.79,4.5,4.32,10.32,5.23,14.41,5.23.75,0,1.53-.03,2.31-.1,2.08-.17,4.17-.53,6.12-1.04,3.6,2.46,8.06,3.8,12.71,3.8.26,0,.53,0,.79-.01,5.56-.2,10.52-2,14.36-5.24.02,0,.04.02.06.02.03.01.07.03.1.04-1.28,2.9-1.48,6.06-.52,8.84,1,2.9,3.09,5.1,6.04,6.36,1.61.69,3.44,1.03,5.43,1.03,1.51,0,3.06-.2,4.63-.6.61.37,1.27.68,1.96.92,1.49.52,3.08.79,4.74.79,2.13,0,4.3-.45,6.27-1.3,1.42,1.21,3.22,2.11,5.27,2.69-.55.13-1.05.4-1.46.8-1.82,1.79-7.77,7.97-7.73,12.41.01,1.39.52,2.6,1.48,3.51.81.77,1.79,1.17,2.85,1.17,1.37,0,5,0,8.62-14.09.31-1.22-.16-2.5-1.14-3.25.95.13,1.94.2,2.96.2,1.73,0,3.5-.2,5.12-.58,2.86-.67,6.1-2.31,8.75-4.38.84.17,1.76.26,2.72.26,1.81,0,3.66-.3,5.33-.7-2.23,2.38-5.53,6.42-5.5,9.61.01,1.3.49,2.44,1.39,3.3.77.73,1.72,1.12,2.74,1.12,2.14,0,4.94-1.38,7.71-12.16.35-1.34-.24-2.76-1.42-3.46Z"/>
            </g>
            <g>
              <path class="cls-6" d="M53.62,55.53c-.47-.27-1.02-.42-1.57-.42-.83,0-1.61.32-2.19.9-1.82,1.79-7.77,7.97-7.73,12.41.01,1.39.52,2.61,1.47,3.51.81.77,1.79,1.18,2.85,1.18,3.19,0,5.07-3.73,6.35-6.97,1.13-2.86,1.96-5.92,2.27-7.12.34-1.36-.26-2.78-1.46-3.48Z"/>
              <path class="cls-6" d="M67.55,68.13c-.47-.27-1-.41-1.54-.41-.83,0-1.62.33-2.19.89-1.82,1.8-7.77,7.98-7.73,12.41,0,1.38.52,2.6,1.47,3.51.81.77,1.8,1.18,2.86,1.18,1.37,0,5,0,8.62-14.09.34-1.35-.26-2.78-1.49-3.49Z"/>
              <path class="cls-6" d="M12.33,51.46c-.48-.28-1.02-.42-1.56-.42-.84,0-1.62.33-2.2.9-1.99,1.98-6.65,6.97-6.61,10.75.01,1.3.49,2.44,1.39,3.3.77.74,1.72,1.13,2.74,1.13,2.14,0,4.94-1.38,7.71-12.16.35-1.36-.25-2.8-1.46-3.49Z"/>
              <path class="cls-6" d="M12.33,74.98c-.48-.28-1.02-.42-1.56-.42-.84,0-1.62.33-2.2.9-1.99,1.98-6.65,6.97-6.61,10.75.01,1.3.49,2.44,1.39,3.3.77.74,1.72,1.12,2.73,1.12,2.14,0,4.94-1.38,7.71-12.16.35-1.36-.25-2.79-1.46-3.49Z"/>
              <path class="cls-6" d="M41.81,82.53c-.47-.27-1.01-.42-1.56-.42-.83,0-1.62.33-2.19.9-1.99,1.97-6.65,6.95-6.62,10.75.01,1.3.49,2.44,1.39,3.3.77.74,1.72,1.13,2.74,1.13,2.14,0,4.94-1.38,7.71-12.16.35-1.35-.25-2.79-1.46-3.49Z"/>
              <path class="cls-6" d="M75.21,82.52c-.47-.27-1.01-.41-1.56-.41-.84,0-1.62.33-2.19.89-6.15,6.08-6.63,9.76-6.62,10.75,0,1.3.49,2.44,1.39,3.3.77.74,1.72,1.12,2.74,1.12,2.13,0,4.94-1.38,7.71-12.17.34-1.35-.26-2.78-1.47-3.48Z"/>
              <path class="cls-6" d="M108.33,76.3c-.41-.19-.86-.29-1.31-.29-.97,0-1.87.44-2.46,1.2-7.48,9.57-6.98,14.15-5.22,16.32.78.96,1.85,1.49,3,1.49,3.36,0,5.63-4.42,7.75-15.29.28-1.43-.46-2.84-1.76-3.43Z"/>
              <path class="cls-6" d="M143.9,61.28c-.47-.27-1.02-.42-1.56-.42-.83,0-1.61.32-2.2.9-4.82,4.79-5.54,7.76-5.53,9.12.01,1.2.47,2.3,1.32,3.1.73.69,1.66,1.07,2.62,1.07,1.94,0,4.47-1.17,6.81-10.29.35-1.36-.27-2.79-1.46-3.48Z"/>
              <path class="cls-6" d="M133.62,75.92c-.48-.28-1.01-.42-1.56-.42-.83,0-1.61.32-2.2.9-2.07,2.05-5.55,5.96-5.52,9.12,0,1.21.48,2.3,1.3,3.08.72.69,1.66,1.09,2.57,1.09.07,0,.15,0,.22,0,1.92-.07,4.37-1.41,6.66-10.29.34-1.35-.26-2.78-1.47-3.48Z"/>
              <path class="cls-6" d="M32.95,59.67c-.47-.27-1.01-.41-1.55-.41-.82,0-1.6.31-2.2.9-2.16,2.12-9.19,9.45-9.15,14.53.01,1.5.56,2.8,1.58,3.77.85.81,1.89,1.24,3,1.24,1.52,0,5.54,0,9.79-16.54.34-1.35-.26-2.79-1.48-3.48Z"/>
              <path class="cls-6" d="M122.17,61.43c1.3-.57,2.55-1.28,3.74-2.13.42,0,.84-.04,1.23-.08,2.31-.26,8.06-1.32,11.49-5.59,3.25-4.06,2.57-8.33.46-10.76-1.75-2.02-3.95-3.04-6.54-3.04-.19,0-.38,0-.57.02-2.16-2.13-5.5-3.36-9.29-3.36-.47,0-.93.02-1.4.06-1.49-2.65-4.29-4.47-7.44-4.68-.51-.03-1.08,0-1.62.07-.3-.66-.67-1.31-1.1-1.96-2.15-3.23-5.81-4.94-10.57-4.94-1.17,0-2.4.11-3.63.32-1.5-1.96-3.76-3.53-6.84-4.78-.94-.38-1.9-.68-2.86-.91-.02-4.98-2.82-9.64-7.86-12.84-3.75-2.38-8.35-3.69-12.96-3.69-2.03,0-4,.25-5.89.75-2.84-1.84-6.18-2.74-8.06-3.12-1.86-.38-3.8-.58-5.77-.58-4.46,0-8.85.96-12.7,2.78-4.12,1.95-7.49,5.21-9.44,9.09-3.58.51-7.01,1.97-9.79,4.18-2.89,2.29-4.91,5.29-5.82,8.59-2.84.78-5.16,2.36-6.78,4.62-3.6,5.03-2.44,11.62,2.94,16.79,4.5,4.32,10.32,5.23,14.41,5.23.75,0,1.53-.03,2.3-.1,2.08-.17,4.17-.53,6.12-1.04,3.6,2.46,8.06,3.8,12.71,3.8.26,0,.53,0,.79-.01,5.56-.2,10.52-2,14.36-5.24.02,0,.04.01.06.02.03.01.07.03.11.04-1.28,2.9-1.48,6.06-.52,8.84,1,2.9,3.09,5.1,6.04,6.36,1.61.69,3.44,1.03,5.43,1.03,1.51,0,3.06-.2,4.63-.6.61.37,1.27.68,1.96.92,1.49.52,3.08.79,4.74.79,2.13,0,4.3-.45,6.27-1.3,1.42,1.21,3.22,2.11,5.27,2.69-.55.13-1.05.4-1.46.8-1.81,1.8-7.77,7.97-7.73,12.41.01,1.39.52,2.6,1.48,3.51.81.77,1.79,1.18,2.85,1.18,1.37,0,5,0,8.62-14.09.31-1.22-.16-2.5-1.15-3.25.95.13,1.94.2,2.96.2,1.73,0,3.5-.2,5.12-.58,2.86-.67,6.1-2.31,8.75-4.38.84.17,1.76.25,2.72.25,1.81,0,3.66-.3,5.33-.7-2.23,2.38-5.53,6.42-5.5,9.61.01,1.3.49,2.44,1.39,3.3.77.73,1.72,1.12,2.73,1.12,2.14,0,4.94-1.38,7.71-12.16.35-1.34-.24-2.76-1.42-3.46Z"/>
            </g>
            <g>
              <path class="cls-7" d="M53.55,55.35c-.47-.28-1.02-.42-1.56-.42-.83,0-1.61.32-2.19.9-1.82,1.79-7.77,7.97-7.73,12.41.01,1.39.52,2.61,1.47,3.51.81.77,1.8,1.18,2.85,1.18,3.19,0,5.07-3.73,6.35-6.97,1.13-2.86,1.96-5.92,2.27-7.12.34-1.36-.26-2.79-1.46-3.48Z"/>
              <path class="cls-7" d="M67.47,67.95c-.47-.27-1-.41-1.54-.41-.83,0-1.62.32-2.19.89-1.82,1.79-7.77,7.98-7.73,12.41,0,1.38.52,2.6,1.47,3.51.81.77,1.8,1.18,2.86,1.18,1.37,0,5,0,8.62-14.09.34-1.35-.26-2.78-1.49-3.49Z"/>
              <path class="cls-7" d="M12.26,51.28c-.48-.28-1.02-.42-1.56-.42-.84,0-1.62.32-2.2.9-2,1.97-6.65,6.97-6.61,10.75.01,1.3.49,2.44,1.39,3.3.77.74,1.72,1.12,2.74,1.12,2.13,0,4.94-1.38,7.71-12.16.35-1.36-.25-2.8-1.46-3.49Z"/>
              <path class="cls-7" d="M12.26,74.79c-.48-.28-1.02-.42-1.56-.42-.84,0-1.62.32-2.2.9-2,1.97-6.65,6.97-6.61,10.75.01,1.3.49,2.44,1.39,3.3.77.74,1.72,1.12,2.74,1.12,2.13,0,4.94-1.38,7.71-12.16.35-1.36-.25-2.8-1.46-3.49Z"/>
              <path class="cls-7" d="M41.74,82.34c-.47-.28-1.01-.42-1.56-.42-.84,0-1.62.32-2.19.9-2,1.97-6.65,6.95-6.62,10.75.01,1.3.49,2.44,1.39,3.3.77.74,1.72,1.13,2.74,1.13,2.14,0,4.94-1.38,7.71-12.16.35-1.35-.25-2.79-1.46-3.49Z"/>
              <path class="cls-7" d="M75.14,82.34c-.47-.27-1.01-.42-1.56-.42-.84,0-1.62.32-2.19.89-6.18,6.04-6.63,9.76-6.62,10.75,0,1.3.49,2.44,1.39,3.3.77.74,1.72,1.12,2.74,1.12,2.13,0,4.94-1.38,7.71-12.17.34-1.35-.26-2.78-1.47-3.48Z"/>
              <path class="cls-7" d="M108.26,76.12c-.41-.19-.85-.29-1.31-.29-.97,0-1.87.44-2.46,1.2-7.48,9.57-6.97,14.15-5.22,16.32.79.96,1.85,1.49,3,1.49,3.36,0,5.6-4.43,7.75-15.29.27-1.43-.46-2.84-1.76-3.43Z"/>
              <path class="cls-7" d="M143.83,61.1c-.47-.28-1.02-.42-1.56-.42-.83,0-1.61.32-2.2.9-4.84,4.77-5.54,7.76-5.53,9.12.01,1.2.48,2.3,1.32,3.1.73.69,1.66,1.07,2.62,1.07,1.94,0,4.47-1.17,6.81-10.29.35-1.36-.26-2.8-1.46-3.48Z"/>
              <path class="cls-7" d="M133.55,75.73c-.48-.28-1.01-.42-1.56-.42-.83,0-1.61.32-2.2.9-2.07,2.05-5.55,5.96-5.52,9.12,0,1.21.48,2.31,1.3,3.08.72.69,1.66,1.09,2.57,1.09.07,0,.15,0,.22,0,1.92-.07,4.37-1.41,6.66-10.29.34-1.35-.26-2.78-1.47-3.48Z"/>
              <path class="cls-7" d="M32.87,59.49c-.47-.27-1.01-.41-1.55-.41-.82,0-1.59.31-2.2.9-2.16,2.12-9.19,9.45-9.14,14.53.01,1.5.56,2.8,1.58,3.77.85.81,1.89,1.24,3,1.24,1.52,0,5.54,0,9.79-16.54.34-1.35-.26-2.79-1.48-3.48Z"/>
              <path class="cls-7" d="M122.1,61.24c1.3-.57,2.55-1.28,3.74-2.13.42,0,.84-.04,1.23-.08,2.31-.26,8.06-1.32,11.49-5.59,3.25-4.06,2.57-8.33.46-10.76-1.75-2.02-3.95-3.04-6.54-3.04-.19,0-.38,0-.57.02-2.15-2.13-5.5-3.36-9.29-3.36-.47,0-.93.02-1.4.06-1.49-2.65-4.29-4.47-7.44-4.68-.51-.03-1.08,0-1.62.07-.31-.66-.67-1.31-1.1-1.96-2.15-3.23-5.81-4.94-10.57-4.94-1.17,0-2.4.11-3.63.32-1.5-1.96-3.76-3.53-6.84-4.78-.94-.38-1.9-.68-2.86-.92-.02-4.98-2.82-9.64-7.86-12.84-3.75-2.38-8.35-3.69-12.96-3.69-2.03,0-4,.25-5.89.75-2.84-1.84-6.18-2.74-8.06-3.12-1.86-.38-3.8-.58-5.77-.58-4.46,0-8.85.96-12.7,2.78-4.12,1.95-7.49,5.21-9.44,9.09-3.58.51-7.01,1.97-9.79,4.18-2.89,2.29-4.91,5.29-5.82,8.59-2.84.78-5.16,2.36-6.78,4.62-3.6,5.03-2.44,11.62,2.94,16.79,4.5,4.32,10.32,5.23,14.41,5.23.75,0,1.53-.03,2.31-.1,2.08-.17,4.17-.53,6.12-1.04,3.6,2.46,8.06,3.8,12.71,3.8.27,0,.53,0,.79-.01,5.56-.19,10.52-2,14.36-5.24.02,0,.04.02.06.02.03.01.07.03.11.04-1.28,2.9-1.48,6.06-.52,8.84,1,2.9,3.09,5.1,6.04,6.36,1.61.69,3.44,1.03,5.43,1.03,1.51,0,3.06-.2,4.63-.6.61.37,1.27.68,1.96.92,1.49.52,3.08.79,4.74.79,2.13,0,4.3-.46,6.27-1.3,1.42,1.21,3.22,2.11,5.27,2.69-.55.13-1.05.4-1.46.8-1.82,1.79-7.77,7.97-7.73,12.41.01,1.39.52,2.6,1.47,3.51.81.77,1.79,1.17,2.85,1.17,1.37,0,5,0,8.62-14.09.31-1.22-.16-2.5-1.14-3.25.95.13,1.94.2,2.96.2,1.73,0,3.5-.2,5.12-.58,2.86-.67,6.1-2.31,8.75-4.38.85.17,1.76.25,2.72.25,1.81,0,3.66-.3,5.33-.7-2.23,2.38-5.53,6.42-5.5,9.61.01,1.3.49,2.44,1.39,3.3.77.73,1.72,1.12,2.74,1.12,2.14,0,4.94-1.38,7.7-12.16.35-1.34-.24-2.76-1.42-3.46Z"/>
            </g>
          </g>
          <g>
            <path class="cls-5" d="M53.55,55.35c-.47-.28-1.02-.42-1.56-.42-.83,0-1.61.32-2.19.9-1.82,1.79-7.77,7.97-7.73,12.41.01,1.39.52,2.61,1.47,3.51.81.77,1.8,1.18,2.85,1.18,3.19,0,5.07-3.73,6.35-6.97,1.13-2.86,1.96-5.92,2.27-7.12.34-1.36-.26-2.79-1.46-3.48Z"/>
            <path class="cls-5" d="M67.47,67.95c-.47-.27-1-.41-1.54-.41-.83,0-1.62.32-2.19.89-1.82,1.79-7.77,7.98-7.73,12.41,0,1.38.52,2.6,1.47,3.51.81.77,1.8,1.18,2.86,1.18,1.37,0,5,0,8.62-14.09.34-1.35-.26-2.78-1.49-3.49Z"/>
            <path class="cls-5" d="M12.26,51.28c-.48-.28-1.02-.42-1.56-.42-.84,0-1.62.32-2.2.9-2,1.97-6.65,6.97-6.61,10.75.01,1.3.49,2.44,1.39,3.3.77.74,1.72,1.12,2.74,1.12,2.13,0,4.94-1.38,7.71-12.16.35-1.36-.25-2.8-1.46-3.49Z"/>
            <path class="cls-5" d="M12.26,74.79c-.48-.28-1.02-.42-1.56-.42-.84,0-1.62.32-2.2.9-2,1.97-6.65,6.97-6.61,10.75.01,1.3.49,2.44,1.39,3.3.77.74,1.72,1.12,2.74,1.12,2.13,0,4.94-1.38,7.71-12.16.35-1.36-.25-2.8-1.46-3.49Z"/>
            <path class="cls-5" d="M41.74,82.34c-.47-.28-1.01-.42-1.56-.42-.84,0-1.62.32-2.19.9-2,1.97-6.65,6.95-6.62,10.75.01,1.3.49,2.44,1.39,3.3.77.74,1.72,1.13,2.74,1.13,2.14,0,4.94-1.38,7.71-12.16.35-1.35-.25-2.79-1.46-3.49Z"/>
            <path class="cls-5" d="M75.14,82.34c-.47-.27-1.01-.42-1.56-.42-.84,0-1.62.32-2.19.89-6.18,6.04-6.63,9.76-6.62,10.75,0,1.3.49,2.44,1.39,3.3.77.74,1.72,1.12,2.74,1.12,2.13,0,4.94-1.38,7.71-12.17.34-1.35-.26-2.78-1.47-3.48Z"/>
            <path class="cls-5" d="M108.26,76.12c-.41-.19-.85-.29-1.31-.29-.97,0-1.87.44-2.46,1.2-7.48,9.57-6.97,14.15-5.22,16.32.79.96,1.85,1.49,3,1.49,3.36,0,5.6-4.43,7.75-15.29.27-1.43-.46-2.84-1.76-3.43Z"/>
            <path class="cls-5" d="M143.83,61.1c-.47-.28-1.02-.42-1.56-.42-.83,0-1.61.32-2.2.9-4.84,4.77-5.54,7.76-5.53,9.12.01,1.2.48,2.3,1.32,3.1.73.69,1.66,1.07,2.62,1.07,1.94,0,4.47-1.17,6.81-10.29.35-1.36-.26-2.8-1.46-3.48Z"/>
            <path class="cls-5" d="M133.55,75.73c-.48-.28-1.01-.42-1.56-.42-.83,0-1.61.32-2.2.9-2.07,2.05-5.55,5.96-5.52,9.12,0,1.21.48,2.31,1.3,3.08.72.69,1.66,1.09,2.57,1.09.07,0,.15,0,.22,0,1.92-.07,4.37-1.41,6.66-10.29.34-1.35-.26-2.78-1.47-3.48Z"/>
            <path class="cls-5" d="M32.87,59.49c-.47-.27-1.01-.41-1.55-.41-.82,0-1.59.31-2.2.9-2.16,2.12-9.19,9.45-9.14,14.53.01,1.5.56,2.8,1.58,3.77.85.81,1.89,1.24,3,1.24,1.52,0,5.54,0,9.79-16.54.34-1.35-.26-2.79-1.48-3.48Z"/>
            <path class="cls-5" d="M122.1,61.24c1.3-.57,2.55-1.28,3.74-2.13.42,0,.84-.04,1.23-.08,2.31-.26,8.06-1.32,11.49-5.59,3.25-4.06,2.57-8.33.46-10.76-1.75-2.02-3.95-3.04-6.54-3.04-.19,0-.38,0-.57.02-2.15-2.13-5.5-3.36-9.29-3.36-.47,0-.93.02-1.4.06-1.49-2.65-4.29-4.47-7.44-4.68-.51-.03-1.08,0-1.62.07-.31-.66-.67-1.31-1.1-1.96-2.15-3.23-5.81-4.94-10.57-4.94-1.17,0-2.4.11-3.63.32-1.5-1.96-3.76-3.53-6.84-4.78-.94-.38-1.9-.68-2.86-.92-.02-4.98-2.82-9.64-7.86-12.84-3.75-2.38-8.35-3.69-12.96-3.69-2.03,0-4,.25-5.89.75-2.84-1.84-6.18-2.74-8.06-3.12-1.86-.38-3.8-.58-5.77-.58-4.46,0-8.85.96-12.7,2.78-4.12,1.95-7.49,5.21-9.44,9.09-3.58.51-7.01,1.97-9.79,4.18-2.89,2.29-4.91,5.29-5.82,8.59-2.84.78-5.16,2.36-6.78,4.62-3.6,5.03-2.44,11.62,2.94,16.79,4.5,4.32,10.32,5.23,14.41,5.23.75,0,1.53-.03,2.31-.1,2.08-.17,4.17-.53,6.12-1.04,3.6,2.46,8.06,3.8,12.71,3.8.27,0,.53,0,.79-.01,5.56-.19,10.52-2,14.36-5.24.02,0,.04.02.06.02.03.01.07.03.11.04-1.28,2.9-1.48,6.06-.52,8.84,1,2.9,3.09,5.1,6.04,6.36,1.61.69,3.44,1.03,5.43,1.03,1.51,0,3.06-.2,4.63-.6.61.37,1.27.68,1.96.92,1.49.52,3.08.79,4.74.79,2.13,0,4.3-.46,6.27-1.3,1.42,1.21,3.22,2.11,5.27,2.69-.55.13-1.05.4-1.46.8-1.82,1.79-7.77,7.97-7.73,12.41.01,1.39.52,2.6,1.47,3.51.81.77,1.79,1.17,2.85,1.17,1.37,0,5,0,8.62-14.09.31-1.22-.16-2.5-1.14-3.25.95.13,1.94.2,2.96.2,1.73,0,3.5-.2,5.12-.58,2.86-.67,6.1-2.31,8.75-4.38.85.17,1.76.25,2.72.25,1.81,0,3.66-.3,5.33-.7-2.23,2.38-5.53,6.42-5.5,9.61.01,1.3.49,2.44,1.39,3.3.77.73,1.72,1.12,2.74,1.12,2.14,0,4.94-1.38,7.7-12.16.35-1.34-.24-2.76-1.42-3.46Z"/>
          </g>
          <g>
            <g>
              <g>
                <path class="cls-16" d="M95.27,28.55c-1.19-2.62-3.88-4.23-6.44-5.26-1.65-.67-3.37-1.07-5.14-1.18,1.33-5.31-1.54-9.95-6.08-12.84-5.05-3.21-11.53-4.11-17.22-2.31-.18.06-.35.12-.53.18-2.25-1.88-5.44-2.96-8.1-3.5-5.41-1.11-11.52-.39-16.5,1.97-3.92,1.85-7.15,5.14-8.66,9.2-3.61.16-7.14,1.44-9.97,3.69-2.73,2.17-4.7,5.24-5.11,8.72,0,.02,0,.05,0,.07-2.69.33-5.22,1.45-6.89,3.78-3.13,4.38-.96,9.33,2.56,12.72,3.78,3.63,9.24,4.69,14.29,4.27,2.24-.18,4.67-.61,7-1.35,3.55,2.89,8.23,4.24,12.78,4.09,4.57-.15,8.97-1.55,12.49-4.54.39-.33.83-.74,1.27-1.2.64.26,1.27.5,1.86.72,3.68,1.37,7.5,2.17,11.42,2.42,7.13.45,14.61-1.01,20.69-4.85,4.71-2.98,8.87-9.13,6.3-14.8Z"/>
                <path class="cls-1" d="M40.56,51.27c-4.56,0-8.88-1.44-12.18-4.05-2.13.65-4.5,1.1-6.87,1.3-.7.06-1.4.08-2.08.08-3.6,0-8.69-.78-12.56-4.49-3.47-3.34-5.99-8.59-2.62-13.31,1.53-2.13,3.89-3.48,6.85-3.92.49-3.38,2.34-6.45,5.24-8.75,2.78-2.21,6.3-3.54,9.93-3.77,1.54-3.93,4.73-7.26,8.78-9.18,3.5-1.65,7.49-2.52,11.56-2.52,1.8,0,3.56.17,5.23.52,1.93.4,5.51,1.37,8.11,3.44l.29-.1c5.7-1.81,12.5-.89,17.61,2.36,5.02,3.19,7.38,7.94,6.4,12.81,1.61.15,3.21.54,4.75,1.17,3.45,1.4,5.64,3.2,6.68,5.5,2.61,5.75-1.28,12.08-6.47,15.37-5.17,3.27-11.54,5-18.42,5h0c-.84,0-1.7-.03-2.54-.08-3.98-.25-7.87-1.07-11.55-2.44-.5-.19-1.04-.39-1.59-.61-.35.36-.72.7-1.09,1.01-3.38,2.88-7.79,4.48-12.77,4.65-.23,0-.47.01-.7.01ZM28.47,46.26c.1,0,.2.03.29.1,3.33,2.71,7.82,4.15,12.48,3.99,4.76-.16,8.99-1.69,12.21-4.43.42-.35.85-.76,1.24-1.17.13-.14.33-.18.5-.1.63.26,1.26.49,1.84.71,3.59,1.34,7.39,2.14,11.29,2.39.82.05,1.66.08,2.48.08,6.71,0,12.91-1.68,17.94-4.86,4.74-3,8.5-9.01,6.13-14.23-.94-2.07-2.97-3.72-6.2-5.03-1.62-.66-3.31-1.04-5-1.15-.13,0-.26-.08-.34-.19-.08-.11-.11-.25-.08-.38,1.16-4.64-1.04-9.26-5.89-12.34-4.89-3.11-11.4-3.99-16.85-2.26l-.52.18c-.15.05-.31.02-.43-.08-2.46-2.06-6.01-3.02-7.91-3.41-5.23-1.08-11.4-.34-16.22,1.93-3.93,1.86-7,5.12-8.42,8.95-.06.17-.22.29-.4.29-3.55.16-7,1.44-9.71,3.59-2.81,2.23-4.57,5.23-4.95,8.42-.02.21-.19.45-.4.47-2.87.35-5.14,1.59-6.57,3.6-3.04,4.24-.7,9.05,2.51,12.12,3.64,3.5,8.5,4.23,11.93,4.23.66,0,1.34-.03,2.01-.08,2.39-.2,4.77-.66,6.9-1.33.04-.01.09-.02.14-.02Z"/>
              </g>
              <g class="cls-11">
                <path class="cls-15" d="M12.28,28.45c.93-4.72,4.31-8.67,8.71-10.83,1.67-.82,3.58-1.46,5.5-1.73.9-2.27,3.24-4.47,4.65-5.74,3.85-3.46,8.64-4.93,13.75-5.03,4.17-.08,8.75.47,12.31,2.82.58.38,1.1.8,1.59,1.24,3.75-1.59,7.88-2.54,11.97-2,2.03.27,4.08.78,5.99,1.57-4.92-2.79-11-3.51-16.38-1.8-.18.06-.35.12-.53.18-2.25-1.88-5.44-2.96-8.1-3.5-5.41-1.11-11.52-.39-16.5,1.97-3.92,1.85-7.15,5.14-8.66,9.2-3.61.16-7.14,1.44-9.97,3.69-2.73,2.17-4.7,5.24-5.11,8.72,0,.02,0,.05,0,.07-2.69.33-5.22,1.45-6.89,3.78-.45.63-.79,1.27-1.03,1.92,2.05-2.55,5.38-4.25,8.7-4.54Z"/>
              </g>
              <g class="cls-13">
                <path class="cls-16" d="M95.27,28.55c-1.19-2.62-3.88-4.23-6.44-5.26-1.65-.67-3.37-1.07-5.14-1.18,1.33-5.31-1.54-9.95-6.08-12.84-1.13-.72-2.34-1.32-3.6-1.8,2.37,1.57,4.31,3.75,5.42,6.39,1.49,3.54.69,7.65-1.65,10.52,2.46.04,4.84.64,6.73,2.24,4.25,3.6,4.05,9.91-.16,13.52-4.87,4.18-12.09,4.73-18.14,3.54-3.69-.72-7.94-2.02-10.9-4.61-2.91,3.98-7.73,6.5-12.79,7.04-5.98.64-13.01-1.66-15.35-7.15-2.02,1.88-4.41,3.4-7.15,3.81-3.81.56-7.59-.61-10.64-2.9-2.78-2.1-5-5.44-4.57-9.03-.06.08-.13.17-.19.25-3.13,4.38-.96,9.33,2.56,12.72,3.78,3.63,9.24,4.69,14.29,4.27,2.24-.18,4.67-.61,7-1.35,3.55,2.89,8.23,4.24,12.78,4.09,4.57-.15,8.97-1.55,12.49-4.54.39-.33.83-.74,1.27-1.2.64.26,1.27.5,1.86.72,3.68,1.37,7.5,2.17,11.42,2.42,7.13.45,14.61-1.01,20.69-4.85,4.71-2.98,8.87-9.13,6.3-14.8Z"/>
              </g>
            </g>
            <g>
              <path class="cls-15" d="M51.98,58.06s-8.98,8.86-6.29,11.42c2.69,2.57,6.29-11.42,6.29-11.42Z"/>
              <path class="cls-1" d="M46.39,70.24h0c-.37,0-.7-.15-1.01-.44-.42-.4-.64-.94-.65-1.59-.03-3.58,6.64-10.2,6.93-10.48.14-.14.37-.17.54-.07.18.1.26.31.21.5-.52,2.02-3.24,12.08-6.03,12.08ZM51.08,59.64c-2.19,2.37-5.46,6.38-5.43,8.56,0,.41.12.71.36.94.13.13.26.19.38.19,1.36,0,3.4-5.22,4.69-9.7Z"/>
            </g>
            <g>
              <path class="cls-15" d="M65.93,70.67s-8.99,8.86-6.29,11.42c2.7,2.57,6.29-11.42,6.29-11.42Z"/>
              <path class="cls-1" d="M60.34,82.86h0c-.36,0-.7-.15-1.01-.44-.42-.4-.64-.94-.64-1.59-.03-3.58,6.64-10.2,6.93-10.48.14-.14.37-.17.54-.07.18.1.26.31.21.51-.52,2.02-3.24,12.08-6.03,12.08ZM65.03,72.26c-2.19,2.37-5.46,6.38-5.44,8.56,0,.41.12.72.36.95.13.13.26.19.38.19,1.36,0,3.4-5.22,4.69-9.69Z"/>
            </g>
            <g>
              <path class="cls-15" d="M90.42,70.52s-8.99,8.85-6.29,11.42c2.69,2.57,6.29-11.42,6.29-11.42Z"/>
              <path class="cls-1" d="M84.83,82.71h0c-.36,0-.7-.15-1.01-.44-.42-.4-.64-.94-.64-1.6-.03-3.58,6.64-10.2,6.93-10.48.14-.14.37-.17.54-.07.18.1.26.31.21.51-.52,2.02-3.24,12.08-6.03,12.08ZM89.52,72.11c-2.19,2.37-5.46,6.37-5.44,8.56,0,.41.12.72.36.95.13.13.26.19.38.19,1.36,0,3.4-5.22,4.69-9.69Z"/>
            </g>
            <g>
              <path class="cls-15" d="M120.49,63.92s-7.51,7.41-5.26,9.55c2.25,2.15,5.26-9.55,5.26-9.55Z"/>
              <path class="cls-1" d="M115.81,74.19h0c-.32,0-.62-.13-.89-.39-.37-.35-.56-.82-.56-1.38-.02-3.03,5.58-8.58,5.82-8.82.14-.14.37-.17.54-.07.18.1.26.31.21.5-.61,2.38-2.79,10.16-5.12,10.16ZM119.58,65.53c-1.82,1.99-4.33,5.14-4.32,6.88,0,.32.09.56.28.74.15.14.24.14.27.14.98,0,2.59-3.76,3.76-7.75Z"/>
            </g>
            <g>
              <path class="cls-15" d="M10.7,53.99s-7.51,7.41-5.26,9.56c2.25,2.15,5.26-9.56,5.26-9.56Z"/>
              <path class="cls-1" d="M6.02,64.26h0c-.32,0-.62-.13-.89-.39-.37-.35-.56-.82-.56-1.39-.03-3.03,5.58-8.58,5.82-8.82.15-.14.37-.17.54-.07.18.1.26.31.21.5-.61,2.38-2.79,10.16-5.12,10.16ZM9.78,55.6c-1.82,1.99-4.33,5.14-4.32,6.88,0,.32.09.56.28.74.14.14.24.14.27.14.98,0,2.59-3.76,3.77-7.75Z"/>
            </g>
            <g>
              <path class="cls-15" d="M10.7,77.5s-7.51,7.41-5.26,9.55c2.25,2.15,5.26-9.55,5.26-9.55Z"/>
              <path class="cls-1" d="M6.02,87.77h0c-.32,0-.62-.13-.89-.39-.37-.35-.56-.82-.56-1.39-.03-3.02,5.58-8.58,5.82-8.82.15-.14.37-.17.54-.07.18.1.26.31.21.5-.61,2.38-2.79,10.16-5.12,10.16ZM9.78,79.11c-1.82,1.99-4.33,5.14-4.32,6.88,0,.32.09.56.28.74.14.14.24.14.27.14.98,0,2.59-3.76,3.77-7.75Z"/>
            </g>
            <g>
              <path class="cls-15" d="M40.17,85.05s-7.52,7.41-5.26,9.55c2.25,2.15,5.26-9.55,5.26-9.55Z"/>
              <path class="cls-1" d="M35.49,95.32h0c-.32,0-.62-.13-.89-.39-.37-.35-.56-.82-.56-1.39-.03-3.02,5.58-8.58,5.82-8.82.14-.14.37-.17.54-.07.18.1.26.31.21.51-.61,2.38-2.79,10.16-5.12,10.16ZM39.26,86.66c-1.82,1.99-4.33,5.14-4.31,6.88,0,.32.09.56.28.74.15.14.24.14.27.14.98,0,2.59-3.76,3.76-7.75Z"/>
            </g>
            <g>
              <path class="cls-15" d="M73.58,85.05s-7.51,7.41-5.26,9.55c2.25,2.15,5.26-9.55,5.26-9.55Z"/>
              <path class="cls-1" d="M68.9,95.32h0c-.32,0-.62-.13-.9-.39-.37-.35-.56-.82-.56-1.39-.03-3.02,5.58-8.58,5.82-8.82.14-.14.37-.17.54-.07.18.1.26.31.21.51-.61,2.38-2.79,10.16-5.12,10.16ZM72.67,86.66c-1.82,1.99-4.33,5.14-4.31,6.88,0,.32.09.56.28.74.15.14.24.14.27.14.97,0,2.59-3.76,3.76-7.75Z"/>
            </g>
            <g>
              <path class="cls-15" d="M106.95,78.96s-7.51,9.62-5.26,12.42c2.25,2.79,5.26-12.42,5.26-12.42Z"/>
              <path class="cls-1" d="M102.27,92.17h0c-.35,0-.66-.17-.94-.51-2.41-2.99,4.46-11.96,5.26-12.98.13-.17.36-.22.55-.13.19.09.3.3.26.5-2.41,12.17-4.53,13.12-5.12,13.12ZM106.08,80.89c-2.58,3.66-5.31,8.62-4.04,10.2.09.11.17.17.23.17.87,0,2.52-4.57,3.81-10.37Z"/>
            </g>
            <g>
              <path class="cls-15" d="M142.26,63.81s-6.08,5.99-4.25,7.72c1.82,1.73,4.25-7.72,4.25-7.72Z"/>
              <path class="cls-1" d="M138.48,72.2h0c-.2,0-.49-.06-.78-.34-.31-.3-.48-.7-.48-1.18-.02-2.44,4.25-6.71,4.73-7.19.15-.14.37-.17.54-.07.18.1.26.31.21.5-.5,1.94-2.28,8.28-4.22,8.28ZM141.33,65.45c-1.43,1.6-3.22,3.92-3.21,5.22,0,.31.12.45.2.54.06.06.12.09.16.09.7,0,1.92-2.78,2.85-5.84Z"/>
            </g>
            <g>
              <path class="cls-15" d="M131.99,78.44s-6.08,5.99-4.25,7.72c1.82,1.74,4.25-7.72,4.25-7.72Z"/>
              <path class="cls-1" d="M128.2,86.83c-.16.03-.49-.06-.78-.34-.32-.3-.48-.7-.48-1.18-.02-2.44,4.24-6.71,4.73-7.19.14-.14.37-.17.54-.07.18.1.26.31.21.51-.5,1.94-2.28,8.28-4.22,8.28ZM131.05,80.09c-1.43,1.6-3.22,3.92-3.21,5.22,0,.31.12.46.2.54.06.06.11.09.16.09.7,0,1.92-2.78,2.85-5.84Z"/>
            </g>
            <g>
              <path class="cls-15" d="M31.32,62.2s-10.86,10.7-7.6,13.81c3.26,3.1,7.6-13.81,7.6-13.81Z"/>
              <path class="cls-1" d="M24.56,76.84h0c-.41,0-.8-.17-1.15-.5-.49-.47-.74-1.09-.75-1.86-.04-4.28,8-12.26,8.35-12.6.15-.14.37-.17.55-.07.18.1.26.31.21.51-.62,2.43-3.9,14.53-7.2,14.53ZM30.42,63.78c-2.26,2.42-6.89,7.72-6.86,10.69,0,.52.16.92.47,1.21.18.17.35.26.53.26,1.73,0,4.3-6.63,5.87-12.15Z"/>
            </g>
            <g>
              <g>
                <path class="cls-16" d="M136.65,44.73c-1.76-2.03-3.88-2.22-6.06-1.73-1.87-3.13-7.05-4.29-11.42-3.12-.38-2.59-2.63-4.87-5.6-5.07-.91-.06-2.2.23-3.52.75-.17-1.33-.7-2.68-1.59-4.03-2.66-3.99-8.32-4-12.44-2.99-2.97.72-6.33,2.47-8.49,4.95-1.4-1.49-3.57-2.21-6.02-1.94-4.2.45-7.67,2.57-10.48,5.65-1.05,1.16-1.8,2.75-2.03,4.38-4.38.7-7.67,3.68-9.82,7.57-2.45,4.41-1.47,9.84,3.45,11.93,2.84,1.21,6.3.93,9.44-.12.65.59,1.44,1.07,2.39,1.4,3.53,1.24,7.54.58,10.64-1.45,2.74,4.09,9.59,4.88,14.59,3.71,2.62-.61,6.11-2.39,8.72-4.81,3.25,1.37,8.16.12,11.05-.87,1.98-.67,3.78-1.69,5.38-2.96.7.04,1.38,0,1.9-.05,3.37-.38,7.19-1.69,9.39-4.44,1.52-1.9,2.31-4.71.53-6.76Z"/>
                <path class="cls-1" d="M95.27,65.56c-4.62,0-8.35-1.47-10.3-4.04-3.21,1.95-7.29,2.46-10.66,1.27-.88-.31-1.67-.75-2.34-1.32-3.47,1.11-6.91,1.13-9.51.02-2.24-.95-3.82-2.6-4.56-4.76-.83-2.43-.51-5.28.89-7.8,1.67-3.03,4.73-6.79,9.83-7.74.29-1.59,1.04-3.14,2.09-4.3,3.1-3.41,6.72-5.36,10.77-5.8,2.39-.26,4.55.38,6.05,1.74,2.04-2.17,5.21-3.96,8.4-4.74,1.53-.37,3.11-.57,4.57-.57,2.67,0,6.28.65,8.35,3.75.81,1.21,1.33,2.44,1.58,3.66,1.22-.43,2.36-.64,3.19-.59,2.89.19,5.31,2.25,5.93,4.97,1-.23,2.04-.34,3.09-.34,3.62,0,6.72,1.34,8.19,3.51,2.64-.51,4.61.12,6.19,1.95,1.92,2.22,1.12,5.28-.52,7.34-2.8,3.49-7.71,4.38-9.7,4.61-.54.06-1.17.08-1.81.06-1.67,1.3-3.48,2.28-5.38,2.93-2,.68-4.96,1.49-7.73,1.49-1.28,0-2.42-.18-3.37-.53-2.47,2.21-5.86,4.06-8.72,4.72-1.42.33-2.97.51-4.51.51ZM85.08,60.45c.14,0,.29.07.38.2,1.68,2.51,5.34,4,9.81,4,1.46,0,2.95-.17,4.3-.49,2.8-.66,6.14-2.5,8.52-4.7.13-.12.32-.15.48-.09.9.38,2,.56,3.29.56,2.64,0,5.5-.79,7.44-1.44,1.85-.63,3.62-1.6,5.24-2.88.09-.07.19-.1.3-.09.65.03,1.29.01,1.83-.05,1.87-.21,6.5-1.04,9.09-4.27,1.31-1.63,2.24-4.23.54-6.18-1.42-1.64-3.16-2.14-5.62-1.59-.19.04-.39-.04-.49-.21-1.23-2.06-4.14-3.35-7.59-3.35-1.14,0-2.26.14-3.33.43-.12.03-.26.01-.37-.06-.11-.07-.18-.18-.2-.31-.37-2.54-2.55-4.51-5.18-4.68-.81-.05-2.05.22-3.33.72-.13.05-.28.04-.4-.03-.12-.07-.2-.2-.22-.33-.16-1.27-.67-2.56-1.52-3.83-1.84-2.77-5.15-3.35-7.59-3.35-1.39,0-2.9.19-4.36.54-3.19.78-6.35,2.62-8.25,4.81-.09.1-.21.15-.33.16-.11,0-.25-.05-.34-.14-1.31-1.39-3.36-2.06-5.64-1.8-3.82.41-7.25,2.27-10.19,5.5-1,1.1-1.7,2.61-1.91,4.14-.03.2-.18.35-.38.38-4.93.79-7.89,4.43-9.5,7.34-1.28,2.3-1.58,4.88-.82,7.07.66,1.92,2.06,3.38,4.05,4.22,2.46,1.05,5.78.99,9.12-.13.15-.05.33-.01.45.09.63.57,1.38,1.02,2.24,1.31,3.25,1.14,7.21.58,10.24-1.41.08-.05.16-.07.25-.07Z"/>
              </g>
              <g class="cls-11">
                <path class="cls-15" d="M62.63,46.05c2.15-1.68,4.71-2.42,7.18-2.22.68-5.28,4.81-8.96,10.63-10.14,2.8-.57,5.19-.17,7.14.88,3.26-4.35,10.46-5.82,15.31-3.79,2.87,1.2,4.41,3.64,4.89,6.37,2.27-1.24,4.87-1.72,6.95-.88,2.23.91,3.26,3,3.39,5.26,4.15-.99,8.82,0,10.67,3.16,1.97-1.05,4.23-1.57,6.22-1.19.1.02.2.04.3.06-1.45-.91-3.07-.93-4.72-.57-1.87-3.13-7.05-4.29-11.42-3.12-.38-2.59-2.63-4.87-5.6-5.07-.91-.06-2.2.23-3.52.75-.17-1.33-.7-2.68-1.59-4.03-2.66-3.99-8.32-4-12.44-2.99-2.97.72-6.33,2.47-8.49,4.95-1.4-1.49-3.57-2.21-6.02-1.94-4.2.45-7.67,2.57-10.48,5.65-1.05,1.16-1.8,2.75-2.03,4.38-4.38.7-7.67,3.68-9.82,7.57-.5.9-.84,1.84-1.06,2.78.95-2.24,2.44-4.26,4.51-5.88Z"/>
              </g>
              <g class="cls-13">
                <path class="cls-16" d="M136.65,44.73c-.97-1.12-2.06-1.66-3.2-1.86.8,1.17,1.12,2.84.8,4.05-.62,2.36-2.62,3.88-4.94,4.5-2.39.64-5.75.96-8.07-.14-.73,1.58-2.1,3.02-3.8,3.94-1.93,1.04-4.89,1.61-7.39,1.11-5.87,6.45-20.05,8.01-24.67.84-1.86,1.91-4.49,3.15-7.27,3.18-4.18.05-6.73-2.19-7.57-5.3-3.57,2.17-8.05,2.67-10.86-.7-.8-.96-1.19-2.2-1.26-3.55-1.41,4.04-.14,8.45,4.19,10.29,2.84,1.21,6.3.93,9.44-.12.65.59,1.44,1.07,2.39,1.4,3.53,1.24,7.54.58,10.64-1.45,2.74,4.09,9.59,4.88,14.59,3.71,2.62-.61,6.11-2.39,8.72-4.81,3.25,1.37,8.16.12,11.05-.87,1.98-.67,3.78-1.69,5.38-2.96.7.04,1.38,0,1.9-.05,3.37-.38,7.19-1.69,9.39-4.44,1.52-1.9,2.31-4.71.53-6.76Z"/>
              </g>
            </g>
          </g>
        </g>
      </g>
    </g>
  </g>
</svg>