<?xml version="1.0" encoding="UTF-8"?>
<svg xmlns="http://www.w3.org/2000/svg" width="141.18" height="100" viewBox="0 0 141.18 100">
  <defs>
    <style>
      .cls-1 {
        fill: #5e2c00;
      }

      .cls-2 {
        fill: #8b8b8b;
      }

      .cls-3 {
        fill: #9a9a9a;
      }

      .cls-4 {
        fill: #7d7d7d;
      }

      .cls-5 {
        fill: #fff;
      }

      .cls-6 {
        fill: #6e6e6e;
      }

      .cls-7 {
        fill: #606060;
      }

      .cls-8 {
        fill: #e2e2e2;
      }

      .cls-9, .cls-10 {
        fill: #a54a9c;
      }

      .cls-9, .cls-11 {
        mix-blend-mode: screen;
      }

      .cls-12 {
        isolation: isolate;
      }

      .cls-13 {
        fill: #f1f1f1;
      }

      .cls-14 {
        fill: #b3b5b8;
      }

      .cls-15 {
        fill: #c5c5c5;
      }

      .cls-16 {
        mix-blend-mode: multiply;
      }

      .cls-17 {
        fill: #a8a8a8;
      }

      .cls-18 {
        fill: #464547;
      }

      .cls-19 {
        fill: #97c7eb;
      }

      .cls-20 {
        fill: #d4d4d4;
      }

      .cls-21 {
        fill: #b7b7b7;
      }
    </style>
  </defs>
  <g class="cls-12">
    <g id="Layer_2" data-name="Layer 2">
      <g id="Layer_1-2" data-name="Layer 1">
        <g>
          <g class="cls-16">
            <path class="cls-5" d="M124.35,42.35c.62,0,1.19.05,1.7.16.39.08.41.15.49.38.44,1.45-.59,4.6-1.97,6.02-.2.21-.44.42-.69.63-2.72,2.24-6.49,3.53-10.36,3.53-.78,0-1.56-.06-2.31-.17-1.58-.24-2.86-1.03-3.32-1.52,2.8-5.1,11.06-9.03,16.45-9.03ZM106.39,16.71c.34-.1.65-.17.93-.22.28-.05.61-.08.98-.08,2.52,0,4.66,1.12,5.18,1.9.08.12.12.18-.02.52-2.06,5.02-10.47,10.14-16.65,10.14-.29,0-.58-.01-.85-.04-.15-.66-.09-2.16.59-3.6,1.96-4.1,5.74-7.4,9.84-8.62ZM127.46,26.58c1.81-2.83,2.65-5.99,2.32-9.17-.66-6.24-5.72-11.19-13.89-13.58-2.5-.73-5.02-1.09-7.5-1.09-14.48,0-25.17,12.26-26.07,23.71-.79,10.07-1.25,10.37-5.76,13.3-1.19.77-2.54,1.65-4.15,2.83-.49.35-.87.81-1.12,1.34l-29.17,18.54-31.65,18.59c-.12.07-.23.15-.34.24-.84.71-1.53,1.32-2.15,1.95-.58.57-1.11,1.4-1.69,2.62-3.68,3.74-4.94,7.91-3.54,11.79.03.09.07.18.12.27.02.05.05.1.08.15.09.17.18.33.3.48.05.07.1.14.15.2h0s.02.03.03.04c0,0,.02.02.03.03h0s.07.07.1.11c.08.08.16.16.24.22.09.08.17.15.25.2.12.08.25.16.38.23.05.03.1.06.15.08.06.03.13.06.2.09.02,0,.03.01.05.02.12.05.25.09.38.12.07.02.14.04.2.05.24.05.48.08.72.08.26,0,.52-.03.78-.09.05,0,.09-.02.14-.03,14.51-3.82,60.51-28.34,75.38-36.38.35-.02.69-.09,1.02-.21,1.94-.71,3.54-1.39,4.7-1.88l.41-.17c2.07-.88,3.11-1.3,4.19-1.3,1.7,0,4.21,1.09,9.62,4.15,3.52,1.99,7.73,3.05,12.16,3.05,9.01,0,21.06-4.78,25.35-18.25,2.74-8.6.75-13.92-1.4-16.87-2.48-3.4-6.37-5.32-10.99-5.43Z"/>
            <path class="cls-13" d="M124.15,42.1c.62,0,1.19.05,1.7.16.39.08.41.15.49.38.44,1.45-.59,4.6-1.97,6.02-.21.21-.44.42-.69.63-2.72,2.24-6.49,3.53-10.36,3.53-.78,0-1.56-.06-2.31-.17-1.58-.24-2.86-1.03-3.32-1.52,2.8-5.1,11.06-9.03,16.45-9.03ZM106.19,16.46c.34-.1.65-.17.93-.22.28-.05.61-.08.98-.08,2.52,0,4.65,1.13,5.18,1.9.08.12.12.18-.02.52-2.08,5.02-10.47,10.14-16.65,10.14-.29,0-.58-.01-.85-.04-.15-.65-.09-2.16.59-3.6,1.96-4.1,5.73-7.42,9.84-8.62ZM127.27,26.33c1.81-2.83,2.65-5.99,2.32-9.17-.66-6.24-5.72-11.19-13.89-13.58-2.5-.73-5.02-1.09-7.5-1.09-14.48,0-25.17,12.26-26.07,23.71-.79,10.07-1.25,10.37-5.76,13.29-1.19.77-2.54,1.65-4.15,2.83-.49.35-.87.81-1.12,1.34l-29.17,18.54-31.65,18.59c-.12.07-.23.15-.34.24-.84.71-1.53,1.32-2.15,1.95-.58.58-1.11,1.4-1.69,2.62-3.68,3.74-4.96,7.92-3.54,11.79.03.09.07.18.12.27.02.05.05.1.08.15.09.17.19.33.3.48.05.07.1.14.15.2h0s.02.03.03.04c0,0,.02.02.03.03h0s.07.07.1.11c.08.08.17.16.24.22.09.07.17.15.25.2.12.08.25.16.38.23.05.03.1.06.15.08.06.03.14.06.2.09.02,0,.03.01.05.02.12.05.25.09.38.12.07.02.14.04.2.05.24.05.48.08.72.08.26,0,.52-.04.78-.09.05,0,.09-.02.14-.03,14.52-3.77,60.51-28.34,75.38-36.38.35-.02.69-.09,1.02-.21,1.94-.71,3.54-1.39,4.7-1.88l.41-.17c2.07-.88,3.11-1.3,4.19-1.3,1.7,0,4.21,1.09,9.62,4.15,3.52,1.99,7.73,3.05,12.16,3.05,9.01,0,21.06-4.78,25.35-18.25,2.74-8.6.75-13.92-1.4-16.87-2.48-3.4-6.37-5.32-10.99-5.43Z"/>
            <path class="cls-8" d="M123.95,41.85c.62,0,1.19.05,1.7.16.39.08.41.15.49.38.44,1.45-.59,4.6-1.97,6.02-.2.21-.43.42-.69.63-2.72,2.24-6.49,3.53-10.36,3.53-.78,0-1.56-.05-2.31-.17-1.58-.23-2.86-1.03-3.32-1.52,2.8-5.1,11.06-9.03,16.45-9.03ZM105.99,16.21c.34-.1.65-.17.93-.22.28-.05.61-.08.98-.08,2.52,0,4.66,1.12,5.18,1.9.08.12.12.18-.02.52-2.06,5.02-10.47,10.14-16.65,10.14-.29,0-.58-.01-.85-.04-.15-.66-.09-2.16.59-3.6,1.96-4.1,5.73-7.42,9.84-8.62ZM127.07,26.08c1.81-2.83,2.65-5.99,2.32-9.17-.66-6.24-5.72-11.19-13.89-13.58-2.5-.73-5.02-1.09-7.5-1.09-14.48,0-25.17,12.26-26.07,23.71-.79,10.07-1.25,10.37-5.76,13.29-1.19.77-2.54,1.65-4.15,2.83-.49.35-.87.81-1.12,1.34l-29.17,18.54-31.65,18.59c-.12.07-.23.15-.34.24-.85.71-1.53,1.32-2.15,1.95-.58.57-1.11,1.4-1.69,2.62-3.68,3.74-4.95,7.91-3.54,11.79.03.09.07.18.12.27.02.05.05.1.08.15.09.17.19.33.3.48.05.07.1.14.15.2h0s.02.03.03.04c0,0,.02.02.03.03h0s.07.07.1.11c.08.08.17.16.24.22.09.07.17.15.25.2.12.08.25.16.38.23.05.03.1.05.15.08.06.03.13.06.2.09.02,0,.03.01.05.02.12.05.25.09.38.12.07.02.14.04.2.05.24.05.48.08.72.08.26,0,.52-.03.78-.09.05,0,.09-.02.14-.03,14.54-3.7,60.51-28.34,75.38-36.38.35-.02.69-.09,1.01-.21,1.94-.71,3.54-1.39,4.7-1.88l.41-.17c2.07-.88,3.11-1.3,4.19-1.3,1.7,0,4.21,1.09,9.62,4.15,3.52,1.99,7.73,3.05,12.15,3.05,9.01,0,21.06-4.78,25.35-18.25,2.74-8.6.75-13.92-1.4-16.87-2.48-3.4-6.37-5.32-10.99-5.43Z"/>
            <path class="cls-20" d="M123.76,41.6c.62,0,1.19.05,1.7.16.39.08.41.15.49.38.44,1.45-.59,4.6-1.97,6.02-.21.21-.44.42-.69.63-2.72,2.24-6.49,3.53-10.36,3.53-.78,0-1.56-.05-2.31-.17-1.58-.23-2.86-1.03-3.32-1.52,2.8-5.1,11.06-9.03,16.45-9.03ZM105.79,15.96c.34-.1.65-.17.93-.22.28-.05.61-.08.98-.08,2.52,0,4.66,1.13,5.18,1.9.08.12.12.18-.02.52-2.06,5.02-10.47,10.13-16.65,10.13-.29,0-.58-.01-.85-.04-.15-.66-.09-2.16.59-3.6,1.96-4.1,5.73-7.42,9.84-8.62ZM126.87,25.84c1.81-2.83,2.65-5.99,2.31-9.17-.65-6.24-5.71-11.19-13.89-13.58-2.5-.73-5.02-1.1-7.5-1.1-14.48,0-25.17,12.26-26.07,23.71-.79,10.07-1.25,10.37-5.76,13.3-1.19.77-2.54,1.65-4.15,2.83-.49.35-.87.81-1.12,1.34l-29.17,18.54-31.65,18.59c-.12.07-.23.15-.34.24-.85.7-1.53,1.32-2.15,1.95-.58.57-1.11,1.39-1.69,2.62-3.68,3.74-4.94,7.91-3.54,11.79.03.09.07.18.12.27.02.05.05.1.08.15.09.17.19.33.3.48.05.07.1.14.15.2h0s.02.03.03.04c0,0,.02.02.03.03h0s.07.07.1.11c.08.08.17.16.24.22.09.08.17.15.25.2.12.08.25.16.38.23.05.03.1.05.15.08.06.03.13.06.2.09.02,0,.03.01.05.02.12.05.25.09.38.12.07.02.14.04.2.05.24.05.48.08.72.08.26,0,.52-.03.78-.09.05,0,.09-.02.14-.03,14.49-3.87,60.51-28.34,75.38-36.38.35-.02.69-.09,1.02-.21,1.94-.71,3.54-1.39,4.7-1.88l.41-.17c2.07-.88,3.11-1.3,4.19-1.3,1.7,0,4.21,1.09,9.62,4.15,3.52,1.99,7.73,3.05,12.16,3.05,9.01,0,21.06-4.78,25.35-18.25,2.74-8.6.75-13.92-1.4-16.87-2.48-3.4-6.37-5.32-10.99-5.43Z"/>
            <path class="cls-15" d="M123.56,41.36c.62,0,1.19.05,1.71.16.39.08.41.15.49.38.44,1.45-.59,4.6-1.97,6.02-.2.21-.43.42-.69.63-2.72,2.24-6.49,3.53-10.36,3.53-.78,0-1.56-.05-2.31-.17-1.58-.23-2.86-1.03-3.32-1.52,2.8-5.1,11.06-9.03,16.45-9.03ZM105.6,15.72c.34-.1.65-.17.93-.23.28-.05.61-.08.98-.08,2.52,0,4.66,1.13,5.18,1.9.08.12.12.18-.02.52-2.06,5.02-10.47,10.14-16.65,10.14-.29,0-.58-.01-.85-.04-.15-.66-.09-2.16.59-3.6,1.96-4.1,5.73-7.42,9.84-8.62ZM126.67,25.59c1.81-2.83,2.65-5.99,2.31-9.17-.65-6.24-5.71-11.19-13.89-13.58-2.5-.73-5.02-1.09-7.5-1.09-14.48,0-25.17,12.26-26.07,23.71-.79,10.07-1.25,10.37-5.76,13.29-1.19.77-2.54,1.65-4.15,2.83-.49.35-.87.81-1.12,1.34l-29.17,18.54-31.65,18.59c-.12.07-.23.15-.34.24-.84.71-1.53,1.32-2.15,1.95-.58.57-1.11,1.4-1.69,2.62-3.68,3.74-4.95,7.91-3.54,11.79.03.09.07.18.12.27.02.05.05.1.08.15.09.17.19.33.3.48.05.07.1.14.15.2h0s.02.03.03.04c0,0,.02.02.03.03h0s.07.07.1.11c.08.08.17.16.24.22.09.08.17.15.25.2.12.08.25.16.38.23.05.03.1.06.15.08.06.03.13.06.2.09.02,0,.03.01.05.02.12.05.25.08.38.12.07.02.14.04.2.05.24.05.48.08.72.08.26,0,.52-.04.78-.09.05,0,.09-.02.14-.03,14.53-3.73,60.51-28.34,75.38-36.38.35-.02.69-.09,1.02-.21,1.94-.7,3.54-1.39,4.7-1.88l.41-.17c2.07-.88,3.11-1.3,4.19-1.3,1.7,0,4.21,1.08,9.62,4.15,3.52,1.99,7.73,3.05,12.16,3.05,9.01,0,21.06-4.78,25.35-18.25,2.74-8.6.75-13.92-1.4-16.87-2.48-3.4-6.37-5.32-10.99-5.43Z"/>
            <path class="cls-21" d="M123.36,41.11c.62,0,1.2.05,1.71.16.39.08.41.15.49.38.44,1.45-.59,4.6-1.97,6.02-.2.21-.43.42-.69.63-2.72,2.24-6.49,3.53-10.36,3.53-.78,0-1.56-.05-2.31-.17-1.58-.23-2.86-1.03-3.32-1.52,2.8-5.1,11.06-9.03,16.45-9.03ZM105.4,15.47c.34-.1.65-.17.93-.23.28-.05.61-.08.98-.08,2.52,0,4.66,1.12,5.18,1.9.08.12.12.18-.02.52-2.06,5.02-10.47,10.14-16.65,10.14-.29,0-.58-.01-.85-.04-.15-.66-.09-2.16.59-3.6,1.96-4.1,5.73-7.41,9.84-8.62ZM126.48,25.34c1.81-2.83,2.65-5.99,2.31-9.17-.65-6.24-5.71-11.19-13.89-13.58-2.49-.73-5.02-1.09-7.5-1.09-14.48,0-25.17,12.26-26.07,23.71-.79,10.07-1.26,10.37-5.76,13.29-1.19.77-2.54,1.65-4.15,2.83-.49.35-.87.81-1.12,1.34l-29.17,18.54-31.65,18.59c-.12.07-.23.15-.34.24-.85.71-1.53,1.32-2.15,1.95-.58.57-1.11,1.39-1.7,2.62-3.68,3.74-4.95,7.91-3.54,11.79.03.09.07.18.11.27.02.05.05.1.08.15.09.17.19.33.3.48.05.07.1.14.15.2h0s.02.03.03.04c0,0,.02.02.03.03h0s.07.07.1.11c.08.08.16.16.24.22.09.07.17.15.25.2.12.09.25.16.38.23.05.03.1.06.15.08.06.03.13.06.2.09.02,0,.03.01.05.02.12.05.25.08.38.12.07.02.14.04.2.05.24.05.48.08.72.08.26,0,.52-.04.78-.09.05,0,.09-.02.14-.03,14.53-3.73,60.51-28.34,75.38-36.38.35-.02.69-.09,1.02-.21,1.94-.71,3.54-1.39,4.7-1.88l.4-.17c2.07-.88,3.11-1.3,4.19-1.3,1.7,0,4.21,1.08,9.62,4.15,3.52,1.99,7.73,3.05,12.16,3.05,9.01,0,21.06-4.78,25.35-18.25,2.74-8.6.75-13.92-1.4-16.87-2.48-3.4-6.37-5.32-10.99-5.43Z"/>
            <path class="cls-17" d="M123.16,40.86c.62,0,1.19.05,1.71.16.39.08.41.15.49.38.44,1.45-.59,4.6-1.97,6.02-.2.21-.43.42-.69.63-2.71,2.25-6.49,3.53-10.36,3.53-.78,0-1.56-.06-2.31-.17-1.58-.24-2.86-1.03-3.32-1.52,2.8-5.1,11.06-9.03,16.45-9.03ZM105.2,15.22c.34-.1.65-.17.93-.22.28-.05.61-.08.98-.08,2.52,0,4.66,1.12,5.18,1.9.08.12.12.18-.02.52-2.06,5.02-10.47,10.14-16.65,10.14-.29,0-.58-.01-.85-.04-.15-.66-.09-2.16.59-3.6,1.96-4.1,5.73-7.42,9.84-8.62ZM126.28,25.09c1.81-2.83,2.65-5.99,2.31-9.17-.66-6.24-5.72-11.19-13.89-13.58-2.5-.73-5.02-1.09-7.5-1.09-14.48,0-25.17,12.26-26.07,23.71-.79,10.07-1.25,10.37-5.76,13.29-1.19.77-2.54,1.65-4.15,2.83-.49.35-.87.81-1.12,1.34l-29.17,18.54-31.65,18.59c-.12.07-.23.15-.34.24-.84.71-1.53,1.32-2.15,1.95-.58.57-1.11,1.39-1.69,2.62-3.68,3.74-4.95,7.91-3.54,11.79.03.09.07.18.12.27.02.05.05.1.08.15.09.17.19.33.3.48.05.07.1.14.15.2h0s.02.03.03.04c0,0,.02.02.03.03h0s.07.07.1.11c.08.08.16.16.24.22.09.07.17.15.25.2.12.09.25.16.38.23.05.03.1.05.15.08.06.03.13.07.2.09.02,0,.03.01.05.02.12.05.25.08.38.12.07.02.14.04.2.05.24.05.48.07.72.07.26,0,.52-.03.78-.09.05,0,.09-.02.14-.03,14.54-3.7,60.51-28.34,75.38-36.38.35-.02.69-.09,1.02-.21,1.94-.71,3.54-1.39,4.7-1.88l.41-.17c2.07-.88,3.11-1.3,4.19-1.3,1.7,0,4.21,1.09,9.62,4.15,3.52,1.99,7.73,3.05,12.15,3.05,9.02,0,21.06-4.78,25.35-18.25,2.74-8.6.75-13.92-1.4-16.87-2.48-3.4-6.37-5.32-10.99-5.43Z"/>
            <path class="cls-3" d="M122.96,40.61c.62,0,1.2.05,1.71.16.39.08.41.15.49.38.44,1.45-.59,4.6-1.97,6.02-.2.21-.43.42-.69.63-2.71,2.25-6.49,3.53-10.36,3.53-.78,0-1.56-.06-2.31-.17-1.58-.24-2.86-1.03-3.32-1.52,2.8-5.1,11.06-9.03,16.45-9.03ZM105,14.97c.34-.1.65-.17.93-.23.28-.05.61-.08.98-.08,2.52,0,4.66,1.12,5.18,1.9.08.12.12.18-.02.52-2.06,5.02-10.47,10.13-16.65,10.13-.29,0-.58-.01-.85-.04-.15-.66-.09-2.17.59-3.6,1.96-4.1,5.73-7.41,9.84-8.62ZM126.08,24.84c1.81-2.83,2.65-5.99,2.31-9.17-.65-6.24-5.71-11.19-13.89-13.58-2.5-.73-5.02-1.1-7.5-1.1-14.48,0-25.17,12.26-26.07,23.71-.79,10.07-1.25,10.37-5.76,13.29-1.19.77-2.54,1.65-4.15,2.83-.49.35-.87.81-1.12,1.34l-29.17,18.54-31.65,18.59c-.12.07-.23.15-.34.24-.85.71-1.53,1.32-2.15,1.95-.58.57-1.11,1.39-1.69,2.62-3.68,3.74-4.95,7.91-3.54,11.79.03.09.07.18.12.27.02.05.05.1.08.15.09.17.19.33.3.48.05.07.1.14.15.2h0s.02.03.03.04c0,0,.02.02.03.03h0s.07.07.1.11c.08.08.16.16.24.23.09.07.17.15.25.2.12.08.25.16.38.23.05.03.1.06.15.08.06.03.13.06.2.09.02,0,.03.01.05.02.12.05.25.08.38.12.07.02.14.04.2.05.24.05.48.07.72.07.26,0,.52-.03.78-.09.05,0,.09-.02.14-.03,14.53-3.73,60.51-28.34,75.38-36.38.35-.02.69-.09,1.02-.21,1.94-.71,3.54-1.39,4.7-1.88l.41-.17c2.07-.88,3.11-1.3,4.19-1.3,1.7,0,4.21,1.08,9.62,4.15,3.52,1.99,7.73,3.05,12.16,3.05,9.01,0,21.06-4.78,25.35-18.25,2.74-8.6.75-13.92-1.4-16.87-2.48-3.4-6.37-5.32-10.99-5.43Z"/>
            <path class="cls-2" d="M122.77,40.36c.62,0,1.2.05,1.71.16.39.08.41.15.49.38.44,1.45-.59,4.6-1.97,6.02-.2.21-.43.42-.69.63-2.72,2.24-6.49,3.53-10.36,3.53-.78,0-1.56-.05-2.31-.17-1.58-.23-2.86-1.03-3.32-1.52,2.8-5.1,11.06-9.03,16.45-9.03ZM104.8,14.72c.34-.1.65-.17.93-.23.28-.05.61-.08.98-.08,2.52,0,4.66,1.12,5.18,1.9.08.12.12.18-.02.52-2.06,5.02-10.47,10.13-16.65,10.13-.29,0-.58-.01-.86-.04-.15-.66-.09-2.16.59-3.6,1.96-4.1,5.73-7.41,9.84-8.62ZM125.88,24.59c1.81-2.83,2.65-5.99,2.31-9.17-.65-6.24-5.71-11.19-13.89-13.58-2.49-.73-5.02-1.1-7.5-1.1-14.48,0-25.17,12.26-26.07,23.71-.79,10.07-1.26,10.37-5.76,13.29-1.19.77-2.54,1.65-4.15,2.83-.49.35-.87.81-1.12,1.34l-29.17,18.54-31.65,18.59c-.12.07-.23.15-.34.24-.85.71-1.53,1.32-2.15,1.95-.58.57-1.11,1.39-1.7,2.62-3.68,3.74-4.97,7.92-3.54,11.79.03.09.07.18.12.27.02.05.05.1.08.15.09.17.19.33.3.48.05.07.1.14.15.2h0s.02.03.03.04c0,0,.02.02.03.03h0s.07.07.1.11c.08.08.16.16.24.22.09.07.17.15.25.2.12.08.25.16.38.23.05.03.1.05.15.08.06.03.13.06.2.09.02,0,.03.01.05.02.12.05.25.08.38.12.07.02.14.04.2.05.24.05.48.07.72.07.26,0,.52-.04.77-.09.05,0,.1-.02.14-.03,14.53-3.73,60.51-28.34,75.38-36.38.35-.02.69-.09,1.02-.21,1.94-.71,3.54-1.39,4.7-1.88l.4-.17c2.07-.88,3.11-1.3,4.19-1.3,1.7,0,4.21,1.09,9.62,4.15,3.52,1.99,7.73,3.05,12.16,3.05,9.01,0,21.06-4.78,25.35-18.25,2.74-8.6.75-13.92-1.4-16.87-2.48-3.4-6.37-5.32-10.99-5.43Z"/>
            <path class="cls-4" d="M122.57,40.11c.62,0,1.2.05,1.71.16.39.08.41.15.49.38.45,1.45-.59,4.6-1.97,6.02-.2.21-.43.42-.69.63-2.71,2.25-6.49,3.53-10.36,3.53-.78,0-1.56-.06-2.31-.17-1.58-.24-2.86-1.03-3.32-1.52,2.8-5.1,11.06-9.03,16.45-9.03ZM104.61,14.47c.34-.1.65-.17.93-.23.28-.05.61-.08.98-.08,2.52,0,4.66,1.12,5.18,1.9.08.12.12.18-.02.52-2.06,5.02-10.47,10.14-16.65,10.14-.29,0-.58-.01-.86-.04-.15-.66-.09-2.17.59-3.6,1.96-4.1,5.73-7.41,9.84-8.62ZM125.68,24.34c1.81-2.83,2.65-5.99,2.31-9.17-.66-6.24-5.72-11.19-13.89-13.58-2.49-.73-5.02-1.1-7.5-1.1-14.48,0-25.17,12.26-26.07,23.71-.79,10.07-1.26,10.37-5.76,13.29-1.19.78-2.54,1.65-4.15,2.83-.49.35-.87.82-1.12,1.34l-29.17,18.54-31.65,18.59c-.12.07-.23.15-.34.24-.85.71-1.53,1.32-2.15,1.95-.58.57-1.11,1.39-1.69,2.62-3.68,3.74-4.97,7.92-3.54,11.79.03.09.07.18.12.27.03.05.05.1.08.15.09.17.19.33.3.48.05.07.1.14.15.2h0s.02.03.03.04c0,0,.02.02.03.03h0s.07.07.1.11c.08.08.16.16.24.22.09.08.17.15.25.2.12.08.25.16.38.23.05.03.1.06.15.08.06.03.13.06.2.09.02,0,.03.01.05.02.12.05.25.08.38.12.07.02.14.04.2.05.24.05.48.07.72.07.26,0,.52-.03.78-.09.05,0,.09-.02.14-.03,14.53-3.73,60.51-28.34,75.38-36.38.35-.02.69-.09,1.02-.21,1.94-.71,3.54-1.39,4.7-1.88l.41-.17c2.07-.88,3.11-1.3,4.19-1.3,1.7,0,4.21,1.09,9.62,4.15,3.52,1.99,7.73,3.05,12.16,3.05,9.01,0,21.06-4.78,25.35-18.25,2.74-8.6.75-13.92-1.4-16.86-2.48-3.4-6.37-5.32-10.99-5.43Z"/>
            <path class="cls-6" d="M122.37,39.86c.62,0,1.2.05,1.71.16.39.08.41.15.48.38.44,1.45-.59,4.6-1.97,6.02-.2.21-.43.42-.69.63-2.71,2.25-6.49,3.53-10.36,3.53-.78,0-1.56-.06-2.3-.17-1.58-.24-2.86-1.03-3.32-1.52,2.8-5.1,11.06-9.03,16.45-9.03ZM104.41,14.22c.34-.1.65-.17.93-.23.28-.05.61-.08.98-.08,2.52,0,4.66,1.12,5.18,1.9.08.12.12.18-.02.52-2.06,5.02-10.47,10.14-16.65,10.14-.29,0-.58-.01-.85-.04-.15-.66-.09-2.17.59-3.6,1.96-4.1,5.73-7.42,9.84-8.62ZM125.49,24.1c1.81-2.83,2.65-5.99,2.32-9.17-.65-6.24-5.72-11.19-13.89-13.58-2.49-.73-5.02-1.1-7.5-1.1-14.48,0-25.17,12.26-26.07,23.71-.79,10.07-1.26,10.37-5.76,13.29-1.19.78-2.54,1.65-4.15,2.83-.48.35-.87.81-1.12,1.34l-29.17,18.54-31.65,18.59c-.12.07-.23.15-.34.24-.84.71-1.53,1.32-2.15,1.95-.58.58-1.11,1.39-1.7,2.62-3.68,3.74-4.97,7.92-3.54,11.79.03.09.07.18.11.27.03.05.05.1.08.15.09.17.19.33.3.48.05.07.1.14.15.2h0s.02.03.03.04c0,0,.02.02.03.03h0s.07.07.1.11c.08.08.17.16.24.23.09.08.17.14.25.2.12.08.25.16.38.23.05.03.1.06.15.08.06.03.13.06.2.09.01,0,.03.01.05.02.12.05.25.08.38.12.07.02.14.04.2.05.24.05.48.07.72.07.26,0,.52-.03.77-.09.05,0,.1-.02.14-.03,14.49-3.91,60.51-28.34,75.38-36.38.35-.02.69-.09,1.02-.21,1.94-.71,3.54-1.39,4.7-1.88l.4-.17c2.07-.88,3.11-1.3,4.19-1.3,1.7,0,4.21,1.08,9.62,4.15,3.52,1.99,7.73,3.05,12.16,3.05,9.01,0,21.06-4.78,25.35-18.25,2.74-8.6.75-13.92-1.4-16.86-2.48-3.4-6.37-5.32-10.99-5.43Z"/>
            <path class="cls-7" d="M122.17,39.61c.62,0,1.2.05,1.71.16.39.08.41.15.49.38.44,1.45-.59,4.6-1.97,6.02-.2.21-.43.42-.69.63-2.72,2.24-6.49,3.53-10.36,3.53-.78,0-1.56-.06-2.31-.17-1.58-.24-2.86-1.03-3.32-1.52,2.8-5.1,11.06-9.03,16.45-9.03ZM104.21,13.98c.34-.1.65-.17.93-.23.28-.05.61-.08.98-.08,2.52,0,4.66,1.12,5.18,1.9.08.12.12.18-.02.52-2.06,5.02-10.47,10.14-16.65,10.14-.29,0-.58-.01-.86-.04-.15-.66-.09-2.16.59-3.6,1.96-4.1,5.74-7.4,9.84-8.62ZM125.29,23.85c1.81-2.83,2.65-5.99,2.31-9.17-.65-6.24-5.71-11.19-13.89-13.58-2.49-.73-5.02-1.1-7.5-1.1-14.48,0-25.17,12.26-26.07,23.71-.79,10.07-1.26,10.37-5.76,13.29-1.19.78-2.54,1.65-4.15,2.83-.49.35-.87.82-1.12,1.34l-29.17,18.54-31.65,18.59c-.12.07-.23.15-.34.24-.85.71-1.53,1.32-2.15,1.95-.58.57-1.11,1.39-1.7,2.62-3.68,3.74-4.94,7.91-3.54,11.79.04.09.07.18.12.27.02.05.05.1.08.15.09.17.19.33.3.48.05.07.1.14.15.2h0s.02.03.03.04c0,0,.02.02.03.03h0s.07.07.1.11c.08.08.16.16.24.23.09.08.17.15.25.2.12.08.25.16.38.23.05.03.1.06.15.08.06.03.13.06.2.09.02,0,.03.01.05.02.12.05.25.08.38.12.07.02.14.04.2.05.24.05.48.07.72.07.26,0,.52-.03.77-.09.05,0,.1-.02.14-.03,14.51-3.82,60.51-28.34,75.38-36.38.35-.02.69-.09,1.02-.21,1.94-.71,3.54-1.39,4.7-1.88l.4-.17c2.07-.88,3.11-1.3,4.19-1.3,1.7,0,4.21,1.08,9.62,4.15,3.52,1.99,7.73,3.05,12.16,3.05,9.01,0,21.06-4.78,25.35-18.25,2.74-8.6.75-13.92-1.4-16.86-2.48-3.4-6.37-5.32-10.99-5.43Z"/>
          </g>
          <path class="cls-5" d="M125.29,23.85c1.81-2.83,2.65-5.99,2.31-9.17-.65-6.24-5.71-11.19-13.89-13.58-2.49-.73-5.02-1.1-7.5-1.1-14.48,0-25.17,12.26-26.07,23.71-.79,10.07-1.26,10.37-5.76,13.29-1.19.78-2.54,1.65-4.15,2.83-.49.35-.87.82-1.12,1.34l-29.17,18.54-31.65,18.59c-.12.07-.23.15-.34.24-.85.71-1.53,1.32-2.15,1.95-.58.57-1.11,1.39-1.7,2.62-3.68,3.74-4.94,7.91-3.54,11.79.04.09.07.18.12.27.02.05.05.1.08.15.09.17.19.33.3.48.05.07.1.14.15.2h0s.02.03.03.04c0,0,.02.02.03.03h0s.07.07.1.11c.08.08.16.16.24.23.09.08.17.15.25.2.12.08.25.16.38.23.05.03.1.06.15.08.06.03.13.06.2.09.02,0,.03.01.05.02.12.05.25.08.38.12.07.02.14.04.2.05.24.05.48.07.72.07.26,0,.52-.03.77-.09.05,0,.1-.02.14-.03,14.51-3.82,60.51-28.34,75.38-36.38.35-.02.69-.09,1.02-.21,1.94-.71,3.54-1.39,4.7-1.88l.4-.17c2.07-.88,3.11-1.3,4.19-1.3,1.7,0,4.21,1.08,9.62,4.15,3.52,1.99,7.73,3.05,12.16,3.05,9.01,0,21.06-4.78,25.35-18.25,2.74-8.6.75-13.92-1.4-16.86-2.48-3.4-6.37-5.32-10.99-5.43ZM122.17,39.61c.62,0,1.2.05,1.71.16.39.08.41.15.49.38.44,1.45-.59,4.6-1.97,6.02-.2.21-.43.42-.69.63-2.72,2.24-6.49,3.53-10.36,3.53-.78,0-1.56-.06-2.31-.17-1.58-.24-2.86-1.03-3.32-1.52,2.8-5.1,11.06-9.03,16.45-9.03ZM104.21,13.98c.34-.1.65-.17.93-.23.28-.05.61-.08.98-.08,2.52,0,4.66,1.12,5.18,1.9.08.12.12.18-.02.52-2.06,5.02-10.47,10.14-16.65,10.14-.29,0-.58-.01-.86-.04-.15-.66-.09-2.16.59-3.6,1.96-4.1,5.74-7.4,9.84-8.62Z"/>
          <g>
            <g>
              <g>
                <g>
                  <path class="cls-14" d="M8.33,83.03c-1.39,1.38-3.73,9.1-4.39,10.64,16.56-4.36,78.26-38.06,78.26-38.06l-2.83-5.32c-7.48,3.4-16.09-.13-16.09-.13l-53.04,31.14c-.66.55-1.31,1.12-1.92,1.73Z"/>
                  <path class="cls-1" d="M3.94,94.72c-.3,0-.6-.13-.8-.36-.27-.31-.33-.74-.17-1.11.18-.41.47-1.26.84-2.31,1.42-4.09,2.69-7.57,3.78-8.66.63-.63,1.3-1.22,1.99-1.79l53.18-31.24c.28-.17.63-.2.93-.07.04.02,3.8,1.53,8.37,1.53,2.55,0,4.86-.46,6.88-1.38.51-.24,1.11-.03,1.37.46l2.83,5.32c.27.51.08,1.15-.43,1.43-2.52,1.38-62.01,33.81-78.5,38.16-.09.03-.18.03-.27.03ZM63.39,51.33l-52.6,30.88c-.49.43-1.12.98-1.71,1.57-.84.84-2.48,5.57-3.27,7.86-.05.14-.1.28-.15.42,17.4-5.69,67.69-32.84,75.12-36.88l-1.88-3.54c-2.06.79-4.36,1.19-6.84,1.19-4.04,0-7.43-1.05-8.67-1.5Z"/>
                </g>
                <g>
                  <path class="cls-14" d="M74.85,41.78L9.1,83.57s-7.1,4.7-5.15,10.09l64.85-33.16s1.89-9.11,8.89-13.41l-2.83-5.32Z"/>
                  <path class="cls-1" d="M3.94,94.72c-.13,0-.27-.02-.39-.07-.28-.11-.5-.34-.61-.62-2.2-6.1,5.25-11.13,5.56-11.33l65.77-41.81c.25-.16.55-.2.84-.13.28.08.53.27.66.53l2.83,5.32c.26.49.1,1.11-.38,1.4-6.51,4-8.39,12.64-8.4,12.73-.06.31-.27.58-.56.73L4.42,94.61c-.15.08-.32.12-.48.12ZM74.45,43.28L9.66,84.47s-5.29,3.57-4.99,7.63l63.2-32.32c.5-1.95,2.63-8.98,8.42-13.05l-1.84-3.46Z"/>
                </g>
                <g>
                  <path class="cls-19" d="M65.34,57.6c-1.03.55-2.3.16-2.84-.87-.55-1.02-.16-2.3.87-2.84,1.02-.55,2.3-.16,2.84.87.54,1.03.16,2.3-.87,2.84Z"/>
                  <path class="cls-18" d="M64.35,58.91c-1.17,0-2.24-.64-2.79-1.68-.4-.74-.48-1.6-.23-2.4.25-.81.79-1.47,1.54-1.87,1.49-.8,3.48-.18,4.27,1.31.4.74.48,1.6.23,2.4-.25.81-.79,1.47-1.54,1.87-.45.25-.96.37-1.48.37ZM64.35,54.71c-.17,0-.34.04-.49.12-.24.13-.42.35-.51.62s-.06.55.08.79c.26.5.91.7,1.41.43.25-.13.43-.35.51-.61.08-.27.05-.55-.08-.8-.18-.34-.53-.55-.92-.55Z"/>
                </g>
              </g>
              <g>
                <path class="cls-10" d="M86.54,43.23s16.86-8.89,29.19-15.53c10.87-5.85,12.37-18.65-3.03-23.15-15.4-4.5-28.06,7.79-28.97,19.44-1.13,14.46-2.77,12.49-11.39,18.75l3.37,6.34,10.83-5.84ZM93.07,29.74c-3.61-.44-3.46-5.5-1.94-8.69,2.34-4.91,6.98-9.01,12.09-10.52.43-.13.86-.23,1.28-.31,4.49-.82,12.25,2.07,10.12,7.25-2.7,6.57-13.71,13.23-21.55,12.27Z"/>
                <path class="cls-1" d="M75.71,50.13c-.1,0-.21-.02-.31-.05-.27-.08-.5-.27-.63-.52l-3.37-6.34c-.25-.47-.11-1.04.31-1.35,1.58-1.15,2.92-2.02,4.08-2.77,4.96-3.22,6-3.89,6.88-15.21.81-10.32,10.46-21.36,23.54-21.36,2.25,0,4.54.34,6.79.99,7.13,2.09,11.53,6.25,12.08,11.41.55,5.21-2.84,10.46-8.85,13.69-12.2,6.57-29.03,15.44-29.2,15.53l-10.82,5.83c-.16.08-.33.13-.5.13ZM73.71,43.05l2.44,4.58,9.89-5.34c.17-.09,17-8.97,29.19-15.53,5.15-2.78,8.19-7.33,7.74-11.61-.46-4.33-4.21-7.74-10.57-9.6-2.07-.6-4.15-.91-6.2-.91-11.91,0-20.69,10.04-21.43,19.41-.93,11.9-2.28,13.21-7.84,16.82-.94.61-2.01,1.3-3.24,2.17ZM94.63,30.89c-.58,0-1.14-.03-1.7-.1-1.4-.17-2.49-.9-3.16-2.12-1.27-2.32-.69-5.81.39-8.08,2.51-5.25,7.39-9.49,12.74-11.08.47-.13.94-.25,1.4-.33.56-.1,1.17-.15,1.81-.15,3.08,0,7.23,1.24,9.05,3.96.99,1.47,1.13,3.16.42,4.88-2.75,6.69-12.93,13.02-20.96,13.02ZM106.12,11.13c-.52,0-1,.04-1.44.12-.39.07-.78.17-1.18.28-4.79,1.42-9.17,5.24-11.43,9.97-1.01,2.12-1.2,4.77-.45,6.15.34.62.84.95,1.56,1.04,7.31.87,17.85-5.31,20.44-11.63.44-1.07.37-2.02-.22-2.9-1.16-1.73-4.29-3.02-7.29-3.02Z"/>
              </g>
              <g>
                <path class="cls-10" d="M76.65,50.84l3.37,6.34c10-3.64,9.29-6.1,21.91,1.04,10.16,5.75,27.44,2.12,32.31-13.16,4.87-15.28-6.58-21.2-17.51-15.45-12.4,6.51-29.19,15.53-29.19,15.53l-10.89,5.71ZM124.61,36.25c5.48,1.13,3.54,9.18.35,12.44-.3.31-.62.61-.97.89-4.11,3.39-10.1,4.94-15.48,4.14-3.49-.52-7.78-3.23-6.12-6.47,3.59-7.04,15.27-12.44,22.22-11.01Z"/>
                <path class="cls-1" d="M112.32,61.85c-3.99,0-7.76-.94-10.91-2.72-10.14-5.74-11.01-5.11-16.46-2.8-1.26.54-2.74,1.17-4.57,1.83-.49.18-1.05-.03-1.29-.5l-3.37-6.34c-.13-.25-.16-.54-.08-.81.08-.27.27-.49.52-.62l10.89-5.71c.16-.08,16.93-9.09,29.2-15.53,2.84-1.49,5.81-2.28,8.6-2.28,3.97,0,7.31,1.56,9.37,4.39,1.8,2.47,3.45,7.01,1.03,14.59-3.88,12.16-14.78,16.48-22.93,16.48ZM90.51,52.58c2.7,0,5.71,1.19,11.94,4.72,2.83,1.6,6.24,2.45,9.86,2.45,7.44,0,17.38-3.93,20.92-15.01,1.68-5.26,1.42-9.78-.72-12.71-1.66-2.27-4.38-3.52-7.67-3.52-2.45,0-5.08.7-7.62,2.03-12.25,6.44-29.02,15.44-29.19,15.53l-9.96,5.22,2.44,4.58c1.4-.53,2.58-1.03,3.61-1.47,2.48-1.05,4.27-1.82,6.38-1.82ZM111.35,54.99c-1.01,0-2.02-.07-2.99-.22-2.48-.37-5.71-1.84-6.92-4.19-.64-1.23-.64-2.55,0-3.8,3.55-6.97,13.78-11.82,20.73-11.82.94,0,1.83.09,2.65.25,2.02.42,3.4,1.66,3.99,3.58,1.04,3.4-.76,8.24-3.1,10.64-.33.34-.68.66-1.05.97-3.54,2.92-8.39,4.59-13.32,4.59ZM122.17,37.07c-6.33,0-15.73,4.56-18.85,10.66-.33.65-.34,1.25,0,1.88.72,1.4,3.02,2.72,5.35,3.07.87.13,1.77.19,2.68.19,4.44,0,8.81-1.5,11.97-4.11.31-.26.61-.53.89-.82,1.87-1.91,3.37-5.97,2.58-8.54-.36-1.17-1.15-1.87-2.4-2.13-.68-.14-1.42-.21-2.22-.21Z"/>
              </g>
            </g>
            <g class="cls-11">
              <path class="cls-14" d="M6.67,90.13s-.65-1.45,6.36-6.34c7.01-4.89,46.79-29.47,46.79-29.47v2.38L6.67,90.13Z"/>
            </g>
            <path class="cls-9" d="M101.12,5.88s-11.34,3.54-14.34,13.95c-2.99,10.39-.57,15.57-3.65,17.86-3.09,2.29-7.93,5.62-7.93,5.62l.44.82,8.29-5.02s3.26-1.76,3.08-4.41c-.09-1.31-.9-7.14.84-13.02,1.77-5.98,6.15-12.05,13.28-15.79Z"/>
            <path class="cls-9" d="M126.59,54.4s-9.49,7.16-19.68,3.54c-10.2-3.62-13-8.61-16.65-7.43-3.66,1.17-9.19,3.18-9.19,3.18l-.41-.83,8.91-3.81s3.33-1.62,5.38.06c1.01.83,5.27,4.89,11.07,6.9,5.9,2.05,13.38,2.01,20.57-1.6Z"/>
          </g>
        </g>
      </g>
    </g>
  </g>
</svg>