<?xml version="1.0" encoding="UTF-8"?>
<svg xmlns="http://www.w3.org/2000/svg" width="133.23" height="100" viewBox="0 0 133.23 100">
  <defs>
    <style>
      .cls-1 {
        fill: #5e2c00;
      }

      .cls-2 {
        fill: #8b8b8b;
      }

      .cls-3, .cls-4 {
        fill: #595a59;
      }

      .cls-5 {
        fill: #9a9a9a;
      }

      .cls-6 {
        fill: #7d7d7d;
      }

      .cls-7 {
        fill: #fff;
      }

      .cls-8 {
        fill: #6e6e6e;
      }

      .cls-9 {
        fill: #606060;
      }

      .cls-10, .cls-11 {
        fill: #555454;
      }

      .cls-12 {
        fill: #3e3f3e;
      }

      .cls-13 {
        fill: #e2e2e2;
      }

      .cls-14 {
        fill: #7c7c7b;
      }

      .cls-4, .cls-15 {
        mix-blend-mode: multiply;
      }

      .cls-16 {
        isolation: isolate;
      }

      .cls-17 {
        fill: #f1f1f1;
      }

      .cls-18 {
        fill: #c5c5c5;
      }

      .cls-19 {
        fill: #a8a8a8;
      }

      .cls-20 {
        fill: #d4d4d4;
      }

      .cls-21 {
        fill: #b7b7b7;
      }

      .cls-22 {
        fill: #2c2d2b;
      }

      .cls-11 {
        mix-blend-mode: screen;
        opacity: .4;
      }
    </style>
  </defs>
  <g class="cls-16">
    <g id="Layer_2" data-name="Layer 2">
      <g id="Layer_1-2" data-name="Layer 1">
        <g>
          <g class="cls-15">
            <path class="cls-7" d="M129.67,3.26H6.15c-1.96,0-3.56,1.59-3.56,3.55v72.4c0,1.96,1.6,3.56,3.56,3.56h21.01l-8.28,8.32c-.28.29-.51.62-.7,1.01-.05.11-.1.25-.14.37-.07.2-.12.41-.15.63-.03.16-.04.33-.04.49v2.86c0,1.96,1.59,3.55,3.56,3.55h93c1.96,0,3.55-1.6,3.55-3.55v-2.86c0-.14,0-.29-.03-.43-.03-.24-.08-.48-.16-.71-.04-.12-.09-.25-.14-.36-.18-.38-.42-.72-.7-1l-8.27-8.31h21.01c1.96,0,3.55-1.59,3.55-3.56V6.81c0-1.96-1.59-3.55-3.55-3.55Z"/>
            <path class="cls-17" d="M129.44,2.96H5.92c-1.96,0-3.56,1.59-3.56,3.55v72.4c0,1.96,1.59,3.56,3.56,3.56h21.01l-8.28,8.32c-.28.29-.52.62-.7,1.01-.05.11-.1.25-.14.37-.07.2-.11.41-.15.63-.02.16-.04.33-.04.49v2.86c0,1.96,1.59,3.55,3.56,3.55h93c1.96,0,3.55-1.6,3.55-3.55v-2.86c0-.14-.01-.29-.03-.43-.03-.24-.08-.48-.16-.71-.04-.12-.09-.25-.14-.36-.17-.38-.42-.72-.7-1l-8.27-8.31h21.01c1.96,0,3.55-1.6,3.55-3.56V6.52c0-1.96-1.59-3.55-3.55-3.55Z"/>
            <path class="cls-13" d="M129.2,2.67H5.68c-1.96,0-3.56,1.59-3.56,3.55v72.4c0,1.96,1.6,3.56,3.56,3.56h21.01l-8.28,8.32c-.28.29-.52.62-.7,1.01-.05.11-.1.25-.14.37-.07.2-.12.41-.15.63-.02.16-.04.33-.04.49v2.86c0,1.96,1.59,3.55,3.55,3.55h93c1.96,0,3.55-1.6,3.55-3.55v-2.86c0-.14-.01-.29-.03-.43-.03-.24-.09-.48-.16-.71-.04-.12-.09-.25-.14-.36-.18-.38-.41-.72-.7-1l-8.27-8.31h21.01c1.96,0,3.55-1.59,3.55-3.56V6.22c0-1.96-1.59-3.55-3.55-3.55Z"/>
            <path class="cls-20" d="M128.97,2.37H5.44c-1.96,0-3.56,1.59-3.56,3.55v72.4c0,1.96,1.6,3.56,3.56,3.56h21.01l-8.28,8.32c-.28.29-.52.62-.7,1.01-.05.11-.1.25-.14.37-.07.2-.11.41-.15.63-.02.16-.04.33-.04.49v2.86c0,1.96,1.59,3.55,3.56,3.55h93c1.96,0,3.55-1.6,3.55-3.55v-2.86c0-.14-.01-.29-.03-.43-.03-.24-.09-.48-.16-.71-.04-.12-.09-.25-.14-.36-.18-.38-.42-.72-.7-1l-8.27-8.31h21.01c1.96,0,3.55-1.59,3.55-3.56V5.92c0-1.96-1.59-3.55-3.55-3.55Z"/>
            <path class="cls-18" d="M128.73,2.07H5.21c-1.96,0-3.56,1.59-3.56,3.55v72.4c0,1.96,1.6,3.56,3.56,3.56h21.01l-8.28,8.32c-.28.29-.52.62-.7,1.01-.05.11-.1.25-.14.37-.07.2-.12.41-.15.63-.02.16-.04.33-.04.49v2.86c0,1.96,1.59,3.55,3.55,3.55h93c1.96,0,3.55-1.6,3.55-3.55v-2.86c0-.14-.01-.29-.03-.43-.03-.24-.09-.48-.16-.71-.04-.12-.09-.25-.14-.36-.18-.38-.42-.72-.7-1l-8.27-8.31h21.01c1.96,0,3.55-1.59,3.55-3.56V5.63c0-1.96-1.59-3.55-3.55-3.55Z"/>
            <path class="cls-21" d="M128.5,1.78H4.97c-1.96,0-3.56,1.59-3.56,3.55v72.4c0,1.96,1.6,3.56,3.56,3.56h21.01l-8.28,8.32c-.28.29-.51.62-.7,1.01-.05.11-.1.25-.14.37-.07.2-.12.41-.15.63-.02.16-.04.33-.04.49v2.86c0,1.96,1.59,3.55,3.55,3.55h93c1.96,0,3.55-1.6,3.55-3.55v-2.86c0-.14-.01-.29-.03-.43-.03-.24-.08-.48-.16-.71-.04-.12-.09-.25-.14-.36-.18-.38-.42-.72-.7-1l-8.27-8.31h21.01c1.96,0,3.55-1.59,3.55-3.56V5.33c0-1.96-1.59-3.55-3.55-3.55Z"/>
            <path class="cls-19" d="M128.26,1.48H4.74c-1.96,0-3.56,1.59-3.56,3.55v72.4c0,1.96,1.6,3.56,3.56,3.56h21.01l-8.28,8.32c-.28.29-.52.62-.7,1.01-.05.11-.1.25-.14.37-.07.2-.12.41-.15.63-.02.16-.04.33-.04.49v2.86c0,1.96,1.59,3.55,3.55,3.55h93c1.96,0,3.55-1.59,3.55-3.55v-2.86c0-.14-.01-.29-.03-.43-.03-.24-.08-.48-.16-.71-.04-.12-.09-.25-.14-.36-.18-.38-.41-.72-.7-1.01l-8.27-8.31h21.01c1.96,0,3.55-1.59,3.55-3.56V5.04c0-1.96-1.59-3.55-3.55-3.55Z"/>
            <path class="cls-5" d="M128.02,1.19H4.5c-1.96,0-3.56,1.59-3.56,3.55v72.4c0,1.96,1.6,3.55,3.56,3.55h21.01l-8.28,8.32c-.28.29-.52.62-.7,1.01-.05.11-.1.25-.14.37-.07.2-.11.41-.15.63-.02.16-.04.33-.04.49v2.86c0,1.96,1.59,3.55,3.56,3.55h93c1.96,0,3.55-1.6,3.55-3.55v-2.86c0-.14-.01-.29-.03-.43-.03-.24-.09-.48-.16-.71-.04-.12-.09-.25-.14-.36-.18-.38-.41-.72-.7-1l-8.27-8.31h21.01c1.96,0,3.55-1.59,3.55-3.55V4.74c0-1.96-1.59-3.55-3.55-3.55Z"/>
            <path class="cls-2" d="M127.79.89H4.26C2.3.89.71,2.48.71,4.44v72.4c0,1.96,1.6,3.56,3.56,3.56h21.01l-8.28,8.32c-.28.29-.52.62-.7,1.01-.05.11-.1.25-.14.37-.07.2-.12.41-.15.63-.02.16-.04.33-.04.49v2.86c0,1.96,1.6,3.55,3.56,3.55h93c1.96,0,3.55-1.6,3.55-3.55v-2.86c0-.14-.01-.29-.03-.43-.03-.24-.08-.48-.16-.71-.04-.12-.09-.25-.14-.36-.18-.38-.41-.72-.7-1l-8.27-8.31h21.01c1.96,0,3.55-1.6,3.55-3.56V4.44c0-1.96-1.59-3.55-3.55-3.55Z"/>
            <path class="cls-6" d="M127.55.59H4.03C2.07.59.47,2.19.47,4.15v72.4c0,1.96,1.6,3.56,3.56,3.56h21.01l-8.28,8.32c-.28.29-.51.62-.7,1.01-.05.11-.1.25-.14.37-.07.2-.12.41-.15.63-.02.16-.04.33-.04.49v2.86c0,1.96,1.59,3.56,3.55,3.56h93c1.96,0,3.55-1.6,3.55-3.56v-2.86c0-.14-.01-.29-.03-.43-.03-.24-.08-.48-.16-.71-.04-.12-.09-.25-.14-.36-.18-.38-.41-.72-.7-1.01l-8.27-8.31h21.01c1.96,0,3.55-1.59,3.55-3.56V4.15c0-1.96-1.59-3.55-3.55-3.55Z"/>
            <path class="cls-8" d="M127.32.3H3.79C1.83.3.24,1.89.24,3.85v72.4c0,1.96,1.6,3.56,3.56,3.56h21.01l-8.28,8.32c-.28.29-.51.62-.7,1.01-.05.11-.1.25-.14.37-.07.2-.11.41-.15.63-.02.16-.04.33-.04.49v2.86c0,1.96,1.59,3.56,3.55,3.56h93c1.96,0,3.56-1.6,3.56-3.56v-2.86c0-.14-.01-.29-.03-.43-.03-.24-.08-.48-.16-.71-.04-.12-.09-.25-.14-.36-.18-.38-.41-.72-.7-1.01l-8.27-8.31h21.01c1.96,0,3.55-1.6,3.55-3.56V3.85c0-1.96-1.6-3.56-3.55-3.56Z"/>
            <path class="cls-9" d="M127.08,0H3.56C1.6,0,0,1.59,0,3.55v72.4c0,1.96,1.6,3.56,3.56,3.56h21.01l-8.28,8.32c-.28.29-.51.62-.7,1.01-.05.11-.1.25-.14.37-.07.2-.12.41-.15.63-.02.16-.04.33-.04.49v2.86c0,1.96,1.59,3.56,3.55,3.56h93c1.96,0,3.55-1.6,3.55-3.56v-2.86c0-.14-.01-.29-.03-.43-.03-.24-.09-.48-.16-.71-.04-.12-.09-.25-.14-.36-.18-.38-.41-.72-.7-1.01l-8.27-8.31h21.01c1.96,0,3.55-1.59,3.55-3.56V3.55c0-1.96-1.59-3.55-3.55-3.55Z"/>
          </g>
          <path class="cls-7" d="M127.08,0H3.56C1.6,0,0,1.59,0,3.55v72.4c0,1.96,1.6,3.56,3.56,3.56h21.01l-8.28,8.32c-.28.29-.51.62-.7,1.01-.05.11-.1.25-.14.37-.07.2-.12.41-.15.63-.02.16-.04.33-.04.49v2.86c0,1.96,1.59,3.56,3.55,3.56h93c1.96,0,3.55-1.6,3.55-3.56v-2.86c0-.14-.01-.29-.03-.43-.03-.24-.09-.48-.16-.71-.04-.12-.09-.25-.14-.36-.18-.38-.41-.72-.7-1.01l-8.27-8.31h21.01c1.96,0,3.55-1.59,3.55-3.56V3.55c0-1.96-1.59-3.55-3.55-3.55Z"/>
          <g>
            <g>
              <polygon class="cls-12" points="101.11 79.57 29.52 79.57 18.82 90.33 111.82 90.33 101.11 79.57"/>
              <path class="cls-1" d="M111.82,90.85H18.82c-.21,0-.4-.13-.49-.32-.08-.2-.04-.42.11-.57l10.7-10.76c.1-.1.23-.15.37-.15h71.59c.14,0,.27.05.37.15l10.71,10.76c.15.15.2.37.11.57-.08.2-.27.32-.48.32ZM20.08,89.8h90.47l-9.66-9.71H29.74l-9.66,9.71Z"/>
            </g>
            <g>
              <rect class="cls-3" x="45.54" y="57.61" width="39.55" height="28.24"/>
              <path class="cls-1" d="M85.1,86.37h-39.55c-.29,0-.53-.24-.53-.52v-28.24c0-.29.24-.52.53-.52h39.55c.29,0,.52.24.52.52v28.24c0,.29-.24.52-.52.52ZM46.07,85.32h38.5v-27.19h-38.5v27.19Z"/>
            </g>
            <rect class="cls-4" x="45.54" y="57.61" width="39.55" height="21.9"/>
            <g>
              <rect class="cls-3" x="3.56" y="3.55" width="123.53" height="72.4"/>
              <path class="cls-1" d="M127.08,76.48H3.56c-.29,0-.53-.24-.53-.52V3.55c0-.29.23-.52.53-.52h123.53c.29,0,.52.23.52.52v72.4c0,.29-.23.52-.52.52ZM4.08,75.43h122.47V4.08H4.08v71.35Z"/>
            </g>
            <rect class="cls-4" x="5.24" y="5.16" width="119.87" height="67.8"/>
            <g>
              <rect class="cls-10" x="6.87" y="6.69" width="116.89" height="64.57"/>
              <path class="cls-1" d="M123.76,71.78H6.87c-.29,0-.52-.24-.52-.52V6.69c0-.29.23-.52.52-.52h116.89c.29,0,.53.24.53.52v64.57c0,.29-.23.52-.53.52ZM7.4,70.74h115.84V7.21H7.4v63.52Z"/>
            </g>
            <path class="cls-11" d="M95.31,6.69h-8.98C68.31,19.58,15.2,58.09,6.87,64.7v3.17c3.32-2.59,61.9-43.93,88.44-61.19Z"/>
            <path class="cls-11" d="M118.94,54.64c1.6-1.24,3.21-2.48,4.82-3.71v-22.34c-18.58,14.09-37.06,28.31-55.43,42.67h31.21c6.44-5.59,12.7-11.42,19.39-16.62Z"/>
            <g>
              <path class="cls-14" d="M67.32,73.74c0,1.1-.9,2-2,2s-2-.9-2-2,.9-2.01,2-2.01,2,.9,2,2.01Z"/>
              <path class="cls-1" d="M65.32,76.26c-1.39,0-2.53-1.13-2.53-2.53s1.13-2.53,2.53-2.53,2.53,1.13,2.53,2.53-1.13,2.53-2.53,2.53ZM65.32,72.26c-.81,0-1.48.66-1.48,1.48s.66,1.48,1.48,1.48,1.48-.66,1.48-1.48-.66-1.48-1.48-1.48Z"/>
            </g>
            <g>
              <rect class="cls-22" x="18.82" y="90.33" width="93" height="2.86"/>
              <path class="cls-1" d="M111.82,93.71H18.82c-.29,0-.53-.23-.53-.52v-2.86c0-.29.24-.52.53-.52h93c.29,0,.53.23.53.52v2.86c0,.29-.24.52-.53.52ZM19.34,92.66h91.95v-1.81H19.34v1.81Z"/>
            </g>
          </g>
        </g>
      </g>
    </g>
  </g>
</svg>