<?xml version="1.0" encoding="UTF-8"?>
<svg xmlns="http://www.w3.org/2000/svg" width="91.35" height="100" viewBox="0 0 91.35 100">
  <defs>
    <style>
      .cls-1 {
        opacity: .47;
      }

      .cls-1, .cls-2 {
        fill: #689b55;
      }

      .cls-1, .cls-3, .cls-4 {
        mix-blend-mode: multiply;
      }

      .cls-5 {
        fill: #5e2c00;
      }

      .cls-6 {
        fill: #fde8e9;
      }

      .cls-7 {
        fill: #8b8b8b;
      }

      .cls-8 {
        fill: #9a9a9a;
      }

      .cls-9 {
        fill: #7d7d7d;
      }

      .cls-10 {
        fill: #fff;
      }

      .cls-11 {
        fill: #6e6e6e;
      }

      .cls-12 {
        fill: #606060;
      }

      .cls-13 {
        fill: #9a542f;
      }

      .cls-13, .cls-14, .cls-15, .cls-16 {
        mix-blend-mode: screen;
      }

      .cls-17 {
        fill: #e2e2e2;
      }

      .cls-18 {
        isolation: isolate;
      }

      .cls-14, .cls-19 {
        fill: #80c455;
      }

      .cls-20 {
        fill: #f1f1f1;
      }

      .cls-21 {
        fill: #ba792f;
      }

      .cls-22 {
        fill: #c5c5c5;
      }

      .cls-23 {
        fill: #a8a8a8;
      }

      .cls-16, .cls-24 {
        fill: #843a1c;
      }

      .cls-25 {
        fill: #d4d4d4;
      }

      .cls-26 {
        fill: #b7b7b7;
      }

      .cls-4 {
        fill: #db4726;
      }

      .cls-27 {
        fill: #ed1c28;
      }
    </style>
  </defs>
  <g class="cls-18">
    <g id="Layer_2" data-name="Layer 2">
      <g id="Layer_1-2" data-name="Layer 1">
        <g>
          <g class="cls-3">
            <path class="cls-10" d="M79.57,20.44c-1.3-.34-2.5-.54-3.61-.63-.16-2.86-.97-5.75-2.35-8.29-2.44-4.5-6.9-7.61-12.55-8.77-1.1-.22-2.24-.34-3.39-.34-3.81,0-7.7,1.24-11.07,3.51-.79-.93-1.71-1.76-2.73-2.43-2.08-1.37-4.65-2.1-7.43-2.1-2.5,0-5.07.57-7.45,1.65-4.75,2.15-8.24,5.09-10.39,8.74-1.06,1.8-1.76,4.08-1.93,6.19-2.19.8-4.17,2.17-5.55,3.86-2.17,2.65-2.83,6.67-1.79,10.36C3.97,36.2.72,43.54,1.66,49.81c.76,5.08,3.81,9.32,8.38,11.65,2.71,1.38,5.86,1.4,8.4,1.41h.19c1.09,0,2.54-.06,4.02-.44,1.22,3.19,4.05,5.93,7.64,7.28,1.74.65,3.73,1,5.78,1,1.48,0,2.95-.19,4.24-.55.18-.05.41-.1.66-.16.17-.04.34-.08.53-.12.02,2.75-.02,5.17-.12,7.46-.08,1.73-.09,3.46-.1,5.17-.18-.16-.37-.32-.6-.47-.6-.4-1.23-.63-1.74-.82,0,0-.01,0-.02,0,.13-.21.24-.49.27-.81.09-.83-.37-1.44-.56-1.69-.4-.53-1.03-.85-1.67-.85-.44,0-.87.14-1.23.42-.32.24-.55.57-.67.94h0c-.14.38-.32.76-.52,1.17-.04.08-.08.16-.12.25-.05,0-.1-.01-.15-.02-.63-.07-1.3-.02-2.08.17-.65.16-1.3.46-1.91.88-.2.14-.39.3-.57.48-1.49,1.23-1.82,3.27-1.89,4.19-13.82,1.34-16.42,3.46-17.09,5.36-.24.7-.43,2.08,1.11,3.56.62.6,2.52,2.43,13.09,3.66,5.93.69,13.58,1.07,21.54,1.07s15.95-.39,22.01-1.11c9.7-1.14,12.09-2.73,13.05-3.82.75-.86.82-1.72.74-2.3-.36-2.64-3.27-5.79-22.4-6.92-.1-1.38-.21-2.77-.31-4.12-.4-5.15-.81-10.47-.72-15.73.85.19,1.68.28,2.36.32-.31.85-.41,1.67-.44,2.13-.13,1.91.56,4.04,1.88,5.85.54.73,1.29,1.63,2.38,2.07l.05.02c.32.13.76.31,1.33.31.17,0,.35-.02.51-.05.22-.04.4-.11.54-.16,0,0,.01,0,.01,0,.05.02.11.06.16.08.17.09.39.21.67.31.02,0,.04.01.05.02.07.02.15.04.22.05.46.11,1.01.07,1.37.02h.05c1.16-.17,2.11-.86,2.81-1.45,1.71-1.44,2.89-3.34,3.22-5.23.13-.75.45-3.34-1.04-5l-.06-.06c-.34-.38-.73-.82-1.3-1.19-.32-.21-.64-.37-.95-.51.23-.13.45-.28.66-.42,2.8-1.86,5.04-4.5,6.31-7.42.55-1.27.81-2.64.79-4.19,2.35-1.18,4.53-2.79,6.24-4.62,3.8-4.08,5.37-9.33,4.42-14.81-.96-5.53-5.48-10.1-11.51-11.66Z"/>
            <path class="cls-20" d="M79.44,20.32c-1.3-.34-2.5-.54-3.61-.63-.16-2.86-.97-5.75-2.35-8.29-2.44-4.5-6.9-7.61-12.55-8.77-1.1-.22-2.24-.34-3.39-.34-3.81,0-7.7,1.24-11.07,3.51-.79-.93-1.71-1.76-2.74-2.43-2.08-1.37-4.65-2.1-7.43-2.1-2.5,0-5.07.57-7.45,1.65-4.75,2.15-8.25,5.09-10.39,8.74-1.06,1.8-1.76,4.08-1.93,6.19-2.19.8-4.17,2.17-5.55,3.86-2.17,2.65-2.83,6.67-1.79,10.36C3.83,36.08.58,43.41,1.52,49.68c.76,5.08,3.81,9.32,8.38,11.65,2.71,1.38,5.86,1.4,8.39,1.41h.19c1.08,0,2.54-.06,4.02-.44,1.22,3.19,4.05,5.93,7.64,7.28,1.73.65,3.73,1,5.78,1,1.48,0,2.95-.19,4.24-.55.19-.05.41-.1.66-.16.17-.04.34-.08.53-.12.02,2.75-.02,5.16-.12,7.46-.08,1.73-.1,3.46-.1,5.17-.18-.16-.37-.32-.6-.46-.6-.39-1.24-.6-1.74-.82,0,0-.01,0-.02,0,.13-.21.23-.48.27-.81.08-.83-.37-1.44-.55-1.69-.4-.53-1.03-.85-1.67-.85-.44,0-.86.14-1.23.42-.32.24-.55.57-.67.94h0c-.14.38-.32.76-.52,1.17-.04.08-.08.17-.12.25-.05,0-.1-.01-.15-.02-.63-.07-1.3-.02-2.08.17-.65.16-1.3.46-1.91.88-.2.14-.39.29-.57.48-1.49,1.23-1.82,3.27-1.89,4.19-13.82,1.34-16.42,3.45-17.09,5.36-.24.7-.43,2.08,1.11,3.56.62.6,2.52,2.43,13.09,3.66,5.93.69,13.58,1.07,21.54,1.07s15.95-.39,22.01-1.11c9.7-1.14,12.09-2.73,13.05-3.82.75-.86.82-1.72.74-2.3-.36-2.64-3.27-5.79-22.4-6.92-.1-1.38-.2-2.77-.31-4.12-.4-5.15-.81-10.47-.72-15.73.85.19,1.68.28,2.36.32-.31.85-.41,1.67-.44,2.13-.13,1.91.56,4.04,1.88,5.85.54.73,1.3,1.63,2.38,2.07l.05.02c.32.13.76.31,1.33.31.17,0,.35-.02.51-.05.22-.04.41-.11.54-.16,0,0,.01,0,.02,0,.04.02.1.06.15.08.17.09.4.21.67.31.02,0,.04.01.05.02.07.02.15.04.22.05.46.11,1.01.07,1.37.02h.05c1.16-.17,2.11-.86,2.81-1.45,1.71-1.44,2.89-3.34,3.22-5.23.13-.75.45-3.34-1.05-5l-.06-.06c-.34-.38-.73-.82-1.3-1.19-.32-.21-.64-.37-.95-.51.23-.13.45-.27.66-.42,2.8-1.86,5.04-4.5,6.31-7.42.55-1.27.81-2.65.79-4.19,2.35-1.18,4.53-2.79,6.24-4.62,3.8-4.08,5.37-9.33,4.42-14.8-.96-5.53-5.48-10.11-11.51-11.66Z"/>
            <path class="cls-17" d="M79.3,20.19c-1.3-.34-2.5-.54-3.61-.63-.16-2.86-.97-5.75-2.34-8.29-2.44-4.5-6.9-7.62-12.55-8.77-1.1-.22-2.24-.34-3.39-.34-3.81,0-7.7,1.24-11.07,3.51-.79-.93-1.71-1.76-2.74-2.43-2.08-1.37-4.65-2.1-7.43-2.1-2.5,0-5.08.57-7.45,1.65-4.75,2.15-8.25,5.09-10.39,8.74-1.06,1.8-1.76,4.08-1.93,6.19-2.19.8-4.17,2.17-5.55,3.86-2.17,2.65-2.83,6.67-1.79,10.36C3.7,35.95.45,43.29,1.39,49.56c.76,5.08,3.81,9.32,8.38,11.65,2.71,1.38,5.86,1.4,8.39,1.41h.19c1.08,0,2.54-.06,4.02-.44,1.22,3.19,4.05,5.93,7.64,7.28,1.74.65,3.74,1,5.78,1,1.48,0,2.95-.19,4.24-.55.18-.05.41-.1.66-.16.17-.04.34-.08.53-.12.02,2.75-.02,5.16-.12,7.46-.08,1.73-.1,3.46-.1,5.17-.18-.16-.37-.32-.6-.47-.6-.4-1.23-.61-1.74-.82,0,0-.01,0-.02,0,.13-.21.24-.48.27-.81.08-.83-.37-1.44-.55-1.69-.4-.53-1.03-.85-1.67-.85-.44,0-.87.14-1.23.42-.32.24-.55.57-.67.94h0c-.14.38-.32.76-.52,1.17-.04.08-.08.16-.12.25-.05,0-.1-.01-.15-.02-.63-.07-1.3-.02-2.08.17-.65.16-1.3.46-1.91.88-.2.14-.39.29-.57.48-1.49,1.23-1.82,3.27-1.89,4.19-13.82,1.34-16.42,3.46-17.09,5.36-.25.7-.43,2.08,1.11,3.56.62.6,2.52,2.43,13.09,3.66,5.93.69,13.58,1.07,21.54,1.07s15.95-.39,22.01-1.11c9.7-1.14,12.09-2.73,13.05-3.82.75-.86.82-1.72.74-2.3-.36-2.64-3.27-5.79-22.4-6.92-.1-1.38-.21-2.77-.31-4.12-.4-5.15-.81-10.47-.72-15.73.84.19,1.68.28,2.36.32-.31.85-.41,1.67-.44,2.13-.13,1.91.56,4.04,1.88,5.85.54.73,1.29,1.63,2.38,2.07l.05.02c.32.13.76.31,1.33.31.17,0,.35-.02.51-.05.22-.04.41-.11.54-.16,0,0,.02,0,.02,0,.04.02.1.05.15.08.17.09.39.22.67.31.02,0,.04.01.05.02.07.02.15.04.22.05.46.11,1.01.07,1.37.02h.05c1.16-.17,2.11-.86,2.81-1.45,1.71-1.44,2.89-3.34,3.22-5.23.13-.75.45-3.34-1.04-5l-.06-.06c-.34-.38-.74-.82-1.3-1.19-.32-.21-.64-.37-.95-.51.23-.13.45-.28.66-.42,2.8-1.86,5.04-4.5,6.31-7.42.55-1.27.81-2.64.79-4.19,2.35-1.18,4.53-2.79,6.24-4.62,3.8-4.08,5.37-9.33,4.42-14.81-.96-5.53-5.48-10.1-11.51-11.66Z"/>
            <path class="cls-25" d="M79.16,20.06c-1.3-.34-2.5-.54-3.61-.63-.16-2.86-.97-5.75-2.35-8.29-2.44-4.5-6.9-7.62-12.55-8.77-1.1-.22-2.24-.34-3.39-.34-3.81,0-7.7,1.24-11.07,3.51-.79-.93-1.71-1.76-2.73-2.43-2.08-1.37-4.65-2.1-7.43-2.1-2.5,0-5.07.57-7.45,1.65-4.75,2.15-8.24,5.09-10.39,8.74-1.06,1.8-1.76,4.08-1.94,6.19-2.19.8-4.17,2.17-5.55,3.86-2.17,2.65-2.83,6.67-1.79,10.36C3.56,35.83.31,43.16,1.25,49.43c.76,5.08,3.81,9.32,8.38,11.65,2.71,1.38,5.86,1.4,8.39,1.41h.19c1.08,0,2.54-.06,4.02-.44,1.22,3.18,4.05,5.93,7.64,7.28,1.73.65,3.73,1,5.78,1,1.48,0,2.95-.2,4.24-.55.19-.05.41-.1.66-.16.17-.04.34-.08.53-.12.02,2.75-.02,5.17-.12,7.46-.08,1.73-.09,3.46-.1,5.16-.18-.16-.37-.32-.6-.46-.6-.4-1.23-.63-1.74-.82,0,0-.01,0-.02,0,.13-.21.24-.49.27-.81.08-.83-.37-1.44-.56-1.69-.4-.53-1.03-.84-1.67-.84-.44,0-.86.14-1.23.42-.32.24-.55.57-.67.94h0c-.14.38-.32.76-.52,1.17-.04.08-.08.16-.12.25-.05,0-.1-.01-.15-.02-.63-.07-1.3-.02-2.08.17-.65.16-1.29.46-1.91.88-.2.14-.39.29-.57.48-1.49,1.23-1.82,3.27-1.89,4.19-13.82,1.34-16.42,3.46-17.09,5.36-.25.7-.43,2.08,1.11,3.56.62.6,2.52,2.43,13.09,3.66,5.93.69,13.58,1.07,21.54,1.07s15.95-.39,22.01-1.11c9.7-1.14,12.09-2.73,13.05-3.82.75-.86.82-1.72.74-2.3-.36-2.64-3.27-5.79-22.4-6.92-.1-1.38-.21-2.77-.31-4.12-.4-5.15-.81-10.47-.72-15.73.85.19,1.68.28,2.36.32-.31.85-.41,1.67-.44,2.13-.13,1.91.56,4.04,1.88,5.85.54.73,1.3,1.63,2.38,2.07l.05.02c.32.13.76.31,1.33.31.17,0,.35-.02.51-.05.22-.04.4-.11.54-.16,0,0,.01,0,.02,0,.04.02.1.05.15.08.17.09.39.22.67.31.02,0,.04.01.05.02.07.02.15.04.22.05.46.11,1.01.07,1.37.02h.05c1.16-.17,2.11-.86,2.81-1.45,1.71-1.44,2.89-3.34,3.22-5.23.13-.75.45-3.34-1.04-5l-.06-.06c-.34-.38-.73-.82-1.3-1.19-.32-.21-.64-.37-.95-.51.23-.13.45-.28.66-.42,2.8-1.86,5.04-4.5,6.31-7.42.55-1.27.81-2.64.79-4.19,2.35-1.18,4.53-2.79,6.24-4.62,3.8-4.08,5.37-9.33,4.42-14.81-.96-5.53-5.48-10.1-11.51-11.66Z"/>
            <path class="cls-22" d="M79.03,19.94c-1.3-.34-2.5-.54-3.61-.63-.16-2.86-.97-5.75-2.35-8.29-2.44-4.5-6.9-7.61-12.55-8.77-1.1-.22-2.24-.34-3.39-.34-3.81,0-7.7,1.24-11.07,3.51-.79-.93-1.71-1.76-2.73-2.43-2.08-1.37-4.65-2.1-7.43-2.1-2.5,0-5.07.57-7.45,1.65-4.75,2.15-8.24,5.09-10.39,8.74-1.06,1.8-1.76,4.08-1.94,6.19-2.19.8-4.16,2.17-5.55,3.86-2.17,2.65-2.83,6.67-1.79,10.36C3.42,35.7.17,43.03,1.11,49.3c.76,5.08,3.81,9.32,8.38,11.65,2.71,1.38,5.86,1.4,8.4,1.41h.19c1.08,0,2.54-.06,4.02-.44,1.22,3.19,4.06,5.93,7.65,7.28,1.73.65,3.73,1,5.78,1,1.48,0,2.95-.19,4.24-.55.18-.05.41-.1.66-.15.17-.04.34-.08.53-.12.02,2.75-.02,5.16-.12,7.46-.08,1.73-.09,3.46-.1,5.17-.18-.16-.37-.32-.6-.47-.6-.4-1.23-.63-1.74-.81,0,0-.01,0-.02,0,.13-.21.24-.49.27-.81.08-.83-.37-1.44-.56-1.69-.4-.53-1.03-.85-1.67-.85-.44,0-.86.14-1.23.42-.32.24-.55.57-.67.94h0c-.14.38-.32.76-.52,1.17-.04.08-.08.17-.12.25-.05,0-.1-.01-.15-.02-.63-.07-1.3-.02-2.08.17-.65.16-1.3.45-1.91.88-.2.14-.39.29-.57.48-1.49,1.23-1.82,3.27-1.89,4.19-13.82,1.34-16.42,3.46-17.09,5.36-.25.7-.43,2.08,1.11,3.56.62.6,2.52,2.43,13.09,3.66,5.93.69,13.58,1.07,21.54,1.07s15.95-.39,22.01-1.11c9.7-1.14,12.09-2.73,13.05-3.82.75-.86.82-1.73.74-2.3-.36-2.64-3.27-5.79-22.4-6.92-.1-1.38-.21-2.77-.31-4.12-.4-5.15-.81-10.47-.72-15.73.85.19,1.68.28,2.36.32-.31.85-.41,1.67-.44,2.13-.13,1.91.56,4.04,1.88,5.85.54.73,1.29,1.63,2.38,2.07l.05.02c.32.13.76.31,1.33.31.17,0,.35-.02.51-.05.22-.04.4-.11.54-.16,0,0,.01,0,.02,0,.04.02.1.05.15.08.17.09.4.2.67.31.02,0,.04.01.05.02.07.02.15.04.22.05.46.11,1.01.07,1.37.02h.05c1.16-.17,2.11-.86,2.81-1.45,1.71-1.44,2.89-3.34,3.22-5.23.13-.75.45-3.34-1.04-5l-.06-.06c-.34-.38-.74-.82-1.3-1.19-.32-.21-.64-.37-.95-.51.22-.13.45-.28.66-.42,2.8-1.86,5.04-4.5,6.31-7.42.55-1.27.81-2.64.79-4.19,2.35-1.18,4.53-2.79,6.24-4.62,3.8-4.08,5.37-9.33,4.42-14.81-.96-5.53-5.48-10.11-11.51-11.66Z"/>
            <path class="cls-26" d="M78.89,19.81c-1.3-.34-2.5-.54-3.61-.63-.16-2.86-.97-5.75-2.35-8.29-2.44-4.5-6.9-7.62-12.55-8.77-1.1-.22-2.24-.34-3.39-.34-3.81,0-7.7,1.24-11.07,3.51-.79-.93-1.71-1.76-2.73-2.43-2.08-1.37-4.65-2.1-7.43-2.1-2.5,0-5.07.57-7.45,1.65-4.75,2.15-8.24,5.09-10.39,8.74-1.06,1.8-1.76,4.08-1.94,6.19-2.19.8-4.17,2.17-5.55,3.86-2.17,2.65-2.83,6.67-1.79,10.36C3.29,35.57.04,42.91.98,49.18c.76,5.08,3.81,9.32,8.38,11.65,2.71,1.38,5.86,1.4,8.4,1.41h.19c1.09,0,2.54-.06,4.02-.44,1.22,3.18,4.05,5.93,7.64,7.28,1.73.65,3.73,1,5.78,1,1.48,0,2.95-.19,4.24-.55.18-.05.41-.1.66-.16.17-.04.34-.08.53-.12.02,2.75-.02,5.16-.12,7.46-.07,1.73-.09,3.46-.1,5.17-.18-.16-.37-.32-.6-.47-.6-.4-1.24-.6-1.74-.81,0,0-.01,0-.02,0,.13-.21.24-.48.27-.81.08-.83-.37-1.44-.56-1.69-.4-.53-1.03-.85-1.67-.85-.44,0-.86.14-1.23.42-.32.24-.55.57-.67.94h0c-.14.38-.32.76-.52,1.17-.04.08-.08.16-.12.25-.05,0-.1-.01-.15-.02-.63-.07-1.3-.02-2.08.17-.65.16-1.3.46-1.91.88-.2.14-.39.29-.57.48-1.49,1.23-1.82,3.27-1.89,4.19-13.82,1.34-16.42,3.45-17.09,5.36-.25.7-.43,2.08,1.11,3.56.62.6,2.52,2.43,13.09,3.66,5.93.69,13.58,1.07,21.54,1.07s15.95-.39,22.01-1.11c9.7-1.14,12.09-2.73,13.05-3.82.75-.86.82-1.72.74-2.3-.36-2.64-3.27-5.79-22.4-6.92-.1-1.38-.21-2.77-.31-4.12-.4-5.15-.81-10.47-.72-15.73.85.19,1.68.28,2.36.32-.31.85-.41,1.67-.44,2.13-.13,1.91.56,4.04,1.88,5.85.54.73,1.29,1.63,2.38,2.07l.05.02c.32.13.76.31,1.33.31.17,0,.35-.02.51-.05.22-.04.4-.11.54-.16,0,0,.01,0,.02,0,.04.02.1.05.15.08.17.09.39.22.67.31.02,0,.04.01.05.02.07.02.15.04.22.05.46.11,1.01.07,1.37.02h.05c1.16-.17,2.11-.86,2.81-1.45,1.71-1.44,2.89-3.34,3.22-5.23.13-.75.45-3.34-1.04-5l-.06-.06c-.34-.38-.73-.82-1.3-1.19-.32-.21-.64-.38-.95-.51.23-.13.45-.27.66-.42,2.8-1.86,5.04-4.5,6.31-7.42.55-1.27.81-2.64.79-4.19,2.35-1.18,4.53-2.79,6.24-4.62,3.8-4.08,5.37-9.33,4.42-14.81-.96-5.53-5.48-10.1-11.51-11.66Z"/>
            <path class="cls-23" d="M78.76,19.69c-1.3-.34-2.5-.54-3.61-.63-.15-2.86-.97-5.75-2.35-8.29-2.44-4.5-6.9-7.61-12.55-8.77-1.1-.22-2.24-.34-3.39-.34-3.81,0-7.7,1.24-11.07,3.51-.79-.93-1.71-1.76-2.73-2.43-2.08-1.37-4.65-2.1-7.43-2.1-2.5,0-5.07.57-7.45,1.65-4.75,2.15-8.24,5.09-10.39,8.74-1.06,1.8-1.76,4.08-1.94,6.19-2.19.8-4.17,2.17-5.55,3.86-2.17,2.65-2.83,6.67-1.79,10.36C3.15,35.45-.1,42.78.84,49.05c.76,5.08,3.81,9.32,8.38,11.65,2.71,1.38,5.86,1.4,8.4,1.41h.19c1.09,0,2.54-.06,4.02-.44,1.22,3.18,4.05,5.93,7.64,7.28,1.74.65,3.73,1,5.78,1,1.48,0,2.95-.19,4.24-.55.18-.05.41-.1.66-.16.17-.04.34-.08.53-.12.02,2.75-.02,5.17-.12,7.46-.08,1.72-.09,3.46-.1,5.17-.18-.16-.37-.32-.6-.47-.6-.4-1.24-.6-1.74-.81,0,0-.01,0-.02,0,.13-.21.24-.49.27-.81.08-.83-.37-1.44-.55-1.69-.4-.53-1.03-.84-1.67-.84-.44,0-.87.14-1.23.42-.32.24-.55.57-.67.94h0c-.14.38-.32.76-.52,1.17-.04.08-.08.16-.12.25-.05,0-.1-.01-.15-.02-.63-.08-1.3-.02-2.08.17-.65.16-1.29.46-1.91.88-.2.14-.39.29-.57.48-1.49,1.23-1.82,3.27-1.89,4.19-13.82,1.34-16.42,3.46-17.09,5.36-.25.7-.43,2.08,1.11,3.56.62.6,2.52,2.43,13.09,3.66,5.93.69,13.58,1.07,21.54,1.07s15.95-.39,22.01-1.11c9.7-1.14,12.09-2.73,13.05-3.82.75-.86.82-1.72.74-2.3-.36-2.64-3.27-5.79-22.4-6.92-.1-1.38-.21-2.77-.31-4.12-.4-5.15-.81-10.47-.72-15.73.85.19,1.68.28,2.36.32-.31.85-.41,1.67-.44,2.13-.13,1.91.56,4.04,1.88,5.85.54.73,1.3,1.63,2.38,2.07l.05.02c.32.13.76.31,1.33.31.17,0,.35-.02.51-.05.22-.04.41-.11.54-.16,0,0,.01,0,.02,0,.04.02.1.05.15.08.17.09.39.22.67.31.02,0,.04.01.05.02.07.02.15.04.22.05.46.12,1.01.07,1.37.02h.05c1.16-.17,2.11-.86,2.81-1.45,1.71-1.44,2.89-3.34,3.22-5.23.13-.75.45-3.34-1.04-5l-.06-.06c-.34-.38-.74-.82-1.3-1.19-.32-.21-.64-.37-.95-.51.22-.13.45-.27.66-.42,2.8-1.86,5.04-4.5,6.31-7.42.55-1.27.81-2.64.79-4.19,2.35-1.18,4.53-2.79,6.24-4.62,3.8-4.08,5.37-9.33,4.42-14.8-.96-5.53-5.48-10.11-11.51-11.66Z"/>
            <path class="cls-8" d="M78.62,19.56c-1.3-.34-2.5-.54-3.61-.63-.16-2.86-.97-5.75-2.35-8.29-2.44-4.5-6.9-7.61-12.55-8.77-1.1-.22-2.24-.34-3.39-.34-3.81,0-7.7,1.24-11.07,3.51-.79-.93-1.71-1.76-2.73-2.43-2.08-1.37-4.65-2.1-7.43-2.1-2.5,0-5.07.57-7.45,1.65-4.75,2.15-8.24,5.09-10.39,8.74-1.06,1.8-1.76,4.08-1.94,6.19-2.19.8-4.17,2.17-5.55,3.86-2.17,2.65-2.83,6.67-1.79,10.36C3.02,35.32-.23,42.65.71,48.92c.76,5.08,3.81,9.32,8.38,11.65,2.71,1.38,5.86,1.4,8.4,1.41h.19c1.08,0,2.54-.06,4.02-.44,1.22,3.18,4.06,5.93,7.65,7.27,1.74.65,3.73,1,5.78,1,1.48,0,2.95-.19,4.24-.55.18-.05.41-.1.66-.15.17-.04.34-.08.53-.12.02,2.75-.02,5.16-.12,7.46-.08,1.73-.09,3.46-.1,5.17-.18-.16-.37-.32-.6-.46-.6-.39-1.23-.63-1.74-.82,0,0-.01,0-.02,0,.13-.21.24-.49.27-.81.08-.83-.37-1.44-.56-1.69-.4-.53-1.03-.85-1.67-.85-.44,0-.87.14-1.23.42-.32.24-.55.57-.67.94,0,0,0,0,0,0-.14.37-.32.76-.52,1.16-.04.08-.08.17-.12.25-.05,0-.1-.01-.15-.02-.63-.07-1.3-.02-2.08.17-.65.16-1.3.46-1.91.88-.2.14-.39.29-.57.48-1.49,1.23-1.82,3.27-1.89,4.19-13.82,1.34-16.42,3.46-17.09,5.36-.25.7-.43,2.08,1.11,3.56.62.6,2.52,2.43,13.09,3.66,5.93.69,13.58,1.07,21.54,1.07s15.95-.39,22.01-1.11c9.7-1.14,12.09-2.73,13.05-3.82.75-.86.82-1.72.74-2.3-.36-2.64-3.27-5.79-22.4-6.92-.1-1.38-.21-2.77-.31-4.12-.4-5.15-.81-10.47-.72-15.73.85.19,1.68.28,2.36.32-.31.85-.41,1.67-.44,2.13-.13,1.91.56,4.04,1.88,5.85.54.73,1.29,1.63,2.38,2.07l.05.02c.32.13.76.31,1.33.31.17,0,.35-.02.51-.05.22-.04.41-.11.54-.16,0,0,.01,0,.02,0,.04.02.1.05.15.08.17.09.39.21.67.31.02,0,.04.01.05.02.07.02.15.04.23.05.46.11,1.01.07,1.37.02h.05c1.16-.17,2.11-.86,2.81-1.45,1.71-1.44,2.89-3.34,3.22-5.23.13-.75.45-3.34-1.04-5l-.06-.06c-.34-.38-.74-.82-1.3-1.19-.32-.21-.64-.38-.95-.51.22-.13.45-.28.66-.42,2.8-1.86,5.04-4.5,6.31-7.42.55-1.27.81-2.64.79-4.19,2.35-1.18,4.53-2.79,6.24-4.62,3.8-4.08,5.37-9.33,4.42-14.8-.96-5.53-5.48-10.11-11.51-11.66Z"/>
            <path class="cls-7" d="M78.48,19.43c-1.3-.34-2.5-.54-3.61-.63-.16-2.86-.97-5.75-2.35-8.29-2.44-4.5-6.9-7.61-12.55-8.77-1.1-.22-2.24-.34-3.39-.34-3.81,0-7.7,1.24-11.07,3.51-.79-.93-1.71-1.76-2.73-2.43-2.08-1.37-4.65-2.1-7.43-2.1-2.5,0-5.07.57-7.45,1.65-4.75,2.15-8.24,5.09-10.39,8.74-1.06,1.8-1.76,4.08-1.94,6.19-2.19.8-4.16,2.17-5.55,3.86-2.17,2.65-2.83,6.67-1.79,10.36C2.88,35.19-.37,42.53.57,48.8c.76,5.08,3.81,9.32,8.38,11.65,2.71,1.38,5.86,1.4,8.4,1.41h.19c1.09,0,2.54-.06,4.02-.44,1.22,3.18,4.06,5.93,7.65,7.28,1.73.65,3.73,1,5.78,1,1.48,0,2.95-.19,4.24-.55.18-.05.41-.1.66-.16.17-.04.34-.08.53-.12.02,2.75-.02,5.16-.12,7.46-.07,1.73-.09,3.46-.1,5.17-.18-.16-.37-.32-.6-.46-.6-.4-1.24-.6-1.74-.81,0,0-.01,0-.02,0,.13-.21.24-.48.27-.81.08-.83-.37-1.44-.56-1.69-.4-.53-1.02-.85-1.67-.85-.44,0-.86.14-1.23.42-.32.24-.55.57-.67.94,0,0,0,0,0,0-.14.37-.32.76-.52,1.16-.04.08-.08.17-.12.25-.05,0-.1-.01-.15-.02-.63-.07-1.3-.02-2.08.17-.65.16-1.29.46-1.91.88-.2.14-.39.29-.57.48-1.49,1.23-1.82,3.27-1.89,4.19-13.82,1.34-16.42,3.46-17.09,5.36-.25.7-.43,2.08,1.11,3.56.62.6,2.52,2.43,13.09,3.66,5.93.69,13.58,1.07,21.54,1.07s15.95-.39,22.01-1.11c9.7-1.14,12.09-2.73,13.05-3.82.75-.86.82-1.72.74-2.3-.36-2.64-3.27-5.79-22.4-6.92-.1-1.38-.21-2.77-.31-4.12-.4-5.15-.81-10.47-.72-15.73.85.19,1.68.28,2.36.32-.31.85-.41,1.67-.44,2.13-.13,1.91.56,4.04,1.88,5.85.54.73,1.29,1.63,2.38,2.07l.05.02c.32.13.76.31,1.33.31.17,0,.35-.02.51-.05.22-.04.4-.11.54-.16,0,0,.01,0,.02,0,.04.02.1.05.15.08.17.09.39.21.67.31.02,0,.04.01.05.02.07.02.15.04.23.05.46.11,1.01.07,1.37.02h.05c1.16-.17,2.11-.86,2.81-1.45,1.71-1.44,2.89-3.34,3.22-5.23.13-.75.45-3.34-1.04-5l-.06-.06c-.34-.38-.74-.82-1.3-1.19-.32-.21-.64-.38-.96-.51.23-.13.45-.27.66-.42,2.8-1.86,5.04-4.5,6.31-7.42.55-1.27.81-2.64.79-4.19,2.35-1.18,4.53-2.79,6.24-4.62,3.8-4.08,5.37-9.34,4.42-14.8-.96-5.53-5.48-10.11-11.51-11.66Z"/>
            <path class="cls-9" d="M78.35,19.31c-1.3-.34-2.5-.54-3.61-.63-.16-2.86-.97-5.75-2.35-8.29-2.44-4.5-6.9-7.62-12.55-8.77-1.1-.22-2.24-.34-3.39-.34-3.81,0-7.7,1.24-11.07,3.51-.79-.93-1.71-1.76-2.73-2.43-2.08-1.37-4.65-2.1-7.43-2.1-2.5,0-5.07.57-7.45,1.65-4.75,2.15-8.24,5.09-10.39,8.74-1.06,1.8-1.76,4.08-1.94,6.2-2.19.8-4.17,2.17-5.55,3.86-2.17,2.65-2.83,6.67-1.79,10.36C2.74,35.07-.51,42.4.43,48.67c.76,5.08,3.81,9.32,8.38,11.65,2.71,1.38,5.86,1.4,8.4,1.41h.19c1.09,0,2.54-.06,4.02-.44,1.22,3.18,4.06,5.93,7.64,7.28,1.73.65,3.73,1,5.78,1,1.48,0,2.95-.19,4.24-.55.18-.05.41-.1.66-.16.17-.04.34-.08.53-.12.02,2.75-.02,5.16-.12,7.46-.07,1.73-.09,3.46-.1,5.17-.18-.16-.37-.32-.6-.46-.6-.4-1.25-.59-1.74-.81,0,0-.01,0-.02,0,.13-.21.24-.48.27-.81.08-.83-.37-1.44-.55-1.69-.4-.53-1.03-.85-1.67-.85-.44,0-.86.14-1.23.42-.32.24-.55.57-.67.94,0,0,0,0,0,0-.14.37-.33.75-.52,1.16-.04.08-.08.17-.12.25-.05,0-.1-.01-.15-.02-.63-.07-1.3-.02-2.08.17-.65.16-1.29.46-1.91.88-.2.14-.39.3-.57.48-1.49,1.23-1.82,3.27-1.89,4.19-13.82,1.34-16.42,3.46-17.09,5.36-.25.7-.43,2.08,1.11,3.56.62.6,2.52,2.43,13.09,3.66,5.93.69,13.58,1.07,21.54,1.07s15.95-.39,22.01-1.11c9.7-1.14,12.09-2.73,13.05-3.82.75-.86.82-1.72.74-2.3-.36-2.64-3.27-5.79-22.4-6.92-.1-1.38-.21-2.77-.31-4.12-.4-5.15-.81-10.47-.72-15.73.85.19,1.68.28,2.36.32-.31.85-.41,1.67-.44,2.13-.13,1.91.56,4.04,1.88,5.85.54.73,1.3,1.63,2.38,2.07l.05.02c.32.13.76.31,1.33.31.17,0,.35-.02.51-.05.22-.04.41-.11.54-.16,0,0,.01,0,.02,0,.04.02.1.05.15.08.17.09.4.21.67.31.02,0,.04.01.05.02.07.02.15.04.23.05.46.11,1.01.07,1.37.02h.05c1.16-.17,2.11-.86,2.81-1.45,1.71-1.44,2.89-3.34,3.22-5.23.13-.75.45-3.34-1.04-5l-.06-.06c-.34-.38-.74-.82-1.3-1.19-.32-.21-.64-.38-.95-.51.22-.13.45-.28.66-.42,2.79-1.87,5.04-4.5,6.31-7.42.55-1.27.81-2.64.79-4.19,2.35-1.18,4.53-2.79,6.24-4.62,3.8-4.08,5.37-9.34,4.42-14.8-.96-5.53-5.48-10.11-11.51-11.66Z"/>
            <path class="cls-11" d="M78.21,19.18c-1.3-.34-2.5-.54-3.61-.63-.16-2.86-.97-5.75-2.35-8.29-2.44-4.5-6.9-7.61-12.55-8.77-1.1-.22-2.24-.34-3.39-.34-3.81,0-7.7,1.24-11.07,3.51-.79-.93-1.71-1.76-2.74-2.43-2.08-1.37-4.65-2.1-7.43-2.1-2.5,0-5.07.57-7.45,1.65-4.75,2.15-8.25,5.09-10.39,8.74-1.06,1.8-1.76,4.07-1.94,6.19-2.19.8-4.16,2.17-5.55,3.86-2.17,2.65-2.83,6.67-1.79,10.36C2.61,34.94-.64,42.28.3,48.54c.76,5.08,3.81,9.32,8.38,11.65,2.71,1.38,5.86,1.4,8.39,1.41h.19c1.09,0,2.54-.06,4.02-.44,1.22,3.19,4.05,5.93,7.64,7.28,1.73.65,3.73,1,5.78,1,1.48,0,2.95-.19,4.24-.55.18-.05.41-.1.66-.16.17-.04.34-.08.53-.12.02,2.75-.02,5.16-.12,7.46-.07,1.73-.09,3.46-.1,5.17-.18-.16-.37-.32-.6-.46-.6-.39-1.26-.56-1.74-.81,0,0-.01,0-.02,0,.13-.21.24-.48.27-.81.08-.83-.37-1.44-.55-1.69-.4-.53-1.03-.85-1.67-.85-.44,0-.86.14-1.23.42-.32.24-.55.57-.67.94,0,0,0,0,0,0-.14.37-.32.75-.52,1.16-.04.08-.08.17-.12.25-.05,0-.1-.01-.15-.02-.63-.08-1.3-.02-2.08.17-.65.16-1.29.46-1.91.88-.2.14-.39.3-.57.48-1.49,1.23-1.82,3.27-1.89,4.19-13.82,1.34-16.42,3.45-17.09,5.36-.25.7-.43,2.08,1.11,3.56.62.6,2.52,2.43,13.09,3.66,5.93.69,13.58,1.07,21.54,1.07s15.95-.39,22.01-1.11c9.7-1.14,12.09-2.73,13.05-3.82.75-.86.82-1.72.74-2.3-.36-2.64-3.27-5.79-22.4-6.92-.1-1.38-.21-2.77-.31-4.12-.4-5.15-.81-10.47-.72-15.73.85.19,1.68.28,2.36.32-.31.85-.41,1.67-.44,2.13-.13,1.91.56,4.04,1.88,5.85.54.73,1.3,1.63,2.38,2.07l.05.02c.32.13.76.31,1.33.31.17,0,.35-.01.51-.05.22-.04.41-.11.54-.16,0,0,.01,0,.02,0,.04.02.1.06.15.08.16.09.4.21.67.31.02,0,.04.01.05.02.07.03.15.04.23.05.46.11,1.01.07,1.37.02h.05c1.16-.17,2.11-.86,2.81-1.45,1.71-1.44,2.89-3.34,3.22-5.23.13-.75.45-3.34-1.04-5l-.06-.06c-.34-.38-.74-.81-1.3-1.18-.32-.21-.64-.38-.95-.51.22-.13.44-.27.66-.42,2.79-1.87,5.04-4.5,6.31-7.42.55-1.27.81-2.64.79-4.19,2.35-1.18,4.53-2.79,6.24-4.62,3.8-4.08,5.37-9.33,4.42-14.8-.96-5.53-5.48-10.11-11.51-11.66Z"/>
            <path class="cls-12" d="M78.08,19.05c-1.3-.34-2.5-.54-3.61-.63-.16-2.86-.97-5.75-2.35-8.29-2.44-4.5-6.9-7.61-12.55-8.77-1.1-.22-2.24-.34-3.39-.34-3.81,0-7.7,1.24-11.07,3.51-.79-.93-1.71-1.76-2.73-2.43-2.08-1.37-4.65-2.1-7.43-2.1-2.5,0-5.07.57-7.45,1.65-4.75,2.15-8.24,5.09-10.39,8.74-1.06,1.8-1.76,4.08-1.94,6.19-2.19.8-4.16,2.17-5.55,3.86-2.17,2.65-2.83,6.67-1.79,10.36C2.47,34.81-.78,42.15.16,48.42c.76,5.08,3.81,9.32,8.38,11.65,2.71,1.38,5.86,1.4,8.4,1.41h.19c1.09,0,2.54-.06,4.02-.44,1.22,3.18,4.06,5.93,7.65,7.28,1.73.65,3.73,1,5.78,1,1.48,0,2.95-.19,4.24-.55.18-.05.41-.1.66-.16.17-.04.34-.08.53-.12.02,2.75-.02,5.16-.12,7.46-.07,1.73-.09,3.46-.1,5.17-.18-.16-.37-.32-.6-.46-.6-.4-1.23-.63-1.74-.81,0,0-.01,0-.02,0,.13-.21.24-.48.27-.81.09-.83-.37-1.44-.56-1.69-.4-.53-1.03-.85-1.67-.85-.44,0-.86.14-1.23.42-.32.24-.55.57-.67.94,0,0,0,0,0,0-.14.37-.32.76-.52,1.16-.04.08-.08.17-.12.25-.05,0-.1-.01-.15-.02-.63-.07-1.3-.02-2.08.17-.65.16-1.29.46-1.91.88-.2.14-.39.29-.57.48-1.49,1.23-1.82,3.27-1.89,4.19-13.82,1.34-16.42,3.46-17.09,5.36-.25.7-.43,2.08,1.11,3.56.62.6,2.52,2.43,13.09,3.66,5.93.69,13.58,1.07,21.54,1.07s15.95-.39,22.01-1.11c9.7-1.14,12.09-2.73,13.05-3.82.75-.86.82-1.72.74-2.3-.36-2.64-3.27-5.79-22.4-6.92-.1-1.38-.21-2.77-.31-4.12-.4-5.15-.81-10.47-.72-15.73.85.19,1.68.28,2.36.32-.31.85-.41,1.67-.44,2.13-.13,1.91.56,4.04,1.88,5.85.54.73,1.29,1.63,2.38,2.07l.05.02c.32.13.76.31,1.33.31.17,0,.35-.02.51-.05.22-.04.41-.11.54-.16,0,0,.01,0,.02,0,.04.02.1.05.15.08.17.09.39.21.67.31.02,0,.04.01.05.02.07.02.15.04.23.05.46.11,1.01.07,1.37.02h.05c1.16-.17,2.11-.86,2.81-1.45,1.71-1.44,2.89-3.34,3.22-5.23.13-.75.45-3.34-1.04-5l-.06-.06c-.34-.38-.73-.82-1.3-1.19-.32-.21-.64-.38-.95-.51.22-.13.45-.27.66-.42,2.8-1.86,5.04-4.5,6.31-7.42.55-1.27.81-2.64.79-4.19,2.35-1.18,4.53-2.79,6.24-4.62,3.8-4.08,5.37-9.33,4.42-14.8-.96-5.53-5.48-10.11-11.51-11.66Z"/>
          </g>
          <path class="cls-10" d="M78.08,19.05c-1.3-.34-2.5-.54-3.61-.63-.16-2.86-.97-5.75-2.35-8.29-2.44-4.5-6.9-7.61-12.55-8.77-1.1-.22-2.24-.34-3.39-.34-3.81,0-7.7,1.24-11.07,3.51-.79-.93-1.71-1.76-2.73-2.43-2.08-1.37-4.65-2.1-7.43-2.1-2.5,0-5.07.57-7.45,1.65-4.75,2.15-8.24,5.09-10.39,8.74-1.06,1.8-1.76,4.08-1.94,6.19-2.19.8-4.16,2.17-5.55,3.86-2.17,2.65-2.83,6.67-1.79,10.36C2.47,34.81-.78,42.15.16,48.42c.76,5.08,3.81,9.32,8.38,11.65,2.71,1.38,5.86,1.4,8.4,1.41h.19c1.09,0,2.54-.06,4.02-.44,1.22,3.18,4.06,5.93,7.65,7.28,1.73.65,3.73,1,5.78,1,1.48,0,2.95-.19,4.24-.55.18-.05.41-.1.66-.16.17-.04.34-.08.53-.12.02,2.75-.02,5.16-.12,7.46-.07,1.73-.09,3.46-.1,5.17-.18-.16-.37-.32-.6-.46-.6-.4-1.23-.63-1.74-.81,0,0-.01,0-.02,0,.13-.21.24-.48.27-.81.09-.83-.37-1.44-.56-1.69-.4-.53-1.03-.85-1.67-.85-.44,0-.86.14-1.23.42-.32.24-.55.57-.67.94,0,0,0,0,0,0-.14.37-.32.76-.52,1.16-.04.08-.08.17-.12.25-.05,0-.1-.01-.15-.02-.63-.07-1.3-.02-2.08.17-.65.16-1.29.46-1.91.88-.2.14-.39.29-.57.48-1.49,1.23-1.82,3.27-1.89,4.19-13.82,1.34-16.42,3.46-17.09,5.36-.25.7-.43,2.08,1.11,3.56.62.6,2.52,2.43,13.09,3.66,5.93.69,13.58,1.07,21.54,1.07s15.95-.39,22.01-1.11c9.7-1.14,12.09-2.73,13.05-3.82.75-.86.82-1.72.74-2.3-.36-2.64-3.27-5.79-22.4-6.92-.1-1.38-.21-2.77-.31-4.12-.4-5.15-.81-10.47-.72-15.73.85.19,1.68.28,2.36.32-.31.85-.41,1.67-.44,2.13-.13,1.91.56,4.04,1.88,5.85.54.73,1.29,1.63,2.38,2.07l.05.02c.32.13.76.31,1.33.31.17,0,.35-.02.51-.05.22-.04.41-.11.54-.16,0,0,.01,0,.02,0,.04.02.1.05.15.08.17.09.39.21.67.31.02,0,.04.01.05.02.07.02.15.04.23.05.46.11,1.01.07,1.37.02h.05c1.16-.17,2.11-.86,2.81-1.45,1.71-1.44,2.89-3.34,3.22-5.23.13-.75.45-3.34-1.04-5l-.06-.06c-.34-.38-.73-.82-1.3-1.19-.32-.21-.64-.38-.95-.51.22-.13.45-.27.66-.42,2.8-1.86,5.04-4.5,6.31-7.42.55-1.27.81-2.64.79-4.19,2.35-1.18,4.53-2.79,6.24-4.62,3.8-4.08,5.37-9.33,4.42-14.8-.96-5.53-5.48-10.11-11.51-11.66Z"/>
          <g>
            <path class="cls-2" d="M40.42,85.78s-35.25.8-28.92,6.9c6.33,6.1,68.51,5.57,67.6-1.06-.9-6.63-38.68-5.84-38.68-5.84Z"/>
            <g>
              <path class="cls-21" d="M32.89,40.65s8.2,6.66,8.92,17.12c.71,10.46-.18,31.42-.21,31.34-.03-.07-.27,1.35-1.45,2.07-1.19.71,3.21.47,4.52-1.43,1.31-1.9,1.43,4.16,2.97,2.85,1.55-1.31,2.02-3.45,2.02-3.45,0,0,3.8,3.33,6.06,2.86,2.26-.48.48-3.21.48-3.21,0,0,3.57,2.62,3.57,1.54s-3.45-2.38-4.04-7.84c-.59-5.47-.59-26.04.24-30.55.83-4.52,4.4-11.06,5.11-12.13.71-1.07-.83-8.32-1.66-9.15s-13.2-1.43-13.2-1.43c0,0-12.48,2.85-13.31,11.41Z"/>
              <path class="cls-13" d="M42.59,89.11c-.03-.07-.26,1.35-1.45,2.07-.47.28-.07.41.66.36,2.81-1.76,3.49-6.16,3.78-9.18.34-3.54.22-7.08.21-10.63-.02-6.34,1.11-13.71-1.74-19.62-2.29-4.76-6.09-8.4-10.13-11.68-.01.08-.03.15-.03.23,0,0,8.2,6.66,8.92,17.12.71,10.46-.18,31.42-.21,31.34Z"/>
              <path class="cls-13" d="M53.43,41.52c-1.01,2.65-2.83,6.06-2.21,8.99,2.8-1.1,4.48-5.51,6.17-7.72,1.09-1.43,2.26-2.86,3.55-4.16-.03-2.3-1.09-6.92-1.77-7.88-2.19,3.43-4.3,6.96-5.75,10.76Z"/>
              <path class="cls-13" d="M44.9,29.4c-1.26,1.71-2.15,3.81-2.71,5.59-.99,3.14-1.98,7.48.07,10.41.2.28.01.55-.24.64.37.65.8,1.25,1.33,1.71,2.37,2.05,3.71-2.5,4.12-4.23.88-3.71.94-7.52.94-11.31,0-.26.17-.39.37-.43,0-.79,0-1.57-.05-2.36-1.84-.12-3.19-.18-3.19-.18,0,0-.24.06-.65.17Z"/>
              <path class="cls-5" d="M87.94,31c-.91-5.26-5.28-9.03-10.28-10.32-1.62-.42-3.24-.68-4.86-.61.12-3.18-.71-6.46-2.16-9.13-2.36-4.36-6.66-6.96-11.41-7.93-4.98-1.02-10.2.59-14.17,3.61-.11.08-.21.17-.32.26-.83-1.33-1.95-2.49-3.3-3.38-3.91-2.57-9.19-2.18-13.27-.32-3.89,1.77-7.45,4.34-9.64,8.06-1.01,1.71-1.8,4.24-1.74,6.58-2.32.61-4.5,1.98-5.89,3.68-2.1,2.57-2.41,6.7-1.1,9.96-5.41,3.42-8.89,10.74-7.99,16.71.67,4.5,3.42,8.33,7.48,10.4,2.31,1.18,5.12,1.22,7.65,1.23,1.81.01,3.69-.15,5.32-.95.59,3.48,3.43,6.51,7.11,7.89,2.7,1.01,6.2,1.18,8.98.4.82-.23,2.34-.42,3.29-1.04.05,3.3.05,6.59-.1,9.91-.19,4.38-.02,8.72-.09,13.09,0,.35.54.05.57-.16.76-4.38.69-9.03.91-13.47.23-4.54.19-9.06-.07-13.61-.42-7.38-2.7-16.89-9.64-20.9.69-.38,1.46-.95,2.2-1.63,1.48,2.23,2.66,4.47,4.44,6.57.95,1.13,2.41,3.49,4.21,2.38,1.28-.79,1.6-2.56,1.95-3.88.8-3.08,1.78-6.48,1.6-9.71.84.58,1.8,1.01,2.73,1.26.3.08.6.13.89.18-.14.44-.31.88-.39,1.27-.29,1.36-.45,2.72-.48,4.12-.03,1.8-.32,4.81,1.28,6.07.81.63,1.84-.63,2.22-1.15,1.6-2.23,3.31-4.38,4.95-6.59.06.08.11.15.18.22.33.39.7.71,1.1.98-1.94,2.71-3.46,5.08-4.25,8.52-.94,4.1-1.26,8.24-1.48,12.44-.44,8.62.16,17.58,2.2,26,.04.17.35-.04.34-.17-.45-7.93-1.42-15.75-1.24-23.71.01-.62.04-1.24.06-1.85,1.57.98,4.48,1.13,5.97,1.01,3.31-.26,6.42-1.07,9.19-2.91,2.45-1.63,4.53-4,5.71-6.69.53-1.22.69-2.48.64-3.8-.01-.25-.06-.49-.13-.72,2.62-1.12,5.03-2.82,6.83-4.76,3.42-3.67,4.85-8.43,3.99-13.38Z"/>
              <path class="cls-19" d="M54.6,44.08c-.57.7-1.14,1.4-1.67,2.13-1.05,1.43-1.56-3.19-1.54-2.95-.12-1.78-.24-3.54-.2-5.33,0-.42.12-1.09.16-1.73,2.2.19,4.46-.43,6.32-1.62-.87,1.52-.45,3.59.51,5.02-1.18,1.5-2.38,3-3.58,4.48Z"/>
              <path class="cls-19" d="M76.63,48.32c-.28-.54-.62-1.05-.92-1.58.17,1.02.22,2.04.17,3.06.15.98.15,1.99-.2,3.22-.84,2.88-3.46,5.25-5.87,6.83-4.05,2.66-9.67,2.64-14.1,1.06-.02,0-.04,0-.06,0,.13-2.77.37-5.54.74-8.28.57-4.21,1.98-7.71,3.85-11.4,1.9,1.11,4.4,1.02,6.29-.07.04-.02.07-.05.11-.09-2.46.39-5.36.1-6.72-1.47-1.78-2.05-2.02-4.82-.4-6.86-2.38,1.46-4.89,2.22-7.7,1.94-.02,0-.04,0-.06,0-.64-.03-1.27-.15-1.89-.37-2.71-.97-3.99-2.69-4.87-5.12-.65,2.11.46,3.99,2.14,5.27-.07.06-.12.14-.13.2-.36,2.41-.56,4.8-1.07,7.19-.19.9-.43,1.79-.67,2.68-.2.73-.91,4.12-2.76,2.3-2.47-2.42-4.3-5.46-6.86-7.8,1.87-1.87,3.34-4.48,2.27-6.66-.27,2.48-1.4,5.08-3.16,6.51-1.58,1.28-3.22,1.98-5.24,2.3-1.28.2-2.51-.03-3.73-.32,1.62,1.78,4.85,1.36,6.96.34,6.26,5.47,8.52,14.1,8.72,22.07.02.59.03,1.17.04,1.75-.71.66-3.95,1.06-4.57,1.15-2.65.4-5.56-.1-7.99-1.17-2.81-1.24-5.07-3.81-5.8-6.72,0,0,0,0,0-.01-.44-.97-.72-2.01-.77-3.03-.26.87-.37,1.74-.34,2.58-3.4.7-6.95.83-10.34-.06-3.74-.99-6.53-4.35-7.87-7.83-2.3-5.97.65-13.2,5.71-17.17.5-.58,1.06-1.1,1.7-1.55.65-.45,1.38-.93,2.16-1.33-.97.24-1.91.6-2.81,1.08-.91-2.54-.79-5.45.4-8.02,1.11-2.4,3.32-3.66,5.77-4.12.19,1.37.72,2.61,1.73,3.52-.65-2.19-.72-4.44-.23-6.58.2-1.51.68-3,1.4-4.38,1.81-3.49,5.58-5.68,9.03-7.24,4.18-1.9,9.37-1.1,12.9,1.57,2.37,1.18,3.81,3.81,4.61,6.57,0-1.66-.43-3.28-1.2-4.73,1.37-1.06,2.94-1.86,4.56-2.47,4.03-1.53,8.65-1.14,12.56.54,3.54,1.53,6.23,4.57,7.78,8.05,1,2.24,1.28,4.42,1.15,6.61-.33.06-.66.14-.99.24-.77.22-1.96.43-2.89.88,1.52-.13,3.02-.54,4.56-.49.3,0,.6.03.89.04,0,0,0-.02,0-.02,1.96.03,3.88.63,5.7,1.32,4.05,1.53,6.81,4.75,8.04,8.85,2.25,7.49-3.08,14.18-9.7,17.25Z"/>
              <path class="cls-14" d="M79.54,25.03c4.31,3.42,6.71,8.21,6.86,13.24.73-2.24.84-4.68.08-7.21-1.23-4.09-3.99-7.32-8.04-8.85-1.81-.68-3.74-1.29-5.7-1.32,0,0,0,.02,0,.02-.3-.02-.59-.04-.9-.04-1.14-.03-2.25.18-3.36.34,3.87-.05,7.76,1.19,11.06,3.82Z"/>
              <path class="cls-14" d="M29.49,19.37c-3.15-.66-7.95,2.35-8.8,5.13-.12.41-.8.47-.89,0-1.27-7.21,3.26-14.66,10.21-17.05,6.62-2.28,13.33.52,14.6,7.43,2.01-2.9,5.52-5.19,8.88-5.61,1.3-.37,2.69-.45,3.97.11,1.18.51,2.07,1.33,2.7,2.31,1.97,2.27,2.65,5.72,1.88,8.84-.2.81-.48,1.6-.83,2.34,1.97-.92,4.07-1.47,6.19-1.61.89-.37,1.94-.57,2.63-.77.33-.09.66-.17.99-.24.13-2.18-.15-4.36-1.15-6.61-1.55-3.47-4.24-6.52-7.78-8.04-3.9-1.68-8.53-2.07-12.56-.54-1.61.61-3.19,1.41-4.56,2.47.77,1.45,1.19,3.07,1.2,4.73-.81-2.76-2.24-5.38-4.61-6.57-3.52-2.68-8.71-3.47-12.9-1.57-3.45,1.57-7.23,3.76-9.04,7.25-.71,1.38-1.2,2.87-1.4,4.38-.49,2.13-.41,4.39.23,6.58-1.01-.91-1.55-2.15-1.73-3.51-2.45.46-4.66,1.71-5.77,4.12-1.19,2.58-1.31,5.48-.4,8.02.89-.47,1.83-.84,2.81-1.08-.78.39-1.51.87-2.16,1.33-.64.45-1.2.97-1.7,1.55-5.06,3.97-8.01,11.2-5.7,17.17.77,2,2.02,3.96,3.66,5.45-.5-1.5-.76-3.11-.81-4.66-.21-5.78,2.05-10.92,6.02-14.89.74-.94,1.64-1.74,2.72-2.34.39-.22.73.13.68.52-.33,2.33.01,4.86,1.31,6.83-.69-9.15,4.34-16.82,12.12-21.48Z"/>
            </g>
            <g>
              <path class="cls-5" d="M72.23,65.04c-.32-.36-.62-.71-1.03-.97-.43-.29-.91-.46-1.39-.64-.3-.11-.67-.14-.99-.19-.58-.1-1.16.11-1.74.02-.53-.08-1.03-.27-1.56-.33-.5-.06-1.01.01-1.49.13-.49.12-.94.35-1.35.63-.15.1-.27.21-.39.34-.91.71-1.29,2.09-1.36,3.15-.11,1.68.58,3.41,1.56,4.74.42.58.97,1.23,1.66,1.5.32.13.6.26.96.19.17-.03.32-.11.49-.16.21-.07.45-.03.67,0,.41.05.72.33,1.09.46,0,0,.01,0,.02,0,.29.1.57.05.88,0,.73-.1,1.42-.61,1.97-1.06,1.27-1.06,2.36-2.57,2.65-4.23.19-1.09.17-2.69-.64-3.58Z"/>
              <path class="cls-27" d="M72.57,69.01c-.49,1.56-1.5,2.96-2.83,3.92-.51.37-1.16.8-1.82.84-.34.07-.68-.02-1.01-.18-.23-.12-.48-.31-.75-.34-.24-.03-.47.04-.7.09-.06.02-.12.04-.17.06-.24.06-.37.05-.61,0-.71-.14-1.29-.77-1.74-1.3-1.07-1.25-1.71-2.84-1.81-4.48-.07-1.14.27-2.85,1.31-3.54,1.03-.99,2.72-1.25,4.06-.72.12.04.25.07.38.08.43.05.85-.02,1.27-.04.4-.02.8,0,1.19.08.68.15,1.4.42,1.94.88.26.22.5.37.7.66.11.09.23.29.32.4.7.95.62,2.56.29,3.6Z"/>
              <g class="cls-15">
                <path class="cls-6" d="M61.4,69.07c-.25-1.58,0-3.47,1.2-4.64.57-.55,1.28-.91,2.06-1.05.45-.08.91-.1,1.36-.04.19.03.4.05.6.05-.04,0-.09-.02-.13-.04-1.33-.53-3.02-.28-4.06.72-1.04.7-1.38,2.4-1.31,3.54.04.61.16,1.22.34,1.81-.02-.12-.05-.24-.06-.36Z"/>
              </g>
              <path class="cls-4" d="M72.28,65.41c-.09-.11-.21-.31-.32-.4-.19-.29-.44-.44-.7-.66-.54-.46-1.25-.73-1.94-.88-.39-.09-.79-.1-1.19-.08-.42.02-.84.09-1.27.04-.09,0-.18-.03-.27-.05.05.08.05.18-.06.26-.22.17-.67.19-.57.58,0,.02.01.04.02.06,0,0,0,0,0,.01,0,.01.01.02.02.04.04.07.09.14.18.2.03.02.07.04.1.06.22.08.45.11.68.1.39-.02.78-.11,1.16-.03,0,0,0,0,0,0,.52.03,1.04.34,1.31.77.42.67.56,1.55.6,2.33.05.94-.05,1.89-.27,2.8-.16.66-.39,1.36-.86,1.87-.22.25-.48.46-.79.58-.37.15-.73.15-1.11.05-.38-.1-.76-.27-1.16-.27-.43,0-.83.22-1.26.17-.42-.04-.76-.28-1.07-.55-.32-.28-.61-.6-.86-.95-.59-.81-1.06-1.73-1.39-2.69.27,1.22.83,2.37,1.65,3.32.45.52,1.03,1.16,1.74,1.3.24.05.37.06.61,0,.06-.02.12-.04.17-.06.23-.05.46-.12.7-.09.27.03.51.22.75.34.33.16.67.25,1.01.18.66-.04,1.31-.47,1.82-.84,1.33-.96,2.34-2.36,2.83-3.92.33-1.03.41-2.64-.29-3.6Z"/>
              <g>
                <path class="cls-5" d="M68.7,61.23c.09-.1.26-.22.26-.36.03-.18-.12-.38-.22-.51-.13-.17-.36-.25-.54-.11-.06.05-.1.11-.12.19,0,0,0,0,0,0-.27.74-.66,1.43-.98,2.16-.21.49-.45,1.2-.33,1.78-.22-.08-.42-.22-.61-.36.03.06.06.12.1.17.04.05.08.1.13.14.05.04.11.08.16.12.1.05.2.09.32.11.34.04.66-.03.94-.21-.17.03-.33.07-.49.09,0-.8.18-1.52.63-2.22.22-.34.48-.69.75-.99Z"/>
                <path class="cls-24" d="M67.13,64.45c-.06,0-.12,0-.18-.02-.01-.26-.04-.52,0-.79.05-.42.2-.82.37-1.21.27-.62.62-1.2.79-1.86.01.03.02.06.05.08h0c-.03-.12,0-.28.08-.35.14-.13.33,0,.44.12.1.12.31.39.18.55-.08.09-.23.09-.35.04,0,.01,0,.03,0,.04.06.06.15.08.24.06-.05.04-.11.09-.15.13-.13.12-.23.28-.35.41-.24.3-.47.62-.65.96-.26.48-.53,1.23-.45,1.84Z"/>
                <path class="cls-16" d="M67.35,62.76c.17-.39.37-.76.57-1.13.13-.23.27-.46.45-.66-.04-.2-.05-.4.12-.43.15-.02.26.05.34.15-.05-.11-.13-.21-.18-.27-.1-.12-.29-.24-.44-.12-.09.08-.1.23-.08.35h0s-.04-.05-.05-.08c-.16.65-.52,1.24-.79,1.86-.17.39-.32.79-.37,1.21-.03.22,0,.44,0,.66.04-.53.19-1.06.41-1.55Z"/>
              </g>
            </g>
            <g>
              <path class="cls-5" d="M33.31,45.53c-.33-.36-.62-.71-1.03-.97-.43-.28-.91-.46-1.39-.64-.3-.11-.67-.14-.99-.19-.58-.1-1.16.11-1.74.02-.53-.08-1.03-.27-1.56-.33-.5-.06-1.01.01-1.49.13-.49.12-.94.35-1.35.63-.15.11-.27.21-.39.34-.91.71-1.29,2.09-1.36,3.15-.11,1.68.58,3.41,1.56,4.74.42.58.97,1.23,1.65,1.5.32.13.6.25.96.19.17-.03.32-.11.49-.16.22-.07.45-.03.67,0,.41.05.72.33,1.1.46,0,0,.01,0,.02,0,.29.1.57.05.88.01.73-.1,1.42-.61,1.97-1.07,1.27-1.06,2.36-2.57,2.65-4.23.19-1.09.16-2.69-.64-3.58Z"/>
              <path class="cls-27" d="M33.65,49.49c-.49,1.56-1.5,2.96-2.83,3.92-.51.37-1.16.8-1.82.84-.34.06-.68-.02-1.01-.18-.24-.12-.48-.31-.75-.34-.24-.03-.47.04-.7.09-.06.02-.12.04-.18.06-.24.06-.37.05-.61,0-.71-.14-1.3-.77-1.74-1.3-1.06-1.25-1.7-2.84-1.81-4.48-.07-1.14.27-2.85,1.31-3.54,1.04-1,2.72-1.25,4.06-.72.12.04.25.07.38.08.43.04.85-.02,1.27-.05.4-.02.8,0,1.19.08.69.15,1.4.42,1.94.88.26.22.5.37.7.66.11.09.23.29.32.39.7.95.62,2.56.29,3.6Z"/>
              <g class="cls-15">
                <path class="cls-6" d="M22.48,49.56c-.24-1.58,0-3.48,1.2-4.64.57-.56,1.28-.91,2.06-1.05.45-.08.91-.1,1.36-.03.19.03.4.05.6.05-.04,0-.09-.02-.13-.04-1.33-.53-3.02-.28-4.06.72-1.04.69-1.38,2.4-1.31,3.54.04.62.16,1.22.34,1.81-.02-.12-.05-.24-.06-.36Z"/>
              </g>
              <path class="cls-4" d="M33.36,45.9c-.09-.11-.21-.3-.32-.39-.19-.29-.44-.44-.7-.66-.54-.46-1.25-.73-1.94-.88-.39-.09-.79-.1-1.19-.08-.42.02-.84.09-1.27.05-.09-.01-.18-.03-.27-.05.05.09.05.18-.06.26-.22.18-.67.19-.57.59,0,.02.01.04.02.06,0,0,0,0,0,0,0,.01,0,.02.02.03.04.08.09.14.18.21.03.02.07.04.1.06.22.09.45.11.68.1.39-.02.78-.11,1.17-.03h0c.52.03,1.04.34,1.31.77.42.68.56,1.54.6,2.33.05.94-.05,1.89-.27,2.8-.16.66-.39,1.36-.86,1.87-.22.25-.48.46-.79.58-.37.15-.73.15-1.11.05-.38-.1-.76-.27-1.16-.27-.43,0-.83.22-1.26.18-.42-.04-.76-.28-1.07-.55-.32-.28-.61-.6-.86-.95-.59-.81-1.06-1.73-1.39-2.69.27,1.22.83,2.37,1.64,3.32.45.52,1.03,1.16,1.74,1.3.23.05.37.06.61,0,.06-.02.12-.04.18-.06.23-.05.46-.12.7-.09.27.03.51.22.75.34.33.16.67.25,1.01.18.66-.04,1.31-.47,1.82-.84,1.33-.96,2.33-2.35,2.83-3.92.33-1.03.41-2.64-.29-3.6Z"/>
              <g>
                <path class="cls-5" d="M29.78,41.72c.09-.1.26-.22.26-.36.03-.19-.12-.38-.23-.51-.13-.17-.36-.25-.54-.11-.06.05-.1.12-.12.19,0,0,0,0,0,0-.27.74-.66,1.43-.98,2.15-.21.49-.45,1.2-.33,1.78-.22-.08-.42-.22-.61-.36.03.06.06.11.1.17.04.05.08.1.13.14.05.04.11.08.16.12.1.06.2.09.32.11.34.04.66-.03.94-.21-.17.03-.33.07-.49.09,0-.8.17-1.52.63-2.22.22-.34.48-.69.75-.99Z"/>
                <path class="cls-24" d="M28.21,44.94c-.06,0-.12,0-.18-.02-.01-.26-.04-.52,0-.79.05-.42.2-.82.37-1.21.27-.62.62-1.2.79-1.86,0,.03.03.06.05.08h0c-.02-.12,0-.28.08-.35.15-.12.33,0,.44.12.1.12.31.39.18.54-.08.09-.23.09-.34.04,0,.02,0,.03,0,.04.06.06.15.08.23.06-.05.04-.11.09-.15.13-.13.12-.23.28-.34.42-.24.3-.47.62-.65.96-.25.48-.53,1.23-.45,1.84Z"/>
                <path class="cls-16" d="M28.42,43.25c.17-.39.37-.76.57-1.13.13-.23.27-.46.45-.65-.05-.2-.05-.4.12-.43.15-.02.26.05.34.15-.05-.1-.13-.21-.18-.27-.1-.12-.29-.24-.44-.12-.09.08-.1.23-.08.35h0s-.04-.06-.05-.08c-.16.66-.52,1.24-.79,1.86-.17.38-.32.79-.37,1.21-.03.22,0,.44,0,.66.04-.53.19-1.06.41-1.55Z"/>
              </g>
            </g>
            <g>
              <path class="cls-5" d="M78.06,32.42c-.33-.36-.62-.71-1.03-.97-.43-.28-.91-.46-1.39-.64-.3-.11-.67-.14-.99-.19-.58-.1-1.16.11-1.74.02-.53-.08-1.03-.27-1.56-.33-.5-.06-1.01.01-1.49.13-.49.12-.94.35-1.35.63-.15.1-.27.21-.39.34-.91.7-1.28,2.09-1.35,3.15-.11,1.68.58,3.41,1.56,4.74.42.58.97,1.23,1.66,1.5.32.13.6.25.96.19.17-.03.32-.11.48-.16.22-.06.45-.03.67,0,.41.05.72.33,1.09.47,0,0,.01,0,.02,0,.29.1.57.05.88,0,.73-.1,1.42-.6,1.97-1.06,1.27-1.06,2.36-2.58,2.65-4.23.19-1.09.16-2.69-.64-3.58Z"/>
              <path class="cls-27" d="M78.4,36.39c-.49,1.56-1.5,2.96-2.83,3.92-.51.37-1.16.8-1.83.84-.34.06-.68-.02-1.01-.18-.24-.12-.48-.31-.75-.34-.24-.03-.47.04-.7.09-.06.02-.12.04-.17.05-.24.07-.37.05-.61,0-.71-.14-1.3-.77-1.74-1.3-1.06-1.25-1.71-2.84-1.81-4.48-.07-1.14.27-2.85,1.31-3.54,1.04-1,2.72-1.25,4.06-.72.12.04.25.07.38.08.43.05.85-.02,1.27-.05.4-.02.8,0,1.19.08.68.15,1.4.42,1.94.88.25.22.5.37.69.66.11.09.23.29.33.39.7.95.62,2.56.29,3.6Z"/>
              <g class="cls-15">
                <path class="cls-6" d="M67.23,36.46c-.24-1.58,0-3.48,1.2-4.64.57-.56,1.28-.91,2.06-1.05.45-.08.91-.1,1.36-.04.19.03.4.05.6.05-.04-.01-.09-.02-.13-.04-1.33-.53-3.02-.28-4.06.72-1.04.69-1.38,2.4-1.31,3.54.04.62.16,1.22.34,1.81-.03-.12-.05-.24-.07-.36Z"/>
              </g>
              <path class="cls-4" d="M78.11,32.79c-.09-.11-.22-.3-.33-.39-.19-.29-.44-.44-.69-.66-.54-.46-1.25-.73-1.94-.88-.39-.09-.79-.1-1.19-.08-.42.02-.84.09-1.27.05-.09,0-.18-.03-.27-.05.05.09.05.18-.05.26-.22.18-.67.19-.57.58,0,.02.01.04.02.06,0,0,0,0,0,0,0,.01.01.02.02.04.04.07.09.14.18.2.03.02.07.04.1.06.22.09.45.11.68.1.39-.02.78-.11,1.17-.03h0c.52.03,1.04.34,1.31.77.42.67.56,1.54.6,2.33.05.94-.05,1.89-.27,2.8-.16.66-.39,1.36-.86,1.87-.22.25-.48.45-.79.58-.37.15-.73.15-1.11.05-.38-.1-.76-.27-1.16-.27-.43,0-.83.22-1.26.18-.42-.04-.76-.28-1.07-.55-.32-.28-.61-.6-.86-.95-.59-.81-1.06-1.73-1.39-2.69.27,1.22.83,2.37,1.64,3.32.45.52,1.03,1.16,1.74,1.3.23.05.37.06.61,0,.06-.02.12-.04.17-.05.23-.05.46-.12.7-.09.27.03.51.22.75.34.33.16.67.25,1.01.18.66-.04,1.31-.47,1.83-.84,1.33-.96,2.33-2.35,2.83-3.92.33-1.03.41-2.64-.29-3.6Z"/>
              <g>
                <path class="cls-5" d="M74.53,28.61c.09-.1.26-.22.26-.36.03-.19-.12-.38-.23-.51-.13-.17-.36-.25-.54-.11-.06.05-.1.11-.11.19,0,0,0,0,0,0-.27.74-.66,1.43-.98,2.15-.21.49-.45,1.2-.33,1.78-.22-.08-.42-.22-.61-.36.03.06.06.12.1.17.04.05.08.1.13.14.05.04.11.08.16.12.1.06.2.09.32.11.34.04.66-.03.94-.21-.17.03-.33.07-.49.09,0-.8.17-1.52.63-2.22.22-.34.47-.69.75-.99Z"/>
                <path class="cls-24" d="M72.96,31.84c-.06,0-.12,0-.18-.02-.01-.26-.04-.52,0-.79.05-.42.2-.82.37-1.21.27-.62.62-1.2.79-1.86.01.03.03.06.05.09h0c-.02-.12,0-.28.08-.35.14-.12.33,0,.44.12.1.12.31.39.17.54-.08.09-.23.09-.34.04,0,.01,0,.03,0,.04.06.06.15.08.23.06-.05.05-.11.09-.15.13-.13.12-.23.28-.34.41-.24.3-.47.62-.65.96-.25.48-.53,1.23-.45,1.84Z"/>
                <path class="cls-16" d="M73.18,30.14c.17-.39.37-.76.57-1.13.13-.23.27-.46.45-.65-.05-.2-.05-.4.12-.43.15-.02.26.05.34.15-.05-.1-.13-.21-.18-.26-.1-.12-.29-.24-.44-.12-.09.07-.1.23-.08.35h0s-.04-.06-.05-.09c-.16.65-.52,1.24-.79,1.86-.17.39-.32.79-.37,1.21-.03.22,0,.44,0,.67.04-.53.19-1.06.41-1.55Z"/>
              </g>
            </g>
            <g>
              <path class="cls-5" d="M22.32,22.98c-.32-.36-.62-.71-1.03-.97-.43-.28-.91-.46-1.39-.64-.3-.11-.67-.14-.99-.19-.58-.1-1.16.11-1.74.02-.53-.08-1.03-.27-1.56-.33-.5-.06-1.01.01-1.49.13-.49.12-.94.34-1.35.63-.15.1-.27.21-.39.34-.91.7-1.28,2.09-1.35,3.15-.11,1.68.58,3.41,1.56,4.74.42.58.98,1.23,1.66,1.5.32.13.6.26.96.19.17-.03.32-.11.48-.16.22-.07.45-.03.67,0,.41.05.72.33,1.09.46,0,0,.01,0,.02,0,.29.1.57.05.88.01.73-.1,1.42-.61,1.97-1.06,1.27-1.06,2.36-2.58,2.65-4.24.19-1.09.16-2.69-.64-3.58Z"/>
              <path class="cls-27" d="M22.66,26.95c-.49,1.56-1.5,2.96-2.83,3.92-.51.37-1.16.8-1.82.84-.34.06-.68-.02-1.01-.18-.24-.12-.48-.31-.75-.34-.24-.03-.47.04-.7.09-.06.02-.12.04-.18.06-.23.06-.37.05-.61,0-.71-.14-1.3-.77-1.74-1.3-1.06-1.25-1.71-2.84-1.81-4.48-.07-1.14.27-2.85,1.31-3.54,1.04-1,2.72-1.25,4.06-.72.12.04.25.07.38.08.43.05.85-.02,1.27-.05.4-.02.8,0,1.19.08.68.15,1.4.42,1.93.88.26.22.5.37.7.66.11.09.23.29.33.4.7.95.62,2.56.29,3.59Z"/>
              <g class="cls-15">
                <path class="cls-6" d="M11.48,27.01c-.24-1.58,0-3.48,1.2-4.64.57-.55,1.28-.91,2.06-1.05.45-.08.91-.1,1.36-.03.19.03.4.05.6.05-.04-.01-.09-.02-.13-.04-1.33-.53-3.02-.28-4.06.72-1.04.69-1.38,2.4-1.31,3.54.04.62.16,1.22.34,1.81-.02-.12-.05-.24-.06-.36Z"/>
              </g>
              <path class="cls-4" d="M22.36,23.35c-.09-.11-.22-.31-.33-.4-.19-.29-.44-.44-.7-.66-.54-.46-1.25-.73-1.93-.88-.39-.09-.79-.1-1.19-.08-.42.02-.84.09-1.27.05-.09,0-.18-.03-.27-.05.05.09.05.18-.05.26-.22.17-.67.19-.57.59,0,.02.01.04.02.05,0,0,0,0,0,0,0,.01.01.02.02.04.04.08.09.14.18.2.03.02.07.04.1.06.22.09.45.11.68.1.39-.02.78-.11,1.17-.03,0,0,0,0,0,0,.52.03,1.04.34,1.31.77.42.67.56,1.54.6,2.33.05.94-.05,1.89-.27,2.8-.16.66-.39,1.36-.86,1.87-.22.25-.48.45-.79.58-.37.15-.73.15-1.11.05-.38-.1-.76-.27-1.16-.27-.43,0-.83.22-1.26.17-.42-.04-.76-.28-1.07-.55-.32-.28-.61-.6-.86-.95-.59-.81-1.06-1.73-1.39-2.69.27,1.22.83,2.37,1.64,3.32.45.53,1.03,1.16,1.74,1.3.23.05.37.06.61,0,.06-.02.12-.04.18-.06.23-.05.46-.12.7-.09.27.03.51.22.75.34.33.16.67.25,1.01.18.66-.04,1.31-.47,1.82-.84,1.33-.96,2.33-2.35,2.83-3.92.32-1.03.41-2.64-.29-3.59Z"/>
              <g>
                <path class="cls-5" d="M18.78,19.17c.09-.1.26-.22.26-.36.03-.19-.12-.38-.23-.51-.13-.17-.36-.25-.54-.11-.06.05-.1.12-.12.19,0,0,0,0,0,0-.27.74-.66,1.43-.98,2.15-.21.5-.45,1.2-.33,1.78-.22-.08-.42-.22-.61-.36.03.06.06.11.1.17.04.05.08.1.13.14.05.04.11.08.16.12.1.06.2.09.32.11.34.04.65-.03.94-.21-.17.03-.33.07-.49.09,0-.8.18-1.52.63-2.22.22-.34.47-.69.75-.99Z"/>
                <path class="cls-24" d="M17.22,22.39c-.06,0-.12,0-.18-.02-.01-.26-.04-.52,0-.79.05-.42.2-.82.37-1.21.27-.62.62-1.2.79-1.86.01.03.03.06.05.08h0c-.02-.12,0-.28.08-.35.15-.13.33,0,.44.12.1.12.31.39.17.54-.08.09-.23.09-.34.04,0,.01,0,.03,0,.04.06.06.15.08.23.06-.05.05-.11.09-.15.13-.13.12-.23.28-.34.42-.24.29-.47.62-.65.95-.26.48-.53,1.23-.45,1.84Z"/>
                <path class="cls-16" d="M17.43,20.7c.17-.39.37-.76.57-1.13.13-.23.27-.46.45-.65-.05-.2-.05-.4.12-.43.15-.02.26.05.34.15-.05-.1-.12-.21-.18-.27-.1-.12-.29-.24-.44-.12-.09.07-.1.23-.08.35h0s-.04-.05-.05-.08c-.16.65-.52,1.24-.79,1.86-.17.39-.32.79-.37,1.21-.03.22,0,.45,0,.66.03-.53.19-1.06.4-1.55Z"/>
              </g>
            </g>
            <g>
              <path class="cls-5" d="M56.46,8.77c-.32-.36-.62-.7-1.03-.97-.43-.29-.91-.46-1.39-.64-.3-.11-.67-.14-.99-.19-.58-.1-1.16.11-1.74.02-.53-.08-1.03-.27-1.56-.33-.5-.06-1.01.01-1.49.13-.49.12-.94.35-1.35.63-.15.1-.27.21-.39.34-.91.7-1.28,2.09-1.36,3.15-.11,1.68.58,3.41,1.56,4.74.42.58.97,1.23,1.66,1.5.32.13.6.25.96.19.17-.03.32-.11.49-.16.21-.06.45-.03.67,0,.41.05.72.33,1.1.47,0,0,.01,0,.02,0,.29.1.57.05.88.01.73-.1,1.42-.6,1.97-1.06,1.27-1.06,2.36-2.58,2.65-4.23.19-1.09.16-2.69-.64-3.58Z"/>
              <path class="cls-27" d="M56.8,12.73c-.49,1.56-1.5,2.96-2.83,3.92-.51.37-1.16.8-1.82.84-.34.06-.68-.02-1.01-.18-.24-.12-.48-.31-.75-.34-.24-.03-.47.04-.7.09-.06.02-.12.04-.18.06-.24.07-.37.05-.61,0-.71-.14-1.3-.77-1.74-1.3-1.06-1.25-1.7-2.84-1.81-4.48-.07-1.14.27-2.85,1.31-3.54,1.04-1,2.72-1.25,4.06-.72.12.04.25.07.38.08.43.05.84-.02,1.27-.05.4-.02.8,0,1.19.08.68.15,1.4.42,1.94.88.26.22.5.37.69.66.11.09.23.29.33.4.7.95.62,2.56.29,3.59Z"/>
              <g class="cls-15">
                <path class="cls-6" d="M45.63,12.8c-.24-1.58,0-3.48,1.2-4.64.57-.55,1.28-.91,2.06-1.05.45-.08.91-.1,1.36-.04.19.03.4.05.6.05-.04-.01-.09-.02-.13-.04-1.33-.53-3.02-.28-4.06.72-1.04.69-1.38,2.4-1.31,3.54.04.62.16,1.22.34,1.81-.03-.12-.05-.24-.07-.36Z"/>
              </g>
              <path class="cls-4" d="M56.51,9.14c-.09-.11-.22-.3-.33-.4-.19-.29-.44-.44-.69-.66-.54-.46-1.25-.73-1.94-.88-.39-.09-.79-.1-1.19-.08-.42.02-.84.09-1.27.05-.09,0-.18-.03-.27-.05.05.09.05.18-.05.26-.22.17-.67.19-.57.58,0,.02.01.04.02.06,0,0,0,0,0,0,0,.01.01.02.02.04.04.08.09.14.18.2.03.02.07.04.1.06.22.08.45.11.68.1.38-.02.78-.11,1.16-.03,0,0,0,0,0,0,.52.03,1.04.34,1.31.77.42.67.56,1.55.6,2.33.05.94-.05,1.89-.27,2.8-.16.66-.39,1.36-.86,1.87-.22.25-.49.46-.79.58-.37.15-.73.15-1.11.05-.38-.1-.76-.28-1.16-.27-.43,0-.83.22-1.26.17-.42-.04-.76-.28-1.06-.55-.32-.28-.61-.6-.86-.95-.59-.81-1.06-1.73-1.39-2.69.27,1.22.83,2.37,1.64,3.32.45.52,1.03,1.16,1.74,1.3.23.05.37.06.61,0,.06-.02.12-.04.18-.06.23-.05.46-.12.7-.09.27.03.51.22.75.34.33.17.67.25,1.01.18.66-.04,1.31-.47,1.82-.84,1.33-.96,2.33-2.35,2.83-3.92.33-1.03.41-2.64-.29-3.59Z"/>
              <g>
                <path class="cls-5" d="M52.93,4.96c.09-.1.26-.22.26-.36.03-.18-.12-.38-.23-.51-.13-.17-.36-.25-.54-.11-.06.05-.1.12-.12.19,0,0,0,0,0,.01-.27.74-.66,1.43-.98,2.15-.21.49-.45,1.2-.33,1.78-.22-.08-.42-.22-.61-.36.03.06.06.12.1.17.04.05.08.1.13.14.05.04.11.08.16.12.1.06.2.09.32.11.34.04.66-.03.94-.21-.17.03-.33.08-.49.1,0-.8.18-1.52.63-2.22.22-.34.47-.69.75-.99Z"/>
                <path class="cls-24" d="M51.36,8.18c-.06,0-.12,0-.19-.02-.01-.26-.04-.52,0-.79.05-.42.2-.82.37-1.21.27-.62.62-1.2.79-1.86.01.03.03.06.05.09h0c-.02-.12-.01-.28.08-.35.15-.13.33,0,.44.12.1.12.31.39.17.54-.08.09-.23.09-.34.04,0,.01,0,.03,0,.04.06.06.15.07.23.06-.05.04-.11.09-.15.13-.13.12-.23.28-.34.41-.24.3-.47.62-.65.96-.26.48-.53,1.23-.45,1.84Z"/>
                <path class="cls-16" d="M51.57,6.49c.17-.39.37-.76.57-1.13.13-.23.27-.46.45-.65-.05-.2-.05-.4.12-.43.15-.02.26.05.35.15-.05-.11-.13-.21-.18-.27-.1-.12-.29-.25-.44-.12-.09.08-.1.23-.08.35h0s-.04-.06-.05-.09c-.16.65-.52,1.24-.79,1.86-.17.39-.32.79-.37,1.21-.02.22,0,.44,0,.67.04-.53.19-1.06.41-1.55Z"/>
              </g>
            </g>
            <path class="cls-1" d="M39.46,91.44c0,.95-2.43,1.72-5.42,1.72s-5.42-.77-5.42-1.72,2.43-1.71,5.42-1.71,5.42.77,5.42,1.71Z"/>
            <g>
              <path class="cls-5" d="M39.29,83.02c-.32-.36-.62-.7-1.03-.97-.43-.29-.91-.46-1.39-.64-.3-.11-.67-.14-.99-.19-.58-.1-1.16.11-1.74.02-.53-.08-1.03-.27-1.56-.33-.5-.06-1.01.02-1.49.13-.49.12-.94.34-1.35.63-.15.1-.27.21-.39.34-.91.7-1.29,2.09-1.36,3.15-.11,1.68.58,3.41,1.56,4.74.42.58.97,1.23,1.66,1.5.32.13.6.26.95.19.17-.03.32-.11.49-.16.22-.06.45-.03.67,0,.41.05.72.33,1.09.47,0,0,.01,0,.02,0,.29.1.57.05.88,0,.73-.1,1.42-.61,1.97-1.06,1.27-1.06,2.36-2.57,2.65-4.23.19-1.09.17-2.69-.64-3.58Z"/>
              <path class="cls-27" d="M39.63,86.99c-.49,1.56-1.5,2.96-2.83,3.92-.51.37-1.16.8-1.82.84-.34.06-.68-.02-1.01-.18-.23-.12-.48-.31-.75-.34-.24-.03-.47.04-.7.09-.06.02-.12.04-.17.06-.24.06-.37.05-.61,0-.71-.14-1.3-.77-1.74-1.3-1.06-1.25-1.71-2.84-1.81-4.48-.07-1.14.27-2.85,1.31-3.54,1.04-1,2.72-1.25,4.06-.72.12.04.25.07.38.08.42.05.84-.02,1.27-.05.4-.02.8,0,1.19.08.68.15,1.4.42,1.93.88.26.22.5.37.7.66.11.09.23.29.33.39.7.95.62,2.56.29,3.59Z"/>
              <g class="cls-15">
                <path class="cls-6" d="M28.46,87.05c-.24-1.58,0-3.48,1.2-4.64.57-.55,1.28-.91,2.06-1.05.45-.08.91-.1,1.36-.04.19.03.4.05.6.05-.04-.01-.09-.02-.13-.04-1.33-.53-3.02-.28-4.06.72-1.04.69-1.38,2.4-1.31,3.54.04.62.16,1.22.34,1.81-.03-.12-.05-.24-.07-.36Z"/>
              </g>
              <path class="cls-4" d="M39.34,83.39c-.09-.11-.22-.31-.33-.39-.19-.29-.44-.44-.7-.66-.54-.46-1.25-.73-1.93-.88-.39-.09-.79-.1-1.19-.08-.43.02-.84.09-1.27.05-.09-.01-.18-.03-.27-.05.05.09.05.18-.05.26-.22.18-.67.19-.57.59,0,.02,0,.04.02.06,0,0,0,0,0,.01,0,.01,0,.02.02.04.04.07.09.14.18.2.03.02.07.04.1.06.22.08.45.11.68.1.38-.02.78-.11,1.16-.03,0,0,0,0,0,0,.52.03,1.04.34,1.31.77.42.67.56,1.55.6,2.33.05.94-.05,1.89-.27,2.8-.16.66-.39,1.35-.86,1.87-.22.25-.49.46-.79.58-.37.15-.73.15-1.11.05-.38-.1-.76-.27-1.16-.27-.43,0-.83.22-1.26.17-.42-.04-.76-.28-1.07-.55-.32-.28-.61-.6-.86-.95-.59-.81-1.06-1.73-1.39-2.69.27,1.22.83,2.37,1.64,3.32.45.52,1.03,1.16,1.74,1.3.23.05.37.06.61,0,.06-.02.12-.04.17-.06.23-.05.46-.12.7-.09.27.03.51.22.75.34.33.16.67.25,1.01.18.66-.04,1.31-.47,1.82-.84,1.33-.96,2.33-2.36,2.83-3.92.33-1.03.41-2.64-.29-3.59Z"/>
              <g>
                <path class="cls-5" d="M35.76,79.21c.09-.1.26-.22.26-.36.03-.19-.12-.38-.23-.51-.13-.17-.36-.25-.54-.11-.06.05-.1.11-.11.19,0,0,0,0,0,.01-.27.74-.66,1.43-.98,2.15-.21.49-.45,1.2-.33,1.78-.22-.08-.42-.22-.61-.36.03.06.06.12.1.17.04.05.08.1.13.14.05.04.11.08.16.12.1.06.2.09.32.11.34.04.66-.03.94-.21-.17.03-.33.07-.49.09,0-.8.18-1.52.63-2.22.22-.34.47-.69.75-.99Z"/>
                <path class="cls-24" d="M34.19,82.43c-.06,0-.12,0-.19-.02,0-.26-.04-.52,0-.79.05-.42.2-.82.37-1.21.27-.62.62-1.2.79-1.86.01.03.02.06.05.09h0c-.03-.12-.01-.28.08-.35.14-.12.33,0,.44.12.1.12.31.39.17.54-.08.09-.23.09-.34.04,0,.01,0,.03,0,.04.06.06.15.08.24.06-.05.05-.11.09-.15.13-.13.12-.23.28-.34.41-.24.3-.47.62-.65.96-.26.48-.53,1.23-.45,1.84Z"/>
                <path class="cls-16" d="M34.4,80.74c.17-.38.37-.76.57-1.13.13-.23.27-.46.45-.66-.05-.2-.05-.4.12-.42.15-.02.26.05.35.15-.05-.1-.13-.21-.18-.27-.1-.12-.29-.24-.44-.12-.09.07-.1.23-.08.35h0s-.04-.05-.05-.09c-.16.66-.52,1.24-.79,1.86-.17.38-.32.79-.37,1.21-.03.22,0,.44,0,.66.04-.53.19-1.06.41-1.55Z"/>
              </g>
            </g>
          </g>
        </g>
      </g>
    </g>
  </g>
</svg>