<?xml version="1.0" encoding="UTF-8"?>
<svg xmlns="http://www.w3.org/2000/svg" width="160.29" height="100" viewBox="0 0 160.29 100">
  <defs>
    <style>
      .cls-1, .cls-2, .cls-3 {
        fill: #9f7e6b;
      }

      .cls-1, .cls-4 {
        mix-blend-mode: screen;
      }

      .cls-5 {
        fill: #5e2c00;
      }

      .cls-6 {
        fill: #8b8b8b;
      }

      .cls-7 {
        fill: #f9c340;
        mix-blend-mode: color-dodge;
        opacity: .6;
      }

      .cls-8 {
        fill: #9a9a9a;
      }

      .cls-9 {
        fill: #85695a;
      }

      .cls-10 {
        fill: #7d7d7d;
      }

      .cls-3 {
        opacity: .5;
      }

      .cls-3, .cls-11 {
        mix-blend-mode: multiply;
      }

      .cls-12 {
        fill: #fff;
      }

      .cls-13 {
        fill: #6e6e6e;
      }

      .cls-14 {
        fill: #606060;
      }

      .cls-15 {
        fill: #e2e2e2;
      }

      .cls-16 {
        fill: #f72629;
      }

      .cls-17 {
        fill: #f1ac25;
      }

      .cls-18 {
        isolation: isolate;
      }

      .cls-19 {
        fill: #f1f1f1;
      }

      .cls-20 {
        fill: #c5c5c5;
      }

      .cls-21 {
        fill: #a8a8a8;
      }

      .cls-22 {
        fill: #efde29;
      }

      .cls-23 {
        fill: #cfcfcf;
      }

      .cls-24 {
        fill: #d4d4d4;
      }

      .cls-25 {
        fill: #b7b7b7;
      }

      .cls-26 {
        fill: #f8431d;
      }

      .cls-27 {
        fill: #f4651f;
      }
    </style>
  </defs>
  <g class="cls-18">
    <g id="Layer_2" data-name="Layer 2">
      <g id="Layer_1-2" data-name="Layer 1">
        <g>
          <g class="cls-11">
            <path class="cls-12" d="M150.47,77.87c-.67-.45-1.38-.76-2.04-.92-.14-.03-.28-.06-.42-.07-.43-.1-.83-.13-1.31-.07-.27.03-.52.09-.77.18-2.09-1.79-4.17-3.56-6.06-5.16-.46-.39-.91-.78-1.37-1.16l-.38-.33c-.7-9.76-3.66-17.65-8.79-23.47-.45-.51-.95-1.02-1.49-1.53,1.23.59,2.39,1.28,3.49,2.07,8.64,6.24,11.56,17.35,12.49,25.57.14,1.28,1.22,2.24,2.5,2.24.72,0,1.42-.31,1.92-.86.5-.55.75-1.27.69-2-.61-6.85-2.27-12.99-4.86-18.18,3.93,6.89,6.3,15.47,6.41,23.69ZM124.13,53.95c-.99-.73-2.4-.92-3.53-.5-.81-.93-1.63-1.89-2.44-2.87-1.42-1.7-2.76-3.55-4.05-5.38.72.04,1.46.15,2.24.34,3.74.93,7.41,3.63,10.34,7.6,2.27,3.08,3.93,6.94,5.01,11.69-1.94-1.75-3.88-3.62-5.87-5.68.09-.23.16-.46.2-.7.35-1.88-.7-3.62-1.9-4.5ZM158.21,86.81c-.07-.06-.14-.12-.21-.17l-.6-.45c-.22-.17-.44-.33-.64-.48-.38-.28-.76-.55-1.15-.83l-.29-.21c-.17-.12-.34-.25-.51-.37.4-.41.68-.95.76-1.54,2.08-15.12-3.47-31.57-14.14-41.91-3.52-3.41-7.98-5.8-12.76-6.92.55-.14,1.11-.36,1.65-.66,3.22.19,6.54.9,9.88,2.1,4.4,1.58,9.13,3.64,10.84,6.87.44.84,1.3,1.37,2.25,1.37s1.75-.47,2.24-1.27c.49-.78.54-1.72.15-2.52-2.41-4.95-7.74-7.32-12.03-9.22l-.3-.13c-2.67-1.18-5.49-2.05-8.41-2.58.46-1.02.8-2.08,1.01-3.16.21-.28.37-.6.46-.93.46.41,1.05.64,1.68.64.87,0,1.69-.45,2.19-1.19.5-.74.6-1.66.27-2.46-.91-2.21-2.86-3.74-5.8-4.56-1.08-2.13-2.74-3.8-4.82-4.93.81-.4,1.41-1.22,1.5-2.17.12-1.31-.75-2.48-2.06-2.74-1.27-.23-2.57-.35-3.86-.35-3.28,0-6.52.75-9.68,2.23-1.8-3.72-6.34-5.66-10.72-5.66h-.05c-4.29.02-9,1.93-12.91,5.26-.04.03-.08.07-.12.1-1.72-2.49-4.67-4.22-7.9-4.42-3.44-.22-6.55.66-9.31,2.6-.18-.21-.37-.41-.57-.59-1.82-1.71-4.09-2.61-6.58-2.61-1,0-2.01.14-3.02.44-.24-.07-.48-.13-.69-.18-.22-.06-.49-.12-.6-.17-.62-.22-1.33-.33-2.11-.33-1.51,0-3.09.41-4.15.71-1.96.57-3.17,1.42-4.45,2.32l-.53.37c-1.84,1.27-3.3,3.39-4.22,5.41-.85-.13-1.69-.22-2.51-.28-.04,0-.08,0-.12,0h-.16c-.16-.03-.31-.04-.47-.05-.54-.03-1.1-.04-1.65-.04-8.12,0-15.4,2.83-19.95,7.76-1.53,1.66-5.85,7.51-5.64,12.5.03.68.14,1.32.33,1.93-2.29,1.76-4,4.57-4.92,8.18-.95,3.69-1.03,8.11-.2,11.52.08.34.19.68.33,1.08.03.08.06.16.09.24.27.71.61,1.39,1.01,2.03.04.07.08.13.11.18.23.35.45.66.68.94.05.07.11.13.16.19l.03.03s0,.01.01.01c.21.25.44.49.65.69.02.02.03.03.05.05.72.69,1.51,1.27,2.37,1.73.05.03.1.05.13.07.23.12.47.23.71.33.07.03.15.06.22.09l.05.02c.21.08.42.15.66.22.1.03.2.06.3.09.22.06.44.11.71.16.09.02.17.04.26.05.35.05.67.09.99.1.23.01.46.02.69.02,4.05,0,7.99-1.7,12.03-5.2,1.5-1.29,2.8-2.79,3.91-4.17.42.88.93,1.66,1.51,2.32-.65,2.34-1.25,4.87-1.83,7.68-.15.77.04,1.55.52,2.14.47.57,1.21.92,1.95.92,1.24,0,2.39-.91,2.68-2.13.51-2.18,1-4.1,1.49-5.85.33.07.68.13,1.03.17.43.05.87.07,1.31.07,4.17,0,8.16-2.21,11.32-5.19-.76,2.13-1.41,4.35-1.95,6.65-.06.27-.08.55-.06.82-2.88,0-5.7,2.12-6.58,4.92-.12.38-.19.73-.22,1.05-.36.25-.73.51-1.09.76-1.81,1.27-3.68,2.51-5.63,3.71-.28-.69-.85-1.99-2.42-2.68-.42-.19-.88-.3-1.38-.33-1.17-.26-2.41.17-3.3,1.17-.02.02-.04.04-.06.06-.88.92-1.81,3.25-.99,5.1.09.41.23.76.4,1.07-3.43,1.8-7.12,3.55-11.15,5.31-1.48.64-2.95,1.4-4.52,2.19-3.69,1.88-7.51,3.82-11.08,4.16-.04,0-.08,0-.13.01-3.18.27-5.91.54-6.27,3.11-.17,1.19.37,2.8,2.46,3.42,2.13.63,6.66,1.07,13.53,1.3,0,.07,0,.14-.01.21-.12,3.32,3.79,3.86,7.24,4.33,7.28,1,25.73,1.57,50.63,1.57s51.28-.64,62.28-1.56c7.16-.6,10.9-1.07,10.9-4.47,0-.06,0-.13,0-.19,6.48-.41,8.11-1.03,8.77-1.28,1.77-.67,2.33-2.22,2.1-3.44-.25-1.33-1.21-1.95-2.04-2.25ZM70.16,50.79c-.11.37-.2.72-.28,1.03-2.15,1.48-4.32,2.97-6.52,4.47-.08-.04-.16-.08-.24-.11.64-1.87,1.31-3.59,2.01-5.19,1.57.34,3.32.27,5.02-.21Z"/>
            <path class="cls-19" d="M150.26,77.63c-.67-.45-1.38-.76-2.04-.92-.14-.03-.28-.06-.42-.07-.43-.1-.83-.13-1.31-.07-.27.03-.52.09-.77.18-2.08-1.79-4.17-3.56-6.06-5.16-.46-.39-.91-.78-1.37-1.16l-.38-.33c-.7-9.76-3.66-17.65-8.79-23.47-.45-.51-.95-1.02-1.49-1.53,1.23.59,2.39,1.28,3.49,2.07,8.64,6.24,11.56,17.35,12.49,25.57.15,1.28,1.22,2.24,2.5,2.24.72,0,1.42-.31,1.92-.86.5-.55.75-1.27.69-2-.61-6.85-2.27-12.99-4.87-18.18,3.94,6.89,6.3,15.47,6.41,23.69ZM123.92,53.71c-.99-.73-2.4-.92-3.53-.5-.81-.93-1.63-1.89-2.44-2.87-1.42-1.7-2.76-3.55-4.05-5.38.72.04,1.46.15,2.24.34,3.74.93,7.41,3.63,10.34,7.6,2.27,3.08,3.93,6.94,5.01,11.69-1.94-1.75-3.88-3.62-5.87-5.68.09-.23.15-.46.2-.7.35-1.88-.7-3.62-1.9-4.5ZM158,86.58c-.07-.06-.14-.12-.21-.17l-.6-.45c-.22-.17-.44-.33-.64-.48-.38-.28-.77-.56-1.15-.83l-.29-.21c-.17-.12-.34-.25-.51-.37.4-.41.68-.95.76-1.54,2.08-15.12-3.47-31.57-14.14-41.91-3.52-3.41-7.98-5.8-12.76-6.92.55-.14,1.11-.36,1.65-.66,3.22.19,6.54.9,9.88,2.1,4.4,1.58,9.14,3.63,10.84,6.87.44.84,1.3,1.37,2.25,1.37s1.75-.48,2.24-1.27c.49-.78.54-1.72.15-2.52-2.41-4.95-7.74-7.32-12.03-9.22l-.3-.13c-2.67-1.18-5.49-2.05-8.41-2.58.46-1.02.8-2.08,1-3.16.21-.28.37-.6.46-.93.46.41,1.05.64,1.69.64.87,0,1.69-.45,2.19-1.19.5-.74.59-1.66.27-2.46-.91-2.21-2.86-3.74-5.8-4.56-1.08-2.13-2.74-3.8-4.82-4.93.81-.4,1.41-1.22,1.5-2.17.12-1.31-.75-2.49-2.06-2.74-1.27-.24-2.57-.35-3.86-.35-3.28,0-6.52.75-9.68,2.23-1.8-3.72-6.34-5.65-10.72-5.65h-.05c-4.29.01-9,1.93-12.91,5.26-.04.03-.08.07-.12.1-1.72-2.49-4.67-4.22-7.9-4.42-3.44-.22-6.55.66-9.31,2.6-.18-.21-.37-.41-.57-.59-1.82-1.7-4.09-2.61-6.58-2.61-1,0-2.01.14-3.02.44-.24-.07-.48-.13-.69-.18-.22-.06-.49-.12-.61-.16-.62-.22-1.33-.33-2.11-.33-1.51,0-3.09.41-4.15.71-1.96.57-3.17,1.42-4.45,2.32l-.53.37c-1.83,1.27-3.3,3.39-4.22,5.42-.85-.13-1.69-.22-2.51-.28-.04,0-.08,0-.12,0h-.16c-.16-.03-.31-.04-.46-.05-.55-.03-1.1-.04-1.65-.04-8.12,0-15.4,2.83-19.96,7.76-1.53,1.66-5.85,7.51-5.64,12.5.03.68.14,1.32.33,1.93-2.29,1.76-4,4.57-4.93,8.18-.95,3.7-1.03,8.11-.2,11.52.08.34.19.68.33,1.08.03.08.06.16.09.24.27.71.62,1.38,1.01,2.03.04.06.08.13.11.18.23.35.45.65.68.94.05.07.11.13.16.19l.03.03h.01c.21.26.45.49.65.71.02.02.03.04.05.05.69.72,1.52,1.27,2.37,1.73.05.03.1.05.13.07.23.12.47.23.71.33.08.03.15.06.23.09l.05.02c.21.08.42.15.66.22.1.03.19.06.3.09.22.06.44.1.71.16.09.02.17.04.26.05.35.05.67.09.99.1.23.01.46.02.69.02,4.05,0,7.99-1.7,12.03-5.2,1.5-1.29,2.8-2.79,3.91-4.17.42.88.93,1.66,1.51,2.32-.65,2.34-1.25,4.87-1.82,7.68-.15.77.04,1.55.52,2.14.47.57,1.21.92,1.95.92,1.24,0,2.39-.91,2.68-2.13.51-2.18,1-4.1,1.49-5.85.33.07.68.13,1.03.17.43.05.87.07,1.31.07,4.17,0,8.16-2.21,11.32-5.19-.76,2.13-1.41,4.35-1.95,6.65-.06.27-.09.55-.06.82-2.88,0-5.7,2.12-6.58,4.92-.12.38-.19.73-.22,1.05-.36.25-.73.51-1.09.76-1.81,1.27-3.68,2.51-5.63,3.71-.28-.69-.85-1.98-2.42-2.68-.42-.19-.88-.3-1.38-.33-1.17-.26-2.41.17-3.3,1.17-.02.02-.04.04-.06.06-.87.93-1.81,3.25-.99,5.1.09.41.23.76.4,1.07-3.43,1.8-7.12,3.55-11.15,5.31-1.48.64-2.95,1.4-4.52,2.19-3.69,1.88-7.51,3.86-11.08,4.16-.04,0-.09,0-.13.01-3.18.27-5.91.54-6.27,3.11-.17,1.19.37,2.8,2.46,3.42,2.13.63,6.66,1.07,13.53,1.3,0,.07,0,.14-.01.21-.13,3.32,3.79,3.86,7.24,4.33,7.28,1,25.73,1.57,50.63,1.57s51.28-.64,62.28-1.56c7.16-.6,10.9-1.07,10.9-4.47,0-.06,0-.13,0-.19,6.48-.41,8.11-1.03,8.77-1.28,1.76-.67,2.33-2.22,2.1-3.44-.24-1.33-1.21-1.95-2.04-2.25ZM69.94,50.55c-.11.37-.2.72-.28,1.03-2.14,1.48-4.31,2.97-6.52,4.47-.08-.04-.16-.08-.24-.11.64-1.87,1.31-3.59,2.01-5.19,1.57.34,3.32.27,5.02-.2Z"/>
            <path class="cls-15" d="M150.05,77.39c-.67-.45-1.38-.76-2.04-.92-.14-.03-.28-.06-.42-.07-.43-.1-.83-.13-1.31-.07-.27.03-.52.09-.77.18-2.08-1.79-4.17-3.56-6.06-5.16-.46-.39-.91-.78-1.37-1.16l-.38-.33c-.7-9.76-3.66-17.65-8.79-23.47-.45-.51-.95-1.02-1.49-1.53,1.23.59,2.39,1.28,3.49,2.07,8.64,6.24,11.56,17.35,12.49,25.57.14,1.28,1.22,2.24,2.5,2.24.72,0,1.42-.31,1.92-.86.5-.55.75-1.27.69-2-.61-6.85-2.27-12.99-4.87-18.18,3.94,6.89,6.3,15.47,6.41,23.69ZM123.71,53.47c-.99-.73-2.4-.92-3.53-.5-.81-.93-1.63-1.89-2.44-2.87-1.42-1.7-2.76-3.55-4.05-5.38.72.04,1.46.15,2.24.34,3.74.93,7.41,3.63,10.34,7.6,2.27,3.08,3.93,6.94,5.01,11.69-1.94-1.75-3.88-3.62-5.87-5.68.09-.23.16-.46.2-.7.35-1.88-.7-3.62-1.9-4.5ZM157.79,86.34c-.07-.06-.14-.12-.21-.17l-.6-.45c-.22-.17-.44-.33-.64-.48-.38-.28-.76-.55-1.15-.83l-.29-.21c-.17-.12-.34-.25-.51-.37.4-.41.68-.95.76-1.54,2.08-15.12-3.47-31.57-14.14-41.91-3.52-3.41-7.98-5.8-12.76-6.92.55-.14,1.11-.36,1.65-.67,3.22.19,6.54.9,9.88,2.1,4.4,1.58,9.14,3.63,10.84,6.87.44.84,1.3,1.37,2.25,1.37s1.75-.48,2.24-1.27c.49-.78.54-1.72.15-2.52-2.41-4.95-7.74-7.32-12.03-9.22l-.3-.13c-2.67-1.18-5.49-2.05-8.41-2.58.46-1.02.8-2.08,1.01-3.16.21-.28.37-.6.46-.93.46.41,1.05.64,1.69.64.87,0,1.69-.45,2.19-1.19.5-.74.59-1.66.27-2.46-.91-2.21-2.86-3.74-5.8-4.56-1.08-2.13-2.74-3.8-4.82-4.93.81-.4,1.41-1.22,1.5-2.17.12-1.31-.75-2.49-2.06-2.74-1.27-.24-2.57-.35-3.86-.35-3.28,0-6.52.75-9.68,2.23-1.8-3.72-6.34-5.66-10.72-5.66h-.05c-4.29.02-8.98,1.96-12.91,5.26-.04.03-.08.07-.12.1-1.72-2.49-4.67-4.22-7.9-4.42-3.44-.22-6.55.66-9.31,2.6-.18-.21-.37-.41-.57-.59-1.82-1.7-4.09-2.61-6.58-2.61-1,0-2.01.14-3.02.44-.24-.07-.48-.13-.69-.18-.22-.06-.49-.12-.6-.16-.62-.22-1.33-.33-2.11-.33-1.51,0-3.09.41-4.15.71-1.96.57-3.17,1.42-4.45,2.32l-.53.37c-1.84,1.27-3.3,3.39-4.22,5.42-.85-.13-1.69-.22-2.51-.28-.04,0-.08,0-.12,0h-.16c-.16-.03-.32-.04-.47-.05-.54-.03-1.1-.04-1.65-.04-8.12,0-15.4,2.83-19.95,7.76-1.53,1.66-5.85,7.51-5.64,12.5.03.68.14,1.32.33,1.92-2.29,1.76-4,4.57-4.92,8.18-.95,3.69-1.03,8.11-.2,11.52.08.34.19.68.33,1.08.03.08.05.15.09.24.27.71.61,1.39,1.01,2.03.04.06.08.12.11.18.23.35.45.65.68.94.05.07.11.13.16.19l.03.03s0,0,.01.01c.23.23.44.48.65.69.02.02.03.03.05.05.71.7,1.52,1.26,2.37,1.73.05.03.1.05.13.07.24.11.47.23.71.33.07.03.15.06.22.09l.05.02c.21.08.42.15.66.22.1.03.2.06.3.09.22.06.44.11.71.16.09.02.17.03.26.05.35.05.67.09.99.1.23.01.46.02.69.02,4.05,0,7.99-1.7,12.03-5.2,1.5-1.29,2.8-2.79,3.91-4.17.42.88.93,1.66,1.51,2.32-.65,2.34-1.26,4.87-1.83,7.68-.15.77.04,1.55.52,2.14.47.57,1.21.92,1.95.92,1.24,0,2.39-.91,2.68-2.13.51-2.18,1-4.09,1.49-5.85.33.07.68.13,1.03.17.43.05.87.07,1.31.07,4.17,0,8.16-2.21,11.32-5.19-.76,2.13-1.41,4.35-1.95,6.65-.06.27-.08.55-.06.82-2.88,0-5.7,2.12-6.58,4.92-.12.38-.19.73-.22,1.05-.36.25-.73.51-1.09.76-1.81,1.27-3.68,2.51-5.63,3.71-.28-.69-.85-1.98-2.42-2.68-.42-.19-.88-.3-1.38-.33-1.17-.26-2.4.17-3.3,1.17-.02.02-.04.04-.06.06-.87.93-1.81,3.25-.99,5.1.09.41.23.76.4,1.07-3.43,1.8-7.12,3.55-11.15,5.31-1.48.64-2.95,1.4-4.52,2.19-3.69,1.88-7.51,3.86-11.08,4.16-.04,0-.08,0-.13.01-3.18.27-5.91.54-6.27,3.11-.17,1.19.37,2.81,2.46,3.42,2.13.63,6.66,1.07,13.53,1.3,0,.07-.01.14-.01.21-.15,3.32,3.79,3.86,7.24,4.33,7.28,1,25.73,1.57,50.63,1.57s51.28-.64,62.28-1.56c7.16-.6,10.9-1.07,10.9-4.47,0-.06,0-.13,0-.19,6.48-.41,8.11-1.03,8.77-1.28,1.77-.67,2.33-2.21,2.1-3.44-.25-1.33-1.21-1.94-2.04-2.25ZM69.73,50.32c-.1.37-.2.72-.28,1.03-2.15,1.48-4.32,2.97-6.52,4.48-.08-.04-.16-.08-.24-.11.64-1.87,1.31-3.59,2.01-5.19,1.57.34,3.32.27,5.02-.21Z"/>
            <path class="cls-24" d="M149.84,77.16c-.67-.45-1.38-.76-2.04-.92-.14-.03-.28-.06-.42-.07-.43-.1-.83-.13-1.31-.07-.27.03-.52.09-.77.18-2.09-1.79-4.17-3.56-6.06-5.16-.46-.39-.91-.78-1.37-1.16l-.38-.33c-.7-9.76-3.66-17.65-8.79-23.47-.45-.51-.95-1.02-1.49-1.53,1.23.59,2.39,1.28,3.49,2.07,8.64,6.24,11.56,17.35,12.49,25.57.14,1.28,1.22,2.24,2.5,2.24.72,0,1.42-.31,1.92-.86.5-.55.75-1.27.69-2-.61-6.85-2.27-12.99-4.86-18.18,3.94,6.89,6.3,15.48,6.41,23.69ZM123.5,53.24c-.99-.73-2.4-.92-3.53-.5-.81-.93-1.63-1.89-2.44-2.87-1.42-1.7-2.75-3.55-4.05-5.38.73.04,1.46.15,2.24.34,3.74.93,7.41,3.63,10.34,7.6,2.27,3.08,3.93,6.94,5.01,11.69-1.94-1.75-3.89-3.62-5.87-5.68.09-.23.16-.46.2-.7.35-1.88-.7-3.62-1.9-4.5ZM157.58,86.1c-.07-.06-.14-.12-.21-.17l-.6-.45c-.22-.17-.44-.33-.64-.48-.38-.28-.76-.55-1.15-.83l-.29-.21c-.17-.12-.34-.25-.51-.37.4-.41.68-.95.76-1.54,2.08-15.12-3.47-31.57-14.14-41.91-3.52-3.41-7.98-5.8-12.76-6.92.55-.14,1.11-.36,1.66-.66,3.22.19,6.54.9,9.88,2.1,4.4,1.58,9.14,3.63,10.84,6.87.44.84,1.3,1.37,2.25,1.37s1.75-.48,2.24-1.27c.49-.78.54-1.72.15-2.52-2.41-4.95-7.74-7.32-12.03-9.22l-.29-.13c-2.67-1.18-5.49-2.05-8.41-2.58.46-1.01.8-2.08,1-3.16.21-.28.37-.6.46-.93.46.41,1.05.64,1.68.64.87,0,1.69-.45,2.19-1.19.5-.74.6-1.66.27-2.46-.91-2.21-2.86-3.74-5.8-4.56-1.08-2.12-2.74-3.8-4.82-4.93.81-.4,1.41-1.22,1.5-2.17.12-1.31-.75-2.49-2.06-2.74-1.27-.24-2.57-.35-3.86-.35-3.28,0-6.52.75-9.68,2.23-1.8-3.72-6.34-5.66-10.72-5.66h-.05c-4.29.02-8.97,1.96-12.91,5.26-.04.03-.08.07-.12.1-1.72-2.49-4.67-4.22-7.9-4.42-3.44-.22-6.55.66-9.31,2.6-.18-.21-.37-.41-.57-.6-1.82-1.7-4.09-2.61-6.58-2.61-1,0-2.01.15-3.02.44-.25-.07-.48-.13-.69-.18-.22-.06-.49-.12-.6-.17-.61-.22-1.32-.33-2.11-.33-1.51,0-3.09.41-4.15.71-1.96.57-3.17,1.42-4.45,2.32l-.53.37c-1.84,1.27-3.3,3.39-4.22,5.42-.85-.13-1.69-.22-2.51-.29-.04,0-.08,0-.12,0h-.16c-.16-.03-.31-.04-.46-.05-.55-.03-1.1-.04-1.65-.04-8.12,0-15.4,2.83-19.95,7.76-1.53,1.66-5.85,7.51-5.64,12.5.03.68.14,1.32.33,1.92-2.29,1.76-4,4.57-4.92,8.18-.95,3.69-1.03,8.11-.2,11.52.08.34.19.68.33,1.08.03.08.06.16.09.24.27.71.61,1.38,1.01,2.03.04.06.08.13.11.18.23.34.45.65.68.94.05.07.11.13.16.19l.03.03s0,.01,0,.01c.22.25.44.49.65.69.02.02.03.03.05.05.71.7,1.51,1.28,2.37,1.73.05.03.1.05.13.07.24.12.47.23.71.33.07.03.15.06.22.09,0,0,.05.02.05.02.21.08.42.15.66.22.1.03.19.06.3.09.22.06.44.1.71.16.09.02.17.04.26.05.35.05.67.09.99.1.23.01.46.02.69.02,4.05,0,7.99-1.7,12.03-5.2,1.5-1.29,2.8-2.79,3.91-4.17.42.88.93,1.66,1.51,2.32-.65,2.34-1.25,4.87-1.82,7.68-.15.77.04,1.55.52,2.14.47.57,1.21.92,1.95.92,1.24,0,2.39-.91,2.68-2.13.51-2.18,1-4.09,1.49-5.85.33.07.68.13,1.03.17.43.05.87.07,1.31.07,4.17,0,8.16-2.21,11.32-5.19-.76,2.13-1.41,4.35-1.95,6.65-.06.27-.08.55-.06.82-2.88,0-5.7,2.12-6.58,4.92-.12.38-.19.73-.22,1.05-.36.26-.73.51-1.09.76-1.81,1.27-3.68,2.51-5.64,3.71-.28-.69-.85-1.99-2.42-2.68-.42-.19-.88-.3-1.38-.33-1.17-.26-2.41.18-3.3,1.17-.02.02-.04.04-.06.06-.88.92-1.81,3.25-.99,5.1.09.41.23.76.4,1.07-3.43,1.8-7.12,3.55-11.15,5.31-1.48.64-2.95,1.39-4.52,2.19-3.69,1.88-7.51,3.86-11.08,4.16-.04,0-.08,0-.13.01-3.18.27-5.91.54-6.27,3.11-.17,1.19.37,2.8,2.46,3.42,2.13.63,6.66,1.07,13.53,1.3,0,.07-.01.14-.01.21-.15,3.32,3.79,3.86,7.24,4.33,7.28,1,25.73,1.57,50.63,1.57s51.28-.64,62.28-1.56c7.16-.6,10.9-1.07,10.9-4.47,0-.06,0-.13,0-.19,6.48-.41,8.11-1.03,8.77-1.28,1.77-.67,2.33-2.21,2.1-3.44-.25-1.33-1.21-1.94-2.04-2.25ZM69.52,50.08c-.11.37-.2.72-.28,1.03-2.15,1.48-4.32,2.97-6.52,4.47-.08-.04-.16-.08-.24-.11.64-1.87,1.31-3.59,2.01-5.19,1.57.34,3.32.27,5.02-.21Z"/>
            <path class="cls-20" d="M149.63,76.92c-.67-.45-1.38-.76-2.04-.92-.14-.03-.28-.06-.42-.07-.43-.1-.83-.13-1.31-.07-.27.03-.52.09-.77.18-2.08-1.79-4.17-3.56-6.06-5.16-.46-.39-.91-.78-1.37-1.16l-.38-.33c-.7-9.76-3.66-17.65-8.8-23.47-.45-.51-.95-1.02-1.49-1.53,1.22.59,2.39,1.28,3.49,2.07,8.64,6.24,11.56,17.35,12.49,25.57.14,1.28,1.22,2.24,2.5,2.24.72,0,1.42-.31,1.92-.86.5-.55.75-1.27.69-2-.61-6.85-2.27-12.99-4.86-18.18,3.93,6.89,6.3,15.47,6.41,23.69ZM123.29,53c-.99-.73-2.4-.92-3.53-.5-.81-.93-1.63-1.89-2.44-2.87-1.42-1.7-2.75-3.55-4.05-5.38.72.04,1.46.15,2.24.34,3.74.93,7.41,3.63,10.34,7.6,2.27,3.08,3.93,6.94,5.01,11.69-1.94-1.75-3.89-3.62-5.87-5.68.09-.23.15-.46.2-.7.35-1.88-.7-3.62-1.9-4.5ZM157.37,85.87c-.07-.06-.14-.12-.21-.17l-.6-.45c-.22-.17-.44-.33-.64-.48-.38-.28-.77-.55-1.15-.83l-.29-.21c-.17-.12-.34-.25-.51-.37.4-.41.68-.95.76-1.54,2.08-15.12-3.47-31.57-14.14-41.91-3.52-3.41-7.98-5.8-12.76-6.92.55-.14,1.11-.36,1.65-.67,3.22.19,6.54.9,9.88,2.1,4.4,1.58,9.14,3.64,10.84,6.87.44.84,1.3,1.37,2.25,1.37s1.75-.48,2.25-1.27c.49-.78.54-1.72.15-2.52-2.4-4.95-7.74-7.32-12.03-9.22l-.3-.13c-2.67-1.18-5.49-2.05-8.41-2.58.46-1.02.8-2.08,1-3.16.21-.28.37-.6.46-.93.46.41,1.05.64,1.69.64.87,0,1.69-.45,2.19-1.19.5-.74.59-1.66.27-2.46-.91-2.21-2.86-3.74-5.8-4.56-1.08-2.12-2.74-3.8-4.82-4.93.82-.4,1.41-1.22,1.5-2.17.13-1.31-.75-2.49-2.06-2.74-1.27-.24-2.57-.35-3.86-.35-3.28,0-6.52.75-9.68,2.23-1.8-3.72-6.34-5.66-10.72-5.66h-.05c-4.29.02-9,1.93-12.91,5.26-.04.03-.08.07-.12.1-1.72-2.49-4.67-4.22-7.9-4.42-3.44-.22-6.55.66-9.31,2.6-.18-.21-.37-.41-.57-.59-1.82-1.71-4.09-2.61-6.58-2.61-1,0-2.01.15-3.02.44-.25-.07-.48-.13-.69-.18-.22-.06-.49-.12-.6-.16-.62-.22-1.32-.33-2.11-.33-1.51,0-3.09.41-4.15.71-1.96.57-3.17,1.42-4.45,2.32l-.53.37c-1.83,1.27-3.3,3.39-4.22,5.42-.85-.13-1.69-.22-2.51-.29-.04,0-.08,0-.12,0h-.16c-.16-.03-.31-.04-.46-.05-.54-.03-1.1-.04-1.65-.04-8.12,0-15.4,2.83-19.95,7.76-1.53,1.66-5.85,7.51-5.64,12.5.03.68.14,1.32.33,1.92-2.29,1.76-4,4.57-4.92,8.18-.95,3.69-1.02,8.11-.19,11.52.08.34.19.68.33,1.08.03.08.05.15.09.24.27.7.61,1.39,1.01,2.03.04.06.08.13.11.18.23.35.45.65.68.94.05.07.11.13.16.19l.03.03h.01c.21.26.44.5.65.71.02.02.03.04.05.05.72.69,1.52,1.27,2.37,1.73.05.03.09.05.13.07.24.12.47.23.71.33.07.03.15.06.22.09,0,0,.05.02.05.02.21.08.42.15.66.22.1.03.2.06.3.09.22.06.44.1.71.16.09.02.17.04.26.05.35.05.67.09.99.1.23.01.46.02.69.02,4.05,0,7.99-1.7,12.03-5.2,1.5-1.29,2.8-2.79,3.91-4.17.42.88.92,1.66,1.51,2.32-.65,2.34-1.26,4.87-1.83,7.68-.15.77.04,1.55.52,2.14.47.57,1.21.92,1.95.92,1.24,0,2.39-.91,2.68-2.13.51-2.18,1-4.09,1.49-5.85.33.07.68.13,1.03.17.43.05.87.07,1.31.07,4.17,0,8.16-2.21,11.32-5.19-.76,2.13-1.41,4.35-1.95,6.65-.06.27-.08.55-.06.82-2.88,0-5.7,2.12-6.58,4.92-.12.38-.19.73-.22,1.05-.36.25-.73.51-1.09.76-1.81,1.28-3.68,2.51-5.63,3.71-.28-.69-.85-1.99-2.42-2.68-.42-.19-.88-.3-1.38-.33-1.17-.26-2.4.17-3.3,1.17-.02.02-.04.04-.06.06-.88.92-1.81,3.25-.99,5.1.09.41.23.76.4,1.07-3.43,1.8-7.12,3.56-11.15,5.31-1.48.64-2.95,1.39-4.52,2.19-3.69,1.88-7.51,3.9-11.08,4.16-.04,0-.08,0-.13.01-3.18.27-5.91.54-6.27,3.12-.17,1.19.37,2.8,2.46,3.42,2.13.63,6.66,1.07,13.53,1.3,0,.07-.01.14-.01.21-.15,3.32,3.79,3.86,7.24,4.33,7.28,1,25.73,1.57,50.63,1.57s51.28-.64,62.28-1.56c7.16-.6,10.9-1.07,10.9-4.47,0-.06,0-.13,0-.19,6.48-.41,8.11-1.03,8.77-1.28,1.76-.67,2.33-2.21,2.1-3.44-.25-1.33-1.21-1.95-2.04-2.25ZM69.31,49.84c-.1.37-.2.72-.28,1.03-2.14,1.49-4.31,2.97-6.52,4.47-.08-.04-.16-.08-.24-.11.64-1.87,1.31-3.59,2.01-5.19,1.57.34,3.32.27,5.02-.21Z"/>
            <path class="cls-25" d="M149.42,76.69c-.67-.45-1.38-.76-2.04-.92-.14-.03-.28-.06-.42-.07-.43-.11-.83-.13-1.31-.07-.27.03-.52.09-.77.18-2.08-1.79-4.17-3.56-6.06-5.16-.46-.39-.91-.78-1.37-1.16l-.38-.33c-.7-9.76-3.66-17.65-8.79-23.47-.45-.51-.95-1.02-1.49-1.53,1.23.59,2.39,1.28,3.49,2.07,8.64,6.24,11.56,17.35,12.49,25.57.14,1.28,1.22,2.24,2.5,2.24.72,0,1.42-.31,1.92-.86.5-.55.75-1.27.69-2-.61-6.85-2.27-12.99-4.86-18.18,3.93,6.89,6.3,15.47,6.41,23.69ZM123.08,52.77c-.99-.73-2.4-.92-3.53-.5-.81-.93-1.63-1.89-2.44-2.87-1.42-1.7-2.76-3.55-4.05-5.38.72.04,1.46.15,2.24.34,3.74.93,7.41,3.63,10.34,7.6,2.27,3.08,3.93,6.94,5.01,11.69-1.94-1.75-3.88-3.62-5.87-5.68.09-.23.15-.46.2-.7.34-1.88-.7-3.62-1.9-4.5ZM157.15,85.63c-.07-.06-.14-.12-.21-.17l-.6-.45c-.22-.17-.44-.33-.64-.48-.38-.28-.76-.55-1.15-.83l-.29-.21c-.17-.12-.34-.25-.51-.37.4-.41.68-.95.76-1.54,2.08-15.12-3.47-31.57-14.14-41.91-3.52-3.41-7.98-5.8-12.76-6.92.55-.14,1.11-.36,1.65-.67,3.22.19,6.54.9,9.88,2.1,4.4,1.58,9.14,3.64,10.84,6.87.44.84,1.3,1.37,2.25,1.37s1.75-.47,2.24-1.27c.49-.78.54-1.72.15-2.52-2.41-4.95-7.74-7.32-12.03-9.22l-.3-.13c-2.67-1.18-5.49-2.05-8.41-2.58.46-1.01.8-2.08,1.01-3.16.21-.28.37-.6.46-.93.46.41,1.05.64,1.68.64.87,0,1.69-.45,2.19-1.19.5-.74.6-1.66.27-2.46-.91-2.21-2.86-3.74-5.8-4.56-1.08-2.13-2.74-3.8-4.82-4.93.81-.4,1.41-1.22,1.5-2.17.12-1.31-.75-2.49-2.06-2.74-1.27-.24-2.57-.35-3.86-.35-3.28,0-6.52.75-9.68,2.23-1.8-3.72-6.34-5.66-10.72-5.66h-.05c-4.29.02-9,1.93-12.91,5.26-.04.03-.08.07-.12.1-1.72-2.49-4.67-4.22-7.9-4.43-3.44-.22-6.55.66-9.31,2.6-.18-.21-.37-.41-.57-.6-1.82-1.71-4.09-2.61-6.58-2.61-1,0-2.01.15-3.02.44-.24-.07-.48-.13-.69-.18-.22-.06-.49-.12-.61-.16-.61-.22-1.32-.33-2.11-.33-1.51,0-3.09.41-4.15.71-1.96.57-3.17,1.42-4.45,2.32l-.53.37c-1.84,1.27-3.3,3.39-4.22,5.42-.85-.13-1.69-.22-2.51-.29-.04,0-.08,0-.12,0h-.16c-.16-.03-.31-.04-.47-.05-.54-.03-1.1-.04-1.65-.04-8.12,0-15.4,2.83-19.95,7.76-1.53,1.66-5.85,7.51-5.64,12.5.03.68.14,1.32.33,1.92-2.29,1.76-4,4.57-4.92,8.18-.95,3.69-1.03,8.11-.2,11.52.08.34.19.68.33,1.08.03.08.05.15.09.24.27.71.61,1.39,1.01,2.03.04.06.08.13.11.18.23.35.45.65.68.94.05.07.11.13.16.19l.03.03s0,0,.01.01c.23.23.44.49.65.69.02.02.03.03.05.05.72.69,1.52,1.27,2.37,1.73.05.03.1.05.13.07.24.11.47.23.71.33.07.03.15.06.22.09l.05.02c.21.08.42.15.66.22.1.03.2.06.3.09.22.06.44.1.71.16.09.02.17.04.26.05.35.05.67.09.99.1.23.01.46.02.69.02,4.05,0,7.99-1.7,12.03-5.21,1.5-1.29,2.8-2.79,3.91-4.17.42.88.93,1.66,1.51,2.32-.65,2.35-1.26,4.87-1.83,7.68-.15.77.04,1.55.52,2.14.47.57,1.21.92,1.95.92,1.24,0,2.39-.91,2.68-2.13.51-2.18,1-4.1,1.49-5.86.33.07.68.13,1.03.17.43.05.87.07,1.31.07,4.17,0,8.16-2.21,11.32-5.19-.76,2.13-1.41,4.35-1.95,6.65-.06.27-.08.55-.06.82-2.88,0-5.71,2.12-6.58,4.92-.12.38-.19.73-.22,1.05-.36.25-.73.51-1.09.76-1.81,1.28-3.68,2.51-5.63,3.71-.28-.69-.85-1.98-2.42-2.68-.42-.19-.88-.3-1.38-.33-1.17-.26-2.41.17-3.3,1.17-.02.02-.04.04-.06.06-.87.93-1.81,3.25-.99,5.1.09.41.23.76.4,1.07-3.43,1.8-7.12,3.55-11.15,5.31-1.48.64-2.95,1.39-4.52,2.19-3.69,1.88-7.51,3.86-11.08,4.16-.04,0-.08,0-.13.01-3.18.27-5.91.54-6.27,3.11-.17,1.19.37,2.8,2.46,3.42,2.13.63,6.66,1.07,13.53,1.3,0,.07-.01.14-.01.21-.15,3.32,3.79,3.86,7.24,4.33,7.28,1,25.73,1.57,50.63,1.57s51.28-.64,62.28-1.56c7.16-.6,10.9-1.07,10.9-4.47,0-.06,0-.13,0-.19,6.48-.41,8.11-1.03,8.77-1.28,1.77-.67,2.33-2.21,2.1-3.44-.24-1.33-1.21-1.95-2.04-2.25ZM69.1,49.61c-.11.37-.2.72-.28,1.03-2.15,1.48-4.32,2.97-6.52,4.47-.08-.04-.16-.08-.24-.11.64-1.86,1.31-3.59,2.01-5.19,1.57.34,3.32.27,5.02-.21Z"/>
            <path class="cls-21" d="M149.21,76.45c-.67-.45-1.38-.76-2.04-.92-.14-.03-.28-.06-.42-.07-.43-.1-.83-.13-1.31-.07-.27.03-.52.09-.77.18-2.09-1.79-4.17-3.56-6.06-5.16-.46-.39-.91-.78-1.37-1.16l-.38-.33c-.7-9.76-3.66-17.65-8.79-23.47-.45-.51-.95-1.02-1.49-1.53,1.23.59,2.39,1.28,3.49,2.07,8.64,6.24,11.56,17.35,12.49,25.57.15,1.28,1.22,2.24,2.5,2.24.72,0,1.42-.31,1.92-.86.5-.54.75-1.27.69-2-.61-6.85-2.27-12.99-4.86-18.18,3.93,6.89,6.3,15.47,6.41,23.69ZM122.86,52.53c-.99-.73-2.4-.92-3.53-.5-.81-.93-1.63-1.89-2.44-2.87-1.42-1.7-2.76-3.55-4.05-5.38.72.04,1.46.15,2.24.34,3.74.93,7.41,3.63,10.34,7.6,2.27,3.08,3.93,6.94,5.01,11.69-1.94-1.75-3.89-3.62-5.87-5.68.09-.23.15-.46.2-.7.35-1.88-.7-3.62-1.9-4.5ZM156.94,85.39c-.07-.06-.14-.12-.21-.17l-.6-.45c-.22-.17-.44-.33-.64-.48-.38-.28-.77-.55-1.15-.83l-.29-.21c-.17-.12-.34-.25-.51-.37.4-.41.68-.95.76-1.54,2.08-15.12-3.47-31.57-14.14-41.91-3.52-3.41-7.98-5.8-12.76-6.92.55-.14,1.11-.36,1.66-.67,3.22.19,6.54.9,9.88,2.1,4.4,1.58,9.14,3.64,10.84,6.87.44.84,1.3,1.37,2.25,1.37s1.75-.48,2.25-1.27c.49-.78.54-1.72.15-2.52-2.4-4.95-7.74-7.32-12.03-9.22l-.29-.13c-2.67-1.18-5.49-2.05-8.41-2.58.46-1.01.8-2.08,1-3.16.21-.28.37-.6.46-.93.46.41,1.05.64,1.68.64.87,0,1.69-.45,2.19-1.19.5-.74.59-1.66.27-2.46-.91-2.21-2.86-3.74-5.8-4.56-1.08-2.12-2.74-3.8-4.82-4.93.82-.4,1.41-1.22,1.5-2.17.13-1.31-.75-2.49-2.06-2.74-1.27-.24-2.57-.35-3.86-.35-3.28,0-6.52.75-9.68,2.23-1.8-3.72-6.34-5.66-10.72-5.66h-.05c-4.29.02-9,1.93-12.91,5.26-.04.03-.08.07-.12.1-1.72-2.49-4.67-4.22-7.9-4.43-3.44-.22-6.55.66-9.31,2.6-.18-.21-.37-.41-.57-.6-1.82-1.7-4.09-2.61-6.58-2.61-1,0-2.01.15-3.02.44-.25-.07-.48-.13-.69-.18-.22-.05-.49-.12-.6-.16-.61-.22-1.32-.33-2.11-.33-1.51,0-3.09.41-4.15.71-1.96.56-3.17,1.42-4.45,2.32l-.53.37c-1.84,1.27-3.3,3.39-4.22,5.42-.85-.13-1.69-.21-2.51-.29-.04,0-.08,0-.11,0h-.16c-.16-.03-.31-.04-.46-.05-.55-.03-1.1-.04-1.65-.04-8.12,0-15.4,2.83-19.95,7.76-1.53,1.66-5.85,7.51-5.64,12.5.03.68.14,1.33.33,1.92-2.29,1.76-4,4.57-4.93,8.18-.95,3.69-1.03,8.11-.19,11.52.08.34.19.68.33,1.08.03.08.05.15.09.24.27.71.61,1.39,1.01,2.03.04.06.08.13.11.18.23.35.45.66.68.94.05.07.11.13.16.19l.03.03s0,0,.01.01c.22.24.44.49.65.69.02.02.04.04.05.05.72.69,1.51,1.28,2.37,1.73.05.03.09.05.13.07.24.11.47.23.71.33.07.03.15.06.22.09,0,0,.05.02.05.02.21.08.42.15.66.22.1.03.19.06.3.09.22.06.44.1.71.16.09.02.17.04.26.05.35.05.67.09.99.1.23.01.46.02.69.02,4.05,0,7.99-1.7,12.03-5.21,1.5-1.29,2.8-2.79,3.91-4.17.42.88.92,1.66,1.51,2.32-.65,2.34-1.25,4.87-1.83,7.68-.15.77.04,1.55.52,2.14.47.57,1.21.92,1.95.92,1.24,0,2.39-.91,2.68-2.13.51-2.18,1-4.09,1.49-5.85.33.07.68.13,1.03.17.43.05.87.07,1.31.07,4.17,0,8.16-2.21,11.32-5.19-.76,2.13-1.41,4.36-1.95,6.65-.06.27-.08.55-.06.82-2.88,0-5.7,2.12-6.58,4.92-.12.38-.19.73-.22,1.05-.36.25-.73.51-1.09.76-1.81,1.28-3.68,2.51-5.63,3.71-.28-.69-.85-1.99-2.42-2.68-.42-.19-.88-.3-1.38-.33-1.17-.26-2.41.17-3.3,1.17-.02.02-.04.04-.06.06-.88.92-1.81,3.25-.99,5.1.09.41.23.76.4,1.07-3.43,1.8-7.12,3.55-11.15,5.31-1.48.64-2.95,1.39-4.52,2.19-3.69,1.88-7.51,3.9-11.08,4.16-.04,0-.09,0-.13.01-3.18.27-5.91.54-6.27,3.12-.17,1.19.37,2.8,2.46,3.42,2.13.63,6.66,1.07,13.53,1.3,0,.07-.01.14-.01.21-.13,3.32,3.79,3.86,7.24,4.33,7.28,1,25.73,1.57,50.63,1.57s51.28-.64,62.28-1.56c7.16-.6,10.9-1.07,10.9-4.47,0-.06,0-.13,0-.19,6.48-.41,8.11-1.03,8.77-1.28,1.76-.67,2.33-2.21,2.1-3.44-.25-1.33-1.21-1.95-2.04-2.25ZM68.89,49.37c-.11.37-.2.72-.28,1.03-2.14,1.48-4.32,2.97-6.52,4.47-.08-.04-.16-.08-.24-.11.64-1.87,1.31-3.59,2.01-5.19,1.57.34,3.32.27,5.02-.21Z"/>
            <path class="cls-8" d="M149,76.21c-.67-.45-1.38-.76-2.04-.92-.14-.03-.28-.05-.42-.07-.43-.1-.83-.13-1.31-.07-.27.03-.52.09-.77.18-2.09-1.79-4.17-3.56-6.06-5.16-.46-.39-.91-.78-1.37-1.16l-.38-.33c-.7-9.76-3.66-17.65-8.79-23.47-.45-.51-.95-1.02-1.49-1.53,1.23.59,2.39,1.28,3.49,2.07,8.64,6.24,11.56,17.35,12.49,25.57.14,1.28,1.22,2.24,2.5,2.24.72,0,1.42-.31,1.92-.86.5-.55.75-1.27.69-2-.61-6.85-2.27-12.99-4.86-18.18,3.93,6.89,6.3,15.47,6.41,23.69ZM122.65,52.29c-.99-.73-2.4-.92-3.53-.5-.81-.93-1.63-1.89-2.44-2.87-1.42-1.7-2.76-3.55-4.05-5.38.72.04,1.46.15,2.24.34,3.74.93,7.41,3.63,10.34,7.6,2.27,3.08,3.93,6.94,5.01,11.69-1.94-1.75-3.89-3.62-5.87-5.68.09-.23.16-.46.2-.7.35-1.88-.7-3.62-1.9-4.5ZM156.73,85.16c-.07-.06-.14-.12-.21-.17l-.6-.45c-.22-.17-.44-.33-.64-.48-.38-.28-.76-.55-1.15-.83l-.29-.21c-.17-.12-.34-.25-.51-.37.4-.41.68-.95.76-1.54,2.08-15.12-3.47-31.57-14.14-41.91-3.52-3.41-7.97-5.8-12.76-6.92.55-.14,1.11-.36,1.66-.67,3.22.19,6.54.9,9.88,2.1,4.4,1.58,9.14,3.64,10.84,6.87.44.84,1.3,1.37,2.25,1.37s1.75-.48,2.25-1.27c.48-.78.54-1.72.15-2.52-2.4-4.95-7.74-7.32-12.03-9.22l-.3-.13c-2.67-1.18-5.49-2.05-8.41-2.58.46-1.01.8-2.08,1-3.16.21-.28.37-.6.46-.93.46.41,1.05.64,1.68.64.87,0,1.69-.45,2.19-1.19.49-.74.59-1.66.27-2.46-.91-2.21-2.86-3.74-5.8-4.56-1.08-2.12-2.74-3.8-4.82-4.93.82-.4,1.41-1.22,1.5-2.17.13-1.31-.75-2.49-2.06-2.74-1.27-.24-2.57-.35-3.86-.35-3.28,0-6.52.75-9.68,2.23-1.8-3.72-6.34-5.66-10.72-5.66h-.05c-4.3.02-9,1.93-12.92,5.26-.04.03-.08.07-.12.1-1.72-2.49-4.67-4.22-7.9-4.43-3.44-.22-6.55.66-9.31,2.6-.18-.21-.37-.41-.57-.6-1.82-1.71-4.09-2.61-6.58-2.61-1,0-2.01.15-3.02.44-.25-.07-.48-.13-.69-.18-.22-.06-.49-.12-.6-.16-.61-.22-1.32-.33-2.11-.33-1.51,0-3.09.41-4.15.71-1.96.57-3.17,1.42-4.45,2.32l-.53.37c-1.83,1.27-3.3,3.39-4.22,5.42-.85-.13-1.69-.21-2.51-.29-.04,0-.08,0-.11,0h-.16c-.16-.03-.31-.04-.46-.05-.55-.03-1.1-.04-1.65-.04-8.12,0-15.4,2.83-19.95,7.76-1.53,1.66-5.86,7.51-5.64,12.5.03.68.14,1.33.33,1.92-2.29,1.76-4,4.57-4.92,8.18-.95,3.69-1.03,8.11-.2,11.52.08.34.19.68.33,1.08.03.08.05.15.09.24.27.7.61,1.39,1.01,2.03.04.06.08.12.11.18.23.35.45.65.68.94.05.07.11.13.16.19l.03.03s0,0,.01.01c.21.25.44.49.65.69.02.02.03.04.05.05.71.7,1.51,1.28,2.37,1.73.05.03.1.05.13.07.24.11.47.23.71.33.07.03.15.06.22.09l.05.02c.21.08.42.15.66.22.1.03.19.06.29.08.22.06.44.1.71.16.09.02.17.04.26.05.35.05.67.09.99.1.23.01.46.02.69.02,4.05,0,7.99-1.7,12.03-5.21,1.5-1.29,2.8-2.79,3.91-4.17.42.88.93,1.66,1.51,2.32-.65,2.35-1.25,4.87-1.83,7.68-.15.77.04,1.55.52,2.14.47.57,1.21.92,1.95.92,1.24,0,2.39-.91,2.68-2.13.51-2.18.99-4.09,1.49-5.85.33.07.68.13,1.03.17.43.05.87.07,1.31.07,4.17,0,8.16-2.21,11.32-5.19-.76,2.13-1.41,4.36-1.95,6.65-.06.27-.09.55-.06.82-2.88,0-5.7,2.12-6.58,4.92-.12.38-.19.73-.22,1.05-.36.25-.73.51-1.09.76-1.81,1.28-3.68,2.51-5.63,3.71-.28-.69-.85-1.98-2.42-2.68-.42-.19-.88-.3-1.38-.33-1.17-.26-2.41.17-3.3,1.17-.02.02-.04.04-.06.06-.88.92-1.81,3.25-.99,5.1.09.41.23.76.4,1.07-3.43,1.8-7.12,3.55-11.15,5.31-1.48.64-2.95,1.39-4.52,2.19-3.69,1.88-7.51,3.91-11.08,4.16-.04,0-.09,0-.13.01-3.18.27-5.91.54-6.27,3.11-.17,1.19.37,2.8,2.46,3.42,2.13.63,6.66,1.07,13.53,1.3,0,.07-.01.14-.01.21-.13,3.32,3.79,3.86,7.24,4.33,7.28,1,25.73,1.57,50.63,1.57s51.28-.64,62.28-1.56c7.16-.6,10.9-1.07,10.9-4.47,0-.06,0-.13,0-.19,6.48-.41,8.11-1.03,8.77-1.28,1.77-.67,2.33-2.21,2.1-3.44-.25-1.33-1.21-1.94-2.04-2.25ZM68.68,49.13c-.11.37-.2.72-.28,1.03-2.14,1.48-4.32,2.97-6.52,4.47-.08-.04-.16-.08-.24-.11.64-1.87,1.31-3.59,2.01-5.19,1.57.34,3.32.27,5.02-.21Z"/>
            <path class="cls-6" d="M148.79,75.98c-.67-.45-1.38-.76-2.04-.92-.14-.03-.28-.05-.42-.07-.43-.1-.83-.13-1.31-.07-.27.03-.52.1-.77.18-2.09-1.79-4.17-3.56-6.06-5.16-.46-.39-.91-.78-1.37-1.16l-.38-.33c-.7-9.76-3.66-17.65-8.79-23.47-.45-.51-.95-1.02-1.49-1.53,1.23.59,2.4,1.28,3.49,2.07,8.64,6.25,11.56,17.35,12.49,25.57.14,1.28,1.22,2.24,2.5,2.24.72,0,1.42-.31,1.92-.86.5-.55.75-1.27.69-2-.61-6.85-2.27-12.99-4.86-18.18,3.93,6.89,6.3,15.48,6.41,23.69ZM122.44,52.06c-.99-.73-2.4-.92-3.53-.5-.81-.93-1.63-1.89-2.44-2.87-1.42-1.7-2.76-3.55-4.05-5.38.72.04,1.46.15,2.24.34,3.74.93,7.41,3.63,10.34,7.6,2.27,3.08,3.93,6.94,5.01,11.69-1.94-1.75-3.89-3.62-5.87-5.68.09-.23.16-.46.2-.7.35-1.88-.7-3.62-1.9-4.5ZM156.52,84.92c-.07-.06-.14-.12-.21-.17l-.6-.45c-.22-.17-.44-.33-.64-.48-.38-.28-.76-.55-1.15-.83l-.29-.21c-.17-.12-.34-.25-.51-.37.4-.41.68-.95.76-1.54,2.08-15.12-3.47-31.57-14.14-41.91-3.52-3.41-7.97-5.8-12.76-6.92.55-.14,1.11-.36,1.66-.67,3.22.19,6.54.9,9.88,2.1,4.4,1.58,9.14,3.64,10.84,6.87.44.84,1.3,1.37,2.25,1.37s1.75-.48,2.25-1.27c.48-.78.54-1.72.15-2.52-2.41-4.95-7.75-7.32-12.03-9.22l-.29-.13c-2.67-1.18-5.49-2.05-8.41-2.58.46-1.01.8-2.08,1-3.16.21-.28.37-.6.46-.93.46.41,1.05.64,1.68.64.87,0,1.69-.45,2.19-1.19.5-.74.59-1.66.27-2.46-.91-2.21-2.86-3.74-5.8-4.56-1.08-2.12-2.74-3.8-4.82-4.93.82-.4,1.41-1.22,1.5-2.17.12-1.31-.75-2.49-2.06-2.74-1.27-.24-2.57-.35-3.86-.35-3.28,0-6.52.75-9.68,2.23-1.8-3.72-6.34-5.66-10.73-5.66h-.05c-4.29.02-9,1.93-12.91,5.26-.04.03-.08.07-.12.1-1.72-2.49-4.67-4.22-7.9-4.43-3.44-.22-6.55.66-9.31,2.6-.18-.21-.37-.41-.57-.6-1.82-1.7-4.09-2.61-6.58-2.61-1,0-2.01.15-3.02.44-.24-.07-.48-.13-.69-.18-.22-.06-.49-.12-.6-.16-.62-.22-1.33-.33-2.11-.33-1.51,0-3.09.41-4.15.71-1.96.56-3.17,1.41-4.45,2.32l-.53.37c-1.83,1.27-3.3,3.39-4.22,5.42-.85-.13-1.69-.22-2.51-.29-.04,0-.08,0-.11,0h-.15c-.16-.03-.32-.04-.47-.05-.55-.03-1.1-.04-1.65-.04-8.12,0-15.4,2.83-19.95,7.76-1.53,1.66-5.86,7.51-5.64,12.5.03.68.14,1.33.33,1.92-2.29,1.76-4,4.57-4.92,8.18-.95,3.69-1.03,8.11-.2,11.52.08.34.19.68.33,1.08.03.08.05.15.09.24.27.7.61,1.39,1.01,2.03.04.06.08.13.11.18.23.35.45.65.68.94.05.07.11.13.16.19l.03.03s0,0,.01.01c.21.25.44.49.65.69.02.02.03.04.05.05.71.7,1.52,1.27,2.37,1.73.05.03.1.05.13.07.24.11.47.23.71.33.07.03.15.06.22.09l.05.02c.21.08.42.15.66.22.1.03.19.06.29.08.22.06.44.1.71.16.09.02.17.04.26.05.35.05.67.08.99.1.23.01.46.02.69.02,4.05,0,7.99-1.7,12.03-5.21,1.5-1.29,2.8-2.79,3.91-4.17.42.89.93,1.66,1.51,2.32-.66,2.35-1.25,4.87-1.83,7.68-.15.77.04,1.55.52,2.14.47.57,1.21.92,1.95.92,1.24,0,2.39-.91,2.68-2.13.51-2.18,1-4.09,1.49-5.85.33.07.68.13,1.03.17.43.05.87.07,1.31.07,4.17,0,8.16-2.21,11.32-5.19-.76,2.13-1.41,4.36-1.95,6.65-.06.27-.09.55-.06.82-2.88,0-5.7,2.12-6.58,4.92-.12.38-.19.73-.22,1.05-.36.25-.73.51-1.09.76-1.81,1.28-3.68,2.51-5.63,3.71-.28-.69-.85-1.99-2.42-2.68-.42-.19-.88-.3-1.38-.33-1.17-.26-2.41.17-3.3,1.17-.02.02-.04.04-.06.06-.87.93-1.81,3.25-.99,5.1.09.41.24.76.4,1.07-3.43,1.8-7.12,3.55-11.15,5.31-1.48.64-2.95,1.39-4.52,2.19-3.69,1.88-7.51,3.86-11.08,4.16-.04,0-.09,0-.13.01-3.18.27-5.91.54-6.27,3.11-.17,1.19.37,2.8,2.46,3.42,2.13.63,6.66,1.07,13.53,1.3,0,.07-.01.14-.01.21-.13,3.32,3.79,3.86,7.24,4.33,7.28,1,25.73,1.58,50.63,1.58s51.28-.64,62.28-1.56c7.16-.6,10.89-1.07,10.9-4.47,0-.06,0-.13,0-.19,6.48-.41,8.11-1.03,8.77-1.28,1.77-.67,2.33-2.21,2.1-3.44-.24-1.33-1.21-1.94-2.03-2.25ZM68.47,48.9c-.11.37-.2.72-.28,1.03-2.15,1.48-4.32,2.97-6.52,4.47-.08-.04-.16-.08-.24-.11.64-1.86,1.31-3.59,2.02-5.19,1.57.34,3.32.27,5.02-.21Z"/>
            <path class="cls-10" d="M148.57,75.74c-.67-.45-1.38-.76-2.04-.92-.14-.03-.28-.06-.42-.07-.43-.1-.83-.13-1.31-.07-.27.03-.52.09-.77.18-2.09-1.79-4.17-3.56-6.06-5.16-.46-.39-.91-.78-1.37-1.16l-.38-.33c-.7-9.76-3.66-17.65-8.79-23.47-.45-.51-.95-1.02-1.49-1.53,1.23.59,2.39,1.28,3.49,2.07,8.64,6.24,11.56,17.35,12.49,25.57.14,1.28,1.22,2.24,2.5,2.24.72,0,1.42-.31,1.92-.86.5-.54.75-1.27.69-2-.61-6.85-2.27-12.99-4.86-18.18,3.93,6.89,6.3,15.47,6.41,23.69ZM122.23,51.82c-.99-.73-2.4-.92-3.53-.5-.81-.93-1.63-1.89-2.44-2.87-1.42-1.7-2.76-3.55-4.05-5.38.72.04,1.46.15,2.24.34,3.74.93,7.41,3.63,10.34,7.6,2.27,3.08,3.93,6.94,5.01,11.69-1.95-1.75-3.89-3.62-5.87-5.68.09-.23.15-.46.2-.7.35-1.88-.7-3.62-1.9-4.5ZM156.31,84.69c-.07-.06-.14-.12-.21-.17l-.6-.45c-.22-.17-.44-.33-.64-.48-.38-.28-.76-.56-1.15-.83l-.29-.21c-.17-.12-.34-.25-.51-.37.4-.41.68-.95.76-1.54,2.08-15.12-3.47-31.57-14.14-41.91-3.52-3.41-7.97-5.8-12.76-6.92.55-.14,1.11-.36,1.66-.67,3.22.19,6.54.9,9.88,2.1,4.4,1.58,9.14,3.64,10.84,6.87.44.84,1.3,1.37,2.25,1.37s1.75-.48,2.25-1.27c.49-.78.54-1.72.15-2.52-2.4-4.95-7.74-7.32-12.03-9.22l-.29-.13c-2.67-1.18-5.49-2.05-8.42-2.58.46-1.01.8-2.08,1-3.16.21-.28.37-.6.46-.93.46.41,1.05.64,1.68.64.87,0,1.69-.45,2.19-1.19.5-.74.6-1.66.27-2.46-.91-2.21-2.86-3.74-5.8-4.56-1.08-2.12-2.74-3.8-4.82-4.93.82-.4,1.41-1.22,1.5-2.17.13-1.31-.75-2.49-2.06-2.74-1.27-.24-2.57-.35-3.86-.35-3.28,0-6.52.75-9.68,2.23-1.8-3.72-6.34-5.66-10.72-5.66h-.05c-4.29.02-9.02,1.91-12.91,5.26-.04.03-.08.07-.12.1-1.72-2.49-4.67-4.22-7.9-4.42-3.44-.22-6.55.66-9.31,2.6-.18-.21-.37-.41-.57-.6-1.82-1.71-4.09-2.61-6.58-2.61-1,0-2.01.15-3.02.44-.25-.07-.48-.13-.69-.18-.22-.06-.49-.12-.6-.16-.62-.22-1.33-.33-2.11-.33-1.51,0-3.09.41-4.15.71-1.96.56-3.17,1.42-4.45,2.32l-.53.37c-1.83,1.27-3.3,3.39-4.22,5.42-.85-.13-1.69-.22-2.51-.29-.04,0-.08,0-.12,0h-.16c-.16-.03-.31-.04-.46-.05-.55-.03-1.1-.04-1.65-.04-8.12,0-15.39,2.83-19.95,7.76-1.53,1.66-5.86,7.51-5.64,12.5.03.68.14,1.32.33,1.92-2.29,1.76-4,4.57-4.93,8.18-.95,3.7-1.03,8.11-.2,11.52.08.34.19.68.33,1.08.03.08.05.15.09.24.27.7.61,1.39,1.01,2.03.04.06.08.12.11.18.23.35.45.65.68.94.05.07.11.13.16.19l.03.03s0,0,0,0c.22.25.44.49.65.7.02.02.04.04.05.05.71.7,1.52,1.27,2.37,1.73.05.03.09.05.13.07.23.12.47.23.71.33.07.03.15.06.22.09l.05.02c.21.08.42.15.66.22.1.03.19.06.29.08.22.06.44.1.71.16.09.02.17.04.26.05.35.06.67.09.99.1.23.01.46.02.69.02,4.05,0,7.99-1.7,12.03-5.21,1.5-1.29,2.8-2.79,3.91-4.17.42.88.92,1.66,1.51,2.32-.65,2.35-1.26,4.87-1.83,7.68-.15.77.04,1.55.52,2.14.47.57,1.21.92,1.95.92,1.24,0,2.39-.91,2.68-2.13.51-2.18.99-4.09,1.49-5.86.34.07.68.13,1.03.17.43.05.87.07,1.31.07,4.17,0,8.16-2.21,11.32-5.19-.76,2.13-1.41,4.36-1.95,6.65-.06.27-.09.55-.06.82-2.88,0-5.7,2.12-6.58,4.92-.12.38-.19.73-.22,1.05-.36.25-.73.51-1.09.76-1.81,1.28-3.68,2.51-5.63,3.71-.28-.69-.85-1.98-2.42-2.68-.42-.19-.88-.3-1.38-.33-1.17-.26-2.41.17-3.3,1.17-.02.02-.04.04-.06.06-.88.92-1.81,3.25-.99,5.1.09.41.23.76.4,1.07-3.43,1.8-7.12,3.56-11.15,5.31-1.48.64-2.95,1.39-4.52,2.19-3.69,1.88-7.51,3.91-11.08,4.16-.04,0-.09,0-.13.01-3.18.27-5.91.54-6.27,3.11-.17,1.19.37,2.8,2.46,3.42,2.13.63,6.66,1.07,13.53,1.3,0,.07-.01.14-.01.21-.13,3.32,3.79,3.86,7.24,4.33,7.28,1,25.73,1.58,50.63,1.58s51.28-.64,62.28-1.56c7.16-.6,10.9-1.07,10.9-4.47,0-.06,0-.13,0-.19,6.48-.41,8.11-1.03,8.77-1.28,1.77-.67,2.33-2.21,2.1-3.44-.25-1.33-1.21-1.94-2.04-2.25ZM68.26,48.66c-.11.37-.2.72-.28,1.03-2.15,1.48-4.32,2.97-6.52,4.47-.08-.04-.16-.08-.24-.11.64-1.87,1.31-3.59,2.02-5.19,1.57.34,3.32.27,5.02-.21Z"/>
            <path class="cls-13" d="M148.36,75.5c-.67-.45-1.38-.76-2.04-.92-.14-.03-.28-.06-.42-.07-.43-.1-.83-.13-1.31-.07-.27.03-.52.1-.77.18-2.08-1.79-4.17-3.56-6.06-5.16-.46-.39-.91-.78-1.37-1.16l-.38-.33c-.7-9.76-3.66-17.65-8.79-23.47-.45-.51-.95-1.02-1.49-1.53,1.23.59,2.39,1.28,3.49,2.07,8.64,6.24,11.56,17.35,12.49,25.57.14,1.28,1.22,2.24,2.5,2.24.72,0,1.42-.31,1.92-.86.5-.55.75-1.27.69-2-.61-6.85-2.27-12.99-4.86-18.18,3.93,6.89,6.3,15.48,6.41,23.69ZM122.02,51.58c-.99-.73-2.4-.92-3.53-.5-.81-.93-1.63-1.89-2.44-2.87-1.42-1.7-2.76-3.55-4.05-5.38.72.04,1.46.15,2.24.34,3.74.93,7.41,3.63,10.34,7.6,2.27,3.08,3.93,6.94,5.01,11.69-1.95-1.75-3.89-3.62-5.87-5.68.09-.23.15-.46.2-.7.35-1.88-.7-3.62-1.9-4.5ZM156.1,84.45c-.07-.06-.14-.12-.21-.17l-.6-.45c-.22-.17-.44-.33-.64-.48-.38-.28-.76-.55-1.15-.83l-.29-.21c-.17-.12-.34-.25-.51-.37.4-.41.68-.95.76-1.54,2.08-15.12-3.47-31.57-14.14-41.91-3.52-3.41-7.97-5.8-12.76-6.92.55-.14,1.11-.36,1.66-.67,3.22.19,6.54.9,9.88,2.1,4.4,1.58,9.14,3.64,10.84,6.87.44.84,1.3,1.37,2.25,1.37s1.75-.48,2.25-1.27c.49-.78.54-1.72.15-2.52-2.4-4.95-7.74-7.32-12.03-9.22l-.3-.13c-2.67-1.18-5.49-2.05-8.42-2.58.46-1.01.8-2.08,1-3.16.21-.28.37-.59.46-.93.46.41,1.05.64,1.69.64.87,0,1.69-.45,2.19-1.19.5-.74.59-1.66.27-2.46-.91-2.21-2.86-3.74-5.8-4.56-1.08-2.13-2.74-3.8-4.82-4.93.82-.4,1.41-1.22,1.5-2.17.13-1.31-.75-2.49-2.06-2.74-1.27-.24-2.57-.35-3.86-.35-3.28,0-6.52.75-9.68,2.23-1.8-3.72-6.34-5.66-10.72-5.66h-.05c-4.29.02-9,1.93-12.91,5.26-.04.03-.08.07-.12.1-1.72-2.49-4.67-4.22-7.9-4.42-3.44-.22-6.55.66-9.31,2.6-.18-.21-.37-.41-.57-.6-1.82-1.7-4.09-2.61-6.58-2.61-1,0-2.01.15-3.02.44-.25-.07-.48-.13-.69-.18-.22-.06-.49-.12-.6-.16-.61-.22-1.32-.33-2.11-.33-1.51,0-3.09.41-4.15.71-1.96.56-3.17,1.42-4.45,2.32l-.53.37c-1.83,1.27-3.3,3.39-4.22,5.42-.85-.13-1.69-.22-2.51-.29-.04,0-.08,0-.11,0h-.16c-.16-.03-.31-.04-.47-.05-.55-.03-1.1-.04-1.65-.04-8.12,0-15.39,2.83-19.95,7.76-1.53,1.66-5.86,7.51-5.64,12.5.03.68.14,1.33.33,1.92-2.29,1.76-4,4.57-4.93,8.18-.95,3.69-1.03,8.11-.2,11.52.08.34.19.68.33,1.08.03.08.05.15.09.24.27.7.61,1.39,1.01,2.03.04.06.08.12.11.18.22.35.45.65.68.94.05.07.11.13.16.19l.03.03s0,0,.01.01c.21.25.44.49.65.69l.05.05c.71.7,1.52,1.27,2.37,1.73.05.03.1.05.13.07.24.11.47.23.71.33.07.03.15.06.22.09l.05.02c.21.08.42.15.66.22.1.03.19.06.3.08.22.06.44.1.71.16.09.02.17.04.26.05.35.05.67.09.99.1.23.01.46.02.69.02,4.05,0,7.99-1.7,12.03-5.21,1.5-1.29,2.8-2.79,3.91-4.17.42.89.92,1.66,1.51,2.32-.65,2.35-1.26,4.87-1.83,7.68-.15.77.04,1.55.52,2.14.47.57,1.21.92,1.95.92,1.24,0,2.39-.91,2.68-2.13.51-2.18,1-4.09,1.49-5.86.34.07.68.13,1.03.17.43.05.87.07,1.31.07,4.17,0,8.16-2.21,11.32-5.19-.76,2.13-1.41,4.36-1.95,6.65-.06.27-.09.55-.06.82-2.88,0-5.71,2.12-6.58,4.92-.12.38-.19.73-.22,1.05-.36.25-.73.51-1.09.76-1.81,1.28-3.69,2.51-5.63,3.71-.28-.69-.85-1.99-2.42-2.68-.42-.19-.88-.3-1.38-.33-1.17-.26-2.41.17-3.3,1.17-.02.02-.04.04-.06.06-.87.93-1.81,3.25-.99,5.1.09.41.23.76.4,1.07-3.43,1.8-7.12,3.55-11.15,5.31-1.48.64-2.95,1.39-4.52,2.19-3.69,1.88-7.51,3.86-11.08,4.16-.04,0-.09,0-.13.01-3.18.27-5.91.54-6.27,3.11-.17,1.19.37,2.8,2.46,3.42,2.13.63,6.66,1.07,13.53,1.3,0,.07-.01.14-.01.21-.11,3.32,3.79,3.86,7.24,4.33,7.28,1,25.73,1.58,50.63,1.58s51.28-.64,62.28-1.56c7.16-.6,10.9-1.07,10.9-4.47,0-.06,0-.13,0-.19,6.48-.41,8.11-1.03,8.77-1.28,1.77-.67,2.33-2.21,2.1-3.44-.25-1.33-1.21-1.94-2.04-2.25ZM68.04,48.42c-.11.37-.2.72-.28,1.03-2.15,1.48-4.32,2.97-6.52,4.47-.08-.04-.16-.08-.24-.11.64-1.86,1.31-3.59,2.02-5.19,1.57.34,3.32.27,5.02-.21Z"/>
            <path class="cls-14" d="M148.15,75.27c-.67-.45-1.39-.76-2.04-.92-.14-.03-.28-.05-.42-.07-.43-.1-.83-.13-1.31-.07-.27.03-.52.1-.77.18-2.09-1.79-4.17-3.56-6.06-5.16-.46-.39-.91-.78-1.37-1.16l-.38-.33c-.7-9.76-3.66-17.65-8.79-23.47-.45-.51-.95-1.02-1.49-1.53,1.23.59,2.39,1.28,3.49,2.07,8.64,6.24,11.56,17.35,12.49,25.57.14,1.28,1.22,2.24,2.5,2.24.72,0,1.42-.31,1.92-.86.5-.54.75-1.27.69-2-.61-6.85-2.27-12.99-4.86-18.18,3.93,6.89,6.3,15.48,6.41,23.69ZM121.81,51.35c-.99-.73-2.4-.92-3.53-.5-.81-.93-1.63-1.89-2.44-2.87-1.42-1.7-2.76-3.55-4.05-5.38.72.04,1.46.15,2.24.34,3.74.93,7.41,3.63,10.34,7.6,2.27,3.08,3.93,6.94,5.01,11.69-1.95-1.75-3.89-3.62-5.87-5.68.09-.23.15-.46.2-.7.35-1.88-.7-3.62-1.9-4.5ZM155.89,84.21c-.07-.06-.14-.12-.21-.17l-.6-.45c-.22-.17-.44-.33-.64-.48-.38-.28-.76-.55-1.15-.83l-.29-.21c-.17-.12-.34-.25-.51-.37.4-.41.68-.95.76-1.54,2.08-15.12-3.47-31.57-14.14-41.91-3.52-3.41-7.97-5.8-12.76-6.92.55-.14,1.11-.36,1.66-.67,3.22.19,6.54.9,9.88,2.1,4.4,1.58,9.13,3.64,10.84,6.87.44.84,1.3,1.37,2.25,1.37s1.75-.48,2.25-1.27c.49-.78.54-1.72.15-2.52-2.4-4.95-7.74-7.32-12.03-9.22l-.29-.13c-2.67-1.18-5.49-2.05-8.41-2.58.46-1.01.8-2.08,1-3.16.21-.28.37-.6.46-.93.46.41,1.05.64,1.69.64.87,0,1.69-.45,2.19-1.19.5-.74.59-1.66.27-2.46-.91-2.21-2.86-3.74-5.8-4.56-1.08-2.13-2.74-3.8-4.82-4.93.82-.4,1.41-1.22,1.5-2.17.13-1.31-.75-2.48-2.06-2.74-1.27-.24-2.57-.35-3.86-.35-3.28,0-6.52.75-9.68,2.23-1.8-3.72-6.34-5.66-10.72-5.66h-.05c-4.29.02-9,1.93-12.91,5.26-.04.03-.08.07-.12.1-1.72-2.49-4.67-4.22-7.9-4.42-3.44-.22-6.55.66-9.31,2.6-.18-.21-.37-.41-.57-.6-1.82-1.71-4.09-2.61-6.58-2.61-1,0-2.01.15-3.02.44-.25-.07-.48-.13-.69-.18-.22-.05-.49-.12-.6-.16-.62-.22-1.32-.33-2.11-.33-1.51,0-3.09.41-4.15.71-1.96.56-3.17,1.42-4.45,2.32l-.53.37c-1.83,1.27-3.3,3.39-4.22,5.42-.85-.13-1.69-.22-2.51-.29-.04,0-.08,0-.11,0h-.16c-.16-.03-.31-.04-.47-.05-.55-.03-1.1-.04-1.65-.04-8.12,0-15.39,2.83-19.95,7.76-1.53,1.66-5.86,7.51-5.64,12.5.03.68.14,1.33.33,1.92-2.29,1.76-4,4.57-4.93,8.18-.95,3.69-1.03,8.11-.2,11.52.08.34.19.68.33,1.08.03.08.05.15.09.24.27.7.61,1.39,1.01,2.03.04.06.08.12.11.18.23.35.45.65.68.94.05.07.11.13.16.19l.03.03s0,0,.01.01c.21.25.44.49.65.69l.05.05c.72.7,1.52,1.28,2.37,1.73.05.03.1.05.13.07.23.12.47.23.71.33.07.03.15.06.22.09l.05.02c.21.08.42.15.66.22.1.03.19.06.29.08.22.06.44.11.71.16.09.02.17.04.26.05.35.05.67.08.99.1.23.01.46.02.69.02,4.05,0,7.99-1.7,12.03-5.2,1.5-1.3,2.8-2.79,3.91-4.17.42.89.92,1.66,1.51,2.32-.65,2.35-1.25,4.87-1.83,7.68-.15.77.04,1.55.52,2.14.47.57,1.21.92,1.95.92,1.24,0,2.39-.91,2.68-2.13.51-2.18,1-4.09,1.49-5.86.33.07.68.13,1.03.17.43.05.87.07,1.31.07,4.17,0,8.16-2.21,11.32-5.19-.76,2.13-1.41,4.36-1.95,6.65-.06.27-.09.55-.06.82-2.88,0-5.71,2.12-6.58,4.92-.12.38-.19.73-.22,1.05-.36.25-.73.51-1.09.76-1.81,1.28-3.69,2.51-5.63,3.71-.28-.69-.85-1.99-2.42-2.68-.42-.19-.88-.3-1.38-.33-1.17-.26-2.41.17-3.3,1.17-.02.02-.04.04-.06.06-.88.92-1.81,3.25-.99,5.1.09.41.23.76.4,1.07-3.43,1.8-7.12,3.55-11.15,5.31-1.48.64-2.95,1.39-4.52,2.19-3.69,1.88-7.51,3.82-11.08,4.16-.04,0-.09,0-.13.01-3.18.27-5.91.54-6.27,3.11-.17,1.19.37,2.8,2.46,3.42,2.13.63,6.66,1.07,13.53,1.3,0,.07-.01.14-.01.21-.12,3.32,3.79,3.86,7.24,4.33,7.28,1,25.73,1.58,50.63,1.58s51.28-.64,62.28-1.56c7.16-.6,10.9-1.07,10.9-4.47,0-.06,0-.13,0-.19,6.48-.41,8.11-1.03,8.77-1.28,1.77-.67,2.33-2.21,2.1-3.44-.25-1.33-1.21-1.94-2.04-2.25ZM67.83,48.19c-.11.37-.2.72-.28,1.03-2.15,1.48-4.32,2.97-6.52,4.47-.08-.04-.16-.08-.24-.11.64-1.86,1.31-3.59,2.02-5.19,1.57.34,3.32.27,5.02-.21Z"/>
          </g>
          <path class="cls-12" d="M155.89,84.21c-.07-.06-.14-.12-.21-.17l-.6-.45c-.22-.17-.44-.33-.64-.48-.38-.28-.76-.55-1.15-.83l-.29-.21c-.17-.12-.34-.25-.51-.37.4-.41.68-.95.76-1.54,2.08-15.12-3.47-31.57-14.14-41.91-3.52-3.41-7.97-5.8-12.76-6.92.55-.14,1.11-.36,1.66-.67,3.22.19,6.54.9,9.88,2.1,4.4,1.58,9.13,3.64,10.84,6.87.44.84,1.3,1.37,2.25,1.37s1.75-.48,2.25-1.27c.49-.78.54-1.72.15-2.52-2.4-4.95-7.74-7.32-12.03-9.22l-.29-.13c-2.67-1.18-5.49-2.05-8.41-2.58.46-1.01.8-2.08,1-3.16.21-.28.37-.6.46-.93.46.41,1.05.64,1.69.64.87,0,1.69-.45,2.19-1.19.5-.74.59-1.66.27-2.46-.91-2.21-2.86-3.74-5.8-4.56-1.08-2.13-2.74-3.8-4.82-4.93.82-.4,1.41-1.22,1.5-2.17.13-1.31-.75-2.48-2.06-2.74-1.27-.24-2.57-.35-3.86-.35-3.28,0-6.52.75-9.68,2.23-1.8-3.72-6.34-5.66-10.72-5.66h-.05c-4.29.02-9,1.93-12.91,5.26-.04.03-.08.07-.12.1-1.72-2.49-4.67-4.22-7.9-4.42-3.44-.22-6.55.66-9.31,2.6-.18-.21-.37-.41-.57-.6-1.82-1.71-4.09-2.61-6.58-2.61-1,0-2.01.15-3.02.44-.25-.07-.48-.13-.69-.18-.22-.05-.49-.12-.6-.16-.62-.22-1.32-.33-2.11-.33-1.51,0-3.09.41-4.15.71-1.96.56-3.17,1.42-4.45,2.32l-.53.37c-1.83,1.27-3.3,3.39-4.22,5.42-.85-.13-1.69-.22-2.51-.29-.04,0-.08,0-.11,0h-.16c-.16-.03-.31-.04-.47-.05-.55-.03-1.1-.04-1.65-.04-8.12,0-15.39,2.83-19.95,7.76-1.53,1.66-5.86,7.51-5.64,12.5.03.68.14,1.33.33,1.92-2.29,1.76-4,4.57-4.93,8.18-.95,3.69-1.03,8.11-.2,11.52.08.34.19.68.33,1.08.03.08.05.15.09.24.27.7.61,1.39,1.01,2.03.04.06.08.12.11.18.23.35.45.65.68.94.05.07.11.13.16.19l.03.03s0,0,.01.01c.21.25.44.49.65.69l.05.05c.72.7,1.52,1.28,2.37,1.73.05.03.1.05.13.07.23.12.47.23.71.33.07.03.15.06.22.09l.05.02c.21.08.42.15.66.22.1.03.19.06.29.08.22.06.44.11.71.16.09.02.17.04.26.05.35.05.67.08.99.1.23.01.46.02.69.02,4.05,0,7.99-1.7,12.03-5.2,1.5-1.3,2.8-2.79,3.91-4.17.42.89.92,1.66,1.51,2.32-.65,2.35-1.25,4.87-1.83,7.68-.15.77.04,1.55.52,2.14.47.57,1.21.92,1.95.92,1.24,0,2.39-.91,2.68-2.13.51-2.18,1-4.09,1.49-5.86.33.07.68.13,1.03.17.43.05.87.07,1.31.07,4.17,0,8.16-2.21,11.32-5.19-.76,2.13-1.41,4.36-1.95,6.65-.06.27-.09.55-.06.82-2.88,0-5.71,2.12-6.58,4.92-.12.38-.19.73-.22,1.05-.36.25-.73.51-1.09.76-1.81,1.28-3.69,2.51-5.63,3.71-.28-.69-.85-1.99-2.42-2.68-.42-.19-.88-.3-1.38-.33-1.17-.26-2.41.17-3.3,1.17-.02.02-.04.04-.06.06-.88.92-1.81,3.25-.99,5.1.09.41.23.76.4,1.07-3.43,1.8-7.12,3.55-11.15,5.31-1.48.64-2.95,1.39-4.52,2.19-3.69,1.88-7.51,3.82-11.08,4.16-.04,0-.09,0-.13.01-3.18.27-5.91.54-6.27,3.11-.17,1.19.37,2.8,2.46,3.42,2.13.63,6.66,1.07,13.53,1.3,0,.07-.01.14-.01.21-.12,3.32,3.79,3.86,7.24,4.33,7.28,1,25.73,1.58,50.63,1.58s51.28-.64,62.28-1.56c7.16-.6,10.9-1.07,10.9-4.47,0-.06,0-.13,0-.19,6.48-.41,8.11-1.03,8.77-1.28,1.77-.67,2.33-2.21,2.1-3.44-.25-1.33-1.21-1.94-2.04-2.25ZM67.83,48.19c-.11.37-.2.72-.28,1.03-2.15,1.48-4.32,2.97-6.52,4.47-.08-.04-.16-.08-.24-.11.64-1.86,1.31-3.59,2.02-5.19,1.57.34,3.32.27,5.02-.21ZM121.81,51.35c-.99-.73-2.4-.92-3.53-.5-.81-.93-1.63-1.89-2.44-2.87-1.42-1.7-2.76-3.55-4.05-5.38.72.04,1.46.15,2.24.34,3.74.93,7.41,3.63,10.34,7.6,2.27,3.08,3.93,6.94,5.01,11.69-1.95-1.75-3.89-3.62-5.87-5.68.09-.23.15-.46.2-.7.35-1.88-.7-3.62-1.9-4.5ZM148.15,75.27c-.67-.45-1.39-.76-2.04-.92-.14-.03-.28-.05-.42-.07-.43-.1-.83-.13-1.31-.07-.27.03-.52.1-.77.18-2.09-1.79-4.17-3.56-6.06-5.16-.46-.39-.91-.78-1.37-1.16l-.38-.33c-.7-9.76-3.66-17.65-8.79-23.47-.45-.51-.95-1.02-1.49-1.53,1.23.59,2.39,1.28,3.49,2.07,8.64,6.24,11.56,17.35,12.49,25.57.14,1.28,1.22,2.24,2.5,2.24.72,0,1.42-.31,1.92-.86.5-.54.75-1.27.69-2-.61-6.85-2.27-12.99-4.86-18.18,3.93,6.89,6.3,15.48,6.41,23.69Z"/>
          <g>
            <g>
              <g>
                <path class="cls-23" d="M91.35,33.58c-.52-1.51-.87-2.96-1.23-4.5-.68-2.88-3.32-4.29-6.06-4.74-.31-.53-.65-1.02-1.02-1.47-2.18-2.56-5.71-3.57-8.04-1.36-.05-2.67-1.85-4.75-4.24-6.14-3.01-1.76-6.46-1.01-9.41.38-.89.42-2.54,2.16-3.49,1.12-1.23-1.35-2.56-2.29-4.2-3.06-3.42-1.59-7.66-2.59-11.42-2.78-6.95-.34-14.79,1.65-19.67,6.93-2.38,2.57-7.32,10.36-3.73,13.64-6.29,2.4-7.49,12.6-6.12,18.22.82,3.37,3.66,6.23,7.24,6.4,4.26.21,7.86-1.88,10.99-4.59,1.57-1.36,2.93-2.98,4.21-4.62.56-.72,1.35-1.55,1.75-2.37.33-.67.48-1.44.68-.18.63,3.91,2.21,7.16,6.52,7.65,6.01.69,12.24-4.89,15.14-10.26.82,4.25,5.62,5.35,9.81,3.2,2.61-1.34,4.91-4.15,5.95-6.86.1-.25.2-.52.3-.81.55.78,1.15,1.46,1.69,1.95,3.37,3.08,8.22,1.27,11.39-1.06,1.3-.96,2.26-2.04,2.93-3.51.15-.33.17-.86.05-1.21Z"/>
                <g class="cls-11">
                  <path class="cls-23" d="M68.82,42.59c-2.43,1.25-6.14,2.42-8.43.17-.75-.74-1.21-1.57-1.47-2.44-2.6,4.23-6.64,7.82-11.24,8.27-3.61.36-7.25-1.32-9.07-4.56-.85-1.5-1.4-3.04-1.46-4.77,0-.03,0-.07,0-.1-3.38,8.22-10.11,17.1-19.23,15.59-1.28-.21-2.37-.65-3.32-1.25,1.34,1.56,3.21,2.63,5.35,2.73,4.26.21,7.86-1.88,10.99-4.59,1.57-1.36,2.93-2.98,4.21-4.62.56-.72,1.35-1.55,1.75-2.37.33-.67.48-1.44.68-.18.63,3.91,2.21,7.16,6.52,7.65,6.01.69,12.24-4.89,15.14-10.26.82,4.25,5.62,5.35,9.81,3.2,2.61-1.34,4.91-4.15,5.95-6.86.09-.24.2-.51.29-.79-1.95,2.21-4.29,4.04-6.47,5.16Z"/>
                </g>
                <g class="cls-11">
                  <path class="cls-23" d="M91.35,33.58c-.52-1.51-.87-2.96-1.23-4.5-.5-2.1-2.05-3.41-3.91-4.15-.03.56-.08,1.11-.14,1.65-.42,3.27-1.71,8.67-5.29,9.98-1.8.66-2.99-.1-3.76-1.37-.52.77-1.09,1.52-1.71,2.22.55.78,1.15,1.46,1.69,1.95,3.37,3.08,8.22,1.27,11.39-1.06,1.3-.96,2.26-2.04,2.93-3.51.15-.33.17-.86.05-1.21Z"/>
                </g>
                <g class="cls-4">
                  <path class="cls-23" d="M13.56,43.89c.54-4.2,3.12-7.9,6.69-9.84-.9-1.41-1.35-3.19-1.36-4.8-.03-4.1,2.44-7.78,5.3-10.54,5.07-4.89,11.74-7.45,18.63-7.62-.2-.01-.41-.03-.6-.05-6.95-.34-14.79,1.65-19.67,6.93-2.38,2.57-7.32,10.36-3.73,13.64-6.29,2.4-7.49,12.6-6.12,18.22.31,1.28.91,2.48,1.73,3.49-1.22-2.92-1.22-6.74-.88-9.43Z"/>
                </g>
                <path class="cls-23" d="M130.65,15.69c-2.85-7.52-13.24-7.68-19.07-3.22.27-1.26.32-2.57.27-3.57-.26-4.5-5.31-6.45-9.1-6.43-4.11.02-8.26,2.07-11.32,4.67-.74.63-1.7,1.58-2.57,2.69-.06-.3-.12-.59-.19-.86-.73-3.17-3.87-5.37-7.02-5.57-3.73-.24-6.87,1.07-9.52,3.65-.15.15-.29.32-.43.47-.2-1.05-.64-2.02-1.46-2.78-2.26-2.12-5.2-2.37-7.9-1.38-.76-.28-1.63-.43-2.12-.61-1.33-.47-3.44.05-4.75.43-1.79.52-2.76,1.31-4.26,2.35-2.08,1.44-3.89,4.73-4.25,7.23-.21,1.53-.3,4.4.78,6.01-2.5.51-4.48,2.9-5.62,5.2-1.52,3.09-1.2,7.16,1.35,9.57,2.74,2.59,7.23,1.45,9.98-.38.44-.29,1.53-1.22,2.42-2.25,0,.04,0,.08,0,.12.09,2.33,1.79,4.01,3.96,4.45,4.08.84,7.78-2.73,10.43-5.57-.33,3.44,3.07,5.13,6.42,4.77,2.5-.26,5.65-2.03,7.64-4.3.09,1.7.72,3.52,1.27,4.68,1.34,2.82,3.87,3.82,6.36,2.77-.88,2.54.96,6.33,3.94,5.61,3-.72,5.02-4.29,4.9-7.51.15.05.31.08.48.09,2.06.03,3.8-1.15,5.45-2.27,1.19-.8,2.49-2.1,3.07-3.52.54.86,1.2,1.61,2.1,1.96,2.04.81,4.04.6,6.12.08,2.09-.52,4.37-2.02,5.16-4.06,1.34,1.65,3.92.73,5.66-1.42,2.57-3.17,3.28-7.26,1.83-11.1Z"/>
                <g class="cls-11">
                  <path class="cls-23" d="M128.81,25.28c-1.99,1.63-4.63,1.26-6.15-.24-1.12,3.55-4.33,6.83-7.92,6.84-2.02,0-3.95-.84-4.54-2.91-.05-.17-.11-.37-.16-.59-2.24,3.69-6.73,7.26-9.67,5.8-.96,2.34-2.71,4.38-5.26,4.29-1.45-.05-2.55-1.06-3.02-2.3-1.22.37-2.45.38-3.61-.23-2.7-1.42-3.44-4.02-3.5-6.78-2.73,2.72-6.48,4.62-10.18,4.25-3.02-.3-3.98-2.89-3.87-5.48-2.45,3-5.66,5.72-9.23,5.6-3.41-.12-4.87-2.15-5.21-4.74-2.1,2.81-5.03,5.1-8.35,5.66-1.69.28-3.12.03-4.28-.61,2.76,2.16,6.97,1.05,9.6-.7.44-.29,1.53-1.22,2.42-2.25,0,.04,0,.08,0,.12.09,2.33,1.79,4.01,3.96,4.45,4.08.84,7.78-2.73,10.43-5.57-.33,3.44,3.07,5.13,6.42,4.77,2.5-.26,5.65-2.03,7.64-4.3.09,1.7.72,3.52,1.27,4.68,1.34,2.82,3.87,3.82,6.36,2.77-.88,2.54.96,6.33,3.94,5.61,3-.72,5.02-4.29,4.9-7.51.15.05.31.08.48.09,2.06.03,3.8-1.15,5.45-2.27,1.19-.8,2.49-2.1,3.07-3.52.54.86,1.2,1.61,2.1,1.96,2.04.81,4.04.6,6.12.08,2.09-.52,4.37-2.02,5.16-4.06,1.34,1.65,3.92.73,5.66-1.42.85-1.05,1.48-2.2,1.91-3.41-.71.81-1.42,1.49-1.92,1.9Z"/>
                </g>
                <g class="cls-4">
                  <path class="cls-23" d="M43.14,25.43c1.15-2.72,3.28-4.65,5.8-5.66-1.16-3.36-.74-7.31,1.04-10.39,2.13-3.7,5.41-5.43,9.66-5.27.66.03.7.85.14,1.08-1.13.47-1.98,1.34-2.63,2.35,1.59-1.38,3.51-2.44,5.57-2.3,2.76.2,5.37,1.76,6.53,4.37.35.79.63,1.67.83,2.62.81-1.34,1.84-2.54,3.34-3.49,3.15-1.99,6.81-2.36,9.96-.15,2.24,1.57,3.14,4.09,3.3,6.83,1.33-1.94,3.01-3.67,4.53-4.98,3.81-3.29,9.16-6.21,14.3-4.46,4.11,1.4,4.16,5.71,3.02,9.87,4.11-3.28,9.32-5.43,13.98-4.97,5.44.54,8.36,4.4,8.87,8.99.02-1.39-.21-2.8-.73-4.18-2.85-7.52-13.24-7.68-19.07-3.22.27-1.26.32-2.57.27-3.57-.26-4.5-5.31-6.45-9.1-6.43-4.11.02-8.26,2.07-11.32,4.67-.74.63-1.7,1.58-2.57,2.69-.06-.3-.12-.59-.19-.86-.73-3.17-3.87-5.37-7.02-5.57-3.73-.24-6.87,1.07-9.52,3.65-.15.15-.29.32-.43.47-.2-1.05-.64-2.02-1.46-2.78-2.26-2.12-5.2-2.37-7.9-1.38-.76-.28-1.63-.43-2.12-.61-1.33-.47-3.44.05-4.75.43-1.79.52-2.76,1.31-4.26,2.35-2.08,1.44-3.89,4.73-4.25,7.23-.21,1.53-.3,4.4.78,6.01-2.5.51-4.48,2.9-5.62,5.2-1.52,3.09-1.2,7.16,1.35,9.57,0,0,0,0,.01.01-1.31-2.4-1.42-5.56-.34-8.12Z"/>
                </g>
              </g>
              <g>
                <g>
                  <path class="cls-2" d="M152.73,85.44c-2.13-1.56-4.32-3.03-6.3-4.79-5.71-5.04-11.59-9.89-17.36-14.86-5.62-4.84-10.7-10.27-15.44-15.97-2.89-3.46-5.29-7.29-7.98-10.9-.31.16-.63.29-.99.32-.86.08-1.38-.08-2.23-.25-2.16-.44-3.69,1.77-5.86,1.33-1.94-.4-3.55-.53-5.55-.23-.65.1-1.47.2-2.12.05-.76-.17-1.13-.49-1.83-.8-.15-.07-.31-.11-.46-.15-.58.19-1.16.38-1.74.58-3.96,3.08-7.81,6.32-11.93,9.22-8.19,5.75-16.54,11.28-24.72,17.04-7.87,5.53-16.22,9.86-25.03,13.7-4.98,2.17-10.76,6.03-16.48,6.57.08.23.24.44.5.64,1.3,1.02,142.69-.13,143.96-.06,1.32.07,2.23-.12,2.79-.53-.42-.31-.83-.63-1.22-.91Z"/>
                  <path class="cls-5" d="M40.58,87.78c-32.98,0-33.39-.32-33.64-.51-.31-.24-.52-.52-.63-.83-.04-.12-.03-.25.04-.36.07-.1.18-.18.31-.19,4.03-.38,8.07-2.43,11.97-4.41,1.53-.78,2.98-1.51,4.38-2.13,9.95-4.34,17.88-8.68,24.96-13.66,4.17-2.93,8.44-5.85,12.58-8.67,4-2.72,8.12-5.54,12.15-8.37,2.83-1.99,5.58-4.18,8.24-6.3,1.22-.98,2.44-1.95,3.67-2.9.04-.03.07-.05.12-.06.58-.21,1.17-.4,1.76-.58.07-.02.15-.03.22,0,.18.04.35.1.53.17.25.11.46.22.66.33.35.19.65.34,1.09.45.5.11,1.29.05,1.97-.06,1.9-.28,3.44-.22,5.69.24.91.19,1.78-.2,2.68-.63.96-.46,1.98-.94,3.18-.7l.38.08c.61.13,1.06.23,1.72.16.32-.03.61-.16.84-.28.18-.09.4-.04.51.12,1,1.34,1.98,2.74,2.92,4.08,1.59,2.28,3.24,4.63,5.05,6.79,5.3,6.36,10.34,11.57,15.39,15.92,2.2,1.89,4.41,3.76,6.62,5.63,3.54,3,7.21,6.1,10.75,9.23,1.53,1.35,3.22,2.57,4.85,3.74.47.34.95.68,1.42,1.03.22.16.44.33.66.49l.56.42c.11.08.17.2.17.33s-.06.25-.17.33c-.66.49-1.65.69-3.06.61-.31-.01-7.1.03-17.46.09-22.38.14-64.03.39-93.1.39ZM7.46,86.62c.5.13,6.75.34,33.13.34,29.06,0,70.71-.26,93.09-.39,10.52-.07,17.24-.11,17.51-.09.83.04,1.5-.02,2-.19l-.04-.03c-.22-.17-.44-.33-.66-.49-.47-.34-.94-.68-1.42-1.02-1.65-1.18-3.35-2.41-4.92-3.79-3.53-3.12-7.19-6.22-10.73-9.22-2.21-1.88-4.43-3.75-6.62-5.64-5.09-4.38-10.16-9.62-15.49-16.02-1.83-2.19-3.49-4.56-5.09-6.85-.88-1.25-1.78-2.55-2.71-3.8-.24.1-.51.19-.82.22-.79.07-1.33-.04-1.97-.18l-.37-.08c-.95-.2-1.77.2-2.66.63-.97.46-2.06.93-3.2.7-2.15-.44-3.6-.5-5.4-.23-.76.11-1.64.19-2.27.04-.55-.12-.91-.32-1.29-.52-.18-.1-.38-.2-.61-.3-.09-.04-.19-.07-.28-.1-.52.17-1.04.34-1.56.52-1.21.94-2.41,1.9-3.61,2.86-2.67,2.13-5.43,4.33-8.28,6.33-4.03,2.83-8.16,5.65-12.16,8.37-4.13,2.82-8.41,5.74-12.57,8.66-7.12,5.01-15.1,9.38-25.1,13.74-1.39.6-2.82,1.33-4.34,2.1-3.74,1.9-7.6,3.86-11.54,4.42Z"/>
                </g>
                <g>
                  <path class="cls-2" d="M152.73,85.44c-2.13-1.56-4.32-3.03-6.3-4.79-5.71-5.04-11.59-9.89-17.36-14.86-5.62-4.84-10.7-10.27-15.44-15.97-2.89-3.46-5.29-7.29-7.98-10.9-.31.16-.63.29-.99.32-.86.08-1.38-.08-2.23-.25-2.16-.44-3.69,1.77-5.86,1.33-1.94-.4-3.55-.53-5.55-.23-.65.1-1.47.2-2.12.05-.76-.17-1.13-.49-1.83-.8-.15-.07-.31-.11-.46-.15-.58.19-1.16.38-1.74.58-3.96,3.08-7.81,6.32-11.93,9.22-8.19,5.75-16.54,11.28-24.72,17.04-7.87,5.53-16.22,9.86-25.03,13.7-4.98,2.17-10.76,6.03-16.48,6.57.08.23.24.44.5.64,1.3,1.02,142.69-.13,143.96-.06,1.32.07,2.23-.12,2.79-.53-.42-.31-.83-.63-1.22-.91Z"/>
                  <path class="cls-5" d="M40.58,87.78c-32.98,0-33.39-.32-33.64-.51-.31-.24-.52-.52-.63-.83-.04-.12-.03-.25.04-.36.07-.1.18-.18.31-.19,4.03-.38,8.07-2.43,11.97-4.41,1.53-.78,2.98-1.51,4.38-2.13,9.95-4.34,17.88-8.68,24.96-13.66,4.17-2.93,8.44-5.85,12.58-8.67,4-2.72,8.12-5.54,12.15-8.37,2.83-1.99,5.58-4.18,8.24-6.3,1.22-.98,2.44-1.95,3.67-2.9.04-.03.07-.05.12-.06.58-.21,1.17-.4,1.76-.58.07-.02.15-.03.22,0,.18.04.35.1.53.17.25.11.46.22.66.33.35.19.65.34,1.09.45.5.11,1.29.05,1.97-.06,1.9-.28,3.44-.22,5.69.24.91.19,1.78-.2,2.68-.63.96-.46,1.98-.94,3.18-.7l.38.08c.61.13,1.06.23,1.72.16.32-.03.61-.16.84-.28.18-.09.4-.04.51.12,1,1.34,1.98,2.74,2.92,4.08,1.59,2.28,3.24,4.63,5.05,6.79,5.3,6.36,10.34,11.57,15.39,15.92,2.2,1.89,4.41,3.76,6.62,5.63,3.54,3,7.21,6.1,10.75,9.23,1.53,1.35,3.22,2.57,4.85,3.74.47.34.95.68,1.42,1.03.22.16.44.33.66.49l.56.42c.11.08.17.2.17.33s-.06.25-.17.33c-.66.49-1.65.69-3.06.61-.31-.01-7.1.03-17.46.09-22.38.14-64.03.39-93.1.39ZM7.46,86.62c.5.13,6.75.34,33.13.34,29.06,0,70.71-.26,93.09-.39,10.52-.07,17.24-.11,17.51-.09.83.04,1.5-.02,2-.19l-.04-.03c-.22-.17-.44-.33-.66-.49-.47-.34-.94-.68-1.42-1.02-1.65-1.18-3.35-2.41-4.92-3.79-3.53-3.12-7.19-6.22-10.73-9.22-2.21-1.88-4.43-3.75-6.62-5.64-5.09-4.38-10.16-9.62-15.49-16.02-1.83-2.19-3.49-4.56-5.09-6.85-.88-1.25-1.78-2.55-2.71-3.8-.24.1-.51.19-.82.22-.79.07-1.33-.04-1.97-.18l-.37-.08c-.95-.2-1.77.2-2.66.63-.97.46-2.06.93-3.2.7-2.15-.44-3.6-.5-5.4-.23-.76.11-1.64.19-2.27.04-.55-.12-.91-.32-1.29-.52-.18-.1-.38-.2-.61-.3-.09-.04-.19-.07-.28-.1-.52.17-1.04.34-1.56.52-1.21.94-2.41,1.9-3.61,2.86-2.67,2.13-5.43,4.33-8.28,6.33-4.03,2.83-8.16,5.65-12.16,8.37-4.13,2.82-8.41,5.74-12.57,8.66-7.12,5.01-15.1,9.38-25.1,13.74-1.39.6-2.82,1.33-4.34,2.1-3.74,1.9-7.6,3.86-11.54,4.42Z"/>
                </g>
                <path class="cls-3" d="M152.73,85.44c-2.13-1.56-4.32-3.03-6.3-4.79-5.71-5.04-11.59-9.89-17.36-14.86-5.62-4.84-10.7-10.27-15.44-15.97-2.89-3.46-5.29-7.29-7.98-10.9-.31.16-.63.29-.99.32-.86.08-1.38-.08-2.23-.25-2.16-.44-3.69,1.77-5.86,1.33-1.94-.4-3.55-.53-5.55-.23-.65.1-1.47.2-2.12.05-.76-.17-1.13-.49-1.83-.8-.03-.01-.05-.02-.08-.03-3.53,4.41-7.05,8.89-11.2,12.74-4.56,4.24-9.84,7.71-14.71,11.59-4.86,3.87-9.64,7.47-15.24,10.22-5.27,2.6-10.44,5.8-16,7.72-.46.16-.85-.41-.62-.81,1.62-2.74,4.08-5.03,6.6-7.16-4.1,2.21-8.32,4.21-12.65,6.1-4.98,2.17-10.76,6.03-16.48,6.57.08.23.24.44.5.64,1.3,1.02,142.69-.13,143.96-.06,1.32.07,2.23-.12,2.79-.53-.42-.31-.83-.63-1.22-.91ZM73.67,69.7c-4.5,6.7-19.44,6.61-19.1,6.16,4.42-5.97,6.96-7.76,12.26-12.98,2.69-2.65,5.65-5.09,8.47-7.65,2.52-3.45,5.07-7.01,8.64-9.42.43-.29.9.18.8.62-.97,4.39-4.04,8.34-5.76,12.49-1.54,3.73-3.05,7.43-5.31,10.79ZM81.25,73.39c-.25.55-.97.21-1.02-.28-.55-5.72,5.32-22.67,7.2-25.48.24-.36.91-.37,1,.13,1.66,9.15-3.51,17.63-7.18,25.62ZM117.89,80.85c-3.35-1.85-6.55-4.03-9.41-6.58-2.3-2.05-3.94-4.68-6.13-6.83.22,3.45.71,6.9,1.83,10.19.17.5-.57.97-.92.53-2.24-2.87-5.29-5.32-7.21-8.41-.45,3.67-1.27,7.28-2.01,10.91-.08.38-.66.55-.92.24-2.19-2.65-2.2-6.59-2.4-9.86-.25-4.16-.26-8.02.29-12.03.15-2.69.42-5.38.57-8.07.04-.63.86-.72,1.08-.15,1.33,3.59,2.82,7.3,3.42,11.13.09-1.1.17-2.21.29-3.32.26-2.37,1.11-4.61,1.37-6.98.06-.52.72-.78,1.02-.28,3.1,5.06,4.09,10.79,8.41,15.12,4.22,4.23,8.52,8.36,11.44,13.64.27.49-.27,1.02-.75.75ZM130.9,75.78c-3.07-1.35-5.98-3.56-8.85-5.33-2.48-1.53-5.02-3.17-7.09-5.24-1.02-1.02-1.93-2.1-2.76-3.23-3.64-3.88-6.34-8.25-7.04-13.92-.06-.5.63-.7.93-.39,4.21,4.27,6.36,10.04,10.76,14.17,4.78,4.5,10.2,8.29,14.71,13.08.45.48-.11,1.1-.66.86Z"/>
                <path class="cls-3" d="M152.73,85.44c-2.13-1.56-4.32-3.03-6.3-4.79-5.71-5.04-11.59-9.89-17.36-14.86-3.63-3.13-7.02-6.53-10.26-10.07,1.43,1.89,2.87,3.78,4.27,5.68,5.7,7.71,13.18,13.84,19.31,21.19.34.41.03,1.05-.53.92-3.75-.9-7.63-.73-11.4-1.51-3.77-.78-6.41-2.44-8.96-5.29-3.11-3.49-6.03-7.11-9.54-10.21-1.5-1.32-2.98-2.64-4.32-4.09,1.79,3.45,13.24,15.65,15.37,19.79.19.37-11.33,1.61-16.36,1.45-3.51-.11-14.31-.09-14.98-1.45-2.14-2.65-1.13-15.26-1.09-17.26-.15.93-.29,1.87-.45,2.81-.8,4.68-.37,9.77-1.83,14.3-.07.21-12.06-.41-12.01-.7.79-4.75,2.74-9.11,4.41-13.57-1.57,2.15-3.19,4.26-4.81,6.38-1.15,1.5-2.04,3-2.94,4.66-.5.92-1.05,1.97-1.93,2.6-3.03,2.16-21.43,1.1-21.3.8,1.32-3.06,3.03-7.06,5.38-9.79-.92.85-1.86,1.68-2.83,2.47-3.61,2.95-6.56,7.32-11.43,8.16-2.84.5-5.96.45-8.84.65-3.03.22-6.01.28-9.02-.19-.35-.05-.5-.53-.33-.8,1.32-2.04,3.16-3.59,5.1-5.05-1.51.7-3.03,1.4-4.57,2.07-4.98,2.17-10.76,6.03-16.48,6.57.08.23.24.44.5.64,1.3,1.02,142.69-.13,143.96-.06,1.32.07,2.23-.12,2.79-.53-.42-.31-.83-.63-1.22-.91Z"/>
                <g>
                  <path class="cls-16" d="M85.74,39.48c-.29.45-.42.88-.03,1.05.51.22,1.01.43,1.51.69.57.3,1.05,1.03,1.4,1.55.72,1.06,1.34,2.44,2.29,3.31,1.51,1.36,3.17.67,4.83.06,1.56-.56,3.03-.98,4.68-1.09,1.39-.1,2.14-.58,2.62-1.26.56-.8.75-1.89,1.18-2.96.24-.61.54-1.2.92-1.7-.16.06-.33.1-.51.11-.86.08-1.38-.08-2.23-.25-2.16-.44-3.69,1.77-5.86,1.33-1.94-.4-3.55-.53-5.55-.23-.65.1-1.47.2-2.12.05-.76-.17-1.13-.49-1.83-.8-.15-.07-.31-.11-.46-.15-.29.09-.58.19-.87.29Z"/>
                  <path class="cls-5" d="M92.91,47.27h0c-.87,0-1.61-.29-2.27-.89-.7-.63-1.21-1.49-1.7-2.32-.22-.37-.43-.73-.66-1.06l-.08-.11c-.31-.46-.74-1.08-1.18-1.31-.43-.23-.88-.42-1.33-.61l-.15-.07c-.29-.13-.41-.34-.46-.49-.1-.32,0-.69.3-1.16.05-.08.13-.14.22-.17l.29-.1c.19-.07.39-.13.58-.19.07-.02.15-.03.22,0,.18.04.35.1.53.17.25.11.46.22.66.33.35.19.65.34,1.09.45.5.11,1.29.05,1.97-.06,1.9-.28,3.44-.22,5.69.24.91.19,1.78-.2,2.68-.63.96-.46,1.98-.94,3.18-.7l.38.08c.61.13,1.06.23,1.72.16.14-.01.27-.04.42-.09.17-.06.36,0,.47.15.1.15.1.35,0,.49-.32.41-.6.93-.87,1.6-.14.36-.26.72-.37,1.06-.23.72-.45,1.4-.86,1.98-.62.88-1.55,1.34-2.93,1.44-1.41.1-2.78.42-4.57,1.07l-.23.08c-.9.33-1.82.66-2.75.66ZM86.01,39.82c-.15.26-.13.36-.13.36l.15.04c.46.2.93.4,1.38.63.63.32,1.1,1.02,1.48,1.57l.07.11c.23.35.46.72.68,1.11.46.78.94,1.58,1.54,2.13.51.47,1.06.68,1.72.68.78,0,1.6-.3,2.47-.62l.23-.08c1.87-.68,3.31-1.01,4.8-1.11,1.45-.1,2-.63,2.32-1.09.33-.48.54-1.1.75-1.76.12-.36.24-.74.39-1.11.15-.37.3-.7.47-1-.61.01-1.06-.09-1.61-.2l-.37-.08c-.95-.2-1.77.2-2.66.63-.97.46-2.06.93-3.2.7-2.15-.44-3.6-.5-5.4-.23-.76.11-1.64.19-2.27.04-.55-.12-.91-.32-1.29-.52-.18-.1-.38-.2-.61-.3-.09-.04-.19-.07-.28-.1-.15.05-.3.1-.45.15l-.16.05Z"/>
                </g>
                <path class="cls-7" d="M88.21,41.1c2.32,1.71,3.63,2.35,6.65,1.8,2.35-.43,4.4-.62,6.59-1.69.95-.47,1.96-.67,2.99-.84.2-.44.43-.88.72-1.25-.16.06-.33.1-.51.11-.86.08-1.38-.08-2.23-.25-2.16-.44-3.69,1.77-5.86,1.33-1.94-.4-3.55-.53-5.55-.23-.65.1-1.47.2-2.12.05-.76-.17-1.13-.49-1.83-.8-.15-.07-.31-.11-.46-.15-.29.09-.58.19-.87.29-.19.3-.3.59-.24.8.99-.1,1.85.19,2.71.82Z"/>
                <g>
                  <path class="cls-9" d="M59.9,85.01s-62.78.37-56.59,2.21c6.19,1.84,36.22,1.32,36.22,1.32,0,0-32.58,2.14-15.89,4.43,16.7,2.29,90.47,1.82,112.29,0,21.81-1.82-6.46-4.27-6.46-4.27,0,0,20.9.2,25.34-1.48,6.46-2.46-94.9-2.21-94.9-2.21Z"/>
                  <path class="cls-5" d="M73.88,94.93c-24.79,0-43.12-.56-50.3-1.55-4.31-.59-5.14-1.11-5.11-1.8.04-1.09,4.65-1.94,10.46-2.57-9.99-.02-22.01-.3-25.74-1.41-.21-.06-.79-.23-.72-.71.09-.6.19-1.35,28.99-1.93,14.07-.28,28.29-.37,28.43-.37,0,0,2.77,0,7.37,0,87.81,0,88.12,1.68,88.23,2.32.06.3-.13.53-.55.69-2.74,1.04-11.47,1.38-18.06,1.48,5.12.69,7.71,1.46,7.71,2.29,0,.68-.66,1.34-8.64,2.01-10.94.91-36.46,1.55-62.08,1.55ZM19.36,91.6c.27.17,1.19.54,4.33.97,7.03.96,25.79,1.54,50.19,1.54,25.59,0,51.09-.64,62.01-1.54,5.84-.49,7.38-.97,7.79-1.2-1.1-.74-7.93-1.71-14.25-2.25-.22-.02-.39-.21-.38-.43.01-.22.17-.39.41-.39,0,0,.79,0,2.09,0h0c4.3,0,18.13-.1,22.52-1.28-5.34-1-37.85-1.6-86.81-1.6-4.6,0-7.37,0-7.37,0-20.28.12-50.24.63-55.86,1.56,3.55.79,12.83,1.21,26.37,1.21,5.18,0,9.07-.06,9.11-.06.22,0,.41.17.42.39,0,.22-.16.41-.38.43-9.13.6-18.93,1.74-20.19,2.65Z"/>
                </g>
                <g>
                  <path class="cls-5" d="M90.5,49.02c-.53,1.75-1.32,3.39-1.95,5.11-.85,2.34-1.32,4.76-2.13,7.11-1.37,3.97-3.09,7.66-3.89,11.84-.08.42.51.11.58-.13.6-2.13,1.3-4.21,2.11-6.27.85-2.16,2.09-4.14,2.79-6.36.63-2.03.83-4.21,1.38-6.26.46-1.72,1.05-3.35,1.4-5.1.04-.22-.26-.06-.29.07Z"/>
                  <path class="cls-5" d="M82.7,44.87c-1.58,2.55-3.71,5-5.59,7.35-1.99,2.48-5.51,3.81-8.05,5.63-4.96,3.57-9.6,7.73-14.38,11.55-.21.17-.13.51.15.3,5.78-4.36,11.35-8.87,17.61-12.53,4.9-2.86,7.9-7.28,10.52-12.24.14-.25-.15-.25-.26-.07Z"/>
                  <path class="cls-5" d="M118.85,74.22c-2.78-3.77-5.8-7.33-9.22-10.53-2.25-2.12-3.03-4.65-4.53-7.21-1.24-2.12-2.3-4.21-3.25-6.48-.06-.14-.28.08-.25.19.56,2.18,1.1,4.3,1.96,6.39.8,1.94,1.77,4.31,3.23,5.83,1.84,1.9,3.96,3.46,5.81,5.34,2.12,2.15,3.99,4.5,5.99,6.75.1.11.34-.17.26-.27Z"/>
                  <path class="cls-5" d="M139.1,81.87c-2.37-1.29-4.38-3.01-6.62-4.49-2.47-1.63-5.06-3.06-7.54-4.66-2.2-1.43-4.15-3.16-6.34-4.6-2.27-1.5-4.33-3.48-6.06-5.56-.1-.12-.35.17-.28.28,2.8,4.14,6.95,7.52,11.19,10.15,2.81,1.74,5.8,3.17,8.61,4.91,2.32,1.43,4.26,3.27,6.83,4.29.12.05.33-.24.21-.31Z"/>
                  <path class="cls-5" d="M128.57,69.26c-2.88-3.22-6.69-5.85-9.17-9.36-2.19-3.1-5.68-5.5-7.42-8.92-.06-.11-.23.08-.21.16.25,1.33,1.31,2.36,2.03,3.46,1.42,2.15,2.85,4.31,4.44,6.34,1.31,1.66,2.54,2.34,4.36,3.45,2.12,1.29,3.87,3.55,5.72,5.2.13.12.37-.2.26-.32Z"/>
                  <path class="cls-5" d="M96.84,71.8c-.16-2.01-.81-4-.99-6.03-.02-.19-.27.04-.28.13-.29,2-.32,3.7-.06,5.75.3,2.37.23,4.71.62,7.09.06.36.5-.07.53-.25.32-2.22.37-4.47.19-6.7Z"/>
                  <path class="cls-5" d="M90.08,78.61c-.08-.16-.3.11-.26.23.23.75-.07,1.58.05,2.34.05.29.41-.06.43-.21.1-.71.1-1.72-.22-2.37Z"/>
                  <path class="cls-5" d="M82.43,62.58c-1.37,3.5-3.07,6.85-4.76,10.2-1.25,2.47-3.02,5.19-3.2,8.02-.03.54.6.23.74-.06,2.77-5.9,5.59-11.91,7.46-18.17.07-.22-.2-.11-.25.02Z"/>
                </g>
                <g>
                  <path class="cls-1" d="M80.29,44.66c-.74,1.05-2.75,2.05-3.76,2.81-1.97,1.47-3.83,3.07-5.81,4.52-3.75,2.73-7.52,5.44-11.38,8.02-3.52,2.35-7,4.75-10.61,6.96-3.45,2.12-7.18,3.8-10.42,6.23-.12.09-.1.36.07.23,3.47-2.52,7.53-4.18,11.24-6.31,3.79-2.17,7.62-4.26,11.29-6.63,3.73-2.42,7.26-5.19,10.82-7.85,2.05-1.53,3.9-3.33,5.81-5.04.96-.85,2.33-1.69,2.92-2.86.08-.15-.08-.21-.17-.08Z"/>
                  <path class="cls-1" d="M71.99,59.44c-2.28,1.04-4.14,3.23-5.87,4.99-.75.76-1.65,1.39-2.38,2.19-1,1.1-1.74,2.36-2.83,3.37-.19.18-.23.7.13.46,4.12-2.8,7.92-6.9,11.02-10.77.06-.07.1-.32-.07-.24Z"/>
                  <path class="cls-1" d="M86.33,53.48s-.07.02-.1.04c-.07.03-.25.21-.14.29-.05-.03-1.02,1.94-1.16,2.3-.42,1.06-.76,2.19-.97,3.31-.14.72.76.2.93-.08,1.04-1.68,1.56-3.77,1.59-5.74,0-.1-.05-.15-.16-.12Z"/>
                  <path class="cls-1" d="M92.77,55.52c-.1-.18-.36.1-.36.22-.07,2.54-.72,5.02-.74,7.57-.03,3.13.29,6.38.58,9.51.03.33.51-.05.52-.25.09-3.09.61-6.21.59-9.28-.02-2.37.63-5.6-.58-7.76Z"/>
                  <path class="cls-1" d="M108.15,72.12c-2.44-5.36-5.74-10.39-8.56-15.56-.09-.17-.33.12-.29.25,1.01,3.01,1.41,6.45,3.14,9.17,1.51,2.38,3.36,4.55,5.15,6.72.21.26.68-.35.56-.59Z"/>
                  <path class="cls-1" d="M112.15,59.36c-.47-1.18-1.02-2.43-1.72-3.5-.34-.51-.62-1.18-1.07-1.6-.56-.54-1.04-.97-1.46-1.65-.1-.17-.38.13-.31.28.59,1.33.84,2.82,1.5,4.15.64,1.31,1.2,2.11,2.35,3.05.34.28.83-.43.7-.74Z"/>
                </g>
                <path class="cls-3" d="M53.29,90.42c-.79-.78-2.16-.78-3.21-.81-1.04-.03-2.62-.17-3.55.36-.23.13-.72.76-.36,1.01.09.06.2.1.3.15.01.01.01.03.03.04.37.44.99.42,1.51.56.86.23,1.86.14,2.74.18.82.04,2.35-.04,2.61-1.03.04-.16.07-.33-.06-.46Z"/>
                <path class="cls-3" d="M58.58,88.63c-.57-.56-1.55-.56-2.3-.58-.75-.02-1.88-.12-2.54.26-.17.1-.52.54-.26.72.06.05.14.07.21.11,0,0,0,.02.02.03.27.31.71.3,1.08.4.62.16,1.33.1,1.96.13.58.02,1.68-.03,1.87-.74.03-.12.05-.24-.04-.33Z"/>
                <path class="cls-3" d="M119.82,90.42c-.79-.78-2.16-.78-3.21-.81-1.04-.03-2.62-.17-3.55.36-.23.13-.72.76-.36,1.01.09.06.2.1.3.15,0,.01.01.03.02.04.38.44.99.42,1.52.56.86.23,1.86.14,2.74.18.82.04,2.35-.04,2.61-1.03.04-.16.07-.33-.06-.46Z"/>
                <path class="cls-3" d="M125.11,88.63c-.57-.56-1.55-.56-2.3-.58-.75-.02-1.88-.12-2.54.26-.17.1-.52.54-.26.72.06.05.14.07.21.11,0,0,0,.02.02.03.27.31.71.3,1.08.4.62.16,1.33.1,1.96.13.58.02,1.68-.03,1.87-.74.03-.12.05-.24-.04-.33Z"/>
                <path class="cls-3" d="M72.36,87.71c-.79-.79-2.16-.78-3.22-.81-1.04-.03-2.62-.17-3.55.37-.23.13-.72.75-.36,1,.09.06.2.1.3.15,0,.01.01.03.02.04.38.44.99.42,1.52.56.86.23,1.86.14,2.74.18.82.04,2.35-.04,2.61-1.03.04-.17.07-.33-.06-.46Z"/>
                <path class="cls-3" d="M96.32,88.63c-.57-.56-1.55-.56-2.3-.58-.75-.02-1.88-.12-2.54.26-.17.1-.52.54-.26.72.06.05.14.07.21.11,0,0,0,.02.02.03.27.31.71.3,1.09.4.61.16,1.33.1,1.96.13.58.02,1.68-.03,1.87-.74.03-.12.05-.24-.05-.33Z"/>
              </g>
              <path class="cls-26" d="M89.94,29.42c-1.51-1.6-4.6-1.74-6.59-1.99-2.48-.32-4.96.02-7.2,1.16-10.72,5.45-16.6,16.83-19.25,28.08-.06.25.3.07.35-.08,3-10.17,7.51-19.95,16.74-25.91,4.18-2.7,10.25-3.29,14.72-.76,2.2,1.24,2.73,4.72,3.11,6.93.41,2.33.76,4.84.49,7.2-.02.16.18.02.2-.07.9-4.22.53-11.26-2.58-14.55Z"/>
              <path class="cls-26" d="M88.66,20.58c-6.3-5.28-15.57-3.95-22.54-.88-7.25,3.19-13.29,8.96-17.87,15.31-5.31,7.37-7.9,16.03-9.68,24.82-.05.24.29.03.33-.12,1.89-8.1,4.23-15.9,8.82-22.92,4.46-6.84,10.88-12.65,18.28-16.14,6.57-3.1,15.04-4,21.3.27,6.74,4.6,8.37,13.96,8,21.51-.01.21.26.03.27-.1.77-7.76-.61-16.47-6.91-21.74Z"/>
              <path class="cls-26" d="M86.64,34.17c-2.71-1.26-5.36-.18-7.76,1.27-5.19,3.13-8.25,10.48-9.33,16.15-.04.19.23.03.25-.09,1.13-5.12,4.08-10.57,7.99-14.11,1.99-1.8,4.78-2.93,7.44-2.29,2.45.59,3.25,4.02,4.21,5.96.12.25.51-.17.47-.35-.46-2.14-1.03-5.5-3.28-6.54Z"/>
              <path class="cls-26" d="M126.6,6.21c-8.8-1.62-16.83,3.27-22.25,9.87-4.15,5.07-6.48,11.61-7.38,18.23,0-5.03-.87-10.2-2.74-14.66-2.18-5.22-7.45-12.08-13.51-12.62-.13,0-.33.27-.17.3,5.75.96,10.02,7.47,12.42,12.31,2.97,5.97,3.72,14.31,3.28,20.87-.01.22.26.03.28-.1,0,.71,0,1.42.02,2.12.01.33.47-.08.5-.24,1.45-8.35,1.88-16.38,6.59-23.75,4.75-7.42,13.73-13.39,22.79-12.04.13.02.31-.26.16-.29Z"/>
              <path class="cls-26" d="M126,15.38c-4.57.05-8.9,2.16-12.53,4.77-7.5,5.38-12.27,13.96-13.64,23-.06.38.45.1.5-.11,2.24-8.04,5.65-15.18,12.05-20.73,3.27-2.84,7.22-4.86,11.47-5.69,3.39-.66,9.75-.62,11.86,2.71.08.13.28-.1.24-.21-1.4-3.4-6.79-3.78-9.95-3.74Z"/>
              <path class="cls-26" d="M137.39,40.03c-9.62-9.32-26.21-9.66-34.69,1.29-.15.19-.02.46.19.25,5.39-5.45,11.57-8.24,19.34-7.44,6.06.62,11.38,3.91,15.59,8.14,9.23,9.26,13.78,24.9,12.61,37.69-.03.29.34.04.36-.13,1.92-13.99-3.21-29.92-13.41-39.8Z"/>
              <path class="cls-26" d="M125.16,45.9c-3.09-3.5-7.95-6.53-12.72-6.8-4.78-.26-9.01,1.89-12.23,5.33-.22.24-.03.53.25.31,4.35-3.43,8.5-5.61,14.17-4.2,4.8,1.19,8.86,4.63,11.73,8.53,4.88,6.61,6.39,15.36,6.87,23.37.01.18.28-.05.27-.17-.03-9.41-1.96-19.14-8.34-26.38Z"/>
              <path class="cls-17" d="M82.71,37.21c-2.36.6-4.19,1.8-5.77,3.62-.64.74-3.2,4.74-2.64,5.25-.1-.09-.28.14-.2.24.04.05.09.09.13.14.07.08.21-.08.22-.14,1.18-4.35,5.33-8.88,10.25-8.07,3.71.61,6.37,4.22,7.44,7.51.05.15.3-.1.28-.2-.62-4.45-4.62-9.65-9.71-8.36Z"/>
              <path class="cls-22" d="M94.01,30.41c-1.38-4.42-4.81-7.17-8.94-8.89-8.91-3.71-18.71.9-25.43,6.79-.12.1-.07.31.09.18,6.72-5.36,15.26-8.82,23.82-6.17,9.83,3.05,11.49,13.05,11.26,22.04,0,.33.39.04.42-.15.73-4.55.15-9.42-1.22-13.8Z"/>
              <path class="cls-22" d="M96.37,10.08c-.05-.14-.28.09-.24.21,1.74,5.89,1.78,11.91,1.33,17.97-.17,2.28-.5,4.54-.84,6.8-1.21-11.94-7.94-24.71-20.43-25.69-.11,0-.27.23-.14.25,7.28.82,12.93,6.03,15.95,12.57,1.62,3.49,2.91,7.27,3.59,11.04.4,2.22.36,4.44.34,6.67-.15,1.21-.28,2.43-.35,3.65-.02.3.23.19.39.03,0,.06,0,.12,0,.19.02.36.52-.08.55-.27.16-1.17.25-2.4.29-3.65,1.86-9.78,2.84-20.31-.44-29.78Z"/>
              <path class="cls-22" d="M115.17,14.69c-5.04,1.47-8.91,4.53-11.55,9.09-3.17,5.48-5.78,11.36-6.35,17.71-.03.32.36.08.41-.09,2.87-10.34,6.64-22.1,17.45-26.39.13-.05.27-.38.04-.32Z"/>
              <path class="cls-17" d="M131.64,20.44c-3.52.6-6.99.76-10.41,1.88-3.9,1.28-7.41,3.64-10.77,5.95-2.88,1.98-5.29,4.48-7.6,7.08-1.67,1.89-4.03,5.2-4.16,7.82-.02.43.47.08.55-.12,2.48-6.28,7.26-11.29,12.84-14.96,2.91-1.92,5.78-3.72,9.04-4.99,3.37-1.31,6.9-1.58,10.4-2.33.13-.03.3-.35.11-.32Z"/>
              <path class="cls-22" d="M140.04,30.12c-5.15-2.29-10.72-3.22-16.34-2.96-5.12.23-10.52,2.79-14.76,5.53-4.19,2.71-7.05,6.25-9.45,10.57-.24.09-.66.66-.29.7.33.04.65.1.97.15.05.15.21.22.41.07,4.98.87,8.98,3.36,12.01,7.68,2.89,4.12,3.6,9.16,5.28,13.79.06.17.35-.12.31-.27-1.69-5.51-2.39-10.89-5.89-15.68-2.33-3.18-6.43-6.13-10.55-6.51,3.76-3.17,7.55-5.13,12.77-5.26,5.69-.14,11.34,1.54,15.95,4.87,8.62,6.23,12.35,17.16,13.5,27.29.01.13.21-.03.2-.12-1-11.27-5.19-22.92-15.03-29.39-8.66-5.68-21.19-5.11-28.32,2.57-.26,0-.53.01-.79.04,2.85-4.07,5.59-7.33,9.86-10.06,4.22-2.7,9.43-4.6,14.42-4.92,4.88-.31,9.84.59,14.43,2.24,4.26,1.54,9.96,3.85,12.2,8.05.07.13.29-.09.24-.21-2.06-4.24-7-6.35-11.11-8.17Z"/>
              <path class="cls-22" d="M89.53,45.03c-2.17-.16-4.77,2.92-6,4.33-2.02,2.31-4.03,5-5.04,7.93-1.05,3.05-2.38,6.84-1.59,10.07.1.4.6-.06.62-.3.38-5.06,1.46-9.66,4.13-14.01,1.27-2.06,3.18-4.52,5.2-5.9-.36.25,4.1-2.49,4.34-1.54.05.18.26-.05.25-.16,0-.79-1.54-.39-1.92-.41Z"/>
              <path class="cls-17" d="M94.89,44.85c-.11-.15-.34.12-.28.25,1.87,4.35,1.22,8.98.33,13.56-.11.55.6.09.7-.16,1.74-4.15,1.8-9.95-.74-13.65Z"/>
              <path class="cls-27" d="M118.49,84.42c-3.34.25-6.69.45-10.04.51-6.65.12-13.33-.25-19.98-.34-6.95-.09-13.86.44-20.81.44-5.52,0-11.08-.54-16.59-.02-2.48-.08-4.96-.17-7.45-.17-2.17,0-4.41.08-6.56.39-1.21.18-2.86.2-3.84,1.02-.23.19-.5.71-.12.89,3.51,1.62,8.37.47,12.11.4,2.61-.05,5.13.17,7.63.94,1.8.55,2.77.56,4.68.17.86-.17,1.64-.35,2.52-.39.32-.01,3.98-.59,3.02.67-.38.5-.42,1.01-.23,1.56.56,1.65,5.2-.79,5.83-1.11,2.45-1.23,4.99-2.37,7.8-2.11,1.99.19,3.6.53,5.64.33,2.19-.22,4.37-.75,6.55-1.05,2.26-.31,4.64.05,6.9.2,4.75.32,9.53.64,14.29.38,4.81-.26,33.05-.96,37.87-.79.48.02-26.98-2.09-29.21-1.93Z"/>
              <path class="cls-26" d="M87.08,68.26c-.65-1.42-.62-3.05-.29-4.71.17-.42.32-.84.45-1.28.25-.85.47-1.7.69-2.54.47-1.3.96-2.55,1.27-3.66.93-3.26,2.41-6.44,2.72-9.85.04-.51-.56-.1-.65.15-1.28,3.57-2.74,7.04-3.79,10.69-.45,1.58-1.05,3.24-1.48,4.91-.46,1.47-1.01,2.88-1.95,4.17-.91,1.25-1.75,2.55-2.44,3.93-.82,1.64-1.38,3.12-2.89,4.34-.81.66-1.54,1.59-2.12,2.44-1.3,1.91-2.28,4.05-3.39,6.09-.81,1.01-1.39,1.85-3.06,1.92-1.49.07-3.09.97-4.31,1.74-1.65,1.03-2.62,2.97-4.25,4.13-2.1,1.5-4.99,2.09-7.35,3.08-.14.06-.29.43-.05.34,2.21-.82,4.51-1.48,6.64-2.5,1.9-.91,3.41-2.41,5.2-3.49,2.06-1.24,4.32-1.2,6.34-2.32.6-.34.87-1.11,1.06-1.89,1.48-1.89,2.14-4.15,3.52-6.12,1.73-2.46,4.56-3.24,5.63-6.2.71-1.97,1.85-3.67,2.88-5.44,0,.1,0,.19,0,.29.11,1.68.42,2.71,1.46,4.06.92,1.2,1.06,3.05,1.58,4.46.89,2.39,1.94,3.71,1.16,6.58-.11.39-.19.77-.26,1.13-.31.77-.39,1.61-.8,2.35-.53.93-1.29,1.81-2.17,2.44-.69.49-1.6.71-2.25,1.25-.25.21-1.54,1.44-1.79,1.3-.1-.06-.29.13-.22.23.27.38.62.07.97-.12,1.22-.66,2.61-.96,3.79-1.66.75-.44,1.46-1.15,2.02-1.88-.16.76-.29,1.53-.25,2.25.08,1.18-.06,1.88-.28,2.99-.16.84.03,1.65-.08,2.5-.04.35.38.07.44-.1.55-1.5,1.45-3.17,1.58-4.75.13-1.56.11-3.11.11-4.66,0-.06.02-.11.02-.16,0-2.42.48-4.68-.22-7.02-.99-3.3-1.78-6.31-3.19-9.4Z"/>
              <path class="cls-26" d="M147.7,86.35c-2.44.1-4.83-.18-7.26-.26-1.78-.06-3.24-.06-4.72-.9-.25-.2-.52-.39-.82-.57-.13-.08-.26-.14-.4-.21-.77-.44-1.63-.76-2.45-1.09-2.65-1.06-5.45-1.61-8.06-2.79-2.92-1.31-5.7-2.9-8.13-4.99-2.12-1.82-3.46-4.31-4.89-6.66-1.53-2.51-3.21-4.9-4.62-7.5-2.94-5.4-3.64-11.14-5.24-16.96-.07-.27-.4.05-.41.2-.61,5.5.94,11.43,3.31,16.37,1.13,2.37,2.5,4.57,3.91,6.76.92,2.25,2,4.37,2.61,6.75.6,2.37,1.32,4.72,2.82,6.69,1.55,2.04,3.51,2.91,4.38,5.5.4,1.19.8,2.97,2.08,3.44.17.06.41-.23.37-.38-.01-.04-.02-.08-.03-.12-.07-.26-.36.05-.39.19.3-1.45-.87-4.42-1.34-5.86-.64-1.96-2.85-3.16-4.04-4.77-1.06-1.43-1.61-3.11-2.09-4.81.54.7,1.13,1.37,1.8,2,.6.55,1.24,1.07,1.92,1.56-.02.1,0,.2.08.27,2.92,2.71,6.91,4.18,10.59,5.52,2.15.78,4.4,1.16,6.58,1.84,1.47.47,3.27,2.63,4.85,2.42.1-.01.31-.26.14-.31-.66-.21-.52-.54-.87-.92-.16-.18-.32-.34-.48-.5.48.1.96.19,1.45.21,3.05.17,6.11.59,9.16.39.22-.01.5-.53.18-.52Z"/>
              <path class="cls-26" d="M87.13,40.9s-.1.03-.14.05c-.11.04-.26.18-.33.33-1.79,1.61-2.83,4.34-4.27,6.22-1.9,2.47-4.34,4.47-6.8,6.35-2.59,1.98-5.12,3.94-7.58,6.08-.92.8-1.94,1.56-2.77,2.46-1.31,1.42-2.23,3.18-3.65,4.5-2.13,1.99-4.5,3.46-6.37,5.75-2.5,3.06-5.09,6.36-8,9.04-.94.87-1.92,1.69-3,2.31-.02-.02-.05-.04-.11-.02-4.56,1.58-9.51.58-14.12,1.56-1.86.39-3.8.16-5.66.63-1.26.32-2.44,1.06-3.82,1.23-.8.1-1.41.18-2.15.46-.09.03-.24.31-.07.28,1.74-.32,3.49.08,5.22-.36,2.55-.65,5.25-.48,7.83-1.04,1.18-.25,2.74.09,3.99-.06,1.65-.19,3.35-.31,4.97-.65.25-.05.5-.12.75-.2,1.39-.2,2.76-.58,4.19-1.45,6.32-3.85,9.69-10.7,15.55-15.09,2.6-1.95,4-4.79,6.44-6.88,2.95-2.52,5.88-4.97,8.98-7.3,4.55-3.41,9.57-8.18,11.21-13.84.06-.22-.02-.44-.29-.35Z"/>
            </g>
            <g>
              <g>
                <path class="cls-2" d="M56.13,60.61c-.04-.36-.25-.57-.52-.69-1.91-.87-4.49.68-5.13,2.75-.58,1.88,1.03,1.82,2.3,1.27,1.14-.5,3.55-1.73,3.35-3.33Z"/>
                <path class="cls-5" d="M51.38,64.55h0c-.62,0-.93-.25-1.09-.46-.26-.35-.28-.85-.08-1.51.55-1.79,2.41-3.19,4.22-3.19.46,0,.89.09,1.29.27.39.18.63.49.68.91.21,1.73-2.11,3-3.51,3.61-.54.23-1.07.36-1.51.36ZM54.44,59.95c-1.56,0-3.22,1.26-3.7,2.8-.15.47-.15.82,0,1.02.14.19.43.23.64.23h0c.37,0,.83-.11,1.29-.31.79-.34,3.37-1.58,3.19-3.04-.03-.23-.14-.37-.36-.47-.32-.15-.68-.22-1.06-.22Z"/>
              </g>
              <g>
                <path class="cls-2" d="M62.95,60.85c-1.86-.45-6.27,3.84-4.33,4.54,1.38.49,2.88-.6,3.81-1.53.61-.61,2.11-2.62.51-3.01Z"/>
                <path class="cls-5" d="M59.34,65.78h0c-.28,0-.55-.05-.81-.14-.5-.18-.74-.59-.64-1.13.27-1.55,3.5-4.34,5.13-3.93.6.15.81.49.88.75.26.95-.83,2.28-1.27,2.72-.8.79-2.02,1.73-3.29,1.73ZM62.66,61.09c-1.46,0-4.02,2.31-4.23,3.52-.05.28.04.43.29.52.2.07.41.11.62.11,1.14,0,2.31-.98,2.91-1.57.56-.55,1.28-1.64,1.13-2.18-.02-.07-.07-.27-.48-.37-.07-.02-.15-.03-.23-.03Z"/>
              </g>
              <g>
                <path class="cls-2" d="M70.98,53.91c-.75-.21-1.7.46-2.17,1.15-.11.1-.21.21-.29.3-.32.35-.67.91-.28,1.32.34.35,1.17,0,1.5-.17.55-.29,1.01-.65,1.35-1.17.24-.38.54-1.25-.11-1.43Z"/>
                <path class="cls-5" d="M68.67,57.1h0c-.27,0-.48-.08-.63-.23-.42-.43-.32-1.05.27-1.7.08-.09.19-.2.3-.31.4-.59,1.24-1.27,2.07-1.27.13,0,.25.02.37.05.26.07.44.24.53.47.18.47-.08,1.08-.27,1.37-.34.53-.8.93-1.45,1.27-.16.08-.71.35-1.2.35ZM70.69,54.14c-.59,0-1.29.55-1.65,1.07-.14.14-.24.24-.31.33-.22.24-.54.68-.28.95.05.06.16.07.23.07.29,0,.69-.16.95-.29.57-.29.96-.63,1.24-1.08.17-.26.3-.67.22-.88-.02-.05-.05-.11-.17-.14-.07-.02-.14-.03-.22-.03Z"/>
              </g>
              <g>
                <path class="cls-2" d="M73.59,60.26c-1.08.19-2.15,1.07-2.73,2.04-.94.86-1.56,2.37-.33,2.72.51.14,1.15-.2,1.57-.45.65-.39,1.22-.83,1.73-1.39.46-.51.77-1.17.87-1.84.1-.7-.43-1.19-1.11-1.07Z"/>
                <path class="cls-5" d="M70.79,65.33h0c-.12,0-.23-.02-.33-.04-.59-.16-.79-.54-.86-.82-.18-.77.41-1.75,1.04-2.33.68-1.11,1.82-1.94,2.9-2.14.47-.08.89.06,1.16.38.23.27.32.62.27,1-.11.73-.44,1.44-.94,1.99-.5.55-1.08,1.02-1.79,1.44-.41.24-.94.52-1.45.52ZM73.8,60.52c-.05,0-.1,0-.15.01-.93.16-1.96.94-2.55,1.92-.01.02-.03.04-.05.06-.62.56-1.02,1.37-.91,1.83.05.21.2.35.47.42.41.11,1.12-.28,1.35-.42.66-.39,1.2-.83,1.66-1.34.43-.47.71-1.08.81-1.7.03-.22-.02-.42-.14-.57-.12-.14-.29-.21-.49-.21Z"/>
              </g>
              <g>
                <path class="cls-2" d="M71.7,66.9c-.26.14-.5.38-.62.66-.13.14-.24.29-.28.41-.08.22-.05.77.29.8.41.04.8-.21,1.05-.52.26-.32.43-.68.41-1.09-.03-.46-.57-.39-.85-.25Z"/>
                <path class="cls-5" d="M71.17,69.04h0s-.07,0-.11,0c-.18-.01-.33-.11-.43-.27-.18-.28-.16-.69-.09-.89.07-.19.21-.36.31-.47.15-.31.41-.58.72-.75.17-.09.38-.14.56-.14.39,0,.66.24.69.61.03.44-.12.85-.47,1.28-.31.39-.76.63-1.18.63ZM72.13,67.06c-.1,0-.22.03-.31.08-.21.11-.4.31-.49.53-.01.03-.03.06-.05.08-.13.13-.2.25-.22.31-.05.13,0,.4.05.43h.06c.26,0,.54-.16.75-.42.26-.33.37-.61.35-.91,0-.06,0-.1-.14-.1Z"/>
              </g>
              <g>
                <path class="cls-2" d="M93.87,53.94c.46-.66.79-1.45.79-2.22,0-.44-.14-.82-.51-1.08-.41-.29-.91-.04-1.24.26-.77.68-1.29,1.67-1.2,2.72h0s0,.04,0,.05c0,.01,0,.03,0,.04,0,.18,0,.36.03.54.19.97,1.07.88,1.64.28.02-.02.03-.04.05-.06.17-.15.32-.32.43-.52Z"/>
                <path class="cls-5" d="M92.49,55.24h0c-.51,0-.89-.36-1-.95-.04-.21-.04-.42-.04-.59,0-.02,0-.07,0-.09-.09-1.03.39-2.13,1.29-2.92.19-.17.58-.45,1.02-.45.2,0,.39.06.56.18.42.29.63.74.63,1.31,0,.77-.31,1.62-.84,2.38-.11.2-.27.4-.47.57,0,0-.02.03-.03.04-.32.34-.73.53-1.1.53ZM93.76,50.78c-.19,0-.43.11-.66.32-.77.68-1.18,1.61-1.11,2.49,0,.02,0,.06,0,.08,0,.19,0,.36.04.52.06.34.22.51.46.51.22,0,.49-.14.71-.36.02-.02.03-.04.05-.06.17-.15.3-.3.39-.46.49-.7.75-1.43.76-2.09,0-.39-.12-.66-.39-.85-.08-.05-.16-.08-.25-.08Z"/>
              </g>
              <g>
                <path class="cls-2" d="M88.99,47.45c-.21-.58-.95-.26-1.21.12-.16.22-.46.74-.4,1.1-.06.25-.07.51.02.7.21.48.91,0,1.09-.24.34-.42.7-1.12.5-1.68Z"/>
                <path class="cls-5" d="M87.71,49.85h0c-.25,0-.45-.14-.56-.37-.1-.22-.11-.51-.04-.82-.04-.47.3-1.02.45-1.25.19-.28.6-.55,1-.55.32,0,.57.18.69.5.29.8-.34,1.69-.54,1.94-.14.17-.58.55-1,.55ZM88.56,47.41c-.17,0-.43.15-.55.32-.2.28-.39.68-.35.9,0,.04,0,.07,0,.11-.05.21-.05.41,0,.53l.05.04c.17,0,.47-.21.58-.34.31-.39.61-.99.46-1.41-.04-.12-.1-.14-.18-.14Z"/>
              </g>
              <g>
                <path class="cls-2" d="M38.41,68.49c-.22-.56-.45-1.03-1.02-1.28-.21-.1-.47-.12-.72-.09-.03-.02-.06-.04-.1-.05-.31-.1-.6.17-.79.42,0,0-.02.01-.03.03-.37.39-.81,1.78-.34,2.27.04.48.19.89.66,1.12.47.22,1.34-.19,1.7-.48.55-.45.94-1.22.65-1.92Z"/>
                <path class="cls-5" d="M36.38,71.23c-.16,0-.31-.03-.44-.09-.61-.29-.76-.84-.81-1.26-.51-.69,0-2.15.41-2.57,0-.01.03-.02.04-.03.34-.42.72-.59,1.06-.48.03.01.06.02.08.04.29,0,.55.03.77.12.67.29.92.82,1.17,1.43.34.85-.13,1.74-.74,2.24-.31.25-.99.61-1.55.61ZM36.47,67.31c-.15,0-.31.12-.48.33-.02.03-.06.06-.09.08-.26.29-.64,1.51-.3,1.86.04.05.07.1.08.17.04.48.19.75.51.9.05.03.12.04.2.04.4,0,.96-.28,1.2-.48.44-.36.81-1.02.58-1.61-.21-.53-.4-.92-.88-1.14-.15-.07-.36-.09-.59-.07-.05,0-.1,0-.15-.03l-.07-.04h0Z"/>
              </g>
              <g>
                <path class="cls-2" d="M59.96,56.28c-.6-.72-1.59.59-1.8,1.07-.15.35-.1.72.24.93.38.23.83-.09,1.09-.37.16-.18.43-.64.49-1.04.11-.19.14-.4-.01-.58Z"/>
                <path class="cls-5" d="M58.69,58.63h0c-.15,0-.29-.04-.42-.12-.43-.26-.57-.76-.35-1.27.18-.42.91-1.44,1.63-1.44.24,0,.45.11.62.31.19.23.22.54.07.84-.08.45-.37.94-.55,1.14-.15.16-.54.54-1,.54ZM59.55,56.35c-.38,0-.97.73-1.13,1.11-.06.15-.14.43.13.59.21.13.54-.1.74-.32.12-.14.37-.55.42-.9,0-.03.01-.06.03-.09.1-.18.04-.25.02-.27-.08-.1-.15-.11-.21-.11Z"/>
              </g>
              <g>
                <path class="cls-2" d="M80.96,43.32s0-.05-.02-.08c-.08-.24-.38-.21-.56-.16-.7.19-1.17,1.04-1.51,1.63-.37.63-.29,1.29.2,1.81.38.4,1.11.33,1.57.13.65-.29,1.09-.9,1.2-1.6.11-.69-.25-1.51-.88-1.74Z"/>
                <path class="cls-5" d="M79.87,47.09h0c-.42,0-.77-.13-1-.38-.58-.61-.67-1.41-.24-2.14l.04-.07c.36-.62.85-1.46,1.63-1.68.07-.02.19-.04.31-.04.28,0,.48.12.57.34.64.32,1.04,1.17.92,1.98-.12.81-.63,1.48-1.36,1.81-.26.12-.58.18-.87.18ZM80.61,43.33s-.11,0-.16.03c-.57.16-.99.89-1.31,1.43l-.04.07c-.31.52-.25,1.05.16,1.48.16.17.42.21.61.21h0c.22,0,.46-.05.65-.14.56-.25.94-.76,1.04-1.39.09-.61-.23-1.27-.7-1.44-.08-.03-.14-.1-.17-.18-.01-.06-.04-.07-.08-.07Z"/>
              </g>
              <g>
                <path class="cls-2" d="M120.18,53.55c-.37-.28-.79-.25-1.14-.05-.15.04-.31.11-.48.25-.58.48-.74,1.45-.53,2.13.21.68.63.89,1.33.85.73-.04,1.52-.66,1.66-1.39.12-.66-.31-1.41-.83-1.8Z"/>
                <path class="cls-5" d="M119.2,57.02c-.75,0-1.21-.33-1.43-1.05-.23-.75-.06-1.86.62-2.43.18-.15.37-.25.58-.3.35-.21.96-.22,1.38.09.58.43,1.08,1.27.94,2.07-.15.82-1.03,1.56-1.91,1.61-.06,0-.12,0-.17,0ZM119.59,53.63c-.14,0-.28.04-.42.12-.2.06-.32.13-.44.23-.5.41-.62,1.28-.44,1.84.16.53.46.69,1.05.66.63-.04,1.3-.59,1.41-1.16.11-.57-.3-1.21-.72-1.53-.13-.1-.28-.15-.43-.15Z"/>
              </g>
              <g>
                <path class="cls-2" d="M135.1,70.95s-.08,0-.12,0c-.14-.09-.3-.14-.5-.06-.69.25-.8,1.03-.57,1.63.22.6.98.95,1.5.43.58-.58.72-1.77-.3-1.99Z"/>
                <path class="cls-5" d="M134.82,73.47h0c-.5,0-.98-.36-1.17-.86-.17-.45-.16-.95.02-1.33.14-.31.39-.54.72-.66.24-.08.46-.07.67.05.02,0,.08,0,.1.01.47.11.79.4.92.82.15.53-.04,1.21-.48,1.64-.22.22-.49.33-.78.33ZM134.68,71.12s-.07,0-.11.02c-.19.07-.32.19-.41.37-.12.25-.12.59,0,.9.11.29.39.51.66.51h0c.14,0,.27-.06.39-.17.29-.29.44-.76.34-1.1-.07-.23-.24-.37-.51-.43-.06,0-.17-.01-.22-.05-.05-.04-.09-.05-.14-.05Z"/>
              </g>
              <g>
                <path class="cls-2" d="M147.85,79.04c-.29-.98-1.41-1.79-2.37-2.02-.08-.02-.17-.02-.25-.01-.16-.06-.33-.1-.51-.08-1.09.13-.85,1.59-.57,2.25.43,1.03,1.42,2.24,2.65,2.2,1.14-.04,1.28-1.54,1.04-2.34Z"/>
                <path class="cls-5" d="M146.74,81.65c-1.28,0-2.35-1.19-2.84-2.37-.18-.44-.43-1.44-.06-2.09.18-.31.47-.5.85-.54.2-.02.38,0,.59.08h.04c.09,0,.16,0,.23.02,1,.24,2.24,1.1,2.57,2.21.18.62.15,1.56-.27,2.14-.25.34-.6.53-1.03.55h-.07ZM144.83,77.19s-.05,0-.07,0c-.21.03-.35.11-.44.27-.22.38-.12,1.11.09,1.6.42,1.01,1.31,2.03,2.34,2.03v.27l.05-.28c.26,0,.46-.11.61-.32.3-.42.33-1.17.19-1.67-.26-.88-1.3-1.62-2.17-1.83-.03,0-.06,0-.1,0h-.07s-.08,0-.11-.02c-.11-.04-.21-.07-.3-.07Z"/>
              </g>
              <g>
                <path class="cls-2" d="M123.15,72.93c-.35-.44-.79-.55-1.2-.23-.51-.19-.99.09-1.22.59-.3.62.09,1.05.49,1.51.35.4.95.87,1.51.9.67.04,1.28-.72,1.23-1.36-.05-.56-.47-.97-.81-1.4Z"/>
                <path class="cls-5" d="M122.79,75.96s-.06,0-.07,0c-.65-.04-1.32-.56-1.7-.99-.42-.48-.91-1.04-.53-1.81.29-.59.86-.9,1.42-.77.48-.29,1.04-.16,1.46.36l.16.2c.31.37.66.79.7,1.34.03.4-.13.84-.44,1.18-.29.31-.64.48-1,.48ZM121.63,72.91c-.26,0-.51.18-.66.49-.21.43.02.71.42,1.18.36.41.9.81,1.35.84l.04.28v-.27c.2,0,.42-.11.6-.3.21-.23.32-.52.3-.77-.03-.38-.3-.7-.58-1.04l-.17-.21c-.17-.21-.5-.44-.82-.19-.08.06-.18.08-.26.04-.07-.03-.15-.04-.22-.04Z"/>
              </g>
              <g>
                <path class="cls-2" d="M111.27,60.57c-.31-.5-.75-1.62-1.51-1.35-.43.16-.76.62-.74,1.07.01.3.09.67.23,1.04.05.31.16.61.31.87.22.4.66,1.02,1.17.98.6-.05,1.04-.81.98-1.36-.05-.49-.2-.85-.45-1.25Z"/>
                <path class="cls-5" d="M110.69,63.46c-.6,0-1.07-.61-1.36-1.12-.17-.3-.29-.63-.34-.96-.13-.33-.22-.73-.23-1.07-.02-.57.37-1.14.92-1.34.11-.04.22-.06.33-.06.67,0,1.07.73,1.36,1.26.05.1.1.19.15.26.29.47.43.87.49,1.37.04.39-.11.84-.39,1.18-.23.28-.53.45-.84.48,0,0-.07,0-.08,0ZM110,59.46s-.09,0-.14.03c-.32.12-.57.48-.56.8.01.28.09.63.21.95.06.32.16.6.29.84.3.53.62.84.88.84v.27l.03-.27c.16-.01.33-.11.47-.28.18-.23.29-.54.27-.77-.04-.41-.16-.74-.41-1.14-.05-.08-.1-.18-.16-.28-.21-.39-.53-.97-.88-.97Z"/>
              </g>
            </g>
            <g>
              <path class="cls-2" d="M78.31,91.96c.17-.43.07-.8-.16-1.11-1.64-2.17-5.54-2-7.55-.05-1.82,1.78.05,2.71,1.84,2.87,1.61.14,5.11.21,5.87-1.72Z"/>
              <path class="cls-5" d="M73.84,94.02h0c-.46,0-.94-.02-1.43-.06-1.13-.1-2.45-.53-2.77-1.41-.21-.59.05-1.24.76-1.93,1.03-1,2.59-1.6,4.17-1.6s2.98.61,3.79,1.68c.32.43.39.89.2,1.37-.5,1.28-2.14,1.96-4.72,1.96ZM74.57,89.56c-1.44,0-2.85.54-3.78,1.45-.38.37-.79.89-.63,1.35.18.52,1.11.94,2.3,1.05.47.04.93.06,1.38.06h0c1.63,0,3.69-.28,4.21-1.61.12-.3.08-.57-.13-.84-.7-.93-1.92-1.46-3.35-1.46Z"/>
            </g>
            <g>
              <path class="cls-2" d="M105.66,88.33c.13-.33.05-.61-.12-.84-1.25-1.66-4.22-1.53-5.75-.04-1.39,1.35.04,2.07,1.4,2.19,1.23.11,3.89.16,4.47-1.31Z"/>
              <path class="cls-5" d="M102.26,89.96h0c-.35,0-.72-.02-1.09-.05-.43-.04-1.85-.23-2.16-1.12-.17-.47.03-.99.59-1.54.8-.78,2-1.24,3.22-1.24s2.31.48,2.94,1.3c.26.34.31.73.16,1.11-.39,1-1.66,1.53-3.66,1.53ZM102.81,86.56c-1.08,0-2.14.41-2.84,1.09-.27.26-.57.65-.46.96.13.37.81.68,1.7.76.35.03.71.05,1.04.05,1,0,2.74-.16,3.15-1.19.08-.21.05-.39-.09-.58-.52-.69-1.43-1.09-2.5-1.09Z"/>
            </g>
            <g>
              <path class="cls-2" d="M107.45,89.12c.09-.24.04-.44-.09-.6-.9-1.19-3.03-1.1-4.13-.03-1,.97.03,1.48,1.01,1.57.88.08,2.79.12,3.21-.94Z"/>
              <path class="cls-5" d="M105.01,90.37h0c-.3,0-.58-.02-.79-.04-.32-.03-1.38-.18-1.62-.86-.13-.37.02-.77.45-1.19.59-.57,1.47-.91,2.37-.91s1.71.35,2.17.97c.2.27.25.57.12.87-.29.75-1.23,1.15-2.7,1.15ZM105.41,87.92c-.75,0-1.5.28-1.98.76-.15.14-.38.41-.31.61.08.23.57.44,1.15.49.2.02.46.03.74.03.7,0,1.91-.1,2.19-.8.05-.13.03-.23-.05-.34-.36-.48-.99-.75-1.74-.75Z"/>
            </g>
            <g>
              <path class="cls-2" d="M134.01,88.83c.1-.24.04-.44-.09-.61-.9-1.19-3.03-1.1-4.13-.03-1,.97.03,1.49,1.01,1.57.88.08,2.8.12,3.21-.94Z"/>
              <path class="cls-5" d="M131.57,90.08h0c-.3,0-.58-.02-.79-.04-.32-.03-1.38-.17-1.62-.85-.13-.37.02-.77.45-1.19.59-.57,1.47-.91,2.37-.91s1.71.35,2.17.97c.2.27.25.57.13.87-.3.75-1.23,1.15-2.7,1.15ZM131.97,87.64c-.76,0-1.5.28-1.98.75-.15.14-.38.41-.31.61.08.23.57.44,1.15.49.2.02.46.03.75.03.7,0,1.91-.1,2.19-.8.05-.13.03-.22-.05-.34-.36-.48-.99-.75-1.74-.75Z"/>
            </g>
            <g>
              <path class="cls-2" d="M39.14,90.01c.09-.24.04-.44-.09-.6-.9-1.19-3.03-1.1-4.13-.03-1,.97.03,1.48,1.01,1.57.88.08,2.8.12,3.21-.94Z"/>
              <path class="cls-5" d="M36.7,91.26h0c-.3,0-.58-.02-.79-.04-.32-.03-1.38-.17-1.62-.85-.13-.37.02-.77.45-1.19.59-.57,1.47-.91,2.37-.91s1.71.35,2.17.97c.2.27.25.57.13.87-.3.75-1.23,1.15-2.7,1.15ZM37.1,88.82c-.75,0-1.5.28-1.98.76-.15.14-.38.41-.31.61.08.23.57.44,1.15.49.2.02.46.03.74.03.7,0,1.91-.1,2.19-.8.05-.12.04-.22-.05-.34-.36-.48-.99-.75-1.74-.75Z"/>
            </g>
          </g>
        </g>
      </g>
    </g>
  </g>
</svg>