<?xml version="1.0" encoding="UTF-8"?>
<svg id="Layer_2" data-name="Layer 2" xmlns="http://www.w3.org/2000/svg" width="96.38" height="104.44" viewBox="0 0 96.38 104.44">
  <defs>
    <style>
      .cls-1 {
        fill: #b44848;
      }

      .cls-2 {
        fill: #3e332c;
      }

      .cls-3 {
        fill: #704b30;
      }

      .cls-4 {
        fill: #cabfa7;
      }

      .cls-5 {
        fill: #7b7069;
      }

      .cls-6 {
        fill: #fcdfbe;
      }

      .cls-7 {
        fill: #c18d5a;
      }
    </style>
  </defs>
  <g id="Layer_1-2" data-name="Layer 1">
    <g>
      <g>
        <path class="cls-7" d="M54.23.04c-11.98-.63-21.26,5.52-29.3,13.67C13.21,18.23,5.98,28.07,3.18,40.86.38,53.65-.5,67.35.26,77.42c.4,5.34,1.52,12.13,2.22,14.54-1.23,3.26-.04,6.57,3.03,7.78,3.67,1.45,9.85,1.51,13.47.54,3.62-.97,5.42-3.68,4.02-6.82,2.33-3.62,4.66-11.34,5.13-14.24,1.4,6.76,4.37,13.51,5.54,16.89-.99,3.02.41,6.39,4.26,7.48,4.26,1.21,10.89,1.12,13.88-.42,3.03-1.57,4.34-4.95,2.2-7.44,4.67-.24,5.85-3.97,4.68-5.9.7-3.62,1.53-7.5,1.69-11.19,1.95.02,3.36.16,4.51.32,2.22.3,3.24.96,3.86,3.83.7,3.21.79,9.7.55,11.63-1.27,2.22-.73,6.29,3.12,7.87,4.31,1.77,11.04,2.27,15.19.33,3.13-1.46,3.75-5.76.55-7.8,2.33-4.83,6.44-18.51,7.14-29.85.7-11.34.56-25.02-5.83-37.17C81.96,13.53,68.68.81,54.23.04Z"/>
        <g>
          <path class="cls-5" d="M88.2,99.17c.39.64.58,1.67.58,2.69-.34.3-.72.57-1.17.78-.55.26-1.16.47-1.79.64.15-1.29.14-2.5.16-3.87.02-1.33,1.55-1.33,2.22-.24Z"/>
          <path class="cls-5" d="M83.24,100.35c.35.83.48,2.17.5,3.35-1.22.16-2.5.21-3.78.16.09-1.2.27-2.63.66-3.6.49-1.25,2.15-1.04,2.62.09Z"/>
          <path class="cls-5" d="M76.68,99.8c.39.93.51,2.51.51,3.78-1.32-.2-2.59-.51-3.73-.89.1-1.05.28-2.17.6-2.98.5-1.25,2.15-1.04,2.62.09Z"/>
          <path class="cls-5" d="M52.66,100.98c.21.35.36.81.46,1.32-.39.33-.82.63-1.3.88-.41.21-.89.39-1.42.55.04-.81.04-1.63.05-2.51.02-1.33,1.55-1.33,2.22-.24Z"/>
          <path class="cls-5" d="M55.19,93.54c.02-1.16,1.36-1.16,1.93-.21.19.32.33.75.41,1.22-.61.48-1.39.85-2.39,1.05.03-.66.03-1.33.04-2.06Z"/>
          <path class="cls-5" d="M47.38,101.96c.24.59.38,1.43.45,2.28-1.14.14-2.38.2-3.63.19.11-.92.28-1.86.56-2.56.5-1.25,2.15-1.04,2.62.09Z"/>
          <path class="cls-5" d="M40.82,101.42c.3.71.43,1.79.48,2.83-1.2-.14-2.36-.35-3.37-.64-.09-.02-.16-.06-.25-.08.11-.8.27-1.59.51-2.2.5-1.25,2.15-1.04,2.62.09Z"/>
          <path class="cls-5" d="M20.63,97.96c.23.37.38.88.48,1.43-.61.38-1.32.68-2.13.9-.19.05-.4.1-.61.14.03-.72.03-1.45.04-2.24.02-1.33,1.55-1.33,2.22-.24Z"/>
          <path class="cls-5" d="M15.03,98.71c.23.55.36,1.33.44,2.13-1.15.09-2.37.11-3.58.06.11-.83.27-1.65.52-2.28.5-1.25,2.15-1.04,2.62.09Z"/>
          <path class="cls-5" d="M8.44,97.92c.28.68.42,1.7.48,2.7-1.25-.2-2.42-.48-3.41-.87-.05-.02-.1-.05-.15-.07.11-.68.25-1.33.46-1.85.5-1.25,2.15-1.04,2.62.09Z"/>
        </g>
        <path class="cls-4" d="M29.77,14.83c-1.58,1.31-4.75,7.21-5.22,9.66-.48-2.29.16-5.57.63-6.71-2.06,2.62-4.75,7.86-4.91,10.81-.63-1.31-.79-3.93-.48-5.08-1.11,2.95-3.8,12.45-3.48,15.89-.48-3.44-.79-7.86-.32-9.99-.48,1.47-2.06,4.75-2.06,7.04-.63-2.29-.79-3.6-.48-5.24-1.74,2.95-5.54,8.68-6.65,13.92-.63-3.6,1.74-11.14,3.32-14.41,0,.49,0,1.72.24,2.54.55-1.96,2.61-6.06,3.72-7.29.24,1.23.16,2.54.4,3.6.55-2.13,2.37-4.67,2.85-5.65-.16.98-.16,2.62-.16,3.77.24-1.56,1.74-7.04,3.32-9.91,0,1.64-.08,3.6.08,4.91.87-3.52,4.12-7.04,5.22-8.19-.08.98.16,2.21.24,3.19,1.03-1.39,2.29-1.97,3.72-2.87Z"/>
        <path class="cls-4" d="M8.02,47.56c-.88,2.17,0,5.43,1.05,8.14-2.1-1.27-2.45-1.27-2.97-2.9-1.05,3.26,0,7.78.7,10.5-1.4-1.27-2.27-1.81-2.27-3.44-.35,4.71.88,9.35,1.4,11.04-.47-.42-1.23-1.81-1.4-2.41.12,1.27.93,3.92,1.46,5.37-.52-.3-2.62-4.89-3.38-8.39.47.66.64,1.15,1.28,1.63-.52-2.41-1.92-7.24-.41-10.5.41,1.03.88,1.57,1.46,2.29-.06-1.75-.06-6.7.76-8.33.35.72.47,1.39,1.05,2.17,0-1.15-.18-3.14,1.28-5.19Z"/>
        <path class="cls-4" d="M44.52,68.12c1.57,2.15,2.19,4.42,2.97,7.36-1.05-1.58-1.14-2.04-2.01-2.72,1.49,3.4,2.62,8.04,2.89,10.75-1.05-.79-1.4-1.92-2.19-3.4.35,3.06,1.75,6.23,2.54,7.24-1.14-.79-1.31-.79-1.84-1.92.26,1.58,1.71,5.04,3.19,7.41-.7-1.92-.83-3.11-.83-3.68.88.69,1.66,1.51,2.62,2.01-1.09-1.72-1.75-3.36-2.01-5.29.88.63,1.71.81,2.41,1.31-.7-2.6-2.06-5.43-2.27-8.37,1.18,1.04,2.36,1.86,3.19,2.99-.26-3.26-.7-5.88-1.84-8.94,0,1.13.22,3.73.09,5.18-.92-3.78-1.92-7.24-3.5-9.71.44,1.79.61,2.56.79,3.85-1.22-1.81-2.89-3.19-4.2-4.08Z"/>
        <path class="cls-4" d="M55.45,80.47c-.88,1.91-1.36,4.1-1.62,7.45-.18,2.35-.17,5.07.17,7.83-.13-2.53.6-4.57,1.12-5.6-.64-1.33.42-2.94,1.06-4.09.29.66.39,1.82.33,2.42.98-1.52.94-4.01.88-5.03.41.46.61,1.03.85,1.82.5-.55,1.22-1.41,1.73-2.54.2-1.37.35-2.73.4-4.08-2.24.06-4.05-.1-4.93,1.81Z"/>
        <path class="cls-4" d="M95.57,58.96c-.52,2.92-1.54,6.8-2.5,8.87.83-.83,1.13-1.47,1.66-2.44-.35,1.72-2.19,6.15-4.02,8.96,1.23-.82,2.01-1.54,2.62-2.35-.66,1.52-1.89,3.76-2.89,5.07,1.4-.72,2.29-1.37,2.82-2.01-1.68,4.88-2.58,6.94-3.63,9.02,1.19-.94,1.82-1.47,2.17-2.2-.98,3.49-1.76,4.98-2.75,6.67.9-.87,1.65-1.67,2.33-2.62,1.8-6.14,3.52-13.98,3.94-20.94.12-1.95.21-3.97.26-6.03Z"/>
        <path class="cls-4" d="M4.11,77.15c-2.04-3.24-3.3-11.83-3.73-16.87-.46,6.24-.49,12.14-.12,17.14.33,4.38,1.14,9.73,1.8,12.85.76-2.03.42-4.27-.14-6.51.52.54,1.14,1.22,1.88,2.53-.18-1.9-1.53-4.48-2.14-6.97.52,1,1.09,1.58,2.1,1.99-.96-2.08-1.92-4.8-1.84-6.88.61,1.18,1.36,2.04,2.19,2.71Z"/>
        <path class="cls-4" d="M89.48,27.83c-1.04-1.97-2.19-3.91-3.43-5.79-1,.7-1.83,1.49-2.35,2.29-1.07-1.02-2.15-1.91-3.29-2.68-.49-.9-1.21-1.86-2.1-2.68.2.47.32,1.01.49,1.69-.65-.36-1.33-.69-2.02-.98-.6-.95-1.6-1.89-2.51-2.55.13.38.5,1.1.32,1.78-1.41-.41-2.91-.7-4.53-.86-1.11-1.21-3.23-1.94-3.94-1.96.41.75.55,1.48.29,1.87-.88-1.11-2.13-2.14-3.79-2.56.96,1.02,1.36,2.23,1.13,2.88-.67-.39-1.13-.52-2.09-.77.26.45.15.93-.01,1.27-.66.19-1.3.42-1.93.68-1.01-.68-1.93-.79-3.22-.82.7.45.96,1.22,1.09,1.89-.94.56-1.81,1.23-2.58,1.99-2.17-3.13-7.84-5.35-10.93-2.93-4.33,3.39-3.06,11.4,1.14,15.2-1.99,4.36-4.72,11.79-4.7,17.71.47-.78.77-1.22,1.35-1.82.04,2.65-.57,8.2.66,11.41.44-1.14.63-1.72,1.01-2.18,1.12,2.83,2.83,5.18,5.18,6.73,2.57,3.84,7.47,7.86,11.83,9.8-.26-.3-.66-.84-.95-1.49,2.02,1.55,6.88,3.58,9.77,4.52-.35-1.24.96-1.51,1.88-1.73,1.33-.23,2.11-.58,4.24-1.58-.04.44-.47,1.48-.96,2.71,2.01-.7,6.41-5.52,7.92-6.92-.13.63-.57,1.54-1.18,3.17,2.62-2.71,4.37-5.25,5.34-7.38,9.3-5.58,8.89-23.03,6.08-31.7.05-.02.1-.05.15-.07-.86-2.76-1.95-5.49-3.35-8.14Z"/>
        <path class="cls-7" d="M70.16,19.36c10.14,1.09,17.49,7.64,20.44,15.4,2.96,7.76,5.64,23.11-3.8,28.79-4.14,5.46-9.65,8.99-17.61,8.99s-15.33-3.86-19.41-9.96c-8.58-5.67-6.56-22.4-2.23-30.67,4.33-8.27,12.47-13.63,22.61-12.54Z"/>
        <path class="cls-7" d="M46.45,34.59c-4.78-3.32-5.5-11.39-1.8-14.33,3.14-2.5,9.3.44,10.83,3.72.83,1.77.37,3.44-.75,5.09-1.14,1.69-3.24,4.1-4.96,5.34-1.02.74-2.35.86-3.32.18Z"/>
        <path class="cls-3" d="M51.75,30.03c1.37-1.58,2.79-3.63,1.87-5.16-1.15-1.91-5.48-3.74-7.35-1.93-2.36,2.29-1.44,6.9.47,8.87,1.25,1.29,2.82.74,5.02-1.78Z"/>
        <path class="cls-7" d="M91.69,36.44c4.98-2.99,6.2-11,2.68-14.18-2.98-2.7-9.31-.18-11.04,2.99-.93,1.72-.58,3.41.43,5.13,1.03,1.76,2.98,4.31,4.62,5.66.97.8,2.29,1.01,3.3.4Z"/>
        <path class="cls-3" d="M86.68,31.54c-1.27-1.66-2.56-3.8-1.54-5.27,1.27-1.83,5.7-3.37,7.45-1.44,2.21,2.44,1.01,6.98-1.02,8.82-1.32,1.2-2.86.55-4.89-2.11Z"/>
        <path class="cls-2" d="M79.54,41.96c.1.98.81,1.72,1.59,1.65.78-.08,1.32-.93,1.22-1.92-.1-.98-.81-1.72-1.59-1.65-.78.08-1.32.93-1.22,1.92Z"/>
        <path class="cls-2" d="M58.69,41.1c-.14.98.36,1.88,1.13,2.01.77.13,1.51-.56,1.65-1.54.14-.98-.36-1.88-1.13-2.01-.77-.13-1.51.56-1.65,1.54Z"/>
        <path class="cls-6" d="M71.16,37.24c-4.23-.3-8.14,3.62-10.83,9.9-2.34,5.45-3.07,9.83-2.24,13.82.99,4.76,6.53,6.97,12.18,7.18,5.65.21,10.61-2.93,11.62-7.05,1.29-5.24.1-10.06-1.54-14.48-1.89-5.11-5.23-9.08-9.18-9.37Z"/>
        <path class="cls-1" d="M67.1,61.21c1.55,3.1,5.71,2.92,7.28.39-1.41-.11-3.11-.9-3.12-3-.28,1.93-2.58,2.7-4.16,2.61Z"/>
        <path class="cls-2" d="M77.78,59.49c-.19-.07-.41.02-.49.21-.39.97-1.62,1.63-2.88,1.53-.65-.05-2.75-.39-2.77-2.61.21-1.48.27-2.65.31-4.43,2.41-.18,4.41-2.7,4.01-4.14-.39-1.42-1.88-1.95-3.83-2.13-2.17-.2-3.93.17-4.57,1.57-.69,1.53,1.2,4.34,3.63,4.67-.05,2.02-.12,3.05-.31,4.39-.24,1.71-2.35,2.37-3.77,2.29-1.11-.06-2.18-.77-2.95-1.93-.11-.17-.35-.22-.52-.11-.17.11-.22.35-.11.52.88,1.34,2.14,2.16,3.46,2.26.77,1.33,2.06,2.13,3.6,2.2.07,0,.14,0,.22,0,1.46,0,2.81-.68,3.62-1.81.08,0,.15,0,.23,0,1.48,0,2.84-.81,3.32-2.01.08-.19-.02-.41-.21-.49ZM70.63,63.25c-1.25-.06-2.31-.66-3-1.67,1.26-.07,2.74-.59,3.51-1.7.47,1.18,1.56,1.8,2.69,2.02-.76.9-1.94,1.4-3.2,1.35Z"/>
      </g>
      <path class="cls-4" d="M28.13,79.23c-.93-3.44-2.88-14.6-2.33-22.36-.56,3.76-1.64,8.29-2.52,10.8.57-.53.91-.88,1.44-1.52-.31.94-.78,2.1-.99,2.5-.35.67-.75,1.43-1.15,2.07.37-.14.52-.19.96-.52-.74,1.12-1.41,1.82-1.71,2.07-2.81,2.31-7.11,1.06-10.5-2.32,2.4,3.2,7.17,7.04,10.09,8.45-.25-.41-.36-.68-.39-1.09.9.73,2.66,1.54,3.87,2.01.64,3.63.09,9.22-.43,11.4,1.77-3.91,3.3-9.18,3.67-11.46h0Z"/>
    </g>
  </g>
</svg>