<?xml version="1.0" encoding="UTF-8"?>
<svg id="Layer_2" data-name="Layer 2" xmlns="http://www.w3.org/2000/svg" width="101.85" height="114.8" viewBox="0 0 101.85 114.8">
  <defs>
    <style>
      .cls-1 {
        fill: #3e332c;
      }

      .cls-2 {
        fill: #e60012;
      }

      .cls-3 {
        fill: #bc8e6a;
      }

      .cls-4 {
        fill: #9f8f7e;
      }

      .cls-5 {
        fill: #dbccb5;
      }

      .cls-6 {
        fill: #edcd83;
      }

      .cls-7 {
        fill: #9fa0a0;
      }
    </style>
  </defs>
  <g id="Layer_1-2" data-name="Layer 1">
    <g>
      <path class="cls-6" d="M10.17,31.21c.42.05.84.08,1.26.08,3.15,0,5.51-.28,8.21-1.73,2.4-1.28,3.23-3.34,4.41-4.52,1.35-1.36,3.23-2.05,4.85-4.94-1.92,4.89-3.84,10.14-4.2,14.86-.35,4.72.52,8.91,4.2,9.09s5.57-3.3,7.52-6.99c2.32-4.39,6.47-9.88,11.01-9.88s7.69,5.36,9.61,8.48c1.69,2.74,4.78,2.91,6.47.7,1.77-2.32,5.08-6.72,9.26-7.36,4.46-.69,7.86,2.47,9.96,7.05,2.1,4.58,3.84,6.08,6.47,9.4s5.59,6.12,4.72,12.06c-.87,5.94-6.12,14.33-6.99,16.6s-1.2,3.7-1.2,5.42.39,4.33.92,6.75c.46,2.11-.07,3.74-1.11,5.64-1.03,1.87-2.8,5.79-3.32,8.41-.52,2.62-.77,4.81-.87,6.82.17,1.14.52,3.15.52,4.2-2.29.74-5.99.85-8.24.07,0-2.27,1.33-3.8,2.99-4.96-.17-3.15,1.05-13.28,1.51-15.84.35-1.96.07-3.67-.28-5.31-1.05,2.1-2.91,8.93-3.78,11.73-.87,2.8-1.66,7.04-2.01,8.26.31,1.18.5,2.95.5,4-2.1,1.05-6.49,1.11-7.93.39.33-2.42,1.57-4.26,2.62-4.79.92-6.2,2.36-12.58,2.75-14.75.23-1.25.68-3.06-.2-6.03s-2.1-7.04-2.45-8.96c-6.29,3.85-17.85,5.66-24.35,5.48-.17,4.54,0,8.85.87,11.3s.87,4.02.7,5.94c-.17,1.92.17,5.59.52,6.82.87,1.22,1.85,3.38,1.75,5.07-1.38,1.09-3.67,1.4-5.07,1.57-1.16,1.88-2.58,2.58-4.5,3.1-1.44.39-3.82.5-4.7.13-.24-2.36.87-4.37,2.03-5.68-.87-2.27-4.61-8.72-5.99-11.67-.8-1.71-2.45-2.75-3.15-4.85-.7-2.1.13-4.2.52-5.64.52-1.9.32-5.48.53-8.89-3.89-1.09-9.52-3.17-13.37-6.88-4.89-4.72-7.78-10.22-8.21-16.25-.42-5.75.84-15.11,5.21-23.5ZM35.32,86.28c-.52,1.77-1.05,2.75-1.44,3.93-.39,1.18-1.18,2.1-.2,3.67.98,1.57,4.52,9.96,6.16,12.19.33-1.97-.33-6.29-.98-8.45-.92-3.04-2.95-8.32-3.54-11.34Z"/>
      <g>
        <path class="cls-6" d="M17.2,0c-3.14.11-8.48,2.01-10.66,5.07-2.04,2.86-2.45,3.85-1.53,5.42.17,1.75-.59,2.65-1.79,4.54-1.14,1.79-1.92,2.97-2.27,5.07s.35,5.42,2.1,6.47c1.37,2.73,4.32,4.28,7.13,4.64.42.05.84.08,1.26.08,3.15,0,5.51-.28,8.21-1.73,2.4-1.28,3.23-3.34,4.41-4.52,1.35-1.36,3.23-2.05,4.85-4.94,1.41-2.52,1.4-7.52-.7-12.23C26.11,3.15,22.09-.17,17.2,0Z"/>
        <path class="cls-5" d="M24.37,12.98c-1.7-.39-4.2-2.75-4.33-4.46-1.84,1.97-4.02.33-5.37-1.97-1.57,3.02-4.59,3.93-6.95,1.83-.79.92-2.8,1.75-3.71.44,1.15.32,3.18-.14,3.83-1.85.39.98,1.47,1.97,2.75,1.8s3.15-1.21,4.06-2.75c1.15,1.31,4.42,2.36,5.67,1.31.29,1.44.75,2.65,1.24,3.18,1.15-.07,1.44.59,1.64.98.2.39.48,1.05,1.16,1.48Z"/>
        <path class="cls-1" d="M18.69,13.79c.11.86-.27,1.62-.84,1.69-.58.07-1.13-.57-1.24-1.43-.11-.86.27-1.62.84-1.69.57-.07,1.13.57,1.24,1.43Z"/>
        <path class="cls-1" d="M5.83,13.85c-.22.84-.69,1.45-1.06,1.35-.37-.09-.49-.85-.27-1.69s.69-1.45,1.06-1.35c.37.09.49.85.27,1.69Z"/>
        <path class="cls-7" d="M8.62,19.23c.73-1.03,2.22-2.36,3.64-2.36,1.16,0,1.75.47,1.89.97.12.43-.02.8-.69.68-.67-.13-1.41-.33-2.13-.25-.84.09-1.88.33-2.71.95Z"/>
        <path class="cls-7" d="M6.68,19.27c-.37-1.11-1.43-2.19-2.36-2.49s-1.81,0-2.14.4c-.36.45-.36,1.05.17,1.01.79-.06,1.24-.08,1.98.02.65.09,1.75.32,2.35,1.06Z"/>
      </g>
      <path class="cls-6" d="M93.46,51.84c-.9-2.5-2.65-4.35-4.26-6.39,2.88,2.1,5.24,2.07,8.26,5.9,3.24,4.12,5.51,10.75,3.8,15.73-1.31-2.75-2.87-4.06-3.74-5.54-.79-1.34-1.29-2.97-1.64-4.85-.29-1.61-.95-3.41-2.43-4.85Z"/>
      <path class="cls-3" d="M29.89,15.58c.66,2.4.11,4.78-.67,5.88.09,1.39-.1,2.49-.37,3.5-.05.2-.8.26-.85.45-.05.18.58.5.52.68-.48,1.57-1.1,2.58-1.66,3.45.06.5.02,1.14-.08,1.81-.03.23-.66.39-.71.61-.04.21.5.49.45.69-.24.97-.55,1.84-.84,2.26.09.39.09.8.04,1.23-.02.2-.46.37-.5.58-.03.21.33.48.29.71-.18,1.05-.37,2.3-.14,3.92-.69-1.67-.83-3.97-.65-6.4.35-4.72,2.27-9.96,4.2-14.86,1.41-2.52,1.4-7.52-.7-12.23,2.12,1.85,2.65,5.83,1.68,7.71Z"/>
      <path class="cls-2" d="M11.18,25.7c-1.12-.14-2.13-.52-3.18-1.22-.7.53-1.82.94-2.95,1.07.94,1.07,4.49,1.54,6.14.15Z"/>
      <path class="cls-5" d="M67.36,75.16c-6.29,3.85-17.85,5.66-24.35,5.48-2.08-.07-3.58-.16-5.19-.32h-.03c.63-1.35,1.26-2.58,1.79-3.48.75-1.27,1.97-4.13,1.84-6.29.03-.59.33-.43.39.1.07.52-.07,1.44-.19,2.28-.08.76.45,1.68,1.57,1.83,2.8.37,7.03.18,10.18-.31,4.85-.74,11.53-2.62,13.46-3.67,1.92-1.05,3.1-1.77,1.98-3.65-.29-.49-.46-.98-.69-1.38s.12-.85.5-.26c.98,1.7,3.22,4.07,4.52,5.9-1.64,1.11-3.67,2.49-5.79,3.76Z"/>
      <path class="cls-3" d="M45.05,33.13c.66.65,2.23.59,2.42-.72.49,1.77,1.99,2.72,2.85,2.72,1.15,0,2-.43,2.52-1.74.13,1.24,2.16,2.75,3.21,2.36.24.71,1.22,1.46,1.99,1.12-.37-.32-.71-.72-1.01-1.21-1.92-3.12-5.07-8.48-9.61-8.48s-8.7,5.49-11.01,9.88c-.79,1.49-1.57,2.95-2.46,4.14,1.17-.26,2.37-1.04,2.8-2.57,1.18-.33,1.67-1.31,1.61-1.9,1.38-.26,2.03-1.77,2.1-2.88,1.31,1.35,4.26.72,4.59-.72Z"/>
      <path class="cls-3" d="M82.74,36.05c-2.1-4.58-5.51-7.73-9.96-7.05-3.77.58-6.83,4.21-8.69,6.62.65.18,1.41-.52,1.6-1.18.92.39,2.71-1.11,2.82-2.36.46,1.31,1.21,1.74,2.22,1.74.76,0,2.07-.95,2.5-2.72.17,1.31,1.55,1.38,2.13.72.29,1.44,2.88,2.06,4.03.72.06,1.11.63,2.62,1.84,2.88-.06.59.37,1.57,1.41,1.9.34,1.37,1.22,2.14,2.13,2.47-.67-1.03-1.33-2.21-2.03-3.74Z"/>
      <path class="cls-6" d="M6.54,5.07c-1.31,1.83-1.95,2.89-1.99,3.83-1.61-.14-3.66-1.85-4.34-3.57-.79-1.97.92-3.15,2.23-2.23,1.31.92,2.62,1.57,4.11,1.96Z"/>
      <path class="cls-6" d="M26.21,7.61c1.31-.13,2.75-1.05,4.06-2.1,1.31-1.05,2.1-2.23,1.7-3.67-.39-1.44-1.7-1.83-3.15-1.31s-2.88,1.57-5.11,1.97c-.52.13-.7,1.18-.26,1.92.7-.13,1.35.48,1.66,1.05.31.57.48,1.27.35,1.57.09.39.44.61.74.57Z"/>
      <path class="cls-5" d="M25.46,7.04c.13-.31-.04-1.01-.35-1.57-.31-.57-.96-1.18-1.66-1.05,1.7-.7,4.14-1.96,4.67-2.25.98-.52,2.33-.89,2.75-.2.41.66-.02,1.6-.75,2.36-.88.92-3.22,2.19-4.66,2.71Z"/>
      <path class="cls-5" d="M26.37,68.58c.04.59.09,1.42,0,2.03-.12.82-.53,1.05-2.14,1.05-1.84,0-4.94-.17-8.78-2.27-3.39-1.85-9.23-7.7-10.53-15.51.01.28.02.56.04.82.44,6.03,3.32,11.54,8.21,16.25,3.85,3.71,9.48,5.79,13.37,6.88.22-2.58.43-4.4.55-5.79.13-1.53.04-3.16-.22-3.68-.31-.54-.54-.29-.5.21Z"/>
      <path class="cls-5" d="M77.06,87.25c.29-.82.55-1.5.78-1.95-.31-1.83-1.1-6.11-1.79-8.19-.95-2.85-2.07-4.52-2.91-5.7-1.36.93-3,2.04-4.73,3.11,2.61,2.22,6.29,6.22,8.64,12.74Z"/>
      <path class="cls-5" d="M43.88,91.94c-.87-2.45-1.05-6.75-.87-11.3-2.08-.07-3.58-.16-5.19-.32h-.03c-.46.97-.92,2.01-1.35,3.04,1.79.82,2.86,1.65,3.89,3.16,1.07,1.57,2.25,4.98,3.55,5.42Z"/>
      <path class="cls-5" d="M13,33.52c2.93-.07,5.31-.87,6.9-2.03,1.78-1.29,3.58-5.02,4.11-5.75s.83-1.2,2.11-2.38c0,0-.02.01-.02.02-.17.14-.34.27-.5.39-.17.13-.34.26-.5.38-.03.02-.06.05-.09.07-.16.12-.31.24-.46.37-.02.02-.03.03-.05.05-.15.13-.3.27-.45.41-1.18,1.18-2.01,3.24-4.41,4.52-2.71,1.44-5.07,1.73-8.21,1.73-.41,0-.83-.03-1.26-.08-.72,1.39-1.36,2.81-1.92,4.24.95-1.3,2.38-1.88,4.75-1.93Z"/>
      <path class="cls-4" d="M41.13,108.45h0c-2.07.92-5.09,1.68-6.51.44-1.16,1.31-2.27,3.32-2.03,5.68.87.37,3.26.26,4.7-.13,1.92-.52,3.34-1.22,4.5-3.1.1-.82-.21-1.86-.66-2.89Z"/>
      <path class="cls-4" d="M46.85,109.77c.06-.91-.21-1.95-.59-2.91-1.97.85-4.55.53-5.99-.06h0c.85,1.48,1.66,3.27,1.51,4.54,1.4-.17,3.69-.48,5.07-1.57Z"/>
      <path class="cls-4" d="M67.25,104.89c-1.05.52-2.29,2.36-2.62,4.79,1.44.72,5.83.65,7.93-.39,0-.59-.07-1.42-.17-2.23-1.51.26-4.02-.71-5.13-2.16Z"/>
      <path class="cls-4" d="M76.62,106.44c-1.66,1.16-2.99,2.69-2.99,4.96,2.25.79,5.94.68,8.24-.07,0-.63-.13-1.61-.27-2.55-1.7,0-4.06-.95-4.98-2.35Z"/>
      <path class="cls-1" d="M18.85,22.79c-.78,1.16-2.76,2.45-5.03,2.69-2.44.26-4.03-.06-5.65-1.13-.2-.71-.29-1.53-.27-2.56,0-.11-.08-.2-.19-.2-.1,0-.2.08-.2.19-.02,1.04.07,1.87.27,2.6-1.35.94-4.33,1.66-5.73.53.05.11.13.2.19.31.1.1.21.18.35.24.52.23,1.13.32,1.75.32,1.36,0,2.81-.47,3.67-1.07,1.32.86,2.62,1.25,4.33,1.25.48,0,.98-.03,1.53-.09,2.39-.25,4.48-1.63,5.31-2.86.06-.09.04-.21-.05-.27-.09-.06-.21-.04-.27.05Z"/>
    </g>
  </g>
</svg>