<?xml version="1.0" encoding="UTF-8"?>
<svg id="Layer_2" data-name="Layer 2" xmlns="http://www.w3.org/2000/svg" width="147.79" height="97.29" viewBox="0 0 147.79 97.29">
  <defs>
    <style>
      .cls-1 {
        fill: #c9caca;
      }

      .cls-2 {
        fill: #3e332c;
      }

      .cls-3 {
        fill: #6c9d4f;
      }

      .cls-4 {
        fill: #3a6f35;
      }

      .cls-5 {
        fill: #eeeae5;
      }

      .cls-6 {
        fill: #d07a62;
      }

      .cls-7 {
        fill: #bc563e;
      }

      .cls-8 {
        fill: #dbccb5;
      }

      .cls-9 {
        fill: #49554e;
      }

      .cls-10 {
        fill: #dcdddd;
      }
    </style>
  </defs>
  <g id="Layer_1-2" data-name="Layer 1">
    <g>
      <path class="cls-3" d="M7,48.26c1.45-2.7,4.74-4.09,6.02-.79,4.78-.12,12.79-2.48,15.06-2.91,2.27-.43,4.21-1.2,5.71-1.81,1.88-2.28,4.38-4.29,6.56-4.33,2.18-.04,4.56,2,5.45,2.88,5.52.19,12.5-2.24,17.03-4.69,4.53-2.45,13.89-5.29,21.83-6.61,7.94-1.32,15.08-2.65,20.11-3.97s9.17-3.42,9.17-8c0-5.24-5.47-9.19-11.95-10.52-6.48-1.32-14.68-.66-20.64,1.19-5.95,1.85-13.38,5.1-17.6,7.94-2.74,1.85-3.85.2-1.8-2.12,4.12-4.66,10.05-8.88,17.07-11.66C86.04.1,96.3-.81,105.56.78c9.26,1.59,18.85,6.68,23.61,13.56s6.64,13.27,6.38,19.56c-.25,5.9-2.61,12-8.69,17.29s-11.68,10.1-18.65,12.96c-10.39,4.27-19.32,4.17-26.26,7.74-4.47,2.3-9.33,5.21-13.3,5.95-4.44.83-19.2,1.25-21.72.39-7.48.04-12.36.04-16.24.23-3.59.18-7.15.56-10.33,1.52-3.01.92-6.03,1.11-8.88.98-2.99-.14-4.9-.78-6.55-2.49-1.37-1.42-1.8-1.85-3.5-3.08-1.56-1.12-1.54-3.31-1.34-5.37.13-1.33.99-2.4,2.18-3.24,1.28-.9,2.94-1.53,4.43-1.89,2.88-.7,11.93-1.02,15.67-1.92-3.32-.74-5.22-1.43-7.62-2.27-2.64-.91-5.01-1.9-6.95-2.89s-3.58-2.48-3.63-4.57c-.03-1.06.23-2.23.58-3.12.32-.83,1.03-1.53,2.26-1.86Z"/>
      <path class="cls-6" d="M2.27,66.78c1.28-.9,2.94-1.53,4.43-1.89,2.88-.7,11.93-1.02,15.67-1.92,3.28.55,7.64,1.05,11.61.64,3.16-.32,6.77-.79,10.67-.22,4.8.7,8.32-.46,10.9-3.26-2.37,4.55-4.81,7.28-8.78,9.38-1.74.92-3.11,1.48-4.86,2.03-.27.09-.67.22-.81.46-.53.93-2.14,1-3.23.81-.41-.07-1.07.07-1.47.15-1.18.24-2.12.42-3.3.63-4.77.83-11.45,1.95-14.42,2.48-2.98.54-7.64.89-9.91.16-2.28-.73-3.15-2.61-5.14-3.9-1.72-1.11-3.84-3.56-1.36-5.55Z"/>
      <path class="cls-7" d="M55.55,60.12c-2.58,2.8-6.1,3.96-10.9,3.26-3.9-.57-7.51-.1-10.67.22-3.98.41-8.33-.08-11.61-.64-3.74.9-12.79,1.23-15.67,1.92-1.49.36-3.15.98-4.43,1.89-1.86,1.5-1.13,3.25.09,4.5.21-1.59,2.67-2.45,5.91-2.77,3.11-.31,5.29-.07,7.61.2,3.84,2.91,8.67,3.97,13.36,4.1,1.74.05,3.61.29,5.59.46.51-.1,1.02-.2,1.59-.32.4-.08,1.07-.22,1.47-.15,1.09.19,2.7.12,3.23-.81.14-.25.54-.38.81-.46,1.75-.55,3.12-1.11,4.86-2.03,3.97-2.1,6.41-4.84,8.78-9.38Z"/>
      <path class="cls-1" d="M54.97,49.4c-.17-2-1.17-3.86-3.85-4.04-2.31-.16-4.29.95-6.86,2.8-.74.54-1.53.42-.63-.78,1.73-2.33,4.26-3.96,6.73-4,3.5-.06,5.36,2.36,5.2,5.58-.06,1.07-.53,1.06-.58.44Z"/>
      <path class="cls-3" d="M73.55,73.54c2.98,1.63,9.02,2.94,12.2,3.74,2.12.53,2.45,1.32,2.48,2.74.02.89-.4,2.47-.96,3.21-.55.73-1.43,1.43-2.72,2.23-1.1.67-2.75,1.63-3.99,3.17-.68.85-1.36,1.91-1.61,2.8-.24.86.31,1.27,1.14.79,1.09-.62,4.12-2.33,5.08-2.75.81-.35,1.6-.17,1.29.62-.42,1.07-1.79,3.23-2.23,4.89-.3,1.1.49,1.75,1.56,1.07,1.32-.84,5.56-3.77,6.4-4.32.84-.55,1.85-.34,1.89.69.05,1.54.05,2.65.12,3.99.05.99,1.05,1.23,1.79.25.99-1.32,3.62-5.11,3.77-7.37.11-1.7-.26-3.38-.57-4.81-.25-1.14-.39-2.6-.31-3.34.2-1.69.33-3.8.28-5.04-.1-2.43-.71-4.05-2.83-5.11-2.21-1.11-4.11-2.06-6.3-3.42-.7-.43-1.36-.94-2.09-1.53-.77-.62-1.6-1.34-2.62-2.16-2.05-1.98-5.95-2.25-9.52.12-3.37,2.23-5.23,8-2.25,9.54Z"/>
      <path class="cls-3" d="M118.2,54.06c4.93.6,6.31.43,9.26.96,2.78.5,4.3,1.09,5.23,2.12.97,1.08,2.78,3.01,1.49,4.07-.79.65-1.47,1.04-2.63,1.89s-2.39,1.96-3.57,3.31c-.8.91-1.31,1.51-1.78,2.38-.48.88.47,1.45,1.42.96,1.22-.63,3.35-1.63,4.26-2,1.54-.62,2.02.17,1.77,1.08-.36,1.28-.87,2.93-1.17,4.45-.33,1.69.95,2.1,1.98,1.12,1.32-1.26,4.59-4.18,5.42-4.93.84-.75,2.27-.56,2.55.56.36,1.49.46,2.38.76,3.44.3,1.07,1.56,1.32,2.18.1.79-1.55,2.15-4.53,2.38-7.44.14-1.81-.12-3.97-.66-5.33-.51-1.29-1.44-2.41-2.5-3.74-1.24-1.55-2-4.25-2.27-6.66-.25-2.28-1.14-3.89-2.83-4.71-1.88-.92-3.08-1.35-5.16-2.12-1.17-.43-2.18-.81-3.16-1.2-1.13-.45-2.22-.92-3.46-1.51-2.51-1.19-7.21-1.73-10.85,1.65-3.18,2.96-3.17,6.55-2.65,8.4.53,1.85,1.52,2.84,3.97,3.14Z"/>
      <path class="cls-1" d="M24.86,57.1c-.05-2.06-.95-5.64-3.81-6.62-2.15-.74-3.75,1.17-4.9,2.55.87-2.17,2.7-4.45,5.62-3.63,2.92.82,4.02,4.98,3.54,7.75-.11.61-.44.46-.45-.05Z"/>
      <path class="cls-2" d="M7.91,49.35c.42-1.11.83-1.86,1.79-1.77.96.09,1.57,1.87,1.5,3.85-.9-1.53-2.35-2.61-3.29-2.08Z"/>
      <path class="cls-2" d="M17.03,55.12c1-1.37,2.41-2.64,3.78-2.27,1.41.38,1.79,1.58,1.37,3.49-.5-1.22-2.81-2.23-5.15-1.22Z"/>
      <path class="cls-2" d="M53.57,52.08c-.25,0-.47-.17-.53-.42-.22-1.03-.96-1.46-1.55-1.63-1.3-.39-3.42.03-5.23,1.82-.21.21-.55.21-.76,0-.21-.21-.21-.55,0-.76,1.84-1.82,4.37-2.66,6.29-2.09,1.22.36,2.03,1.23,2.29,2.43.06.29-.12.58-.41.64-.04,0-.08.01-.11.01Z"/>
      <g>
        <path class="cls-4" d="M65.22,49.86c1.05-5.54,6.37-6.35,8.33-2.78-2.24-.94-6.54.6-8.33,2.78Z"/>
        <path class="cls-4" d="M77.56,46.8c1.35-2.22,6.53-3.97,9.09-3.03-1.95-3.63-8.62-2.22-9.09,3.03Z"/>
        <path class="cls-4" d="M90.78,41.91c1.35-2.22,6.93-4.11,9.49-3.16-1.95-3.64-9.02-2.09-9.49,3.16Z"/>
        <path class="cls-4" d="M55.82,42.18c1.05-5.54,6.37-6.35,8.33-2.78-2.23-.94-6.54.6-8.33,2.78Z"/>
        <path class="cls-4" d="M68.17,39.13c1.35-2.22,6.53-3.97,9.09-3.03-1.95-3.63-8.61-2.22-9.09,3.03Z"/>
        <path class="cls-4" d="M102.69,36.17c1.35-2.22,6.73-4.04,9.29-3.1-2.09-3.9-8.82-2.15-9.29,3.1Z"/>
        <path class="cls-4" d="M97.4,31.14c1.35-2.22,6.73-4.04,9.29-3.1-2.09-3.9-8.82-2.15-9.29,3.1Z"/>
        <path class="cls-4" d="M114.59,31.1c.4-1.21,3.03-3.7,4.51-3.84-2.56-1.35-4.44-.13-4.51,3.84Z"/>
        <path class="cls-4" d="M110.45,26.44c.4-1.21,3.03-3.7,4.51-3.84-2.56-1.35-4.56.53-4.51,3.84Z"/>
        <path class="cls-4" d="M120.25,25.55c.61-1.35.94-3.84.61-5.25,1.48,1.55,1.28,3.7-.61,5.25Z"/>
        <path class="cls-4" d="M120.94,16.22c-.34-1.14-1.68-3.77-3.23-4.44,3.1.07,3.77,1.88,3.23,4.44Z"/>
        <path class="cls-4" d="M116.58,8.78c-.81-.88-2.22-2.22-3.84-2.69,2.09-.94,3.9.47,3.84,2.69Z"/>
        <path class="cls-4" d="M113.95,11.33c-.81-.88-2.22-2.22-3.84-2.69,2.09-.94,3.9.47,3.84,2.69Z"/>
        <path class="cls-4" d="M109.63,4.71c-1.08-.74-2.88-1.29-4.37-1.32,1.71-1.51,4-.77,4.37,1.32Z"/>
        <path class="cls-4" d="M106.92,6.83c-1.08-.74-2.88-1.29-4.37-1.32,1.71-1.51,4-.77,4.37,1.32Z"/>
        <path class="cls-4" d="M102.29,2.66c-1.13-.49-2.9-.68-4.29-.43,1.32-1.71,3.58-1.44,4.29.43Z"/>
        <path class="cls-4" d="M99.36,4.8c-1.13-.49-2.9-.68-4.29-.43,1.32-1.71,3.58-1.44,4.29.43Z"/>
        <path class="cls-4" d="M94.35,2.03c-1.13-.32-2.82-.26-4.1.15,1.02-1.78,3.18-1.82,4.1-.15Z"/>
        <path class="cls-4" d="M93.12,4.26c-1.13-.32-2.82-.26-4.1.15,1.02-1.78,3.18-1.81,4.1-.15Z"/>
        <path class="cls-4" d="M86.78,2.69c-1.17-.15-2.83.15-4.03.74.74-1.91,2.88-2.26,4.03-.74Z"/>
        <path class="cls-4" d="M86.68,4.92c-1.17-.15-2.83.15-4.03.74.75-1.91,2.88-2.26,4.03-.74Z"/>
        <path class="cls-4" d="M79.5,4.32c-1.06.05-2.5.59-3.47,1.31.36-1.82,2.21-2.48,3.47-1.31Z"/>
        <path class="cls-4" d="M80.64,6.15c-1.06.05-2.5.59-3.47,1.31.36-1.83,2.21-2.48,3.47-1.31Z"/>
        <path class="cls-4" d="M73.39,7.13c-.94.12-2.17.7-2.98,1.4.19-1.64,1.78-2.35,2.98-1.4Z"/>
        <path class="cls-4" d="M74.13,8.51c-.94.12-2.17.7-2.98,1.4.19-1.64,1.78-2.35,2.98-1.4Z"/>
        <path class="cls-4" d="M114.89,14c1.12,1.38,1.45,3.28.74,4.8-.74-1.48-.9-2.89-.74-4.8Z"/>
      </g>
      <g>
        <path class="cls-9" d="M79.89,89.54c-.42.63-.78,1.3-.94,1.89-.24.86.31,1.27,1.14.79.41-.23,1.09-.62,1.83-1.03.12-1.02-1.06-1.94-2.03-1.65Z"/>
        <path class="cls-9" d="M84.87,93.31c-.26.57-.5,1.14-.64,1.67-.3,1.1.49,1.75,1.56,1.07.4-.26,1.07-.71,1.83-1.22-.14-1.32-1.81-2.08-2.76-1.51Z"/>
        <path class="cls-9" d="M94.14,94.65c.02.58.03,1.15.07,1.77.05.99,1.05,1.23,1.79.25.29-.38.71-.96,1.16-1.65-.47-.97-2.33-1.27-3.02-.36Z"/>
      </g>
      <g>
        <path class="cls-9" d="M128.16,66.2c-.06.07-.12.13-.18.2-.8.91-1.31,1.51-1.78,2.38-.48.88.47,1.45,1.42.96.79-.41,1.96-.97,2.93-1.41.18-1.37-1.14-2.5-2.39-2.12Z"/>
        <path class="cls-9" d="M132.85,71.63c-.14.55-.28,1.11-.38,1.64-.33,1.69.95,2.1,1.98,1.12.48-.46,1.21-1.13,2-1.84-.2-1.39-1.95-1.52-3.6-.93Z"/>
        <path class="cls-9" d="M142.71,71.3c.16.8.28,1.45.48,2.17.3,1.07,1.56,1.32,2.18.1.3-.58.67-1.35,1.03-2.25-.49-1.36-3.16-1.53-3.69-.02Z"/>
      </g>
      <g>
        <path class="cls-5" d="M16.37,61.27c-.1.91-.07,1.81-.04,2.54,0,.04,0,.09,0,.14.05,1.02,1.07,1.16,1.36.3.07-.2.14-.4.21-.6.18-.52.4-1.06.74-1.64-.8-.24-1.54-.49-2.28-.74Z"/>
        <path class="cls-5" d="M12.52,62.61c.1.7.82.73,1.07.22.27-.53.57-1.11.94-2.2-.78-.27-1.54-.55-2.27-.84,0,.82.18,2.23.27,2.82Z"/>
        <path class="cls-5" d="M8.58,60.62c.1.89.94,1.22,1.27.52.32-.69.61-1.26.87-1.98-.79-.33-1.55-.67-2.25-1.02-.06.89.02,1.65.11,2.48Z"/>
        <path class="cls-5" d="M4.81,55.32c-.25,1.49-.02,3.23.15,4.36.2,1.29.96,1.59,1.27.52.34-1.18.57-1.85,1.12-2.63-1.04-.59-1.96-1.33-2.54-2.25Z"/>
      </g>
      <g>
        <path class="cls-5" d="M35.76,66.08c.5-.73.95-1.74,1.04-2.76-.94.08-1.85.18-2.73.27.14.67.28,1.57.33,2.16.07.89.73,1.25,1.36.32Z"/>
        <path class="cls-5" d="M29.64,66.08c.29-.49.75-1.43.85-2.33-.87,0-1.75-.04-2.6-.1.12.72.29,1.61.42,2.26.22,1.12.89.92,1.34.17Z"/>
        <path class="cls-5" d="M1.76,68.88c-.09.3-.19.74-.26,1.23.47.9,1.35,1.7,2.14,2.22.01,0,.02.02.04.03-.12-.84-.39-2.5-.52-3.18-.17-.89-1.12-1.16-1.39-.3Z"/>
        <path class="cls-5" d="M7.83,72.18c-.68.57-1.2,1.53-1.49,2.53.68.63,1.42,1.19,2.44,1.52.21.07.45.12.7.17-.24-1.04-.27-2.67-.36-3.33-.1-.79-.53-1.53-1.29-.89Z"/>
        <path class="cls-5" d="M16.99,73.72c-.22-.92-1.19-.92-1.51-.05-.25.68-.9,2.05-1.69,2.94,1.08-.05,2.17-.15,3.19-.28.18-.83.16-2.03.02-2.61Z"/>
        <path class="cls-5" d="M22.74,73.15c-.22-.89-1.07-.85-1.44.1-.37.95-.65,1.72-1.16,2.56.77-.14,1.66-.29,2.62-.45.19-.94.15-1.53-.02-2.21Z"/>
        <path class="cls-5" d="M27.65,71.98c-.22-.87-.99-.52-1.29-.02-.24.4-.62,2-.96,2.95.83-.14,1.67-.29,2.52-.43.13-.9-.11-1.91-.26-2.5Z"/>
        <path class="cls-5" d="M33.16,70.82c-.3-.7-1.09-.6-1.29.2-.17.68-.52,2.05-.86,2.94.73-.13,1.43-.25,2.1-.36.23-.04.45-.08.66-.12.02-.89-.35-2.03-.61-2.65Z"/>
        <path class="cls-5" d="M45.64,65.93c.49-.65.95-1.48,1.27-2.36-.72-.02-1.46-.08-2.24-.19-.31-.05-.61-.07-.92-.11.21.7.28,1.73.36,2.43.1.89.94,1.02,1.54.22Z"/>
      </g>
      <path class="cls-5" d="M4.67,65.73c-.1-1.14.5-2.38.89-2.98.4-.6,1.04-.15,1.14.89.07.77.35,1.5.25,1.89-.4,1.44-2.15,1.7-2.28.2Z"/>
      <path class="cls-5" d="M10.08,64.41c.2-.74.74-1.64,1.09-2.18.35-.55.79-.5,1.04.15s.38,1.63.35,2.08c-.1,1.34-2.96,1.74-2.48-.05Z"/>
      <path class="cls-8" d="M76.47,74.77c-2.74,1.4-5.43,2.62-7.81,3.07-4.44.83-19.2,1.25-21.72.39,4.12.07,10.49-2.72,13.61-3.99,3.34-1.36,10.19-2.6,13-.7.79.43,1.8.84,2.92,1.23h0Z"/>
      <path class="cls-8" d="M91.92,68.69c-.61-.35-1.24-.71-1.89-1.12-.7-.43-1.36-.94-2.09-1.53.3-.5,1.3-1.2,2.73-1.39,4.94-.68,11.61-2.89,15.28-4.46,3.88-1.66,6-2.83,8.33-4.66,1.42-1.12,2.73-1.54,3.9-1.45,2.11.26,3.57.37,4.78.46h0c-4.67,3.93-9.3,7.38-14.77,9.62-5.94,2.44-11.4,3.45-16.29,4.54h0Z"/>
      <path class="cls-8" d="M129.18,14.34c4.76,6.88,6.64,13.27,6.38,19.56-.13,3.08-.83,6.22-2.35,9.26h0c-.71-.27-1.38-.52-2.03-.78-.24-.7-.07-1.99.3-2.64,1.98-3.39,2.33-8.76,1.86-12.3-.53-3.97-1.83-9.77-4.17-13.1Z"/>
      <path class="cls-1" d="M88.23,80.02c-.03-1.42-.36-2.22-2.48-2.74-3.19-.8-9.22-2.11-12.2-3.74-1.55-.8-1.79-2.74-1.19-4.74.31-.98.77-.92.86-.12.1.92,1.21,2.5,2.58,3.62,1.79,1.46,4.66,2.21,6.99,2.55,2.02.3,3.77.89,4.56,1.89.79.99.96,1.98.88,3.27Z"/>
      <path class="cls-1" d="M134.55,60.7c.42-1.09-1.03-2.64-1.86-3.57-.93-1.02-2.45-1.62-5.23-2.12-2.95-.53-4.33-.36-9.26-.96-2.45-.3-3.44-1.29-3.97-3.14-.16-.55-.27-1.26-.26-2.05.03-.46.4-.53.63,0s1.19,2.1,2.98,2.93,5.64,1.47,8.3,1.77c2.43.28,4.99.07,6.64,1.24,1.45,1.03,1.91,2.86,2.11,3.76.2.89.3,1.64-.08,2.14Z"/>
      <path class="cls-5" d="M41.1,72c-.53.93-2.14,1-3.23.81.76-1.89,1.28-4.57,1.53-5.96.18-1.02.86-.91,1.17-.05.32.89.93,4.01.53,5.2Z"/>
      <path class="cls-5" d="M21.6,62.79c.03.63.13,1.64.27,2.27.2.89,1.02.92,1.39.35.39-.6.78-1.2,1.36-2.11-.79-.1-1.55-.22-2.25-.34h0c-.26-.06-.52-.12-.77-.17Z"/>
      <path class="cls-3" d="M74,32.45c3.48-.99,7.21-1.86,10.67-2.44,3.36-.56,6.57-1.12,9.54-1.68v.02c-3.57-.4-8.16-2.55-11.23-2.7-3.17-.15-5.48.99-6.87,2.98s-1.71,3-2.11,3.8v.03Z"/>
      <path class="cls-4" d="M81.39,34.24c1.35-2.22,6.93-4.11,9.49-3.16-1.95-3.64-9.02-2.09-9.49,3.16Z"/>
      <path class="cls-10" d="M74,32.4v.05c2.64-.75,5.41-1.43,8.11-1.97h0c-2.63-1.16-5.84-.46-7.68,1.01-.16.35-.29.64-.42.91Z"/>
      <path class="cls-1" d="M13.97,51.17c.17-.35.84-3.1.12-3.76-.37.03-.73.05-1.07.06.46,1.18.6,2.6.66,3.64.04.66.09.45.29.05Z"/>
      <path class="cls-1" d="M44.54,41.72c.66.76,1.28.98,1.65.7.3-.23-.07-.73-.4-1.1-.88-.88-3.26-2.92-5.45-2.88,2.53.61,3.53,2.53,4.19,3.29Z"/>
    </g>
  </g>
</svg>