<?xml version="1.0" encoding="UTF-8"?>
<svg id="Layer_2" data-name="Layer 2" xmlns="http://www.w3.org/2000/svg" width="89.7" height="155.44" viewBox="0 0 89.7 155.44">
  <defs>
    <style>
      .cls-1 {
        fill: #ef8560;
      }

      .cls-2 {
        fill: #c9caca;
      }

      .cls-3 {
        fill: #b44848;
      }

      .cls-4 {
        fill: #3e332c;
      }

      .cls-5 {
        fill: none;
      }

      .cls-6 {
        fill: #cab7a1;
      }

      .cls-7 {
        fill: #f0a794;
      }

      .cls-8 {
        fill: #fce0bc;
      }
    </style>
  </defs>
  <g id="Layer_1-2" data-name="Layer 1">
    <g>
      <path class="cls-1" d="M33.53,122.55c.49-1.77.59-2.69.55-3.54-.09-1.74-.38-2.84-1.57-4.32-.54-.67-1.45-2.17-2.44-3.92-1.94-3.43-3.26-7.72-3.34-11.86-.03-1.63.5-3.91,2.26-5.2-.56.02-1.15,0-1.75-.09-3.22-.47-5.36-2.37-7-4.97-.26-.41-.42-.71-.69-1.18-1.15-2.13-2.05-4.61-2.96-7.14-1.63-4.55-.93-10.62.93-14.25.32-.63.28-1,.2-1.56-.07-.52-.06-1.02.17-1.52.31-.66,1.06-1.34,1.66-1.75.68-.47,1.42-.5,2-.42.57.08,1.4.31,2.58-.13,2.39-.88,5.18-1.26,8.07-.84,2.93.43,5.53,1.62,7.59,3.19,1.02.75,1.86.79,2.43.88.57.09,1.27.34,1.78.99.45.57.97,1.44,1.06,2.16.07.55-.06,1.03-.28,1.5-.24.51-.41.89-.29,1.56.73,4.01-.36,9.91-3.22,13.8-.8,1.08-1.59,2.15-2.4,3.16-.27.54-.53,1.11-.73,1.56-.95,2.21-.5,4.64.32,6.1,1.04,1.86,3.14,2.61,6.27,1.86,3.56-.86,7.24-1.86,14.51-1.37,7.55.5,14.71,3.71,18.11,7.12s4.33,8.51,4.18,12.07c-.16,3.56-.85,6.73-1.9,10.57-.83,3.02-.73,8.36-.12,10.99.62,2.63.73,3.42-.43,4.89-1.92,2.41-3.93,5.75-4.73,8.92-.22.92.32,1.45.22,2.22-.04.32-.39.5-.59.31-.15-.14-.39-.06-.48.64-.07.57-.32,1.08-.58,1.21-1,.55-2.88.79-4.69,0,.06-1.75.66-2.87,1.99-3.68.12-1.42,2.61-5.99,3.87-8.51.77-1.55,1.35-2.99.77-4.94-.59-2-2.21-6.74-2.83-8.29s-2.67-1.45-4.66-.66c-1.93.77-4.71,1.57-9.7,1.82-6.15.31-11.6-1.58-13.78-2.17-1.85-.5-2.53-.19-3.41.77-1.04,1.15-5.93,6.12-7.48,8.13-1.55,2.01-1.97,2.9-1.2,4.6s.48,3.83,2.18,6.62c.5.8,1.26.79,1.74,1.4.2.25.09.63-.19.63-.2,0-.31.24.12.79.36.45.54.99.47,1.26-.31,1.1-1.06,2.48-3.17,3.5-1.21-1.27-1.45-2.48-1.6-4.8-.93-1.08-2.33-6.31-3.42-8.48-1.08-2.17-.35-3.68.43-6.31.78-2.63,4.08-8.51,5.16-13.31h0Z"/>
      <path class="cls-8" d="M29.61,78.78c-3.34-.49-7.69,2.77-9.4,7.73-.22.62-.2,1.41.03,2.12,1.64,2.61,3.79,4.5,7,4.97,3.53.52,6.31-.98,8.81-3.37.29-.57.37-1.23.33-1.82-.38-5.04-3.52-9.17-6.76-9.64Z"/>
      <g>
        <path class="cls-4" d="M20.98,76.78c-.1.67.14,1.25.52,1.31s.78-.44.87-1.1c.1-.67-.14-1.25-.52-1.31-.39-.06-.78.44-.87,1.1Z"/>
        <path class="cls-4" d="M39.73,79.52c-.1.67-.49,1.16-.87,1.1-.39-.06-.62-.64-.52-1.31s.49-1.16.87-1.1.62.64.52,1.31Z"/>
        <path class="cls-3" d="M28.56,85.69c-.29,1.99-1.73,2.45-2.76,2.29-.02,0-.04,0-.06-.01.87,1.98,3.41,2.42,4.64.67-.99-.22-2.09-1.07-1.82-2.95Z"/>
        <path class="cls-1" d="M79.37,106.3c1,.29,1.72.98,2.13,1.9.56,1.27,1.29,2.67,2.9,3.31,1.66.66,3.99-.48,4.95-1.99.74-1.15.29-1.82-1.12-1.39-2.37.71-3.54-.6-5.09-2.52-1.22-1.5-3.18-3.15-5.8-3.18l.24,3.12,1.79.76Z"/>
        <g>
          <path class="cls-5" d="M74.08,139.11c.12.49.32,1.04.56,1.63.44-1.12.64-2.28.22-3.71-.59-2-2.21-6.74-2.83-8.29-.19-.48-.54-.79-.96-.98.62,3.01.65,5.21,1.89,7.6.61,1.17.77,2.36,1.12,3.75Z"/>
          <path class="cls-1" d="M74.64,140.74c-.24-.59-.44-1.14-.56-1.63-.35-1.39-.51-2.58-1.12-3.75-1.24-2.38-1.27-4.59-1.89-7.6-.94-.42-2.32-.22-3.69.32-.91.37-2.02.73-3.45,1.05,1.3,2.16,3.7,6.57,4.7,8.04,1.26,1.86,1.74,2.71,2.55,4.53.27.61.84,1.72,1.53,2.97.51-.99,1-1.94,1.38-2.7.21-.42.4-.82.56-1.24Z"/>
          <path class="cls-1" d="M75.83,149.99c-.23,1.22-.11,2.57.62,3.5,2.68-.68,3.76-2.01,3.94-3.53-.1-.36-.52-.89-.77-1.18-.06-.07-.22-.3-.06-.38.21-.1.2-.36.02-.56-.3-.33-1.09-.63-1.43-.7-.51-.75-1.06-1.64-1.6-2.57-.7,1.21-1.31,2.48-1.77,3.75.37.62.72,1.19,1.04,1.67Z"/>
        </g>
      </g>
      <path class="cls-8" d="M33.53,122.55c.49-1.77.59-2.69.55-3.54-.09-1.74-.38-2.84-1.57-4.32-.54-.67-1.45-2.17-2.44-3.92-1.94-3.43-3.26-7.72-3.34-11.86-.03-1.63.5-3.91,2.26-5.2-.56.02-1.15,0-1.75-.09-3.22-.47-5.36-2.37-7-4.97-.26-.41-.42-.71-.69-1.18-.07.37-.13.77-.19,1.19-.99,5.63-.95,10.51,1.22,16.78,2.96,8.53,9.09,14.8,12.96,17.12h0Z"/>
      <path class="cls-8" d="M72.03,128.74c-.62-1.55-2.67-1.45-4.66-.66-1.93.77-4.71,1.57-9.7,1.82-6.15.31-11.6-1.58-13.78-2.17-1.85-.5-2.53-.19-3.41.77.99-1.04,2.04-2.38,2.57-2.88,1.16-1.1,3.01-1.42,4.41-1.07,4.09,1.02,5.68,1.23,7.61,1.32,5.61.27,7.97-1,10.18-1.43,2.79-.54,5.24.28,6.77,4.3h0Z"/>
      <path class="cls-1" d="M40.49,128.51c-.48.53-1.78,1.87-3.18,3.35-.07,2.51,0,4.4.46,6.36.27,1.16.67,3.19.84,4.33.41,2.76.69,4.33.68,7.2-1.01.96-1.93,1.29-1.94,3.45,1.59.61,3.06.4,3.98.09.23-.07.81-.32.89-.88.08-.55.28-.97.4-.85.16.16.46.04.51-.21.12-.6-.13-1.52-.24-2.26-.15-.96-.51-2.99-.62-5-.16-2.67-.04-5.11.27-6.81.29-1.6,1.23-6.68,2.12-9.34-.28-.08-.54-.16-.77-.22-1.85-.5-2.53-.19-3.41.77Z"/>
      <path class="cls-1" d="M43.46,70.97c.52-.32,1.39-1,2.5-.67,1.75.52,5.95,2.22,8.86,1.56,2.48-.56,5.2-2.23,6.87-6.24-2.69-2.04-6.24-2.44-9.14-1.31-2.92,1.14-5.07,3.25-6.62,3.55-1.72.34-2.67-.13-3.09-.68-.16,1.03.12,2.83.62,3.79Z"/>
      <path class="cls-8" d="M59.96,66.41c-2.19-.88-4.52-1.23-6.81-.31s-3.64,2.07-5.05,2.67c-.9.38-.97,1.06.19,1.43,1.28.41,3.82,1.19,5.59.98,1.98-.24,4.3-1.26,6.07-4.76Z"/>
      <path class="cls-7" d="M41.34,153.31c.23-.07.81-.32.89-.88.04-.28.11-.53.19-.69-.72.09-2.01-.12-2.46-.34s-.87-.7-.67-1.64c-1.01.96-1.93,1.29-1.94,3.45,1.59.61,3.06.39,3.98.09Z"/>
      <path class="cls-7" d="M35.41,150.25c-.34.82-1.92,2.07-2.59,2.07s-1.1-.52-1.46-1.68c.16,2.32.39,3.53,1.6,4.8,2.11-1.02,2.85-2.4,3.17-3.5.08-.27-.11-.81-.47-1.26-.14-.18-.22-.32-.26-.43Z"/>
      <path class="cls-7" d="M70.48,152.07c-.42-.39-.62-.73-.26-1.58-1.32.81-1.93,1.93-1.99,3.68,1.81.79,3.68.55,4.69,0,.25-.14.5-.65.58-1.21.03-.24.08-.4.13-.51-.68.11-2.74,0-3.15-.38Z"/>
      <path class="cls-7" d="M80.39,149.96c-.1-.36-.52-.89-.77-1.18-.04.69-1.44,1.76-2.33,1.85-.81.09-1.08-.02-1.47-.64-.23,1.22-.11,2.57.62,3.5,2.68-.68,3.76-2.01,3.94-3.53Z"/>
      <path class="cls-2" d="M71.91,132.38c-.31-1.4-.48-2.87-.84-4.62-.94-.42-2.32-.22-3.69.32-.91.37-2.02.73-3.45,1.05.14.23.29.49.45.77,1.1.98,2.32,1.98,3.07,2.48,1.03.69,3.39.7,4.46,0Z"/>
      <path class="cls-2" d="M40.15,128.87c-.08.09-.16.18-.26.27-.03.03-.06.06-.09.09-.62.66-1.51,1.58-2.46,2.58-.01.01-.02.02-.03.04,0,.21-.01.42-.01.62.72-.53,1.66-1.13,2.84-1.58,1.2-.46,2.46-.55,4.09-1.46.15-.55.29-1.06.44-1.5-.08-.02-.16-.05-.24-.07-.19-.05-.37-.11-.53-.15-1.85-.5-2.53-.19-3.41.77-.07.07-.15.17-.25.27-.03.03-.06.06-.09.09Z"/>
      <path class="cls-2" d="M76.8,144.98c-.08-.14-.16-.27-.24-.41-.7,1.21-1.31,2.48-1.77,3.75.13.21.25.41.37.61.43-1.18,1.04-2.83,1.64-3.95Z"/>
      <path class="cls-2" d="M20.99,89.74c1.98,3.32,4.09,5.97,6.78,6.39,4.22.66,8.52-3.92,10.21-7.05.05-.14.09-.29.15-.43.19-.45.46-1.02.73-1.56-.64.84-.97,1.39-2.82,3.15-2.07,1.98-4.33,3.35-7.05,3.46-.56.02-1.15,0-1.75-.09-2.74-.4-4.71-1.84-6.24-3.87Z"/>
      <g>
        <path class="cls-6" d="M17.88,62.99c.31-.66,1.06-1.34,1.66-1.75.17-.12.34-.21.52-.27-1.52-.65-2.99-2-4.29-3.92-.59-.87-1.21-2.03-1.79-3.41-.22-3.65.76-7.99,2.24-10.38,1.23-1.99,2.82-3.22,3.65-3.66,1.83-.96.93-1.88-.71-1.34-1.79.59-3.12,1.65-4.34,3.21-1.48,1.9-2.24,4.06-2.62,6.51-.65-2.88-1.02-6.18-.89-9.75,2.65-1.16,6.29-3.33,8.7-6.53,2.4-3.2,3.54-8.99,3.88-11.28s.82-3.17,1.82-4.43c1.01-1.26.1-1.66-.83-.97s-1.99,2.38-2.46,4.77c-.51,2.63-2.16,8.46-4.16,10.95-1.82,2.27-4.6,3.43-6.72,4.39.1-.82.22-1.66.38-2.5,1.57-8.29,8.03-18.25,12-21.74,2.1-.5,5.25-1.29,6.9-2.18,1.69-.91,2.17-1.5,3.09-2.53s.2-1.31-.76-.45c-.96.86-1.55,1.45-2.51,1.88-.95.43-2.89,1.04-4.59,1.48,3.32-2.93,4.73-5.12,5.77-7.03,1.05-1.92.12-3.19-1.36-.59-1.37,2.39-3.35,4.5-7.79,7.98-1.98,1.55-3.92,3.69-5.7,6.13-.22-2.2-.21-6.13,1.18-9.03,1.1-2.29,1.97-3.58,2.78-4.29s.28-1.92-1.04-.9c-1.4,1.08-2.7,2.98-3.58,4.91-1.89,4.17-2.16,8.66-1.59,12.67-1.87,3.06-3.46,6.34-4.62,9.46.16-2.36-.47-4.52-1.22-5.85-1.87-3.29-1.37-7.98.92-10.31,1.7-1.72.35-2.36-1.28-.89-2.75,2.49-3.33,8.18-2.21,10.55,1.02,2.14,1.83,4.88,1.57,7.19-.2,1.76-1.01,5.03.29,7.06-.4,3.59-.18,7.26.39,10.59-2.8-1.14-4.25-2.91-4.39-6.23-.08-1.89-.18-4.64-.32-5.83-.14-1.19-.84-3.33-2.33-4.41-1.15-.84-2.22.03-.98,1.11,1.35,1.18,1.59,2.78,1.63,4.11.04,1.34-.28,3.48-.05,5.66.29,2.77,1.43,7.39,7.58,10.46.27.88.55,1.71.85,2.47,1.63,4.11,3.73,6.18,5.87,7.85.62.49.45,2.35,1.31,2.87-.01-.1-.02-.2-.04-.31-.07-.52-.06-1.02.17-1.52Z"/>
        <path class="cls-6" d="M43.98,64.91c.45.57.97,1.44,1.06,2.16.02.11.02.22.02.33.57-.5,1.33-.8,1.82-1,2.53-.99,5.14-2.37,7.87-5.84.51-.64,1.02-1.36,1.53-2.12,6.77-1.18,9.19-5.27,10.26-7.84.84-2.03,1.16-4.17,1.58-5.44s1.1-2.73,2.74-3.47c1.5-.68.72-1.81-.62-1.34-1.73.61-3.02,2.45-3.49,3.56-.47,1.1-1.36,3.71-1.98,5.5-1.08,3.14-2.98,4.42-5.99,4.71,1.5-3.03,2.76-6.49,3.41-10.04,1.83-1.57,1.99-4.93,2.3-6.68.41-2.29,1.98-4.68,3.56-6.44,1.76-1.95,2.83-7.57.91-10.74-1.13-1.87-2.61-1.65-1.48.49,1.53,2.88.66,7.53-2.07,10.14-1.1,1.05-2.32,2.95-2.85,5.25-.21-3.31-.8-6.92-1.71-10.38,1.69-3.68,2.72-8.05,2.11-12.59-.28-2.1-.98-4.29-2.02-5.73-.97-1.36-1.83-.35-1.26.56.57.9,1.04,2.4,1.43,4.9.5,3.18-.61,6.95-1.46,8.99-1.01-2.85-2.25-5.45-3.7-7.51-3.26-4.61-4.55-7.19-5.18-9.88-.68-2.91-1.93-1.96-1.48.18.45,2.11,1.17,4.6,3.47,8.32-1.46-.9-3.38-2.06-3.91-2.63-.56-.6-1.22-1.45-1.89-2.56s-1.45-1.04-.86.21,1,2,2.24,3.31c1.21,1.28,4.1,2.98,5.99,4.07,2.81,4.48,6.14,15.87,5.27,24.26-.09.86-.21,1.69-.36,2.5-1.75-1.53-4.09-3.43-5.17-6.13-1.19-2.96-1.1-9.01-.84-11.68.24-2.43-.3-4.36-.99-5.28s-1.67-.8-1.07.69.81,2.47.48,4.76c-.34,2.3-.9,8.17.48,11.92,1.39,3.76,4.26,6.88,6.46,8.75-.9,3.46-2.2,6.51-3.65,9.08.34-2.45.23-4.74-.65-6.99-.72-1.85-1.7-3.24-3.24-4.32-1.42-.99-2.54-.37-1.07,1.08.67.65,1.84,2.29,2.44,4.55.73,2.72.42,7.15-.84,10.59-.96,1.15-1.88,2.08-2.69,2.75-1.87,1.53-3.74,2.4-5.44,2.54.18.13.34.28.5.47Z"/>
      </g>
      <path class="cls-1" d="M18.18,67.27c-.57-.88-1-1.17-2.11-1.14-1.82.04-6.34.42-8.94-1.04-2.22-1.25-4.34-3.63-4.79-7.95,3.16-1.18,6.68-.55,9.13,1.37,2.47,1.93,3.91,4.59,5.33,5.3.97.48,1.88.58,3.06.02.19.72-.82,2.82-1.68,3.45Z"/>
      <path class="cls-8" d="M3.84,58.24c2.34-.22,4.67.11,6.59,1.63,1.92,1.52,2.89,3.01,4.06,3.98.75.62.62,1.29-.59,1.31-1.34.03-3.98.05-5.61-.66-1.83-.79-3.75-2.42-4.44-6.27Z"/>
      <path class="cls-4" d="M33.82,86.78c-.14-.04-.27.03-.32.16-.41,1.21-1.78,1.67-2.92,1.5-.98-.14-2.03-.94-1.78-2.71,0,0,0-.02,0-.02.95.08,1.65-.21,2.34-.86.75-.71.33-1.3-.32-1.26-.6.04-1.11,0-1.94-.13s-1.33-.22-1.9-.43c-.61-.23-1.18.21-.66,1.11.47.82,1.06,1.3,2,1.5,0,0-.01.01-.01.02-.12.83-.46,1.43-.99,1.78-.41.27-.95.38-1.48.3-1.14-.17-2.32-1-2.37-2.27,0-.13-.12-.24-.25-.24h-.01c-.14,0-.24.12-.24.26.06,1.51,1.4,2.51,2.72,2.73.48.94,1.36,1.58,2.36,1.68.09,0,.19.01.28.01.81,0,1.53-.37,2.06-1.01.04,0,.09.02.13.03.17.02.35.04.53.04,1.22,0,2.51-.59,2.94-1.87.04-.13-.03-.27-.16-.32ZM28.08,89.55c-.81-.08-1.52-.58-1.97-1.3.53.01,1.06-.12,1.49-.4.31-.2.57-.48.77-.81.24.92.88,1.5,1.64,1.76-.5.54-1.18.83-1.92.75Z"/>
    </g>
  </g>
</svg>