<?xml version="1.0" encoding="UTF-8"?>
<svg id="Layer_2" data-name="Layer 2" xmlns="http://www.w3.org/2000/svg" width="171.93" height="216.65" xmlns:xlink="http://www.w3.org/1999/xlink" viewBox="0 0 171.93 216.65">
  <defs>
    <style>
      .cls-1 {
        fill: #c9caca;
      }

      .cls-2 {
        fill: #3e332c;
      }

      .cls-3 {
        fill: url(#linear-gradient-2);
      }

      .cls-4 {
        fill: #eeede3;
      }

      .cls-5 {
        fill: url(#linear-gradient-4);
      }

      .cls-6 {
        fill: url(#linear-gradient-3);
      }

      .cls-7 {
        fill: url(#linear-gradient-5);
      }

      .cls-8 {
        fill: #c8cfe2;
      }

      .cls-9 {
        fill: #fce0bc;
      }

      .cls-10 {
        fill: #fcdfbe;
      }

      .cls-11 {
        fill: url(#linear-gradient);
      }

      .cls-12 {
        fill: #9fa0a0;
      }
    </style>
    <linearGradient id="linear-gradient" x1="160.8" y1="18.82" x2="160.8" y2="227.17" gradientTransform="translate(0 234.01) scale(1 -1)" gradientUnits="userSpaceOnUse">
      <stop offset="0" stop-color="#b3b8d7"/>
      <stop offset=".45" stop-color="#babfda"/>
      <stop offset="1" stop-color="#c8cfe2"/>
    </linearGradient>
    <linearGradient id="linear-gradient-2" x1="94.79" y1="18.82" x2="94.79" y2="227.17" xlink:href="#linear-gradient"/>
    <linearGradient id="linear-gradient-3" x1="127.65" y1="18.82" x2="127.65" y2="227.17" xlink:href="#linear-gradient"/>
    <linearGradient id="linear-gradient-4" x1="46.99" y1="18.82" x2="46.99" y2="227.17" xlink:href="#linear-gradient"/>
    <linearGradient id="linear-gradient-5" x1="46.84" y1="18.82" x2="46.84" y2="227.17" xlink:href="#linear-gradient"/>
  </defs>
  <g id="Layer_1-2" data-name="Layer 1">
    <g>
      <path class="cls-11" d="M163.11,120.02c-.28,0-1.04,0-1.33-.04-7.78-1.3-10.36-12.37-11.81-19.76l-.3-1.49c-.08-.42,1.36-.94,1.78-1.03.43-.09,1.41.19,1.49.61l.3,1.5c1.29,6.55,3.45,17.53,9.18,18.55.99.18,1.73-.1,2.26-.52-1.62-.29-3.1-1.18-3.85-2.47-1.46-2.5-.84-4.78.43-5.93,1.23-1.12,2.94-1.18,4.35-.15,2.06,1.5,2.55,4.42,1.92,6.76,2.02-.86,3.01-3.26,2.81-6.82-.02-.43.3-.8.73-.82.43-.02.8.3.82.73.36,6.43-2.92,8.12-4.34,8.55-.27.08-.55.14-.83.18-.88,1.36-2.19,2.05-3.61,2.15ZM163.5,110.12c-.48,0-.9.2-1.2.47-.8.73-1.15,2.24-.13,3.99.57.97,2.03,1.78,3.6,1.8.01-.02.02-.05.03-.07.78-1.83.58-4.55-1.1-5.77-.42-.3-.82-.42-1.2-.42Z"/>
      <g>
        <path class="cls-3" d="M125.74,210.12c.74,1.87,1.87,2.95,3.19,3.11,2.72.34,8.56.41,12.74,0,6.52-.64,11.56-17.2,13.94-32.91,3.1-20.44,2.93-56.5-2.93-84.95-5.23-25.43-12.36-47.05-25.48-68.52C116.62,9.52,103.84,0,89.03,0c-13.47,0-27.51,14.23-37.57,39.87-10.85,27.67-21.78,77.49-19.07,117.61,1.4,20.76,6.13,41.47,9.68,51.61,2.07,5.89,4.06,6.84,6.97,7.2,3.95.48,7.09.4,11.28.05,4.12-.35,7.32-1.75,8.01-6.96.69-5.21,1.29-25.14,1.98-29.95,7.92,2.1,16.01,2.9,25.13,2.61.46,6.92,2.8,19.64,4.05,25.55,1.31,6.19,3.78,8.45,7.21,8.82,3.58.38,9.01.3,12.59,0,2.79-.24,4.91-2.78,6.45-6.27h0s0,0,0,0Z"/>
        <path class="cls-6" d="M114.46,59.51c.81,3.76,2.36,7.36,6.84,10.04,5.62,3.37,14.48,2.45,19.22.9,5.35-1.75,8.86-6.72,9.51-14.33.78-9.24-2.8-18.93-11.28-28.8-8.48-9.87-25.19-18.59-33.57-15.3l9.29,47.49Z"/>
        <path class="cls-5" d="M93.98,67.12c-8.09,5.21-18.33,32.36-20.4,41.38-1.6,6.98-7.92,21.44-15.75,30.96-6.77,8.23-18.08,16.3-31.24,14.36-10.78-1.59-19.5-10.85-23.58-19.57C1.07,130.11-.13,125.43.01,121.54c.05-1.44.29-2.78.75-3.93,2.07-5.21,6.97-6.01,8.69-1,1.68,4.88,4.44,9.9,8.35,12.52,5.04,3.38,13,1.7,18.16-4.71,5.16-6.41,7.92-19.84,7.92-29.85s2.07-21.64,3.27-29.45c12.44-20.01,32.32-21.43,46.83,2Z"/>
        <path class="cls-2" d="M98.93,37.48c.16,2.1-.77,3.88-2.07,3.98s-2.5-1.52-2.66-3.61c-.16-2.1.77-3.88,2.07-3.98,1.31-.1,2.5,1.52,2.66,3.61Z"/>
        <path class="cls-2" d="M56.46,37.67c-.42,2.07-1.46,3.75-2.32,3.75s-1.22-1.69-.79-3.76,1.46-3.75,2.32-3.75c.86,0,1.22,1.69.79,3.76Z"/>
        <path class="cls-9" d="M113.4,21.31c1.61-1.77,5.01-1.89,10.4.6,6.16,2.85,16.91,12.49,20.28,20.76,3.96,9.73,3.53,17.65.78,21.46s-6.96,4.69-11.64,5.07c-5.32.43-9.97-1.08-12.21-3.08s-3.46-5.14-4.17-8.26c-.91-4.01-4.7-25.93-5.14-29.05-.52-3.71.52-6.2,1.69-7.49Z"/>
        <path class="cls-1" d="M42.42,162.08c6.41,8.06,19.99,15.46,27.89,17.34-.69,4.81-1.29,24.74-1.98,29.95-.69,5.21-3.88,6.61-8.01,6.96-4.19.35-7.32.43-11.28-.05-2.44-.3-4.23-1.01-5.96-4.69,2.99,2.64,4.8,2.51,6.74,2.64s8.65.26,10.59-.13,4.13-1.94,4.26-5.55c.1-2.89.57-15.08.82-21.52.08-2.15-.82-3.96-2.36-4.93-6.01-3.78-16.97-12.67-20.72-20.03Z"/>
        <path class="cls-8" d="M95.45,182.03c-5.97.2-11.49-.09-16.82-.89.73,7.27,3.06,23.04,4.5,27.14.81,2.29,2.67,3.81,4.73,4.21,1.78.35,4.99.19,4.99.19,2.1,0,3.97-.19,5.26-.41,1.01-.18,1.66-.51,2.36-1.27-.38-.98-.71-2.1-.99-3.41-1.25-5.91-3.58-18.62-4.05-25.55Z"/>
        <path class="cls-1" d="M83.64,209.4c.95,1.66,2.52,2.75,4.22,3.08,1.78.35,4.99.19,4.99.19,2.1,0,3.97-.19,5.26-.41,1.01-.18,1.66-.51,2.36-1.27-.38-.98-.71-2.1-.99-3.41-1.25-5.91-3.58-18.62-4.05-25.55-5.97.2-11.49-.09-16.82-.89.16,1.56.39,3.51.67,5.65,3.16.73,5.35,1.03,7.2,1.24,1.54.18,2.93,1.94,3.44,3.4.9,2.55,3.48,13.32,3.96,15.71.32,1.6-.13,3.02-1.82,3.16-1.44.12-3.4.16-4.83.11-1.55-.05-2.47-.07-3.61-1.01Z"/>
        <path class="cls-1" d="M147.11,208.8c-1.66,2.61-3.48,4.24-5.44,4.43-4.17.41-10.02.34-12.74,0-1.32-.16-2.45-1.24-3.19-3.11h0c.67-1.51,1.23-3.2,1.68-4.95,2.41-9.22,4.34-21.46,5.3-31.73,3.55-1.93,16.22-8.34,21.3-23.67-2.45,11.79-7.67,19.92-10.67,23.2-1.27,1.38-2.49,2.36-3.58,3.27-1.76,1.46-2.73,2.82-3.25,5.27-1.4,6.59-3.6,14.97-4.77,18.92-.76,2.55-1.95,5.73-2.65,7.81-.45,1.36.1,2.65,2.32,2.87,2.07.21,6.77.29,9.3,0,2.84-.32,4.75-.66,6.39-2.31Z"/>
        <path class="cls-7" d="M66.13,13.55c-9.31.36-22.61,7.16-30.5,18.45-7.36,10.52-8.99,21.29-7.62,28.9,1.46,8.15,5.54,10.93,14.26,8.19,2.85-11.1,6.03-21.11,9.21-29.21,4.28-10.92,9.29-19.76,14.67-26.32Z"/>
        <path class="cls-9" d="M42.78,67.08c2.71-10.3,5.7-19.6,8.68-27.21,2.56-6.53,5.39-12.32,8.39-17.32-7.58.76-17.65,5.39-23.58,13.96-5.09,7.36-7.3,18.04-6.26,24.01,1.29,7.47,5.13,9.18,12.77,6.55Z"/>
        <path class="cls-1" d="M128.46,74.86c6.73,1.36,15.07-2.33,17.37-6.54-.1-.33-.21-.65-.31-.98-1.4,1.43-3.07,2.48-4.99,3.1-4.73,1.55-13.59,2.47-19.22-.9-2.5-1.49-4.08-3.27-5.14-5.2,1.96,4.77,6.22,9.29,12.29,10.51Z"/>
        <path class="cls-10" d="M.01,121.54c.05-1.44.29-2.78.75-3.93,2.07-5.21,6.97-6.01,8.69-1,1.16,3.46.91,5.9.34,7.91-.95,3.36-3.72,4.16-6.11,3.61-2.45-.57-3.85-3.28-3.68-6.59Z"/>
        <path class="cls-4" d="M114.76,111.54c-3.75,2.08-7.02,1.26-9.79-1.64-2.07-2.16-3.17-6.29-3.85-12.54-.54-5.02-.59-11.42-1.8-15.14-1.42-4.37-6.73-7.64-12.2-6.8-2.03,3.38-4.02,7.39-5.83,11.49.72,5.82,2.36,9.89,4.74,15.33,3.09,7.07,7.05,13.43,14.03,16.39,7.13,3.03,13.52,1.12,16.97-3.03,2.91-3.5.27-5.47-2.27-4.06Z"/>
        <path class="cls-4" d="M45.51,75.82c-2.06.35-4.37,2.2-5.88,5.17-2.07,4.06-3.1,6.01-4.78,12.17-1.5,5.51-3.09,9.16-6.71,12.32-3.61,3.16-10.05,3.79-13.82-.15-2.58-2.7-4.91-.3-2.97,3.01,3.73,6.36,10.29,10.32,17.04,8.87,4.35-.93,10.89-4.72,14.62-12.1.58-3.63.87-7.27.87-10.54,0-6.06.76-12.71,1.62-18.75Z"/>
        <path class="cls-12" d="M3.82,121.76c-.2,1.76-.73,2.41-1.29,2.35s-.92-.82-.73-2.58c.2-1.76.89-3.86,1.45-3.79s.76,2.26.56,4.02Z"/>
        <path class="cls-12" d="M7.89,121.71c.08,1.77-.35,2.5-.91,2.52-.56.02-1.04-.67-1.11-2.43-.08-1.77.29-3.95.84-3.97.56-.02,1.1,2.12,1.18,3.89Z"/>
        <path class="cls-1" d="M26.59,153.82c13.17,1.94,24.48-6.14,31.24-14.36,7.83-9.52,14.15-23.98,15.75-30.96,2.07-9.02,12.31-36.17,20.4-41.38-8.01,9.61-13.02,25.89-16.53,42.8-3.49,16.79-10.33,29.05-18.33,36.28-8.01,7.23-18.98,11.23-32.54,7.62Z"/>
        <path class="cls-1" d="M35.97,124.42c5.16-6.41,7.92-19.84,7.92-29.85-1.16,10.25-4.77,22.19-7.92,27.14-1.39,2.17-2.35,3.61-3.28,4.66-.03.44-.06.87-.09,1.31,1.2-.9,2.34-1.98,3.37-3.25Z"/>
        <path class="cls-1" d="M50.41,82.03c5.44-4.95,17.62-5.12,22.14.43-6.33-3.01-15.8-2.84-22.14-.43Z"/>
        <path class="cls-1" d="M48.35,99.07c4.9-4.95,15.87-5.12,19.93.43-5.7-3.01-14.22-2.84-19.93-.43Z"/>
        <path class="cls-1" d="M44.26,115.04c4.29-4.95,13.89-5.12,17.45.43-4.99-3.01-12.45-2.84-17.45-.43Z"/>
        <path class="cls-1" d="M37.01,129.54c3.95-4.95,12.8-5.12,16.08.43-4.59-3.01-11.47-2.84-16.08-.43Z"/>
      </g>
    </g>
  </g>
</svg>