<?xml version="1.0" encoding="UTF-8"?>
<svg id="Layer_2" data-name="Layer 2" xmlns="http://www.w3.org/2000/svg" width="90.47" height="99.25" viewBox="0 0 90.47 99.25">
  <defs>
    <style>
      .cls-1 {
        fill: #c9caca;
      }

      .cls-2 {
        fill: #3e332c;
      }

      .cls-3 {
        fill: #e1993a;
      }

      .cls-4 {
        fill: #ecd5af;
      }

      .cls-5 {
        fill: #7f4f21;
      }

      .cls-6 {
        fill: #755b4f;
      }
    </style>
  </defs>
  <g id="Layer_1-2" data-name="Layer 1">
    <g>
      <path class="cls-3" d="M30.29,76.34c-4.06-.06-10.67,0-15.83,1.05C8.23,78.66-.06,81.89,0,87.53c.06,5.99,5.5,9.12,13.74,10.93s23.45.07,30.12-.9c6.67-.97,15.89-1.58,22.68-.61-.46-1.06-1.05-2.03-1.74-2.92-3.92-5.04-11.09-7.5-15.24-8.48-3.96-.93-13.34-.42-16.55-2.44-2.68-1.68-3.21-4.47-2.73-6.78Z"/>
      <path class="cls-3" d="M70.08,90.55c.68.57.93,1.28.97,2.18.03.77-1.3,1.35-2.7,1.52-1.09.13-2.77.04-3.54-.2-3.92-5.04-11.09-7.5-15.24-8.48-3.96-.93-13.34-.42-16.55-2.44-2.68-1.68-3.21-4.47-2.73-6.78.49-2.3,2.91-7.82,8.55-12.91,4.29-3.88,6.32-7.62,7.82-10.01,2.18-3.46,4.18-7.28,7.99-12.03,2.06-2.34,5.24-4.39,9.29-4.39s7.39,2.83,9.09,6.23c1.77,3.15,3.42,7.06,4.06,11.37.77,5.16-.83,11.31-1.68,13.61-.13.36-.3.78-.5,1.24,1.68,4.58,2.29,9.52,1.41,13.07-.79,3.19-3.73,6.43-6.23,8.03Z"/>
      <path class="cls-4" d="M49.57,85.55c-.42-.1-.91-.18-1.44-.25,1.48.74,1.14,2.12,2.08,3.13-2.27-.27-4.46.27-5.91.64,1.46.91,2,1.73,2.46,2.73-2.24.61-3.35,1.53-5.18,2,2.7,1.27,3.99,1.55,5.28,1.82-1.31.69-1.09,1.2-2.11,1.82h0c6.59-.9,15.31-1.41,21.82-.49-.46-1.06-1.05-2.03-1.74-2.92-3.92-5.04-11.09-7.5-15.24-8.48Z"/>
      <path class="cls-4" d="M58.17,44.69c1.74,1.94,3.8,3.99,6.77,3.99,2.81,0,4.8-1.84,6.49-3.68l.05-.05c1.22,1.6,2.9,5.22,3.44,6.68-.46-.73-.7-1.03-1.24-1.67,1.36,2.37,1.65,3.55,1.74,4.91-.3-.74-.52-1.17-.92-1.82.55,1.73,1.27,4.64,1.09,7,0,0-.36-1.27-.73-1.82.21,2.44-.18,4.64-.55,6.18-.62,2.67-1.76,4.25-3.18,5.91-1.23,1.44-3.06,2.71-4.14,3.4.33-.56.46-.93.59-1.3-.55.64-2.18,2.44-3.91,3.26-.26-1.52-1.55-2.62-3-3.8-1.46-1.18-5.64-5.18-6.59-8.96-.7-2.76-.96-6.41-.41-7.96-.32.47-.68,1.47-.96,2.11.12-1.65,1.18-4.46,2.14-5.84-.62.58-1,1.03-1.55,1.7.89-2.53,1.87-4.15,2.56-5.24.76-1.2,1.51-2.19,2.31-2.99h0Z"/>
      <path class="cls-3" d="M64.94,48.69c3.74,0,6.04-3.27,8.09-5.46s5.32-3.68,7.4-4.18c1.63-.39,4.26-.55,5.53-.27-.32-.41-.77-.75-1.62-1.18,1.32-.27,2.66-.21,4.43.55-.55-.91-1.45-2.09-2.81-2.91,1.32-.07,3.19.39,4.21,1.14-.04-3.55-1.15-9.78-5.06-15.32-3.74-5.3-10.3-10.19-20.17-10.19s-16.43,4.89-20.17,10.19c-3.91,5.55-5.02,11.78-5.06,15.32,1.02-.75,2.89-1.21,4.21-1.14-1.36.82-2.26,2-2.81,2.91,1.77-.75,3.11-.82,4.42-.55-.85.43-1.3.77-1.62,1.18,1.28-.27,3.9-.12,5.53.27,2.09.5,5.36,2,7.4,4.18s4.34,5.46,8.09,5.46Z"/>
      <path class="cls-4" d="M85.96,38.78c-.32-.41-.77-.75-1.62-1.18,1.32-.27,2.66-.21,4.42.55-.55-.91-1.45-2.09-2.81-2.91,1.32-.07,3.19.39,4.21,1.14,0-.46-.03-.96-.07-1.49-3.66-2.53-7.9-3.22-12.25-1.22-4.06,1.87-9.55,6.4-11.26,8.97h-3.29c-1.71-2.57-7.21-7.11-11.26-8.97-4.35-2-8.59-1.31-12.25,1.22-.04.54-.07,1.04-.07,1.49,1.02-.75,2.89-1.21,4.21-1.14-1.36.82-2.26,2-2.81,2.91,1.77-.75,3.11-.82,4.42-.55-.85.43-1.3.77-1.62,1.18,1.28-.27,3.9-.12,5.53.27,2.09.5,5.36,2,7.4,4.18s4.34,5.46,8.09,5.46,6.04-3.27,8.09-5.46,5.32-3.68,7.4-4.18c1.63-.39,4.25-.55,5.53-.27Z"/>
      <path class="cls-2" d="M66.79,42.7c0,.74-.99,1.68-1.85,1.68s-1.85-.95-1.85-1.68.83-.98,1.85-.98,1.85.25,1.85.98Z"/>
      <path class="cls-2" d="M57.66,34.44c0,.7-.45,1.27-1,1.27s-1-.57-1-1.27.45-1.27,1-1.27,1,.57,1,1.27Z"/>
      <path class="cls-2" d="M72.21,34.44c0,.7.45,1.27,1,1.27s1-.57,1-1.27-.45-1.27-1-1.27c-.55,0-1,.57-1,1.27Z"/>
      <path class="cls-3" d="M52.57,13.95c-1.65.93-3.11,2.02-4.39,3.2-3.59-1.05-6.34-3.29-7.7-6.48C39.31,7.95,39.06,4.17,39.99,0c3.99.99,7.17,2.67,9.35,5.17,2.79,3.2,3.09,5.68,3.23,8.78Z"/>
      <path class="cls-3" d="M77.27,13.93c.14-3.07.49-5.52,3.28-8.71,2.18-2.5,5.37-4.18,9.35-5.17.92,4.17.68,7.95-.48,10.67-1.36,3.18-4.09,5.41-7.68,6.46-1.3-1.2-2.78-2.31-4.46-3.25Z"/>
      <path class="cls-2" d="M70.04,43.26c-.15-.02-.26.07-.28.21-.19,1.28-1.73,1.97-2.75,1.97-.01,0-.03,0-.04,0-.74-.01-1.6-.36-1.78-1.09.79-.15,1.6-.98,1.6-1.65,0-.74-.83-.98-1.85-.98s-1.85.25-1.85.98c0,.66.81,1.49,1.6,1.65-.18.73-1.04,1.08-1.78,1.09-.01,0-.03,0-.04,0-1.02,0-2.57-.69-2.75-1.97-.02-.14-.14-.23-.28-.21-.14.02-.23.15-.21.28.23,1.6,2.06,2.44,3.3,2.4.74-.01,1.59-.32,2.02-.94.43.62,1.28.93,2.02.94.02,0,.03,0,.05,0,1.23,0,3.02-.82,3.25-2.4.02-.14-.07-.26-.21-.28Z"/>
      <path class="cls-5" d="M48.2,4.03c-2.1-1.88-4.87-3.2-8.21-4.03-.8,3.61-.72,6.93.07,9.53,1.56-2.09,5.37-4.66,8.14-5.5Z"/>
      <path class="cls-5" d="M89.84,9.55c.79-2.59.86-5.9.07-9.5-3.33.82-6.08,2.14-8.17,4,2.77.85,6.57,3.43,8.11,5.5Z"/>
      <path class="cls-4" d="M48.36,16.2c-2.64-.96-4.88-3.34-5.98-5.43-.86-1.64-1.46-4-1-7.46,3,.73,5.32,2.05,6.87,3.96,1.83,2.25,2.77,4.53,2.86,6.64-.25-.46-.78-1.62-1.44-2.23.16.73.49,2.03.47,2.64-.16-.32-.47-.78-.82-1.21.22.78.36,1.68.25,2.25-.18-.22-.5-.42-.75-.61.15.63-.09,1.1-.45,1.45Z"/>
      <path class="cls-4" d="M81.51,16.2c2.64-.96,4.88-3.34,5.98-5.43.86-1.64,1.46-4,1-7.46-3,.73-5.32,2.05-6.87,3.96-1.83,2.25-2.77,4.53-2.86,6.64.25-.46.78-1.62,1.44-2.23-.16.73-.49,2.03-.47,2.64.16-.32.47-.78.82-1.21-.22.78-.36,1.68-.25,2.25.18-.22.5-.42.75-.61-.15.63.09,1.1.45,1.45Z"/>
      <path class="cls-1" d="M73.02,43.23c-2.04,2.18-4.34,5.46-8.09,5.46s-6.04-3.27-8.09-5.46c1.75,2.67,4.6,6.78,8.09,6.78s6.2-3.38,8.09-6.78Z"/>
      <path class="cls-1" d="M49.84,73.88c-1.23-2.68-3.3-5.24-6.28-6.46,3.09,1.64,5,5.18,6.09,8.37,1.04,3.04,1.13,4.77.73,7.64-2.27-.69-6.97-.41-9.25-.32-2.36.09-5.26-.11-7.27-1.17-1.85-.97-3.46-3.4-2.94-5.97.39-1.93,1.3-4.06,2.19-5.83-1.49,2.33-2.34,4.37-2.71,5.7-.04.16-.09.33-.12.49-.48,2.3.05,5.1,2.73,6.78,3.21,2.02,12.6,1.51,16.55,2.44,1.04.24,2.26.58,3.58,1.03.66.22,1.34.48,2.03.76s1.39.59,2.09.93c-1.52-1.2-3.22-3.48-5.43-4.48.18-4.18-.88-7.47-2-9.91Z"/>
      <path class="cls-1" d="M52.21,69.06c1.09,3.91,4.24,9.71,5.12,13.04.85,3.2,1.06,5.21,1.06,6.75h0c-.32-.17-.64-.34-.95-.49-.05-1.74-.43-3.37-1.23-6.22-.91-3.23-3.48-8.64-4-13.07Z"/>
      <path class="cls-1" d="M72.21,77.88c.82-2.35,1.58-4.85,2.68-8.43-1.04,2.47-2.81,6.11-3.62,8.46-.97,2.79-2.9,7.27-2.59,11.02.04.54.29.84.76,1.17.23.16.45.28.64.45.14-.09.28-.18.41-.28-.15-.14-.3-.3-.41-.43-.32-.41-.22-1.69-.21-2.23.1-3.29,1.36-6.94,2.33-9.73Z"/>
      <path class="cls-6" d="M70.51,92.11c.15.34.23.77.26,1.22.18-.18.29-.39.28-.61,0-.02,0-.03,0-.05-.08-.3-.19-.61-.34-.77-.23-.26-.35-.14-.19.21Z"/>
      <path class="cls-6" d="M69.82,92.39c-.19-.28-.38-.18-.28.27.06.27.13.79.15,1.28.19-.07.37-.14.53-.23-.12-.54-.29-1.16-.4-1.32Z"/>
      <path class="cls-6" d="M68.35,94.24c.16-.02.32-.04.47-.07-.06-.56-.18-1.2-.27-1.38-.15-.29-.36-.22-.31.24.03.27.05.75.03,1.22.02,0,.05,0,.08,0Z"/>
      <path class="cls-1" d="M64.56,93.06c-.17-.47-.17-1.55-.18-2.49-.02-.99.02-5.46-.03-6.98-.04-1.52-.32-3.98-.53-5.74.09,1.4.03,4.12.03,5.3s-.09,5.97-.09,6.88c0,.8.04,2.06.04,2.84h0c.14.15.28.3.41.45.21.23.41.46.59.71h0c.28.09.68.16,1.13.2-.69-.21-1.16-.56-1.38-1.18Z"/>
      <path class="cls-1" d="M72.79,56.39c-.03,1.7-.51,5.87-1.12,6.96-.18-1.15-.33-1.87-.46-2.54.14,1.94-.41,4.11-.64,5.3-.24-.73-.39-1.43-.58-1.79-.24,2.67-.8,4.58-1.47,5.73.8-.66,1.62-1.64,1.82-2.68.2.61.32.83.26,1.32.61-1.09.77-2.8.67-3.98.23.91.46,1.3.82,1.73-.09-1.61.23-2.47.46-3.39.25-1.02.34-1.66.3-2.61.21.67.23,1.15.32,1.9.39-2.11-.15-4.61-.38-5.96Z"/>
      <path class="cls-1" d="M57.29,58.48c-.05,2.21.27,4.38.57,5.52.05-.62.1-.9.19-1.31.2,1.2.6,3.11,1.24,4.32-.03-.57-.05-1.16.02-1.5.37,1.07.81,1.93,1.53,2.86-.67-1.62-1.45-4.33-1.59-5.46-.17.6-.21,1.01-.19,1.68-.36-1.05-1.39-3.72-1.76-6.11Z"/>
      <path class="cls-1" d="M67.15,67.03c-.21,1.5-.62,2.71-1.12,3.62-.12-.67-.39-1.29-.52-1.65-.06,1.21-.67,3.58-1.15,4.24.91-.85,1.03-1.62,1.21-2.05.25.41.27,1,.32,1.48.89-1.52,1.49-3.3,1.26-5.65Z"/>
      <path class="cls-2" d="M69.76,41.52c-.06,0-.11-.02-.15-.07-.07-.08-.06-.21.02-.28,3.33-2.82,10.39-3.44,13.23-1.84.1.05.13.18.08.27-.05.1-.17.13-.27.08-2.47-1.39-9.32-1.13-12.78,1.8-.04.03-.08.05-.13.05Z"/>
      <path class="cls-2" d="M81.58,44.34s-.09-.01-.13-.04c-1.99-1.63-7.13-2.49-9.94-2.05-.11.02-.21-.06-.23-.16-.02-.11.06-.21.17-.23,2.88-.45,8.19.44,10.25,2.13.09.07.1.2.03.28-.04.05-.1.07-.15.07Z"/>
      <path class="cls-2" d="M59.57,41.07s-.08-.01-.11-.04c-2.82-1.98-8.93-2.02-12.34-.08-.1.05-.22.02-.27-.07-.05-.1-.02-.22.07-.27,3.52-2,9.84-1.96,12.76.1.09.06.11.19.05.28-.04.05-.1.08-.16.08Z"/>
      <path class="cls-2" d="M49.57,45.01c-.06,0-.13-.03-.16-.09-.06-.09-.04-.21.05-.28,2.26-1.52,6.08-3.12,9.42-2.61.11.02.18.12.17.23-.02.11-.11.18-.23.17-2.65-.41-6.24.59-9.14,2.54-.03.02-.07.03-.11.03Z"/>
    </g>
  </g>
</svg>