<?xml version="1.0" encoding="UTF-8"?>
<svg id="Layer_2" data-name="Layer 2" xmlns="http://www.w3.org/2000/svg" width="118.13" height="155.13" viewBox="0 0 118.13 155.13">
  <defs>
    <style>
      .cls-1 {
        fill: #c9caca;
      }

      .cls-2 {
        fill: #3e332c;
      }

      .cls-3 {
        fill: #b35821;
      }

      .cls-4 {
        fill: #eab941;
      }

      .cls-5 {
        fill: #ecd5af;
      }

      .cls-6 {
        fill: #7f4f21;
      }

      .cls-7 {
        fill: #a08257;
      }

      .cls-8 {
        fill: #b28247;
      }
    </style>
  </defs>
  <g id="Layer_1-2" data-name="Layer 1">
    <g>
      <g>
        <path class="cls-4" d="M112.49,113.88c-.48.05-1.03-.36-1.31-.74-.9,2.06-2.89,3.43-5.1,3.46-2,.03-4.68-.74-7.69-5.64-2.14-3.48-4.24-9.93-6.21-13.93.96,2.2,1.68,4.67,2.3,7.47.54,2.47.94,4.89,1.21,7.21.95,1.53,1.98,2.86,3.29,4.29,2.45,2.68,5.21,2.91,7.21,2.82,2.48-.12,5.14-2.02,6.31-4.94h0Z"/>
        <g>
          <path class="cls-4" d="M50.46,36.23c-3.51,13.14-14.2,26.88-25.3,24.99-11.1-1.89-16.15-18.96-14.88-31.83,1.29-12.98,13.5-21.58,24.59-19.69,11.09,1.89,18.94,13.99,15.59,26.53Z"/>
          <path class="cls-4" d="M96.33,138.23c-.83-3.39-.35-10.18-.15-13.99.25-4.92-.04-12.12-1.71-19.74-.62-2.81-1.34-5.28-2.3-7.47-1.86-4.24-4.61-7.47-9.24-10.18-6.66-3.9-13.91-5.98-20.01-7.67-5.42-1.51-9.53-5.37-11.59-9.78-2.05-4.4-5.33-13.31-6.92-19.84-4.31,6.47-10.13,11.35-16.26,11.81,1.6,12.39,4.99,27.09,9.49,41.44,4.96,15.8,10.78,25.93,12.19,32.9,1.25,6.22,1.1,8.23-.15,11.89-3.36,2.01-4.46,4.26-4.21,6.12,3.66,1.86,8.9,1.8,11.94.45.1-.98-.04-1.93-.15-2.8-.11-.87-.2-1.66,0-2.31.43-1.41,1.73-4.31,1.57-6.07-.21-2.31-.89-5.59-1.02-7.02-.32-3.61-.58-10.79-.75-14.64-.1-2.21,1.68-3.39,4.21-2.46,3.8,1.4,5.75,1.57,8.76,1.67,2.81.1,4.23-.61,6.83-1.12,2.07-.4,3.47,1.65,3.94,2.76,1.4,3.34,4.91,6.97,6.24,9.43.92,1.7,1.91,4.46,1.98,6.95.07,2.19-.8,5.97-.9,7.67-1.53.93-4.01,2.33-3.94,5.24,2.91,1.51,8.58,1.4,10.93.15.37-.9.38-1.83.24-2.74-.07-.46-.18-.92-.29-1.37-.21-.79-.07-2,.5-3.69.81-2.4,1.17-3.84.75-5.57Z"/>
          <path class="cls-4" d="M37.95,122.43c-.35,2.83-.29,5.98.11,9.59.51,4.63.74,9.59.38,12.91-1.77.78-5.15,3.15-4.85,6.21,2.86,1.3,8.01,1.15,11.07,0,.13-1.03.07-2.08-.04-3.01-.08-.69-.19-1.31-.28-1.8-.13-.78.48-1.54.9-2.01.86-.98.97-2.02.83-3.39-.45-4.4-.28-7.21,0-9.7.18-1.63.49-3.09.8-4.34-2.31-5.67-5.5-12.77-8.49-21.82.14,6.54.2,12.17-.43,17.36Z"/>
          <path class="cls-4" d="M76.87,119.39c-2.61.5-4.03,1.21-6.83,1.12,1.97.1,2.81,2.02,2.66,3.4-.2,1.86-.92,5.27-1.23,7.4-.14.94-.07,2.14-.11,4.06-.07,3.39-.38,6.09-.96,8.35-2.8.75-4.52,2.91-4.25,5.02,3.16,1.3,8.61,1.08,10.26-.08.35-.6.31-1.53.25-2.38-.05-.73-.13-1.41.01-1.76.52-1.31,1.52-3.57,1.11-5.92-.8-4.58,1.62-8.47,2.38-10.52.7-1.88.96-3.13,1.27-4.66-.23-.42-.44-.85-.62-1.26-.46-1.11-1.87-3.16-3.94-2.76Z"/>
          <g>
            <g>
              <path class="cls-5" d="M43.13,51.37c-2.71-4.87-9.3-7.53-14.71-7.59-5.91-.06-12.45,2.54-14.56,7.39,2.52,5.25,6.29,9.19,11.3,10.04,6.61,1.12,13.08-3.3,17.97-9.85Z"/>
              <path class="cls-2" d="M25.32,58.2c-.62,0-1.14-.17-1.58-.32-.2-.07-.39-.13-.56-.16-1.29-.22-2.43-.75-3.29-1.52-.19-.17-.2-.45-.04-.64.17-.19.46-.2.64-.04.73.66,1.72,1.11,2.84,1.3.21.04.44.11.69.19.46.15.98.33,1.56.26.55-.06.81-.22,1.14-.42.28-.17.59-.36,1.08-.5,1.55-.43,2.42-.96,3.45-2.13.17-.19.45-.21.64-.04s.2.45.04.64c-1.14,1.28-2.19,1.93-3.89,2.4-.37.1-.6.24-.85.4-.36.22-.76.46-1.51.55-.12.02-.25.02-.36.02Z"/>
              <path class="cls-2" d="M26.33,48.8c.03-1.22.79-2.04,1.46-2.13.62-.09,1.14.41,1.13,1.29-.46-.5-1.89-.04-2.59.84Z"/>
              <path class="cls-2" d="M22.59,49.61c-.29-1.04-.97-1.59-1.58-1.5-.62.09-.81.67-.65,1.45.3-.61,1.59-.75,2.23.05Z"/>
              <path class="cls-4" d="M45.68,24.53c2.84-1.38,5.43.13,9.43-1.68,4-1.81,5.65-5.13,5.46-10.05-4.3-1.87-8.22-1.01-11.06,1.18-2.52,1.94-3.77,5.67-5.97,7.14-.43,1.23.95,2.79,2.14,3.41Z"/>
              <path class="cls-8" d="M45.63,21.32c1.18-1.1,3.26-4.16,5.1-5.74,1.84-1.58,5.76-2.59,8.98-1.78-.12,3.6-1.18,5.98-4.07,7.74-2.94,1.8-7.6.94-9.08,1.49-.73.27-1.62-1.06-.93-1.71Z"/>
              <path class="cls-4" d="M12.3,21.96c-1.33-.65-5.76-.27-8.34-2.22-2.54-1.91-3.31-4.23-3.1-7.6,3.08-.46,6.65.84,8.22,2.48,1.53,1.6,3.14,4.52,4.16,5.73.27-.45.55-.89.85-1.32-1.17-1.78-2.05-4.24-3.71-5.79-2.46-2.3-6.04-3.46-10.22-2.11-.62,4.58.61,7.83,4.18,9.88,3.07,1.77,5.4,1.15,7.6,1.93.14-.32.28-.64.44-.96-.02,0-.04-.01-.06-.02Z"/>
              <path class="cls-6" d="M46.86,2.42c.49,1.76-.54,3.59-2.3,4.08s-3.59-.54-4.08-2.3.54-3.59,2.3-4.08,3.59.54,4.08,2.3Z"/>
              <path class="cls-6" d="M20.71,1.72c1.37,1.21,1.5,3.3.29,4.67s-3.3,1.5-4.67.29c-1.37-1.21-1.5-3.3-.29-4.67s3.3-1.5,4.67-.29Z"/>
            </g>
            <path class="cls-2" d="M40.05,38.03c-.22,0-.41-.16-.45-.38-.2-1.21-1.22-2.13-2.53-2.31-1.41-.19-2.79.56-3.27,1.8-.09.23-.35.35-.59.26-.23-.09-.35-.35-.26-.59.63-1.62,2.41-2.61,4.23-2.37,1.71.23,3.04,1.46,3.3,3.07.04.25-.13.48-.37.52-.03,0-.05,0-.07,0Z"/>
            <path class="cls-2" d="M11.39,42.34c-.24,0-.44-.19-.45-.43-.08-1.63.87-3.13,2.31-3.65,1.5-.54,3.18.11,4,1.57.12.22.05.49-.17.62-.22.12-.5.04-.62-.17-.61-1.08-1.8-1.56-2.9-1.16-1.07.39-1.77,1.52-1.71,2.76.01.25-.18.46-.43.48,0,0-.01,0-.02,0Z"/>
          </g>
          <path class="cls-6" d="M111.18,113.13c-.51-1.67-.86-4.52.6-6.54s4.48-4.37,6.02-7.23c.63,4.04.3,8.07-.61,10.58-.96,2.63-3.23,3.58-4.71,3.93-.48.04-1.03-.36-1.31-.75Z"/>
          <path class="cls-1" d="M81.43,123.36c-1.13-1.53-2.5-4.36-4.56-3.96-2.61.5-4.03,1.21-6.83,1.12-3.01-.1-4.96-.26-8.76-1.67-1.58-.58-2.87-.34-3.59.46,1.03-1.62,3.04-2.52,5.28-1.73,2.28.8,4.66,1.51,6.92,1.43,2.26-.08,4.69-.43,5.71-1.04,1-.6,1.35-1.51,1.25-2.61-.19-2.05-.43-3.46-.23-5.84,0,2.61,2.71,10.23,4.81,13.84Z"/>
          <path class="cls-1" d="M46.2,130.32c.18-1.26.42-2.42.68-3.42-2.31-5.67-5.5-12.77-8.49-21.82,2.28,7.54,3.67,12.55,5.62,17.47.97,2.44,1.99,5.31,2.19,7.77Z"/>
          <path class="cls-8" d="M12.36,21.98c.27-.56.56-1.1.88-1.63h0c-1.01-1.2-2.62-4.12-4.16-5.72-1.57-1.65-5.14-2.94-8.22-2.48-.22,3.37.56,5.69,3.1,7.6,2.58,1.95,7.01,1.57,8.34,2.22l.06.02Z"/>
          <path class="cls-7" d="M38.44,144.93c-1.77.78-5.15,3.15-4.85,6.21,2.86,1.3,8.01,1.15,11.07,0,.13-1.03.07-2.08-.04-3.01-2.09.25-5.37-1.45-6.18-3.2Z"/>
          <path class="cls-7" d="M49.69,147.58c-3.36,2.01-4.46,4.26-4.21,6.12,3.66,1.86,8.9,1.8,11.94.45.1-.98-.04-1.93-.15-2.8-1.86.33-6.52-1.51-7.57-3.77Z"/>
          <path class="cls-7" d="M70.39,143.72c-2.8.75-4.52,2.91-4.25,5.02,3.16,1.3,8.61,1.08,10.26-.08.35-.6.31-1.53.25-2.38-2.05.3-5.2-1.25-6.27-2.56Z"/>
          <path class="cls-7" d="M88.13,146.2c-1.53.93-4.01,2.33-3.94,5.24,2.91,1.51,8.58,1.4,10.93.15.37-.9.38-1.83.24-2.74-2.45.54-6.21-1.02-7.24-2.65Z"/>
          <path class="cls-3" d="M45.97,55.06c-.6-1.91-1.13-3.79-1.55-5.51-1.03,1.55-2.15,3-3.33,4.33.21.79.71,1.47,1.59,1.87,1.91.87,2.62.68,3.3-.69Z"/>
          <path class="cls-3" d="M92.61,100.98c.43.2.78.32,1.09.39-.44-1.56-.94-3-1.52-4.34-.09-.21-.19-.42-.29-.62-.98,1.55-1.08,3.76.72,4.58Z"/>
          <path class="cls-3" d="M85.29,98.06c-1.07,1.6-1.2,3.95.69,4.81,1.89.86,2.4.52,3.09-1.2s.86-3.61-.51-4.29c-1.37-.69-2.58-.34-3.26.69Z"/>
          <path class="cls-3" d="M43.62,61.07c-2.18-.54-3.41-.4-4.41,1.61-1,2.01,0,4.41,2.61,4.41s4.01.2,4.21-2.01c.2-2.21-.8-3.61-2.41-4.01Z"/>
          <path class="cls-3" d="M69.75,94.43c-2.44-1.09-3.97-1.27-5.83.4s-1.43,4.26,1.71,4.94,4.76,1.24,5.72-.84c.96-2.08.21-3.7-1.6-4.5Z"/>
          <path class="cls-3" d="M94.6,105.08c-.42-.38-.96-.67-1.69-.89-2.14-.64-3.91.89-2.97,3.59.94,2.7,1.26,4.2,3.29,3.96,1.11-.13,1.87-.58,2.3-1.26-.24-1.76-.55-3.57-.94-5.41Z"/>
          <path class="cls-3" d="M46.73,68.16c-1.52.38-.95,4.48-.65,5.78s1.94,1.45,3.5,1.05c2.48-.64,2.28-2.26,1.84-3.91-.79-2.96-3.49-3.22-4.69-2.92Z"/>
          <path class="cls-3" d="M90.47,93.97s.03-.04.05-.06c-1.07-1.67-2.36-3.17-3.97-4.53-.25.19-.48.39-.65.55-.95.94-.46,2.77.39,4.14,1.3,2.11,3.01,1.14,4.18-.1Z"/>
          <path class="cls-3" d="M50.21,66.8c-.57-1.38-1.19-2.95-1.81-4.63-1.18.97-1.39,3.26-.74,4.17.58.82,1.6.79,2.55.46Z"/>
          <path class="cls-3" d="M45.05,81.02c-.5,1.3.92,2.76,2.45,3.9,1.18.89,2.1,1.46,3.27.77,1.18-.69,2-2.24,1.55-3.46-.62-1.67-1.78-3.53-2.79-4.33-1.01-.79-3.72,1.11-4.48,3.11Z"/>
          <path class="cls-3" d="M55.55,86.06c-2.4,2.32-3.19,4-1.45,6.84,1.75,2.85,5.58,3.48,7.63.18s3.41-4.92.78-6.91c-2.63-1.99-5.2-1.83-6.97-.12Z"/>
          <path class="cls-3" d="M66.73,86.04c-.72,2.23,1.99,3.88,3.87,4.52,1.88.65,4.26-.34,5.4-2.45s-.69-3.42-2.92-4.64-5.78.8-6.35,2.56Z"/>
          <path class="cls-3" d="M61.28,78.62c-2.68-1.03-4.98-2.64-6.8-4.59-.21.08-.41.17-.62.27-2.12,1.12-1.32,3.23-.14,5.48,1.19,2.25,5.25,2.54,6.7,1.39.82-.65,1-1.58.85-2.55Z"/>
          <path class="cls-3" d="M77.42,90.06c-1.99.62-2.01,3.5-2.15,5.7-.14,2.2.65,3.75,2.62,4.27s4.97-.07,5.29-1.99c.31-1.92.79-4.09.56-5.99-.22-1.9-3.69-2.83-6.32-2Z"/>
          <path class="cls-3" d="M46.68,60.97c.33.18.82.2,1.32.12-.56-1.55-1.11-3.16-1.63-4.77-.98.87-2.02,1.65-1.99,2.43.04.86,1.22,1.64,2.29,2.22Z"/>
          <path class="cls-3" d="M63.27,79.27c-.47,1.23-.97,2.45-.29,3.42.8,1.15,2.16,1.96,3.41,1.15.99-.63,2.19-1.85,3.05-2.76-2.13-.68-4.21-1.27-6.16-1.81Z"/>
          <path class="cls-3" d="M84.4,87.76c-.47-.31-.95-.62-1.46-.92-1.57-.92-3.16-1.73-4.77-2.46.07,1.18.24,2.46,1.16,3.14.98.72,3.49.59,5.07.24Z"/>
          <path class="cls-3" d="M36.19,58.27c.54.49,1.37,1.2,2.06,1.56,1.13.6,2.33.15,3.84-.45,1.5-.6,1.13-1.35.3-2.11-.69-.63-1.8-1.41-2.72-1.92-1.11,1.1-2.28,2.08-3.48,2.91Z"/>
          <path class="cls-3" d="M44.62,69.62c-.32-.68-1.54-.6-2.63-.08-.77.37-.83,1.35-.15,2.48.68,1.13,2.22,3.01,2.82,2.33.6-.68.41-3.76-.04-4.74Z"/>
          <path class="cls-3" d="M32.86,12.69c-1.32.54-3.99,1.93-2.75,4.15.97,1.73,1.8,3.09,3.4,2.41,1.6-.68,2.28-1.52,2.28-3.38,0-2.41-.55-4.16-2.93-3.18Z"/>
          <path class="cls-3" d="M28.18,14.77c-.35,1-1.19,2.45-2.22,2.71-1.52.38-3.51-.21-3.11-1.24s1-1.91,1.98-2.4c1.15-.58,2.06-.47,2.78-.53.71-.06.8.8.57,1.46Z"/>
          <path class="cls-6" d="M25.61,12.13c-1.15-.54-.82-1.35-.15-2.4.68-1.05,3.31-2.9,4.66-3.2-.45.75-.54,1.58-.38,2.26.94-1.51,2.84-2.37,3.97-2.6-.39.6-.19,1.49.32,2.16.6-1.24,1.41-1.81,2.31-1.82-.15,1.52,1.55,2.98,1.55,3.95-1.75.12-3.86,1.62-7.87,2.08-1.28.14-3.29.09-4.42-.43Z"/>
          <path class="cls-3" d="M28.62,17.38c-.78.13-1.96.85-2.68,1.6-.61.63-.45,1.13.45,1.81.9.68,1.81,1.05,2.86.38,1.05-.68,1.58-1.28,1.2-2.11-.38-.83-.93-1.83-1.83-1.68Z"/>
          <path class="cls-3" d="M21.68,18.28c-.5.57-.45,1.51,0,2.18s1.28.68,2.18.38.83-.68.23-1.51c-.6-.83-1.88-1.66-2.41-1.05Z"/>
          <path class="cls-6" d="M63.6,77.61c-1.03-.53-1.67,0-2.81-.6-1.22-.64-1.17-1.96-2.06-2.61-.9-.66-1.7-.28-2.51-1.13-.68-.71-.45-2.03-1-2.93-.58-.96-1.39-.72-2.16-1.73-.68-.89-.33-2.26-.68-3.44-.31-1.07-1.7-2.16-2-2.68-.3-.53.1-1.74-.26-2.83-.46-1.41-1.47-1.62-1.81-2.41-.38-.88.2-1.83.23-2.75.03-.95-.43-1.39-1.71-2.67.28-.73.33-1.52.07-2.01-.4-.76-1-1.02-2.12-.88-.13.2-.26.4-.39.6,1.6,6.53,4.87,15.44,6.92,19.84,2.06,4.41,6.17,8.27,11.59,9.78.94.26,1.92.54,2.91.82-1.06-.6-1.38-1.94-2.23-2.38Z"/>
        </g>
      </g>
      <path class="cls-4" d="M40.86,5.05c-.27,2.09-1.25,4.26-2.2,5.73-.6.97-.07,2.37,1.3,3.14,1.07.6,3.5.8,3.49-.29,0-2.13,1.01-6.01,1.83-7.44l.08-.04c-.25.15-.52.26-.81.34-1.45.4-2.95-.23-3.7-1.45h0Z"/>
      <path class="cls-4" d="M17.63,7.38c.89,1.09,2,4.2,2.16,5.93.08.69,1.89.17,2.94-.43,1.09-.62,2.01-1.46,1.59-2-1.14-1.47-2.31-3.86-2.75-5.43h0c-.14.34-.33.65-.58.94-.87.98-2.19,1.32-3.37,1h0Z"/>
    </g>
  </g>
</svg>