<?xml version="1.0" encoding="UTF-8"?>
<svg id="Layer_2" data-name="Layer 2" xmlns="http://www.w3.org/2000/svg" width="86.99" height="100.21" viewBox="0 0 86.99 100.21">
  <defs>
    <style>
      .cls-1 {
        fill: #c9caca;
      }

      .cls-2 {
        fill: #3e332c;
      }

      .cls-3 {
        fill: #b09076;
      }

      .cls-4 {
        fill: #675346;
      }

      .cls-5 {
        fill: #856e5b;
      }
    </style>
  </defs>
  <g id="Layer_1-2" data-name="Layer 1">
    <g>
      <path class="cls-4" d="M60.64,25.62c2.6,1.07,6.39,3.05,8.28,4.66-.89,0-1.43-.1-2.17.19,2.03.47,2.69.96,4.02,2.01,1.14.9,1.47,1.92,2.94,2.52-1.15.28-1.71.04-2.87-.33,2.62,1.26,3.98,2.88,4.37,3.45.78,1.16,1.54,2.36,2.31,3.61,4.7,2.06,7.98,7.92,9.04,13.74.95,5.29.29,9.62-1.76,15.35.57,2.01-1.37,4.85-1.96,7.13-.33,1.28-.28,3.61.64,4.82,1.14,1.51.78,4.07-1.42,4.99-1.88.79-2.5,2.45-5.04,2.94-2.45,2.74-5.68,2.94-6.51,1.37-1.91,1.62-4.6,1.08-5.24.05-2.84.83-4.67-2.12-.98-4.41.85-.53,1.7-1.01,2.28-1.56.65-.63.84-1.64.08-2.37-1.6-1.55-2.85-3.34-3.61-5.18-1.22,3.67-3.58,8.37-4.07,14.99,1.76,1.76-.69,5.93-3.38,4.99-1.32,2.66-4.7,1.67-5.39-.2-1.76,1.86-5.73,1.57-5.73-1.27-2.55,1.32-5.5,1.21-7,0-2.07-1.68.82-3.77,3.28-4.91.89-.41,1.44-1.28,1.47-2.36.03-1.36-.38-3.03-.63-4.48-.04-.23-.08-.46-.12-.69-.11-.67-.35-1.69-.37-2.34-.02-.67.14-1.19.56-2.19-.34.45-.58.63-1.15.97.6-1.31.13-3.13.7-4.56-.39.44-.57.8-.76,1.13-.08-.57-.17-1.16-.26-1.79-3.56-.81-6.24-1.36-9.18-2.5-1.02,5.22-1.46,10.8-1.75,13.59-.1.97.02,1.96.32,2.9.43,1.34,1.22,2.59,2.23,3.57,2.2,2.14,2.99,3.87,1.37,4.85-1.24.76-5.19.98-6.61-1.62-.88,2.84-3.77,3.48-5.73,1.37-1.76,1.76-5.24,1.03-5.58-1.03-1.57.98-3.13.83-4.11-.24-1.08-1.17-.2-3.08,1.66-5.58,1.12-1.51-.34-4.95-1.52-7.89-.24-.61-.96-1.99-1.73-3.97-.41-1.06-.59-2.76-.69-3.9-.07.63-.18,1.29-.8,1.77.16-1.61-.18-3.11-.23-4.7-.1.63-.33,1.22-.37,1.92-1.34-3.22-2.6-6.44-3.93-10.35-.23-.67-.98-2.86-.56-5.67-.39.45-.6,1.02-.84,2.12-.39-1.44-.64-4.42-.5-7.11-.32.63-.54,1.07-.63,2.05C.38,52.69-.02,50.39,0,47.94c.07-8.3,3.46-14.2,6.66-16.85,7.35-6.07,15.84-8.25,26.79-8.77,10.41-.49,19.12-.02,27.19,3.29Z"/>
      <path class="cls-4" d="M43.71,4.54c-.86-.62-1.4-1.16-1.38-1.71-.85-.11-1.89.02-2.77.38.17-.64.59-1.47,1.1-2.03-1.91-.17-4.33.12-6.27,1.37.42-.86,1-1.88,1.74-2.55-2.79.2-5.95,1.74-7.84,4.16.29-1.12.76-2.24,1.53-3.31-3.93,2.04-8.58,6.56-12.84,11.78-2.92,3.58-4.78,7.19-6.01,10.84.76,4.18-2.36,11.05-2.45,13.44-.29,7.98,5.31,15.53,11.99,18.03,7.05,2.65,20.26,2.28,26.36,0,7.26-2.72,12.57-11.19,11.99-18.07-.3-3.51-4.32-11.48-2.54-13.46-.78-3.05-1.71-5.84-2.75-7.7-2.14-3.78-6.61-8.83-9.86-11.18Z"/>
      <path class="cls-3" d="M51.99,50.28c2.46-4.22.77-10.36-4.15-13.41-4.57-2.83-3.97-3.53-2.2-7.49s.13-8.61-3.53-9.7c-3.65-1.09-6.61,1.76-9.26,1.76s-5.6-2.85-9.26-1.76-5.29,5.73-3.53,9.7,2.2,4.41-2.2,7.49c-4.41,3.09-5.91,8.96-3.16,13.26,1.07,1.67,2.71,3.44,5.8,4.81,7.05,2.65,20.26,2.28,26.36,0,2.4-.99,3.75-2.32,5.12-4.66Z"/>
      <path class="cls-2" d="M27.03,32.99c0,1.08-.61,1.96-1.37,1.96s-1.37-.88-1.37-1.96.61-1.96,1.37-1.96,1.37.88,1.37,1.96Z"/>
      <path class="cls-2" d="M42.23,32.99c0,1.08-.61,1.96-1.37,1.96s-1.37-.88-1.37-1.96.61-1.96,1.37-1.96,1.37.88,1.37,1.96Z"/>
      <path class="cls-2" d="M26.25,41.96c-.34-1.65,1.54-2.87,3.13-2.45,1.47.38,2.36,1.77,2.47,3.02-1.45-1.05-2.5-1.38-3.33-1.41-.89-.03-1.7.07-2.28.83Z"/>
      <path class="cls-2" d="M40.26,41.96c.34-1.65-1.54-2.87-3.13-2.45-1.47.38-2.36,1.77-2.47,3.02,1.45-1.05,2.5-1.38,3.33-1.41.89-.03,1.7.07,2.28.83Z"/>
      <path class="cls-2" d="M28.5,49.31c-.45,0-.91-.04-1.37-.13-3-.61-5.37-2.73-5.75-5.15-.06-.35.19-.69.54-.74.35-.05.69.19.74.54.24,1.55,1.83,3.48,4.72,4.07,1.21.25,2.52,0,3.77-.23.9-.17,1.74-.33,2.58-.33s1.68.16,2.58.33c1.26.24,2.56.48,3.77.23,2.9-.59,4.48-2.53,4.72-4.07.06-.35.39-.6.74-.54.35.06.6.39.54.74-.38,2.42-2.75,4.53-5.75,5.15-1.46.3-2.89.03-4.27-.23-.84-.16-1.62-.3-2.34-.3s-1.51.15-2.34.3c-.95.18-1.92.36-2.9.36Z"/>
      <path class="cls-2" d="M41.66,39.91c-.15,0-.29-.1-.33-.26-.24-.92-.88-2.11-2.63-2.52-1.66-.39-2.74.38-3.58,1.18-.64.61-1.11.91-1.94.91s-1.3-.31-1.93-.91c-.84-.8-1.92-1.57-3.58-1.18-1.75.41-2.4,1.6-2.63,2.52-.05.18-.23.3-.42.25-.18-.05-.3-.24-.25-.42.4-1.57,1.51-2.64,3.14-3.02,1.99-.47,3.3.48,4.22,1.35.54.51.86.73,1.46.73s.92-.21,1.46-.73c.92-.88,2.23-1.83,4.22-1.35,1.63.38,2.74,1.46,3.14,3.02.05.18-.06.37-.25.42-.03,0-.06.01-.09.01Z"/>
      <path class="cls-5" d="M58.96,93.59c-1.45-.81-2.67-1.69-2.89-2.42-.51.44-1.62,1.84-1.76,3.23-.88-.81-1.69-1.47-2.42-2.72-.05,1.29-.49,2.02-1.25,2.79-.22-1.54-1.73-2.9-2.94-3.45-.51,1.32-1.52,2.08-2.26,2.55.22-.88-.23-2.62-.53-3.21-.29-.59-1.55-1.46-2.7-.52-.03,1.08-.58,1.95-1.47,2.36-2.46,1.14-5.35,3.23-3.28,4.91,1.5,1.21,4.46,1.32,7,0,0,2.84,3.97,3.13,5.73,1.27.69,1.86,4.07,2.86,5.39.2,2.69.93,5.14-3.23,3.38-4.99Z"/>
      <path class="cls-5" d="M77.01,90.7c2.55-.49,3.17-2.14,5.04-2.94,2.2-.93,2.56-3.49,1.42-4.99-1.49.2-1.93,1.27-1.79,2.15-.88-.05-1.91-.24-2.94-.88-.49.49-.78,1.08-.59,1.86-.73-.05-2.15-.1-2.94-.83-.24.44-.39,1.08-.29,1.67-.98-.24-2.11-.83-2.45-1.62-.44.54-1.67,1.27-2.74,1.52.1-.44.15-.98.15-2.01-.44.44-2.35,1.37-3.33,1.52-.58.56-1.43,1.04-2.28,1.56-3.69,2.29-1.86,5.24.98,4.41.64,1.03,3.33,1.57,5.24-.05.83,1.57,4.07,1.37,6.51-1.37Z"/>
      <path class="cls-3" d="M58.86,36.88c-.3-3.51-4.32-11.48-2.54-13.46,2.41-3.15,4.92-1.11,4.32,2.21-.37,2-.64,5.46-.09,7.98.53,2.43-.32,3.32-1.69,3.27Z"/>
      <path class="cls-3" d="M8.53,36.91c.09-2.39,3.21-9.26,2.45-13.44l-.05-.06c-2.41-3.15-4.92-1.11-4.32,2.21.37,2,.64,5.46.09,7.98-.53,2.43.46,3.36,1.83,3.31Z"/>
      <path class="cls-5" d="M40.17,75.88c-3.56-.81-6.24-1.36-9.18-2.5-6.3-2.28-11.64-6.68-13.85-11.53-.94-2.07-1.67-4.94-1.33-7.57.13-.66.93-1.33,1.84-.76.92.57,1.88,1.05,2.86,1.42,4.45,1.67,11.36,2.14,17.38,1.69h0c.74,1.11.86,3.67.86,5.19,0,5.44.87,10.27,1.41,14.06Z"/>
      <path class="cls-5" d="M41.58,85.36c-.04-.23-.08-.46-.13-.69-.57.49-1.33.92-2.1,1.4-3.69,2.29-1.86,5.24.98,4.41.24.38.76.7,1.43.86.28-.42.44-.92.46-1.5.03-1.36-.38-3.03-.63-4.48Z"/>
      <path class="cls-5" d="M25.98,93.86c-.59-.51-1.74-1.62-2.11-2.64-.51.22-1.49,1.84-1.57,2.86-1.1-.66-2.08-1.52-2.67-2.55-.44.51-1.32,1.47-1.62,2.64-.59-.59-1.91-2.2-2.06-3.97-.44.37-2.13.95-3.18.98-1.86,2.5-2.74,4.41-1.66,5.58.99,1.08,2.55,1.22,4.11.24.34,2.06,3.82,2.79,5.58,1.03,1.96,2.11,4.85,1.47,5.73-1.37,1.42,2.6,5.37,2.37,6.61,1.62,1.62-.98.83-2.71-1.37-4.85-1.01-.98-1.8-2.23-2.23-3.57-1.93-.44-3.68,2.15-3.58,3.98Z"/>
      <path class="cls-1" d="M69.54,66.26c.92-3.86,2.35-9.75,2.55-20.13-.73,10.24-6.9,26.25-9.06,32.47.76,1.84,2.01,3.62,3.61,5.18-.87-1.26-1.07-3.32-.62-5.62.61-3.2,2.4-7.2,3.52-11.9Z"/>
      <path class="cls-1" d="M58.37,41.82c-1.49,5.55-5.91,11.04-11.49,13.13-6.1,2.28-19.31,2.65-26.36,0-4.02-1.51-7.65-4.85-9.84-9.01,2.15,5.34,8.71,12.78,11.65,14.84,2.94,2.06,6.82,5.09,12.02,4.46.98.43,2.93.58,4.51-.11.57-4.23,4.48-7.12,6.82-7.87,4.52-1.43,12.6-5.7,12.7-15.44Z"/>
    </g>
  </g>
</svg>