<?xml version="1.0" encoding="UTF-8"?>
<svg id="Layer_2" data-name="Layer 2" xmlns="http://www.w3.org/2000/svg" width="142.68" height="121.53" viewBox="0 0 142.68 121.53">
  <defs>
    <style>
      .cls-1 {
        fill: #c9caca;
      }

      .cls-2 {
        fill: #3e332c;
      }

      .cls-3 {
        fill: #f4b2bd;
      }

      .cls-4 {
        fill: #e99caa;
      }

      .cls-5 {
        fill: #6b656f;
      }

      .cls-6 {
        fill: #eeeae5;
      }

      .cls-7 {
        fill: #a191b1;
      }

      .cls-8 {
        fill: #b3b3b3;
      }

      .cls-9 {
        fill: #9fa0a0;
      }
    </style>
  </defs>
  <g id="Layer_1-2" data-name="Layer 1">
    <g>
      <path class="cls-7" d="M85.36,99.63c-.45,2.87-1.89,12.98-2.65,15.31-.77,2.33-2.21,5.74-6.57,6.34-3.28.45-8.95.46-11.14-1.53-2.2-2-1.56-5.66,1.2-7.99-.6-5.99-1.84-10.4-2.6-12.5-.49-1.36-1.14-2.84-1.84-4.44-6.43-1.47-14.83-7.19-18.64-11.03-3.13.33-5.93.24-9.24-1.11-2.21.85-4.48,1.23-6.93,1.47-2.73.27-4.78.01-6.84-.33-1.69-.28-3.58-.57-5.58-.72-1.33-.1-2.73-.02-3.62-.06-1.41-.06-2.53-.42-3.68-1.13-2.43-1.5-4.44-5.07-4.72-8.11-.42-4.65.73-6.73,6.1-10.66,5.26-3.85,13.19-8.21,17.83-10.42,4.88-2.32,4.63-4.64.31-6.91-6.79-3.57-10.1-6.43-14.18-10.44-5.43-5.35-8.38-9.61-9.74-12.26-1.42-2.77-1.89-4.14-2.15-7.53-.11-1.47.11-2.66.59-4.16C-2.42,5.35,2.65-1.27,7.34,2.75c1.77-.52,3.72-.88,6.07-.95,1.81-.06,3.79-.06,4.98.15,2.66-3.35,11.92-2.71,14.22,4.52,1.61,1.27,3.75,2.52,6.18,4.61,4.05,3.48,7.98,9.17,10.87,14.01,1.21,2.02,2.02,2.83,4.33,1.78,3.51-1.58,7.49.23,8.87,2.72.85,1.53,1.02,2.01,2.42,2.5,1.73-1.12,6.2-1.06,8.58.58,3.23-.85,8.54-2.17,21.52-2.17s25.86,2.91,34.01,9.87c8.62,7.37,11.89,14.78,12.91,23.44,1.21,10.3-.74,18.57-4.3,23.96-2.39,3.62-4.42,7.32-5.78,11.14-1.47,4.13-2.49,9.57-3.28,13.25-.59,2.74-2.43,4.81-7.42,5.21-4.83.38-8.28.19-9.45-1.81s.53-5.37,3.52-6.66c-.54-3.13-1.26-6.88-3.01-8.1-1.57-1.1-5.72-.62-8.52-.45-3.83.23-14.49-.18-18.72-.71Z"/>
      <path class="cls-4" d="M2.12,21.57c.22.49.41.96.71,1.54,1.36,2.65,4.3,6.91,9.74,12.26,4.08,4.02,7.39,6.88,14.18,10.45,4.32,2.26,4.56,4.59-.31,6.91-4.64,2.21-12.57,6.57-17.83,10.42-3.94,2.88-5.6,4.77-6.05,7.4.13,2.3,1.52,3.87,3.59,4.93,1.51.77,4.72.63,7.95.8,4.59.24,9.12,1.19,13.42-.4,4.3-1.59,7.95-4.02,10.45-6.96,2.49-2.94,5.12-6.34,7.39-8.83,2.26-2.49,5.8-5.72,8.75-7.98,2.94-2.26,2.12-4.36.23-4.53-1.8-.16-4.23-.61-6.43-1.59-2.24-.99-5.21-2.86-7.25-5.66-3.27-4.5-6.23-13.7-9.85-17.78-3.62-4.08-4.87-4.61-9.17-4.64-3.17-.02-8.12.06-10.16-1.9-1.76,2.18-3.58,2.05-5.73,2-2.02-.06-4.76.53-3.61,3.56Z"/>
      <path class="cls-7" d="M104.08,100.35c1.33,2.66,1.66,4.78,1.84,6.78-2.43,1.47-3.2,3.49-2.72,4.87.85,2.43,4.82,2.84,8.52,2.32-.12-1.94,1.46-4.37,3.88-5.41-.54-3.13-1.26-6.88-3.01-8.1-1.57-1.1-5.72-.62-8.52-.45Z"/>
      <path class="cls-7" d="M50.98,89.89c1.67,4,6.45,16.12,7.44,19.45-2.15,2.26-2.55,4.59-2.26,6.06.57,2.95,5.1,3.99,8.15,3.54-1.32-2.07-.53-5.14,1.89-7.18-.6-5.99-1.84-10.4-2.6-12.5-.49-1.36-1.14-2.84-1.84-4.44-3.37-.77-7.28-2.71-10.78-4.93Z"/>
      <g>
        <path class="cls-1" d="M58.87,86.18c.43,2.5,2.07,6.76,2.89,8.63-2.21-2.86-3.41-6.01-3.98-7.26-1.27-.26-1.99-1.86-.76-4.76,1.49-3.52,5.56-9.13,14.99-10.2,9.96-1.14,15.86,3.08,17.62,6.6.85,1.7.21,2.51-.98,3.14.34-2.72-8.83-6.45-15.96-6.11-7.13.34-14.72,5.55-13.81,9.96Z"/>
        <path class="cls-7" d="M66.86,33.73c.9-1.06,2.33-1.99,4.16-2.67,3.34-1.23,5.37-4.45,5.15-7.89-.06-.96-.65-1.72-2.01-1.49-3.4.59-6.04,2.7-7.15,5.78-.81,2.25-1.68,3.58-2.92,4.74.15,1.13,1.48,2.21,2.77,1.52Z"/>
        <path class="cls-2" d="M60.79,33.51c-.35,0-.67-.25-.74-.61-.19-1.04-1.25-1.61-2.21-1.71-.97-.1-2.18.21-2.68,1.41-.16.38-.6.56-.98.4-.38-.16-.56-.6-.4-.98.68-1.61,2.34-2.52,4.23-2.32,1.82.19,3.24,1.37,3.53,2.92.08.41-.19.8-.6.88-.05,0-.1.01-.14.01Z"/>
        <path class="cls-1" d="M69.76,30.55c.62-.21.98-.28,1.78-.66,1.89-.9,3.97-3.49,3.83-5.64-.04-.6-.42-.78-1.36-.57-2.11.45-3.85,1.66-4.84,3.77-.29.62-.46,1.01-.73,1.72-.45,1.19.09,1.8,1.32,1.38Z"/>
        <path class="cls-9" d="M20.29,3.27c1.87-2.04,4.69-1.82,6.03-.55,1.57,1.49,1.33,4.73-.26,5.86.44-2.96-2.14-6.48-5.77-5.31Z"/>
        <path class="cls-9" d="M6.03,4.25c-1.09-1.27-3.24-1.26-4.25.08-.93,1.25-1.27,4.12.85,5.86-.68-2.97.73-5.7,3.4-5.94Z"/>
        <path class="cls-8" d="M11.46,16.01h0c-.68-1.53-.91-5.21-.04-7.39-2.33,2.46-1.78,5.67-.57,8.05.21-.19.41-.41.61-.66Z"/>
      </g>
      <path class="cls-6" d="M2.12,21.57c.28,2.15.84,4.95,2.25,5.01,1.47.06,1.36-1.61,1.4-3.65.03-1.48-.04-3.44-.04-4.93h0c-2.02-.05-4.76.54-3.61,3.57Z"/>
      <path class="cls-6" d="M22.94,17.94c.3,2.08,1.23,5.57,2.42,7.33,1.29,1.91,3.3,1.3,4.08.17.62-.91.89-1.91,1.04-3.24-3-3.33-4.36-4.1-7.53-4.26Z"/>
      <path class="cls-6" d="M2.55,70.54c.13,2.3,1.52,3.87,3.59,4.93.91.46,2.43.6,4.2.67-.99-2.52-2.22-5.78-2.82-7.17-.81-1.87-2.15-4.03-3.85-3.57-1.58.43-1.75,2.31-1.12,5.14Z"/>
      <path class="cls-3" d="M37.96,68.91c2.49-2.94,5.12-6.34,7.39-8.83,2.2-2.42,5.59-5.52,8.48-7.77-5.26-1.46-11.34-1.6-17.48.81-6.19,2.42-11.21,5.6-15.62,9.81-3.16,3-6.9,8.36-5.77,13.4,4.3.3,8.53,1.04,12.57-.45,4.3-1.59,7.95-4.02,10.44-6.96Z"/>
      <path class="cls-6" d="M27.51,75.88c3.16-1.16,5.97-2.79,8.22-4.73-1.02-3.18-2.87-6.27-5.42-5.29-2.52.96-3.27,5.73-2.8,10.02Z"/>
      <path class="cls-1" d="M64.31,118.93c-1.32-2.07-.53-5.14,1.89-7.18-.6-5.99-1.84-10.4-2.6-12.5-.49-1.36-1.14-2.84-1.84-4.44-3.19-.73-6.88-2.51-10.24-4.59,1.53,2.94,5.23,7.11,9.02,9.32,1.9,3.48,4.02,9.17,4.42,11.12-2.18,2.41-2.86,5.81-.65,8.27Z"/>
      <path class="cls-1" d="M112.6,100.8c-1.32-.93-4.47-.74-7.11-.55,1.72,2.48,4.23,3.69,5.92,4.07.76,1.19,1.23,2.36,1.61,3.82-2.22,1.11-3.27,4.01-2.49,6.3.4-.03.79-.08,1.19-.13-.12-1.94,1.46-4.37,3.88-5.41-.54-3.13-1.26-6.88-3.01-8.1Z"/>
      <path class="cls-5" d="M57.41,117.39c-.19-1.04.04-2.44.54-3.34.46-.82-.47-.92-1.01-.28-.42.49-.67,1.01-.8,1.5,0,.04.01.08.02.12.15.81.61,1.47,1.25,2Z"/>
      <path class="cls-5" d="M61.45,115.75c.36-.86-.69-.92-1.24-.28-.66.77-1.07,1.94-1.08,2.9.58.23,1.21.39,1.85.5-.11-.99.15-2.34.47-3.12Z"/>
      <path class="cls-5" d="M65.76,120.28c-.18-1.04.06-2.42.55-3.3.46-.82-.47-.92-1.01-.28-.66.77-.91,1.6-.92,2.33.17.26.38.5.62.72.22.2.48.37.76.53Z"/>
      <path class="cls-5" d="M70.27,117.93c-.78.91-1.21,2.38-1.05,3.4.6.09,1.22.14,1.85.17-.16-1.01.1-2.47.44-3.29.36-.86-.69-.92-1.24-.28Z"/>
      <path class="cls-5" d="M104.61,110.68c.42-.74-.43-.84-.92-.26-.28.33-.47.66-.61,1,.02.2.06.39.12.57.17.49.47.89.86,1.22-.04-.86.18-1.85.55-2.53Z"/>
      <path class="cls-5" d="M107.25,111.88c-.54.63-.88,1.54-.96,2.35.51.12,1.07.2,1.64.24.01-.82.21-1.76.45-2.34.33-.79-.63-.84-1.13-.26Z"/>
      <path class="cls-5" d="M113.71,113.67c.42-.74-.43-.84-.92-.26-.53.62-.77,1.28-.83,1.88.04.09.08.18.13.27.26.44.64.79,1.11,1.07-.15-.94.07-2.17.51-2.96Z"/>
      <path class="cls-5" d="M116.9,114.34c-.71.83-1.1,2.16-.96,3.09.52.06,1.08.09,1.68.1-.12-.91.11-2.2.41-2.93.33-.79-.63-.84-1.13-.26Z"/>
      <path class="cls-1" d="M85.36,99.63c1.02-7.13,1.93-11.87,1.25-13.9,1.25,5.21,1.92,7.33,3.4,9.23,1.58,2.04,4.81,3.26,8.43,3.51,6.45.45,15.71-.24,21.12-1.93,6.34-1.98,11.32-5.15,14.44-12-3.23,14.1-20.19,15.01-26.73,15.6-1.11.05-2.23.15-3.19.21-3.83.23-14.49-.18-18.72-.71Z"/>
      <path class="cls-1" d="M33,11.74c.71-1.37,1.08-2.75.93-4.29-.47-.33-.91-.65-1.31-.97.51,1.87.61,3.68.38,5.26Z"/>
      <path class="cls-1" d="M18.4,1.95c-.22-.04-.47-.07-.74-.09-.73.47-1.06,1.49-1.04,2.43.45-.74.93-1.36,1.78-2.34h0Z"/>
      <path class="cls-1" d="M8.49,4.72c.12-.72,0-1.56-.49-2.15-.22.06-.44.12-.66.18.62.68.92,1.34,1.15,1.97Z"/>
      <path class="cls-1" d="M42.8,74.35c-1.02,3.74-4.67,6.71-8.92,8.32.43.18.85.33,1.26.46,4.64-.24,7.33-4.25,7.66-8.79Z"/>
      <path class="cls-1" d="M54.86,77.32c-4.33,3.99-6.37,5.77-11.73,6.46h0c.21.21.44.43.68.66,4.53.93,9.62-1.74,12.5-4.4,3.34-3.09,6.37-8.15,7.13-16.98-1.05,4.74-4.42,10.44-8.58,14.27Z"/>
      <path class="cls-1" d="M84.92,52.1c1.47-8.66-3.06-17.49-7.22-19.28-.68-.29-1.3-.49-1.86-.63-.74.17-1.39.34-1.96.49,5.72,3.57,10.36,10.93,11.04,19.42Z"/>
    </g>
  </g>
</svg>