<?xml version="1.0" encoding="UTF-8"?>
<svg id="Layer_2" data-name="Layer 2" xmlns="http://www.w3.org/2000/svg" width="103.01" height="127.73" viewBox="0 0 103.01 127.73">
  <defs>
    <style>
      .cls-1 {
        fill: #c9caca;
      }

      .cls-2 {
        fill: #3e332c;
      }

      .cls-3 {
        fill: #e3d1c0;
      }

      .cls-4 {
        fill: #e4c8a7;
      }

      .cls-5 {
        fill: #d67427;
      }

      .cls-6 {
        fill: #604c3f;
      }

      .cls-7 {
        fill: #a83839;
      }
    </style>
  </defs>
  <g id="Layer_1-2" data-name="Layer 1">
    <g>
      <path class="cls-5" d="M12.01,33.42c-2.64,9.98.82,19.58,7.74,21.4s14.66-4.8,17.3-14.79c2.64-9.98-1.98-15.18-8.9-17.01-6.91-1.83-13.5.41-16.14,10.39Z"/>
      <path class="cls-4" d="M11.75,45.38c.46-.77,1.89-1.8,3.29-2.38,1.47-.61,2.33-1.14,3.05-1.9,1.33-1.38,2.94-2.85,5.79-2.11s3.54,2.82,4.02,4.67c.26,1.02.75,1.9,1.73,3.15.95,1.2,1.71,2.84,1.71,3.73v.04c-3.39,3.55-7.63,5.29-11.6,4.24-3.97-1.05-6.8-4.67-7.99-9.45Z"/>
      <path class="cls-5" d="M32.16,83.41c-2.89-3.8-5.34-8.47-6.79-12.03-1.22-3.01-1.78-6.16-2.12-9.43-.22-2.14,0-5.01.58-6.74l.06-.25c3.2-.6,6.33-2.75,8.82-5.97h0c2.02,6.06,7.49,10.05,12.01,12.91,5.47,3.46,11.77,6.97,15.98,15.26,3.11,6.13,3.41,13.31,4.33,19.06,1.06,6.64,4.67,10.97,9.43,14.2,3.92,2.65,9.19,4.4,15.1,4.04,4.77-.29,9.5-3.07,11.52-4.61,1.63-1.24,2.7,0,1.25,1.73-1.44,1.73-5.53,5.73-12.56,6.64-5.49.71-13.72.07-21.37-2.82-5.78-2.18-10.4-5.56-14.44-10.9-1.34,2.56-2.31,5.34-2.02,7.8s.09,5.27-2.26,5.63c-3.8.58-7,1.95-10.25,3.42-3.61,1.64-7.95,4.03-9.84,4.86-.62.28-1.23.31-1.91.28.33-1.07-1.86-1.21-2.81-.27.32-1.18-.88-1.83-2.01-1.16.65-1.11.07-1.88-.7-1.42.19-.53,1.01-1.13,1.95-1.64,1.88-1.01,6.91-3.2,8.78-3.92s5.76-2.59,7.22-3.75,1.73-2.02,1.01-3.61c-.72-1.59-1.16-2.89-2.89-6.06s-4.19-6.5-5.49-10.25c-1.3-3.76-1.87-7.37-.57-10.98Z"/>
      <path class="cls-4" d="M32.16,83.41c-2.89-3.8-5.34-8.47-6.79-12.03-1.22-3.01-1.78-6.16-2.12-9.43-.22-2.14,0-5.01.58-6.74l.06-.25c-1.39.26-2.79.23-4.16-.13-1.26-.33-2.41-.93-3.43-1.74v.2c-.18,2.41-.76,5.29-1.72,9.05-.96,3.75-2.03,13.13-1.16,19.15.96,6.64,5.15,13.26,8.76,16.46,3.62,3.21,11.26,6.26,16.03,6.69-1.73-3.18-4.19-6.5-5.49-10.25-1.3-3.75-1.88-7.36-.58-10.97Z"/>
      <path class="cls-2" d="M30.02,42.22c-.07.74.29,1.38.82,1.43.52.05,1-.51,1.07-1.25.07-.74-.29-1.38-.82-1.43-.52-.05-1,.51-1.07,1.25Z"/>
      <path class="cls-2" d="M17.05,38.79c-.3.68-.94,1.06-1.42.84-.48-.21-.62-.94-.32-1.62.3-.68.94-1.06,1.42-.84.48.21.62.94.32,1.62Z"/>
      <path class="cls-5" d="M34.8,30c4,1.39,8.29,1.83,13.49-3.16,3.62-3.48,5.07-9.48,5.24-14.31.03-.91-.48-1.31-1.14-1.01-3.77,1.71-8.26,4.32-11.38,6.89-3.78,3.11-6.4,6.52-7.41,8.49.11,1.07.57,2.24,1.2,3.12Z"/>
      <path class="cls-4" d="M35.7,28.29c.63-2.27,3.68-5.93,6.06-8.03,2.26-1.99,6.24-4.14,9.14-5.2,1.14-.42,1.26.39,1.24,1.07-.13,3.6-2.51,8.12-5.21,10.72-3.88,3.73-7.34,3.66-10.24,2.87-.48-.11-1.08-.94-.99-1.43Z"/>
      <path class="cls-5" d="M18.86,25.37c-4.14-.92-8.02-2.79-9.82-9.77-1.26-4.87.66-10.73,3.05-14.93.45-.79,1.1-.86,1.5-.27,2.31,3.43,4.76,8.01,6.07,11.83,1.58,4.63,2.02,8.91,1.85,11.11-.83.99-1.95,1.73-2.65,2.02Z"/>
      <path class="cls-4" d="M17.4,24.14c-2.88-.86-5.87-2.61-7.21-7.82-.94-3.63-.59-8.73,1.19-11.86.34-.59.86-1.21,1.61-.26,1.91,2.42,4.17,6.35,5.05,9.23.93,3.03,1.6,7.75.95,10.02-.16.47-.9.91-1.59.7Z"/>
      <path class="cls-5" d="M8.66,83.51c.47-.7.65-1.2.86-1.95s.32-1.61.48-2.46c.15-.79.47-1.52,1.19-2.38.66-.79,1.24-1.35,1.94-1.9.09-3.52.47-7.15.92-9.85-1.64,2.6-3.73,6.83-4.7,8.46-1.1,1.86-2.27,3.16-2.85,4.46-.31.7-.41,1.27-.51,2.12-.23.68-.08,1.56.33,1.22.09,1.12.51,1.68.92,1.12.23,1.17.84,1.7,1.42,1.16Z"/>
      <path class="cls-6" d="M8.66,83.51c-.57.55-1.19.01-1.41-1.16-.41.57-.83,0-.92-1.12-.4.34-.55-.54-.33-1.22-.27.74-.5,1.49-.42,2.03.15.94.46.85.57.38.02.73.11,1.21.23,1.64.16.55.71.56.78-.06.14.65.19.41.56.3.45-.14.88-.05.94-.79Z"/>
      <path class="cls-5" d="M28.99,102c-2.66-1.16-5.15-2.59-6.79-4.05-.81-.72-1.65-1.61-2.47-2.63.3,2.46,1.19,7.73,1.41,8.59s.17,2.05-.91,2.41c-1.08.36-12.18,2.68-14.7,3.04-1.22.17-2.38.42-2.96.94-.25.5-.79,1.19-1.01,1.55.61-.07,1.3.47,1.03,1.18.92-.17,1.89-.2,1.88.57.53.18,1.08.18,1.67.11,1.89-.23,9.48-1.77,13.08-2.05,2.46-.19,4.19-.29,5.8-.39,1.23-.07,2.36-.97,2.42-2.13.07-1.48.15-2.51.33-3.5.22-1.23.73-2.64,1.24-3.65Z"/>
      <path class="cls-6" d="M27.68,126.47c.33-1.07-1.86-1.21-2.81-.27.32-1.18-.88-1.83-2.01-1.16.65-1.11.07-1.88-.7-1.42-.54.37-.9.85-1.11,1.19-.35.57.12.72.51.6.37-.12.59-.23,1.3-.37-.43.43-.66.87-.73,1.12-.22.7.47.97,1.07.71.47-.2,1.01-.34,1.68-.67-.28.31-.47.62-.52.87-.07.35.25.96,1.05.47.63-.39,1.52-.77,2.29-1.07Z"/>
      <path class="cls-6" d="M4.47,113.6c0-.77-.97-.74-1.88-.57.27-.71-.42-1.25-1.03-1.18.22-.36.76-1.06,1.01-1.55-.96.26-2.06.78-2.44,1.3-.24.33-.12.81.18.7.47-.16.74-.29,1.24-.45-.63.39-1.1.72-1.28.96-.28.39.21.87.86.68.6-.18,1.45-.46,1.45-.46-.47.3-.7.49-.96.8-.24.27.17.75.66.54.42-.17,1.57-.68,2.18-.77Z"/>
      <path class="cls-1" d="M32.16,83.41c-.26-.34-.52-.69-.77-1.05,1.33-2.37,4.34-4.92,6.79-6.02,3.39-1.53,9.44-2.03,13.76,3.03-8.95-8.66-18.48.43-19.78,4.04Z"/>
      <path class="cls-1" d="M16.32,53.09c1.02.81,2.16,1.4,3.43,1.74,3.51.93,7.23-.33,10.39-3.09-2.63,3.34-5.85,5.29-9.56,4.86-1.9-.22-3.76-1.34-4.3-2.69h0c.02-.21.04-.42.06-.62v-.2h-.01Z"/>
      <path class="cls-3" d="M13.26,79.86c.63,5.37,4.05,10.76,6.79,13.67,3.38,3.61,6.41,5.32,8.24,5.18,1.86-.15,2.22-2.51,1.68-5.18-.54-2.67-.45-7.85,1.43-11.17.25.36.51.71.77,1.05-1.3,3.61-.72,7.22.58,10.97,1.3,3.75,3.75,7.08,5.49,10.25-4.77-.43-12.41-3.48-16.03-6.69-3.61-3.2-7.8-9.82-8.76-16.46-.08-.52-.14-1.06-.18-1.62Z"/>
      <path class="cls-1" d="M56.49,102.81c-.41,1.83.24,2.91,1.42,4.32,3.18,3.8,9.05,8.58,19.74,10.71-3.03-.49-6.19-1.28-9.25-2.44-5.78-2.18-10.4-5.56-14.44-10.9,1.73-3.75,3.25-6.42,3.47-9.17-.07,3.42-.57,5.84-.94,7.48Z"/>
      <path class="cls-5" d="M35.93,71.08c-.71,2.05-2.37,3.33-3.75,4.42-1.38,1.1-2.14,2.06-2.83,2.92-.64.81-.88,2.21-.64,3.09.39,1.39.4,2.3.28,3.33-.1.95-.8,1.21-1.03.71-.14.83-.33,1.19-.57,1.63-.31.57-1.15.49-1.33-.47-.28.84-1.1.78-1.37.16-.29-.67-.29-1.08-.38-2.27-.25.46-.53.67-.81.28s-.18-1.06-.11-1.8c.02-.23.05-.49.08-.77.07-.62.16-1.37.31-2.33.25-1.62.3-3.71,1.84-6.65s1.53-5.61,1.44-8.58c-.07-2.42,2.72-3.75,5.88-2.27,3.72,1.73,3.7,6.29,2.97,8.61Z"/>
      <path class="cls-6" d="M28.71,81.52c.01.78-.05,2.86-.78,2.56-.26,1.59-1.46,1.88-1.68.99-.36.91-1.48-.35-1.66-1.44-.43,0-1.01-.29-1.1-1.32-.03.28-.06.54-.08.77-.07.74-.18,1.42.11,1.8.28.39.57.18.81-.28.09,1.18.09,1.59.38,2.27.27.62,1.09.69,1.37-.16.18.96,1.01,1.05,1.33.47.24-.44.43-.8.57-1.63.23.5.92.24,1.03-.71.11-1.03.1-1.94-.28-3.33Z"/>
      <path class="cls-1" d="M23.48,82.31c.07-.62.16-1.37.31-2.33.25-1.62.3-3.71,1.84-6.65s1.53-5.61,1.44-8.58c-.22,2.82-.69,6-1.78,8.19-1.45,2.92-2.01,5.95-1.81,9.36Z"/>
      <path class="cls-1" d="M23.51,84.88c.28.39.57.18.81-.28.09,1.18.09,1.59.38,2.27.27.62,1.09.69,1.37-.16.18.96,1.01,1.05,1.33.47.24-.44.43-.8.57-1.63.23.5.92.24,1.03-.71.11-1.03.1-1.94-.28-3.33-.25-.89,0-2.29.64-3.09.69-.87,1.45-1.83,2.83-2.92,1.38-1.1,3.04-2.37,3.75-4.42.21-.66.36-1.5.38-2.4.26,1.34.08,2.49-.36,3.54s-1.91,3-3.21,4.04c-1.3,1.05-2.64,2.02-3.18,2.74-.54.72-.75,1.32-.72,2.1.02.57.52,2.11.33,3.67-.18,1.43-.83,2.03-1.25,1.73-.28.94-.77,1.86-1.36,1.96-.53.09-.72-.46-.72-.79-.42.64-1.22.44-1.44-.14-.13-.35-.21-1.33-.23-2.19-.26.25-.39.02-.65-.47Z"/>
      <path class="cls-3" d="M22.2,97.95c1.65,1.46,4.13,2.89,6.79,4.05-.51,1.01-1.02,2.42-1.23,3.65-.04.24-.08.49-.11.74-.03-1.62-.83-2.42-1.55-3.13-1.46-1.44-3.94-3.76-5.2-6.6.44.47.87.9,1.3,1.28Z"/>
      <path class="cls-7" d="M23.11,49.64c-.71.52-1.48.5-2.06.36-.62-.15-1.38-.64-1.5-1.37h0c1.04.02,1.96-.45,2.21-1.37-.26.96.36,1.87,1.34,2.38h0Z"/>
      <path class="cls-2" d="M26.26,49.27c-.1-.07-.23-.05-.3.05-.28.39-1.26.71-2.38.3-1.19-.44-1.85-1.38-1.6-2.29h0c.3-1.1.41-1.64.41-1.66,0,0,0,0,0,0,.55.11.99.03,1.37-.09.47-.14,1.07-.42,1.61-.57.76-.2.87-.76.43-1.26-.43-.51-1.7-1.06-2.78-1.35s-2.46-.43-3.08-.2c-.63.23-.77.77-.21,1.32.4.39.75.92,1.09,1.28.28.29.62.58,1.16.76,0,.01-.01.01-.02.02,0,0-.12.55-.41,1.63h0c-.25.91-1.3,1.38-2.54,1.15-1.14-.21-1.69-.75-1.72-1.17,0-.12-.11-.22-.23-.2-.12,0-.21.11-.2.23.04.56.6,1.3,2.08,1.57.19.03.37.04.55.05.21.67.92,1.13,1.54,1.28.24.06.48.09.71.09.47,0,.91-.13,1.29-.37.13.07.26.13.4.18.42.15.83.22,1.21.22.77,0,1.39-.28,1.67-.67.07-.1.05-.23-.05-.3ZM21.08,49.88c-.54-.13-1.1-.52-1.32-1.04.73-.03,1.36-.3,1.77-.74.13.62.57,1.19,1.24,1.59-.5.27-1.06.34-1.69.19Z"/>
    </g>
  </g>
</svg>