<?xml version="1.0" encoding="UTF-8"?>
<svg id="Layer_2" data-name="Layer 2" xmlns="http://www.w3.org/2000/svg" width="95.97" height="87.26" viewBox="0 0 95.97 87.26">
  <defs>
    <style>
      .cls-1 {
        fill: #c9caca;
      }

      .cls-2 {
        fill: #595757;
      }

      .cls-3 {
        fill: #3e332c;
      }

      .cls-4 {
        fill: #eeeae5;
      }

      .cls-5 {
        fill: #81b441;
      }

      .cls-6 {
        fill: #dcdddd;
      }

      .cls-7 {
        fill: #edd8c6;
      }

      .cls-8 {
        fill: #a83839;
      }

      .cls-9 {
        fill: #b28247;
      }
    </style>
  </defs>
  <g id="Layer_1-2" data-name="Layer 1">
    <g>
      <g>
        <path class="cls-9" d="M79.22,22.1c-.73.1-3.98.82-5.17,1.37-.81.38-1.82.79-2.73.96,4.52-9.37,8.3-18.22,9.07-20.91-2.11,1.05-4.86.63-6.23-.53-1.37-1.16-2.74-2.59-5.31-2.99-4.4,8.69-18.4,31.06-26.74,41.38-6.42,7.95-18.22,19.95-26.38,27.94-.05-.24-.09-.48-.15-.75-.18-.84-.2-1.73,0-2.36.25-.77.22-1.59-.04-2.71-.46-1.97-.97-4.67-1.02-6.37-.04-1.23.11-2,.14-3.1.04-1.44-.81-1.76-1.02-.11-.2,1.54-.6,3.28-.29,6.11.16,1.43.29,3.6-.2,5.4-.23.83-1.08,1.98-1.23,2.6-.2.82-.11,1.75-.25,2.57-.24,1.46-.65,2.63-1.11,3.7-.82.78-1.52,1.44-2.09,1.97,1.2,3.03,5.63,3.76,9.75,5.03,4.43,1.37,7.77,3.66,9.11,5.95,6.19-5.63,23.71-28.32,32.51-41.66,2.82-4.28,6.17-10.46,9.33-16.8,1.75-1.69,4.02-2.91,5.12-3.51,1.58-.87,4.22-1.82,5.15-2.06,1.2-.31,1.16-1.32-.21-1.14Z"/>
        <g>
          <path class="cls-7" d="M24.86,82.96c1.27-1.9,3.31-4.22,4.75-5.17.94-.62,2.29-1.13,3.38-2.01.89-.72,2.43-2.08,3.2-3.38-.74,2.32-3.2,5.21-3.94,5.84s-2.29,1.05-3.24,1.9c-.95.85-2.32,1.27-4.15,2.82Z"/>
          <path class="cls-7" d="M20.9,72.16c1.85-1.34,4.09-3.47,4.98-4.95.58-.96,1.03-2.33,1.87-3.45.68-.92,1.98-2.51,3.25-3.33-2.29.83-5.08,3.41-5.68,4.17s-.96,2.33-1.77,3.31c-.81.98-1.17,2.37-2.65,4.26Z"/>
          <path class="cls-7" d="M69.85,17.83c.69-1.71,1.8-3.8,2.58-4.65.51-.55,1.24-1.01,1.84-1.8.48-.65,1.32-1.87,1.74-3.04-.4,2.09-1.74,4.68-2.14,5.25-.4.57-1.24.95-1.76,1.71-.52.76-1.26,1.14-2.26,2.53Z"/>
          <path class="cls-7" d="M55.72,37.85c1.01-1.21,2.22-3.12,2.71-4.45.32-.86.56-2.1,1.02-3.11.37-.82,1.08-2.26,1.77-3-1.25.75-2.76,3.06-3.09,3.75s-.52,2.09-.96,2.98c-.44.88-.64,2.13-1.44,3.83Z"/>
          <path class="cls-7" d="M32.11,71.06c1.2-1.02,2.72-2.7,3.43-3.93.46-.8.91-1.97,1.53-2.89.51-.75,1.45-2.04,2.25-2.65-1.36.52-3.24,2.55-3.68,3.17-.44.62-.87,1.97-1.46,2.77-.58.8-.99,1.99-2.07,3.53Z"/>
          <path class="cls-7" d="M69.85,2.8c-.67.99-2.07,5.3-3.1,7.26,1.18-1.46,2.01-3.08,2.33-4.34.21-.84.39-1.66.76-2.92Z"/>
          <path class="cls-7" d="M58.1,41.68c-1.09,1.23-3.76,6.85-5.51,9.33,1.86-1.77,3.29-3.83,3.95-5.49.44-1.1.82-2.19,1.56-3.83Z"/>
          <path class="cls-7" d="M65.77,16.9c.6-.78,1.66-4.15,2.55-5.68-1.06,1.15-1.77,2.42-2,3.4-.15.65-.26,1.29-.55,2.28Z"/>
          <path class="cls-7" d="M64.43,27.66c.6-.78,1.66-4.15,2.55-5.68-1.06,1.14-1.77,2.42-2,3.4-.15.65-.26,1.29-.55,2.28Z"/>
          <path class="cls-7" d="M62.57,18.6c-.88.87-2.78,4.89-4.14,6.65,1.52-1.25,2.62-2.71,3.07-3.91.3-.79.55-1.57,1.06-2.75Z"/>
        </g>
        <g>
          <path class="cls-5" d="M78.87,22.59c1.3-3.69,4.86-6.51,7.67-7.49s7.6-.91,9.43.14c-2.46,1.55-4.51,3.32-6.9,4.68-3.1,1.76-8.09,2.6-10.2,2.67Z"/>
          <path class="cls-5" d="M78.06,22.59c1.9-1.34,8.11-1.19,11.19,1.34,3.31,2.71,4.57,7.39,4.15,10.27-1.34-1.48-4.68-3.2-7.18-4.96-3.53-2.48-5.31-5.56-8.16-6.65Z"/>
          <path class="cls-6" d="M79.1,22s-.03.09-.05.13c1.18-.37,2.89-.48,4.65-.27.41-.1.82-.2,1.24-.32-2.19-.45-4.43-.12-5.84.46Z"/>
        </g>
        <g>
          <path class="cls-5" d="M14.61,53.16c-.97-2.25-3.5-3.55-5.59-3.43-2.83.16-4.66,1.57-6.91,1.6,1.09,2.11,3.26,2.7,5.59,2.85,2.15.14,5.03-.21,6.91-1.02Z"/>
          <path class="cls-5" d="M14.1,52.67c-2.59,1.37-5.73,1.46-8.23,2.53C2.96,56.45-.15,59.81,0,64.07c2.85-2.27,6-2.8,7.86-3.33,2.95-.83,4.54-1.69,5.84-3.57.9-1.3.91-3.5.39-4.5Z"/>
          <path class="cls-5" d="M13.99,52.71c-.53,2.48,1.16,8.18,3.06,10.5,1.9,2.32,4.33,3.43,5.65,4.12-.26-3.75-.21-6.39-1.42-8.92-1.21-2.53-5.28-5.96-7.28-5.7Z"/>
          <path class="cls-6" d="M8.09,54.2c.38.01.78.01,1.19,0,1.64-.37,3.32-.74,4.82-1.53-1.35.35-3.97.86-6.01,1.53Z"/>
          <path class="cls-6" d="M14.11,52.7c.4.79.48,2.29.06,3.53.07.34.14.68.23,1.02.75-1.51.44-3.45-.29-4.55h0Z"/>
        </g>
      </g>
      <path class="cls-1" d="M47.73,56.58c.98-.84,2.39-1.38,3.8-1.41,1.51-.04,2.52,1.04,2.04,1.88.44.56-.04,1.97-1.06,2.23.53.77-.83,2.15-2.39,2.92-2.02,1-6.05,4.5-7.46,4.93s-3.66-.14-3.8-1.27.98-1.69-.56-1.41c-1.55.28-8.02,0-10.55-1.69s-6.61-6.33-6.05-13.37c.56-7.04,4.79-12.58,9.6-16.49,2.08-1.69,7-4.47,11.83-4.06,4.02.34,6.75,2.88,7.71,5.68,3.02,8.75,1.81,16.98-3.11,22.05Z"/>
      <path class="cls-1" d="M65.08,11.77c1.35-2.08-.32-4.78-2.17-6.36s-4.99-2.66-7.58-2.38c-2.74.3-4.79,1.71-5.73,3.46-2.52-1.4-5.49-2.12-8.81-1.8-3.48.34-6.36,1.73-8.62,3.73-1.22-1.66-3.58-2.76-6.46-2.52-2.59.22-5.47,1.87-6.98,3.79s-2.64,4.89-.91,6.66c-.42.75-.4,2.05.39,2.93.5.55,1.71.89,2.51.71,0,1.38.79,2.38,1.99,2.67.85.2,2.22-.08,3.48-1.19-.03.79-.01,1.57.06,2.33.77,7.98,8.68,13.73,17.65,12.86,8.97-.87,15.62-8.04,14.85-16.02-.06-.65-.17-1.3-.31-1.95,1.24.56,2.39.52,3.07.21,1.12-.51,1.71-1.65,1.44-3,.82.03,1.94-.54,2.33-1.18.61-1.01.38-2.3-.18-2.95Z"/>
      <path class="cls-3" d="M33.9,23.37c0,.62-.38,1.13-.85,1.12-.47,0-.84-.5-.84-1.13s.38-1.13.85-1.12c.47,0,.84.5.84,1.13Z"/>
      <path class="cls-3" d="M49.33,21.94c.17.6.67.98,1.11.86.45-.12.68-.71.51-1.31s-.67-.98-1.11-.86c-.45.12-.68.71-.51,1.31Z"/>
      <path class="cls-4" d="M43.15,34.92c1.89-.18,3.12-.77,3.74-2.32.67-1.67-.08-4.29-.83-5.55-.86-1.43-2.07-2.55-4.3-2.33-2.22.22-3.2,1.55-3.77,3.12-.5,1.37-.76,3.87.39,5.53.96,1.37,2.86,1.74,4.75,1.56Z"/>
      <path class="cls-4" d="M29.77,12.51c-.97.16-1.42,1.41-1.01,2.01-.64.31-.87.83-.6,1.15-.94,1.26-2.38,2.07-4.01,2.4s-3.27-.19-3.62-1.63c-.41-1.66.76-4.06,3.36-5.03,3.24-1.2,5.49-.61,5.87,1.09Z"/>
      <path class="cls-4" d="M52.6,10.29c.99-.02,1.66,1.11,1.37,1.78.69.18,1.02.64.81,1.02,1.16,1.05,2.73,1.57,4.4,1.59s3.17-.82,3.24-2.29c.08-1.71-1.52-3.84-4.27-4.29-3.41-.55-5.5.46-5.55,2.2Z"/>
      <path class="cls-6" d="M51.86,33.92c-2.28,1.48-5,2.46-7.98,2.74-3.42.33-6.68-.3-9.45-1.65,1.65,2.32,4.09,3.53,7.17,3.71,3.99.23,9.18-1.39,10.26-4.8Z"/>
      <g>
        <path class="cls-6" d="M46.5,45.56c1.11,1.27,2.15,1.71,2.67,1.97s.84,1.02.81,1.83c-.05,1.07-.16,2.52-1,3.01-.54.32-.99-.21-1.16-.55-.19-.39-.55-1.08-1.07-1.71-.49-.6-1.61-1.67-3.31-2.2-2.89-.9-8.67-.09-10.2,4.43,2.67-4.36,8.25-4.45,10.98-2.95,2.71,1.48,3.24,4.36,3.52,7.18,2.7-2.78,4.28-6.51,4.66-10.75-1.98.45-4.48.39-5.89-.26Z"/>
        <path class="cls-1" d="M47.73,56.58c.3-.2.62-.42.94-.64-.34.19-.66.4-.94.64Z"/>
      </g>
      <path class="cls-1" d="M40.1,38.77c1.9-1.3,5.13-1.58,7.14-1.48,2.15.11,4.93-.14,6.37-.42,2.21-.43,5-1.61,5.91-2.29,1.09-.81,2.83-1.91,4.01-2.18,1.51-.35,3.13.46,3.62,1.37.49.92.67,2.92-.14,2.71.26.96-.74,2.74-1.65,2.29.18.84-1.03.99-2.11,1.05-1.16.07-2.11.42-2.99,1.27-1.08,1.04-4.29,3.2-6.26,4.19-1.97.98-5.66,1.13-7.49.28-1.83-.74-4.4-2.04-6.12-3.52-1.06-.91-1.3-2.53-.28-3.27Z"/>
      <path class="cls-3" d="M42.26,29.79c1.67-.16,3.08-.72,3.63-2.08.59-1.47-.07-3.78-.73-4.88-.76-1.26-1.64-2.26-3.6-2.07-1.96.19-2.99,1.38-3.49,2.76-.44,1.21-.64,3.6.22,4.93.8,1.24,2.3,1.51,3.96,1.35Z"/>
      <path class="cls-2" d="M53.69,56.62c-.06-.07-.14-.13-.25-.17-.28-.11-.8-.13-1.3.06-.38.15-.41.39,0,.26.49-.14.99-.07,1.42.28.08-.14.11-.29.12-.43Z"/>
      <path class="cls-2" d="M52.89,58.86c-.15-.48-.89-.53-1.46-.41-.43.09-.54.3-.18.28.35-.02,1.02.12,1.27.55.15-.04.3-.11.42-.19-.01-.07-.03-.14-.05-.23Z"/>
      <path class="cls-2" d="M66.06,34.22c-.46-.18-.7-.06-.27.23.66.44,1.01,1.4,1.22,2.04.25.07.4-.08.49-.34-.11-.84-.91-1.73-1.44-1.93Z"/>
      <path class="cls-2" d="M64.76,37.21c-.39-.2-.5-.1-.2.18.3.27.64.95.8,1.39.14.07.28.08.42.06.02-.19,0-.39-.08-.58-.09-.25-.39-.77-.94-1.05Z"/>
      <path class="cls-8" d="M44.55,30.9c-.52.38-1.24.66-2.11.75-.88.08-1.83-.02-2.54-.29.77,1.27,1.96,1.59,2.81,1.48.84-.11,1.75-1.03,1.85-1.94Z"/>
      <g>
        <path class="cls-4" d="M54.78,13.09c.09.09.19.16.29.24-.05-.15-.13-.29-.24-.42,0,.06-.02.13-.06.18Z"/>
        <path class="cls-1" d="M58.12,8.81c1.74,0,3.2.97,4.01,2.15-.57-1.3-1.97-2.54-3.98-2.86-3.41-.55-5.51.46-5.55,2.2.36,0,.68.14.92.36.61-1.02,2.14-1.83,4.59-1.84Z"/>
        <path class="cls-4" d="M62.42,12.38c.02-.46-.08-.95-.29-1.43-.81-1.18-2.28-2.16-4.01-2.15-2.45.01-3.98.82-4.59,1.84.43.38.64,1,.45,1.42.58.15.9.5.86.83.11.13.19.28.24.42,1.13.89,2.57,1.34,4.1,1.35,1.66.01,3.17-.82,3.24-2.29Z"/>
      </g>
      <path class="cls-1" d="M24.7,11.96c1.9-.42,3.17-.29,4.47.82.17-.14.37-.24.6-.28-.38-1.7-2.63-2.29-5.87-1.09-2.61.96-3.77,3.37-3.36,5.03.21-2.27,1.79-3.96,4.16-4.48Z"/>
    </g>
  </g>
</svg>