<?xml version="1.0" encoding="UTF-8"?>
<svg id="Layer_2" data-name="Layer 2" xmlns="http://www.w3.org/2000/svg" width="91.93" height="96.12" xmlns:xlink="http://www.w3.org/1999/xlink" viewBox="0 0 91.93 96.12">
  <defs>
    <style>
      .cls-1 {
        fill: #c9caca;
      }

      .cls-2 {
        fill: #dabd7a;
      }

      .cls-3 {
        fill: #3e332c;
      }

      .cls-4 {
        fill: url(#linear-gradient-2);
      }

      .cls-5 {
        fill: #93674f;
      }

      .cls-6 {
        fill: #a75f23;
      }

      .cls-7 {
        fill: url(#linear-gradient-4);
      }

      .cls-8 {
        fill: #e1ddd6;
      }

      .cls-9 {
        fill: url(#linear-gradient-3);
      }

      .cls-10 {
        fill: #efefef;
        isolation: isolate;
        opacity: .75;
      }

      .cls-11 {
        fill: #785f43;
      }

      .cls-12 {
        fill: #f2d89f;
      }

      .cls-13 {
        fill: url(#linear-gradient);
      }
    </style>
    <linearGradient id="linear-gradient" x1="48.61" y1="390.11" x2="48.61" y2="316.61" gradientTransform="translate(0 409.01) scale(1 -1)" gradientUnits="userSpaceOnUse">
      <stop offset="0" stop-color="#e1ab38"/>
      <stop offset=".48" stop-color="#e0a436"/>
      <stop offset="1" stop-color="#de9633"/>
    </linearGradient>
    <linearGradient id="linear-gradient-2" x1="38.99" x2="38.99" y2="316.61" xlink:href="#linear-gradient"/>
    <linearGradient id="linear-gradient-3" x1="55.53" y1="327.86" x2="55.53" y2="316.17" xlink:href="#linear-gradient"/>
    <linearGradient id="linear-gradient-4" x1="85.23" y1="377.36" x2="85.23" y2="311.44" xlink:href="#linear-gradient"/>
  </defs>
  <g id="Layer_1-2" data-name="Layer 1">
    <g>
      <path class="cls-13" d="M65.36,32.06c6.5,3.71,10.33,8.43,12.19,13.25,2.11,5.47,3.52,11.26,2.4,16.99-.96,4.9-2.84,9.66-6.57,15.73-2.24,3.65-3.82,8.04-5.21,10.63,1.33.85,1.83,3.05.66,4.25-1.06,1.08-3.26,1.42-5.12,1.43-2.27.01-4.19-.39-5.44-1.41-1.16-.95-1.24-3.04.61-4.15-.36-2.73-.43-5.63-.61-7.81-1.77,2.56-4.4,6.49-5.49,9.4.82.46,1.82,1.69,1.26,3.03-.68,1.65-2.59,2.64-6.09,2.72-3.12.07-4.81-.51-5.91-1.73-1.32-1.46-.62-3.57,1.28-4.73-.86-2.76-1.74-5.07-2.54-7.41-.71-2.06-2.42-1.78-2.71.05-.47,3.04-.72,5.45-.54,7.45,1.52,1.02,1.9,2.8.57,4.28-.94,1.04-2.71,1.85-5.52,1.93-2.55.07-4.9-.27-6-1.42-1.43-1.5-.46-3.89,2.59-4.71-2-2.55-10.35-15.98-11.46-23.59-2-13.7-1.31-24.88,12.46-33.09,12.83-7.64,28.59-4.86,35.18-1.09Z"/>
      <path class="cls-6" d="M38.99,1.07c5.94-2.72,13.21.04,19.21,4.99-2.48-.51-4.78-.22-5.95.53,2.53,0,5.93.57,8.44,1.29,6.63,5.08,11.88,13.64,13.41,18.68-1.74-1.1-4.81-1.9-6.83-2.34,2.1,1.53,7.6,5.28,8.87,6.81,1.95,6.13,2.44,18.18.99,23.65-1.4-1.97-7.26-5.93-9.77-6.59,1.73,1.97,8.22,7.13,9.13,9.32-1.44,6.66-6.61,12.92-11.06,14.77-4.75-2.85-7.9-2.28-10.15-.31s-4.97,5.07-7.82,6.98c.53-1.53.07-3.37-.38-4.26-1.75,3.28-3.37,3.13-4.6,6-2.16-1.43-3.66-3.55-4.27-5.12-.61,1.56-.64,2.44-.32,4.41-2.57-.45-5.91-2.01-7.63-4.85-.23,1.32-.28,2.29.26,3.82-2.85-1.91-5.57-5.01-7.82-6.98s-5.4-2.53-10.15.31c-4.46-1.85-9.62-8.11-11.06-14.77.91-2.19,7.4-7.35,9.13-9.32-2.51.66-8.38,4.62-9.77,6.59-1.46-5.48-.96-17.52.99-23.65,1.27-1.53,6.77-5.28,8.87-6.81-2.02.44-5.09,1.25-6.83,2.34,1.53-5.04,6.78-13.6,13.41-18.68,2.51-.72,5.91-1.29,8.44-1.29-1.16-.75-3.46-1.04-5.95-.53C25.78,1.11,33.05-1.65,38.99,1.07Z"/>
      <g>
        <path class="cls-2" d="M20.43,28.22c-6.83,1.25-14.3,3.6-19.4,6.04-.04.18-.07.36-.1.55,5.06-2.48,12.65-4.88,19.58-6.15.12-.02.2-.14.18-.26-.02-.12-.14-.2-.26-.18Z"/>
        <path class="cls-2" d="M17.42,32.5c-3.7,1.14-12.31,4.32-17.15,7.32-.02.19-.03.37-.05.56,4.72-3.03,13.57-6.3,17.33-7.46.12-.04.18-.16.15-.28-.04-.12-.16-.19-.28-.15Z"/>
        <path class="cls-2" d="M14.23,43.09c-.03-.12-.15-.2-.27-.16-4.73,1.18-10.41,4.13-13.81,7.08.01.19.03.37.04.55,3.31-2.98,9.09-6,13.88-7.2.12-.03.19-.15.16-.27Z"/>
        <path class="cls-2" d="M23.9,18.65c.11.05.25,0,.3-.11.05-.11,0-.25-.11-.3-1.68-.8-5.11-1.02-8.95-.56-3.16.38-6.05,1.14-8.12,2.13-.14.24-.27.47-.41.71,4.68-2.56,14.14-3.37,17.29-1.86Z"/>
        <path class="cls-2" d="M28.85,15.07s.1.07.17.07c.05,0,.11-.02.15-.06.09-.08.1-.22.02-.32-1.88-2.08-9.29-4.63-14.29-4.87-.15.14-.29.29-.44.43,4.87.08,12.51,2.65,14.39,4.74Z"/>
        <path class="cls-2" d="M37.56,9.78c-.09,0-.18-.05-.21-.14-1.04-2.68-5.91-5.49-9.89-4.83-.12.02-.24-.06-.26-.18-.02-.12.06-.24.18-.26,3.47-.58,9.06,1.71,10.38,5.11.04.12-.01.25-.13.29-.03.01-.05.01-.08.01Z"/>
        <path class="cls-2" d="M15.49,52.28c.1-.07.14-.21.07-.31-.07-.1-.21-.13-.31-.07-3.98,2.51-8.89,8.36-11.01,12.27.09.15.18.29.27.44,2.01-3.85,6.98-9.8,10.98-12.33Z"/>
        <path class="cls-2" d="M17.92,58.8c-3.23,1.81-7.74,7.44-9.03,11.01.12.1.24.21.36.31,1.19-3.59,5.98-9.3,8.88-10.93.11-.06.15-.2.09-.31-.06-.11-.2-.15-.3-.09Z"/>
        <path class="cls-2" d="M77.14,35.29c-3.87-1.83-10.37-4.11-19.21-4.39-.1,0-.23.09-.23.22,0,.12.09.23.22.23,8.98.29,15.52,2.65,19.31,4.49-.03-.18-.06-.36-.09-.54Z"/>
        <path class="cls-2" d="M77.96,44.07c-5.08-2.82-13.11-5.15-16.73-5.62-.12-.02-.24.07-.25.19s.07.24.19.25c3.64.48,11.8,2.84,16.79,5.69,0-.17,0-.35-.01-.52Z"/>
        <path class="cls-2" d="M77.86,49.76c-3.43-2.87-8.93-5.68-13.52-6.83-.12-.03-.24.04-.27.16s.04.24.16.27c4.65,1.16,10.24,4.05,13.59,6.95.02-.18.03-.37.04-.56Z"/>
        <path class="cls-2" d="M71.66,21.01c-.1-.18-.2-.35-.3-.53-5.23-1.22-11.84-1.12-14.93-.21-.12.04-.19.16-.15.28.04.12.16.19.28.15,3.12-.92,9.91-1,15.11.3Z"/>
        <path class="cls-2" d="M62.85,9.68c-.16-.15-.33-.3-.5-.44-4.9.14-11.55,2.08-13.85,3.97-.1.08-.11.22-.03.32.04.05.11.08.17.08.05,0,.1-.02.14-.05,2.27-1.87,9.25-3.85,14.06-3.87Z"/>
        <path class="cls-2" d="M74.66,62.53c.08-.17.16-.33.24-.5-2.06-3.86-7.39-9.87-11.05-12.31-.1-.07-.24-.04-.31.06-.07.1-.04.24.06.31,3.72,2.48,9.16,8.66,11.06,12.44Z"/>
        <path class="cls-2" d="M71.18,67.71c-1.51-3.73-6-9.8-9.22-11.6-.11-.06-.24-.02-.31.09s-.02.24.09.31c3.22,1.8,7.75,7.98,9.11,11.58.11-.12.22-.24.33-.37Z"/>
      </g>
      <path class="cls-4" d="M31.01,20.26c1.72-.69,3.45-1.88,4.39-2.84.14,2.1-.91,4.24-2.73,5.36,2.15-.04,3.39-.25,5.18-.96,2.02-.8,3.85-1.96,5.04-3.46-.21,2.05-.89,3.46-2.01,4.96,1.55.17,4.13-1.09,6.08-3.02,2.69-2.66,6.96-4.17,9.84-1.99s1.69,6.16.1,8.45c8.52,8.2,9.82,19.03,8.31,24.35-1.34,4.72-2.98,6.97-6.29,9.55-4.81,3.75-11.64,6.38-19.93,6.38s-15.12-2.63-19.93-6.38c-3.31-2.58-4.95-4.83-6.29-9.55-1.51-5.32-.21-16.15,8.31-24.35-1.59-2.29-2.78-6.26.1-8.45,2.88-2.19,8.53.26,9.82,1.95Z"/>
      <path class="cls-12" d="M29.06,24.78c1.1-.71,1.13-1.68.55-2.73-.88-1.62-4.12-2.97-6.11-2.83-1.49.1-2.51.78-2.73,2.27-.22,1.49.71,3.71,1.51,4.73.66.84,1.85,1.36,2.78.86,1.45-.78,2.95-1.63,4-2.3Z"/>
      <path class="cls-12" d="M48.71,24.78c-1.1-.71-1.13-1.68-.55-2.73.88-1.62,4.12-2.97,6.11-2.83,1.49.1,2.51.78,2.73,2.27.22,1.49-.71,3.71-1.51,4.73-.66.84-1.85,1.36-2.78.86-1.45-.78-2.95-1.63-4-2.3Z"/>
      <path class="cls-9" d="M58.28,80.97c-1.77,2.56-4.4,6.49-5.49,9.4.82.46,1.82,1.69,1.26,3.03-.04.1-.09.2-.14.3h0c.51-.19.95-.46,1.27-.79,1.17-1.2.66-3.39-.66-4.25,1.1-2.29,2.08-5.04,3.77-7.69Z"/>
      <path class="cls-1" d="M53.95,87.85c.56-.73,1.32-1.64,1.99-2.38.65-1.47,1.38-3,2.34-4.5-1.3,1.87-3.05,4.48-4.33,6.88Z"/>
      <path class="cls-1" d="M58.28,80.97c.13,1.55.2,3.46.36,5.42.73-2.66,2.44-4.98,5.45-6.19,3.05-1.23,6.47-2.96,8.9-6.41-2.52,2.55-7.31,3.69-9.43,4.25-1.88.5-4.05,1.36-5.27,2.93Z"/>
      <path class="cls-10" d="M57.73,81.77c-.33.48-.67.99-1.02,1.52-.02.02-.03.05-.05.07-.93,1.42-1.91,2.99-2.7,4.48,0,0,0,0,0,0h0c.56-.73,1.32-1.64,1.99-2.38.14-.31.28-.63.43-.95.04-.09.08-.17.12-.25.12-.26.25-.52.38-.79.06-.11.11-.23.17-.34.13-.26.27-.51.41-.77.06-.11.12-.22.18-.33.21-.36.42-.72.65-1.08-.14.21-.3.43-.45.65-.03.05-.07.1-.1.15Z"/>
      <path class="cls-11" d="M34.31,95.79c.71-.12,1.33-.29,1.87-.5-.11-.81-.48-1.4-.92-1.4-.53,0-.95.85-.96,1.9Z"/>
      <path class="cls-11" d="M31.27,94.08c-.7,0-1.27.78-1.32,1.77.82.1,1.72.13,2.64.1,0,0,0,0,0,0-.01-1.04-.6-1.88-1.33-1.88Z"/>
      <path class="cls-11" d="M28.67,95.62s0-.06,0-.09c0-1.05-.43-1.91-.96-1.91-.39,0-.73.47-.88,1.15.47.38,1.09.66,1.83.84Z"/>
      <path class="cls-11" d="M44.09,93.95c-.43,0-.79.57-.91,1.34.51.29,1.12.5,1.86.64,0-.02,0-.04,0-.07,0-1.06-.43-1.91-.95-1.91Z"/>
      <path class="cls-11" d="M47.96,96.11c.42,0,.82-.03,1.2-.07-.08-.95-.63-1.69-1.31-1.69s-1.26.77-1.32,1.74c.44.02.91.03,1.43.02Z"/>
      <path class="cls-11" d="M51.84,93.82c-.53,0-.96.85-.96,1.91,0,0,0,.01,0,.02.73-.19,1.34-.45,1.83-.77-.15-.68-.48-1.16-.88-1.16Z"/>
      <path class="cls-11" d="M60.06,92.26c-.4,0-.74.53-.85,1.25.52.26,1.1.45,1.75.58,0-.01,0-.02,0-.03,0-.99-.4-1.79-.9-1.79Z"/>
      <path class="cls-11" d="M64.7,94.3c0-.06.01-.12.01-.18,0-.99-.56-1.8-1.25-1.8s-1.25.8-1.25,1.8c0,.05,0,.1.01.15.48.04.98.06,1.49.06.32,0,.65-.01.98-.04Z"/>
      <path class="cls-11" d="M67.12,92.06c-.5,0-.9.8-.9,1.8,0,.08,0,.16.01.24.65-.13,1.25-.32,1.77-.59-.08-.82-.45-1.44-.88-1.44Z"/>
      <path class="cls-8" d="M58.28,80.97c-1.77,2.56-4.4,6.49-5.49,9.4.82.46,1.82,1.69,1.26,3.03-.04.1-.09.2-.14.3h0c.51-.19.95-.46,1.27-.79,1.17-1.2.66-3.39-.66-4.25,1.1-2.29,2.08-5.04,3.77-7.69Z"/>
      <path class="cls-7" d="M91.34,60.65c-.88-1.49-2.22-2.43-3.99-2.97-.03,1.39-.35,2.89-.29,4.39.06,1.59,1.12,2.94,2.84,3.05.45,3.5-1.85,8.72-5.34,7.67-1.14-.35-1.78-1.62-2.15-3.43-.51-2.47-1.17-4.86-2.59-6.4-.33,1.53-.75,3.05-1.29,4.61.93,1.21,1.22,2.88,1.8,4.52.69,1.96,2.5,3.01,4.1,3.14,4.99.43,7.42-5.54,6.68-10.39.88-.77,1.21-2.56.24-4.19Z"/>
      <path class="cls-5" d="M87.36,57.68c-.03,1.39-.35,2.89-.29,4.39.06,1.59,1.12,2.94,2.84,3.05.41,0,.77-.03,1.2-.27.89-.77,1.21-2.56.24-4.19-.88-1.49-2.22-2.43-3.99-2.97Z"/>
      <path class="cls-12" d="M53.01,55.32c-.74-2.53-2.6-6.88-6.66-8.93-2.17-1.1-5.09-1.69-7.43-1.69s-5.25.6-7.43,1.69c-4.06,2.05-5.91,6.39-6.66,8.93s-.6,6.82,3.13,9.2c1.05.67,2.18,1.26,3.48,1.73,2.35.5,4.87.77,7.54.77s4.95-.25,7.2-.7c1.39-.48,2.58-1.09,3.69-1.8,3.72-2.38,3.87-6.67,3.13-9.2Z"/>
      <path class="cls-3" d="M31.41,40.51c-.08,1-.72,1.79-1.43,1.78s-1.21-.84-1.12-1.83.72-1.79,1.43-1.78c.7.01,1.21.84,1.12,1.83Z"/>
      <path class="cls-3" d="M47.39,40.51c.08,1,.72,1.79,1.43,1.78.71-.01,1.21-.84,1.12-1.83s-.72-1.79-1.43-1.78c-.7.01-1.21.84-1.12,1.83Z"/>
      <path class="cls-3" d="M47.55,48.79c-.12,0-.24-.06-.32-.17-.11-.17-.06-.41.11-.52,3.94-2.55,8.07-3.94,12.62-4.24.21-.02.38.14.4.35.01.21-.14.38-.35.4-4.43.29-8.44,1.64-12.27,4.12-.06.04-.13.06-.2.06Z"/>
      <path class="cls-3" d="M66.25,54.08c-.07,0-.15-.02-.22-.07-4.42-3.12-10.32-4.09-16.62-2.74-.2.04-.4-.09-.45-.29-.04-.2.09-.4.29-.45,6.51-1.39,12.62-.38,17.21,2.86.17.12.21.35.09.52-.07.1-.19.16-.31.16Z"/>
      <path class="cls-3" d="M60.44,61.16c-.14,0-.28-.08-.34-.22-.88-1.95-5.68-6.69-9.98-6.88-.21,0-.37-.18-.36-.39,0-.21.21-.37.39-.36,4.66.2,9.67,5.18,10.63,7.32.09.19,0,.41-.19.5-.05.02-.1.03-.15.03Z"/>
      <path class="cls-3" d="M30.26,48.79c-.08,0-.16-.03-.23-.08-4.42-3.46-8.54-3.93-13.38-3.58-.2.02-.39-.14-.4-.35-.01-.21.14-.39.35-.4,5-.36,9.28.13,13.9,3.74.16.13.19.36.06.53-.07.1-.18.14-.3.14Z"/>
      <path class="cls-3" d="M11.4,53.93c-.12,0-.23-.05-.31-.16-.12-.17-.08-.4.09-.52,6.08-4.29,13.49-3.54,17.36-2.71.2.04.33.24.29.45-.04.2-.25.33-.45.29-3.75-.8-10.92-1.54-16.77,2.59-.07.05-.14.07-.22.07Z"/>
      <path class="cls-3" d="M17.66,61.23c-.05,0-.1-.01-.15-.03-.19-.09-.27-.31-.19-.5.95-2.12,5.62-7.19,10.34-7.39.19-.02.38.15.39.36,0,.21-.15.38-.36.39-4.34.19-8.82,5.02-9.68,6.95-.06.14-.2.22-.34.22Z"/>
      <path class="cls-3" d="M46.66,50.88c-.18-.06-.37.04-.43.21-.44,1.31-1.93,1.71-3.17,1.64-1.56-.08-3.57-1.21-3.64-2.35-.06-.98.01-1.65-.01-2.93,4,0,7.19-.09,7.19-1.05s-3.38-3.37-7.55-3.37-7.55,2.38-7.55,3.37,3.21,1.05,7.24,1.05c.04,1.3.09,2.01.01,2.93-.12,1.48-1.99,2.26-3.5,2.37-1.32.1-3.02-.27-3.48-1.66-.06-.18-.25-.27-.43-.21s-.27.25-.21.43c.44,1.33,1.86,2.14,3.68,2.14.16,0,.33,0,.5-.02,1.5-.12,3.01-.62,3.8-1.75.87,1.15,2.45,1.65,3.92,1.73,1.9.1,3.38-.7,3.85-2.1.06-.17-.04-.37-.21-.42Z"/>
    </g>
  </g>
</svg>