<?xml version="1.0" encoding="UTF-8"?>
<svg id="Layer_2" data-name="Layer 2" xmlns="http://www.w3.org/2000/svg" width="110.88" height="149.12" viewBox="0 0 110.88 149.12">
  <defs>
    <style>
      .cls-1 {
        fill: #c9caca;
      }

      .cls-2 {
        fill: #3e332c;
      }

      .cls-3 {
        fill: #6d5d77;
      }

      .cls-4 {
        fill: #fce0bc;
      }

      .cls-5 {
        fill: #ecbb9a;
      }

      .cls-6 {
        fill: #fdedd6;
      }

      .cls-7 {
        fill: #b95a66;
      }

      .cls-8 {
        fill: #826b5b;
      }

      .cls-9 {
        fill: #ccc;
      }

      .cls-10 {
        fill: #dcdddd;
      }
    </style>
  </defs>
  <g id="Layer_1-2" data-name="Layer 1">
    <g>
      <path class="cls-3" d="M21.6,63.74c-1.33-.56-2.44-.19-2.88,1.26-.88-1.6-4.22-1.49-4.76.52-.91-1.09-2.88-.79-3.22.76.12,1.11.34,2.24.65,3.36.63,2.34,1.63,4.69,2.97,7-2.79,5.42-3.04,11.25-1.57,15.66,1.29,3.88,4.71,8.06,7.15,9.58,2.43,1.52,2.61.02,1.93-1.8,1.11,2.36,2.64,3.7,4.31,4.23,2.18.69,2.76-.33,1.9-1.85,2.05,2.46,5.82,5.19,9.65,3.67,4.71.76,18.95-.4,24.22-2.64s9-4.24,11.5-5.75c2.61-1.57,4.99-2.94,7.68-3.12,2.01-.13,5.68.58,8.04,1.96,3.12,3.24,7.52.7,6.1-2.34,3.19.58,6.41-.68,4.59-2.91,4.03.43,6.92-1.65,4.89-3.27,1.37.05,2.69.08,4.48.13,1.89.05,2.26-1.72.63-4.15s-7.2-6.21-12.44-7.1c-1.96-.33-4.2-.59-6.16-.71-2.26-1.39-6.46-1.63-8.95-1.87-3.14-.3-6.47-1.42-9.59-4.52-7.03-6.99-14.99-8.94-24.97-9.31-8.74-.32-18.14,2.03-23.92,6.49-.66-.6-1.2-1.24-1.61-1.93-.26-.43-.47-.88-.62-1.34Z"/>
      <g>
        <path class="cls-5" d="M25.11,35.75c-1.04.8-2,1.46-2.69,1.87-1.72,1.01-3.55,1.82-5.27,1.52-1.72-.3-2.16-1.6-2.31-2.5-.16-1.01-.23-2.35-.2-3.9-7.68.17-8.55-3.68-7.68-6.06.73-2.01,1.86-4.9,2.33-7.73.57-3.42,1.3-6.87,2.97-8.97,1.81-2.27,3.84-3.7,7.73-4.39,4.31-.76,6.17-.07,9.52,1.78,2.26,1.24,4.76,4.71,6.29,7.44,1.09,1.94,2.69,4.43,4.1,6.23,1.47,1.88,1.99,5.12-1.5,6.87-1.29.65-2.39,1.27-3.38,1.87-1.2.73-2.27,1.45-3.38,2.19-1.17.77-2.6,1.67-4.01,2.47-.88.5-1.74.95-2.52,1.3Z"/>
        <g>
          <g>
            <g>
              <g>
                <path class="cls-2" d="M12.89,18.97c0,.84-.45,1.52-1.01,1.52s-1.01-.68-1.01-1.52.45-1.52,1.01-1.52c.56,0,1.01.68,1.01,1.52Z"/>
                <path class="cls-2" d="M28.09,16.43c0,.84-.45,1.52-1.01,1.52s-1.01-.68-1.01-1.52.45-1.52,1.01-1.52,1.01.68,1.01,1.52Z"/>
                <path class="cls-4" d="M18.87,18.46c2.36-.58,4.67.11,6.8,1.62,1.41,1,3.8,2.01,6.07,2.23,1.61.15,2.43,1.01,2.03,2.33-.41,1.32-2.13,4.66-4.16,6.99-1.22,1.4-2.95,2.91-4.51,4.11-1.04.8-2,1.46-2.69,1.87-1.72,1.01-3.55,1.82-5.27,1.52-1.72-.3-2.16-1.6-2.31-2.5-.16-1.01-.23-2.35-.2-3.9.01-.63.03-1.26.07-1.85.04-.66.11-1.25.21-1.69-2.13.51-3.59.86-4.86,1.11-1.86.38-2.47-1.44-.68-2.71,2.09-1.48,3.2-2.7,4.54-4.69,1.39-2.08,2.3-3.8,4.97-4.46Z"/>
                <path class="cls-2" d="M16,25.67c0,.31.27-1.03.03-1.74-.19-.59-.96-1.04-1.53.05.61-.04,1.23.47,1.5,1.69Z"/>
                <path class="cls-2" d="M18.05,25.46c-.11-1.17.49-3.17,2.47-2.22-.84.26-1.97,1.06-2.47,2.22Z"/>
              </g>
              <path class="cls-3" d="M17.46,7.35c-.22,0-.41-.15-.45-.37-.17-.99-.57-2.94-2.33-3.31-.25-.05-.39-.15-.37-.28.02-.17.3-.23.54-.18,1.8.37,2.77,2.02,3.06,3.6.05.25-.12.49-.37.54-.03,0-.06,0-.08,0Z"/>
              <path class="cls-3" d="M18.97,6.88c-.18,0-.36-.11-.43-.29-.68-1.77-1.01-4.39-.45-6.18.08-.24.26-.45.43-.4.15.05.13.27.05.51-.48,1.52.1,4.01.82,5.74.1.23-.03.5-.26.59-.05.02-.11.03-.16.03Z"/>
              <path class="cls-3" d="M20.46,7.04s-.03,0-.05,0c-.25-.03-.43-.26-.41-.51.15-1.35.6-4.35,2.35-6.18.17-.18.43-.29.55-.18.11.11.02.3-.15.49-1.53,1.6-1.8,4.48-1.84,5.98,0,.24-.23.41-.46.41Z"/>
              <path class="cls-3" d="M22.19,6.25c-.06,0-.11-.01-.17-.03-.23-.09-.35-.36-.25-.6.9-2.24,3.45-3.86,5.7-3.86.25,0,.47.09.48.26,0,.16-.21.23-.46.23-1.88,0-4.16,1.64-4.87,3.71-.06.18-.24.29-.42.29Z"/>
            </g>
            <path class="cls-5" d="M43.96,100c-3.79.85-6.96,3.4-6.24,6.13.97,3.64,2.23,7.07,2.94,10.39.46,2.13-.35,3.19-2.79,3.19-1.57,0-10.98-.18-16.72-.1-1.98.03-3.84-.18-4.66-.4-2.9-.78-7.02-.33-10.11,2.36-1.81,1.57-3.22,3.22-3.93,6.66-.6,1.11-1.12,1.96-1.8,3.27-1.48,2.86-.28,3.47,2.15,2.26,2.43-1.22,4.16-2.18,7.3-3.65.03,1.27.13,1.86.2,2.43.2,1.52,1.3,1.99,2.33.36,1.24-1.98,2.79-4.13,4.81-6.23.93-.96,3.09-1.47,6.13-1.52,5.73-.1,15.84.27,20.68.78,6.69.71,8.64-2.67,7.58-8.2-.77-4.02-2.08-10.06-2.24-13.23-.16-2.94-2.9-5.1-5.65-4.49Z"/>
            <path class="cls-5" d="M50.32,109.83c5.72,4.25,10.49,6.89,15.21,10.29,4.2,3.03,9.93,9.73,12.7,13.15,1.29,1.59,2.11,4.1,2.66,7.11.65,3.54,4,6.32,6.69,7.23,1.06.36,2.48.53,3.67.4,1.19.61,2.77,1.11,4.27,1.11,1.2,0,1.4-.59.69-1.55-.59-.79-1.13-1.78-1.48-2.63-.52-1.26-.9-2.48-1.98-3.24,3.16,1.1,3.61.87.91-3.04-2.01-2.92-3.34-3.35-6.08-4.26s-4.29-4.55-7.74-8.8c-3.33-4.1-5.07-6.51-6.17-8.86-1.04-2.22-2.84-3.45-4.79-4.98-2.57-2.01-5.28-4.58-7.58-8.02-2.72.98-7.16,1.74-11.57,2.18.13,1.15.34,2.49.59,3.9Z"/>
            <path class="cls-4" d="M51.68,95.64c3.6,1.34,6.29-.58,4.89-2.74,4.48,1.65,7.68-.73,5.47-2.96,3.4.84,3.79-2.65-.61-6.08,6.01.68,10.74,5.16,11.86,7.47.91,1.88-1.09,3.58-4.41,2.48,1.09,2.76-1.04,4.26-3.95,2.96.91,2.59-1.8,4.36-5.17,2.82-.96,2.03-4.08,1.8-5.35,0-.83-1.18-1.39-2.48-2.74-3.95Z"/>
          </g>
          <path class="cls-7" d="M27.79,28.19c-1.82.51-3.75.61-6.39.51-1.88-.07-3.35-.04-4.77.17-.08.52-.14,1.14-.19,1.79-.13,1.64-.18,3.48-.17,4.56.01,1.65.35,2.43,1.63,2.33,2.11-.17,4.64-1.87,6.74-4.18,1.07-1.17,1.68-2.13,2.19-3.12.34-.65.62-1.31.95-2.05Z"/>
        </g>
        <path class="cls-5" d="M27.63,34.45c1.4-.79,2.84-1.69,4.01-2.47,1.12-.74,2.18-1.46,3.38-2.19.61,1.62,1.34,3.09,1.64,5.72.38,3.3.11,6.73-3.84,10.84-2.5,2.6-8.59,8.4-10.49,11.74-1.13,1.98-1.3,3.91-.72,5.64-1.33-.56-2.44-.19-2.88,1.26-.88-1.6-4.22-1.49-4.76.52-.91-1.09-2.88-.79-3.22.76-.39-3.42.1-6.72,1.59-9.7,3.19-6.39,10.19-10.49,13.91-13.99,2.86-2.69,2.63-6.17,1.39-8.13Z"/>
        <path class="cls-1" d="M16.44,30.66c.05-.65.11-1.27.19-1.79-.57.08-1.14.2-1.72.34-.09.44-.16,1.03-.21,1.69.45-.11,1.2-.21,1.73-.24Z"/>
        <path class="cls-1" d="M26.83,30.24c.34-.65.62-1.31.95-2.05,1.82-.51,3.14-.91,4.26-2.33-.7,1.94-3.42,3.77-5.21,4.38Z"/>
        <path class="cls-1" d="M21.4,28.7c-1.88-.07-3.35-.04-4.77.17-.08.52-.14,1.14-.19,1.79,1.31,1.74,2.63,2.08,4.08,2.09,2.19,0,4.98-1.07,6.31-2.5.34-.65.62-1.31.95-2.05-1.82.51-3.75.61-6.39.51Z"/>
        <path class="cls-6" d="M11.39,69.64c-.3-1.13-.52-2.25-.65-3.36.34-1.55,2.31-1.84,3.22-.76.54-2.01,3.88-2.11,4.76-.52.44-1.45,1.55-1.83,2.88-1.26.16.46.36.91.62,1.34-.78-.05-4.07,1.1-4.07,4.59-1.6-2.1-4.42-1.83-5.11.17-.53-.58-1.31-.75-1.66-.19Z"/>
        <path class="cls-4" d="M92.35,81.05c5.12,1.33,7.44,5.86,2.82,5.68,3.88,2.76.84,6.59-3.17,5.26,1.55,1.88,1.22,6.42-2.83,4.6,3.12,3.24,7.52.7,6.1-2.34,3.19.58,6.41-.68,4.59-2.91,4.03.43,6.92-1.65,4.89-3.27,1.37.05,2.69.08,4.48.13,1.89.05,2.26-1.72.63-4.15s-7.2-6.21-12.44-7.1c-1.96-.33-4.2-.59-6.16-.71,2.06,1.19,5.09,4.44,1.09,4.82Z"/>
        <path class="cls-8" d="M93.28,141.88c2.61.86,2.91.48.54-2.99.17,1.12.1,2.49-.54,2.99Z"/>
        <path class="cls-8" d="M96.21,147.57c-.59-.79-1.13-1.78-1.48-2.63-.13-.32-.25-.63-.38-.93.23,2.31-.7,3.87-2.31,4.36,1.06.43,2.29.75,3.48.75s1.4-.59.69-1.55Z"/>
        <path class="cls-8" d="M86.97,147.37c.21.09.41.17.61.24,1.06.36,2.48.53,3.67.4-.86-.38-2.08-.99-2.53-1.14-.42-.14-1.34.11-1.75.5Z"/>
        <path class="cls-8" d="M5.72,132.26h0c-.56-1.98-2.87-3.02-3.78-3.02h-.05c-.39.69-.78,1.37-1.24,2.26-1.48,2.86-.28,3.47,2.15,2.26,1.05-.52,1.97-1,2.92-1.49Z"/>
        <path class="cls-8" d="M4.17,126.1c.29-.43.17-1.58.07-2.26-.78,1.1-1.4,2.46-1.79,4.39.76-.81,1.42-1.67,1.72-2.13Z"/>
        <path class="cls-8" d="M13.62,131.39c-1.01-.96-2.66-.59-3.47-.18.04.57.1.95.15,1.33.2,1.52,1.3,1.99,2.33.36.31-.49.64-.99.98-1.5h0Z"/>
        <path class="cls-10" d="M31.63,31.99c-1.17.77-2.6,1.67-4.01,2.47.35.55.62,1.23.76,1.97.8-1.45,2.33-2.59,3.66-3.25,1.18-.58,2.77-.92,3.98-.66-.32-1-.68-1.84-1.01-2.72-1.2.73-2.27,1.45-3.38,2.19Z"/>
        <path class="cls-10" d="M56.53,107.44c1.61-1.04,3.82-1.97,6.28-1.63-.52-.65-1.03-1.33-1.52-2.06-2.72.98-7.16,1.74-11.57,2.18.13,1.15.34,2.49.59,3.9.84.62,1.66,1.21,2.46,1.77.82-1.99,2.12-3.11,3.75-4.16Z"/>
        <g>
          <path class="cls-10" d="M105.39,89.35c.06-.43-.13-.87-.65-1.29,1.37.05,2.69.08,4.48.13-1.15-.03-6.01-.93-8.38-1.86,2.45,1.07,3.89,1.73,4.54,3.02Z"/>
          <path class="cls-10" d="M100.31,92.91c.15-.45.03-.98-.46-1.58.84.09,1.62.07,2.33-.04-1.68-.2-3.12-.52-4.57-1.26,1.38,1.03,2.29,1.79,2.71,2.88Z"/>
          <path class="cls-10" d="M93.52,92.81c.96,1.06,1.71,2.17,1.94,3.19.14-.54.1-1.13-.19-1.76.99.18,1.99.18,2.84.03-1.53.13-3.64-.81-4.58-1.47Z"/>
        </g>
        <g>
          <path class="cls-9" d="M69.02,96.02c.23-.57.21-1.32-.14-2.2,1.03.34,1.93.41,2.66.29-1.16.06-3.15-1.13-5.16-2.61,1.78,1.56,2.61,2.47,2.64,4.52Z"/>
          <path class="cls-9" d="M64.99,98.5c.17-.5.17-1.09-.06-1.72.7.31,1.35.46,1.92.47-1.56-.51-2.57-1.65-4.04-2.83,1.47,1.66,2.06,2.79,2.18,4.09Z"/>
          <path class="cls-9" d="M57.9,96.46c1.04,1.84,1.41,2.76,1.17,4,.28-.22.52-.51.69-.86.79.36,1.55.54,2.23.57-1.59-.55-2.75-1.73-4.1-3.7Z"/>
        </g>
      </g>
    </g>
  </g>
</svg>