<?xml version="1.0" encoding="UTF-8"?>
<svg id="Layer_2" data-name="Layer 2" xmlns="http://www.w3.org/2000/svg" width="67.5" height="90.99" viewBox="0 0 67.5 90.99">
  <defs>
    <style>
      .cls-1 {
        fill: #3e332c;
      }

      .cls-2 {
        fill: #ea5514;
      }

      .cls-3 {
        fill: #eeeae5;
      }

      .cls-4 {
        fill: #eab941;
      }

      .cls-5 {
        fill: #536d93;
      }

      .cls-6 {
        fill: #dcdddd;
      }

      .cls-7 {
        fill: #b8d2ea;
      }
    </style>
  </defs>
  <g id="Layer_1-2" data-name="Layer 1">
    <g>
      <path class="cls-5" d="M33.72,77.2c-3.84-.55-7.45.67-12.35,1.43-5.59.87-11.04-.83-13.16-2.42-2.23-1.67-1.45-3.16.35-3.38,2.76-.35,5.26-.63,6.74-1.66,1.8-1.24,2.13-4.55,1.59-7.18-.49-2.33-1.06-7.05-.69-11.18.48-5.45,1.1-8.28,4.42-13.8,3-4.99,6.49-7.59,8.7-13.04,2.11-5.22,1.79-11.94,5.11-17.46C38.49,1.7,45.12-.46,51.48.08c4.58.39,8.65,2.47,10.91,5.52,2.42,3.27,3.64,7.04,3.64,11,0,5.23-2.11,8.74-3.69,11.27-1.33,2.12-1.42,4.93-.73,6.68,1.11,2.8,4.74,7.68,5.66,15.97.96,8.66-1.1,15.92-5.89,21.26-4.32,4.82-9.43,6.44-15.51,6.79-5.59.32-9.25-.94-12.15-1.36Z"/>
      <path class="cls-3" d="M33.72,77.2c2.9.41,6.56,1.67,12.15,1.36,6.07-.35,11.19-1.97,15.51-6.79,4.79-5.34,6.85-12.6,5.89-21.26-.92-8.28-4.56-13.17-5.66-15.97-.69-1.75-.6-4.55.73-6.68,1.58-2.53,3.69-6.04,3.69-11.27-.3-2.81-.88-6.64-3.28-6.89-2.06-.22-2.77,1.81-3.81,3.35-.74,1.1-2.68,1.55-4.11-.06-1.56-1.76-3.96-3.88-7.24-3.53-3.68.39-6.25,3.21-7.08,7.21-.59,2.87.62,6.83,2.52,8.87,1.6,1.71,1.83,3.38-.35,4.83-2.21,1.47-5.89,4.32-9.66,9.09-3.87,4.88-7.73,11.69-7.97,19.04-.22,7.04,2.9,17.26,8.66,18.69Z"/>
      <path class="cls-5" d="M27.93,37.1c-1.3,1.21-6.52,4.46-12.14,5.98-4.11,1.11-8.97,1.06-11.88.78-2.89-.28-4.64-.41-3.62-2.76,2.01-4.65,8.72-7.66,14.59-8.84,4.83-.97,11.4-.55,13.75-2.21,1.02-.78,1.57-.23,1.71.8.14,1.04-.02,2.88-.37,3.84-.35.97-.78,1.31-2.03,2.39Z"/>
      <path class="cls-7" d="M25.46,37.84c-1.16.77-5.8,3.38-10.29,4.57-3.24.85-7.57.88-9.86.66-2.27-.22-3.01-.68-1.77-2.26,2.1-2.67,6.49-5.01,11.09-5.94,3.79-.76,7.36-.76,9.94-1.15,1.69-.26,2.99-.32,3.06,1.08.05.99-.53,1.96-2.16,3.04Z"/>
      <path class="cls-4" d="M61.12,26.91c.46.16.71.42.69.68-.08.74-1.05,1.45-1.92,1.95-.81.47-2.16.91-3.69.71-1.35-.18-2.21-.55-2.9-1.14-.55-.47-1.49-1.49-2.08-2.96-.03-.02-.07-.04-.1-.06-.57-.32-.69-.72.06-1.02,1.17-.48,2.8-1.55,4-2.49,1.47-1.13,2.88-1.26,3.93-.17,1.09,1.12,1.9,1.92,2.91,2.71.82.64.84,1.21-.33,1.62-.15.05-.35.11-.58.16h0Z"/>
      <path class="cls-2" d="M52.19,26.57c.93.35,2.15.65,3.37.76,2.01.18,4.32-.12,5.57-.42.85.3,1,.95-.04,1.26-1.04.31-2.43.43-4.24.21-1.69-.21-3.6-1.16-4.66-1.81Z"/>
      <path class="cls-4" d="M33.72,77.2c-.66,2.51-1.26,3.95-2.62,5.77-.58.78-1.47,1.7-1.52,2.45-.05.83.72,1.88,2.1,2.57s4.73,2.23,6.11,2.78c1.38.55,1.66-.04.92-.81-.74-.78-1.24-1.21-1.95-1.95-.57-.6-.31-.95.67-.74.95.2,2.51.75,3.64,1.05.78.21,1.29-.35.5-.93-1-.74-1.97-1.44-2.67-1.8-.69-.35-.57-.73.41-.62.98.1,1.83.07,2.73.1.92.03,1-.57.03-.98-.99-.43-2.5-.97-3.45-1.48-.78-.42-1.07-1.26-1.09-1.88-.03-1.17.03-2,.22-2.78v.02c-1.53-.29-2.85-.6-4.04-.77Z"/>
      <path class="cls-4" d="M51.06,77.86c1.54-.36,3.02-.86,4.42-1.55l.02.05c.31.47.88,1.1,1.43,1.5.83.6,1.6.37,2.73.09.6-.15,2.08-.77,3.04-1.03,1.14-.31,1.42.54.52.97-.65.31-1.43.62-2.19.92-.64.25-.5.62.04.6.69-.02,2.41-.36,3.49-.57s1.33.76.21,1.1c-.92.28-2.51.69-3.42,1.07-.66.28-.57.58-.02.59.56,0,2.01.04,3.07-.03s1.26.74.02,1c-1.67.35-5.62,1.49-7.23,2.02-1.32.44-2.54-.12-3.2-.97-.82-1.07-1.92-3.94-2.93-5.74Z"/>
      <g>
        <path class="cls-1" d="M50.51,20.84c-.21.89-.95,1.47-1.66,1.31-.71-.16-1.12-1.02-.91-1.9.21-.89.95-1.47,1.66-1.31.71.16,1.12,1.02.91,1.9Z"/>
        <path class="cls-1" d="M63.37,20.44c.07.91-.39,1.69-1.04,1.74-.65.05-1.24-.64-1.32-1.54-.07-.91.39-1.69,1.04-1.74.65-.06,1.24.64,1.32,1.54Z"/>
      </g>
      <path class="cls-6" d="M22.3,43.81c2.5-1.32,3.59-4.24,6.47-7.43-.23.21-.5.44-.83.73-1.05.99-4.69,3.3-9.02,4.95-.35.71-.66,1.38-.92,2.03,1.2.41,2.9.46,4.3-.28Z"/>
      <path class="cls-6" d="M8.2,76.21c2.12,1.59,7.57,3.28,13.16,2.42,4.9-.76,8.52-1.98,12.35-1.43,2.9.41,6.56,1.67,12.15,1.36,6.07-.35,11.19-1.97,15.51-6.79,4.44-4.96,6.54-11.57,6.05-19.43-.12,5.44-2.05,11.8-4.64,15.38-3.56,4.9-7.24,7.49-14.22,8.63-5.94.97-12.42.07-16.7-1.55-1.33-.5-1.9-.35-3.14.48-2.09,1.39-7.06,2.68-10.22,2.9-2.95.2-8.45-.28-11.46-3.22.21.39.58.82,1.16,1.25Z"/>
    </g>
  </g>
</svg>