<?xml version="1.0" encoding="UTF-8"?>
<svg id="Layer_2" data-name="Layer 2" xmlns="http://www.w3.org/2000/svg" width="99.4" height="158" viewBox="0 0 99.4 158">
  <defs>
    <style>
      .cls-1 {
        fill: #898989;
      }

      .cls-2 {
        fill: #3e332c;
      }

      .cls-3 {
        fill: #e60012;
      }

      .cls-4 {
        fill: #cfcbcd;
      }

      .cls-5 {
        fill: #b1adaa;
      }

      .cls-6 {
        fill: #eeeae5;
      }

      .cls-7 {
        fill: #f9f8f7;
      }
    </style>
  </defs>
  <g id="Layer_1-2" data-name="Layer 1">
    <g>
      <path class="cls-6" d="M79.98,48.51c-2.14-3.7-4.01-7.14-5.59-10.85-1.09-2.57-3.09-8-4.41-13-1.42-5.36-2.91-11.03-5.61-15.54-.17-1.48.24-3.81.74-5.1.5-1.28.97-2.68-.69-3.63-1.46-.83-5.59-.33-8.37,1.26-2.76-1.16-6.18-1.76-10.48-1.5-3.79.23-7.44,1.51-10.46,3.54-3.92-1.68-7.35-1.42-8.76.19-.88,1-.69,2.1-.26,3.68.61,2.28,1.22,3.74,1.68,6.1-1.56,6.31-1.35,9.25-1.78,12.56-.47,3.55-1.39,6.99-2.78,11.03-.79,2.29-3.01,6.56-5.79,11.94-6.1,6.56-11.15,13.69-12.95,19.12-1.24,3.74-1.55,8.26-.53,11.74C.65,91.66-.95,104.66.59,113.28c2.16,12.11,6.31,22.65,7.89,26.7.55,1.42.79,3.28-.43,4.1-2.77,1.85-6.95,6.5-3.25,10.83,4.01,4.69,14.32,3.04,18.67,1.46,4.85-1.77,9.13-6.34,10.86-11.19.66-1.85,1.29-4.14,1.75-5.85.65-2.42,1.84-3.33,4.08-4.08,2.48-.83,6.49-1.26,8.82-1.26,2.97,0,6.91.06,9.39.83,1.59.49,3.33,1.42,4.17,3.03.92,1.77,3.48,6.59,4.2,8.04,2.48,5.02,5.86,8.26,11.83,9.45,5.39,1.08,10.97,1.14,15.88-1.5,5.12-2.76,4.39-7.72,2.49-10.4-1.29-1.83-1.64-4.8-1.02-8.19,1.26-6.93,3.15-19.69,3.47-29.78.36-11.66-2.7-27.56-10.8-42.21-.08-1.79-.44-3.89-1.09-5.49-1.43-3.54-5.01-7.48-7.51-9.27Z"/>
      <path class="cls-4" d="M20.16,93.21c.16,2.05,1.1,5.99,1.97,8.07.35-1.46.59-2.4.79-3.43,1.1,2.21,1.02,5.99,1.26,8.94.39-1.69.71-2.32,1.14-4.25.32,2.84-.83,6.54.2,10.08-1.3-1.89-2.17-3.54-2.68-5.55.16,2.99,1.42,6.46,2.68,8.51-2.46-2.09-3.94-4.57-4.25-6.3q-.47,1.1-.32,2.99c-1.42-3.47-2.68-8.04-2.36-9.45.83,2.09,1.38,2.68,2.17,3.94-.79-2.68-1.69-5.36-1.69-6.62.79,1.58,1.3,2.88,1.85,3.58-.47-2.75-1.22-7.01-.75-10.51Z"/>
      <g>
        <g>
          <path class="cls-2" d="M38.03,17.78c-.04.88-.49,1.57-1.02,1.55-.53-.02-.92-.75-.89-1.63.04-.88.49-1.57,1.02-1.55.53.02.92.75.89,1.63Z"/>
          <path class="cls-2" d="M51.79,15.76c.27.84.07,1.65-.43,1.81-.5.16-1.13-.39-1.39-1.23-.27-.84-.07-1.65.43-1.81.5-.16,1.13.39,1.39,1.23Z"/>
          <path class="cls-4" d="M35.43,28.33c2.28,3.25,7.23,4.63,10.57,4.49,3.34-.14,9.03-2.78,11.37-6.06-.02,1.9-2.46,3.43-3.05,6.62-.03-1.21-.12-1.83-.18-2.45-.16.47-.43,2.26-.79,2.98-.97,1.95-2.57,2.94-4.1,3.62.56-1.11-.06-1.81.13-2.94-.96.91-1.54,1.69-1.72,3.12-1.28-.11-3.19-1.48-3.69-2.73-.47.82-.55,1.8-.28,2.72-.55-.2-1.52-.61-2.05-.98-.36-.25-.91-.76-1.41-2.13-.04.42-.02.82-.01,1.24-.81-.91-1.68-2.4-1.98-3.03,0,0,.07.88.42,1.8-1.3-1.69-1.65-3.84-3.23-6.26Z"/>
          <path class="cls-4" d="M88.3,69.34c-.63,4.18-2.28,8.59-6.43,11.81-2.69,2.09-6.73,4.25-9.77,3.07,1.01,1.89,3.1,3.07,4.4,3.43.74-1.18,1.47-2.01,1.49-2.6.19,1.65.97,3.43.93,4.85.97-.83,2.21-2.84,2.6-4.25,1.12,2.36,2.61,6.77,2.53,9.61,1.1-2.32,1.69-4.02.94-6.89.76,2.36,2.88,3.94,4.06,7.48.75,2.26,1.35,6.22,1.18,8-.24-1.38-.79-2.6-2.13-4.37.97,2.84,1.71,6.53,1.29,8.86-.66,3.72,1.65,4.93.76,8.51.87-1.65,1.23-3.78,1.27-5.2.17,2.24.5,6.62.09,8.63.62-.95,1.29-2.95,1.32-4.02.04,2.95-1.03,6.68.3,10.93.18-1.83,1.09-2.69,1.4-4.2.64,2.6.06,10.52-.6,13.12.32-.51,1.17-1.87,1.42-2.7-.54,2.59-1.05,4-.81,5.53.11.7.55,2.07,1.87,3.65-.87-1.84-1.05-4.42-.52-7.32,1.26-6.93,3.15-19.69,3.47-29.78.36-11.66-2.7-27.56-10.8-42.21.09,2.06-.04,4.51-.27,6.06Z"/>
          <path class="cls-6" d="M93.11,86.98c.73,1.87,2.02,6.78,1.97,8.5-.67-1.41-1.23-2.39-2.09-3.49.41,2.18,1.95,9.17,1.85,12.76.63-1.77.67-2.91.59-4.9.35,1.71,1.38,6.08,1.38,9.23.67-4.18,0-9.94.04-11.5.74,1.4,1.38,3.24,1.65,4.49.09-3.27-2.85-11.34-5.39-15.09Z"/>
          <path class="cls-4" d="M77.82,50.27c1.09,3.31-.11,12.52-2.09,15.83s-4.41,5.67-6.11,7.33-2.03,4.96.57,5.2c-4.29.29-2.52-7.02-1.36-9.2.18.85.4,1.4.38,2.19.98-1.42,1.59-3.54,1.78-4.57.37.71.91,1.18.97,1.81.76-1.73.65-3.39,1.46-4.49s2.11-2.21,2.53-3.15c.3.39.3.63.36,1.34.44-1.65.64-3.07.43-4.02.57-.55,1.34-5.26,1.09-8.27Z"/>
          <path class="cls-6" d="M89.01,70.56c1.22,2.8,2.04,5.71,2.4,6.81-1.1-1.18-1.69-1.62-2.44-2.32,1.22,2.01,3.12,6.22,3.74,9.29.2-1.38.04-2.36-.35-4.45,1.54,2.88,2.48,5.32,3.62,9.02-.67-4.65-2.68-11.7-3.42-13.27.31,1.97.43,2.64.43,3.62-.45-.94-2.29-6.54-3.98-8.7Z"/>
          <path class="cls-4" d="M62.39,39.19c1.24,2.42,3.19,6.2,4.06,9.03.54-2.52-.35-4.25-.32-5.51,1.2,2.05,2.12,8.82,1.87,12.13-1.47-3.94-4.44-12.29-5.61-15.65Z"/>
          <path class="cls-4" d="M63.78,47.75c1.03,2.68,1.35,8.04,1.79,9.45.35-1.42.39-2.52.43-4.1.59,1.58.61,6.46.08,8.66-.87-2.84-2.78-7.72-3.49-10.56.53.59,1.25,1.81,1.61,2.84.28-1.46-.11-4.73-.42-6.3Z"/>
          <path class="cls-4" d="M19.75,56.66c-1.18,2.32-2.14,7.29-1.55,9.93-.67-.55-1.16-.95-1.22-1.58-.35,2.13-.22,3.58.59,5.55.81,1.97,2.91,2.84,3.23,5.28.2,1.51,0,3.22-.57,3.77.18,2.13-.45,4.38-2.92,5.41,2.43-2.36,1.53-4.02,1.11-5.91,1.48-2.13,1.29-3.78-.32-5.67-1.6-1.89-3.18-4.49-2.89-6.62.29-2.13,2.83-8.27,4.53-10.16Z"/>
          <path class="cls-4" d="M31.37,36.57c-.81,1.3-2.61,5.83-2.89,7.64-.03-1.58.08-2.99.26-3.86-1.49,2.68-2.57,7.4-2.53,8.9-.53-.79-.74-1.57-.64-2.36-.62,2.44-1.07,7.25-.89,9.22.28-1.5,2.5-7.88,3.16-8.74.22.71.2,1.34.34,2.05.62-2.29,1.67-9.28,3.2-12.84Z"/>
          <path class="cls-4" d="M30,52.17c-1.02,1.58-1.54,4.39-1.73,5.65-.24-.74-.41-2.26-.15-3.13-.75,3.85-.73,7.18.45,10.19-.21-3.43.18-9.45,1.43-12.71Z"/>
          <path class="cls-4" d="M23.47,156.37c4.85-1.77,9.13-6.34,10.86-11.19.66-1.85,1.29-4.14,1.75-5.85.65-2.42,1.84-3.33,4.08-4.08,2.48-.83,6.49-1.26,8.82-1.26,2.97,0,6.91.06,9.39.83,1.59.49,3.33,1.42,4.17,3.03.92,1.77,3.48,6.59,4.2,8.04,2.48,5.02,5.86,8.26,11.83,9.45,5.39,1.08,10.97,1.14,15.88-1.5,3.25-1.75,4.14-4.39,3.87-6.77-.71,2.75-5.21,4.27-8.62,4.72-4.55.59-9.78-.59-12.02-2.01-1.49-.94-2.78-2.84-2.92-4.61-.17.39-.83,1.42-1.56,2.44.43-1.5,1-4.96,1-7.72-.03,1.1-1.52,3.7-2.41,4.49-.6-1.18-1.57-5.75-1.91-7.8-.49.63-1.2,3.62-1.32,4.96-.29-.79-1.25-3.31-1.59-5.2-.34,1.02-.17,3.15.03,4.57-1.9-2.36-3.06-11.74-3.16-14.1-.5,1.1-.49,3.47-1.1,5.43-1.17-3.31.41-11.82.7-14.02-.48,3.07-2.74,8.04-3.48,9.22.19-1.26.22-2.13.02-3.54-.53,1.97-3.21,4.88-4.18,5.99-.05-1.18-.28-1.42-.72-2.52-.65.79-1.65,2.68-1.53,3.94-1.86-1.18-3.88-2.21-5.17-3.86-.49.47-1.29,1.02-1.01,2.44-2.21,0-4.69-1.26-5.6-2.52.13,1.1-.05,1.73.71,2.84-1.69-1.42-4.46-4.1-5.35-5.83,0,0,.45,2.68.88,3.94-3.08-2.68-4.22-4.33-4.81-5.91.13.95.19,1.81.48,2.68-1.36-1.97-2.8-2.05-3.66-5.12-.11,1.1-1.04,1.34-.75,2.52-1.69-2.3-2.52-3.6-3.23-5.43-.13,1.73-.17,4.8.77,7.96-1.44-2.05-1.72-3.31-2.08-4.41.44,4.02,1.66,6.14,2.69,8.9-.69-.71-1.01-.55-1.77-1.58,1.4,3.39,1.43,4.02,1.59,6.85.43-1.18.61-1.97.72-3.07.54,3.39,1.08,6.46.86,8.9.81-.79,1.49-2.05,1.76-3.62.09,2.05-.72,5.68-1.62,7.68.89-.35,1.54-.83,2.33-1.65-.71,1.67-1.36,2.34-2.6,3.24-.65,2.19-1.66,4.41-4.11,5.99-3.72,2.39-6.76,2.53-10.07,2.69-3.31.16-7.09-.92-9.01-2.33-1.19-.88-1.72-1.67-1.81-3.16-.57,1.72-.43,3.63,1.15,5.48,4.01,4.69,14.32,3.05,18.67,1.46Z"/>
          <path class="cls-1" d="M7,152.44c.72-.89-.33-1.43-1.06-.79-.75.66-1.39,2.27-.8,3.6.45.45.94.85,1.5,1.18-.55-1.38-.3-3.16.37-3.99Z"/>
          <path class="cls-1" d="M10.18,152.75c-1.09.87-1.85,3.11-1.19,4.65.77.22,1.58.37,2.42.47-.63-1.14-.3-3.38.2-4.41.5-1.02-.54-1.42-1.43-.71Z"/>
          <path class="cls-1" d="M17.44,154.21c.12-1.5-1.45-1.52-2.09-.28-.67,1.3-.83,3.16-.09,4.03,1.02-.05,2.02-.16,2.98-.31-.75-.9-.93-1.91-.8-3.44Z"/>
          <path class="cls-1" d="M87.65,155.91c.78-.83.62-3.07-.15-3.85-.77-.79-1.77-.62-1.48.25.29.87.26,2.72-.93,3.74.86,0,1.71-.04,2.56-.14Z"/>
          <path class="cls-1" d="M91.47,151.66c.26.93.25,2.79-.39,3.57.76-.23,1.51-.5,2.25-.83.66-.83.27-2.59-.52-3.45-.63-.69-1.65-.4-1.34.71Z"/>
          <path class="cls-1" d="M69.95,79.41c-2.16.01-2.62,1.35-.2,2.44-.14-.69-.06-1.49.2-2.44Z"/>
          <path class="cls-1" d="M70.05,82.67c-1.34.16-1.24.85-.61,1.26.63.41,2.14.56,2.78.45-1.08-.47-1.78-1.03-2.17-1.71Z"/>
        </g>
        <path class="cls-5" d="M30.56,10.38c-.57.5-1.38-.03-1.77-.79-.47-.91-1.1-2.75-1.1-3.7,0-.75,1.06-1.46,2.76-1.06,1.42.33,2.37,1.01,2.44,1.85.08.87-1.69,3.15-2.32,3.7Z"/>
        <path class="cls-5" d="M58.63,4.58c-.49-1.21.85-1.81,2.01-2.16,1.27-.38,2.62-.61,3.22-.15.53.41.41,1.09.18,2.07-.18.74-.48,2-.9,2.79-.23.44-.91.75-1.79.32-.62-.3-2.27-1.76-2.72-2.87Z"/>
      </g>
      <path class="cls-7" d="M43.65,17.81c2.54-.28,4.65,1.09,6.06,3.51,1.28,2.2,2.09,4.09,1.62,5.91-.53,2.1-2.98,3.51-5.8,3.9-2.68.37-5.75-.65-6.7-2.68-.94-2.01-.39-4.6.44-6.66.97-2.42,2.48-3.78,4.37-3.99Z"/>
      <path class="cls-4" d="M6.17,83.98c-1.05-.97-1.78-2.34-2.24-3.91C.65,91.66-.95,104.67.59,113.28c2.16,12.11,6.31,22.65,7.89,26.7.1.26.19.54.26.83-.14-3.4-.72-6.49-1.53-9.16-.88-2.87-2.32-8.12-4.22-14.49.29.96,1.5,3.34,3.2,5.25-1.17-3.66-2.63-8.6-3.77-19.26.12,1.43.85,3.82,2.22,6.21-.99-4.46-1.66-14.65-.39-20.54-.2,1.43.42,2.07,1.33,3.82.08-2.87,1.06-3.66,3.02-5.57-.26.92.13,1.79.72,2.71.24-2.65,4.5-2.13,6.57-3.83-2.92,1.04-6.88.67-9.72-1.97Z"/>
      <path class="cls-1" d="M97.02,148.54c-.73-.79-1.36-.07-1.07,1.03.28,1.1.26,2.39-.32,3.51.93-.7,1.6-1.49,2.03-2.32h0c.24-.79-.06-1.59-.64-2.22Z"/>
      <path class="cls-4" d="M71.21,100.58c-1.71,2.72-2.6,4.79-3.13,7.27-.35-1.18-.29-2.27-.06-3.22-1.3,2.48-2.13,5.91-1.89,7.8.59-1.54,1.06-2.36,1.42-2.95,0,1.89-1.03,5.88-1.62,7.89,1.98-2.21,3.43-4.31,3.99-6.44-.83,1-1.42,1.51-1.42,1.51,0,0,1.12-3.51,1.95-5.08-1.21.89-1.59,2.13-1.59,2.13.24-2.01,1.57-6.74,2.36-8.89Z"/>
      <path class="cls-1" d="M18.49,83.5c.62-1.17.47-2.18.22-3.2.51.76,1.42,2.25,1.28,2.99-.12.65-.8.77-1.5.21Z"/>
      <path class="cls-1" d="M17.99,84.26c.46.63,1.09,1.13.46,1.58-.62.44-1.78.4-2.24,0,.4-.23.77-.5,1.1-.82.27-.26.49-.51.68-.75Z"/>
      <path class="cls-1" d="M18.73,78.62c.45-.76.68-1.46.69-2.14.54.74,1.13,2.22.72,2.87-.42.65-1.04-.09-1.41-.72Z"/>
      <path class="cls-1" d="M69.19,78.32c-.92-.57-1.08-1.79-.73-2.97-.7.83-1.51,2.39-1.25,3.06.26.67,1.57.17,1.98-.09Z"/>
      <path class="cls-3" d="M42.36,27.11c1.5-.33,2.29-1.58,1.98-3.14.35,1.55,1.61,2.29,3.13,2.27-.77,2.11-3.83,2.57-5.11.87h0Z"/>
      <path class="cls-2" d="M49.38,25.58c-1.3.52-2.58.54-3.51.05-.58-.31-.98-.81-1.19-1.46,1.4-.25,2.37-1.01,2.85-1.67.65-.9.16-2.15-.74-1.92-1,.26-2.11.48-3.02.61-.85.12-1.64.2-2.43.23-.79.03-1.18,1.15-.16,1.96.79.62,1.7.94,2.95.84.1.82-.1,1.53-.63,2.03-.72.68-1.91.86-3.25.51-.14-.04-.27.04-.31.18-.03.13.05.27.18.31.49.13.96.19,1.41.19.93,0,1.74-.28,2.32-.82.41-.38.67-.88.78-1.44.26.37.61.68,1.03.9,1.06.56,2.48.54,3.92-.03.13-.05.19-.2.14-.32-.05-.13-.2-.19-.33-.14Z"/>
      <path class="cls-4" d="M73.81,117.55c-.16,1.42-1.13,5.28-1.59,6.7-.46,1.42-.61,2.97-.3,4.73.08-1.16.32-2.52.71-3.15.81,1.62.47,4.8.24,6.14,1.36-2.21,1.48-5.24,1.42-7.48-.04-1.35-.32-4.88-.47-6.93Z"/>
      <path class="cls-4" d="M20.16,114.14c.47,2.13,1.54,5.04,2.01,5.91-.08-1.02-.08-2.29-.24-2.99.95,1.73,1.42,4.41,1.58,5.28.16.87.73,3,1.79,4.45-1.57-1.09-3.76-4.69-4.23-6.1,0,.63.39,1.81.71,2.84-.87-1.18-1.5-3.31-1.65-4.49-.16-1.18-.28-2.84.04-4.89Z"/>
    </g>
  </g>
</svg>