<?xml version="1.0" encoding="UTF-8"?>
<svg id="Layer_2" data-name="Layer 2" xmlns="http://www.w3.org/2000/svg" width="246.76" height="195.09" viewBox="0 0 246.76 195.09">
  <defs>
    <style>
      .cls-1 {
        fill: #acbcc6;
      }

      .cls-2 {
        fill: #fff;
      }

      .cls-3 {
        fill: #a4b3ba;
      }

      .cls-4 {
        fill: #493832;
      }

      .cls-5 {
        fill: #929fa5;
      }

      .cls-6 {
        fill: #f7cdcb;
      }
    </style>
  </defs>
  <g id="Layer_2-2" data-name="Layer 2">
    <g>
      <path class="cls-5" d="M69.3,127.43c-.13,3.1.54,6.45,2.83,8.54.31.28.69.55,1.11.51.42-.04.77-.57.51-.89.34.9,2.05.44,1.88-.51.32.5,1.18.2,1.38-.35.2-.56-.01-1.17-.18-1.73-.58-1.93-.63-4.09.24-5.92,1.27-2.67,4.24-4.13,7.13-4.75,2.89-.62,5.91-.62,8.76-1.39,2.86-.77,5.71-2.55,6.58-5.38,1.16-3.78-1.88-7.87-5.65-9.07-11.92-3.8-24.15,10.02-24.6,20.95Z"/>
      <path class="cls-5" d="M154.11,96.76c-1.84,3.76-2.91,7.91-2.99,12.09-.17,8.7,3.82,16.84,6.35,25.16.85,2.79,1.54,5.68,1.37,8.59s-1.32,5.87-3.6,7.69c-.64.51-1.39.97-1.67,1.74-.28.77.37,1.86,1.14,1.6-.76.11-.68,1.41.04,1.69s1.51-.19,2.02-.76c-.12.38-.23.77-.35,1.15.18.67.97,1.03,1.66.96.69-.07,1.31-.46,1.89-.85,14.36-9.53,26.87-21.83,36.64-36.03,3.63-5.28,6.97-11.09,7.37-17.49.51-8.3-4.72-16.74-12.52-19.66-13.28-4.97-31.07,1.31-37.34,14.11Z"/>
      <path class="cls-5" d="M55.31,8.41c5.24-6.36,14.08-9.79,22.1-7.88,7.41,1.77,13.46,7.95,15.6,15.26,2.15,7.31.54,15.5-3.73,21.81s-11.05,10.75-18.4,12.73c-1.17.32-2.4.58-3.59.34-1.02-.2-1.93-.75-2.8-1.33-13.87-9.22-20.8-26.84-9.18-40.94Z"/>
      <path class="cls-1" d="M43.37,28.46c-13.78,4.35-28.07,9.19-42.35,7.01-.78,4.85.9,9.75,3.07,14.16,9.09,18.51,26.77,31.72,45.96,39.25,5.02,1.97,10.23,3.61,15.6,4.02,11.16.83,22.52-4.03,29.9-12.45,7.38-8.42,10.72-20.14,9.25-31.23-.48-3.65-1.47-7.27-3.35-10.43-5.02-8.45-11.86-14.62-21.68-15.9-12.35-1.62-24.74,1.89-36.41,5.57Z"/>
      <path class="cls-1" d="M91.22,120.25c6.66,4.56,14.32,7.43,22.02,9.84,14.02,4.39,28.69,7.41,43.34,6.38,12.31-.86,24.49-4.64,34.77-11.46,6.7-4.45,12.66-10.29,16.17-17.53,3.5-7.24,4.33-15.99,1.14-23.37-2.09-4.85-5.78-8.89-10-12.06-8.41-6.32-18.9-9.35-29.35-10.49-10.45-1.14-21.01-.5-31.52-.17-13.75.44-25.62,1.65-41.03-3.65-8.67-2.98-19.4,2.69-26.78,8.14-4.89,3.61-7.65,9.13-9.71,14.7-2.71,7.3-1.41,8.18,4.06,13.28,9.19,8.56,16.42,19.23,26.89,26.39Z"/>
      <path class="cls-1" d="M98.22,12.54c8.19-.88,16.92,2.84,21.31,9.81,4.06,6.45,4.07,15.09.49,21.82s-10.44,11.47-17.91,12.99c-7.47,1.52-15.41-.03-22.06-3.75-1.06-.59-2.12-1.27-2.8-2.26-.59-.86-.86-1.89-1.08-2.91-3.48-16.29,3.88-33.74,22.05-35.7Z"/>
      <path class="cls-6" d="M98.19,23.62c2.38,0,4.82.38,6.87,1.58,3.53,2.06,5.37,6.42,4.95,10.48-.42,4.06-2.87,7.75-6.12,10.22-4.44,3.39-10.59,4.62-15.84,2.7-.82-.3-1.66-.71-2.16-1.43-1.44-2.05.64-4.74.7-7.25.04-1.68-.86-3.22-1.42-4.82-2.54-7.22,7.44-11.49,13.01-11.49Z"/>
      <path class="cls-5" d="M92.88,56.23c4.04.73,8.2.62,12.28.12-.2,1.62-.39,3.25-.59,4.88-5.72.46-11.9.33-16.62-2.95-2.83-1.96-4.86-4.86-6.75-7.68,2.44,3.31,7.84,4.94,11.69,5.63Z"/>
      <path class="cls-1" d="M200,76.46c3.99,4.26-1.83,8.82,4,9.09,13.6.63,26.68,10.18,31.49,18.08,6.05,9.92,8.59,23.53,4.59,34.44s-10.67,18.63-24.66,24.3c-20.85,8.45-44.13,6.36-66.26,10.39-3.87.7-7.83,1.72-10.92,4.16s-5.07,6.66-3.84,10.4c1.23,3.75,5.21,5.93,9.09,6.68,3.88.75,7.89.43,11.78,1.09-2.98-1.08-6.21-1.44-9.05-2.84s-5.32-4.37-4.7-7.48c.68-3.41,4.48-5.08,7.84-5.99,13.11-3.53,26.86-3.56,40.33-5.29,7.3-.94,14.54-2.38,21.64-4.31,5.4-1.47,10.78-3.24,15.59-6.1,11.23-6.66,18.59-19.15,19.69-32.15s-3.83-26.26-12.63-35.9c-8.81-9.64-21.26-15.68-34.2-17.38.78.43,1.29,1.33,1.24,2.23l-1.01-3.41Z"/>
      <path class="cls-3" d="M122.12,127.91c12.16,3.72,25.2,4.12,37.77,2.18,8.68-1.34,17.45-3.91,24.26-9.47.92,2.55,1.84,5.11,2.76,7.66-16.58,8.15-35.38,11.72-53.79,10.23-9.31-.75-19.13-3.11-25.51-9.94-1.45-1.55-2.74-3.52-2.48-5.62.18-1.47,1.74-3.15,3.33-3.04,1.52.11,1.86,1.43,2.8,2.42,2.76,2.91,7.12,4.44,10.86,5.59Z"/>
      <path class="cls-1" d="M163.44,108.15c.45,4.16,1.75,8.24,3.92,11.82,4.49,7.45,12.21,12.21,18.79,17.9,2.2,1.91,4.33,3.99,5.74,6.54,1.4,2.56,2.01,5.68,1.05,8.43-.27.77-.66,1.57-.49,2.37.17.8,1.3,1.38,1.82.75-.58.5.18,1.56.93,1.41.75-.15,1.18-.96,1.31-1.72.1.39.21.77.31,1.16.51.48,1.37.36,1.92-.07s.86-1.09,1.14-1.72c7.07-15.72,11.1-32.8,11.8-50.02.26-6.4-.01-13.1-3.09-18.72-4-7.3-12.92-11.65-21.07-9.96-13.88,2.87-25.6,17.67-24.08,31.84Z"/>
      <path class="cls-1" d="M99.76,153.07c-.35,1.07-.74,2.23-.34,3.29.39,1.05,2.01,1.63,2.65.7.05.47.1.95.14,1.42,1.04.04,2.04-.83,2.15-1.87.02.45.05.91.07,1.36,1.32.67,2.56-1.02,3.07-2.41,2.65-7.16,4.91-14.46,6.77-21.86.89-3.55,1.7-7.16,1.76-10.82.13-8.47-4.44-17.28-12.23-20.61-3.65-1.56-8.16-1.77-11.37.58-6.96,5.09-.31,11.68,2.72,16.38,4.04,6.29,6.28,13.73,6.43,21.2.09,4.28-.5,8.58-1.82,12.65Z"/>
      <path class="cls-3" d="M162.37,120.35c-1.34-4.5-1.74-9.24-1.67-13.93.07-4.72.7-9.7,3.57-13.44-2.04,11.72,1.26,24.27,8.81,33.47.62.75,1.29,1.56,1.37,2.53.08.95-.46,1.87-1.18,2.51-5.21,4.61-9.81-7.45-10.91-11.13Z"/>
      <path class="cls-3" d="M115.87,117.27c.63,3.06,1.26,6.15,2.42,9.05,1.16,2.91,2.87,5.66,5.33,7.59-2.96.02-9.03,1.44-8.94-2.99.09-4.5,2.13-9.08,1.19-13.65Z"/>
      <path class="cls-3" d="M41.46,82.19c5.95,1.27,11.98,2.18,18.04,2.72,5.12.46,10.32.66,15.38-.29,5.06-.95,10-3.13,13.55-6.84-1.84,3.13-4.48,5.69-7.03,8.27-2.55,2.58-5.08,5.28-6.64,8.55s-.74,8.03.93,11.24c-2.02-1.85-5.29-4.45-7.31-6.3-1.8-1.65-3.61-3.31-5.03-5.28-.23-.33-.47-.67-.79-.91-.43-.31-.97-.4-1.49-.49-12.09-2.1-22.8-8.85-33.14-15.46,3.88,2.48,9.04,3.83,13.51,4.79Z"/>
      <path class="cls-5" d="M57.92,30.81c2.15-1.53,4.96-2.31,7.49-1.55s4.56,3.3,4.25,5.92c-.2,1.64-1.21,3.05-2.27,4.32-1.32,1.58-2.79,3.08-4.56,4.12-2.77,1.62-9.06,2.38-9.29-2.2-.2-4.11.91-8.15,4.38-10.61Z"/>
      <g>
        <path class="cls-4" d="M55.76,35.05c-1.48,1.27-2.22,3.29-2.13,5.24.04.84.25,1.72.81,2.35.65.72,1.66,1,2.62,1.02,1.9.04,3.82-.86,4.93-2.4,1.14-1.59,1.54-4.75.18-6.36-1.54-1.83-4.83-1.2-6.42.15Z"/>
        <path class="cls-2" d="M61.1,36.46c-.62-.59-1.51-.87-2.36-.76-.85.11-1.63.63-2.07,1.36-.17.28-.3.61-.26.95.03.33.26.66.59.73.59.13,1.08-.59,1.69-.56.32.01.59.23.9.33.53.18,1.16-.01,1.49-.46.34-.45.35-1.11.03-1.56v-.02Z"/>
      </g>
      <path class="cls-4" d="M1.13,44.19c-.56-2.18-.93-4.41-1.09-6.65-.06-.81-.08-1.68.35-2.37.47-.74,1.4-1.1,2.28-1.12.88-.02,1.74.25,2.58.52.67.21,1.34.43,2,.64,1.18.38,2.47.83,3.11,1.9.66,1.1.35,2.67-.68,3.43-.75.56-1.74.67-2.65.89-.91.22-1.88.68-2.21,1.56-.2.54-.1,1.14.04,1.7.14.56.34,1.11.34,1.69,0,.58-.23,1.2-.74,1.47-1.68.89-3.07-2.6-3.34-3.65Z"/>
      <path class="cls-4" d="M19.08,69.45c8.14.96,16.47-1.93,22.32-7.65.78-.76-.41-1.95-1.19-1.19-5.56,5.44-13.42,8.07-21.13,7.16-1.07-.13-1.06,1.55,0,1.68h0Z"/>
      <path class="cls-4" d="M39.65,60.24s.11-.05.11-.05c-.1.04-.12.05-.06.02.02,0,.04-.02.06-.02.09-.03.17-.06.26-.09.08-.02.16-.04.24-.06.05-.01.1-.02.15-.03.03,0,.16-.01.04,0-.13,0,.04,0,.07,0,.04,0,.08,0,.12,0,.09,0,.19,0,.28,0,.09,0,.18.01.28.02.11,0,.01-.01-.04,0,.05,0,.11.02.15.03.17.03.34.08.51.13.05.02.1.03.15.05.02,0,.15.06.04.02-.11-.05.02.01.04.02.05.02.09.04.14.07.16.08.3.18.45.28.09.06-.12-.1,0,0,.03.03.06.05.09.08.08.07.15.14.22.22.3.32.89.33,1.19,0,.31-.34.33-.85,0-1.19-1.37-1.43-3.59-1.77-5.36-.91-.4.19-.53.79-.3,1.15.26.41.73.51,1.15.3h0Z"/>
    </g>
  </g>
</svg>