<?xml version="1.0" encoding="UTF-8"?>
<svg id="Layer_2" data-name="Layer 2" xmlns="http://www.w3.org/2000/svg" width="94.31" height="96.59" viewBox="0 0 94.31 96.59">
  <defs>
    <style>
      .cls-1 {
        fill: #e2a041;
      }

      .cls-2 {
        fill: #3e332c;
      }

      .cls-3 {
        fill: #ae7939;
      }

      .cls-4 {
        fill: #eeeae5;
      }

      .cls-5 {
        fill: #826b5b;
      }

      .cls-6 {
        fill: #ccc;
      }

      .cls-7 {
        fill: #dcdddd;
      }
    </style>
  </defs>
  <g id="Layer_1-2" data-name="Layer 1">
    <g>
      <path class="cls-1" d="M18.53,80.63c.22.9-.11,1.53-.88,2.07-1.77,1.23-2.45,2.97-2.56,4.63-.25,3.91,2.99,6.1,7.31,5.52.53,1.14,1.55,2.09,2.95,2.6,4.27,1.54,9.3,1.55,13.43,0s3.62-4.65,3.62-8.26,2.15-6.18,6.8-13.21c3.89.68,6.16,1.11,10.8,1.42,5.08.34,8.39.38,9.51,3.1.49,1.17.68,2.22.89,4.27.07.72-.12,1.16-.51,1.65-2.47,3.07-.69,6.34,2.98,6.91,5.3.82,8.95-.17,11.02-2.76,2.07-2.58,1.55-6.54-.69-11.19-1.31-2.71-3.1-7.23-2.58-10.85.52-3.62,3.14-6.2,1.03-12.91-2.11-6.71-9.81-8.78-12.91-9.3s-8.78-2.58-10.49-7.36c-2.19-4.73-8.46-11-24.41-11-13.55,0-17.36,11.82-18.82,19.05-1.55,7.75-.91,14.43-.09,19.97.86,5.77,2.98,13.11,3.59,15.67ZM28.25,67.3c1.07.74,2.22,1.35,3.43,1.79-.92,2.87-1.38,5.88-2.72,9.7-.58-3.23-.81-7.79-.71-11.49Z"/>
      <path class="cls-1" d="M82.35,59.93c.22-1.68.13-3.69-.7-6.34,5.16,1.03,8.61-2.22,5.68-8.26-1.22-2.52-2.94-4.82-4.61-6.65-2.25-2.47-3.95-6.2-2.84-10.42.75-2.82,2.25-4.74,3.51-5.85,2.27-1.98,4.46-1.99,5.38-.79.82,1.07.48,2.76-1.39,4.41-1.03.9-1.73,1.88-2.14,2.97-.9,2.43-.42,4.37,1.2,6.48,1.52,1.98,3.34,3.85,5.28,6.5,3.8,5.2,3.02,11.68.05,14.52-2.61,2.5-5.3,3.43-9.43,3.43Z"/>
      <path class="cls-1" d="M51.54,74.37c2.64.45,4.82.77,8.46,1.01,2.14.14,3.96.23,5.44.49-1.53,2.24-2.76,5.67-2.49,7.99.26,2.24-.6,4.06-2.53,4.71-2.72.93-5.98.91-8.45.03-1.76-.63-2.29-2.16-1.6-3.62.31-.65.9-1.16,1.67-1.79.77-.63,1.17-1.93,1.34-3.31.2-1.65.45-3.84-1.84-5.51Z"/>
      <g>
        <path class="cls-4" d="M31.68,69.09c.55-1.73,1.27-3.4,2.45-5.16,2.84-4.25,5.97-8.34,6.1-14.02-.05-3.04-4.79-5.53-9.98-5.53s-9.28.55-10.39,3.73c-.84,2.62-.46,6.06.86,9.43,1.47,3.74,4.1,7.4,7.53,9.76,1.07.74,2.22,1.35,3.43,1.8Z"/>
        <path class="cls-2" d="M57.16,51.84c.92-1.77,2.3-4.98,2.72-7.05.28-1.4.62-3.1.69-4.37,1.14,1.09,2.5,1.93,3.85,2.54-.24.91-.64,1.99-.94,3.07-.55,1.94-2.18,5.6-3.46,7.65-2.4,3.87-5.99,8.3-10.46,10-1.73.66-1.63-.51-.69-1.24,3.32-2.58,6.36-6.87,8.3-10.6Z"/>
        <path class="cls-2" d="M62.69,61.98c2.58-3.5,4.75-8.99,5.44-11.34.5-1.71,1.15-4.28,1.36-6.21,1.19.24,2.78.67,4.44,1.38.1.54.17,1.07.29,1.5.28.97-.83,2.63-1.66,4.01-.83,1.38-1.11,2.63-1.66,4.43s-4.98,5.95-7.19,7.7c-1.77,1.4-2.41.42-1.02-1.47Z"/>
        <path class="cls-2" d="M69.42,64.84c2.14-1.31,5.26-3.73,6.82-5.81.92-1.22,2.99-5.6,3.9-8.46.63.89,1.15,1.89,1.51,3.03.21.66.37,1.28.49,1.87-.93,2.51-2.59,4.51-3.59,5.51-1.11,1.11-5.74,4.43-8.3,4.98-1.74.38-1.62-.62-.83-1.11Z"/>
        <path class="cls-2" d="M73.67,68.81c.74.18,2.4-.18,3.59-.74.92-.43,2.5-1.34,3.51-2.37-.06.27-.11.54-.15.81-.17,1.22-.08,2.55.16,3.87-.86.79-1.59.95-2.51,1.1-1.11.18-3.14-.09-4.61-.65-1.47-.55-.74-2.21,0-2.03Z"/>
        <path class="cls-2" d="M77.35,78.72c1.24-.5,3.74-2.93,4.64-4.15.4,1.04.82,1.99,1.21,2.79.11.23.21.45.31.68-1.21,1.66-4.56,2.71-6.62,2.71s-.92-1.48.46-2.03Z"/>
        <path class="cls-2" d="M34.72,69.83c.83,1.59.57,2.9-.74,1.73-.88-.79-1.6-1.93-2.17-2.84.42-1.24.94-2.46,1.66-3.71,0,.96.47,3.33,1.25,4.83Z"/>
        <path class="cls-2" d="M37.99,61.94c.38,1.57.74,3.18,1.34,3.92.92,1.14.89,2.07-.46,1.71-1.38-.37-2.35-1.52-2.9-2.4-.59-.93-.9-1.53-1.08-2.35,1.09-1.61,2.17-3.21,3.08-4.92-.01,1.59-.34,2.56.03,4.04Z"/>
        <path class="cls-2" d="M50.93,71.24c.33-.53.64-1.05.94-1.56.89-1.52,2.51-4.37,2.9-5.4-1.84,2.26-3.73,4.66-7.24,5.72-1.9.57-3,1.75-4.38,2.12-1.18.31-1.89,1.48-.09,1.48s5.11-.7,7.87-2.36Z"/>
        <path class="cls-2" d="M51.74,29.98c1.06,2.96,1.77,7.49.81,12.6-1.42,7.54-5.6,13.14-8.09,15.49-2.49,2.35-3.29.98-1.87-.83,2.07-2.63,4.36-9.1,4.84-10.37,2.03-5.46.68-13.76-1.64-19.42,2.35.68,4.32,1.56,5.94,2.54Z"/>
        <path class="cls-2" d="M14.22,50.77c.14-1.85.4-3.78.79-5.78.16-.82.36-1.69.6-2.6.55,4.74,1.72,8.43,2.23,9.46.55,1.11,0,1.8-.97.97-.68-.58-1.83-1.23-2.65-2.05Z"/>
        <path class="cls-2" d="M18.81,61.94c1.38,1.38,1.38,2.35-.41,1.38-1.35-.73-2.93-1.84-4.05-3.06-.16-1.7-.27-3.49-.27-5.37,1.4,2.55,3.47,5.78,4.74,7.04Z"/>
        <path class="cls-2" d="M84.51,40.83c-.59-.77-1.19-1.49-1.79-2.15-.91-1-1.72-2.21-2.31-3.57,1.55.24,3.8-.16,5.05-1.17.26.51.59,1.02.98,1.54.68.89,1.43,1.77,2.22,2.69-.86,1.17-2.65,2.31-4.16,2.66Z"/>
        <path class="cls-2" d="M87.39,26.04c-1.03.9-1.73,1.88-2.14,2.97-.04.12-.08.23-.12.35-1.69-.23-3.96-.89-5.06-1.7.79-2.48,2.15-4.21,3.32-5.23,2.27-1.98,4.46-1.99,5.38-.79.82,1.07.49,2.76-1.39,4.41Z"/>
        <path class="cls-2" d="M94.3,49.47c-1.91.27-3.92.19-5.9-.21-.02-1.13-.35-2.45-1.07-3.94-.04-.08-.08-.16-.12-.24,1.9-.28,3.87-1.37,5-2.41,1.41,2.2,2.05,4.58,2.09,6.8Z"/>
        <path class="cls-2" d="M87.09,52.58c1.95.63,3.98,2.36,4.82,3.8-.04.04-.08.08-.12.12-1.94,1.85-3.92,2.84-6.5,3.23-.07-2.01-.94-4.38-2.14-5.96,1.63.06,3-.36,3.93-1.2Z"/>
      </g>
      <path class="cls-4" d="M70.38,83.42c.68.13,1.44.59,1.74,1.25,1.11-.28,2.9.23,4.31,1.48.74-.65,2.42-1.04,3.87-.65,1.02-1.02,3.35-1.55,4.89-1.01,0,1.58-.41,2.95-1.3,4.07-2.07,2.58-5.72,3.57-11.02,2.76-3.67-.56-5.45-3.84-2.98-6.91.25-.32.42-.61.49-.98Z"/>
      <path class="cls-4" d="M52.05,83.19c.17-.14.31-.31.44-.5.6,0,1.18.17,1.45.62.76-.46,1.75-.48,2.3.62.62-.55,2.74-.21,3.53.99.79-.45,2.11-.49,3.21.07-.11,1.71-.97,3.05-2.56,3.58-2.72.93-5.98.91-8.45.03-1.76-.63-2.29-2.16-1.6-3.62.31-.65.9-1.16,1.67-1.79Z"/>
      <path class="cls-4" d="M49.19,73.96c.91-1.38,1.86-2.88,2.67-4.27,1.16,1.16,4.71,3.19,8.2,3.32,2.32.09,4.66-.83,6.45.51,1.52,1.13,1.96,2.73,2.99,4.97h0c-1.13-2.72-4.44-2.76-9.51-3.1-4.65-.31-6.91-.74-10.8-1.42h0Z"/>
      <path class="cls-4" d="M15.08,87.32c.05-.84.26-1.71.68-2.52,1.08-.46,2.23-.34,3.19.57,1.14-.28,3.03.34,3.46,1,.73-.47,2.14-.74,3.33-.69.04-.02.09-.05.13-.07.11-.21.23-.42.34-.62,1.69-.07,4.82,1.39,5.61,3.14.9-.62,2.35-.83,4.08.69,1.12-1.07,4.72-1.11,6.52-.11.03,2.94-.11,5.39-3.63,6.71-4.13,1.55-9.16,1.54-13.43,0-.57-.2-1.07-.49-1.5-.82,0,0,0,0,0,0-.12-.1-.24-.2-.36-.3-.01-.01-.02-.02-.03-.03-.1-.1-.2-.19-.29-.3-.03-.03-.05-.06-.07-.09-.08-.09-.15-.18-.22-.27-.04-.06-.08-.12-.12-.17-.05-.07-.09-.14-.14-.21-.08-.13-.15-.27-.22-.41-4.32.58-7.57-1.61-7.31-5.52Z"/>
      <g>
        <path class="cls-5" d="M70.86,90.63c-.06-1.05.36-2.18.78-2.7.55-.69,1.38-.62,1.04.35-.28.77-.38,1.95-.09,2.98-.64-.13-1.22-.34-1.72-.62Z"/>
        <path class="cls-5" d="M76.02,89.04c-.11.67-.12,1.63.05,2.53-.53,0-1.07-.03-1.64-.08-.06-1.09.17-2.18.52-2.8.42-.74,1.23-.65,1.06.35Z"/>
        <path class="cls-5" d="M68.85,88.14c.12-.68.34-1.31.56-1.72.43-.82,1.21-.68.78.32-.34.8-.56,2.04-.37,3.11-.48-.49-.81-1.07-.97-1.71Z"/>
        <path class="cls-5" d="M52.05,88.62c.1-.77.4-1.49.71-1.87.53-.66,1.31-.59.98.33-.18.51-.28,1.21-.24,1.92-.51-.1-1-.22-1.46-.38Z"/>
        <path class="cls-5" d="M54.93,89.21c.05-.75.24-1.45.49-1.88.4-.7,1.16-.61,1.01.33-.07.44-.1,1.01-.06,1.59-.48.01-.97,0-1.44-.04Z"/>
        <path class="cls-5" d="M50.36,87.31c.11-.7.33-1.36.55-1.78.41-.78,1.15-.64.74.3-.27.62-.45,1.53-.41,2.4-.39-.25-.69-.57-.88-.92Z"/>
        <path class="cls-5" d="M17.39,92c-.02-.97.27-1.97.58-2.47.46-.74,1.26-.69,1.02.33-.17.74-.18,1.84.07,2.82-.61-.16-1.17-.38-1.66-.68Z"/>
        <path class="cls-5" d="M20.28,92.89c-.04-.99.11-1.95.39-2.52.36-.76,1.16-.66,1.07.35-.05.59-.02,1.38.11,2.17-.54.04-1.07.04-1.57,0Z"/>
        <path class="cls-5" d="M15.4,89.61c.08-.62.22-1.18.38-1.57.36-.85,1.12-.71.78.32-.24.73-.34,1.8-.21,2.79-.41-.44-.73-.96-.95-1.54Z"/>
        <path class="cls-5" d="M25.89,95.62c.16-.97.48-1.84.88-2.33.7-.87,1.6-.79,1.42.49-.1.7-.11,1.54-.05,2.43-.76-.15-1.52-.35-2.25-.59Z"/>
        <path class="cls-5" d="M23.08,91.39c.55-1.03,1.52-.85.98.4-.29.67-.51,1.6-.55,2.54-.01,0-.02-.02-.03-.02-.01-.01-.02-.02-.03-.03-.1-.1-.2-.19-.29-.3-.03-.03-.05-.06-.07-.09-.08-.09-.15-.18-.22-.27-.04-.06-.08-.12-.12-.17-.05-.07-.09-.14-.14-.21-.04-.08-.08-.15-.12-.23.16-.64.37-1.21.59-1.62Z"/>
        <path class="cls-5" d="M30.91,96.55c.15-.88.37-1.68.59-2.34.34-1.02,1.37-.83,1.34.43-.01.55.03,1.23.09,1.93-.67.03-1.35.02-2.02-.02Z"/>
      </g>
      <path class="cls-7" d="M21.62,92.91c-1.04-.89-1.02-2.68-.87-3.42.26-1.27,1.52-3.53,3.92-4.14.6-.76,1.96-2.44,3.32-4.03-.47,1.01-1.5,3.17-2.12,4.3-3.65,1.71-4.57,4.86-3.47,7.22-.26.03-.52.06-.78.07Z"/>
      <path class="cls-2" d="M54.72,76.87c-.38-.05-.96-.27-1.58-.56-.29-.68-.78-1.35-1.6-1.95,1.05.18,2.03.34,3.06.48.28.42.58.78.86,1.06.51.51.28,1.1-.74.97Z"/>
      <path class="cls-7" d="M32.48,66.95c-1.63-.45-3.31-1.28-4.84-2.2-2.9-1.75-4.82-3.69-6.92-7.21,1.17,3.99,2.38,7.41,4.18,10.52,1.1,1.9,2.6,3.56,3.41,4.44-.09-1.77-.1-3.57-.06-5.2,1.07.74,2.22,1.35,3.43,1.79.23-.72.49-1.43.8-2.14Z"/>
      <path class="cls-1" d="M6.37,17.55c.55-1.38.97-2.49,4.42-6.5,1.95-2.26,4.73-4.9,8.97-6.79C15.2.94,9.06-.63,4.85.26.43,1.21-1.45,5.73,1.25,8.91c.83.97,1.65,2.25,2.35,3.32,1.86,2.8,2.76,5.33,2.76,5.33Z"/>
      <path class="cls-1" d="M58.78,17.55c-.55-1.38-.97-2.49-4.42-6.5-2-2.32-4.89-5.05-9.32-6.95C49.59.78,55.67-.63,59.88.26c4.42.94,6.29,5.46,3.59,8.64-.83.97-1.7,2.22-2.35,3.32-1.51,2.53-2.35,5.33-2.35,5.33Z"/>
      <path class="cls-1" d="M32.57,51.01c-6.08,0-12.52-2.49-14.86-4.15-2.35-1.66-5.66-5-6.7-7.06-.59.07-1.12.15-1.72.28-1.66.35-2.75-.23-2.94-1.35-.11-.67-.09-1.64.24-3.05-.4.09-.84.17-1.24.24-1.29.23-1.93-.92-1.61-2.02.32-1.11,1.04-2.13,2.04-3.25-1.05.26-1.99.56-2.78.79-1.17.35-1.94-.74-1.2-2.17.55-1.06,1.87-2.74,3.93-3.83-.67.07-1.2.17-1.56.25-.94.21-1.16-.86-.89-2.01.36-1.57,1.82-4.65,3.08-6.14.55-1.38.97-2.49,4.42-6.5,1.95-2.26,4.73-4.9,8.97-6.79,3.3-1.47,7.47-2.47,12.81-2.47s9.22.94,12.46,2.32c4.44,1.9,7.33,4.63,9.32,6.95,3.46,4.01,3.87,5.12,4.42,6.5,1.56,1.87,2.9,4.94,3.28,6.53.28,1.15.17,2.03-.76,1.79-.64-.16-1.31-.3-1.9-.42,2.28,1.31,3.58,2.93,4.16,3.97.69,1.24-.03,2.22-1.11,1.94-1.17-.31-1.92-.57-3.09-.71,1.66,1.8,2.07,2.4,2.35,3.51.28,1.11-.2,1.96-1.5,1.87-.47-.04-1.04-.16-1.76-.23.36,1.38.25,2.32.09,2.9-.33,1.16-1.35,1.61-2.7,1.4-.91-.14-1.62-.28-2.18-.43-.55,2.21-3.87,5.53-6.22,7.19-2.35,1.66-8.78,4.15-14.87,4.15Z"/>
      <path class="cls-4" d="M63.56,29.42c.69,1.24-.03,2.22-1.11,1.94-1.18-.31-1.92-.57-3.09-.71,1.66,1.8,2.07,2.4,2.35,3.51.28,1.11-.2,1.96-1.5,1.87-.47-.04-1.04-.16-1.76-.23.36,1.38.25,2.32.09,2.9-.33,1.16-1.35,1.61-2.7,1.4-.91-.14-1.62-.28-2.18-.43-.55,2.21-3.87,5.53-6.22,7.19-2.35,1.66-8.78,4.15-14.86,4.15s-12.52-2.49-14.86-4.15c-2.35-1.66-5.66-5-6.7-7.06-.59.07-1.12.15-1.72.28-1.66.35-2.75-.23-2.94-1.35-.11-.67-.09-1.64.24-3.05-.4.09-.84.17-1.24.24-1.29.23-1.93-.92-1.61-2.02.32-1.11,1.04-2.13,2.04-3.25-1.05.26-1.99.56-2.78.79-1.17.35-1.94-.74-1.2-2.17.55-1.06,1.87-2.74,3.93-3.83,2.93-.66,2.59,3.07,2.44,4.59-.21,2.05.33,4.65,2.54,6.45s3.61,3.66,4.3,5.32,2.75,4.22,6.44,5.89c-2.61-2.49-3.48-4.75-2.93-7.79.55-3.04,2.72-5.02,4.98-5.49,1.87-.38,3.87.37,4.98,1.94h8.16c1.24-1.66,3.07-2.44,4.98-1.94,2.26.6,4.42,2.63,4.98,5.67.55,3.04-.46,5.07-2.84,7.61,3.76-1.66,5.66-4.23,6.35-5.89.69-1.66,2.09-3.52,4.3-5.32,2.21-1.8,2.75-4.4,2.54-6.45-.15-1.52-.59-5.86,2.44-4.59,2.27,1.31,3.58,2.93,4.16,3.97Z"/>
      <path class="cls-2" d="M47.59,34.68c-.29,0-.55-.19-.63-.49-.33-1.25-1.37-2.3-2.73-2.74-1.15-.37-2.27-.23-3.01.37-.28.23-.69.19-.91-.09-.23-.28-.19-.69.09-.91,1.08-.89,2.66-1.11,4.23-.6,1.78.58,3.15,1.98,3.59,3.65.09.35-.12.7-.47.79-.05.01-.11.02-.16.02Z"/>
      <path class="cls-2" d="M17.14,34.68c-.05,0-.11,0-.16-.02-.35-.09-.56-.45-.47-.79.44-1.67,1.81-3.07,3.59-3.65,1.57-.51,3.15-.28,4.23.6.28.23.32.64.09.91-.23.28-.64.32-.91.09-.74-.6-1.86-.74-3.01-.37-1.36.44-2.41,1.49-2.73,2.74-.08.29-.34.49-.63.49Z"/>
      <path class="cls-2" d="M32.3,38.25c-2.49,0-5.23-1.38-6.34-2.77-1.11-1.38-.09-2.58,1.38-2.21,1.5.38,3.02.41,4.96.41s3.32-.06,4.96-.41c1.46-.32,2.49.83,1.38,2.21-1.11,1.38-3.85,2.77-6.34,2.77Z"/>
      <path class="cls-2" d="M36.12,43.84c-.5,0-1-.07-1.49-.2-1-.28-1.79-.84-2.26-1.58-.44.7-1.14,1.23-2.05,1.52-1.69.54-3.78.15-5.07-.96-.18-.15-.2-.41-.05-.59.15-.18.41-.19.59-.05,1.07.91,2.86,1.25,4.28.8,1-.32,1.67-.98,1.89-1.87.09-.37.72-.37.81,0,.31,1.26,1.44,1.75,2.09,1.93,1.45.41,3.16.06,4.06-.83.16-.16.43-.16.59,0,.16.16.16.43,0,.59-.81.8-2.08,1.24-3.38,1.24Z"/>
      <path class="cls-2" d="M19,7.58c1.96-1.36,4.75-1.86,6.98-2.75,1.69-.68,3.38-1.21,5.2-.87.05-.45.11-.89.19-1.3.07-.33.15-.62.23-.87.32,0,.64-.01.97-.01.57,0,1.12.01,1.66.04-.3.58-.53,1.26-.68,2.04.96-.03,2.09,0,2.93.1,1.5.15,2.68.91,4.16,1.16,2.03.34,3.35,1.11,5.06,2.24,1.49.99,3.21,1.85,4.43,3.23.26.29.74.88.55,1.25-.12.24-.64.18-1.09,0-.59-.25-1.21-.56-1.83-.79-.75-.28-1.39-.41-2.14-.73-1.16-.49-2.02-.87-2.96-1.68-.58-.5-1.2-.88-2.03-1.28-.77-.38-1.59-.49-2.2-.6-.97-.18-1.74-.48-2.51-.71-.63-.19-1.53-.26-2.1-.51-.15-.07-.32-.17-.49-.29-.18,1.56-.21,3.3-.26,4.99.92-.03,1.9.08,2.77.23,1.65.29,3.26,1.01,4.9,1.47,2.46.69,5.49,1.87,7.13,3.89,1.09,1.34.34,1.84-.86,1.38-1.23-.47-2.57-1.02-3.22-1.29-1.22-.5-2.32-.83-3.54-1.34-1.06-.44-1.93-.84-3.51-1.08-.56-.09-2.68-.84-3.73-1.73-.02.34-.04.67-.06.99-.09,1.22-.2,2.53-.32,3.86.64-.02,1.49.11,2.11.24.86.18,1.45.37,2.23.6.97.29,2.31.7,2.99,1.45.6.66.11,1.26-.59,1.06-.81-.23-1.35-.53-1.98-.77-.84-.33-1.46-.17-2.3-.33-.95-.18-1.75-.32-2.3-.76-.1-.08-.18-.15-.27-.23-.15,1.74-.29,3.47-.4,5.03-.07,1.08-.94.99-1.03.12-.19-1.96-.19-3.75-.14-5.24-.43.24-.78.48-1.22.56-1.01.19-1.66.3-2.23.46-.99.28-1.66.6-2.5,1.19-.42.29-1.04-.35-.52-1.01.57-.72,1.76-1.31,2.48-1.6,1.43-.58,2.64-.98,4.04-.74.03-.55.06-1.03.08-1.44.05-1.01.04-2.15.02-3.34-1.33.95-4.32,1.05-5.39,1.55-1.89.87-4.68,1.95-7.03,1.99-.69.01-1.05-.41-.54-1.05,1.21-1.53,4.35-2.01,5.96-2.53,1.32-.42,2.2-.93,3.51-1.24,1.15-.27,2.31-.22,3.47-.32-.04-1.72-.08-3.48.02-5.1-.4.35-.94.56-1.58.72-.88.22-2.12.02-2.82.67-.36.34-.82.65-1.26.96-.45.32-1.36.73-1.88.78-1.27.13-2.4.83-3.57,1.3-1.84.74-4.36,2.06-4.79,1.43-.45-.66,2.21-2.3,3.83-3.43Z"/>
      <path class="cls-4" d="M38.19,24.23c.48-1.24,3.02-2.35,4.68-1.66,2.35-.83,4.82.3,5.44,1.2,1.45.28,2.75,2.23,2.93,3.39.21,1.34-.85,2.04-2.01,1.8-.99-.21-1.59-1.38-1.97-2.04-1.31.28-2.75-.68-3.24-1.16-.97.59-2.4.6-3.27.37-1.69.21-2.98-.81-2.56-1.89Z"/>
      <path class="cls-4" d="M26.07,24.23c-.48-1.24-2.6-2.21-4.17-1.66-2.35-1.34-5.21-.28-6.04,1.15-1.45.28-2.66,2.27-2.84,3.43-.21,1.34.93,2.29,2.01,1.8.97-.44,1.52-1.45,1.66-2.37,1.31.28,2.88-.58,3.36-1.06.97.59,2.67.65,3.55.32,1.57.46,2.89-.53,2.47-1.61Z"/>
      <path class="cls-2" d="M50.33,16.97c-.14.82.12,2.61,1.41,4.27s1.98,5,1.72,6.79c-.21,1.42-.78,2.43-1.92,3.74-1.2,1.38-.04,1.64,1.21.9,1.24-.74,2.05-1.35,2.51-2.64s.91-3.26.27-4.74c-.65-1.48-.43-2.54.11-3.53.59-1.1-.26-2.22-1-2.74-.46-.32-1.55-1.43-1.96-1.93-.64-.8-2.14-1.25-2.33-.12Z"/>
      <path class="cls-2" d="M14.91,17.29c0,.59-.55,2.65-1.37,3.95-1.12,1.78-2.25,5.05-1.92,6.82.17.93.29,1.8,1.67,3.53,1.14,1.43-.01,1.73-1.21.9s-1.71-1.76-2.05-2.45c-.61-1.23-.91-3.26-.27-4.74.65-1.48.16-2.51-.19-3.58-.32-.96.12-1.94.87-2.46.46-.32,1.76-1.67,2.18-2.16.74-.85,2.29-.9,2.29.2Z"/>
      <path class="cls-2" d="M40.38,38.05c-.12,0-.23-.07-.28-.18-.07-.16,0-.34.16-.41,2.79-1.25,7.81-1.02,9.62-.48.16.05.26.22.21.39-.05.16-.22.26-.39.21-1.73-.52-6.53-.74-9.18.45-.04.02-.08.03-.13.03Z"/>
      <path class="cls-2" d="M55.87,44.69c-.09,0-.17-.03-.23-.1-2.87-3.15-9.4-4.15-13.11-3.86-.18.02-.32-.12-.34-.29-.01-.17.11-.32.29-.34,4.49-.36,10.78.95,13.62,4.07.12.13.11.32-.02.44-.06.06-.13.08-.21.08Z"/>
      <path class="cls-2" d="M49.6,54.65c-.14,0-.27-.09-.3-.24-.9-3.5-6.09-9.43-7.79-10.51-.15-.09-.19-.29-.1-.43.09-.15.29-.19.43-.1,1.72,1.09,7.1,7.11,8.07,10.88.04.17-.06.34-.23.38-.02,0-.05,0-.08,0Z"/>
      <path class="cls-2" d="M9.5,38.51c-.11,0-.21-.05-.27-.15-.09-.15-.04-.34.11-.43,2.63-1.54,10.1-2.12,14.73-.58.16.05.25.23.2.4-.05.16-.24.25-.4.2-4.49-1.5-11.69-.95-14.22.53-.05.03-.1.04-.16.04Z"/>
      <path class="cls-2" d="M9.04,46.72c-.07,0-.13-.02-.19-.06-.14-.1-.17-.3-.06-.44,1.49-1.98,8.42-6.04,12.07-5.75.17.01.3.16.29.34-.01.17-.14.3-.34.29-3.37-.26-10.14,3.65-11.53,5.5-.06.08-.15.13-.25.13Z"/>
      <path class="cls-2" d="M16.23,50.68c-.06,0-.12-.02-.17-.05-.15-.09-.19-.29-.09-.43,1.83-2.84,5.09-5.79,7.26-6.58.16-.06.34.02.4.19.06.16-.03.34-.19.4-2.02.74-5.2,3.63-6.94,6.33-.06.09-.16.14-.26.14Z"/>
      <path class="cls-4" d="M55.94,12.96c-.44-.55-.97-1.18-1.59-1.91-1.17-1.35-2.63-2.85-4.54-4.23-.05-2.35,5.5-3.93,9.03-3.58,3.03.3,4.16,2.22,3.53,3.87-.27.7-1.01,1.67-1.7,2.72-1.1,1.66-3.02,4.05-4.73,3.13Z"/>
      <path class="cls-4" d="M14.67,7.32c-1.59,1.24-2.85,2.54-3.87,3.73-.86,1-1.54,1.82-2.07,2.51-2.07.9-3.57-2.07-4.66-3.74-.69-1.05-1.43-2.02-1.7-2.72-.64-1.65.5-3.57,3.53-3.87,3.53-.35,9.12,1.57,8.78,4.08Z"/>
      <path class="cls-6" d="M32.57,51.01c6.08,0,12.52-2.49,14.86-4.15,1.48-1.04,3.34-2.75,4.66-4.42-.83,1.74-2.3,3.4-4.52,5.56-3.23,3.13-9.68,5.65-16.32,5.43-5.48-.18-9.45-2.33-11.98-4.49-1.15-.98-2.13-2.11-2.91-3.11.47.39.92.74,1.34,1.04,2.35,1.66,8.78,4.15,14.86,4.15Z"/>
      <path class="cls-7" d="M60,75.38c-4.65-.31-6.91-.74-10.8-1.42h0c.27-.4.53-.82.8-1.24,1.5.42,2.83.9,4.15,1.25,2.4.63,4.7.83,7.91.18,1.53-.31,3.2,0,4.61.9.68.43,1.51.91,2.13,1.78.22.51.45,1.05.73,1.65-1.13-2.72-4.44-2.76-9.51-3.1Z"/>
      <path class="cls-6" d="M8.56,6.04c-2.23-1.13-4.58-1.81-5.61-1.6.61-.61,1.58-1.07,2.93-1.2,3.53-.35,9.11,1.57,8.78,4.08-1.09.85-2.02,1.73-2.83,2.58.14-1.91-1.96-3.2-3.27-3.86Z"/>
      <path class="cls-6" d="M58.85,3.24c.92.09,1.66.33,2.23.66-1.17,0-3.21.65-5.16,1.63-1.27.65-3.28,1.87-3.27,3.69-.82-.81-1.75-1.62-2.83-2.41-.05-2.35,5.5-3.93,9.03-3.58Z"/>
      <path class="cls-3" d="M27.34,33.27c1.5.38,3.02.41,4.96.41s3.32-.06,4.96-.41c.83-.41.96-.96.44-1.72-.59-.86-1.35-1.8-2.4-2.38-1.08-.6-5.35-.65-6.45,0s-1.87,1.56-2.35,2.49c-.4.77-.02,1.38.85,1.61Z"/>
    </g>
  </g>
</svg>