<?xml version="1.0" encoding="UTF-8"?>
<svg id="Layer_2" data-name="Layer 2" xmlns="http://www.w3.org/2000/svg" width="263.61" height="334.81" viewBox="0 0 263.61 334.81">
  <defs>
    <style>
      .cls-1 {
        fill: #fff;
      }

      .cls-2 {
        fill: #f2bbb1;
      }

      .cls-3 {
        fill: #dd8f68;
      }

      .cls-4 {
        fill: #f7d8ba;
      }

      .cls-5 {
        fill: #917163;
      }

      .cls-6 {
        fill: #edb0a9;
      }

      .cls-7 {
        fill: #f29e70;
      }

      .cls-8 {
        fill: #72584f;
      }
    </style>
  </defs>
  <g id="Layer_2-2" data-name="Layer 2">
    <g>
      <path class="cls-3" d="M127.84,323.19c-5.36-1.36-11-.48-16.46.41-2.86.47-5.84.98-8.17,2.71-2.33,1.72-3.76,5.05-2.4,7.61.15.28.33.55.6.71.37.22.83.21,1.27.18,14.62-.86,29.25-1.73,43.87-2.59.31-2.55-1.36-5.02-3.55-6.37-2.19-1.34-4.81-1.77-7.36-2.04-.36-9.44-.98-18.87-1.84-28.28-.19-2.09-.47-4.35-1.92-5.88-5.96-6.3-8.7,4.08-7.85,8.35,1.67,8.31,2.63,16.79,3.81,25.19Z"/>
      <path class="cls-7" d="M162.87,323.19c-5.36-1.36-11-.48-16.46.41-2.86.47-5.84.98-8.17,2.71-2.33,1.72-3.76,5.05-2.4,7.61.15.28.33.55.6.71.37.22.83.21,1.27.18,14.62-.86,29.24-1.73,43.87-2.59.31-2.55-1.36-5.02-3.55-6.37-2.19-1.34-4.81-1.77-7.36-2.04-.36-9.44-.98-18.87-1.84-28.28-.19-2.09-.47-4.35-1.91-5.88-5.96-6.3-8.7,4.08-7.85,8.35,1.67,8.31,2.62,16.79,3.8,25.19Z"/>
      <path class="cls-8" d="M117.78,294.3c1.21,4.74,2.86,10.01,7.21,12.25,4.3,2.22,9.83.4,13.17-3.1,3.34-3.5,4.91-8.31,6.01-13.02,1.95-8.36,2.72-17.01,2.29-25.58-.32-6.24-1.47-12.88-5.77-17.4-3.95-4.15-10.13-5.8-15.8-4.92-8.7,1.35-17.19,7.01-15.81,16.18,1.79,11.89,5.72,23.94,8.7,35.59Z"/>
      <path class="cls-5" d="M58.06,164.93c-4.93,15.77-1.87,33.02,6.2,47.72,8.07,14.7,20.83,27.04,35.16,37.25,14.77,10.51,31.36,18.98,49.01,24.99,19.64,6.69,40.42,10.33,61.24,12.91,1.4.17,3.39-1.31,2.06-1.73,12.58,4.73,25.78,8.11,39.25,10.04,2.15-9.27-5.09-17.99-11.89-25.26,2.07.79,4.14,1.57,6.21,2.36-21.44-41.73-50.64-80.28-86.03-113.58-6.96-6.55-14.24-12.96-22.8-17.76-12.08-6.77-33.34-13.14-47.63-9.45-15.13,3.9-26.79,19.79-30.77,32.5Z"/>
      <path class="cls-5" d="M152.82,298.02c1.21,4.74,2.86,10.01,7.21,12.24,4.3,2.22,9.83.41,13.17-3.1,3.34-3.5,4.91-8.31,6.01-13.02,1.95-8.37,2.72-17.01,2.29-25.58-.32-6.24-1.47-12.88-5.77-17.4-3.95-4.15-10.13-5.8-15.8-4.92-8.7,1.35-17.19,7.01-15.81,16.19,1.79,11.89,5.72,23.94,8.7,35.59Z"/>
      <path class="cls-8" d="M181.23,254.61c3.22,1.68,6.79,3.31,10.21,2.27,3.42-1.04,5.94-6.12,3.68-9.21,14.29,9.22,30.08,15.47,46.33,18.34,7.23,1.28,15.41,1.6,20.99-3.74.55-.52,1.09-1.17,1.16-1.98.07-.85-.4-1.63-.86-2.31-26.1-39.3-60.74-70.32-96.94-97.51-8.12-6.1-16.51-12.11-25.92-14.95s-20.16-2.06-27.95,4.56c-4.57,3.89-7.81,9.48-10.15,15.38-3.61,9.07-2.8,15.89,3.27,22.93,4.44,5.15,6.67,11.68,11.17,16.73,11.81,13.26,25.86,24.61,40.03,34.4,8.06,5.57,16.41,10.61,24.99,15.09Z"/>
      <g>
        <path class="cls-5" d="M62.61,31.86c-1.61-2.62-2.01-5.79-2.22-8.86-.31-4.53-.28-9.18,1.21-13.46,1.49-4.28,4.68-8.18,9-9.55-3.73,4.49-5.75,10.37-5.55,16.2.2,5.83,2.61,11.56,6.64,15.79.25-9.03,6.52-17.59,15.06-20.56-5.02,4.4-10.46,9.65-10.49,16.32,3.12-4.79,9.43-7.23,14.96-5.8-4.52,1.44-8.93,4.09-11.08,8.32-2.15,4.23-1.26,10.18,2.81,12.62-2.22-1.25-4.58-1.28-6.82-2.19-1.72-.7-2.11-1.33-3.67-2.18-3.7-2.02-7.46-2.79-9.85-6.67Z"/>
        <path class="cls-5" d="M62.61,31.86c-1.61-2.62-2.01-5.79-2.22-8.86-.31-4.53-.28-9.18,1.21-13.46,1.49-4.28,4.68-8.18,9-9.55-3.73,4.49-5.75,10.37-5.55,16.2.2,5.83,2.61,11.56,6.64,15.79.25-9.03,6.52-17.59,15.06-20.56-5.02,4.4-10.46,9.65-10.49,16.32,3.12-4.79,9.43-7.23,14.96-5.8-4.52,1.44-8.93,4.09-11.08,8.32-2.15,4.23-1.26,10.18,2.81,12.62-2.22-1.25-4.58-1.28-6.82-2.19-1.72-.7-2.11-1.33-3.67-2.18-3.7-2.02-7.46-2.79-9.85-6.67Z"/>
        <path class="cls-5" d="M62.61,31.86c-1.61-2.62-2.01-5.79-2.22-8.86-.31-4.53-.28-9.18,1.21-13.46,1.49-4.28,4.68-8.18,9-9.55-3.73,4.49-5.75,10.37-5.55,16.2.2,5.83,2.61,11.56,6.64,15.79.25-9.03,6.52-17.59,15.06-20.56-5.02,4.4-10.46,9.65-10.49,16.32,3.12-4.79,9.43-7.23,14.96-5.8-4.52,1.44-8.93,4.09-11.08,8.32-2.15,4.23-1.26,10.18,2.81,12.62-2.22-1.25-4.58-1.28-6.82-2.19-1.72-.7-2.11-1.33-3.67-2.18-3.7-2.02-7.46-2.79-9.85-6.67Z"/>
        <path class="cls-5" d="M62.61,31.86c-1.61-2.62-2.01-5.79-2.22-8.86-.31-4.53-.28-9.18,1.21-13.46,1.49-4.28,4.68-8.18,9-9.55-3.73,4.49-5.75,10.37-5.55,16.2.2,5.83,2.61,11.56,6.64,15.79.25-9.03,6.52-17.59,15.06-20.56-5.02,4.4-10.46,9.65-10.49,16.32,3.12-4.79,9.43-7.23,14.96-5.8-4.52,1.44-8.93,4.09-11.08,8.32-2.15,4.23-1.26,10.18,2.81,12.62-2.22-1.25-4.58-1.28-6.82-2.19-1.72-.7-2.11-1.33-3.67-2.18-3.7-2.02-7.46-2.79-9.85-6.67Z"/>
        <path class="cls-5" d="M62.61,31.86c-1.61-2.62-2.01-5.79-2.22-8.86-.31-4.53-.28-9.18,1.21-13.46,1.49-4.28,4.68-8.18,9-9.55-3.73,4.49-5.75,10.37-5.55,16.2.2,5.83,2.61,11.56,6.64,15.79.25-9.03,6.52-17.59,15.06-20.56-5.02,4.4-10.46,9.65-10.49,16.32,3.12-4.79,9.43-7.23,14.96-5.8-4.52,1.44-8.93,4.09-11.08,8.32-2.15,4.23-1.26,10.18,2.81,12.62-2.22-1.25-4.58-1.28-6.82-2.19-1.72-.7-2.11-1.33-3.67-2.18-3.7-2.02-7.46-2.79-9.85-6.67Z"/>
        <path class="cls-5" d="M62.61,31.86c-1.61-2.62-2.01-5.79-2.22-8.86-.31-4.53-.28-9.18,1.21-13.46,1.49-4.28,4.68-8.18,9-9.55-3.73,4.49-5.75,10.37-5.55,16.2.2,5.83,2.61,11.56,6.64,15.79.25-9.03,6.52-17.59,15.06-20.56-5.02,4.4-10.46,9.65-10.49,16.32,3.12-4.79,9.43-7.23,14.96-5.8-4.52,1.44-8.93,4.09-11.08,8.32-2.15,4.23-1.26,10.18,2.81,12.62-2.22-1.25-4.58-1.28-6.82-2.19-1.72-.7-2.11-1.33-3.67-2.18-3.7-2.02-7.46-2.79-9.85-6.67Z"/>
        <path class="cls-5" d="M62.61,31.86c-1.61-2.62-2.01-5.79-2.22-8.86-.31-4.53-.28-9.18,1.21-13.46,1.49-4.28,4.68-8.18,9-9.55-3.73,4.49-5.75,10.37-5.55,16.2.2,5.83,2.61,11.56,6.64,15.79.25-9.03,6.52-17.59,15.06-20.56-5.02,4.4-10.46,9.65-10.49,16.32,3.12-4.79,9.43-7.23,14.96-5.8-4.52,1.44-8.93,4.09-11.08,8.32-2.15,4.23-1.26,10.18,2.81,12.62-2.22-1.25-4.58-1.28-6.82-2.19-1.72-.7-2.11-1.33-3.67-2.18-3.7-2.02-7.46-2.79-9.85-6.67Z"/>
        <path class="cls-5" d="M62.61,31.86c-1.61-2.62-2.01-5.79-2.22-8.86-.31-4.53-.28-9.18,1.21-13.46,1.49-4.28,4.68-8.18,9-9.55-3.73,4.49-5.75,10.37-5.55,16.2.2,5.83,2.61,11.56,6.64,15.79.25-9.03,6.52-17.59,15.06-20.56-5.02,4.4-10.46,9.65-10.49,16.32,3.12-4.79,9.43-7.23,14.96-5.8-4.52,1.44-8.93,4.09-11.08,8.32-2.15,4.23-1.26,10.18,2.81,12.62-2.22-1.25-4.58-1.28-6.82-2.19-1.72-.7-2.11-1.33-3.67-2.18-3.7-2.02-7.46-2.79-9.85-6.67Z"/>
        <path class="cls-5" d="M62.61,31.86c-1.61-2.62-2.01-5.79-2.22-8.86-.31-4.53-.28-9.18,1.21-13.46,1.49-4.28,4.68-8.18,9-9.55-3.73,4.49-5.75,10.37-5.55,16.2.2,5.83,2.61,11.56,6.64,15.79.25-9.03,6.52-17.59,15.06-20.56-5.02,4.4-10.46,9.65-10.49,16.32,3.12-4.79,9.43-7.23,14.96-5.8-4.52,1.44-8.93,4.09-11.08,8.32-2.15,4.23-1.26,10.18,2.81,12.62-2.22-1.25-4.58-1.28-6.82-2.19-1.72-.7-2.11-1.33-3.67-2.18-3.7-2.02-7.46-2.79-9.85-6.67Z"/>
        <path class="cls-5" d="M62.61,31.86c-1.61-2.62-2.01-5.79-2.22-8.86-.31-4.53-.28-9.18,1.21-13.46,1.49-4.28,4.68-8.18,9-9.55-3.73,4.49-5.75,10.37-5.55,16.2.2,5.83,2.61,11.56,6.64,15.79.25-9.03,6.52-17.59,15.06-20.56-5.02,4.4-10.46,9.65-10.49,16.32,3.12-4.79,9.43-7.23,14.96-5.8-4.52,1.44-8.93,4.09-11.08,8.32-2.15,4.23-1.26,10.18,2.81,12.62-2.22-1.25-4.58-1.28-6.82-2.19-1.72-.7-2.11-1.33-3.67-2.18-3.7-2.02-7.46-2.79-9.85-6.67Z"/>
      </g>
      <path class="cls-4" d="M35.85,162c2.3-2.07,5.35-3.3,8.44-3.4-7.48,16.2-6.91,35.88,1.48,51.63,2.79-7.37,6.9-14.23,12.06-20.18,2.11,4.82,4.23,9.64,6.34,14.45,1.14-3.09,2.28-6.18,3.42-9.27,5.11,9,11.14,17.46,17.99,25.21,4.33-14.14,8.66-28.28,12.99-42.42,9.19,3.5,16.68,11.22,19.89,20.52,3.39-9.53,4.86-19.75,4.3-29.85,8.63,3.51,16.31,9.33,22.04,16.68,1.99-11.9.17-24.4-5.12-35.24,10.06-.81,20.25-.06,30.08,2.21-7.04-11.53-19.29-19.73-32.64-21.85,7.02-.91,14.27-.05,20.88,2.49-10.26-14.14-28.95-19.59-46.42-20.07-17.25-.48-31.85,4.16-44.8,15.49-12.2,10.67-24.72,17.54-30.94,33.6Z"/>
      <path class="cls-2" d="M59.82,149.59c-2.48-4.71-3.51-10.07-3.83-15.39-.89-15.08,3.93-30.44,13.3-42.29-8.23,9.94-22.93,13.41-35.23,9.49-3.08-.98-6.07-2.4-8.5-4.55-4.44-3.94-6.58-10.06-6.5-15.99.08-5.93,2.18-11.69,5.09-16.86,4.49-7.98,10.99-14.81,18.72-19.71,5.87-3.71,12.43-6.31,19.24-7.68,6.75-1.35,13.82-1.47,20.46.34s12.83,5.64,16.87,11.2c4.58,6.3,6.15,14.4,5.68,22.17-.48,7.77-2.86,15.29-5.58,22.58-1.38,3.68-2.86,7.37-3.41,11.26-.55,3.89-.06,8.09,2.23,11.29,2.49,3.49,6.8,5.43,8.97,9.12,1.5,2.54,1.79,5.64,1.48,8.58-.92,8.71-6.89,16.35-14.39,20.87-7.38,4.44-16.38,6.43-24.93,6.66.43-.18.78-.4,1.16-.59-4.2-3.38-8.16-5.4-10.84-10.5Z"/>
      <path class="cls-5" d="M7.54,84.97C2.31,94.46-.8,105.35.18,116.14s6.41,21.4,15.47,27.34c-3.12-9.5,1.53-20.17,8.86-26.98,7.33-6.81,16.9-10.56,26.23-14.17-8.32-3.78-15.19-10.68-18.95-19.01-3.82-8.5-4.05-17.67-1.78-26.6-8.07,8.93-16.62,17.6-22.48,28.25Z"/>
      <path class="cls-8" d="M54.25,57.51c-.98,2.69-.06,6.03,2.33,7.61,1.39.92,3.12,1.21,4.79,1.2,1.45,0,2.94-.23,4.15-1.03,1.36-.9,2.18-2.39,2.83-3.88.4-.9.76-1.84.8-2.82.08-2-1.28-3.88-3.05-4.82-4.22-2.24-10.1-1.07-11.85,3.73Z"/>
      <path class="cls-1" d="M60.97,54.54c-2.19.28-4.13,2.01-4.64,4.16-.32,1.32-.05,2.88,1.02,3.72,1.07.83,2.98.48,3.36-.82.14-.46.07-.95.14-1.43.11-.89.68-1.7,1.47-2.11.51-.27,1.1-.38,1.58-.68s.87-.92.63-1.45c-.15-.32-.49-.51-.82-.65-.86-.36-1.78-.56-2.71-.57l-.02-.18Z"/>
      <path class="cls-4" d="M170.66,234.16c2.67-1.12,5.22-2.78,6.77-5.22,1.55-2.44,1.9-5.78.34-8.21,3.8,2.75,9.02,3.87,13.29,1.94s6.93-7.36,5.01-11.64c3.13,4.41,10.3,5.15,14.27,1.47,3.97-3.68,3.78-10.88-.38-14.34,3.98,3.12,7.3,7.1,9.65,11.57.82,1.56,1.55,3.3,1.3,5.05-.42,2.93-3.34,4.77-6.05,5.96-3.7,1.62-8.28,2.73-11.54.36,1.37,1.77,2.78,3.61,3.3,5.79.52,2.18-.11,4.8-2.04,5.93-1.19.69-2.64.72-4.02.64-5.58-.34-11.05-2.17-15.71-5.26,1.6,2.94,3.1,6.89.81,9.34-.99,1.06-2.46,1.5-3.88,1.83-11.16,2.6-23.3.76-33.19-5.03,1.94,1.13,8.16,1.55,10.52,1.72,3.92.28,7.92-.36,11.56-1.89Z"/>
      <path class="cls-6" d="M77.18,80.92c-4.04,8.32-9.04,16.14-13.2,24.4-4.17,8.26-7.54,17.12-7.98,26.36-.79-12.15,2.58-24.54,9.42-34.61-4.56,4.01-10.83,6.01-16.86,5.38,5.4-2.58,10.65-5.26,15.48-8.88,4.19-3.14,10.8-7.82,13.15-12.66Z"/>
      <path class="cls-6" d="M101.24,73.09c-2.65,8.77-8.91,16.19-11.03,25.1-1.34,5.64-.85,11.85,2.09,16.84,2.94,5,8.51,8.56,14.31,8.37-4.38-2.04-7.45-6.38-8.61-11.07s-.57-9.69.96-14.28c1.02-3.07,2.46-5.99,3.63-9.01,2.23-5.75,3.5-11.88,3.75-18.04.21-5.17-.32-10.42-2.13-15.27-1.78-4.76-4.9-9.21-9.22-11.98,8.19,6.41,9.04,20.11,6.26,29.33Z"/>
    </g>
  </g>
</svg>