<?xml version="1.0" encoding="UTF-8"?>
<svg id="Layer_2" data-name="Layer 2" xmlns="http://www.w3.org/2000/svg" width="192.22" height="143.05" viewBox="0 0 192.22 143.05">
  <defs>
    <style>
      .cls-1 {
        fill: #c9caca;
      }

      .cls-2 {
        fill: #595757;
      }

      .cls-3 {
        fill: #eeeae5;
      }

      .cls-4 {
        fill: #7b89a4;
      }

      .cls-5 {
        fill: #80cbcb;
      }
    </style>
  </defs>
  <g id="Layer_1-2" data-name="Layer 1">
    <g>
      <path class="cls-5" d="M111.27.38c-7.77,1.41-14.01,6.4-17.78,13.75s-10.36,22.61-12.43,34.85c-2.07,12.24-2.92,18.51-2.83,22.98-1.32,4.8-3.06,6.69-7.77,8.85-4.45,2.05-9.84,4.76-14.65,8.71-3.39,2.8-7.06,6.92-8.62,9.75-1.18,2.15-2.31,3.48-5.23,4.38-4.1,1.27-8.34,3.82-12.43,8.62-8.05.64-11.44,4.8-17.02,6.99-4.1,1.61-7.27,2.55-9.96,3.25-3.53.92-3.49,3.88.71,5.23,8.34,2.68,19.14,3.53,25.29,3.11,4.85-.33,10.67-1.41,15.33-3.89,11.37,2.76,22.7,4.61,36.1,5.93,17.1,1.7,34.72,1.52,45.64.42,10.92-1.09,26.5-4.61,32.78-15.26,5.11-8.66,6.05-17.12,5.03-26.2,1.09-5.49-.19-12.33-1.64-17.74-3.3-12.24-5.93-19.4-12.72-36.26-2.99-7.44-6.15-14.11-8.89-18.56-.65-4.45-3.9-7.63-6.79-8.76-1.39-1.61-2.73-3.15-4.1-4.38-4.24-3.82-9.33-7.37-18.01-5.8Z"/>
      <path class="cls-5" d="M153.62,123.64c1.89-1.6,3.51-3.44,4.77-5.57,2.73-4.63,4.27-9.21,4.95-13.85h0c1.13,3.02,4.08,6.36,6.63,8.25,4.3,3.19,8.87,5.99,16.95,6.31,7.35.28,6.83,4.54-.28,7.21-7.91,2.97-17.16,4.13-22.13,3.4-4.97-.73-8.98-2.35-10.89-5.74h0Z"/>
      <path class="cls-1" d="M164.51,129.39c.97.14,2.1.21,3.35.21-3.76-.74-5-2.21-6.09-3.93-1.02-1.62-1.51-4.35-.38-8.58,1-3.75,2.37-9.61,1.95-12.86v.04c-.7,4.63-2.23,9.19-4.96,13.81-1.26,2.13-2.88,3.97-4.77,5.57,1.91,3.39,5.92,5.01,10.89,5.74Z"/>
      <path class="cls-1" d="M150.48,119.21c-9.47,5.23-21.65,8.23-34.62,9.18-.79.06-1.59.11-2.39.16.3-1.82.34-3.72.2-5.53-.36-4.73-3.08-12.58-3.74-14.32-.52-1.37-1.74-1.6-1.18.38,1.04,3.21,1.89,7.85,2.17,10.93.26,2.87.02,5.88-1.09,8.74-14.41.68-29.22.07-42.44-1.18,5.78-2.04,13.12-4.89,17.34-7.75,4.01-2.72,5.44-7.1,3.39-11.58.72,5.11-.59,8.68-4.69,11.01-3.79,2.15-13.6,5.83-20.49,7.88-.02,0-.05,0-.07,0-7.46-.81-26.42-3.96-29.1-4.66-2.68-.71-2.83.42-.78,1.34,1.92.83,4.58,1.62,7.72,2.41-4.23,2.13-10.24,3.27-17.49,3.36-6.92.08-17.45-1.58-20.13-2.59-1.28-.48-2.69-1.24-3.08-2.32-.12,1.11.92,2.35,3.24,3.1,8.34,2.68,19.14,3.53,25.29,3.11,4.85-.33,10.67-1.41,15.33-3.89,11.37,2.76,22.7,4.61,36.1,5.93,17.1,1.7,34.72,1.52,45.63.42,10.92-1.09,26.5-4.61,32.78-15.26,3.34-5.66,4.89-11.24,5.29-16.96-2.33,9.6-5.2,13.67-13.2,18.08Z"/>
      <path class="cls-1" d="M160.18,105.64c1.72-2.8,2.96-6.52,3.56-9.7-.06-1.35-.16-2.7-.31-4.07-1.03,4.87-2.58,8.31-5.13,12.69-1.21,2.08-4.17,5.7-6.55,7.68-1.41,1.18-.57,1.6.52.94,1.08-.66,5.46-3.53,7.91-7.54Z"/>
      <path class="cls-4" d="M140.18,19.32c-.65-4.45-3.9-7.63-6.79-8.76-1.77-.54-3.46-.37-5.44-.02-2.33-1.7-5.16-2.47-9.32-.92-2.8,1.05-5.58,2.97-6.71,6.08-3.67,2.12-6.42,5.51-7.45,8.48-.92,2.65-.81,8.02,3.81,9.67,2.51.9,5.4,1.14,8.3.33,5.37-1.51,9.31-6.48,8.67-10.73,2.01,3.65,5.55,6.29,9.8,5.04,4.25-1.25,5.49-5.52,5.15-9.16Z"/>
      <g>
        <path class="cls-1" d="M58.83,103.24c.73-6.78,5.3-13,9.42-16.39,1.2-.99,1.98-.78,1.06.64s-7.48,10.46-9.11,15.89c-.64,2.12-1.57,1.77-1.37-.14Z"/>
        <path class="cls-1" d="M107.2,77.33c4.98,3.99,16.36,8.94,29.72,6.27,13.7-2.74,19.24-9.32,19.96-14.83.21-1.62,1.48-1.38,1.48.18,0,6.65-7.18,15.59-20.88,18.33-16.25,3.25-29.43-4.61-31.79-8.9-.78-1.41.12-2.15,1.51-1.04Z"/>
        <path class="cls-1" d="M130.79,117.09c-5.65,0-10.65-4.89-14.79-11.49-2.78-4.43-6.89-7.59-11.49-9.8-1.18-.57-1.89.59-.64,1.24,4.36,2.24,7.46,6.2,10.24,10.63,4.14,6.6,9.96,11.03,16.6,10.58,1.31-.09,1.25-1.17.08-1.17Z"/>
      </g>
      <path class="cls-3" d="M119.41,32.99c3.61,15.92,5.73,37.59,6.08,49.48.4,13.54-.18,27.73-1.94,38.2-.58,3.44-2.35,3.45-2.6-.25-.55-8.16-1.82-25.79-3.38-37.59-1.81-13.69-6.31-36.51-9.75-49.16,2.62,1.04,5.68,1.36,8.75.5,1.01-.28,1.96-.69,2.85-1.19Z"/>
      <path class="cls-3" d="M139.78,23.61c6.58,15.69,12.77,35.47,15.09,47.14,2.64,13.29,3.96,27.6,3.49,38.96-.14,3.49-1.95,3.84-2.61.18-1.68-9.34-5.15-26.09-8.64-37.47-4.05-13.2-10.21-31.24-16.97-44.19,1.47.62,3.12.78,4.89.25,2.61-.77,4.08-2.67,4.75-4.87Z"/>
      <path class="cls-2" d="M140.69,19.27c-.03-.28-.27-.5-.56-.46-.28.03-.49.27-.46.56.32,3.39-.78,7.44-4.79,8.62-3.53,1.04-6.95-.74-9.19-4.75-.55-2.05-1.71-5.15-2.36-6.72-.11-.26-.41-.38-.67-.27-.26.11-.38.41-.27.67.65,1.55,1.79,4.62,2.32,6.62.59,4-3.28,8.73-8.3,10.14-3.44.97-7.23.44-10.38-1.45-2.55-1.53-4.36-3.8-4.86-6.07-.06-.27-.33-.45-.61-.39-.28.06-.45.33-.39.61.56,2.58,2.51,5.03,5.33,6.72,2.28,1.37,4.86,2.07,7.44,2.07,1.26,0,2.52-.17,3.74-.51,4.84-1.36,8.59-5.43,9.06-9.45,2.08,2.8,5.38,4.94,9.42,3.76,4.6-1.36,5.87-5.9,5.51-9.7Z"/>
      <path class="cls-2" d="M118.63,12.25c-1.09-.99-2.46-.31-3.19.47-.74.78-.9,2.68.65,3.64-.26-1.35.75-3.78,2.54-4.11Z"/>
      <path class="cls-2" d="M120.79,11.66c.1-1.47,1.55-1.93,2.62-1.88,1.07.05,2.51,1.3,2.06,3.07-.75-1.16-3.16-2.2-4.68-1.19Z"/>
      <path class="cls-2" d="M107.56,15.48c.07,1.15-.5,2.12-1.28,2.17-.78.05-1.47-.84-1.54-1.99s.5-2.12,1.28-2.17c.78-.05,1.47.84,1.54,1.99Z"/>
      <path class="cls-2" d="M129.39,7c.6.86.71,1.83.24,2.15-.47.33-1.34-.1-1.94-.96-.6-.86-.71-1.83-.24-2.15.47-.33,1.34.1,1.94.96Z"/>
      <g>
        <path class="cls-2" d="M100.37,34.52c-.17,0-.31-.13-.32-.3-.19-2.57,1.57-5.36,3.39-6.98,1.44-1.28,2.95-1.88,4.15-1.65.17.03.29.2.25.37-.03.17-.2.29-.37.25-1-.2-2.32.35-3.6,1.5-2.02,1.79-3.32,4.44-3.18,6.45.01.18-.12.33-.29.34,0,0-.01,0-.02,0Z"/>
        <path class="cls-2" d="M107.62,39.32c-.16,0-.29-.11-.32-.27-.67-4.56,2.51-13.2,4.01-15.3.1-.14.3-.18.44-.07.14.1.18.3.07.45-1.42,1.99-4.53,10.5-3.9,14.84.03.17-.1.34-.27.36-.02,0-.03,0-.05,0Z"/>
        <path class="cls-2" d="M114.41,38.19c-.1,0-.19-.04-.25-.12-1.82-2.33-2.01-7.23-.42-11.15.07-.16.25-.24.42-.18.16.07.24.25.18.42-1.51,3.73-1.36,8.35.33,10.52.11.14.09.34-.06.45-.06.05-.13.07-.2.07Z"/>
        <path class="cls-2" d="M122.22,33.95c-.07,0-.14-.02-.2-.07-2.2-1.8-5.58-6.85-5.58-9.67,0-.18.14-.32.32-.32s.32.14.32.32c0,2.6,3.28,7.48,5.35,9.17.14.11.16.31.04.45-.06.08-.15.12-.25.12Z"/>
        <path class="cls-2" d="M125.71,35.08c-.16,0-.3-.12-.32-.29-.26-2.81-2.65-6.88-4.72-9.04-.12-.13-.12-.33,0-.45.13-.12.33-.12.45.01,1.85,1.93,4.58,6.14,4.89,9.42.02.18-.11.33-.29.35-.01,0-.02,0-.03,0Z"/>
        <path class="cls-2" d="M126.65,30.94c-.15,0-.28-.1-.31-.25-.59-2.54-.35-5.42.68-7.92.07-.16.25-.24.42-.17.16.07.24.25.17.42-.97,2.38-1.21,5.12-.64,7.53.04.17-.07.34-.24.38-.02,0-.05,0-.07,0Z"/>
        <path class="cls-2" d="M131.55,35.84c-.07,0-.14-.02-.2-.07-.14-.11-.16-.31-.04-.45,1.62-1.98,1.91-8.42.03-10.21-.13-.12-.13-.32,0-.45.12-.13.32-.13.45-.01,2.15,2.06,1.86,8.83.03,11.08-.06.08-.15.12-.25.12Z"/>
        <path class="cls-2" d="M138.52,29.62c-.17,0-.31-.13-.32-.3-.19-3.4-3.28-8.88-7.17-9.5-.17-.03-.29-.19-.26-.36.03-.17.19-.29.37-.27,4.34.69,7.51,6.53,7.71,10.09,0,.18-.12.33-.3.34,0,0-.01,0-.02,0Z"/>
        <path class="cls-2" d="M132.49,15.87c-.1,0-.21-.05-.27-.14-.1-.15-.06-.35.09-.44,2.93-1.92,7.82-2.6,10.45-.55.14.11.16.31.06.45-.11.14-.31.16-.45.06-2.38-1.85-7.02-1.18-9.71.58-.05.04-.11.05-.17.05Z"/>
        <path class="cls-2" d="M143.23,18.32c-.07,0-.13-.02-.19-.06-1.95-1.46-4.21-1.3-5.86-1.2l-.52.03c-.15,0-.33-.12-.34-.3,0-.18.12-.33.3-.34l.51-.03c1.75-.12,4.15-.28,6.29,1.32.14.11.17.31.06.45-.06.08-.16.13-.26.13Z"/>
      </g>
      <path class="cls-5" d="M108.75,109.08c1.04,3.21,1.89,7.85,2.17,10.93.38,4.14-.28,8.57-3.11,12.43-3.47,4.74-7.48,6.04-13.65,7.72-7.25,1.98-23.39,4.19-34.5,1.93-11.12-2.26-12.42-6.77-8.73-8.55,3.65-1.77,6.74-2.68,11.6-4.31,5.7-1.91,16.65-5.65,22.21-9.42,4.01-2.72,5.44-7.1,3.39-11.58-.73-1.6,3.58-3.79,8.24-4,4.66-.21,11.73,2.56,12.39,4.85h0Z"/>
      <path class="cls-1" d="M82.45,90.95c1.98,1.13,2.4.42,1.25-.89-3.53-4.03-5.13-11.75-5.46-18.08-.56,2.04-1.2,3.54-2.1,4.77-.85,7.45,4.61,13.23,6.32,14.21Z"/>
      <path class="cls-1" d="M29.54,112.28c-.8.06-1.54.17-2.26.3-2.22,1.58-3.4,5.12-3.57,6.33-.21,1.48.03,2.14,1.01.32,1.19-2.24,2.61-4.38,4.82-6.94Z"/>
    </g>
  </g>
</svg>