<?xml version="1.0" encoding="UTF-8"?>
<svg id="Layer_2" data-name="Layer 2" xmlns="http://www.w3.org/2000/svg" width="403.89" height="247.58" viewBox="0 0 403.89 247.58">
  <defs>
    <style>
      .cls-1 {
        fill: #abe6ef;
      }

      .cls-2 {
        fill: #fff;
      }

      .cls-3 {
        fill: #85b3ba;
      }

      .cls-4 {
        opacity: .44;
      }

      .cls-5 {
        fill: #98ccd8;
      }

      .cls-6 {
        fill: #493832;
      }
    </style>
  </defs>
  <g id="Layer_2-2" data-name="Layer 2">
    <g>
      <path class="cls-5" d="M114.63,182.67c10.64-1.92,21.31-4.51,31-9.64,19.45-10.31,33.09-29.69,47.81-46.85,15.98-18.63,34.16-35.39,55.16-46.81,21-11.41,45.02-17.25,68.29-13.64,20.19,3.13,39.12,13.24,55.07,26.95,8.91,7.65,17.06,16.56,22.78,27.19,9.1,16.92,11.47,37.8,6.86,56.73s-16.05,35.71-31.16,46.52c-19.25,13.77-43.06,17.57-66.08,19.48-44.45,3.69-89.2,1.66-133.49-3.83-23.49-2.91-47.09-6.85-69.24-15.8-22.15-8.95-42.95-23.28-56.96-43.85-1.58-2.33-3.15-5.29-2.1-7.95,1.6-4.07,7.38-3.17,10.59-.41,17.88,15.4,39.45,15.87,61.47,11.91Z"/>
      <path class="cls-5" d="M0,149.36c12.71.63,25.31,3.33,37.16,7.97,1.48-12.51,5.17-24.75,10.84-36-.66,1.31,5.43,12.27,6.13,14.22,1.87,5.21,3.39,10.55,4.55,15.95,1.9,8.83,5.35,22.91,2.35,31.73-5.64,16.58-34.97-2.97-42.21-9.08-7.99-6.75-14.55-15.23-18.81-24.8Z"/>
      <path class="cls-3" d="M71.64,199.88c10.75,5.72,22.69,8.81,34.55,11.57,62.41,14.52,127.07,21.34,190.78,14.47,27.41-2.95,55.48-8.82,77.91-24.84,9.92-7.08,18.42-15.93,26.85-24.72-8.58,20.5-18.44,42.44-37.8,53.37-7.14,4.03-15.14,6.26-23.11,8.16-74.45,17.72-152.95,9.12-227.18-9.49-16.33-4.09-32.97-8.87-46.39-19.04-9.32-7.06-16.73-16.59-21.33-27.33-1.07-2.5-4.72-13.18.57-7.05,3.68,4.26,5.79,9.53,9.84,13.66,4.45,4.53,9.7,8.26,15.3,11.24Z"/>
      <path class="cls-1" d="M388.32,172.04c-25.1.12-50.21-6.34-72.13-18.57,9.42,18.74,25.95,32.89,43.12,44.94,7.5,5.26,15.62,10.38,24.75,11.17,1.76.15,7.32-9.94,8.23-11.47,2.55-4.25,4.74-8.72,6.54-13.34.92-2.38,5.14-11.08,3.73-13.43-1.05-1.75-11.49.68-14.23.7Z"/>
      <path class="cls-3" d="M277.36,228.12c7.62-3.73,15.36-7.65,21.22-13.79,5.86-6.14,9.56-15,7.4-23.2,2.72,2.09,4.91,4.88,6.29,8.02,2.08,4.74,2.3,10.19,1.03,15.21-1.27,5.02-3.96,9.61-7.38,13.5-4.49,5.11-10.34,9.09-16.87,11.01-6.53,1.92-13.73,1.7-19.98-.98-1.72-.74-3.57-1.95-3.75-3.81-.15-1.53.91-2.9,2.03-3.93,3.23-2.97,7.6-4.67,11.99-4.64l-1.98,2.63Z"/>
      <path class="cls-1" d="M267.93,180.45c-3.15,1.18-5.38,4.02-7.04,6.95-5.69,10.04-6.96,22.84-15.42,30.69-4.93,4.57-11.55,6.69-17.74,9.31-1.45.61-2.95,1.31-3.86,2.6-1.42,2.02-.85,4.96.75,6.84,1.6,1.88,3.98,2.9,6.35,3.6,11.1,3.27,23.02.86,34.17-2.21,9.66-2.66,19.36-5.9,27.49-11.76,8.13-5.86,14.58-14.74,15.4-24.73.32-3.92-.4-8.23-3.28-10.9-3.54-3.28-8.94-3.02-13.77-3.2-4.27-.16-10.27-.2-13.62-3.11-3.01-2.62-4.44-5.95-9.44-4.08Z"/>
      <path class="cls-3" d="M314.06,121.2c-1.02-2.78-1.03-6.04.53-8.55,1.56-2.51,4.91-3.96,7.65-2.84,1.71.69,2.94,2.21,4,3.73,1.32,1.89,2.51,3.92,3.11,6.15.94,3.47-.1,10.5-5.12,9.39-4.5-1-8.54-3.38-10.17-7.86Z"/>
      <g>
        <path class="cls-6" d="M318.01,124.78c.93,1.98,2.9,3.37,5.04,3.84.93.2,1.93.24,2.78-.19.97-.48,1.57-1.5,1.88-2.53.61-2.04.2-4.38-1.14-6.04-1.39-1.71-4.68-3.07-6.82-2.07-2.43,1.12-2.73,4.87-1.73,6.98Z"/>
        <path class="cls-2" d="M321.11,119.42c-.82.5-1.39,1.38-1.51,2.33-.13.95.2,1.95.85,2.64.26.27.58.5.95.56.37.06.79-.09.96-.42.31-.6-.31-1.34-.11-1.99.11-.34.42-.57.62-.87.35-.52.33-1.26-.05-1.75-.38-.49-1.09-.7-1.68-.49h-.02Z"/>
      </g>
      <g class="cls-4">
        <path class="cls-2" d="M263.08,197.27c-1,3.71-2.61,7.27-4.75,10.46-1.52,2.26-3.32,4.4-4.18,6.99.51.73,1.64.19,2.32-.38,4.66-3.93,9.32-7.86,13.98-11.79,2.94-2.48,6.1-5.38,6.38-9.22.26-3.7-2.46-8.76-6.68-8.05-5.21.87-5.96,7.87-7.07,11.99Z"/>
      </g>
      <g class="cls-4">
        <path class="cls-2" d="M242.4,91.95c-6.31,5.62-11.9,12.69-13.2,21.03-.27,1.7-.28,3.65.9,4.91.71.76,1.74,1.14,2.77,1.3,5.1.8,9.63-3.08,13.26-6.76,6.53-6.61,12.85-13.49,20.17-19.23,7.31-5.74,15.77-10.36,24.97-11.68,1.37-.2,2.8-.34,3.97-1.06,1.18-.72,2.01-2.24,1.45-3.51-.28-.63-.83-1.08-1.4-1.47-15-10.11-41.89,6.68-52.88,16.46Z"/>
      </g>
      <g class="cls-4">
        <path class="cls-2" d="M208.6,133.43c.18,2.13,1.32,4.23,3.21,5.22,2.68,1.39,5.98.28,8.55-1.31,3.01-1.86,5.75-4.53,6.63-7.96,1.45-5.68-3.67-10.82-9.42-9.24-4.8,1.32-9.37,8.49-8.97,13.29Z"/>
      </g>
      <g>
        <path class="cls-2" d="M327.96,159.36c-1.42,2.06-2.87,4.09-4.5,5.99.22.31.45.61.67.91,1.76-2.02,3.31-4.22,4.85-6.44-.34-.15-.68-.3-1.02-.45Z"/>
        <path class="cls-2" d="M336.06,162.67c-2.03,3.48-4.24,6.86-6.6,10.12.25.28.51.56.76.84.8-1.1,1.59-2.21,2.35-3.34,1.6-2.35,3.11-4.77,4.55-7.23-.35-.13-.71-.26-1.06-.39Z"/>
        <path class="cls-2" d="M368.02,170.71c-.39-.05-.77-.1-1.16-.16-1.13,2.29-2.33,4.54-3.62,6.73-2.75,4.69-5.86,9.16-9.31,13.36-.67.81-1.35,1.6-2.04,2.39.3.22.59.45.89.67,2.25-2.58,4.37-5.27,6.35-8.06,3.21-4.5,6.06-9.26,8.52-14.21.12-.24.24-.49.36-.74Z"/>
        <path class="cls-2" d="M346.7,166.76c.09-.16.19-.32.28-.48-.37-.11-.74-.21-1.11-.32-1.19,2.01-2.42,4-3.68,5.96-1.46,2.27-2.96,4.52-4.51,6.73-.36.51-.72,1.02-1.08,1.53.27.26.54.52.81.77.03-.04.06-.08.08-.11,3.26-4.57,6.32-9.27,9.2-14.08Z"/>
        <path class="cls-2" d="M386.74,193.21c3.82-7.2,7.19-14.65,10.08-22.27-.41.05-.83.1-1.24.16-.11.3-.23.6-.34.91-1.42,3.67-2.96,7.29-4.61,10.86-3.27,7.1-6.97,14-11.07,20.66-.94,1.52-1.9,3.01-2.87,4.5.37.12.73.24,1.1.35,3.21-4.92,6.21-9.98,8.96-15.16Z"/>
        <path class="cls-2" d="M348.35,181.46c2.53-4.26,4.93-8.58,7.21-12.98-.37-.08-.75-.17-1.12-.26-.87,1.67-1.75,3.32-2.65,4.97-2.51,4.57-5.15,9.07-7.92,13.48.29.24.57.48.86.72,1.23-1.96,2.44-3.94,3.63-5.93Z"/>
        <path class="cls-2" d="M364.33,201.82c.81-1.32,1.63-2.63,2.45-3.95,4.32-6.97,8.61-13.99,12.01-21.47.68-1.49,1.31-3,1.91-4.53-.39-.02-.78-.04-1.18-.06-1.95,4.93-4.36,9.68-6.98,14.29-2.08,3.67-4.28,7.26-6.5,10.84-.88,1.43-1.77,2.85-2.65,4.27.31.2.62.41.94.61Z"/>
      </g>
      <path class="cls-1" d="M321.86,40.34c7.4-4.39,17.4-3.88,24.31,1.25.47.35,1.02.74,1.6.63.51-.1.86-.58,1.12-1.03,3.13-5.49-.01-13.51-6.04-15.41,2.55-2.21,1.55-6.73-1.16-8.73-2.71-2-6.36-2.09-9.71-1.74.53-3.94-1.44-7.95-4.46-10.55-3.02-2.59-6.95-3.92-10.89-4.5-3.36-.49-7.02-.42-9.88,1.42-2.86,1.84-4.48,5.9-2.7,8.8-.23-1.22-1.38-2.04-2.49-2.61-8.95-4.6-21.36-.24-25.46,8.96-1,2.25-1.15,5.56,1.12,6.49,2.17.89,4.27-1.23,6.05-2.76,1.72-1.47,4.04-2.56,6.2-1.93s3.54,3.65,1.99,5.29c-7.08-1.62-14.99,1.43-19.15,7.38-4.16,5.95-4.3,14.44-.34,20.52.13-4.96,2.89-9.78,7.1-12.39,4.21-2.62,9.76-2.95,14.26-.86,4.71,2.18,7.98,6.68,10.06,11.43,1.87,4.29,2.18,10.86,4.97,14.44,2.89-2.03,2.73-8.16,3.71-11.35,1.6-5.23,5.04-9.93,9.78-12.74Z"/>
      <g class="cls-4">
        <path class="cls-2" d="M272.98,38.71c.82.48,1.89.3,2.71-.16.83-.46,1.48-1.18,2.17-1.82,4.04-3.76,9.99-5.43,15.34-4.06,5.34,1.37,9.84,5.83,11,11.22.58-4.03-1.38-8.15-4.41-10.87-3.03-2.72-7-4.2-11-4.97-3.17-.61-6.51-.81-9.59.14-2.4.73-4.72,2.26-6.05,4.43-.9,1.47-2.1,4.97-.17,6.1Z"/>
      </g>
      <g class="cls-4">
        <path class="cls-2" d="M312.73,30.17c5.21-7.73,14.56-12.9,23.83-11.83,2.04.24,4.5,1.27,4.56,3.33.02.54-.15,1.07-.39,1.55-1.3,2.62-4.48,3.74-7.41,3.93-2.92.19-5.9-.27-8.77.32-5.44,1.13-9.41,5.83-12.04,10.73-3.86,7.19-4.11,12.18-3.71,20.35.23-11.05-2.6-18.67,3.93-28.37Z"/>
      </g>
      <g class="cls-4">
        <path class="cls-2" d="M284.69,13.51c.8.71,1.98.72,3.04.65,2.45-.18,4.99-.63,7.3.21,2.02.74,3.58,2.41,4.63,4.28,1.05,1.88,1.63,3.97,2.21,6.03,1.11,3.99,2.23,7.98,3.34,11.97-.77-3.82-.81-7.75-1.23-11.63-.41-3.88-1.24-7.82-3.38-11.08-2.14-3.26-5.8-5.74-9.7-5.56-1.49.07-9.5,2.22-6.22,5.12Z"/>
      </g>
      <g class="cls-4">
        <path class="cls-2" d="M307.95,17.96c.25-2.88.52-5.81,1.56-8.51s2.99-5.19,5.69-6.2c2.71-1.02,6.19-.18,7.64,2.32.48.83.71,1.9.27,2.76-.43.82-1.35,1.24-2.24,1.48-2.88.77-6.27.36-8.51,2.33-1.19,1.05-1.81,2.6-2.36,4.1-1.54,4.17-2.86,8.44-2.41,12.93-1.2-3.29.07-7.84.36-11.21Z"/>
      </g>
    </g>
  </g>
</svg>