<?xml version="1.0" encoding="UTF-8"?>
<svg id="Layer_2" data-name="Layer 2" xmlns="http://www.w3.org/2000/svg" width="103.4" height="111.05" viewBox="0 0 103.4 111.05">
  <defs>
    <style>
      .cls-1 {
        fill: #c9caca;
      }

      .cls-2 {
        fill: #b5b5b6;
      }

      .cls-3 {
        fill: #3e332c;
      }

      .cls-4 {
        fill: #9b756b;
      }

      .cls-5 {
        fill: #4e3b3b;
      }

      .cls-6 {
        fill: #755757;
      }

      .cls-7 {
        fill: #ccc;
      }

      .cls-8 {
        fill: #bb978f;
      }

      .cls-9 {
        fill: #fcdfbe;
      }

      .cls-10 {
        fill: #e6c0c0;
      }

      .cls-11 {
        fill: #dcdddd;
      }
    </style>
  </defs>
  <g id="Layer_1-2" data-name="Layer 1">
    <g>
      <path class="cls-8" d="M51.62,91.64c-.16,2.05-1.16,11.91-1.32,13.64.72,1.16.78,3.02.56,4.29-1.22,1.22-4.96,1.86-7.68,1.23-.47-.11-.19-1.14-.86-1.28-.52-.11-.99.98-1.36.9-.3-.07-.6-.17-.89-.27,0-2.37,1.52-4.72,2.27-5.69-.19-3.36-.98-6.28-2.66-8.83-1.13-2.05-2.16-4.58-2.05-5.63-.21,1.37.37,3.45-.47,5.31-.32,2.21-.26,5.5-.41,6.61.32.97.49,2.03.42,3.18-1.61,1.24-4.72,1.24-6.7,1.01-.39-.05-.49-.9-.87-.99-.26-.06-.82.67-1.08.59-.23-.07-.47-.15-.69-.23-.02-1.6,1.1-3.72,2.61-4.88-.24-2.66-.58-5.21-1.79-7.5-1.27-1.36-2.6-2.99-3.89-4.71-2.26-.73-3.52-3.26-3.56-5.15-1.77-1.5-3.75-4.11-3.22-5.87-1.42-1.38-4.55-5.81-4.72-10.49-1.57-2.03-2.59-4.95-1.67-7.09-1.4-2.67-2.5-6.7-1.24-9.93-.78-12.76,1.61-25.22,6.58-32.67,2.74-4.1,5.81-7.18,8.89-8.36.48-3.22,4.13-5.47,7.73-5.21,1.74-2.68,6.07-3.63,9.08-3.63,2.72,0,7.81,1.18,9.55,4.42,3.31-.95,6.21,1.32,7.81,3.96,2.39-.02,5.65,2.4,5.84,5.37,3.44.87,4.19,5.25,4.34,6.92,6.63,8.84,13.15,13.26,17.26,15.47,4.1,2.21,9.81,7.02,13.26,13.89,3.01,6.01,3.56,11.24,1.6,17.52-1.48,4.74-4.74,8.92-5.91,12.85-.48,1.61-1.99,2.99-3.08,3.83-3.19,2.45-3.35,9.89-3.56,14.17-.02.49-.16,1.41-.16,1.95.29.77.33,1.78.31,2.71-.92,1.38-3.99,1.56-6.29,1.2-.4-.06-.41-.91-.77-1-.26-.06-.89.63-1.12.56-.15-.05-.2-.07-.31-.15-.02-1.7.67-3.3,1.68-4.24.44-.94.86-1.43,1.29-2.35.95-2.05,1.46-7.06.99-9.43-.47-2.37-1.14-3.67-2.88-6.35-3.95-.32-11.05,2.05-14.68,3.16-3.63,1.11-4.81,2.37-7.97,2.84-.76,1.21-2.62,2.29-4.55,1.74-.37,1.32-2,2.37-3.63,2.63Z"/>
      <path class="cls-4" d="M24.74,88.4c-2.26-.73-3.52-3.26-3.56-5.15-1.77-1.5-3.75-4.11-3.22-5.87-1.42-1.38-4.55-5.81-4.72-10.49-1.57-2.03-2.59-4.95-1.67-7.09-1.4-2.67-1.76-7.27-.49-10.51-.78-12.76.87-24.65,5.83-32.1,2.74-4.1,5.81-7.18,8.89-8.36.48-3.22,4.13-5.47,7.73-5.21C35.26.95,39.59,0,42.6,0,45.32,0,50.41,1.18,52.15,4.42c3.31-.95,6.21,1.32,7.81,3.96,2.39-.02,5.65,2.4,5.84,5.37,3.44.87,4.19,5.25,4.34,6.92,1.58,2.37,6.05,8.68,3,11.94,2.84.84,3.55,5.58,2.21,7.47,1.74,2.21,1.76,6.21.24,8.05-.37-1.26-.95-2.68-2.47-3.73,3.08,4.87,2.55,10.19-.76,14.51.08-1.26-.03-2.77-.71-3.83.59,2.41.13,9.15-2.37,11.2,1.08,3.52-.93,7.08-2.8,8.76.21-.84-.05-2.04-.39-2.88.2,2.57.07,5.85-3.88,8.11,1.32,3.1-.87,6.05-2.39,7-.76,1.21-2.62,2.29-4.55,1.74-.37,1.32-2,2.37-3.63,2.63-.74,1.89-4.68,3.29-5.95,1.71-.84,1.11-4.58,1.03-5.21-1.45-.79,1.21-2.37.74-2.95-1.68-1.21,3.21-4.93,3.68-7.1.16-1,1.58-3.91.88-5.68-1.98Z"/>
      <path class="cls-11" d="M21.17,83.26c.83,2.02,2.01,2.99,3.04,3.18-.1.87,2.05,2.52,2.76,1.66.34,1.66,2.24,1.61,3.05.5.53,1.24,2.5,2.29,3.34,1.18.63,1.16,1.97,1.21,2.79-.97.82,1.05,2.32.87,2.73.47.96,1.02,1.95,1.71,3.39,1.95.24-.3.88-.31,1.35-.17.5.15,1.16.5,1.39,1.21.83-1.02,1.66-1.13,2.41-.77.16-.54.27-1.12.93-1.73.41-.37,1.16-.55,1.92-.51.05-1.17.39-2.63,1.18-3.8.85-1.26,2.15-1.87,3.67-2-1.25-1.6-.67-4.29,1.91-5.01,2.8-.78,4.52-2.12,5.03-4.89-1.31,0-3.04-.06-4.09-.77,3.82-.92,6.97-4.52,8.04-8.22-1.02-.03-2.32-.14-3.12-.82,2.04-.75,3.71-2.04,3.86-4.25.1-1.49-.49-2.25-1.26-3.32-1.48-2.06-1.48-4.2.15-6.3,2.53,0,4.21-1.79,4.47-3.95.2-1.65-.42-3.23-1.87-4.14,3.6-2.22,2.75-6.01-.01-9.08,2.93-.14,5.72-6.19,1.88-12.02,1.58,2.37,6.05,8.68,3,11.94,2.84.84,3.55,5.58,2.21,7.47,1.74,2.21,1.76,6.21.24,8.05-.37-1.26-.95-2.68-2.47-3.73,3.08,4.87,2.55,10.19-.76,14.51.08-1.26-.03-2.77-.71-3.83.59,2.41.13,9.15-2.37,11.2,1.08,3.52-.93,7.08-2.8,8.76.21-.84-.05-2.04-.39-2.88.2,2.57.07,5.85-3.88,8.11,1.32,3.1-.87,6.05-2.39,7-.76,1.21-2.62,2.29-4.55,1.74-.37,1.32-2,2.37-3.63,2.63-.74,1.89-4.68,3.29-5.95,1.71-.84,1.11-4.58,1.03-5.21-1.45-.79,1.21-2.37.74-2.95-1.68-1.21,3.21-4.93,3.68-7.1.16-1,1.58-3.91.88-5.68-1.98-2.26-.73-3.52-3.26-3.57-5.15Z"/>
      <path class="cls-4" d="M11.55,46.32c-2.64-2.68-3.49-6.79-2.85-8.31-1.27-3.51-.31-6.83,1.26-8.72-1.47-3.39-.71-6.39,1.73-7.91,1.32-5.98,2.81-7.55,5.46-7.19,1.59-3.84,6.96-5.99,10.12-3.36,3.25-3.11,8.48-.94,9.9,1.5,2.7-.69,4.76.34,4.9,2.55,5.45,1.14,7.28,6.93,6.71,9.81,3.18,3.71,3.66,8.1,1.93,10.85,1.67,2.8,1.04,5,.09,6.64.79,2.59-1.41,6.2-3.12,6.78-1.42,3.63-3.54,7.23-5.31,10.5-2.84,5.23-7.9,8.7-14.33,8.68-6.1-.03-10.64-4.41-12.35-8.84-1.58-4.11-3.13-9.07-4.14-12.98Z"/>
      <path class="cls-8" d="M21.69,58.97c-1.24-1.08-2.97-2.97-2.37-5.08.38-1.33,1.39-2.08,2.92-2.1,1.42-.03,2.47,1.18,3.34,1.82s1.53.55,2.32.24c.79-.32,2.05-1.5,3.71-1.74s3,.55,3.47,2.37c.47,1.82-.96,3.48-3,4.81-1.13.74-3.29.78-4.21.42-.6-.24-1.49-.26-1.89-.08-.89.39-2.89.55-4.29-.66Z"/>
      <path class="cls-3" d="M24.39,56c-.36-1.68-1.44-2.69-2.29-2.69-.97,0-1.61,1.22-1.21,2.52.72-1.04,2.37-.99,3.5.18Z"/>
      <path class="cls-3" d="M28.89,56.05c.45-1.74,1.79-2.79,2.84-2.79,1.21,0,2,1.26,1.5,2.6-.89-1.08-2.95-1.03-4.34.18Z"/>
      <path class="cls-3" d="M38.39,43.82c.16,1.09.85,1.89,1.54,1.79.69-.1,1.12-1.07.96-2.16-.16-1.09-.85-1.89-1.54-1.79-.69.1-1.12,1.07-.96,2.16Z"/>
      <path class="cls-3" d="M13.82,43.1c-.1,1.1.31,2.03.91,2.09s1.16-.8,1.26-1.9c.1-1.1-.31-2.03-.91-2.09-.6-.05-1.16.8-1.26,1.9Z"/>
      <path class="cls-3" d="M31.84,63.63c-1.92,0-4.04-.86-4.92-2.36-.82,1.58-2.8,2.45-4.53,2.35-2.29-.11-4.42-2.02-4.72-3.58-.04-.2.09-.4.3-.44.2-.04.4.1.44.3.24,1.27,2.09,2.87,4.02,2.97,1.77.1,3.85-1.01,4.1-2.8.03-.18.18-.32.37-.32h0c.18,0,.34.13.37.32.29,1.79,2.69,2.9,4.82,2.8,2.26-.1,4.42-1.71,4.71-2.98.04-.2.24-.33.45-.28.2.05.33.25.28.45-.35,1.56-2.78,3.45-5.41,3.57-.09,0-.18,0-.27,0Z"/>
      <path class="cls-5" d="M47.68,48.96c-.92-2.08-1.04-5.71.19-8.26-1.56-1.22-2.86-3.18-3.26-5.55-2.33,1.07-4.81-1.81-3.84-5.94-2.19,3.33-4.66,2.9-6.05.88-2.46,2.05-5.26-.88-6.58-5-1.58,3.95-5.52,7.06-6.26,3.47-.49,2.24-3.21,4.95-5.93,1.97.17,4.12-2.94,3.75-3.74,2.73.38,2.82-.11,4.2-1.08,5.42,1.4,2.11,1.23,5.86.42,7.63-2.64-2.68-3.49-6.79-2.85-8.31-1.27-3.51-.31-6.83,1.26-8.72-1.47-3.39-.71-6.39,1.73-7.91,1.32-5.98,2.81-7.55,5.46-7.19,1.59-3.84,6.96-5.99,10.12-3.36,3.25-3.11,8.48-.94,9.9,1.5,2.7-.69,4.76.34,4.9,2.55,5.45,1.14,7.28,6.93,6.71,9.81,3.18,3.71,3.66,8.1,1.93,10.85,1.67,2.8,1.04,5,.09,6.64.79,2.59-1.41,6.2-3.12,6.78Z"/>
      <g>
        <path class="cls-6" d="M51.44,29.76c2.2-2.21,5.68-3.24,9.22-2.13,1.01.32,1.23,1.09.63,1.97-1.95,2.91-6.18,3.95-9.64,3.11.1-.93.03-1.93-.21-2.96Z"/>
        <path class="cls-6" d="M3.61,25.24c2.18-.34,4.1.16,5.62,1.26.07.88.3,1.82.72,2.8-.53.64-.99,1.44-1.32,2.36-2.28-.43-4.82-1.98-5.89-4.58-.4-.97-.09-1.69.86-1.84Z"/>
      </g>
      <path class="cls-5" d="M42.37,59.46c-2.84,5.23-7.9,8.7-14.33,8.68-6.1-.03-10.64-4.41-12.35-8.84.31,4.35,1.73,10.81,3.79,14.07.12-.51.38-1.28.65-1.68.1.69.2,1.26.24,1.79.16,2.11.71,2.96,1.42,2.21-.03,2.32.46,3.96,1.44,2.67.28,1.68,1.8,3.61,2.91,3.29,1.09,1.2,2.91,2.01,4.09.49,2.05-.47,3.92-3.11,4.36-5.19.02.77-.08,1.77-.16,2.42,1.25-1.4,3.31-5.53,2.81-7.53.32.97.36,2.3.44,3.11,1.58-2.14,2-4.09,1.89-5.2,1.89-2.16,2.94-6.89,2.79-10.3Z"/>
      <path class="cls-8" d="M82.45,81.28c.46.71.84,1.32,1.17,1.88-.2,1.19-.79,2.14-1.76,3.29-1.54,1.82-2.84,5.29-3.2,8.17-.11.87-.22,2.12-.24,3.02.36.81.36,1.85.24,2.46-1.18,1.12-3.82,1.3-5.79,1.03-.36-.05-.36-.81-.71-.89-.22-.05-.8.58-1.01.51-.19-.06-.37-.12-.54-.19-.06-1.46.47-2.74,1.34-3.59.56-1.01.95-1.64,1.37-2.88.73-2.14.52-6.5.05-8.86-.15-.74-.4-1.68-.58-2.31,3.36-.96,7.14-1.84,9.65-1.64Z"/>
      <path class="cls-2" d="M79.98,89.71c.53-1.29,1.18-2.44,1.87-3.26.97-1.15,1.56-2.09,1.76-3.29-.33-.56-.71-1.17-1.17-1.88-2.15-.17-5.25.45-8.2,1.24,2.84-.17,4.06.52,5.12,1.88.87,1.1,1.15,3.09.61,5.31Z"/>
      <path class="cls-10" d="M81.68,103.81c-.15-.05-.2-.07-.31-.15-.02-1.7.67-3.3,1.68-4.24.21,1.49,4.51,1.9,6.5.93.29.77.33,1.78.31,2.71-.92,1.38-3.99,1.56-6.29,1.2-.4-.06-.41-.91-.77-1-.26-.06-.88.63-1.12.56Z"/>
      <path class="cls-10" d="M78.42,97.64c.36.81.36,1.85.24,2.46-1.18,1.12-3.82,1.3-5.79,1.03-.36-.05-.36-.81-.71-.89-.22-.05-.8.58-1.01.51-.19-.06-.37-.12-.54-.19-.06-1.46.47-2.74,1.34-3.59.05,1.73,4.36,1.49,6.47.67Z"/>
      <path class="cls-10" d="M50.86,109.57c-1.22,1.22-4.96,1.86-7.68,1.23-.47-.11-.19-1.14-.86-1.28-.52-.11-.99.98-1.35.9-.3-.07-.6-.17-.89-.27,0-2.37,1.52-4.72,2.27-5.69.08,1.8,1.95,1.98,3.92,1.88,1.34-.07,2.62-.45,4.04-1.06.72,1.16.78,3.02.56,4.29Z"/>
      <path class="cls-10" d="M36.74,101.93c.32.97.49,2.03.42,3.18-1.61,1.24-4.72,1.24-6.7,1.01-.39-.05-.49-.9-.87-.99-.26-.06-.82.67-1.08.59-.23-.07-.47-.15-.69-.23-.02-1.6,1.1-3.72,2.61-4.88.1,1.86,3.95,2.38,6.32,1.32Z"/>
      <path class="cls-1" d="M62.5,83.25c1.56-.04,5.11-1.03,8.43-2.92,3.31-1.89,6.31-4.58,8.84-11.84-.47,3.79.95,10.1,2.68,12.78-3.95-.32-11.05,2.05-14.68,3.16-3.63,1.11-4.81,2.37-7.97,2.84,1.02-.63,2.33-2.15,2.7-4.02Z"/>
      <path class="cls-9" d="M46.31,17.83c3.09.1,6.75,1.18,10.3-.55,3.21-1.57,6-6.1,4.3-13.03-.53-2.16.66-2.27,1.9-.17,4.01,6.75,2.08,14.73-2.38,19.08-3.73,3.64-9.71,4.78-11.84,4.93-2.7.2-4.88-1.05-5.48-4.38-.52-2.86.79-5.96,3.2-5.88Z"/>
      <path class="cls-9" d="M1.39,4.21c.97-2.24,2.6-2.59,2.1-.42-1.14,5,2.1,11.32,5.32,12.89,1.31.64,2.63.89,3.93.96-.38.99-.72,2.23-1.06,3.75-1.43.89-2.28,2.3-2.44,3.99-1.51-.71-2.97-1.67-4.26-2.82C-.02,18.08-1.33,10.45,1.39,4.21Z"/>
      <path class="cls-7" d="M60.51,30.56c.78,1.06.94,2-.27,2.9-1.93,1.44-4.27,1.54-5.76,1.2-1.35-.3-2.25-.75-2.92-1.29.04-.21.08-.43.1-.65,3.05.74,6.69.02,8.85-2.16Z"/>
      <path class="cls-8" d="M9.96,29.29c-.38.46-.72,1.01-1.01,1.62-1.74-.33-4.22-1.87-4.88-3.45-.26-.64-.08-1.08.55-1.14,1.46-.16,3.58.6,4.79,1.34.12.53.3,1.08.54,1.64Z"/>
      <path class="cls-8" d="M51.68,32.17c.02-.58-.02-1.17-.12-1.78,1.62-1.27,5.23-2.25,7.32-1.58.64.2.78.69.4,1.25-1.17,1.74-5.29,2.48-7.6,2.12Z"/>
      <g>
        <path class="cls-1" d="M42.37,59.46c1.78-3.27,3.9-6.87,5.31-10.5.52-.18,1.08-.64,1.6-1.26-.25,2.46-.72,5.23-1.54,7.22-1.1,2.68-2.05,4.42-3.16,5.68-.79,3.31-2.67,7.07-5.01,9.15,1.89-2.16,2.95-6.89,2.8-10.3Z"/>
        <path class="cls-1" d="M11.55,46.32c1.01,3.91,2.56,8.87,4.14,12.98.1,1.39.32,3.01.63,4.66-3.05-4.96-4.99-13.06-5.63-18.64.26.35.55.69.86,1.01Z"/>
      </g>
    </g>
  </g>
</svg>