<?xml version="1.0" encoding="UTF-8"?>
<svg id="Layer_2" data-name="Layer 2" xmlns="http://www.w3.org/2000/svg" width="114.03" height="112.57" viewBox="0 0 114.03 112.57">
  <defs>
    <style>
      .cls-1 {
        fill: #b5b5b6;
      }

      .cls-2 {
        fill: #3e332c;
      }

      .cls-3 {
        fill: #6c635e;
      }

      .cls-4 {
        fill: #eeeae5;
      }
    </style>
  </defs>
  <g id="Layer_1-2" data-name="Layer 1">
    <g>
      <g>
        <path class="cls-4" d="M92.06,9.26c-4.93.65-10.12,3.03-13.48,8.55-2.74,4.52-2.7,11.8-1.39,16.83,1.3,5.02,4.71,7.86,6.51,10.6,1.8,2.74,2.93,4.94,4.14,6.88,1.53,2.46,5.48,4.37,9.99,3.9,4.58-.47,7.34-2.32,8.65-5.48,1.21-2.94,3.2-8.02,4.55-11.06,1.54-3.46,2.23-7.25,1.95-11.43-.28-4.18-2.22-10.52-5.58-14.22-3.62-4-9.67-5.3-15.34-4.56Z"/>
        <path class="cls-3" d="M109.07,44.11c-.51-.98-2.87-.89-3.98-1.77-1.39-1.11-2.78-3.49-4.28-5.39-1.95-2.48-7.31-2.01-8.99.43-.84,1.22-1.64,3.22-3.56,4.62-1.2.87-3.93,1.52-4.58,3.24,1.8,2.74,2.93,4.94,4.14,6.88,1.53,2.46,5.48,4.37,9.99,3.9,4.58-.47,7.34-2.32,8.65-5.48.7-1.7,1.66-4.11,2.61-6.43h0Z"/>
        <g>
          <path class="cls-2" d="M86.56,34.69c-.08,1.02-.74,1.81-1.48,1.75s-1.28-.93-1.21-1.95c.08-1.02.74-1.81,1.48-1.75.74.06,1.28.93,1.21,1.95Z"/>
          <path class="cls-2" d="M107.44,33.73c.1,1.02-.43,1.91-1.17,1.98s-1.42-.7-1.52-1.73c-.1-1.02.43-1.91,1.17-1.98.74-.07,1.42.7,1.52,1.73Z"/>
          <path class="cls-2" d="M91.32,42.34c.76-1.15,1.89-1.56,2.73-.93.66.49.96,1.67.88,2.79-.53-1.06-1.81-2.22-3.61-1.86Z"/>
          <path class="cls-2" d="M103.15,42.1c-.8-1.12-1.95-1.48-2.76-.82-.64.52-.89,1.71-.77,2.82.49-1.08,1.72-2.29,3.53-2Z"/>
          <path class="cls-4" d="M107.07,14.03c.49-1.79,1.34-2.86,3.83-4.05,3.42-1.64,4.03-5.61,1.86-9.98-4.68.81-6.78,3.52-7.16,8.27-.17,2.07-.59,2.55-2.01,3.13-.63.26-.09,1.58,1.09,2.42,1.04.74,2.25.72,2.39.21Z"/>
          <path class="cls-3" d="M108.19,10.87c1.28-.93,3.49-2,4.39-3.53.81-1.37.79-3.76-.14-5.95-1.67.46-3.02,1.28-4.07,2.74-.95,1.33-1.46,4.51-1.79,5.65-.38,1.31.47,1.92,1.6,1.09Z"/>
          <path class="cls-4" d="M6.19,64.09c1.81,4.73,4.77,5.61,7.34,4.88,2.16-.61,3.49-2.09,5.72-6.18,2.23-4.09,3.89-8.68,7.11-11.67l-3.77,14.78c-2.14,4.51-5.53,6.6-9.18,7.01-2.84.32-4.67-.29-6.16-1.52-1.35-1.11-2.74-2.88-3.9-6.27.85,0,2.23-.31,2.83-1.02Z"/>
          <path class="cls-2" d="M97.26,53.28c-2.74,0-6.16-1-7.84-3.84-.16-.27-.07-.61.2-.77.27-.16.61-.07.77.2,1.49,2.52,4.66,3.35,7.12,3.29,2.65-.06,4.91-1.13,5.75-2.72.15-.27.49-.38.76-.23.27.14.38.48.23.76-1.04,1.97-3.61,3.24-6.71,3.32-.09,0-.18,0-.27,0Z"/>
        </g>
        <path class="cls-4" d="M75.97,83.69c3.84-5.83,6.23-8.06,9.21-15.24-.79,4.97-1.46,12-2.39,17.1-.46,2.51-1.83,8.86-2,10.74-.28,3.21.49,5.95,1.07,6.65,1.04,1.25,2.63,2.53,2.37,4.23-.17,1.15-2.49,1.72-4.65,1.63-1.98-.08-4.55-.88-5.02-2.93-.23-1.01-.05-1.86.47-3.9.54-2.17.33-5.47.08-7.33-.25-1.86-.33-3.45-.12-4.9.33-2.23.87-3.2.99-6.05Z"/>
        <path class="cls-4" d="M34.24,108.37c1.16.4,3.02.23,4.21-.13,1.07-.32,1.61-1.15,1.35-2.2-.25-.99-1.3-2.06-2.31-2.76-.92-.64-1.74-1.13-2.03-1.73-.59-1.24-1.07-3.38-1.35-5.05-.26-1.56-.37-2.64,1.08-3.62,1.73-1.18,4.28-2.39,6.45-4.31,1.73-1.53,3.3-3.01,3.89-4.14-1.32-.34-2.42-.75-3.16-1.23-1.54,2.08-3.58,4.06-5.93,5.74-2.23,1.6-4.57,2.48-6.72,3.32-1.37,1.64-2.11,2.74-1.66,4.58.48,1.97,1.34,5.2,1.58,7.26.42.51.88.95,1.28,1.16,1.74.93,2.73,1.95,3.32,3.1Z"/>
        <path class="cls-2" d="M45,85.22c-1.08.22-2.99.04-4.07-.29-.99,1.1-2.12,2.16-3.35,3.14.87.43,2.37.85,3.82.7.08-.07.16-.13.24-.2,1.35-1.19,2.6-2.36,3.36-3.35Z"/>
        <path class="cls-2" d="M30.49,91.95c.58.88,1.66,1.1,2.42.86.63-.2,1.41-.04,2.02.25.08-.06.17-.13.26-.19.68-.46,1.49-.93,2.35-1.45-1.05-.18-2.51-.62-3.38-1.1-1.24.65-2.48,1.16-3.67,1.63Z"/>
        <path class="cls-2" d="M34.11,96.5c-.09-.53-.16-1-.16-1.43-1.35.57-4.83.57-5.93-.02-.13.54-.13,1.12.04,1.8.16.63.35,1.39.55,2.2,1.52.6,3.81-.38,5.65-1.75-.05-.27-.1-.54-.14-.8Z"/>
        <path class="cls-4" d="M90.13,54.35c-.99-.63-1.78-1.4-2.3-2.23-1.21-1.94-2.34-4.14-4.14-6.88s-5.21-5.58-6.51-10.6c-.3-1.14-.53-2.41-.68-3.73h0c-2.42,4.96-7.79,9.25-11.69,11.24-3.41,1.73-8.06,2.59-12.52,2.29-5.64-.37-15.08-.04-20.1,2.19-5.02,2.23-8.34,5.86-10.04,12.46-1.89,7.34,1.43,17.1,2.31,20.7.59,2.46.74,4.67-.66,6.81-1.3,1.99-2.61,3.9-3.8,5.35-1.09,1.32-1.46,2.77-.61,4.74,1.15,2.69,3.29,6.95,3.47,10.19.15,2.58,1.19,4.79,3.85,5.34,2.46.5,4.95.43,6.31.05,1.24-.34,1.95-1.14,1.7-2.43-.1-.52-.24-1-.48-1.47-.59-1.16-1.59-2.17-3.33-3.11-.53-.29-1.17-.97-1.69-1.68-.26-.36-.49-.72-.67-1.04-1.25-2.31-2.29-5.08-2.63-6.41-.43-1.67.03-2.26,1.71-3.01,2.66-1.19,5.82-2.04,8.79-4.17,2.34-1.68,4.38-3.66,5.93-5.74,3.7,2.38,16.25,3.07,21.73.88.25,2.79-.14,5.2-.52,7.15-.5,2.6-.55,3.9,0,6.01.68,2.6,1.15,9.3.99,10.41-.43,2.98,1.42,3.78,3.35,4.34,1.39.4,4.09.31,5.45-.06s2.45-1.25,1.8-2.73c-.74-1.67-1.92-2.17-3.04-3.29-1.11-1.11-1.49-2.79-1.73-4.65s-.96-4.99,0-7.68c1.36-3.84,3.24-6.35,5.58-9.89,3.84-5.83,6.23-8.06,9.21-15.24,2.72-6.56,3.58-8.95,4.95-14.1Z"/>
        <path class="cls-2" d="M75.71,32.35c-.17.27-.34.55-.53.81-.07.1-.14.2-.21.3-.25.35-.51.7-.78,1.04-.03.03-.06.07-.09.1-.25.31-.51.61-.78.91-.04.04-.07.08-.11.12.12,1.73.32,5.45,3.15,7.77,2.61,2.14,4.03,7.95,5.14,10.23,2.2,4.49,4.66,5.07,7.28,5.33.3-.95.59-1.93.9-3.02-3.37-1.19-4.81-5.64-5.01-9.14-.08-.12-.15-.24-.23-.37-.06-.1-.12-.19-.18-.28-.19-.3-.39-.61-.59-.92-1.8-2.74-5.21-5.58-6.51-10.6-.3-1.14-.53-2.41-.68-3.73-.18.38-.39.75-.6,1.12-.06.11-.13.22-.19.32Z"/>
        <path class="cls-2" d="M85.19,68.41c.75-1.8,1.35-3.29,1.86-4.6-5.86-.47-7.51-7.03-10.73-9.44-2.66-1.99-5.22-9.5-6.77-15.32-1.07.85-2.16,1.6-3.19,2.22,1.12,5,.54,15.7,6.56,20.64,2.92,2.4,4.82,6.77,12.26,6.5Z"/>
        <path class="cls-2" d="M64.16,86.41c-.03,1.17-.15,2.25-.3,3.24,1.24,1.32,4.76,2.76,7.13,2.43.58-1.36,1.23-2.56,1.96-3.76-2.18.63-7.38-.4-8.78-1.92Z"/>
        <path class="cls-2" d="M69.96,98.02c-.07-.82-.08-1.68.01-2.55-2.21.78-5.45-.45-6.79-1.11-.01.94.11,1.8.39,2.88.09.36.18.8.27,1.29,1.35.43,4.41.13,6.12-.52Z"/>
        <path class="cls-2" d="M81.29,75.97c.92-.3,2.18-.86,3.03-1.3.28-2.22.56-4.37.86-6.22-1.35,3.27-2.58,5.51-3.89,7.53Z"/>
        <path class="cls-2" d="M77.61,81.27c-.52.74-1.07,1.54-1.65,2.42,0,.18-.02.36-.03.53,1.83.57,4.84,1.73,6.86,1.28.28-1.58.55-3.33.79-5.15-1.82.92-4.34,1.18-5.98.93Z"/>
        <path class="cls-2" d="M82.08,89.15c-1.81.61-5.31.48-7.01.06-.03.17-.06.35-.09.53-.09.64-.12,1.32-.11,2.03.65.18,1.56.6,2.15,1.13.75.67,2.06,1.1,4.21.58.25-1.34.56-2.89.85-4.33Z"/>
        <path class="cls-2" d="M60.8,79.37c.49-1.73-.28-4.01-1.54-5.92-1.62-2.47-3.35-8.13-3.83-11.27-.34-2.29-2.86-12.38-5.85-17.85-1.29-.03-2.67-.02-4.1.03,1.9,3.84,4.1,10.2,3.91,14.09-.24,5,4.42,9.54,6.34,14.26,1.03,2.53,2.09,7.28,2.21,8.64.1,1.14.44,2.8.9,3.85.83-.08,1.63-.2,2.38-.34-.77-1.37-.86-3.97-.43-5.49Z"/>
        <path class="cls-2" d="M50.56,81.56c-.31-1.36-.16-3.99.25-5.95.48-2.31-1.31-6.07-2.91-9.05-1.49-2.79-1.95-5.2-1.99-6.94-.11-4.73-4.79-10.95-8.66-14.44-1.91.35-3.66.82-5.06,1.45-1.47.65-2.79,1.43-3.97,2.37,7.98,2.2,9.76,6.19,12.24,9.76,1.8,2.6,3.38,5.83,4.38,9.07.71,2.31.97,4.71.84,6.96.49,2.63.8,5.85,1.23,6.9.36.86,1.13,2.34,1.87,3.33,1.22.16,2.51.28,3.83.33-.85-1.1-1.79-2.65-2.04-3.79Z"/>
        <path class="cls-2" d="M44.22,80.15c.22-.45.41-.9.57-1.35.22-.61.43-1.31.59-2.04-.74-2.73-2.57-6.26-7.05-9.05-2.62-1.63-8.97-11.42-14.13-13.92-.84,1.52-1.52,3.27-2.04,5.31-.15.59-.27,1.19-.35,1.81,3.07,3.77,7.51,6.78,10.6,8.27,5.14,2.48,10.33,9.74,11.82,10.98Z"/>
        <path class="cls-2" d="M21.87,68.28c.42,3.27,1.21,6.37,1.85,8.72,3.62,2.88,12.25,7.71,16.22,8.97.9-.89,1.71-1.82,2.42-2.77,0,0,.01,0,.02,0,.05-.08.1-.17.16-.25-3.48,0-17.49-10.69-20.66-14.68Z"/>
        <path class="cls-2" d="M24.88,83.29c-.06,1.14-.37,2.23-1.08,3.31-.17.26-.34.51-.5.77,1.66,1.1,6.24,2.43,8.1,4.23,1.27-.52,2.57-1.1,3.86-1.88-2.36-.67-8.45-4.44-10.38-6.42Z"/>
        <path class="cls-2" d="M26.18,96.97c-.1-.32-.19-.61-.25-.85-.26-1-.19-1.61.27-2.1-1.82-.43-4.31-1.83-5.5-2.95-.23.3-.47.6-.69.88-1.09,1.32-1.46,2.77-.61,4.74.03.06.05.12.08.19,1.43.55,4.94.79,6.71.09Z"/>
        <path class="cls-2" d="M34.25,108.38c-.59-1.16-1.59-2.17-3.33-3.11-.53-.29-1.17-.97-1.69-1.68-.26-.36-.49-.72-.67-1.04-.04-.07-.08-.15-.12-.22-1.29.64-4.49.59-6.74-.16.6,1.63,1.08,3.28,1.16,4.73.15,2.58,1.19,4.79,3.85,5.34,2.46.5,4.95.43,6.31.05,1.24-.34,1.95-1.14,1.7-2.43-.1-.52-.24-1-.48-1.47Z"/>
        <path class="cls-2" d="M37.49,103.28c-.92-.64-1.74-1.13-2.03-1.73-.15-.31-.29-.68-.42-1.09-1.59,1.19-4.11,1.72-5.8,1.3.18.85.33,1.66.4,2.34.42.51.88.95,1.28,1.16,1.74.93,2.73,1.95,3.32,3.1,1.16.4,3.02.23,4.21-.13,1.07-.32,1.61-1.15,1.35-2.2-.25-.99-1.3-2.06-2.31-2.76Z"/>
        <path class="cls-2" d="M84.23,107.17c.26-1.7-1.33-2.98-2.37-4.23-.4-.48-.9-1.97-1.07-3.92-1.7.03-4.21-.2-5.43-.66,0,1.27-.08,2.57-.34,3.6-.51,2.05-.69,2.9-.47,3.9.47,2.05,3.03,2.84,5.02,2.93,2.16.09,4.47-.47,4.65-1.63Z"/>
        <path class="cls-2" d="M72.13,105.91c-.67-.67-1.07-1.55-1.34-2.54-1.86.58-4.88.1-6.4-.35.18,2.13.26,4.08.18,4.63-.43,2.98,1.42,3.78,3.35,4.34,1.39.4,4.09.31,5.45-.06s2.45-1.25,1.8-2.73c-.74-1.67-1.92-2.17-3.03-3.28Z"/>
        <path class="cls-2" d="M61.22,43.53c.74,5.21,5.04,20.73,8.51,23.99,3.9,3.67,10.11,6.24,13.21,5.68-.35.64-.7,1.24-1.05,1.82-3.41.19-11.19,1.83-16.7-3.75-2.98-3.01-4.92-12-5.29-14.97-.37-2.98-3.83-8.46-5.31-11.81,2.29-.05,4.56-.38,6.64-.96Z"/>
        <path class="cls-2" d="M63.74,81.18c-.17-1.15-.61-3.87-.78-5.7,1.33,1.83,3.14,3.73,5.08,4.34,3.1.96,8.12-1.07,11.41-1.14-.82,1.15-1.69,2.36-2.65,3.77-1.11.99-3.96,1.75-6.87,1.39-2.51-.31-5.08-.93-6.19-2.67Z"/>
        <path class="cls-2" d="M60.46,43.73c1.58-.39,3.05-.92,4.35-1.58,3.91-1.99,9.28-6.28,11.69-11.24v.03c-.5-4.48-.05-9.63,2.07-13.12,2.15-3.54,5.06-5.79,8.16-7.12,2.46-.95,4.15,1.33,4.95,1.91,1.22.89,2.92,1.32,4.36,1.24,2.39-.14,3.91-2.48,4.16-4.16.38-2.58-2.27-8.15-6.02-9.27.69,1.26,1.11,2.1,1.22,3.28-.87-1.32-2.23-2.09-3.95-2.86.3,1.32.53,2.21.77,3.79-1.18-1.06-2.43-1.63-3.89-1.84.29,1.3.45,2.21.5,3.14-.57-.55-1.29-.86-2.04-1.02-.51.43-.99.88-1.35,1.22.11.64.25,1.36.3,1.93-.63-.53-1.08-.77-1.65-.98-.63.39-1.64,1.03-2.93,2.23-1.84,1.72-3.37,3.7-4.48,5.86-1.31,2.55-2.82,8.52-4.12,12.08-1.17,3.2-4.96,8.02-7.75,9.85-1.67,1.1-3.29,1.81-4.62,2.37-.71.3-.99.77-.81,1.37.18.63.61,1.84,1.08,2.9Z"/>
        <path class="cls-4" d="M82.6,14.91c-.64-1.74-1.58-2.74-4.15-3.71-3.55-1.35-4.49-5.25-2.69-9.79,4.73.41,7.05,2.94,7.83,7.64.34,2.05.8,2.49,2.27,2.95.65.2.23,1.57-.89,2.5-.98.82-2.18.91-2.37.41Z"/>
        <path class="cls-3" d="M80.67,11.13c-1.53-.43-3.09-.98-4.12-2.43-.92-1.3-1.1-3.68-.36-5.94,1.71.32,3.12,1.02,4.28,2.39,1.06,1.24,1.5,3.11,1.87,4.72.21.91-.32,1.64-1.67,1.26Z"/>
        <path class="cls-4" d="M61.93,38.7c.33,1.12,1.09,2.79,1.72,3.98.4-.17.79-.34,1.16-.53.58-.29,1.18-.64,1.81-1.03-.88-1.19-1.71-2.6-2.18-3.79-.87.54-1.72.99-2.51,1.36Z"/>
        <path class="cls-4" d="M69.94,38.74c.93-.76,1.85-1.6,2.72-2.5-1.12-.9-2.34-2.25-3.19-3.79-.63.82-1.3,1.61-1.98,2.32.62,1.42,1.57,2.82,2.45,3.97Z"/>
        <path class="cls-4" d="M76.51,30.94c-.07-.65-.12-1.32-.16-1.99-.95-.8-2.22-1.89-3.34-3.02-.16.47-.31.91-.46,1.32-.23.62-.55,1.3-.95,2.01.96,1.56,2.43,2.96,3.61,3.85.49-.71.93-1.45,1.29-2.2v.03Z"/>
        <path class="cls-4" d="M75.07,19.4c-.31.95-.62,1.96-.93,2.96.99.86,1.74,1.32,2.4,1.75.15-1.13.38-2.23.7-3.26-.7-.42-1.61-1.02-2.18-1.45Z"/>
        <path class="cls-4" d="M77.48,13.75c-.29.46-.56.93-.8,1.41-.16.3-.31.66-.47,1.05.73.73,1.4,1.31,2.18,1.95.06-.11.12-.23.19-.34.38-.63.79-1.2,1.22-1.75-.66-.63-1.64-1.58-2.31-2.32Z"/>
        <path class="cls-2" d="M78.58,17.82c-1.84,3.03-2.42,7.3-2.21,11.3.29-.03.57-.26.77-.53,1.11-1.55,1.16-4.51,1.84-6.48,1.04-2.97,2.76-5.34,5.11-7.39.84-.74,2.05-1.78,2.62-2.77.27-.47.38-1.04-.07-1.21-3.07,1.33-5.93,3.57-8.06,7.07Z"/>
        <path class="cls-2" d="M3.36,65.11c.85,0,2.23-.31,2.84-1.02.77-1.56.93-3.21.26-5.37-.61-1.96-2.07-3.6-3-6.72C1.26,54.79.15,56.88,0,59.27c-.12,2.11,1,4.76,3.35,5.83Z"/>
        <path class="cls-2" d="M19.52,62.27c.67,1.62,1.76,2.9,3.04,3.69.01-.02.02-.04.03-.07l3.77-14.78c-3.09,2.86-4.74,7.2-6.84,11.16Z"/>
        <path class="cls-2" d="M14.36,68.67c.34,1.03.98,2.47,1.86,3.55,1.31-.51,2.54-1.29,3.64-2.38-1.25-.61-2.34-2.14-2.9-3.37-.86,1.11-1.66,1.79-2.6,2.2Z"/>
        <path class="cls-2" d="M7.53,71.59c.95.72,2.05,1.19,3.45,1.34.19-1.09.3-2.64.39-3.78-.62-.07-1.24-.26-1.83-.6-.52.89-1.36,2.17-2,3.04Z"/>
        <path class="cls-2" d="M7.47,66.57c-.47-.67-.9-1.49-1.28-2.49-.6.71-1.98,1.02-2.84,1.02.45,1.32.94,2.39,1.45,3.28.81-.49,1.95-1.26,2.67-1.82Z"/>
        <path class="cls-1" d="M75.97,83.69c-.09,2.17-.43,3.25-.73,4.62,3.11-3.99,6.41-10.94,7.95-15.59-2.17,4.13-4.27,6.49-7.22,10.98Z"/>
        <path class="cls-2" d="M97.22,16.24c1.21,3.22,1.61,5.39,1.86,8.58s-.33,6.34-.96,8.71c-.32,1.19-1.61,1.09-1.89.12-.78-2.63-1.46-5.24-1.86-8.24-.47-3.53.09-6.41.4-8.92.17-1.4,1.98-1.49,2.45-.25Z"/>
        <path class="cls-2" d="M93.79,32.48c-.99-2.47-2.07-5.18-2.51-7.34-.56-2.73-.39-5.8-.34-7.8.03-1-1.4-1.31-1.94-.23-.85,1.7-1.33,3.25-1.53,4.65-.22,1.5.06,3.5,1.24,5.79,1.14,2.21,3.23,4.79,4.03,5.72.43.51,1.43.13,1.05-.8Z"/>
        <path class="cls-2" d="M102.18,32.14c1.18-1.99,2.58-4.01,2.46-7.69-.12-3.68-1.9-6.05-3.11-7.99-.78-1.24-2.12-.8-1.67.15.99,2.11,1.58,3.46,1.92,5.02.37,1.7.4,3.29.12,5.24-.31,2.17-.62,3.44-1.24,5.05-.35.89.83,1.36,1.52.22Z"/>
        <path class="cls-2" d="M83.04,23.08c.68-1.83,1.59-3.4,2.39-4.46,1.3-1.73,2.69-2.98,4.68-3.87.9-.4.71-1.55-.53-1.36-1.72.26-4.7,1.78-6.1,3.78-1.3,1.86-1.61,3.9-1.77,5.73-.08.91.95,1.21,1.33.19Z"/>
        <path class="cls-2" d="M108.04,21.29c.03-1.67-.34-3.53-1.18-4.93-.84-1.39-2.4-2.72-4.65-3.41-1.12-.34-1.71.33-.96.81,2.14,1.36,3.1,2.14,3.93,3.53.84,1.39,1.27,2.48,1.61,4.21.25,1.24,1.21,1.27,1.24-.22Z"/>
        <path class="cls-2" d="M88.56,38.38c-1.21-.81-3.77-.83-5.1.05-1.23.81-1.97,2.1-2.01,3.9.47.59.93,1.14,1.35,1.69.19-1.75.95-3.05,2-3.77.89-.62,2.18-.84,3.23-.74.86.08,1.16-.7.54-1.12Z"/>
        <path class="cls-2" d="M108.64,37.65c-1.24-.82-3.18-.58-4.3.41-.58.51-.3,1.32.5,1.16.97-.2,2.17-.08,2.99.5.99.7,1.52,1.49,1.96,2.64.3-.72.59-1.4.86-2.03-.4-1.14-1.13-2.09-2.01-2.67Z"/>
        <path class="cls-2" d="M112.91,32.25c-.17-1.32-.52-2.5-1.34-3.71-.93-1.38-2.71-2.7-4.09-3.17-1.03-.35-1.62.71-.91,1.29,1.33,1.09,2.53,2.46,3.42,3.9.75,1.23,1.85,3.74,1.87,6.71.53-1.61.88-3.28,1.05-5.03Z"/>
        <path class="cls-2" d="M83.54,25.92c-1.48.52-3.47,1.71-4.6,3.07-1.25,1.5-1.82,2.92-2.04,4.42.09.42.18.83.28,1.23.28,1.1.67,2.08,1.12,2.99.42-2.69,1.65-5.01,2.59-6.23,1.33-1.72,2.39-2.71,4.18-4.14.83-.66.19-1.95-1.53-1.35Z"/>
        <path class="cls-4" d="M82.6,14.91c-.64-1.74-1.58-2.74-4.15-3.71-3.55-1.35-4.49-5.25-2.69-9.79,4.73.41,7.05,2.94,7.83,7.64.34,2.05.8,2.49,2.27,2.95.65.2.23,1.57-.89,2.5-.98.82-2.18.91-2.37.41Z"/>
        <path class="cls-3" d="M81.41,11.87c-1.46-.74-3.67-1.37-4.87-3.16-.89-1.32-1.1-3.68-.36-5.94,1.71.32,3.12,1.02,4.28,2.39,1.06,1.24,2.02,3.67,2.51,5.55.23.9-.31,1.8-1.56,1.16Z"/>
        <path class="cls-1" d="M90.13,54.35c-.99-.63-1.78-1.4-2.3-2.23-1.21-1.94-2.34-4.14-4.14-6.88-.61-.93-1.41-1.87-2.24-2.9,0,0,0,0,0,0,2.87,6.09,3.94,9.42,4.55,13.43.41,2.68.63,6.19-.08,10.88,2.14-5.24,2.97-7.65,4.21-12.3Z"/>
      </g>
      <path class="cls-1" d="M43.68,82.86c.16-.45.62-1.49,1.01-2.42.62-1.49.96-3.41.98-5.66-.08,1.35-.46,2.85-.88,4.01-.53,1.47-1.36,2.96-2.43,4.4-1.54,2.08-3.58,4.06-5.93,5.74-.92.66-1.85,1.19-2.79,1.65,3.62-.9,7.97-3.11,10.44-5.39.33-.3.65-.61.95-.91-.14-.04-.28-.08-.41-.13-.72-.29-1.1-.86-.94-1.31Z"/>
      <path class="cls-1" d="M47.82,84.87c5.29.85,12.47.72,16.27-.79-.08-.93-.22-1.98-.35-2.89-.07,2.06-3.66,2.84-6.68,3.24-2.24.3-7.34.74-9.24.45Z"/>
    </g>
  </g>
</svg>